<?xml version="1.0" encoding="utf-8"?>
<!-- Generator: Adobe Illustrator 16.0.0, SVG Export Plug-In . SVG Version: 6.00 Build 0)  -->
<!DOCTYPE svg PUBLIC "-//W3C//DTD SVG 1.1//EN" "http://www.w3.org/Graphics/SVG/1.1/DTD/svg11.dtd">
<svg version="1.1" id="Layer_1" xmlns="http://www.w3.org/2000/svg" xmlns:xlink="http://www.w3.org/1999/xlink" x="0px" y="0px"
	 width="105px" height="210px" viewBox="0 0 105 210" enable-background="new 0 0 105 210" xml:space="preserve">
<g>
	<g>
		<g>
			<linearGradient id="SVGID_1_" gradientUnits="userSpaceOnUse" x1="0.75" y1="147.1807" x2="103.175" y2="147.1807">
				<stop  offset="0" style="stop-color:#3E393C"/>
				<stop  offset="0.9412" style="stop-color:#1A0900"/>
			</linearGradient>
			<path fill-rule="evenodd" clip-rule="evenodd" fill="url(#SVGID_1_)" d="M101.8,89.8c-0.5-0.2-1-0.3-1.6-0.3H10.1
				c0,0-0.1,0-0.1,0l0.1-0.1l-5.6-2.9H93c1.4-0.2,3,0.2,4.8,1.2L101.8,89.8z M1.1,87.6l6.4,3.3c-0.2,0.4-0.3,0.9-0.3,1.5v113.7
				c0,0.7,0.1,1.3,0.5,1.8l-6.1-8.4c-0.5-0.6-0.8-1.4-0.9-2.5V89.5c0-0.4,0-0.7,0-1C0.9,88.2,1,87.9,1.1,87.6z"/>
			<linearGradient id="SVGID_2_" gradientUnits="userSpaceOnUse" x1="0.75" y1="147.1807" x2="103.175" y2="147.1807">
				<stop  offset="0" style="stop-color:#3E393C"/>
				<stop  offset="0.9412" style="stop-color:#1A0900"/>
			</linearGradient>
			<path fill-rule="evenodd" clip-rule="evenodd" fill="url(#SVGID_2_)" d="M101.8,89.8c-0.5-0.2-1-0.3-1.6-0.3H10.1
				c0,0-0.1,0-0.1,0l0.1-0.1l-5.6-2.9H93c1.4-0.2,3,0.2,4.8,1.2L101.8,89.8z M1.1,87.6l6.4,3.3c-0.2,0.4-0.3,0.9-0.3,1.5v113.7
				c0,0.7,0.1,1.3,0.5,1.8l-6.1-8.4c-0.5-0.6-0.8-1.4-0.9-2.5V89.5c0-0.4,0-0.7,0-1C0.9,88.2,1,87.9,1.1,87.6z"/>
			<linearGradient id="SVGID_3_" gradientUnits="userSpaceOnUse" x1="4.8862" y1="89.8491" x2="6.1053" y2="87.546">
				<stop  offset="0" style="stop-color:#3C3639"/>
				<stop  offset="0.502" style="stop-color:#999396"/>
				<stop  offset="1" style="stop-color:#3B3537"/>
			</linearGradient>
			<path fill-rule="evenodd" clip-rule="evenodd" fill="url(#SVGID_3_)" d="M7.5,90.9l-6.4-3.3c0.3-0.4,0.7-0.7,1.3-0.9
				c0.3-0.1,0.6-0.2,1-0.2c0.1,0,0.2,0,0.3,0h0.8l5.6,2.9L10,89.5H9.7H9.6c-0.3,0.1-0.6,0.1-0.8,0.2C8.5,89.8,8.2,90,8,90.1
				c-0.1,0.1-0.3,0.3-0.4,0.5C7.6,90.7,7.5,90.8,7.5,90.9z"/>
			<linearGradient id="SVGID_4_" gradientUnits="userSpaceOnUse" x1="4.8862" y1="89.8491" x2="6.1053" y2="87.546">
				<stop  offset="0" style="stop-color:#3C3639"/>
				<stop  offset="0.502" style="stop-color:#999396"/>
				<stop  offset="1" style="stop-color:#3B3537"/>
			</linearGradient>
			<path fill-rule="evenodd" clip-rule="evenodd" fill="url(#SVGID_4_)" d="M7.5,90.9l-6.4-3.3c0.3-0.4,0.7-0.7,1.3-0.9
				c0.3-0.1,0.6-0.2,1-0.2c0.1,0,0.2,0,0.3,0h0.8l5.6,2.9L10,89.5H9.7H9.6c-0.3,0.1-0.6,0.1-0.8,0.2C8.5,89.8,8.2,90,8,90.1
				c-0.1,0.1-0.3,0.3-0.4,0.5C7.6,90.7,7.5,90.8,7.5,90.9z"/>
			<linearGradient id="SVGID_5_" gradientUnits="userSpaceOnUse" x1="9.9502" y1="149.25" x2="103.7502" y2="149.25">
				<stop  offset="0" style="stop-color:#847B7E"/>
				<stop  offset="0.9412" style="stop-color:#28201E"/>
			</linearGradient>
			<path fill-rule="evenodd" clip-rule="evenodd" fill="url(#SVGID_5_)" d="M10,209L9.7,89.5H10c0.1,0,0.1,0,0.1,0h90.1
				c0.6,0,1.2,0.1,1.6,0.3c0.1,0,0.1,0.1,0.2,0.1c0,0,0.1,0,0.2,0.1l0,0c0,0,0.1,0,0.1,0.1c0.1,0,0.2,0.1,0.4,0.2
				c0,0,0.1,0.1,0.2,0.2c0.6,0.7,0.9,1.7,0.8,3.1v112.4c0,2-1,3-3,3H10.1C10.1,209,10,209,10,209z M22.6,92.6
				c-0.4-0.3-0.9-0.5-1.5-0.6c-0.6-0.2-1.5-0.3-2.6-0.3h-2.8v10.9h2.8c1,0,1.8-0.1,2.4-0.2c0.6-0.1,1.2-0.4,1.7-0.7
				c0.7-0.4,1.3-1,1.8-1.9c0.4-0.8,0.6-1.7,0.6-2.7c0-1.1-0.2-2-0.6-2.8C24,93.7,23.4,93.1,22.6,92.6z M20.4,93.1
				c0.5,0.1,0.9,0.3,1.4,0.5c0.6,0.3,1.1,0.8,1.4,1.4c0.3,0.6,0.4,1.3,0.4,2.2s-0.1,1.6-0.4,2.1c-0.3,0.6-0.7,1-1.2,1.4
				c-0.4,0.3-0.9,0.5-1.4,0.6c-0.6,0.1-1.2,0.2-1.9,0.2h-1.4V93h1.4C19.3,93,19.9,93,20.4,93.1z M33.5,96c0.4,0.4,0.6,1,0.6,1.7
				h-4.8c0.1-0.7,0.3-1.2,0.8-1.6c0.4-0.5,1-0.7,1.8-0.7C32.6,95.4,33.2,95.5,33.5,96z M43.6,97.6c0-0.7,0.3-1.2,0.8-1.6
				c0.4-0.5,1-0.7,1.8-0.7c0.7,0,1.3,0.2,1.6,0.6c0.4,0.4,0.5,1,0.5,1.7H43.6z M44.4,101c-0.2-0.2-0.4-0.6-0.6-1
				c-0.1-0.4-0.2-0.8-0.2-1.3h6V98c0-1.2-0.3-2.1-0.9-2.8c-0.6-0.6-1.5-1-2.6-1c-1.2,0-2.1,0.4-2.9,1.1c-0.8,0.8-1.1,1.8-1.1,3.2
				c0,1.3,0.4,2.4,1.1,3.1c0.8,0.7,1.8,1.1,3.2,1.1c0.5,0,1-0.1,1.5-0.2s1-0.3,1.5-0.4v-1.6h-0.1c-0.2,0.2-0.6,0.4-1.3,0.6
				c-0.5,0.2-1.1,0.4-1.6,0.4c-0.4,0-0.8,0-1.1-0.1C45,101.4,44.7,101.2,44.4,101z M35.4,98.7V98c0-1.2-0.3-2.1-0.9-2.8
				s-1.5-1-2.5-1c-1.2,0-2.1,0.4-2.9,1.1c-0.8,0.8-1.1,1.8-1.1,3.2c0,1.3,0.4,2.4,1.1,3.1c0.8,0.7,1.8,1.1,3.2,1.1
				c0.5,0,1-0.1,1.5-0.2s1-0.3,1.5-0.4v-1.6h-0.1c-0.2,0.2-0.6,0.4-1.2,0.6c-0.6,0.2-1.1,0.4-1.7,0.4c-0.5,0-0.8,0-1.1-0.1
				c-0.4-0.1-0.7-0.3-0.9-0.5c-0.2-0.2-0.5-0.6-0.7-1c-0.1-0.4-0.2-0.8-0.2-1.3H35.4z M38.2,94.5v-2.3h-1.4v2.3H36v1.1h0.8v4.4
				c0,1,0.2,1.7,0.7,2.1c0.4,0.5,1,0.7,1.9,0.7c0.2,0,0.5,0,0.9-0.1c0.3,0,0.5-0.1,0.8-0.1v-1.3h0c-0.1,0-0.3,0.1-0.5,0.1
				c-0.2,0.1-0.5,0.1-0.7,0.1c-0.4,0-0.7,0-0.9-0.1c-0.2-0.1-0.3-0.3-0.4-0.5c-0.1-0.2-0.2-0.4-0.2-0.6c0-0.2,0-0.6,0-1v-3.8H41
				v-1.1H38.2z M22.6,110.5c-7.1,0.3-10.8,4-10.9,11v40.7l2,2.9c0.1,0,0.3,0.1,0.4,0.2l0.1,0c0,0,0.1,0,0.1,0l0.6,0.1h81.5
				c0.2-0.1,0.5-0.1,0.7-0.2c0.8-0.2,1.4-0.7,1.7-1.3c0.1-0.2,0.2-0.5,0.3-0.8v-36.8c-0.3-2.2-1.6-3.7-3.9-4.5
				c-0.9-0.3-1.9-0.5-3.1-0.5c-0.1,0-0.1,0-0.1,0h-4.5c-0.4,0-2.8,0-7.3-0.2c-4.2-0.2-7.4-1.4-9.6-3.7l-0.3-0.1
				c-3.9-4.1-8.3-6.4-13.4-7H22.6z M56.7,94.5c-0.5-0.1-0.9-0.2-1.4-0.2c-1.2,0-2.1,0.4-2.8,1.1c-0.8,0.8-1.2,1.8-1.2,3.1
				c0,0.7,0.1,1.4,0.3,1.9c0.2,0.6,0.5,1,0.9,1.3c0.3,0.4,0.7,0.6,1.2,0.9c0.5,0.2,1.1,0.3,1.7,0.3c0.5,0,0.9-0.1,1.3-0.2
				c0.5-0.1,0.9-0.3,1.4-0.5v-1.5h-0.1c-0.1,0.1-0.3,0.2-0.4,0.4c-0.2,0.1-0.4,0.2-0.6,0.3c-0.2,0.1-0.5,0.3-0.8,0.3
				c-0.3,0.1-0.6,0.1-0.9,0.1c-0.8,0-1.4-0.3-1.9-0.8c-0.5-0.6-0.7-1.4-0.7-2.4s0.2-1.8,0.7-2.3c0.5-0.5,1.1-0.8,1.9-0.8
				c0.5,0,0.9,0.1,1.3,0.3c0.4,0.1,0.8,0.4,1.3,0.8H58V95C57.5,94.8,57.1,94.6,56.7,94.5z M64.5,94.5h-2.8v-2.3h-1.4v2.3h-0.8v1.1
				h0.8v4.4c0,1,0.2,1.7,0.7,2.1c0.4,0.5,1,0.7,1.9,0.7c0.2,0,0.5,0,0.8-0.1c0.3,0,0.5-0.1,0.8-0.1v-1.3h0c-0.1,0-0.3,0.1-0.5,0.1
				c-0.2,0.1-0.5,0.1-0.7,0.1c-0.4,0-0.7,0-0.9-0.1c-0.2-0.1-0.3-0.3-0.4-0.5c-0.1-0.2-0.2-0.4-0.2-0.6c0-0.2,0-0.6,0-1v-3.8h2.8
				V94.5z M67.4,100.9c-0.4-0.5-0.6-1.3-0.6-2.4c0-1,0.2-1.8,0.6-2.4c0.4-0.5,1-0.8,1.8-0.8c0.7,0,1.3,0.3,1.7,0.8
				c0.4,0.6,0.6,1.4,0.6,2.4c0,1.1-0.2,1.9-0.6,2.4c-0.4,0.5-1,0.8-1.7,0.8C68.4,101.7,67.8,101.4,67.4,100.9z M69.2,94.3
				c-1.2,0-2.1,0.4-2.8,1.1c-0.7,0.8-1.1,1.8-1.1,3.1c0,1.3,0.4,2.4,1.1,3.2c0.7,0.8,1.6,1.1,2.8,1.1c1.1,0,2-0.4,2.8-1.1
				c0.7-0.8,1-1.8,1-3.2c0-1.3-0.3-2.4-1-3.1C71.3,94.6,70.3,94.3,69.2,94.3z M79.5,94.5c-0.2,0-0.4,0-0.5,0c-0.1,0-0.3,0-0.5,0
				c-0.5,0-0.9,0.1-1.3,0.3c-0.4,0.2-0.9,0.5-1.5,1v-1.3h-1.3v8.2h1.3v-5.8c0.4-0.3,0.8-0.6,1.2-0.8c0.4-0.2,0.8-0.3,1.3-0.3
				c0.3,0,0.5,0,0.7,0.1c0.2,0,0.4,0,0.6,0.1h0V94.5z"/>
			<linearGradient id="SVGID_6_" gradientUnits="userSpaceOnUse" x1="9.9502" y1="149.25" x2="103.7502" y2="149.25">
				<stop  offset="0" style="stop-color:#847B7E"/>
				<stop  offset="0.9412" style="stop-color:#28201E"/>
			</linearGradient>
			<path fill-rule="evenodd" clip-rule="evenodd" fill="url(#SVGID_6_)" d="M10,209L9.7,89.5H10c0.1,0,0.1,0,0.1,0h90.1
				c0.6,0,1.2,0.1,1.6,0.3c0.1,0,0.1,0.1,0.2,0.1c0,0,0.1,0,0.2,0.1l0,0c0,0,0.1,0,0.1,0.1c0.1,0,0.2,0.1,0.4,0.2
				c0,0,0.1,0.1,0.2,0.2c0.6,0.7,0.9,1.7,0.8,3.1v112.4c0,2-1,3-3,3H10.1C10.1,209,10,209,10,209z M22.6,92.6
				c-0.4-0.3-0.9-0.5-1.5-0.6c-0.6-0.2-1.5-0.3-2.6-0.3h-2.8v10.9h2.8c1,0,1.8-0.1,2.4-0.2c0.6-0.1,1.2-0.4,1.7-0.7
				c0.7-0.4,1.3-1,1.8-1.9c0.4-0.8,0.6-1.7,0.6-2.7c0-1.1-0.2-2-0.6-2.8C24,93.7,23.4,93.1,22.6,92.6z M20.4,93.1
				c0.5,0.1,0.9,0.3,1.4,0.5c0.6,0.3,1.1,0.8,1.4,1.4c0.3,0.6,0.4,1.3,0.4,2.2s-0.1,1.6-0.4,2.1c-0.3,0.6-0.7,1-1.2,1.4
				c-0.4,0.3-0.9,0.5-1.4,0.6c-0.6,0.1-1.2,0.2-1.9,0.2h-1.4V93h1.4C19.3,93,19.9,93,20.4,93.1z M33.5,96c0.4,0.4,0.6,1,0.6,1.7
				h-4.8c0.1-0.7,0.3-1.2,0.8-1.6c0.4-0.5,1-0.7,1.8-0.7C32.6,95.4,33.2,95.5,33.5,96z M43.6,97.6c0-0.7,0.3-1.2,0.8-1.6
				c0.4-0.5,1-0.7,1.8-0.7c0.7,0,1.3,0.2,1.6,0.6c0.4,0.4,0.5,1,0.5,1.7H43.6z M44.4,101c-0.2-0.2-0.4-0.6-0.6-1
				c-0.1-0.4-0.2-0.8-0.2-1.3h6V98c0-1.2-0.3-2.1-0.9-2.8c-0.6-0.6-1.5-1-2.6-1c-1.2,0-2.1,0.4-2.9,1.1c-0.8,0.8-1.1,1.8-1.1,3.2
				c0,1.3,0.4,2.4,1.1,3.1c0.8,0.7,1.8,1.1,3.2,1.1c0.5,0,1-0.1,1.5-0.2s1-0.3,1.5-0.4v-1.6h-0.1c-0.2,0.2-0.6,0.4-1.3,0.6
				c-0.5,0.2-1.1,0.4-1.6,0.4c-0.4,0-0.8,0-1.1-0.1C45,101.4,44.7,101.2,44.4,101z M35.4,98.7V98c0-1.2-0.3-2.1-0.9-2.8
				s-1.5-1-2.5-1c-1.2,0-2.1,0.4-2.9,1.1c-0.8,0.8-1.1,1.8-1.1,3.2c0,1.3,0.4,2.4,1.1,3.1c0.8,0.7,1.8,1.1,3.2,1.1
				c0.5,0,1-0.1,1.5-0.2s1-0.3,1.5-0.4v-1.6h-0.1c-0.2,0.2-0.6,0.4-1.2,0.6c-0.6,0.2-1.1,0.4-1.7,0.4c-0.5,0-0.8,0-1.1-0.1
				c-0.4-0.1-0.7-0.3-0.9-0.5c-0.2-0.2-0.5-0.6-0.7-1c-0.1-0.4-0.2-0.8-0.2-1.3H35.4z M38.2,94.5v-2.3h-1.4v2.3H36v1.1h0.8v4.4
				c0,1,0.2,1.7,0.7,2.1c0.4,0.5,1,0.7,1.9,0.7c0.2,0,0.5,0,0.9-0.1c0.3,0,0.5-0.1,0.8-0.1v-1.3h0c-0.1,0-0.3,0.1-0.5,0.1
				c-0.2,0.1-0.5,0.1-0.7,0.1c-0.4,0-0.7,0-0.9-0.1c-0.2-0.1-0.3-0.3-0.4-0.5c-0.1-0.2-0.2-0.4-0.2-0.6c0-0.2,0-0.6,0-1v-3.8H41
				v-1.1H38.2z M22.6,110.5c-7.1,0.3-10.8,4-10.9,11v40.7l2,2.9c0.1,0,0.3,0.1,0.4,0.2l0.1,0c0,0,0.1,0,0.1,0l0.6,0.1h81.5
				c0.2-0.1,0.5-0.1,0.7-0.2c0.8-0.2,1.4-0.7,1.7-1.3c0.1-0.2,0.2-0.5,0.3-0.8v-36.8c-0.3-2.2-1.6-3.7-3.9-4.5
				c-0.9-0.3-1.9-0.5-3.1-0.5c-0.1,0-0.1,0-0.1,0h-4.5c-0.4,0-2.8,0-7.3-0.2c-4.2-0.2-7.4-1.4-9.6-3.7l-0.3-0.1
				c-3.9-4.1-8.3-6.4-13.4-7H22.6z M56.7,94.5c-0.5-0.1-0.9-0.2-1.4-0.2c-1.2,0-2.1,0.4-2.8,1.1c-0.8,0.8-1.2,1.8-1.2,3.1
				c0,0.7,0.1,1.4,0.3,1.9c0.2,0.6,0.5,1,0.9,1.3c0.3,0.4,0.7,0.6,1.2,0.9c0.5,0.2,1.1,0.3,1.7,0.3c0.5,0,0.9-0.1,1.3-0.2
				c0.5-0.1,0.9-0.3,1.4-0.5v-1.5h-0.1c-0.1,0.1-0.3,0.2-0.4,0.4c-0.2,0.1-0.4,0.2-0.6,0.3c-0.2,0.1-0.5,0.3-0.8,0.3
				c-0.3,0.1-0.6,0.1-0.9,0.1c-0.8,0-1.4-0.3-1.9-0.8c-0.5-0.6-0.7-1.4-0.7-2.4s0.2-1.8,0.7-2.3c0.5-0.5,1.1-0.8,1.9-0.8
				c0.5,0,0.9,0.1,1.3,0.3c0.4,0.1,0.8,0.4,1.3,0.8H58V95C57.5,94.8,57.1,94.6,56.7,94.5z M64.5,94.5h-2.8v-2.3h-1.4v2.3h-0.8v1.1
				h0.8v4.4c0,1,0.2,1.7,0.7,2.1c0.4,0.5,1,0.7,1.9,0.7c0.2,0,0.5,0,0.8-0.1c0.3,0,0.5-0.1,0.8-0.1v-1.3h0c-0.1,0-0.3,0.1-0.5,0.1
				c-0.2,0.1-0.5,0.1-0.7,0.1c-0.4,0-0.7,0-0.9-0.1c-0.2-0.1-0.3-0.3-0.4-0.5c-0.1-0.2-0.2-0.4-0.2-0.6c0-0.2,0-0.6,0-1v-3.8h2.8
				V94.5z M67.4,100.9c-0.4-0.5-0.6-1.3-0.6-2.4c0-1,0.2-1.8,0.6-2.4c0.4-0.5,1-0.8,1.8-0.8c0.7,0,1.3,0.3,1.7,0.8
				c0.4,0.6,0.6,1.4,0.6,2.4c0,1.1-0.2,1.9-0.6,2.4c-0.4,0.5-1,0.8-1.7,0.8C68.4,101.7,67.8,101.4,67.4,100.9z M69.2,94.3
				c-1.2,0-2.1,0.4-2.8,1.1c-0.7,0.8-1.1,1.8-1.1,3.1c0,1.3,0.4,2.4,1.1,3.2c0.7,0.8,1.6,1.1,2.8,1.1c1.1,0,2-0.4,2.8-1.1
				c0.7-0.8,1-1.8,1-3.2c0-1.3-0.3-2.4-1-3.1C71.3,94.6,70.3,94.3,69.2,94.3z M79.5,94.5c-0.2,0-0.4,0-0.5,0c-0.1,0-0.3,0-0.5,0
				c-0.5,0-0.9,0.1-1.3,0.3c-0.4,0.2-0.9,0.5-1.5,1v-1.3h-1.3v8.2h1.3v-5.8c0.4-0.3,0.8-0.6,1.2-0.8c0.4-0.2,0.8-0.3,1.3-0.3
				c0.3,0,0.5,0,0.7,0.1c0.2,0,0.4,0,0.6,0.1h0V94.5z"/>
			<path fill-rule="evenodd" clip-rule="evenodd" d="M38.2,94.5H41v1.1h-2.8v3.8c0,0.4,0,0.8,0,1c0,0.3,0.1,0.5,0.2,0.6
				c0.1,0.2,0.2,0.4,0.4,0.5c0.2,0.1,0.5,0.1,0.9,0.1c0.2,0,0.5,0,0.7-0.1c0.3-0.1,0.4-0.1,0.5-0.1h0v1.3c-0.3,0-0.5,0.1-0.8,0.1
				c-0.3,0.1-0.6,0.1-0.9,0.1c-0.9,0-1.5-0.2-1.9-0.7c-0.5-0.4-0.7-1.1-0.7-2.1v-4.4H36v-1.1h0.8v-2.3h1.4V94.5z M35.4,98.7h-6
				c0,0.5,0.1,0.9,0.2,1.3c0.2,0.4,0.4,0.7,0.7,1c0.3,0.2,0.6,0.4,0.9,0.5c0.3,0.1,0.7,0.1,1.1,0.1c0.5,0,1.1-0.1,1.7-0.4
				c0.6-0.2,1-0.4,1.2-0.6h0.1v1.6c-0.5,0.2-1,0.3-1.5,0.4s-1,0.2-1.5,0.2c-1.4,0-2.4-0.4-3.2-1.1c-0.8-0.8-1.1-1.8-1.1-3.1
				c0-1.4,0.4-2.4,1.1-3.2c0.7-0.8,1.7-1.1,2.9-1.1c1.1,0,1.9,0.3,2.5,1s0.9,1.5,0.9,2.8V98.7z M44.4,101c0.3,0.2,0.6,0.4,1,0.5
				c0.3,0.1,0.7,0.1,1.1,0.1c0.6,0,1.1-0.1,1.6-0.4c0.6-0.2,1-0.4,1.3-0.6h0.1v1.6c-0.5,0.2-1,0.3-1.5,0.4s-1,0.2-1.5,0.2
				c-1.4,0-2.4-0.4-3.2-1.1c-0.8-0.8-1.1-1.8-1.1-3.1c0-1.4,0.4-2.4,1.1-3.2c0.7-0.8,1.7-1.1,2.9-1.1c1.1,0,2,0.3,2.6,1
				c0.6,0.6,0.9,1.5,0.9,2.8v0.8h-6c0,0.5,0.1,0.9,0.2,1.3C44,100.4,44.2,100.7,44.4,101z M43.6,97.6h4.7c0-0.7-0.2-1.3-0.5-1.7
				c-0.4-0.4-0.9-0.6-1.6-0.6c-0.8,0-1.4,0.2-1.8,0.7C43.9,96.5,43.6,97,43.6,97.6z M33.5,96c-0.4-0.4-0.9-0.6-1.6-0.6
				c-0.8,0-1.4,0.2-1.8,0.7c-0.4,0.4-0.7,0.9-0.8,1.6h4.8C34.1,96.9,33.9,96.4,33.5,96z M20.4,93.1c-0.5-0.1-1-0.1-1.7-0.1h-1.4v8.4
				h1.4c0.7,0,1.3-0.1,1.9-0.2c0.5-0.1,1-0.3,1.4-0.6c0.5-0.3,0.9-0.8,1.2-1.4c0.3-0.5,0.4-1.2,0.4-2.1s-0.1-1.6-0.4-2.2
				c-0.3-0.6-0.8-1-1.4-1.4C21.3,93.4,20.9,93.2,20.4,93.1z M22.6,92.6c0.7,0.5,1.3,1.1,1.8,1.9c0.4,0.8,0.6,1.7,0.6,2.8
				c0,1-0.2,1.9-0.6,2.7c-0.4,0.8-1,1.4-1.8,1.9c-0.5,0.3-1.1,0.6-1.7,0.7c-0.6,0.1-1.4,0.2-2.4,0.2h-2.8V91.7h2.8
				c1.1,0,2,0.1,2.6,0.3C21.7,92.1,22.2,92.3,22.6,92.6z M79.5,94.5V96h0c-0.2,0-0.4-0.1-0.6-0.1c-0.2-0.1-0.4-0.1-0.7-0.1
				c-0.4,0-0.8,0.1-1.3,0.3c-0.4,0.2-0.8,0.4-1.2,0.8v5.8h-1.3v-8.2h1.3v1.3c0.6-0.5,1-0.8,1.5-1c0.4-0.2,0.8-0.3,1.3-0.3
				c0.2,0,0.4,0,0.5,0C79.1,94.5,79.3,94.5,79.5,94.5z M69.2,94.3c1.1,0,2,0.4,2.8,1.1c0.7,0.8,1,1.8,1,3.1c0,1.3-0.3,2.4-1,3.2
				c-0.7,0.8-1.6,1.1-2.8,1.1c-1.2,0-2.1-0.4-2.8-1.1c-0.7-0.8-1.1-1.8-1.1-3.2c0-1.3,0.4-2.4,1.1-3.1C67.1,94.6,68,94.3,69.2,94.3z
				 M67.4,100.9c0.4,0.5,1,0.8,1.8,0.8c0.7,0,1.3-0.3,1.7-0.8c0.4-0.5,0.6-1.3,0.6-2.4c0-1-0.2-1.8-0.6-2.4c-0.4-0.5-1-0.8-1.7-0.8
				c-0.8,0-1.4,0.3-1.8,0.8c-0.4,0.6-0.6,1.4-0.6,2.4C66.8,99.6,67,100.4,67.4,100.9z M64.5,94.5v1.1h-2.8v3.8c0,0.4,0,0.8,0,1
				c0,0.3,0.1,0.5,0.2,0.6c0.1,0.2,0.2,0.4,0.4,0.5c0.2,0.1,0.5,0.1,0.9,0.1c0.2,0,0.5,0,0.7-0.1c0.3-0.1,0.5-0.1,0.5-0.1h0v1.3
				c-0.3,0-0.5,0.1-0.8,0.1c-0.3,0.1-0.6,0.1-0.8,0.1c-0.9,0-1.5-0.2-1.9-0.7c-0.5-0.4-0.7-1.1-0.7-2.1v-4.4h-0.8v-1.1h0.8v-2.3h1.4
				v2.3H64.5z M56.7,94.5c0.4,0.1,0.9,0.3,1.3,0.5v1.5h-0.1c-0.5-0.4-0.9-0.6-1.3-0.8c-0.4-0.2-0.9-0.3-1.3-0.3
				c-0.8,0-1.4,0.3-1.9,0.8c-0.5,0.5-0.7,1.3-0.7,2.3s0.2,1.8,0.7,2.4c0.5,0.5,1.1,0.8,1.9,0.8c0.3,0,0.6,0,0.9-0.1
				c0.3-0.1,0.5-0.2,0.8-0.3c0.2-0.1,0.4-0.2,0.6-0.3c0.2-0.1,0.3-0.3,0.4-0.4H58v1.5c-0.5,0.2-0.9,0.4-1.4,0.5
				c-0.4,0.1-0.8,0.2-1.3,0.2c-0.6,0-1.2-0.1-1.7-0.3c-0.5-0.2-0.9-0.5-1.2-0.9c-0.4-0.3-0.7-0.7-0.9-1.3c-0.2-0.5-0.3-1.2-0.3-1.9
				c0-1.3,0.4-2.4,1.2-3.1c0.7-0.8,1.7-1.1,2.8-1.1C55.7,94.3,56.2,94.3,56.7,94.5z"/>
			<path fill-rule="evenodd" clip-rule="evenodd" d="M38.2,94.5H41v1.1h-2.8v3.8c0,0.4,0,0.8,0,1c0,0.3,0.1,0.5,0.2,0.6
				c0.1,0.2,0.2,0.4,0.4,0.5c0.2,0.1,0.5,0.1,0.9,0.1c0.2,0,0.5,0,0.7-0.1c0.3-0.1,0.4-0.1,0.5-0.1h0v1.3c-0.3,0-0.5,0.1-0.8,0.1
				c-0.3,0.1-0.6,0.1-0.9,0.1c-0.9,0-1.5-0.2-1.9-0.7c-0.5-0.4-0.7-1.1-0.7-2.1v-4.4H36v-1.1h0.8v-2.3h1.4V94.5z M35.4,98.7h-6
				c0,0.5,0.1,0.9,0.2,1.3c0.2,0.4,0.4,0.7,0.7,1c0.3,0.2,0.6,0.4,0.9,0.5c0.3,0.1,0.7,0.1,1.1,0.1c0.5,0,1.1-0.1,1.7-0.4
				c0.6-0.2,1-0.4,1.2-0.6h0.1v1.6c-0.5,0.2-1,0.3-1.5,0.4s-1,0.2-1.5,0.2c-1.4,0-2.4-0.4-3.2-1.1c-0.8-0.8-1.1-1.8-1.1-3.1
				c0-1.4,0.4-2.4,1.1-3.2c0.7-0.8,1.7-1.1,2.9-1.1c1.1,0,1.9,0.3,2.5,1s0.9,1.5,0.9,2.8V98.7z M44.4,101c0.3,0.2,0.6,0.4,1,0.5
				c0.3,0.1,0.7,0.1,1.1,0.1c0.6,0,1.1-0.1,1.6-0.4c0.6-0.2,1-0.4,1.3-0.6h0.1v1.6c-0.5,0.2-1,0.3-1.5,0.4s-1,0.2-1.5,0.2
				c-1.4,0-2.4-0.4-3.2-1.1c-0.8-0.8-1.1-1.8-1.1-3.1c0-1.4,0.4-2.4,1.1-3.2c0.7-0.8,1.7-1.1,2.9-1.1c1.1,0,2,0.3,2.6,1
				c0.6,0.6,0.9,1.5,0.9,2.8v0.8h-6c0,0.5,0.1,0.9,0.2,1.3C44,100.4,44.2,100.7,44.4,101z M43.6,97.6h4.7c0-0.7-0.2-1.3-0.5-1.7
				c-0.4-0.4-0.9-0.6-1.6-0.6c-0.8,0-1.4,0.2-1.8,0.7C43.9,96.5,43.6,97,43.6,97.6z M33.5,96c-0.4-0.4-0.9-0.6-1.6-0.6
				c-0.8,0-1.4,0.2-1.8,0.7c-0.4,0.4-0.7,0.9-0.8,1.6h4.8C34.1,96.9,33.9,96.4,33.5,96z M20.4,93.1c-0.5-0.1-1-0.1-1.7-0.1h-1.4v8.4
				h1.4c0.7,0,1.3-0.1,1.9-0.2c0.5-0.1,1-0.3,1.4-0.6c0.5-0.3,0.9-0.8,1.2-1.4c0.3-0.5,0.4-1.2,0.4-2.1s-0.1-1.6-0.4-2.2
				c-0.3-0.6-0.8-1-1.4-1.4C21.3,93.4,20.9,93.2,20.4,93.1z M22.6,92.6c0.7,0.5,1.3,1.1,1.8,1.9c0.4,0.8,0.6,1.7,0.6,2.8
				c0,1-0.2,1.9-0.6,2.7c-0.4,0.8-1,1.4-1.8,1.9c-0.5,0.3-1.1,0.6-1.7,0.7c-0.6,0.1-1.4,0.2-2.4,0.2h-2.8V91.7h2.8
				c1.1,0,2,0.1,2.6,0.3C21.7,92.1,22.2,92.3,22.6,92.6z M79.5,94.5V96h0c-0.2,0-0.4-0.1-0.6-0.1c-0.2-0.1-0.4-0.1-0.7-0.1
				c-0.4,0-0.8,0.1-1.3,0.3c-0.4,0.2-0.8,0.4-1.2,0.8v5.8h-1.3v-8.2h1.3v1.3c0.6-0.5,1-0.8,1.5-1c0.4-0.2,0.8-0.3,1.3-0.3
				c0.2,0,0.4,0,0.5,0C79.1,94.5,79.3,94.5,79.5,94.5z M69.2,94.3c1.1,0,2,0.4,2.8,1.1c0.7,0.8,1,1.8,1,3.1c0,1.3-0.3,2.4-1,3.2
				c-0.7,0.8-1.6,1.1-2.8,1.1c-1.2,0-2.1-0.4-2.8-1.1c-0.7-0.8-1.1-1.8-1.1-3.2c0-1.3,0.4-2.4,1.1-3.1C67.1,94.6,68,94.3,69.2,94.3z
				 M67.4,100.9c0.4,0.5,1,0.8,1.8,0.8c0.7,0,1.3-0.3,1.7-0.8c0.4-0.5,0.6-1.3,0.6-2.4c0-1-0.2-1.8-0.6-2.4c-0.4-0.5-1-0.8-1.7-0.8
				c-0.8,0-1.4,0.3-1.8,0.8c-0.4,0.6-0.6,1.4-0.6,2.4C66.8,99.6,67,100.4,67.4,100.9z M64.5,94.5v1.1h-2.8v3.8c0,0.4,0,0.8,0,1
				c0,0.3,0.1,0.5,0.2,0.6c0.1,0.2,0.2,0.4,0.4,0.5c0.2,0.1,0.5,0.1,0.9,0.1c0.2,0,0.5,0,0.7-0.1c0.3-0.1,0.5-0.1,0.5-0.1h0v1.3
				c-0.3,0-0.5,0.1-0.8,0.1c-0.3,0.1-0.6,0.1-0.8,0.1c-0.9,0-1.5-0.2-1.9-0.7c-0.5-0.4-0.7-1.1-0.7-2.1v-4.4h-0.8v-1.1h0.8v-2.3h1.4
				v2.3H64.5z M56.7,94.5c0.4,0.1,0.9,0.3,1.3,0.5v1.5h-0.1c-0.5-0.4-0.9-0.6-1.3-0.8c-0.4-0.2-0.9-0.3-1.3-0.3
				c-0.8,0-1.4,0.3-1.9,0.8c-0.5,0.5-0.7,1.3-0.7,2.3s0.2,1.8,0.7,2.4c0.5,0.5,1.1,0.8,1.9,0.8c0.3,0,0.6,0,0.9-0.1
				c0.3-0.1,0.5-0.2,0.8-0.3c0.2-0.1,0.4-0.2,0.6-0.3c0.2-0.1,0.3-0.3,0.4-0.4H58v1.5c-0.5,0.2-0.9,0.4-1.4,0.5
				c-0.4,0.1-0.8,0.2-1.3,0.2c-0.6,0-1.2-0.1-1.7-0.3c-0.5-0.2-0.9-0.5-1.2-0.9c-0.4-0.3-0.7-0.7-0.9-1.3c-0.2-0.5-0.3-1.2-0.3-1.9
				c0-1.3,0.4-2.4,1.2-3.1c0.7-0.8,1.7-1.1,2.8-1.1C55.7,94.3,56.2,94.3,56.7,94.5z"/>
			<linearGradient id="SVGID_7_" gradientUnits="userSpaceOnUse" x1="7.25" y1="149.25" x2="9.9502" y2="149.25">
				<stop  offset="0" style="stop-color:#3B3638"/>
				<stop  offset="0.502" style="stop-color:#999396"/>
				<stop  offset="1" style="stop-color:#82797C"/>
			</linearGradient>
			<path fill-rule="evenodd" clip-rule="evenodd" fill="url(#SVGID_7_)" d="M9.7,89.5L10,209c-0.2,0-0.3,0-0.5,0
				c-0.7-0.1-1.3-0.5-1.8-1.1v-0.1c-0.3-0.4-0.5-1-0.5-1.8V92.4c0-0.6,0.1-1.1,0.3-1.5l1.3,0.6c-0.4-0.9-0.4-1.5,0-1.8
				c0.2-0.1,0.5-0.1,0.8-0.2H9.7z"/>
			<linearGradient id="SVGID_8_" gradientUnits="userSpaceOnUse" x1="7.25" y1="149.25" x2="9.9502" y2="149.25">
				<stop  offset="0" style="stop-color:#3B3638"/>
				<stop  offset="0.502" style="stop-color:#999396"/>
				<stop  offset="1" style="stop-color:#82797C"/>
			</linearGradient>
			<path fill-rule="evenodd" clip-rule="evenodd" fill="url(#SVGID_8_)" d="M9.7,89.5L10,209c-0.2,0-0.3,0-0.5,0
				c-0.7-0.1-1.3-0.5-1.8-1.1v-0.1c-0.3-0.4-0.5-1-0.5-1.8V92.4c0-0.6,0.1-1.1,0.3-1.5l1.3,0.6c-0.4-0.9-0.4-1.5,0-1.8
				c0.2-0.1,0.5-0.1,0.8-0.2H9.7z"/>
			<linearGradient id="SVGID_9_" gradientUnits="userSpaceOnUse" x1="7.25" y1="90.5498" x2="9.95" y2="90.5498">
				<stop  offset="0" style="stop-color:#3C3639"/>
				<stop  offset="0.502" style="stop-color:#999396"/>
				<stop  offset="1" style="stop-color:#3B3537"/>
			</linearGradient>
			<path fill-rule="evenodd" clip-rule="evenodd" fill="url(#SVGID_9_)" d="M7.5,90.9c0-0.1,0.1-0.1,0.1-0.2
				c0.1-0.2,0.2-0.4,0.4-0.5c0.2-0.2,0.5-0.3,0.8-0.5c-0.4,0.3-0.4,0.9,0,1.8L7.5,90.9z"/>
			<linearGradient id="SVGID_10_" gradientUnits="userSpaceOnUse" x1="7.25" y1="90.5498" x2="9.95" y2="90.5498">
				<stop  offset="0" style="stop-color:#3C3639"/>
				<stop  offset="0.502" style="stop-color:#999396"/>
				<stop  offset="1" style="stop-color:#3B3537"/>
			</linearGradient>
			<path fill-rule="evenodd" clip-rule="evenodd" fill="url(#SVGID_10_)" d="M7.5,90.9c0-0.1,0.1-0.1,0.1-0.2
				c0.1-0.2,0.2-0.4,0.4-0.5c0.2-0.2,0.5-0.3,0.8-0.5c-0.4,0.3-0.4,0.9,0,1.8L7.5,90.9z"/>
			<path fill-rule="evenodd" clip-rule="evenodd" fill="#65715B" d="M15.5,132.3v24.4c0,1.3,0.3,2.3,0.9,2.8
				c0.5,0.6,1.4,0.9,2.6,0.9h73.3c1.2,0,2.1-0.3,2.6-0.9c0.6-0.6,1-1.5,1-2.8v-24.4c0-2.5-1.2-3.8-3.6-3.8H19
				C16.6,128.5,15.5,129.8,15.5,132.3z M15.5,159.8c-0.1-0.2-0.1-0.5-0.2-0.8c0-0.1,0-0.2-0.1-0.2v-27.4c0-2.2,1-3.3,3-3.3h75.2
				c2,0,3,1.1,3,3.3V158c0,0.1,0,0.1,0,0.2l-0.1,0.7c0,0.1,0,0.1,0,0.2c-0.1,1-0.6,1.7-1.3,2.1h-0.1l0,0h-0.2l0,0.1c0,0-0.1,0-0.1,0
				c0,0-0.1,0-0.1,0c-0.1,0-0.1,0-0.1,0s-0.1,0-0.2,0c0,0-0.1,0-0.1,0c-0.1,0-0.2,0.1-0.4,0.1H18.3c-0.5,0-1-0.1-1.4-0.2L15.5,159.8
				z"/>
			<path fill-rule="evenodd" clip-rule="evenodd" fill="#65715B" d="M15.5,132.3v24.4c0,1.3,0.3,2.3,0.9,2.8
				c0.5,0.6,1.4,0.9,2.6,0.9h73.3c1.2,0,2.1-0.3,2.6-0.9c0.6-0.6,1-1.5,1-2.8v-24.4c0-2.5-1.2-3.8-3.6-3.8H19
				C16.6,128.5,15.5,129.8,15.5,132.3z M15.5,159.8c-0.1-0.2-0.1-0.5-0.2-0.8c0-0.1,0-0.2-0.1-0.2v-27.4c0-2.2,1-3.3,3-3.3h75.2
				c2,0,3,1.1,3,3.3V158c0,0.1,0,0.1,0,0.2l-0.1,0.7c0,0.1,0,0.1,0,0.2c-0.1,1-0.6,1.7-1.3,2.1h-0.1l0,0h-0.2l0,0.1c0,0-0.1,0-0.1,0
				c0,0-0.1,0-0.1,0c-0.1,0-0.1,0-0.1,0s-0.1,0-0.2,0c0,0-0.1,0-0.1,0c-0.1,0-0.2,0.1-0.4,0.1H18.3c-0.5,0-1-0.1-1.4-0.2L15.5,159.8
				z"/>
			<linearGradient id="SVGID_11_" gradientUnits="userSpaceOnUse" x1="11.75" y1="137.9502" x2="99.0498" y2="137.9502">
				<stop  offset="0" style="stop-color:#262425"/>
				<stop  offset="1" style="stop-color:#000000"/>
			</linearGradient>
			<path fill-rule="evenodd" clip-rule="evenodd" fill="url(#SVGID_11_)" d="M15.3,158.9c0,0.3,0.1,0.6,0.3,0.9l1.3,1.4
				c0.4,0.1,0.9,0.2,1.4,0.2h75.3c0.1,0,0.3,0,0.4-0.1c0,0,0.1,0,0.1,0c0.1,0,0.1,0,0.2,0s0.1,0,0.1,0c0,0,0,0,0.1,0
				c0.1,0,0.1,0,0.1,0l0-0.1h0.2l0,0h0.1c0.8-0.4,1.2-1.1,1.3-2.1c0-0.1,0-0.1,0-0.2l0.1-0.7c0,0,0-0.1,0-0.2v-26.5
				c0-2.2-1-3.3-3-3.3H18.3c-2,0-3,1.1-3,3.3V158.9z M22.6,110.5H57c5.1,0.6,9.5,2.9,13.4,7l0.3,0.1c2.2,2.2,5.4,3.5,9.6,3.7
				c4.4,0.2,6.8,0.2,7.3,0.2H92c0,0,0.1,0,0.1,0c1.2,0.1,2.2,0.3,3.1,0.5c2.3,0.8,3.6,2.3,3.9,4.5v36.8c-0.1,0.3-0.2,0.5-0.3,0.8
				c-0.3,0.6-0.9,1-1.7,1.3c-0.2,0-0.5,0.1-0.7,0.2H15l-0.6-0.1c-0.1,0-0.1,0-0.1,0l-0.1,0c-0.2-0.1-0.4-0.1-0.4-0.2l-2-2.9v-40.7
				C11.9,114.5,15.5,110.8,22.6,110.5z"/>
			<linearGradient id="SVGID_12_" gradientUnits="userSpaceOnUse" x1="11.75" y1="137.9502" x2="99.0498" y2="137.9502">
				<stop  offset="0" style="stop-color:#262425"/>
				<stop  offset="1" style="stop-color:#000000"/>
			</linearGradient>
			<path fill-rule="evenodd" clip-rule="evenodd" fill="url(#SVGID_12_)" d="M15.3,158.9c0,0.3,0.1,0.6,0.3,0.9l1.3,1.4
				c0.4,0.1,0.9,0.2,1.4,0.2h75.3c0.1,0,0.3,0,0.4-0.1c0,0,0.1,0,0.1,0c0.1,0,0.1,0,0.2,0s0.1,0,0.1,0c0,0,0,0,0.1,0
				c0.1,0,0.1,0,0.1,0l0-0.1h0.2l0,0h0.1c0.8-0.4,1.2-1.1,1.3-2.1c0-0.1,0-0.1,0-0.2l0.1-0.7c0,0,0-0.1,0-0.2v-26.5
				c0-2.2-1-3.3-3-3.3H18.3c-2,0-3,1.1-3,3.3V158.9z M22.6,110.5H57c5.1,0.6,9.5,2.9,13.4,7l0.3,0.1c2.2,2.2,5.4,3.5,9.6,3.7
				c4.4,0.2,6.8,0.2,7.3,0.2H92c0,0,0.1,0,0.1,0c1.2,0.1,2.2,0.3,3.1,0.5c2.3,0.8,3.6,2.3,3.9,4.5v36.8c-0.1,0.3-0.2,0.5-0.3,0.8
				c-0.3,0.6-0.9,1-1.7,1.3c-0.2,0-0.5,0.1-0.7,0.2H15l-0.6-0.1c-0.1,0-0.1,0-0.1,0l-0.1,0c-0.2-0.1-0.4-0.1-0.4-0.2l-2-2.9v-40.7
				C11.9,114.5,15.5,110.8,22.6,110.5z"/>
			<path fill-rule="evenodd" clip-rule="evenodd" fill="#586251" d="M19,129.9c-1.5,0-2.2,0.8-2.2,2.4v24.4c0,0.9,0.2,1.5,0.6,1.9
				c0.4,0.3,0.9,0.5,1.6,0.5h73.3c0.7,0,1.3-0.2,1.7-0.5c0.4-0.4,0.5-1,0.5-1.9v-24.4c0-1.6-0.7-2.4-2.2-2.4H19z M15.5,132.3
				c0-2.5,1.2-3.8,3.5-3.8h73.3c2.4,0,3.6,1.3,3.6,3.8v24.4c0,1.3-0.3,2.3-1,2.8c-0.5,0.6-1.4,0.9-2.6,0.9H19
				c-1.2,0-2.1-0.3-2.6-0.9c-0.6-0.6-0.9-1.5-0.9-2.8V132.3z"/>
			<path fill-rule="evenodd" clip-rule="evenodd" fill="#586251" d="M19,129.9c-1.5,0-2.2,0.8-2.2,2.4v24.4c0,0.9,0.2,1.5,0.6,1.9
				c0.4,0.3,0.9,0.5,1.6,0.5h73.3c0.7,0,1.3-0.2,1.7-0.5c0.4-0.4,0.5-1,0.5-1.9v-24.4c0-1.6-0.7-2.4-2.2-2.4H19z M15.5,132.3
				c0-2.5,1.2-3.8,3.5-3.8h73.3c2.4,0,3.6,1.3,3.6,3.8v24.4c0,1.3-0.3,2.3-1,2.8c-0.5,0.6-1.4,0.9-2.6,0.9H19
				c-1.2,0-2.1-0.3-2.6-0.9c-0.6-0.6-0.9-1.5-0.9-2.8V132.3z"/>
			<path fill-rule="evenodd" clip-rule="evenodd" fill="#849479" d="M19,129.9h73.3c1.5,0,2.2,0.8,2.2,2.4v24.4
				c0,0.9-0.2,1.5-0.5,1.9c-0.4,0.3-0.9,0.5-1.7,0.5H19c-0.7,0-1.3-0.2-1.6-0.5c-0.4-0.4-0.6-1-0.6-1.9v-24.4
				C16.8,130.7,17.5,129.9,19,129.9z"/>
			<path fill-rule="evenodd" clip-rule="evenodd" fill="#849479" d="M19,129.9h73.3c1.5,0,2.2,0.8,2.2,2.4v24.4
				c0,0.9-0.2,1.5-0.5,1.9c-0.4,0.3-0.9,0.5-1.7,0.5H19c-0.7,0-1.3-0.2-1.6-0.5c-0.4-0.4-0.6-1-0.6-1.9v-24.4
				C16.8,130.7,17.5,129.9,19,129.9z"/>
		</g>
	</g>
	<g>
		<g>
			<g>
				<path fill-rule="evenodd" clip-rule="evenodd" fill="#504643" d="M37.9,64.8c0,0.1-0.1,0.3-0.4,0.4c-0.4,0.2-1.3,0.5-2.6,0.7
					c-1.9,0.3-4.2,0.4-7,0.4s-5.1-0.1-7-0.4c-1.9-0.3-2.8-0.7-2.9-1.2c0-0.4,0.9-0.8,2.9-1.1c2-0.3,4.3-0.4,7-0.4s5,0.1,7,0.4
					c1.3,0.2,2.2,0.5,2.6,0.8c0.1,0.1,0.2,0.1,0.2,0.2C37.9,64.5,37.9,64.6,37.9,64.8z"/>
				<path fill-rule="evenodd" clip-rule="evenodd" fill="#504643" d="M37.9,64.8c0,0.1-0.1,0.3-0.4,0.4c-0.4,0.2-1.3,0.5-2.6,0.7
					c-1.9,0.3-4.2,0.4-7,0.4s-5.1-0.1-7-0.4c-1.9-0.3-2.8-0.7-2.9-1.2c0-0.4,0.9-0.8,2.9-1.1c2-0.3,4.3-0.4,7-0.4s5,0.1,7,0.4
					c1.3,0.2,2.2,0.5,2.6,0.8c0.1,0.1,0.2,0.1,0.2,0.2C37.9,64.5,37.9,64.6,37.9,64.8z"/>
				<linearGradient id="SVGID_13_" gradientUnits="userSpaceOnUse" x1="18.1001" y1="76.8252" x2="37.9251" y2="76.8252">
					<stop  offset="0" style="stop-color:#28201E"/>
					<stop  offset="0.4118" style="stop-color:#726761"/>
					<stop  offset="1" style="stop-color:#28201E"/>
				</linearGradient>
				<path fill-rule="evenodd" clip-rule="evenodd" fill="url(#SVGID_13_)" d="M18.1,64.6c0,0.5,1,0.9,2.9,1.2c2,0.3,4.3,0.4,7,0.4
					s5-0.1,7-0.4c1.3-0.2,2.2-0.5,2.6-0.7c0.2-0.1,0.3-0.3,0.4-0.4V74V85v2.4c0,0.1-0.1,0.3-0.4,0.5c-0.7,0.3-1.5,0.5-2.6,0.6
					c-1.8,0.3-4.1,0.5-7,0.5c-2.8,0-5.2-0.2-7-0.5c-1.9-0.3-2.9-0.7-2.9-1.1V85V74V64.6z"/>
				<linearGradient id="SVGID_14_" gradientUnits="userSpaceOnUse" x1="18.1001" y1="76.8252" x2="37.9251" y2="76.8252">
					<stop  offset="0" style="stop-color:#28201E"/>
					<stop  offset="0.4118" style="stop-color:#726761"/>
					<stop  offset="1" style="stop-color:#28201E"/>
				</linearGradient>
				<path fill-rule="evenodd" clip-rule="evenodd" fill="url(#SVGID_14_)" d="M18.1,64.6c0,0.5,1,0.9,2.9,1.2c2,0.3,4.3,0.4,7,0.4
					s5-0.1,7-0.4c1.3-0.2,2.2-0.5,2.6-0.7c0.2-0.1,0.3-0.3,0.4-0.4V74V85v2.4c0,0.1-0.1,0.3-0.4,0.5c-0.7,0.3-1.5,0.5-2.6,0.6
					c-1.8,0.3-4.1,0.5-7,0.5c-2.8,0-5.2-0.2-7-0.5c-1.9-0.3-2.9-0.7-2.9-1.1V85V74V64.6z"/>
			</g>
		</g>
		<g>
			<g>
				<linearGradient id="SVGID_15_" gradientUnits="userSpaceOnUse" x1="20.5" y1="51.9746" x2="35.525" y2="51.9746">
					<stop  offset="0" style="stop-color:#28201E"/>
					<stop  offset="0.4118" style="stop-color:#726761"/>
					<stop  offset="1" style="stop-color:#28201E"/>
				</linearGradient>
				<path fill-rule="evenodd" clip-rule="evenodd" fill="url(#SVGID_15_)" d="M35.5,38.6v25.6c0,0.1-0.1,0.3-0.3,0.3
					c-0.5,0.2-1.1,0.3-1.9,0.5c-1.4,0.3-3.1,0.4-5.4,0.4c-2.1,0-3.9-0.1-5.4-0.4c-1.4-0.2-2.1-0.5-2.1-0.8V38.5
					c0,0.3,0.7,0.6,2.1,0.9c1.5,0.2,3.3,0.3,5.4,0.3c2.1,0,3.9-0.1,5.4-0.3c0.9-0.2,1.6-0.4,1.9-0.6C35.4,38.8,35.5,38.7,35.5,38.6z
					"/>
				<linearGradient id="SVGID_16_" gradientUnits="userSpaceOnUse" x1="20.5" y1="51.9746" x2="35.525" y2="51.9746">
					<stop  offset="0" style="stop-color:#28201E"/>
					<stop  offset="0.4118" style="stop-color:#726761"/>
					<stop  offset="1" style="stop-color:#28201E"/>
				</linearGradient>
				<path fill-rule="evenodd" clip-rule="evenodd" fill="url(#SVGID_16_)" d="M35.5,38.6v25.6c0,0.1-0.1,0.3-0.3,0.3
					c-0.5,0.2-1.1,0.3-1.9,0.5c-1.4,0.3-3.1,0.4-5.4,0.4c-2.1,0-3.9-0.1-5.4-0.4c-1.4-0.2-2.1-0.5-2.1-0.8V38.5
					c0,0.3,0.7,0.6,2.1,0.9c1.5,0.2,3.3,0.3,5.4,0.3c2.1,0,3.9-0.1,5.4-0.3c0.9-0.2,1.6-0.4,1.9-0.6C35.4,38.8,35.5,38.7,35.5,38.6z
					"/>
				<path fill-rule="evenodd" clip-rule="evenodd" fill="#504643" d="M20.5,38.5c0-0.3,0.7-0.6,2.1-0.8c1.5-0.3,3.3-0.4,5.4-0.4
					c2.1,0,3.9,0.1,5.4,0.4c1,0.1,1.6,0.3,1.9,0.5c0.1,0,0.2,0.1,0.2,0.2c0,0,0,0.1,0,0.2c0,0.1-0.1,0.2-0.3,0.3
					c-0.3,0.2-1,0.4-1.9,0.6c-1.5,0.2-3.3,0.3-5.4,0.3c-2,0-3.8-0.1-5.4-0.3C21.2,39.2,20.5,38.9,20.5,38.5z"/>
				<path fill-rule="evenodd" clip-rule="evenodd" fill="#504643" d="M20.5,38.5c0-0.3,0.7-0.6,2.1-0.8c1.5-0.3,3.3-0.4,5.4-0.4
					c2.1,0,3.9,0.1,5.4,0.4c1,0.1,1.6,0.3,1.9,0.5c0.1,0,0.2,0.1,0.2,0.2c0,0,0,0.1,0,0.2c0,0.1-0.1,0.2-0.3,0.3
					c-0.3,0.2-1,0.4-1.9,0.6c-1.5,0.2-3.3,0.3-5.4,0.3c-2,0-3.8-0.1-5.4-0.3C21.2,39.2,20.5,38.9,20.5,38.5z"/>
			</g>
		</g>
		<g>
			<g>
				<linearGradient id="SVGID_17_" gradientUnits="userSpaceOnUse" x1="23.0127" y1="20.375" x2="32.9877" y2="20.375">
					<stop  offset="0" style="stop-color:#28201E"/>
					<stop  offset="0.4118" style="stop-color:#726761"/>
					<stop  offset="1" style="stop-color:#28201E"/>
				</linearGradient>
				<path fill-rule="evenodd" clip-rule="evenodd" fill="url(#SVGID_17_)" d="M23,1.6c0,0.2,0.5,0.4,1.5,0.6c1,0.2,2.1,0.3,3.5,0.3
					c1.4,0,2.6-0.1,3.5-0.3c0.6-0.1,1.1-0.2,1.3-0.3C32.9,1.8,33,1.8,33,1.6V6v1v22.6v8.8c0,0.1,0,0.2-0.1,0.2
					c-0.4,0.1-0.8,0.3-1.3,0.4c-0.9,0.2-2.1,0.3-3.5,0.3c-1.4,0-2.6-0.1-3.5-0.3c-1-0.2-1.5-0.4-1.5-0.6v-8.8V7V6V1.6z"/>
				<linearGradient id="SVGID_18_" gradientUnits="userSpaceOnUse" x1="23.0127" y1="20.375" x2="32.9877" y2="20.375">
					<stop  offset="0" style="stop-color:#28201E"/>
					<stop  offset="0.4118" style="stop-color:#726761"/>
					<stop  offset="1" style="stop-color:#28201E"/>
				</linearGradient>
				<path fill-rule="evenodd" clip-rule="evenodd" fill="url(#SVGID_18_)" d="M23,1.6c0,0.2,0.5,0.4,1.5,0.6c1,0.2,2.1,0.3,3.5,0.3
					c1.4,0,2.6-0.1,3.5-0.3c0.6-0.1,1.1-0.2,1.3-0.3C32.9,1.8,33,1.8,33,1.6V6v1v22.6v8.8c0,0.1,0,0.2-0.1,0.2
					c-0.4,0.1-0.8,0.3-1.3,0.4c-0.9,0.2-2.1,0.3-3.5,0.3c-1.4,0-2.6-0.1-3.5-0.3c-1-0.2-1.5-0.4-1.5-0.6v-8.8V7V6V1.6z"/>
				<path fill-rule="evenodd" clip-rule="evenodd" fill="#504643" d="M33,1.6c0,0.1-0.1,0.2-0.1,0.3c-0.2,0.1-0.7,0.2-1.3,0.3
					c-1,0.2-2.1,0.3-3.5,0.3c-1.4,0-2.5-0.1-3.5-0.3C23.5,2,23,1.9,23,1.6c0-0.2,0.5-0.4,1.5-0.5c1-0.2,2.1-0.3,3.5-0.3
					c1.4,0,2.6,0.1,3.5,0.3c0.7,0.1,1.1,0.2,1.3,0.4c0,0.1,0.1,0.1,0.1,0.1C33,1.6,33,1.6,33,1.6z"/>
				<path fill-rule="evenodd" clip-rule="evenodd" fill="#504643" d="M33,1.6c0,0.1-0.1,0.2-0.1,0.3c-0.2,0.1-0.7,0.2-1.3,0.3
					c-1,0.2-2.1,0.3-3.5,0.3c-1.4,0-2.5-0.1-3.5-0.3C23.5,2,23,1.9,23,1.6c0-0.2,0.5-0.4,1.5-0.5c1-0.2,2.1-0.3,3.5-0.3
					c1.4,0,2.6,0.1,3.5,0.3c0.7,0.1,1.1,0.2,1.3,0.4c0,0.1,0.1,0.1,0.1,0.1C33,1.6,33,1.6,33,1.6z"/>
			</g>
		</g>
	</g>
	<g>
		<path fill-rule="evenodd" clip-rule="evenodd" d="M83.9,148.9v8.4h-1.3v-4.1h-5v4.1h-1.3v-8.4h1.3v3.3h5v-3.3H83.9z M91.8,151v0.7
			l-4.3,4.8H92v0.8h-6.1v-0.8l4.4-4.7H86V151H91.8z"/>
		<path fill-rule="evenodd" clip-rule="evenodd" d="M83.9,148.9v8.4h-1.3v-4.1h-5v4.1h-1.3v-8.4h1.3v3.3h5v-3.3H83.9z M91.8,151v0.7
			l-4.3,4.8H92v0.8h-6.1v-0.8l4.4-4.7H86V151H91.8z"/>
	</g>
</g>
</svg>
