<?xml version="1.0" encoding="UTF-8" standalone="no"?>
<!-- Generator: Adobe Illustrator 16.0.0, SVG Export Plug-In . SVG Version: 6.00 Build 0)  -->
<!DOCTYPE svg  PUBLIC '-//W3C//DTD SVG 1.1//EN'  'http://www.w3.org/Graphics/SVG/1.1/DTD/svg11.dtd'>
<svg xmlns="http://www.w3.org/2000/svg" xml:space="preserve" height="700px" width="700px" version="1.1" y="0px" x="0px" xmlns:xlink="http://www.w3.org/1999/xlink" viewBox="0 0 700 700" enable-background="new 0 0 700 700">
<symbol id="glacee" viewBox="-2.3 -2.4 4.6 4.6">
	<radialGradient id="SVGID_1_" gradientUnits="userSpaceOnUse" cy="0" cx="0" r="2.3625">
		<stop stop-color="#fff" offset="0"/>
		<stop stop-color="#fff" offset=".1765"/>
		<stop stop-color="#fff" stop-opacity=".4235" offset=".3059"/>
		<stop stop-color="#fff" stop-opacity=".2314" offset=".4902"/>
		<stop stop-color="#fff" stop-opacity=".082353" offset=".651"/>
		<stop stop-color="#fff" stop-opacity="0" offset="1"/>
	</radialGradient>
	<path fill="url(#SVGID_1_)" clip-rule="evenodd" d="m1.6 1.6c0.5-0.4 0.7-1 0.7-1.6 0-0.7-0.2-1.2-0.7-1.6-0.4-0.5-1-0.8-1.6-0.8s-1.2 0.2-1.6 0.7c-0.4 0.4-0.6 1-0.6 1.6s0.2 1.2 0.6 1.6c0.5 0.5 1 0.7 1.6 0.7s1.2-0.1 1.6-0.6z" fill-rule="evenodd"/>
</symbol>
<g id="Layer_2">
	<g id="Layer_3">
				<radialGradient id="SVGID_2_" gradientUnits="userSpaceOnUse" cy="556.65" cx="322.45" gradientTransform="matrix(1 0 0 1.0065 0 -3.6083)" r="312.4">
				<stop stop-color="#fff" stop-opacity=".6902" offset="0"/>
				<stop stop-color="#FDFDFD" stop-opacity="0" offset="1"/>
			</radialGradient>
			<path fill="url(#SVGID_2_)" clip-rule="evenodd" d="m9.7 556.3c0.1-0.1 0.2-0.1 0.3-0.1h624.8c0.1 0 0.3 0 0.4 0.1s0.1 0.2 0.1 0.4c0 0.1 0 0.2-0.1 0.3s-0.2 0.1-0.4 0.1h-624.8c-0.1 0-0.3 0-0.3-0.1-0.1-0.1-0.2-0.2-0.2-0.3 0-0.2 0.1-0.3 0.2-0.4z" fill-rule="evenodd"/>
			<rect fill-rule="evenodd" height="305" width="808.7" clip-rule="evenodd" y="-52.1" x="-61.5" fill="#8B5E34"/>
			<rect fill-rule="evenodd" height="364.5" width="808.3" clip-rule="evenodd" y="397" x="-61" fill="#271E14"/>
			<linearGradient id="SVGID_3_" y2="46.848" gradientUnits="userSpaceOnUse" x2="344.23" y1="562.05" x1="342.32">
				<stop offset="0"/>
				<stop stop-color="#010101" stop-opacity="0" offset="1"/>
			</linearGradient>
			<rect fill-rule="evenodd" height="318.5" width="807.2" clip-rule="evenodd" y="43.5" x="-60" fill="url(#SVGID_3_)"/>
			<g clip-rule="evenodd" fill-rule="evenodd">
				<path fill="#3E2F20" d="m357.8 723.5h0.2 274c0.6 0 1-0.2 1.5-0.5 0.4-0.4 0.5-0.9 0.5-1.5v-49.7h1.8v51.7c0 0.6-0.2 1-0.5 1.5-0.4 0.4-0.9 0.5-1.5 0.5h-274c-0.6 0-1-0.2-1.4-0.5-0.4-0.5-0.6-1-0.6-1.5zm2.2-51.7h1.8v47.7h-1.8v-47.7z"/>
				<path fill="#16100C" d="m360 671.8v47.7h270v-47.7h4v49.7c0 0.6-0.2 1-0.5 1.5-0.4 0.4-0.9 0.5-1.5 0.5h-274-0.2c-0.5 0-0.9-0.2-1.2-0.5-0.4-0.4-0.6-0.9-0.6-1.5v-49.7h4z"/>
			</g>
			<g clip-rule="evenodd" fill-rule="evenodd">
				<path fill="#16100C" d="m56.8 719.5h268.2v-47.7h4v49.7c0 0.6-0.2 1-0.5 1.5-0.4 0.4-0.9 0.5-1.5 0.5h-274-0.2c-0.5 0-0.9-0.2-1.2-0.5-0.4-0.4-0.6-0.9-0.6-1.5v-49.7h4v47.7h1.8z"/>
				<path fill="#3E2F20" d="m56.8 719.5h-1.8v-47.7h1.8v47.7zm272.2-47.7h1.8v51.7c0 0.6-0.2 1-0.5 1.5-0.4 0.4-0.9 0.5-1.5 0.5h-274c-0.6 0-1-0.2-1.4-0.5-0.4-0.4-0.6-0.9-0.6-1.5h0.2 274c0.6 0 1-0.2 1.5-0.5 0.4-0.4 0.5-0.9 0.5-1.5v-49.7z"/>
			</g>
			<g clip-rule="evenodd" fill-rule="evenodd">
				<rect height="13" width="808.3" y="666" x="-61" fill="#493A25"/>
					<radialGradient id="SVGID_4_" gradientUnits="userSpaceOnUse" cy="390.5" cx="320.4" gradientTransform="matrix(1 0 0 1.393 0 -153.45)" r="549.22">
					<stop stop-color="#CEB197" offset="0"/>
					<stop stop-color="#474430" offset=".9882"/>
				</radialGradient>
				<rect height="493" width="808.3" y="173" x="-61" fill="url(#SVGID_4_)"/>
			</g>
				<radialGradient id="SVGID_5_" fx="342.72" gradientUnits="userSpaceOnUse" cy="244.4" cx="341.65" gradientTransform="matrix(1 0 0 .2377 0 186.31)" r="272.51">
				<stop stop-color="#FEFDDF" stop-opacity=".4118" offset="0"/>
				<stop stop-color="#FEFBD8" stop-opacity=".1137" offset=".4"/>
				<stop stop-color="#FEF9D3" stop-opacity="0" offset=".9765"/>
			</radialGradient>
			<path fill="url(#SVGID_5_)" clip-rule="evenodd" d="m670.8 315.1c-17.6 9.3-42.8 17.9-75.6 25.7-70.5 16.8-155.7 25.2-255.5 25.2-99.7 0-184.9-8.4-255.5-25.2-70.5-16.8-105.8-37-105.8-60.7s35.3-44 105.8-60.8c70.6-16.8 155.7-25.2 255.5-25.2s185 8.4 255.5 25.2c32.8 7.8 58 16.4 75.6 25.7v70.1z" fill-rule="evenodd"/>
				<linearGradient id="SVGID_6_" y2="-341.52" gradientUnits="userSpaceOnUse" x2="102.16" gradientTransform="matrix(.0000025602 1 -1 -.0056818 .000036413 -.00017523)" y1="-341.52" x1="-288.44">
				<stop stop-color="#FEFDDF" stop-opacity=".3686" offset="0"/>
				<stop stop-color="#FEF9D3" stop-opacity="0" offset=".9765"/>
			</linearGradient>
			<path fill="url(#SVGID_6_)" clip-rule="evenodd" d="m197.8-53h263.2l122.7 148c11.1 21.4-52.4 43.3-190.5 65.6-138.2 22.4-225.6 13.8-262.2-25.8-36.6-39.7-42.7-70.3-18.3-91.9 42-44.9 70.4-76.9 85.1-95.9z" fill-rule="evenodd"/>
	</g>
</g>
<g id="Layer_3_1_">
		<line y2="665.8" fill-rule="evenodd" x2="707.1" clip-rule="evenodd" y1="665.8" x1="-33.5" fill="none"/>
		<path fill-opacity=".086275" clip-rule="evenodd" d="m382.3 209.5c5 0.2 35.6 0 91.7-0.4 56.8-0.5 91.3 3.6 103.5 12.4 0.1 0 0.3 0.1 0.5 0.3 9.5 6.2 15.1 11.5 16.7 15.9 1.2 2.8 1 5.3-0.6 7.5-1.2 1.9-3.4 3.5-6.8 4.8-0.1 0-0.1 0-0.1 0.1-2.2 1-3.4 2.1-3.7 3.3 0.1 1.4 1.5 3 4 5v0.1c4.3 3.3 6 6.3 5.3 9.1-0.3 2.8-3 5.1-8.1 6.8-0.3 0.1-0.6 0.1-0.8 0.1-8.9 2-15.5 1.6-19.9-1.2-4.8-2.8-7.2-8.1-7-16 0.1-8.4-2.2-12.9-6.8-13.4-0.7 0-1.2-0.3-1.7-0.8s-0.7-1.1-0.6-1.8c0-0.6 0.3-1.2 0.8-1.6 0.5-0.5 1-0.7 1.7-0.7 7.6 0.1 11.4 6.3 11.3 18.4-0.1 5.7 1.5 9.6 4.8 11.8 3.6 2.1 9.1 2.3 16.5 0.6h0.5c2.6-0.9 4.1-1.9 4.5-3-0.1-1.2-1.3-2.6-3.6-4.4-4.2-3.2-6.2-6.2-5.8-9-0.2-3 2-5.5 6.6-7.7 0.1 0 0.1-0.1 0.2-0.1 2.3-0.9 3.8-1.9 4.6-3 0.5-0.9 0.5-1.9 0.1-3-1.6-3.6-6.6-8.2-14.9-13.6l-0.1-0.1c-0.1-0.1-0.3-0.2-0.5-0.3-11.9-8.2-45.4-12.1-100.7-11.6-56.2 0.5-86.8 0.7-91.8 0.6-5.1-0.2-36.2-0.3-93.2-0.4-56.7-0.1-117.1 4.2-181.3 12.9-0.3 0.2-0.6 0.4-1 0.5-9.9 1.6-16.8 4.1-20.4 7.6-3.1 3.2-3.5 7.2-1.3 12 0.8 1.7 1.9 3.5 3.3 5.4h0.1v0.1l0.3 0.3c0.4 0.5 0.5 1.1 0.5 1.8-0.1 0.4-0.3 0.7-0.5 1-0.9 4.9-6.7 10.2-17.3 16-6.2 3.5-9.4 6.3-9.4 8.4 0.6 2 4.2 3.8 11 5.3 8.7 2 17.4 2.3 26.1 0.9 7.7-1.3 12-6.5 12.6-15.6 0-1.1 0.1-2.3 0.3-3.3h4.9c-0.1 1.1-0.2 2.3-0.3 3.5v0.1c-0.9 11.7-6.5 18.4-16.7 20-9.4 1.5-18.7 1.2-28-0.9-9.7-2.2-14.6-5.3-14.8-9.4-0.8-3.9 3.1-8.3 11.9-13.3 9.3-5 14.2-9.2 14.8-12.8-1.4-2-2.5-3.8-3.3-5.5-3.2-7.1-2.5-12.9 2.3-17.4 4-4 11.3-7 21.9-8.9 0.3-0.3 0.7-0.4 1.2-0.5 64.8-8.8 125.8-13.2 183.1-13 57.2-0.1 88.3 0 93.4 0.1z" fill-rule="evenodd"/>
		<path clip-rule="evenodd" d="m424.8 204.7c13.3-0.1 29.7-0.3 49.2-0.5 56.8-0.5 91.3 3.6 103.5 12.5 0.1 0 0.3 0.1 0.5 0.2 9.5 6.2 15.1 11.5 16.7 15.9 1.2 2.8 1 5.3-0.6 7.5-1.2 2-3.5 3.6-6.9 4.9l0.2-0.1c-2.3 1-3.6 2.2-3.9 3.4 0.1 1.4 1.5 3 4 4.9v0.1c4.3 3.3 6 6.3 5.3 9.1-0.3 2.8-3 5-8.1 6.8-0.3 0.1-0.6 0.2-0.8 0.2-8.9 2-15.5 1.6-19.9-1.3-4.8-2.8-7.2-8.1-7-16 0.1-8.4-2.2-12.9-6.8-13.5-0.7 0-1.2-0.3-1.7-0.8s-0.7-1.1-0.6-1.7c0-0.7 0.3-1.2 0.8-1.6 0.5-0.5 1-0.7 1.7-0.7 7.6 0.1 11.4 6.3 11.3 18.3-0.1 5.7 1.5 9.7 4.8 11.8 3.6 2.1 9.1 2.3 16.5 0.5h0.5c2.6-0.9 4.1-1.9 4.5-2.9-0.1-1.2-1.3-2.7-3.6-4.4-4.2-3.3-6.2-6.3-5.8-9-0.2-3 2-5.5 6.6-7.6 0.1-0.1 0.1-0.1 0.2-0.1 2.3-0.8 3.8-1.8 4.6-2.9 0.5-0.9 0.5-1.9 0.1-3-1.6-3.7-6.6-8.2-14.9-13.6l-0.1-0.1c-0.1-0.1-0.3-0.2-0.5-0.3-11.9-8.2-45.4-12-100.7-11.4-19.5 0.2-35.9 0.3-49.2 0.4-25.1 0.2-39.3 0.2-42.6 0-5.1-0.1-36.2-0.2-93.2-0.3-56.7-0.2-117.1 4.1-181.3 12.8-0.3 0.2-0.7 0.4-1.1 0.5-1.7 0.3-3.3 0.6-4.8 1h-0.1c-7.9 1.8-13.3 4.3-16.2 7.5-2.4 3-2.5 6.7-0.5 11.1 0.8 1.7 1.8 3.4 3.1 5.4h0.1l0.1 0.1c0.1 0.1 0.2 0.3 0.3 0.4 0.4 0.5 0.5 1.1 0.5 1.9-0.1 0.4-0.3 0.7-0.5 1-0.9 4.9-6.7 10.2-17.3 15.9-6.2 3.5-9.4 6.3-9.4 8.5 0.6 2 4.2 3.7 11 5.3 8.7 2 17.4 2.3 26.1 0.8 0.8-0.2 1.6-0.3 2.4-0.5 6.2-2 9.6-7 10.3-15 0.7-19.6 14.1-31 40.1-34.1l-1.3 5.3c-22 2.7-33.3 12.4-34 29v0.1c-0.8 10.5-5.4 17-13.8 19.4-0.9 0.2-1.9 0.5-2.9 0.6-9.4 1.5-18.7 1.2-28-0.9-9.7-2.2-14.6-5.3-14.8-9.4-0.8-3.9 3.1-8.3 11.9-13.3 9.3-5 14.2-9.3 14.8-12.8-1.4-2-2.5-3.8-3.3-5.6-2.9-6.4-2.5-11.8 1.3-16.1 3.3-4.1 9.6-7.2 18.9-9.2h-0.1c1.3-0.3 2.8-0.6 4.3-0.8 0.3-0.3 0.6-0.5 1.1-0.5 64.8-8.8 125.8-13.2 183.1-13.1 57.1 0.1 88.3 0.2 93.3 0.4 3.4-0.2 17.5-0.3 42.6-0.4z" fill-rule="evenodd"/>
		<g clip-rule="evenodd" fill-rule="evenodd">
				<radialGradient id="SVGID_7_" gradientUnits="userSpaceOnUse" cy="206.8" cx="270.5" gradientTransform="matrix(.9996 -.026608 .0021017 .078962 -.3389 197.67)" r="184.27">
				<stop stop-color="#fff" offset="0"/>
				<stop stop-color="#fff" stop-opacity="0" offset=".6314"/>
				<stop stop-color="#fff" stop-opacity="0" offset="1"/>
			</radialGradient>
			<path fill="url(#SVGID_7_)" d="m106.8 220.4h-0.4c-0.2 0.1-0.4 0-0.5-0.1l-0.3-0.3v-0.3c0-0.1 0-0.2 0.1-0.2 0.1-0.1 0.3-0.2 0.4-0.3 64.7-8.8 125.6-13.1 182.8-13 57.1 0.1 88.2 0.2 93.3 0.3 5 0.2 35.6 0 91.7-0.5 7.4-0.1 14.4 0 21 0.1 0.2 0 0.3 0.1 0.4 0.1 0.1 0.1 0.2 0.3 0.2 0.5s-0.1 0.3-0.2 0.4-0.2 0.1-0.4 0.1c-6.6-0.1-13.6-0.1-21 0-56.1 0.5-86.7 0.6-91.8 0.5s-36.2-0.3-93.3-0.4c-56.8 0-117.5 4.3-182 13.1z"/>
				<radialGradient id="SVGID_8_" gradientUnits="userSpaceOnUse" cy="213.7" cx="556.95" gradientTransform="matrix(1 0 0 .3745 0 133.67)" r="39.688">
				<stop stop-color="#fff" offset="0"/>
				<stop stop-color="#fff" stop-opacity="0" offset=".6314"/>
				<stop stop-color="#fff" stop-opacity="0" offset="1"/>
			</radialGradient>
			<path fill="url(#SVGID_8_)" d="m576.1 219.2c-0.1 0-0.3 0-0.4-0.1-6.4-4.4-19-7.6-37.9-9.6-0.2 0-0.3-0.1-0.3-0.2-0.1-0.2-0.2-0.3-0.2-0.5s0.1-0.3 0.2-0.4c0.2-0.1 0.3-0.1 0.5-0.1 19.2 2 32 5.3 38.5 9.9 0.1 0 0.1 0.1 0.2 0.2 0.1 0 0.2 0 0.3 0.1 8 5.3 13.1 9.8 15.3 13.6 2.3 4 1.5 7.3-2.4 9.8-0.2 0.1-0.3 0.1-0.5 0-0.2 0-0.3-0.1-0.4-0.4-0.1-0.1-0.2-0.3-0.1-0.4 0-0.1 0.1-0.3 0.3-0.4 3.3-2.1 4-4.8 2.1-8.1-2.2-3.7-7.1-8.1-15-13.2-0.1 0-0.2-0.1-0.2-0.2z"/>
				<radialGradient id="SVGID_9_" gradientUnits="userSpaceOnUse" cy="259.45" cx="568.75" gradientTransform="matrix(1 0 0 .9563 0 11.328)" r="29.775">
				<stop stop-color="#fff" offset="0"/>
				<stop stop-color="#fff" stop-opacity="0" offset=".6314"/>
				<stop stop-color="#fff" stop-opacity="0" offset="1"/>
			</radialGradient>
			<path fill="url(#SVGID_9_)" d="m586.2 256.3c-0.2-0.1-0.3-0.3-0.3-0.4 0-0.2 0-0.3 0.1-0.4 0.1-0.2 0.2-0.3 0.4-0.3 0.1 0 0.3 0 0.5 0.1 3.2 2.6 4.6 5 4 7-0.4 2.1-2.7 3.8-6.9 5.2h-0.3c-8.3 2-14.6 1.7-18.7-0.9-4.2-2.6-6.3-7.4-6.3-14.5 0.1-9.8-2.7-14.9-8.5-15.3-0.2 0-0.3-0.1-0.4-0.2s-0.2-0.3-0.2-0.4c0-0.2 0.1-0.3 0.2-0.4s0.3-0.2 0.4-0.2c6.5 0.3 9.8 5.8 9.7 16.5-0.1 6.5 1.8 11 5.7 13.4s9.8 2.6 17.8 0.8h0.3c3.6-1.2 5.6-2.6 6-4.3 0.4-1.5-0.8-3.5-3.5-5.7z"/>
				<radialGradient id="SVGID_10_" gradientUnits="userSpaceOnUse" cy="247.35" cx="122.25" gradientTransform="matrix(.9986 .053117 -.051704 .972 12.962 .4239)" r="23.495">
				<stop stop-color="#fff" offset="0"/>
				<stop stop-color="#fff" stop-opacity="0" offset=".6314"/>
				<stop stop-color="#fff" stop-opacity="0" offset="1"/>
			</radialGradient>
			<path fill="url(#SVGID_10_)" d="m143.3 235.5c0.1 0 0.2 0.1 0.2 0.3s-0.1 0.4-0.2 0.5-0.2 0.2-0.4 0.2c-17.4 1.4-26.8 10.5-28.1 27.3 0 0.1 0 0.3-0.1 0.5h-0.5c-0.2 0-0.3 0-0.4-0.1-0.1-0.2-0.2-0.3-0.2-0.5 1.3-17.5 11-26.9 29.1-28.4 0.2-0.1 0.4 0 0.6 0.2z"/>
				<radialGradient id="SVGID_11_" gradientUnits="userSpaceOnUse" cy="229.8" cx="87.75" gradientTransform="matrix(1 0 0 .9353 0 14.877)" r="25.488">
				<stop stop-color="#fff" offset="0"/>
				<stop stop-color="#fff" stop-opacity="0" offset=".6314"/>
				<stop stop-color="#fff" stop-opacity="0" offset="1"/>
			</radialGradient>
			<path fill="url(#SVGID_11_)" d="m106.8 220.4v0.1c-0.1 0.1-0.2 0.2-0.4 0.2-10.4 1.7-17.6 4.5-21.5 8.3-3.7 3.6-4.3 8.2-1.6 13.9v0.1c0.1 0.2 0.1 0.3 0.3 0.4 0.1 0.2 0.1 0.3 0 0.5 0 0.1-0.1 0.2-0.3 0.4-0.2 0.1-0.3 0.1-0.4 0-0.2 0-0.3-0.1-0.4-0.3-0.2-0.3-0.3-0.5-0.4-0.7-2.8-6.2-2.2-11.3 1.9-15.3 3.9-3.9 11.1-6.7 21.6-8.5v0.3c0 0.1 0.1 0.3 0.3 0.3 0.1 0.1 0.3 0.2 0.5 0.1 0.1 0.2 0.2 0.2 0.4 0.2z"/>
				<radialGradient id="SVGID_12_" gradientUnits="userSpaceOnUse" cy="279.4" cx="75.65" gradientTransform="matrix(1 0 0 .5309 0 131.05)" r="46.05">
				<stop stop-color="#fff" offset="0"/>
				<stop stop-color="#fff" stop-opacity="0" offset=".6314"/>
				<stop stop-color="#fff" stop-opacity="0" offset="1"/>
			</radialGradient>
			<path fill="url(#SVGID_12_)" d="m82.1 257c0 0.2 0 0.3-0.1 0.5-2.7 2.4-6.6 5-11.6 7.7-7.1 4-10.6 7.4-10.4 10.2 0.5 2.8 4.6 5 12.5 6.8v0.1c8.9 2 17.8 2.3 26.8 0.8 5.4-0.9 9.2-3.4 11.6-7.5 0.1-0.2 0.2-0.3 0.4-0.3 0.1-0.1 0.2-0.1 0.4 0s0.3 0.2 0.3 0.4c0.1 0.1 0 0.3 0 0.5-2.6 4.5-6.7 7.2-12.5 8.1-9.1 1.5-18.2 1.2-27.3-0.9-8.6-1.9-13-4.5-13.3-7.9-0.5-3.2 3.1-7 10.9-11.3l0.1-0.1c4.9-2.6 8.7-5.1 11.4-7.5 0-0.1 0.2-0.1 0.4-0.1 0.1 0 0.3 0.1 0.5 0.2-0.1 0-0.1 0.2-0.1 0.3z"/>
		</g>
		<polygon points="623.3 580 661 649.3 474.4 649.3 463 633.3 461 621.2 461 573.3 606.8 571.3" fill-opacity=".251" clip-rule="evenodd" fill-rule="evenodd"/>
		<polygon points="294.3 562.2 318.3 562.2 318.3 634.2 314 656.3 23.1 656.3 44.6 562.4 46.5 562.2 100.9 562.2 100.9 585.2 294.3 585.2" fill-opacity=".251" clip-rule="evenodd" fill-rule="evenodd"/>
		<linearGradient id="SVGID_13_" y2="640.14" gradientUnits="userSpaceOnUse" x2="184.98" y1="624.56" x1="184.98">
			<stop stop-color="#070707" offset="0"/>
			<stop stop-color="#090909" offset=".549"/>
			<stop stop-color="#0B0B0B" stop-opacity=".498" offset=".6471"/>
			<stop stop-color="#0E0E0E" stop-opacity="0" offset="1"/>
		</linearGradient>
		<polygon points="294.9 584.3 312.1 584.3 318.1 636.2 51.9 636.2 69.6 584.3" fill="url(#SVGID_13_)" clip-rule="evenodd" fill-rule="evenodd"/>
		<path clip-rule="evenodd" d="m461.3 627.7v-18.7h172l8.3 19.5c0.4 2.3-1 3.6-4 3.9h-166.3c-7.2 0.2-10.5-1.4-10-4.7z" fill-rule="evenodd"/>
			<g clip-rule="evenodd" fill-rule="evenodd">
				<polygon points="318 525.2 51.9 525.2 67 484 316.9 484" fill="#6683C7"/>
				<path fill="#8BA6FD" d="m51.9 525.2h266.1v107.8h-266.1v-107.8zm5.7 102.1h255.6v-97.8h-255.6v97.8z"/>
				<linearGradient id="SVGID_14_" y2="683.93" gradientUnits="userSpaceOnUse" x2="67.552" y1="490.85" x1="283.31">
					<stop stop-color="#D1D4DB" offset="0"/>
					<stop stop-color="#90939A" offset="1"/>
				</linearGradient>
				<rect height="97.8" width="255.6" y="529.5" x="57.6" fill="url(#SVGID_14_)"/>
			</g>
			<g clip-rule="evenodd" fill-rule="evenodd">
				<polygon points="313.3 529.5 313.3 627 311.5 625.3 311.5 532" fill="#969BA9"/>
				<linearGradient id="SVGID_15_" y2="536.88" gradientUnits="userSpaceOnUse" x2="185.55" y1="522.12" x1="185.55">
					<stop offset="0"/>
					<stop stop-opacity="0" offset="1"/>
				</linearGradient>
				<polygon points="311.5 532 61.1 532 61.1 532 57.8 529.5 313.3 529.5" fill="url(#SVGID_15_)"/>
				<polygon points="61.1 532 61.1 625.3 58.4 627.3 57.6 627.3 57.6 529.5 57.8 529.5" fill="#C2C7D0"/>
				<polygon points="313.3 627 313.3 627.3 309.6 627.3 301.5 627.3 73.8 627.3 58.4 627.3 61.1 625.3 311.5 625.3" fill="#DCDFE5"/>
			</g>
					<polygon points="185.5 542.1 185.5 580.2 70.9 580.2 68.5 578 70.9 539.8 181.6 539.7" fill-opacity=".4118" clip-rule="evenodd" fill-rule="evenodd"/>
					<g clip-rule="evenodd" fill-rule="evenodd">
						<polygon points="182.9 541.4 68.6 541.4 68 539.8 68 539.7 68 539.7 181.6 539.7" fill="#7E8892"/>
						<polygon points="174.5 573.5 173.4 573.5 173.4 573 173.4 546 78.6 546 77.5 545.5 77.5 545.5 78.6 545.5 173.4 545.5 174.5 545.5 174.5 546 174.5 546.5 174.5 549.4 174.5 549.5 174.5 555.2 174.5 557.5 174.5 559.3 174.5 573" fill="#3F4335"/>
						<linearGradient id="SVGID_16_" y2="559.62" gradientUnits="userSpaceOnUse" x2="179.04" y1="559.62" x1="174.56">
							<stop stop-color="#7B838E" offset="0"/>
							<stop stop-color="#535860" offset="1"/>
							<stop stop-color="#1A1A1A" offset="1"/>
							<stop stop-color="#7B838C" offset="1"/>
						</linearGradient>
						<polygon points="174.5 545.5 179 543.3 179 576 174.5 573.5 174.5 573 174.5 559.3 174.5 557.5 174.5 555.2 174.5 549.5 174.5 549.4 174.5 546.5 174.5 546" fill="url(#SVGID_16_)"/>
						<polygon points="77.5 545.5 72.8 543.3 179 543.3 174.5 545.5 173.4 545.5 78.6 545.5" fill="#1E212A"/>
						<path fill="#5B656E" d="m68.5 578v-36.5h114.3v36.5h-114.3zm113-1.8v-0.2h-0.4l0.4 0.2zm-2.5-32.9h-106.2v32.6h106.2v-32.6z"/>
						<linearGradient id="SVGID_17_" y2="576.05" gradientUnits="userSpaceOnUse" x2="186.36" y1="576.05" x1="173.54">
							<stop stop-color="#7B838E" offset="0"/>
							<stop stop-color="#535860" offset="1"/>
							<stop stop-color="#1A1A1A" offset="1"/>
							<stop stop-color="#7B838C" offset="1"/>
						</linearGradient>
						<polygon points="181.5 576.2 181.1 576 181.5 576" fill="url(#SVGID_17_)"/>
						<polygon points="72.7 575.9 77.5 573.5 78.6 573.5 173.4 573.5 174.5 573.5 179 576 72.7 576" fill="#2B303C"/>
						<polygon points="78.6 546 78.6 573 173.4 573 173.4 573.5 78.6 573.5 77.5 573.5 77.5 573 77.5 559.3 77.5 557.5 77.5 555.2 77.5 549.5 77.5 549.4 77.5 546.5 77.5 545.5" fill="#323627"/>
						<rect height="27" width="94.8" y="546" x="78.6" fill="#8A956E"/>
						<polygon points="68.6 541.4 68.5 541.4 68.5 578 68 575 68 539.8" fill="#545C65"/>
						<linearGradient id="SVGID_18_" y2="559.6" gradientUnits="userSpaceOnUse" x2="78.575" y1="559.6" x1="68.525">
							<stop stop-color="#363D41" offset="0"/>
							<stop stop-color="#59646A" offset="1"/>
							<stop stop-color="#393939" offset="1"/>
							<stop stop-color="#1A1A1A" offset="1"/>
						</linearGradient>
						<polygon points="72.8 543.3 77.5 545.5 77.5 545.5 77.5 546.5 77.5 549.4 77.5 549.5 77.5 555.2 77.5 557.5 77.5 559.3 77.5 573 77.5 573.5 72.7 575.9 72.7 543.3" fill="url(#SVGID_18_)"/>
					</g>
				<g fill-rule="evenodd" clip-rule="evenodd" fill="none">
					<line y2="574" x2="179" y1="543.3" x1="179"/>
					<line y2="575" x2="72.7" y1="544.3" x1="72.7"/>
				</g>
					<line y2="541.3" fill-rule="evenodd" x2="182.8" clip-rule="evenodd" y1="541.3" x1="68.5" fill="none"/>
					<line y2="576" fill-rule="evenodd" x2="178.7" clip-rule="evenodd" y1="576" x1="73" fill="none"/>
			<g fill-rule="evenodd" clip-rule="evenodd" fill="none">
				<line y2="504.5" x2="57.6" y1="507" x1="57.6"/>
				<line y2="507" x2="57.6" y1="507.3" x1="57.6"/>
				<line y2="507.3" x2="57.6" y1="507.3" x1="51.9"/>
				<line y2="628.4" x2="57.6" y1="529.3" x1="57.6"/>
				<line y2="524.7" x2="316" y1="524.7" x1="57.6"/>
			</g>
				<polygon points="274.9 549.8 265.9 558.5 265.9 540.9" fill="#fff" clip-rule="evenodd" fill-rule="evenodd"/>
				<polygon points="274 549.8 266.5 557.2 266.5 542.3" clip-rule="evenodd" fill-rule="evenodd"/>
				<polygon points="205.4 558.5 196.5 549.8 205.4 540.9" fill="#fff" clip-rule="evenodd" fill-rule="evenodd"/>
				<polygon points="204.8 542.3 204.8 557.2 197.4 549.8" clip-rule="evenodd" fill-rule="evenodd"/>
						<radialGradient id="SVGID_19_" gradientUnits="userSpaceOnUse" cy="605.5" cx="158.88" gradientTransform="matrix(.9565 -.2916 .2441 1.0463 -9.9227 -42.532)" r="9.4775">
						<stop stop-opacity=".4588" offset="0"/>
						<stop stop-opacity=".2392" offset=".6039"/>
						<stop stop-opacity="0" offset="1"/>
					</radialGradient>
					<path fill="url(#SVGID_19_)" clip-rule="evenodd" d="m298.4 544.5c0.1 2.9-0.7 5.4-2.3 7.4-1.7 2.1-3.7 3.2-6.1 3.3-2.3 0-4.3-1-6-3-1.8-2.1-2.7-4.5-2.8-7.5-0.1-2.9 0.7-5.4 2.4-7.5 1.6-2.1 3.6-3.1 6-3.3 2.4 0 4.4 0.9 6.1 2.9 1.7 2.2 2.6 4.7 2.7 7.7z" fill-rule="evenodd"/>
						<g clip-rule="evenodd" fill-rule="evenodd">
								<linearGradient id="SVGID_20_" y2="537.9" gradientUnits="userSpaceOnUse" x2="297.15" y1="537.9" x1="282.55">
									<stop stop-color="#696971" offset="0"/>
									<stop stop-color="#B0B0B5" offset=".1725"/>
									<stop stop-color="#888891" offset=".4784"/>
									<stop stop-color="#787880" offset=".6745"/>
									<stop stop-color="#F2F2F2" offset=".8667"/>
									<stop stop-color="#6B6B6F" offset="1"/>
									<stop stop-color="#3B3B40" offset="1"/>
									<stop stop-color="#6B6B6F" offset="1"/>
								</linearGradient>
								<path fill="url(#SVGID_20_)" d="m282.6 542.1l0.1-3c0-0.3 0.1-0.6 0.2-0.8 0.3-0.9 0.9-1.8 1.8-2.6 1.4-1.3 3.1-1.9 5.1-1.9s3.7 0.6 5.1 1.9c0.9 0.8 1.5 1.7 1.8 2.6 0 0.2 0.1 0.3 0.2 0.5l0.1 3c-0.1-0.5-0.2-1-0.4-1.4-0.3-1.1-0.9-2-1.8-2.8-1.4-1.4-3.1-2.2-5.1-2.2s-3.7 0.7-5.1 2.2c-0.8 0.8-1.4 1.7-1.8 2.8 0 0.4-0.1 1-0.2 1.7z"/>
								<linearGradient id="SVGID_21_" y2="549.97" gradientUnits="userSpaceOnUse" x2="289.9" y1="535.35" x1="289.9">
									<stop stop-color="#575350" offset="0"/>
									<stop stop-color="#54504D" offset=".3961"/>
									<stop stop-color="#353231" offset="1"/>
								</linearGradient>
								<path fill="url(#SVGID_21_)" d="m286 538.8c-1 1.1-1.6 2.3-1.6 3.8 0 0.2 0.1 0.5 0.1 1.2 0 0.8 0.5 1.7 1.4 2.7 1.1 1.1 2.4 1.6 3.8 1.6 1.5 0 2.8-0.5 3.9-1.6 0.9-1 1.4-2.2 1.5-3.6v-0.3c0-1.4-0.5-2.7-1.5-3.8-1.1-1.1-2.4-1.6-3.9-1.6-1.3 0-2.6 0.5-3.7 1.6zm11.1 2.9c0 0.3 0.1 0.6 0.1 1v0.1c0 2-0.8 3.6-2.3 5-1.4 1.5-3.1 2.2-5.1 2.2s-3.7-0.7-5.1-2.2c-1.4-1.4-2.1-3.1-2.1-5.1v-0.1-0.3-0.2c0.1-0.7 0.2-1.3 0.4-1.8 0.3-1.1 0.9-2 1.8-2.8 1.4-1.4 3.1-2.2 5.1-2.2s3.7 0.7 5.1 2.2c0.9 0.8 1.5 1.7 1.8 2.8 0.2 0.4 0.3 0.9 0.3 1.4z"/>
								<radialGradient id="SVGID_22_" gradientUnits="userSpaceOnUse" cy="542.6" cx="289.85" r="5.6875">
									<stop offset="0"/>
									<stop stop-color="#2F1A17" offset="1"/>
								</radialGradient>
								<path fill="url(#SVGID_22_)" d="m286 538.8c1.1-1.1 2.4-1.6 3.8-1.6 1.5 0 2.8 0.5 3.9 1.6 1 1.1 1.5 2.3 1.5 3.8v0.3c-0.1 1.4-0.6 2.6-1.5 3.6-1.1 1.1-2.4 1.6-3.9 1.6-1.4 0-2.7-0.5-3.8-1.6-0.9-1-1.4-1.9-1.4-2.7-0.1-0.6-0.1-1-0.1-1.2-0.1-1.5 0.4-2.7 1.5-3.8z"/>
								<radialGradient id="SVGID_23_" gradientUnits="userSpaceOnUse" cy="646" cx="353.4" gradientTransform="matrix(.8467 0 0 .8467 -9.3998 -4.35)" r="7.1125">
								<stop stop-color="#9A0404" offset="0"/>
								<stop stop-color="#C43020" offset=".5059"/>
								<stop stop-color="#ff0" offset=".8902"/>
								<stop stop-color="#ff0" stop-opacity="0" offset="1"/>
							</radialGradient>
							<path fill="url(#SVGID_23_)" d="m293.7 538.7c1.1 1.1 1.7 2.4 1.7 3.9s-0.6 2.8-1.7 3.9c-1 1.1-2.3 1.7-3.9 1.7s-2.8-0.6-3.9-1.7c-1-1-1.6-2.3-1.6-3.9s0.5-2.9 1.6-3.9c1.1-1.1 2.4-1.6 3.9-1.6s2.8 0.5 3.9 1.6z"/>
						</g>
							<radialGradient id="SVGID_24_" gradientUnits="userSpaceOnUse" cy="540.3" cx="290.85" r="4.2625">
								<stop stop-color="#fff" stop-opacity=".6941" offset="0"/>
								<stop stop-color="#fff" stop-opacity=".5294" offset=".1765"/>
								<stop stop-color="#fff" stop-opacity=".298" offset=".3059"/>
								<stop stop-color="#fff" stop-opacity=".1569" offset=".4902"/>
								<stop stop-color="#fff" stop-opacity=".082353" offset=".6667"/>
								<stop stop-color="#fff" stop-opacity="0" offset="1"/>
							</radialGradient>
							<path fill="url(#SVGID_24_)" clip-rule="evenodd" d="m293.9 543.3c-0.9 0.8-1.9 1.2-3 1.2s-2.1-0.4-3-1.2c-0.8-0.8-1.1-1.8-1.1-3s0.4-2.1 1.1-2.8c0.8-0.9 1.8-1.4 3-1.4s2.2 0.5 3 1.4c0.8 0.7 1.2 1.7 1.2 2.8 0 1.2-0.4 2.2-1.2 3z" fill-rule="evenodd"/>
							<radialGradient id="SVGID_25_" gradientUnits="userSpaceOnUse" cy="542.75" cx="286.6" r="1.7625">
								<stop stop-color="#fff" offset="0"/>
								<stop stop-color="#fff" offset=".1765"/>
								<stop stop-color="#fff" stop-opacity=".4235" offset=".3059"/>
								<stop stop-color="#fff" stop-opacity=".2314" offset=".4902"/>
								<stop stop-color="#fff" stop-opacity=".082353" offset=".651"/>
								<stop stop-color="#fff" stop-opacity="0" offset="1"/>
							</radialGradient>
							<path fill="url(#SVGID_25_)" clip-rule="evenodd" d="m287.8 541.6c0.4 0.2 0.6 0.6 0.6 1.2 0 0.5-0.2 0.9-0.6 1.2-0.3 0.4-0.7 0.5-1.2 0.5s-0.9-0.2-1.2-0.5-0.5-0.7-0.5-1.2 0.2-0.9 0.5-1.2c0.3-0.4 0.7-0.5 1.2-0.5 0.5-0.1 0.9 0.1 1.2 0.5z" fill-rule="evenodd"/>
								<radialGradient id="SVGID_26_" gradientUnits="userSpaceOnUse" cy="536.1" cx="286.6" gradientTransform="matrix(.9794 -.202 .078603 .3811 -36.231 389.69)" r="2.8854">
								<stop stop-color="#fff" offset="0"/>
								<stop stop-color="#fff" offset=".1765"/>
								<stop stop-color="#fff" stop-opacity=".4235" offset=".3059"/>
								<stop stop-color="#fff" stop-opacity=".2314" offset=".4902"/>
								<stop stop-color="#fff" stop-opacity=".082353" offset=".651"/>
								<stop stop-color="#fff" stop-opacity="0" offset="1"/>
							</radialGradient>
							<path fill="url(#SVGID_26_)" clip-rule="evenodd" d="m286.9 537.2c-0.8 0.2-1.4 0.3-2 0.1-0.6-0.1-0.9-0.3-0.9-0.6-0.1-0.3 0.1-0.6 0.5-0.9 0.5-0.3 1.1-0.6 1.9-0.8 0.8-0.1 1.5-0.2 2.1 0 0.6 0.1 0.9 0.3 1 0.5 0.1 0.3-0.1 0.6-0.7 1-0.5 0.3-1.1 0.5-1.9 0.7z" fill-rule="evenodd"/>
								<radialGradient id="SVGID_27_" gradientUnits="userSpaceOnUse" cy="535.45" cx="291.05" gradientTransform="matrix(.9894 .1455 -.058659 .399 34.505 279.48)" r="4.3223">
								<stop stop-color="#fff" offset="0"/>
								<stop stop-color="#fff" offset=".1765"/>
								<stop stop-color="#fff" stop-opacity=".4235" offset=".3059"/>
								<stop stop-color="#fff" stop-opacity=".2314" offset=".4902"/>
								<stop stop-color="#fff" stop-opacity=".082353" offset=".651"/>
								<stop stop-color="#fff" stop-opacity="0" offset="1"/>
							</radialGradient>
							<path fill="url(#SVGID_27_)" clip-rule="evenodd" d="m290.8 537.2c-1.1-0.1-2.1-0.4-2.9-0.9-0.7-0.5-1.1-0.9-1-1.4 0.1-0.4 0.6-0.8 1.4-0.9 0.9-0.3 2-0.3 3-0.2 1.1 0.2 2.1 0.5 3 1 0.8 0.4 1.2 0.9 1.1 1.3-0.1 0.5-0.6 0.8-1.5 1s-1.9 0.2-3.1 0.1z" fill-rule="evenodd"/>
				<radialGradient id="SVGID_28_" gradientUnits="userSpaceOnUse" cy="645.35" cx="353.2" gradientTransform="matrix(.8467 0 0 .8037 -9.3998 23.412)" r="19.438">
				<stop stop-color="#ff0" stop-opacity="0" offset="0"/>
				<stop stop-color="#ff0" stop-opacity="0" offset=".4275"/>
				<stop stop-color="#ff0" stop-opacity=".2392" offset=".4863"/>
				<stop stop-color="#ff0" stop-opacity=".2902" offset=".5412"/>
				<stop stop-color="#ff0" stop-opacity="0" offset=".698"/>
				<stop stop-color="#ff0" stop-opacity="0" offset="1"/>
			</radialGradient>
			<path fill="url(#SVGID_28_)" clip-rule="evenodd" d="m280.1 561.4c-2.8-2.7-4.1-6.1-4.1-10 0-4 1.4-7.3 4.1-10.1 2.8-2.8 6.1-4.1 10.1-4.1s7.3 1.4 10.1 4.1c2.8 2.8 4.1 6.1 4.1 10.1s-1.4 7.3-4.1 10c-2.8 2.8-6.2 4.2-10.1 4.2-4 0-7.3-1.4-10.1-4.2z" fill-rule="evenodd"/>
				<linearGradient id="SVGID_29_" y2="561.44" gradientUnits="userSpaceOnUse" x2="289.75" y1="587.96" x1="290.45">
					<stop stop-color="#2D2929" offset="0"/>
					<stop stop-color="#433E3D" offset="1"/>
				</linearGradient>
				<path fill="url(#SVGID_29_)" clip-rule="evenodd" d="m277 564.8c0-2.1 1-3.1 3.1-3.1h19.9c2.1 0 3.1 1 3.1 3.1v19.9c0 2.1-1 3.1-3.1 3.1h-19.9c-2.1 0-3.1-1-3.1-3.1v-19.9z" fill-rule="evenodd"/>
				<path fill-opacity=".4902" clip-rule="evenodd" d="m293.4 584c0 0.9-0.3 1.6-0.9 2.2s-1.3 0.8-2.2 0.8-1.6-0.3-2.2-0.8c-0.6-0.6-0.9-1.3-0.9-2.2 0-0.3 0.1-0.6 0.1-0.9 0.2-0.5 0.4-0.9 0.8-1.3 0.6-0.6 1.3-0.9 2.2-0.9s1.6 0.3 2.2 0.9c0.4 0.4 0.6 0.8 0.8 1.3 0 0.4 0.1 0.7 0.1 0.9zm-4.5-2.1c0.2 0.4 0.5 0.4 0.9 0.2 0.1-0.3 0-0.5-0.3-0.5-0.2 0-0.4 0.1-0.6 0.3zm2.2-0.2c0.4 0.3 0.8 0.7 1 1.1s0.3 0.4 0.3 0.1c-0.1-0.4-0.5-0.8-1.2-1.2h-0.1z" fill-rule="evenodd"/>
					<polygon points="290.2 569 295.7 572.3 295.9 572.4 295.9 578.3 290 582 284.3 578.2 284.3 572.2 284.3 572 289.2 569.5 290 569" clip-rule="evenodd" fill-rule="evenodd"/>
					<g clip-rule="evenodd" fill-rule="evenodd">
						<linearGradient id="SVGID_30_" y2="570.45" gradientUnits="userSpaceOnUse" x2="290.07" y1="571.23" x1="286.72">
							<stop stop-color="#4E4F4A" offset="0"/>
							<stop stop-color="#424242" offset=".5059"/>
							<stop stop-color="#A2A7A0" offset=".7686"/>
							<stop stop-color="#60605E" offset="1"/>
							<stop offset="1"/>
							<stop stop-color="#111" offset="1"/>
						</linearGradient>
						<path fill="url(#SVGID_30_)" d="m290.2 569v1.3h-0.2-0.3c-1.2 0.1-2.3 0.6-3.1 1.4-0.4 0.3-0.7 0.7-1 1.2l-0.9-0.8v-0.1l4.6-2.5 0.8-0.4 0.1-0.1z"/>
						<path fill="#60605E" d="m294.3 572.7c-0.2-0.4-0.5-0.7-0.8-1-0.9-0.9-2-1.4-3.3-1.4v-1.3l5.1 3.2-1 0.5z"/>
						<path fill="#555" d="m294.3 572.7l1.1-0.5 0.1 0.1v5.7l-1.3-0.5c0.4-0.7 0.6-1.4 0.6-2.3 0.1-0.9-0.2-1.8-0.5-2.5z"/>
						<path fill="#454345" d="m290 581.5v-1.5c1.3 0 2.4-0.5 3.4-1.3l0.1-0.1c0.1 0 0.2-0.1 0.2-0.2 0.2-0.3 0.5-0.6 0.6-0.9l1.3 0.5-5.6 3.5z"/>
						<linearGradient id="SVGID_31_" y2="575.15" gradientUnits="userSpaceOnUse" x2="295.77" y1="575.15" x1="286.02">
							<stop stop-color="#424242" offset=".1922"/>
							<stop stop-color="#A3A5A5" offset=".3843"/>
							<stop stop-color="#4D4C49" offset=".5098"/>
							<stop offset="1"/>
							<stop stop-color="#111" offset="1"/>
						</linearGradient>
						<path fill="url(#SVGID_31_)" d="m290 580c-1.3 0-2.5-0.5-3.4-1.5-0.4-0.4-0.8-0.8-1-1.2-0.3-0.7-0.5-1.4-0.5-2.2s0.2-1.6 0.5-2.3c0.2-0.5 0.6-0.9 1-1.2 0.8-0.8 1.9-1.3 3.1-1.4h0.3 0.2c1.3 0 2.3 0.5 3.3 1.4 0.3 0.3 0.6 0.6 0.8 1 0.4 0.7 0.6 1.5 0.6 2.5 0 0.9-0.2 1.6-0.6 2.3l-0.6 0.9c0 0.1-0.1 0.2-0.2 0.2l-0.1 0.1c-1 0.9-2.1 1.4-3.4 1.4zm2.3-7.2c-0.6-0.6-1.4-0.9-2.3-0.9s-1.7 0.3-2.3 0.9c-0.7 0.6-1 1.4-1 2.3s0.3 1.7 1 2.3c0.6 0.7 1.4 1 2.3 1s1.7-0.3 2.3-1c0.1 0 0.1-0.1 0.2-0.2 0.5-0.6 0.8-1.3 0.8-2.1s-0.3-1.6-1-2.3z"/>
						<linearGradient id="SVGID_32_" y2="578.42" gradientUnits="userSpaceOnUse" x2="289.86" y1="571.88" x1="290.14">
							<stop stop-color="#A3A5A5" offset="0"/>
							<stop stop-color="#424242" offset=".3922"/>
							<stop offset="1"/>
							<stop stop-color="#111" offset="1"/>
						</linearGradient>
						<path fill="url(#SVGID_32_)" d="m292.3 572.8c0.7 0.6 1 1.4 1 2.3 0 0.8-0.3 1.5-0.8 2.1l-0.2 0.2c-0.6 0.7-1.4 1-2.3 1s-1.7-0.3-2.3-1c-0.7-0.6-1-1.4-1-2.3s0.3-1.7 1-2.3c0.6-0.6 1.4-0.9 2.3-0.9s1.7 0.3 2.3 0.9zm0.3 2.4c0-0.7-0.3-1.3-0.8-1.9-0.5-0.5-1.2-0.8-1.9-0.8s-1.4 0.3-1.9 0.8c-0.5 0.6-0.8 1.2-0.8 1.9s0.3 1.3 0.8 1.8 1.2 0.8 1.9 0.8 1.3-0.3 1.8-0.8h0.1l0.1-0.1c0.5-0.5 0.7-1.1 0.7-1.7z"/>
						<path fill="#191A1F" d="m292.6 575.2c0 0.7-0.2 1.3-0.7 1.8 0 0 0 0.1-0.1 0.1h-0.1c-0.5 0.5-1.1 0.8-1.8 0.8s-1.4-0.3-1.9-0.8c-0.5-0.5-0.8-1.1-0.8-1.8s0.3-1.3 0.8-1.9c0.5-0.5 1.2-0.8 1.9-0.8s1.4 0.3 1.9 0.8c0.6 0.4 0.8 1.1 0.8 1.8z"/>
						<path fill="#333533" d="m285.6 577.3l-0.9 0.5v-5.7l0.9 0.8c-0.4 0.7-0.5 1.4-0.5 2.3 0 0.7 0.2 1.5 0.5 2.1z"/>
						<path fill="#373536" d="m285.6 577.3c0.2 0.4 0.6 0.8 1 1.2 0.9 1 2.1 1.5 3.4 1.5v1.5l-5.3-3.6v-0.1l0.9-0.5z"/>
					</g>
				<g clip-rule="evenodd" fill-rule="evenodd">
					<linearGradient id="SVGID_33_" y2="577.58" gradientUnits="userSpaceOnUse" x2="292.24" y1="577.72" x1="287.46">
						<stop stop-color="#121212" offset="0"/>
						<stop stop-color="#6F6F6F" offset=".4627"/>
						<stop stop-color="#fff" offset=".5843"/>
						<stop stop-color="#484848" offset=".7255"/>
						<stop offset="1"/>
						<stop stop-color="#111" offset="1"/>
						<stop stop-color="#1E1E1E" offset="1"/>
					</linearGradient>
					<path fill="url(#SVGID_33_)" d="m293.3 581.7c-0.2-0.5-0.4-0.9-0.8-1.3-0.6-0.6-1.3-0.9-2.2-0.9s-1.6 0.3-2.2 0.9c-0.3 0.3-0.6 0.7-0.8 1.2l1.2-7.1c0.1-0.1 0.2-0.3 0.4-0.5 0.3-0.3 0.7-0.4 1.1-0.4s0.7 0.1 1 0.3h0.1c0.1 0.2 0.2 0.3 0.3 0.5l0.1 0.1c0 0.1 0 0.2 0.1 0.2l1.7 7z"/>
					<radialGradient id="SVGID_34_" gradientUnits="userSpaceOnUse" cy="581.6" cx="289.75" r="3.45">
						<stop stop-color="#fff" offset="0"/>
						<stop stop-color="#737373" offset=".4275"/>
						<stop stop-color="#6F6F6F" offset=".6275"/>
						<stop stop-color="#404040" offset="1"/>
						<stop stop-color="#2F2F2F" offset="1"/>
					</radialGradient>
					<path fill="url(#SVGID_34_)" d="m287.3 581.5c0.2-0.5 0.4-0.9 0.8-1.2 0.6-0.6 1.3-0.9 2.2-0.9s1.6 0.3 2.2 0.9c0.4 0.4 0.6 0.8 0.8 1.3 0.1 0.2 0.1 0.5 0.1 0.8 0 0.9-0.3 1.6-0.9 2.2s-1.3 0.9-2.2 0.9-1.6-0.3-2.2-0.9c-0.6-0.6-0.9-1.3-0.9-2.2-0.1-0.3 0-0.6 0.1-0.9z"/>
				</g>
			<g clip-rule="evenodd" fill-rule="evenodd">
					<radialGradient id="SVGID_35_" gradientUnits="userSpaceOnUse" cy="597.55" cx="591.4" gradientTransform="matrix(.9994 .034042 -.034042 .9994 -290.95 -53.05)" r="2">
					<stop stop-color="#fff" offset="0"/>
					<stop offset="1"/>
				</radialGradient>
				<path fill="url(#SVGID_35_)" d="m280.8 565.5c-0.3 0.3-0.7 0.4-1.1 0.4s-0.8-0.2-1.1-0.5-0.4-0.7-0.4-1.1 0.2-0.8 0.5-1.1 0.7-0.4 1.1-0.4 0.8 0.2 1.1 0.5 0.4 0.7 0.4 1.1c-0.1 0.4-0.2 0.8-0.5 1.1z"/>
					<rect transform="matrix(.9994 .034168 -.034168 .9994 19.446 -9.2283)" height="2.1" width=".4" y="563.3" x="279.5"/>
			</g>
			<g clip-rule="evenodd" fill-rule="evenodd">
					<radialGradient id="SVGID_36_" gradientUnits="userSpaceOnUse" cy="597.55" cx="591.4" gradientTransform="matrix(.8505 -.5259 .5259 .8505 -537.4 387.9)" r="2">
					<stop stop-color="#fff" offset="0"/>
					<stop offset="1"/>
				</radialGradient>
				<path fill="url(#SVGID_36_)" d="m281.3 585.5c-0.1 0.4-0.3 0.7-0.7 1-0.4 0.2-0.8 0.3-1.2 0.2s-0.7-0.3-1-0.7c-0.2-0.4-0.3-0.8-0.2-1.2s0.3-0.7 0.7-1c0.4-0.2 0.8-0.3 1.2-0.2s0.7 0.3 1 0.7 0.3 0.8 0.2 1.2z"/>
					<rect transform="matrix(.8511 -.5251 .5251 .8511 -265.46 234.05)" height="2" width=".4" y="583.9" x="279.6"/>
			</g>
			<g clip-rule="evenodd" fill-rule="evenodd">
					<radialGradient id="SVGID_37_" gradientUnits="userSpaceOnUse" cy="597.55" cx="591.4" gradientTransform="matrix(.9484 -.317 .317 .9484 -450.45 185.35)" r="2">
					<stop stop-color="#fff" offset="0"/>
					<stop offset="1"/>
				</radialGradient>
				<path fill="url(#SVGID_37_)" d="m301.2 565.3c-0.2 0.4-0.5 0.6-0.9 0.8-0.4 0.1-0.8 0.1-1.2-0.1s-0.6-0.5-0.8-0.9c-0.1-0.4-0.1-0.8 0.1-1.2s0.5-0.6 0.9-0.8c0.4-0.1 0.8-0.1 1.2 0.1s0.6 0.5 0.8 0.9c0.1 0.4 0.1 0.8-0.1 1.2z"/>
					<rect transform="matrix(.9484 -.317 .317 .9484 -163.44 124.13)" height="2" width=".4" y="563.4" x="299.6"/>
			</g>
			<g clip-rule="evenodd" fill-rule="evenodd">
					<radialGradient id="SVGID_38_" gradientUnits="userSpaceOnUse" cy="597.55" cx="591.4" gradientTransform="matrix(.8573 .5149 -.5149 .8573 101.15 -231.4)" r="2">
					<stop stop-color="#fff" offset="0"/>
					<stop offset="1"/>
				</radialGradient>
				<path fill="url(#SVGID_38_)" d="m300.8 586.9c-0.4 0.1-0.8 0-1.2-0.2s-0.6-0.5-0.7-1 0-0.8 0.2-1.2c0.2-0.4 0.5-0.6 1-0.7 0.4-0.1 0.8 0 1.2 0.2s0.6 0.5 0.7 1 0 0.8-0.2 1.2c-0.3 0.3-0.6 0.6-1 0.7z"/>
					<rect transform="matrix(.8574 .5147 -.5147 .8574 344.11 -71.167)" height="2" width=".4" y="584.3" x="300.3"/>
			</g>
			<path fill-opacity=".086275" clip-rule="evenodd" d="m155.4 288v4.2c-0.9 0.2-2 0.4-3.3 0.6-8.4 1.8-12.6 5.3-12.8 10.5 0.4 12.2-10.6 24-33 35.4h-0.1c-9.6 3.9-15.5 7.9-17.7 12-1.8 3.6-0.4 7.4 4.2 11.4h0.1c5.3 5 6.4 10.9 3.1 17.7-2.9 6.2-9.6 13.2-20.1 21h-0.1c-12.7 8.3-20.5 20.4-23.1 36.2v0.2c-19.2 78.1-31.1 134.5-35.9 169.3 0 0-0.1 0.1-0.1 0.2-5.8 20.2-1.6 34.9 12.5 44.2 14.5 9.3 39.4 13.3 74.8 11.9h0.1c32.3 1.1 55.2 0 68.8-3.2 12.1-2.9 17.9-7.9 17.2-15.1v-0.3c0.6-13.2 2.8-22.3 6.4-27.2 4-5.7 9.6-6.6 16.8-2.7 0.5 0.2 0.8 0.6 1 1.2 0.2 0.5 0.1 1-0.1 1.5-0.3 0.5-0.7 0.8-1.1 1-0.6 0.1-1.1 0.1-1.6-0.2-5.1-2.7-9-2.2-11.8 1.5-3.2 4.5-5 12.9-5.6 25 1.3 9.3-5.4 15.7-20.2 19.2-13.7 3.3-37 4.4-69.7 3.4h-0.1c-36.4 1.4-62.1-2.8-77-12.6-15.7-10.1-20.4-26.3-14.1-48.5 4.8-34.8 16.8-91.3 36-169.5 2.9-16.9 11.2-29.9 25-38.8h-0.1c9.8-7.2 16.1-13.7 18.9-19.3 2.4-5 1.6-9.4-2.3-13.1h-0.1c-6.4-5.5-8.1-10.9-5.1-16.1 2.4-4.8 9-9.4 19.8-13.8 20.4-10.4 30.6-21 30.7-31.8 1.8-7.4 7.1-12.2 16-14.4 1.3-0.4 2.6-0.7 3.7-1z" fill-rule="evenodd"/>
			<path clip-rule="evenodd" d="m157.6 240.1c0.5 0.5 0.7 1.1 0.6 1.8 0 0.7-0.3 1.3-0.8 1.7-0.5 0.5-1.1 0.7-1.8 0.6-7.8-0.3-13.5 2.1-17 7.3-3.6 5.6-4.8 14.1-3.8 25.5 2.3 25.4-7.2 43.6-28.6 54.7-6.6 3.3-10.9 6.7-13.1 10.3-1.7 3.2-1.5 6.5 0.5 10 10.1 11.8 4.7 25.8-16.3 42.2-10.8 9.5-17.3 21.4-19.4 35.7v0.2c-20.1 79.7-32.4 137.1-36.9 172.3-2.8 20.2 2.4 34.8 15.6 44 13.7 9.3 35.8 13 66 11.1h0.1c50-0.5 76-6.4 78-17.8 2-13.3 5.1-22.4 9.3-27.3 4.7-5.8 10.6-6.7 17.8-2.6 0.6 0.3 0.9 0.8 1.1 1.4s0.1 1.3-0.3 1.9c-0.3 0.6-0.8 1-1.5 1.1-0.7 0.2-1.3 0.1-1.9-0.2-4.6-2.6-8.4-2.1-11.5 1.5-3.6 4.5-6.4 12.8-8.2 24.8-1.6 14.1-29.1 21.5-82.7 22-31.7 2-54.8-2-69.2-11.9-14.9-10.1-20.8-26.4-17.6-48.8 4.9-35.1 17.2-92.6 37.3-172.6 2.3-15.4 9.3-28.2 21-38.5h0.2c17.9-14 23-25.8 15.5-35.4-0.1-0.1-0.2-0.2-0.2-0.3-3.2-5.3-3.5-10.3-0.8-15.1 2.3-4.4 7.4-8.5 15.1-12.4 19.5-10.1 28.1-26.7 25.9-49.8-1.2-12.9 0.4-22.5 4.6-28.7 4.2-6.7 11.3-9.8 21.3-9.4 0.7 0 1.2 0.2 1.7 0.7z" fill-rule="evenodd"/>
			<g clip-rule="evenodd" fill-rule="evenodd">
					<radialGradient id="SVGID_39_" gradientUnits="userSpaceOnUse" cy="263.84" cx="139.85" gradientTransform="matrix(1 0 0 1.0028 0 -.7403)" r="22.283">
					<stop stop-color="#fff" offset="0"/>
					<stop stop-color="#fff" stop-opacity=".0078431" offset="1"/>
				</radialGradient>
				<path fill="url(#SVGID_39_)" d="m147 242.8c-0.1 0.1-0.2 0.2-0.2 0.3-12.1 2.3-16.6 16.3-13.4 42 0 0.1 0 0.2-0.1 0.3-0.1 0-0.2 0.1-0.3 0.2-0.1 0-0.2-0.1-0.3-0.2-0.1 0-0.1-0.1-0.1-0.3-3.3-26.2 1.4-40.5 14-42.8h0.3l0.3 0.3c-0.1 0-0.1 0.1-0.2 0.2z"/>
					<radialGradient id="SVGID_40_" gradientUnits="userSpaceOnUse" cy="341" cx="98" gradientTransform="matrix(1 0 0 1.0019 0 -.6326)" r="13.475">
					<stop stop-color="#fff" offset="0"/>
					<stop stop-color="#fff" stop-opacity=".0078431" offset="1"/>
				</radialGradient>
				<path fill="url(#SVGID_40_)" d="m105.8 329.9c0 0.1-0.1 0.1-0.1 0.2-12.9 6.3-17.8 13.6-14.8 22.1 0.1 0 0.1 0.1 0 0.3 0 0.1-0.1 0.1-0.1 0.1h-0.3c-0.1 0-0.2-0.1-0.2-0.1-3.3-8.8 1.7-16.5 15.1-23 0.1-0.1 0.2-0.1 0.3 0 0 0 0.1 0.1 0.1 0.2v0.2z"/>
					<radialGradient id="SVGID_41_" gradientUnits="userSpaceOnUse" cy="400.9" cx="72.5" gradientTransform="matrix(1 0 0 1.0024 0 -.9684)" r="20.7">
					<stop stop-color="#fff" offset="0"/>
					<stop stop-color="#fff" stop-opacity=".0078431" offset="1"/>
				</radialGradient>
				<path fill="url(#SVGID_41_)" d="m84.9 386.4h0.3c0.1 0 0.1 0 0.3 0.1v0.3c0 0.1-0.1 0.1-0.3 0.2-13.6 8.6-22.1 18.6-25.5 30.1 0 0.1-0.1 0.2-0.1 0.2-0.1 0.1-0.2 0.1-0.3 0-0.1 0-0.2 0-0.2-0.1-0.1-0.1-0.1-0.2 0-0.3 3.4-11.6 12-21.8 25.8-30.5z"/>
					<radialGradient id="SVGID_42_" gradientUnits="userSpaceOnUse" cy="513.77" cx="36.85" gradientTransform="matrix(1 0 0 1.0025 0 -1.2906)" r="74.62">
					<stop stop-color="#fff" offset="0"/>
					<stop stop-color="#fff" stop-opacity=".0078431" offset="1"/>
				</radialGradient>
				<path fill="url(#SVGID_42_)" d="m53.6 440.5c0 0.1 0.1 0.2 0.1 0.3-12.4 48.4-23.4 97-33 146 0 0.1-0.1 0.1-0.2 0.2s-0.2 0.1-0.3 0.1-0.2-0.1-0.3-0.2v-0.3c9.6-49 20.5-97.7 33-146 0-0.1 0-0.2 0.1-0.2 0.1-0.1 0.2-0.1 0.3 0 0.2 0 0.3 0.1 0.3 0.1z"/>
					<radialGradient id="SVGID_43_" gradientUnits="userSpaceOnUse" cy="651.85" cx="137.7" gradientTransform="matrix(1 0 0 1.0021 0 -1.3823)" r="41.262">
					<stop stop-color="#fff" offset="0"/>
					<stop stop-color="#fff" stop-opacity=".0078431" offset="1"/>
				</radialGradient>
				<path fill="url(#SVGID_43_)" d="m96.9 659c0.1-0.1 0.1-0.1 0.3 0 48.9 1.3 77-3.8 84.4-15.5 0-0.1 0.1-0.2 0.3-0.2h0.2c0.1 0 0.2 0.1 0.3 0.3v0.3c-7.3 12-35.7 17.3-85 15.9-0.1 0-0.2-0.1-0.3-0.1-0.1-0.1-0.1-0.2-0.1-0.3-0.2-0.2-0.2-0.3-0.1-0.4z"/>
					<radialGradient id="SVGID_44_" gradientUnits="userSpaceOnUse" cy="640.5" cx="48.142" gradientTransform="matrix(1 0 0 1.0022 0 -1.4238)" r="33.744">
					<stop stop-color="#fff" offset="0"/>
					<stop stop-color="#fff" stop-opacity=".0078431" offset="1"/>
				</radialGradient>
				<path fill="url(#SVGID_44_)" d="m19.7 622.5c0 0.1 0.1 0.2 0.1 0.3 3.1 23 22.1 35.3 57.1 37 0.1 0 0.1 0 0.3 0.1 0.1 0.1 0.1 0.2 0.1 0.3s-0.1 0.2-0.2 0.3-0.1 0.1-0.3 0.1c-35.5-1.7-54.7-14.2-57.7-37.6v-0.3c0-0.1 0.1-0.1 0.3-0.1 0.1-0.2 0.2-0.2 0.3-0.1z"/>
					<radialGradient id="SVGID_45_" gradientUnits="userSpaceOnUse" cy="618.05" cx="191" gradientTransform="matrix(1 0 0 1.0024 0 -1.4822)" r="15.638">
					<stop stop-color="#fff" offset="0"/>
					<stop stop-color="#fff" stop-opacity=".0078431" offset="1"/>
				</radialGradient>
				<path fill="url(#SVGID_45_)" d="m204.4 611v0.3c0 0.1-0.1 0.2-0.1 0.3h-0.3c-4.8-1.3-8.8 0-12 3.9-3.3 4-5.8 10.7-7.4 20 0 0.1-0.1 0.1-0.1 0.2-0.1 0.1-0.2 0.1-0.3 0.1s-0.2-0.1-0.3-0.2-0.1-0.2-0.1-0.3c1.7-9.6 4.2-16.4 7.6-20.4 3.4-4.1 7.7-5.5 12.8-4.1 0.1 0.1 0.1 0.2 0.2 0.2z"/>
			</g>
			<path fill-opacity=".086275" clip-rule="evenodd" d="m541.2 292.2c-0.4-0.4-0.7-0.8-0.7-1.3 0-0.6 0.1-1 0.5-1.4s0.8-0.6 1.4-0.7c24.9-1.9 40 17.8 45.4 59.1 5.1 4.1 6.5 9.8 4.3 16.9-2 6.7-7.6 15-16.6 24.7l-29.2 32.3c-8.4 9.7-12.9 18.4-13.5 26.2-0.6 7.5 2.5 14.2 9.3 20 15.1 13.5 18.8 25.2 10.9 35.3-7.1 9.5-25 17.3-53.8 23.4-85.2 22.6-123.2 50-114 82.1 5.2 17.4 3.8 30.8-4 40-7.6 9.3-21.6 14.5-41.9 15.5-40.4 2.1-62.7-1-66.8-9.3-4.3-8-6.4-13.3-6.1-15.9 0-0.6 0.2-1 0.6-1.4s0.9-0.6 1.5-0.5c0.5 0 1 0.3 1.4 0.6 0.4 0.4 0.5 0.9 0.5 1.4 0 2.3 1.9 7 5.8 14 3.9 6.8 25 9.2 63.1 7.3 18.9-1 31.9-5.7 39-14 6.9-8.4 8-20.6 3.3-36.4-10.5-34.5 28.4-63.5 116.7-87h0.1c27.5-5.8 44.7-13.1 51.5-22 6.1-8.4 2.6-18.3-10.4-29.8v-0.1c-7.9-6.8-11.5-14.5-10.7-23.3 0.6-8.5 5.5-18 14.5-28.4l0.1-0.1 29.1-32.2c8.5-9.1 13.8-16.9 15.7-23.3 1.7-5.6 0.5-10-3.5-13.1-0.4-0.3-0.7-0.8-0.8-1.4-4.9-38.9-18.7-57.7-41.4-56.4-0.5-0.2-1-0.4-1.3-0.8z" fill-rule="evenodd"/>
			<path fill="#930000" clip-rule="evenodd" d="m569.8 243c8.2 7.1 10.6 19.6 7.1 37.6-6.3 32.7-3.9 53.3 7.3 61.8v0.1c5.6 4.2 7.3 10.2 5 17.8-2 6.9-7.5 15.3-16.6 25.1l-29.1 32.6c-8.3 9.8-12.9 18.6-13.5 26.5-0.6 7.6 2.5 14.3 9.3 20.1 15.2 13.7 18.9 25.7 11 35.9-7.1 9.7-25.1 17.6-53.9 23.8-85 22.9-123.4 48.7-115.2 77.3 5.6 18.8 5.4 33.4-0.5 43.6-5.8 10.5-17.5 16.5-34.9 18.1-34.8 3.3-53.5-4.9-55.9-24.7-1.2-8.6-3.5-14.5-7-17.9-3.3-3-7.6-3.6-13-1.8-0.6 0.2-1.1 0.1-1.6-0.2s-0.9-0.7-1.1-1.2c-0.2-0.6-0.2-1.1 0.1-1.6s0.7-0.9 1.3-1c7.2-2.3 13-1.4 17.3 2.8 4.1 3.8 6.8 10.6 8.2 20.3 2.6 17.1 19.6 24.1 51.3 21 15.7-1.5 26.3-6.8 31.6-16 5.3-9.4 5.3-22.8 0.2-40.3-9.6-31.3 29.8-58.9 118.2-82.7h0.1c27.4-5.9 44.5-13.3 51.5-22.2 6-8.4 2.6-18.5-10.3-30.2h-0.1c-7.9-6.9-11.5-14.8-10.7-23.7 0.7-8.7 5.5-18.3 14.5-28.9l29.2-32.7c8.5-9.2 13.7-17.1 15.7-23.5 1.7-5.6 0.5-10.1-3.5-13.3-12.7-8.9-15.7-30.9-9-66 3.1-16 1.1-27.3-5.8-33.6-7.3-6.3-19.7-7.8-37.3-4.5-0.6 0.1-1.1 0-1.6-0.4-0.5-0.3-0.8-0.8-0.8-1.3-0.1-0.6 0-1.1 0.3-1.6 0.4-0.5 0.8-0.8 1.3-0.9 19.3-3.3 32.9-1.5 40.9 5.8z" fill-rule="evenodd"/>
			<g clip-rule="evenodd" fill-rule="evenodd">
				<radialGradient id="SVGID_46_" gradientUnits="userSpaceOnUse" cy="250.25" cx="565.05" r="27.188">
					<stop stop-color="#fff" offset="0"/>
					<stop stop-color="#fff" stop-opacity="0" offset="1"/>
				</radialGradient>
				<path fill="url(#SVGID_46_)" d="m576 280c-0.1 0.1-0.2 0.1-0.3 0.1s-0.2-0.1-0.3-0.2-0.1-0.1 0-0.3c2.4-14.4 0.8-25.1-4.8-32.1s-15.1-10.4-28.6-10.1c-0.1 0-0.2 0-0.3-0.1v-0.3-0.3c0.1-0.1 0.2-0.1 0.3-0.1 13.8-0.4 23.5 3.1 29.1 10.3 5.7 7.2 7.3 18.1 5 32.8 0 0.1 0 0.2-0.1 0.3z"/>
				<radialGradient id="SVGID_47_" gradientUnits="userSpaceOnUse" cy="325.6" cx="576.5" r="21.325">
					<stop stop-color="#fff" offset="0"/>
					<stop stop-color="#fff" stop-opacity="0" offset="1"/>
				</radialGradient>
				<path fill="url(#SVGID_47_)" d="m572 304.4c0.1 0 0.2 0.1 0.2 0.2 0.1 0 0.1 0.1 0.1 0.3-3 16.6 0.5 29.9 10.7 39.9 0.1 0.1 0.2 0.1 0.2 0.3 0 0.1-0.1 0.2-0.2 0.3h-0.3s-0.2 0-0.3 0c-10.3-10.2-13.9-23.7-10.8-40.5 0-0.1 0-0.2 0.1-0.3 0.1-0.2 0.3-0.2 0.3-0.2z"/>
				<radialGradient id="SVGID_48_" gradientUnits="userSpaceOnUse" cy="406.8" cx="554" r="39.188">
					<stop stop-color="#fff" offset="0"/>
					<stop stop-color="#fff" stop-opacity="0" offset="1"/>
				</radialGradient>
				<path fill="url(#SVGID_48_)" d="m579.5 376.7c0 0.1 0 0.2-0.1 0.3-29.8 29.6-46.3 48.7-49.3 57.2l-0.2 0.2h-0.3c-0.2-0.1-0.3-0.1-0.3-0.2v-0.3c3-8.5 19.5-27.7 49.4-57.5 0.1-0.1 0.2-0.1 0.3-0.1s0.2 0 0.3 0.1c0.2 0.1 0.2 0.2 0.2 0.3z"/>
				<radialGradient id="SVGID_49_" gradientUnits="userSpaceOnUse" cy="648.95" cx="337.1" r="39.675">
					<stop stop-color="#fff" offset="0"/>
					<stop stop-color="#fff" stop-opacity="0" offset="1"/>
				</radialGradient>
				<path fill="url(#SVGID_49_)" d="m299 654.3c0-0.1 0.1-0.2 0.3-0.2h0.3c24.5 11.1 48.4 10.6 71.8-1.6 0.1-0.1 0.2-0.1 0.3-0.1 0.1 0.1 0.2 0.1 0.3 0.3v0.3c0 0.1-0.1 0.1-0.1 0.3-23.6 12.3-47.7 12.8-72.4 1.6-0.1 0-0.2-0.1-0.2-0.2-0.3-0.2-0.3-0.4-0.3-0.4z"/>
				<radialGradient id="SVGID_50_" gradientUnits="userSpaceOnUse" cy="495.5" cx="539.5" r="19.325">
					<stop stop-color="#fff" offset="0"/>
					<stop stop-color="#fff" stop-opacity="0" offset="1"/>
				</radialGradient>
				<path fill="url(#SVGID_50_)" d="m549.8 479.3c0-0.1 0.1-0.1 0.2-0.2h0.3l0.2 0.2c3 7.2 2.6 13.5-1 19-3.6 5.4-10.4 10-20.5 13.8-0.1 0.1-0.2 0.1-0.3 0-0.1 0-0.2-0.1-0.2-0.2v-0.3c0-0.1 0.1-0.2 0.3-0.3 9.9-3.7 16.6-8.1 20.2-13.5 3.5-5.3 3.8-11.4 0.9-18.3-0.1 0-0.1-0.2-0.1-0.2z"/>
				<radialGradient id="SVGID_51_" gradientUnits="userSpaceOnUse" cy="548.9" cx="443.05" r="66.188">
					<stop stop-color="#fff" offset="0"/>
					<stop stop-color="#fff" stop-opacity="0" offset="1"/>
				</radialGradient>
				<path fill="url(#SVGID_51_)" d="m508.9 519.2c0.1 0 0.1 0.1 0.1 0.3v0.3c0 0.1-0.1 0.1-0.3 0.1-62.9 14.1-104.8 32.9-125.8 56.4-0.1 0-0.2 0.1-0.3 0.1s-0.2 0-0.3-0.1c-0.1 0-0.2-0.1-0.2-0.3 0-0.1 0-0.2 0.2-0.3 21-23.6 63.1-42.5 126.3-56.6 0.1 0 0.2 0 0.3 0.1z"/>
			</g>
			<path fill="#687691" clip-rule="evenodd" d="m641.3 541.5l0.3 0.6c0.1 0.2 0.1 0.3 0.2 0.5s0.1 0.5 0.1 0.7v82.3 1.1c-0.1 0-0.1 0.1-0.1 0.1-0.6 2.8-2.5 4.2-5.9 4.2h-169.3c-3.6 0-5.6-1.6-5.9-4.9v-1.1-80.4-0.6-0.1c0-0.3 0-0.6 0.1-0.9 0-0.2 0-0.3 0.1-0.5 0-0.2 0.1-0.3 0.1-0.4 0-0.2 0.1-0.3 0.2-0.5 0.1-0.3 0.2-0.5 0.4-0.8 0.3-0.5 0.6-0.9 1-1.2 1-0.7 2.3-1.1 4-1.1h169.3 0.8 0.9c1.7 0.6 3 1.5 3.7 3z" fill-rule="evenodd"/>
				<path fill="#CECECC" clip-rule="evenodd" d="m622.2 496.5c2.8 0.1 4.4 1.2 4.8 3.2l14.3 41.8c-0.7-1.5-2-2.5-3.8-2.8h-0.9-0.8-169.3c-1.7 0-3.1 0.4-4 1.1-0.4 0.3-0.7 0.7-1 1.2-0.2 0.2-0.3 0.5-0.4 0.8-0.1 0.1-0.2 0.3-0.2 0.5l-0.1 0.3c-0.1 0.1-0.1 0.3-0.1 0.5-0.1 0.2-0.1 0.5-0.1 0.8v0.2 0.6 80.3l-2-49.3-0.8-75.2c0.9-2.7 2.8-4 5.6-4h158.8z" fill-rule="evenodd"/>
				<g clip-rule="evenodd" fill-rule="evenodd">
					<linearGradient id="SVGID_52_" y2="514.03" gradientUnits="userSpaceOnUse" x2="638" y1="520.16" x1="619.3">
						<stop stop-color="#CECECC" offset="0"/>
						<stop stop-color="#CECECC" offset=".4627"/>
						<stop stop-color="#5B5B59" offset="1"/>
					</linearGradient>
					<path fill="url(#SVGID_52_)" d="m618.9 538.7l-14.9-42.2h18.2c2.8 0.1 4.4 1.2 4.8 3.2l14.3 41.8c-0.7-1.5-2-2.5-3.8-2.8h-0.9-0.8-16.9z"/>
					<linearGradient id="SVGID_53_" y2="520.64" gradientUnits="userSpaceOnUse" x2="481.95" y1="522.61" x1="443.48">
						<stop stop-color="#AAAAA6" offset="0"/>
						<stop stop-color="#AAAAA6" offset=".4235"/>
						<stop stop-color="#fff" offset=".4745"/>
						<stop stop-color="#CECECC" offset=".6"/>
						<stop stop-color="#CECECC" offset="1"/>
					</linearGradient>
					<path fill="url(#SVGID_53_)" d="m460.7 543.9v-1.7l-2.8-41.6c0.9-2.7 2.8-4 5.6-4h140.5l14.9 42.1h-152.4c-1.7 0-3.1 0.4-4 1.1-0.4 0.3-0.7 0.7-1 1.2-0.2 0.2-0.3 0.5-0.4 0.8-0.1 0.1-0.2 0.3-0.2 0.5l-0.1 0.3c-0.1 0.1-0.1 0.3-0.1 0.5v0.8z"/>
					<path fill="#AAAAA6" d="m457.9 500.6l2.8 41.6v1.8 0.6 80.4l-2-49.3-0.8-75.1z"/>
				</g>
			<linearGradient id="SVGID_54_" y2="628.06" gradientUnits="userSpaceOnUse" x2="551.43" y1="544.66" x1="551.43">
				<stop stop-color="#464853" offset="0"/>
				<stop stop-color="#606273" offset=".031373"/>
				<stop stop-color="#73758A" offset=".6745"/>
				<stop stop-color="#616374" offset=".9569"/>
				<stop stop-color="#3A3D45" offset=".9882"/>
			</linearGradient>
			<path fill="url(#SVGID_54_)" clip-rule="evenodd" d="m630.5 543.2c4.4 0 6.7 2.2 6.7 6.6v70.2c0 4.4-2.2 6.6-6.7 6.6h-158.2c-4.4 0-6.6-2.2-6.6-6.6v-70.2c0-4.4 2.2-6.6 6.6-6.6h158.2z" fill-rule="evenodd"/>
			<g clip-rule="evenodd" fill-rule="evenodd">
				<linearGradient id="SVGID_55_" y2="584.85" gradientUnits="userSpaceOnUse" x2="616.97" y1="584.85" x1="637.42">
					<stop stop-color="#464853" offset="0"/>
					<stop stop-color="#66687A" stop-opacity=".2745" offset=".2588"/>
					<stop stop-color="#73758A" stop-opacity="0" offset=".6745"/>
				</linearGradient>
				<path fill="url(#SVGID_55_)" d="m620.3 543.2h10.3c4.4 0 6.7 2.2 6.7 6.6v70.2c0 4.4-2.2 6.6-6.7 6.6h-10.3v-83.4z"/>
				<linearGradient id="SVGID_56_" y2="584.85" gradientUnits="userSpaceOnUse" x2="481.65" y1="584.85" x1="465.85">
					<stop stop-color="#464853" offset="0"/>
					<stop stop-color="#66687A" stop-opacity=".2745" offset=".2588"/>
					<stop stop-color="#73758A" stop-opacity="0" offset=".6745"/>
				</linearGradient>
				<path fill="url(#SVGID_56_)" d="m472.3 543.2h12.9v83.4h-12.9c-4.4 0-6.6-2.2-6.6-6.6v-70.2c0-4.5 2.2-6.6 6.6-6.6z"/>
			</g>
				<polygon points="590.2 588.3 477.7 588.3 475.4 586.2 477.7 548.7 586.3 548.6 590.2 551" fill-opacity=".4118" clip-rule="evenodd" fill-rule="evenodd"/>
				<g clip-rule="evenodd" fill-rule="evenodd">
					<polygon points="484.3 554.3 479.5 552.2 583.8 552.2 579.5 554.3 578.3 554.3 485.3 554.3" fill="#1E212A"/>
					<polygon points="579.5 581.8 578.3 581.8 578.3 581.3 578.3 554.8 485.3 554.8 484.3 554.5 484.3 554.3 485.3 554.3 578.3 554.3 579.5 554.3 579.5 554.8 579.5 555.3 579.5 558.2 579.5 558.3 579.5 563.8 579.5 566.1 579.5 567.8 579.5 581.3" fill="#3F4335"/>
					<linearGradient id="SVGID_57_" y2="568.22" gradientUnits="userSpaceOnUse" x2="583.79" y1="568.22" x1="579.41">
						<stop stop-color="#7B838E" offset="0"/>
						<stop stop-color="#535860" offset="1"/>
						<stop stop-color="#1A1A1A" offset="1"/>
						<stop stop-color="#7B838C" offset="1"/>
					</linearGradient>
					<polygon points="583.8 552.2 583.8 584.3 579.5 581.8 579.5 581.3 579.5 567.8 579.5 566.1 579.5 563.8 579.5 558.3 579.5 558.2 579.5 555.3 579.5 554.8 579.5 554.3" fill="url(#SVGID_57_)"/>
					<polygon points="479.5 584.2 484.3 581.8 485.3 581.8 578.3 581.8 579.5 581.8 583.8 584.3 479.5 584.3" fill="#2B303C"/>
					<path fill="#5B656E" d="m479.5 552.2l-0.1 32v0.1h104.4v-32h-104.3zm106.8 32.1h-0.3 0.3zm-110.9 1.9v-35.9h112.2v35.9h-112.2z"/>
					<linearGradient id="SVGID_58_" y2="584.3" gradientUnits="userSpaceOnUse" x2="591.04" y1="584.3" x1="578.46">
						<stop stop-color="#7B838E" offset="0"/>
						<stop stop-color="#535860" offset="1"/>
						<stop stop-color="#1A1A1A" offset="1"/>
						<stop stop-color="#7B838C" offset="1"/>
					</linearGradient>
					<polygon points="586.3 584.3 586.3 584.3 586 584.3" fill="url(#SVGID_58_)"/>
					<polygon points="485.3 554.8 485.3 581.3 578.3 581.3 578.3 581.8 485.3 581.8 484.3 581.8 484.3 581.3 484.3 567.8 484.3 566.1 484.3 563.8 484.3 558.3 484.3 558.2 484.3 555.3 484.3 554.5" fill="#323627"/>
					<polygon points="587.6 550.3 475.5 550.3 474.9 548.8 474.8 548.6 474.9 548.6 586.3 548.6" fill="#7E8892"/>
					<rect height="26.5" width="93" y="554.8" x="485.3" fill="#8A956E"/>
					<linearGradient id="SVGID_59_" y2="568.18" gradientUnits="userSpaceOnUse" x2="485.29" y1="568.18" x1="475.41">
						<stop stop-color="#363D41" offset="0"/>
						<stop stop-color="#59646A" offset="1"/>
						<stop stop-color="#393939" offset="1"/>
						<stop stop-color="#1A1A1A" offset="1"/>
					</linearGradient>
					<polygon points="484.3 581.8 479.5 584.2 479.5 552.2 479.5 552.2 484.3 554.3 484.3 554.5 484.3 555.3 484.3 558.2 484.3 558.3 484.3 563.8 484.3 566.1 484.3 567.8 484.3 581.3" fill="url(#SVGID_59_)"/>
					<polygon points="475.5 550.3 475.4 550.3 475.4 586.2 474.9 583.3 474.9 548.8" fill="#545C65"/>
				</g>
						<radialGradient id="SVGID_60_" gradientUnits="userSpaceOnUse" cy="609.95" cx="556.3" gradientTransform="matrix(1 0 0 .9265 0 44.826)" r="23.812">
						<stop offset="0"/>
						<stop offset=".3765"/>
						<stop stop-opacity=".6392" offset=".5686"/>
						<stop stop-opacity="0" offset=".7961"/>
						<stop stop-opacity="0" offset="1"/>
					</radialGradient>
					<path fill="url(#SVGID_60_)" clip-rule="evenodd" d="m568.1 612.5c0.5-0.3 0.9-0.5 1.2-0.8h1.9v18.2c-0.1 0.2-0.1 0.5-0.2 0.7h-29v-0.7-18.2h1.9c0.5 0.5 1 0.9 1.7 1.3v-0.1c0.4-0.3 0.9-0.4 1.5-0.4s1.2 0.1 1.7 0.4c0.2 0.1 0.4 0.2 0.5 0.3 0.2 0.2 0.4 0.4 0.5 0.6 0 0.3 0 0.5-0.2 0.8-0.1 0-0.2 0.1-0.3 0.2 1.5 0.5 3.1 0.8 4.9 0.9 0.1-0.3 0.3-0.5 0.7-0.8 0.3-0.1 0.7-0.2 1.1-0.3h0.5c0.6 0 1.2 0.1 1.7 0.3 0.4 0.2 0.6 0.5 0.7 0.8 1.6-0.2 3.1-0.4 4.5-0.8 0.3-0.1 0.6-0.2 1-0.3l-0.2-0.2c-0.4-0.2-0.5-0.5-0.3-0.8 0.1-0.2 0.2-0.5 0.5-0.7 0.1-0.1 0.3-0.1 0.4-0.2 0.5-0.2 1.1-0.3 1.8-0.3 0.6-0.2 1.1-0.1 1.5 0.1z" fill-rule="evenodd"/>
						<g clip-rule="evenodd" fill-rule="evenodd">
							<path fill="#0B0B0B" d="m549 596.2l2.4 2.7-2.4 2.5h-4v-4.5c0.5 0.5 1.2 0.8 1.9 0.8 0.4 0 0.7-0.1 1-0.2 0.5-0.3 0.9-0.7 1.1-1.3zm-5.4 12h1.3v6.2h-1.8l-1.7-2.3v-2.2-0.4c0.3 0 0.5 0 0.8-0.2l0.9-0.6c0.3-0.2 0.4-0.4 0.5-0.5zm20.5-11.7c0.4 0.5 0.6 0.7 0.6 0.8l0.3 0.3c0.5 0.5 1.2 0.8 1.9 0.8 0.6 0 1.2-0.2 1.7-0.6v3.6h-4.8v-4.2l-0.1-0.8c0.1-0.1 0.3 0 0.4 0.1zm4.8 11.2c0 0.8 0.3 1.4 0.8 1.9 0.2 0.2 0.3 0.3 0.5 0.4 0.3 0.2 0.6 0.3 0.9 0.4v2.7l-5.3-0.1v-5.3h3.1zm-14.9-15.9c0.1 0.6 0.3 1.2 0.8 1.7s1.2 0.8 1.9 0.8 1.3-0.3 1.8-0.8c0.4-0.4 0.7-1 0.8-1.6v5.3h-5.3v-5.4z"/>
							<path fill="#2C2C2C" d="m554 591.8v5.3h5.3v-5.3c1.9 0.3 3.7 1.1 5.3 2.2v2.7l-0.5-0.2c-0.1-0.1-0.3-0.1-0.5-0.1l0.1 0.8v4.2h4.8v-3.6c1 1.4 1.8 2.8 2.3 4.4 0.2 0.9 0.4 1.8 0.6 2.8v0.2 2.6h-5.6v5.3l5.3 0.1-1.3 1.3h-24.9v-6.2h-1.3c0.2-0.4 0.4-0.9 0.4-1.4v-0.1h-2.5v-2.5-0.3c0.1-0.9 0.4-1.8 0.7-2.7 0.6-1.6 1.5-3.1 2.7-4.4v4.5h4l2.4-2.5-2.4-2.7v-0.1-2.5c1.6-1 3.3-1.6 5.1-1.8zm-12.5 18v-0.4 0.4z"/>
						</g>
						<g clip-rule="evenodd" fill-rule="evenodd">
							<linearGradient id="SVGID_61_" y2="611.3" gradientUnits="userSpaceOnUse" x2="562.28" y1="609.07" x1="562.88">
								<stop stop-color="#745E56" offset="0"/>
								<stop stop-color="#756255" offset="1"/>
							</linearGradient>
							<path fill="url(#SVGID_61_)" d="m568 613.2l-11.5-4 12-2.4v0.1c0.1 0.3 0.1 0.6 0.2 0.8 0.1 0.5 0.1 1 0.1 1.6 0 1.4-0.3 2.7-0.8 3.9z"/>
							<linearGradient id="SVGID_62_" y2="608.7" gradientUnits="userSpaceOnUse" x2="563.02" y1="604.02" x1="560.32">
								<stop stop-color="#68554F" offset="0"/>
								<stop stop-color="#68554F" offset=".4588"/>
								<stop stop-color="#755A51" offset=".5882"/>
								<stop stop-color="#755A51" offset="1"/>
							</linearGradient>
							<path fill="url(#SVGID_62_)" d="m568.5 606.8l-12 2.4-0.1 0.1h-0.1l3.7-10.8c1 0.3 1.9 0.7 2.8 1.3 0.1 0.1 0.3 0.1 0.4 0.2 0.7 0.4 1.3 0.8 1.9 1.3 0.2 0.2 0.4 0.5 0.6 0.7 0.5 0.5 0.9 1 1.3 1.5 0.7 1.1 1.2 2.1 1.5 3.3z"/>
							<linearGradient id="SVGID_63_" y2="603.96" gradientUnits="userSpaceOnUse" x2="558.33" y1="603.18" x1="555.38">
								<stop stop-color="#EEEAE9" offset="0"/>
								<stop stop-color="#68554F" offset="1"/>
							</linearGradient>
							<path fill="url(#SVGID_63_)" d="m556.3 609.3v-0.1l-3.6-10.5c0.2-0.1 0.5-0.2 0.7-0.3 0.8-0.2 1.6-0.3 2.5-0.3h0.1 0.4c0.9 0 1.7 0 2.4 0.1 0.4 0.1 0.9 0.2 1.3 0.3l-3.8 10.8z"/>
							<linearGradient id="SVGID_64_" y2="604.66" gradientUnits="userSpaceOnUse" x2="552.11" y1="607.06" x1="550.72">
								<stop stop-color="#746556" offset="0"/>
								<stop stop-color="#A99A99" offset="1"/>
							</linearGradient>
							<path fill="url(#SVGID_64_)" d="m556.3 609.3l-11.4-4.1c0.4-0.8 0.9-1.7 1.6-2.5 0.3-0.5 0.8-0.9 1.3-1.4 0.1-0.1 0.3-0.2 0.5-0.3l8 8.3z"/>
							<linearGradient id="SVGID_65_" y2="604.73" gradientUnits="userSpaceOnUse" x2="552.77" y1="603.53" x1="554.84">
								<stop stop-color="#C7BCBC" offset="0"/>
								<stop stop-color="#A99A99" offset="1"/>
							</linearGradient>
							<path fill="url(#SVGID_65_)" d="m556.3 609.3l-8.1-8.3 1.5-1.2c0.9-0.5 1.9-0.9 2.9-1.1l3.6 10.5v0.1z"/>
							<path fill="#B1A3A3" d="m556.3 609.3l8.1 8.6c-0.1 0.1-0.2 0.2-0.3 0.2-0.2 0.1-0.4 0.3-0.5 0.5-0.1 0.1-0.3 0.2-0.4 0.3-1 0.6-2 1-3.2 1.4l-3.7-11z"/>
							<linearGradient id="SVGID_66_" y2="615.21" gradientUnits="userSpaceOnUse" x2="557.53" y1="614.65" x1="553.76">
								<stop stop-color="#ADA29D" offset="0"/>
								<stop stop-color="#E4DFDD" offset="1"/>
							</linearGradient>
							<path fill="url(#SVGID_66_)" d="m556.3 609.3l0.2 11.3h-0.1c-0.8 0-1.5-0.1-2.2-0.2l-1.5-0.3 3.6-10.8z"/>
							<linearGradient id="SVGID_67_" y2="611.98" gradientUnits="userSpaceOnUse" x2="550.91" y1="616.65" x1="554.49">
								<stop stop-color="#B2A7A4" offset="0"/>
								<stop stop-color="#6D5A53" offset="1"/>
							</linearGradient>
							<path fill="url(#SVGID_67_)" d="m545.8 615l10.6-5.7-3.6 10.9c-1.3-0.4-2.6-1-3.8-1.9-0.1-0.1-0.3-0.3-0.4-0.3h-0.1s-0.1 0-0.1-0.1c-0.2-0.2-0.4-0.3-0.6-0.5-0.6-0.6-1.2-1.2-1.7-1.8-0.1-0.3-0.3-0.4-0.3-0.6z"/>
							<linearGradient id="SVGID_68_" y2="614.72" gradientUnits="userSpaceOnUse" x2="559.35" y1="611.84" x1="562.2">
								<stop stop-color="#756255" offset="0"/>
								<stop stop-color="#B1A3A3" offset="1"/>
							</linearGradient>
							<path fill="url(#SVGID_68_)" d="m556.5 609.2l11.5 4c-0.3 0.8-0.8 1.5-1.3 2.3v0.1c-0.4 0.6-1 1.2-1.5 1.8-0.2 0.2-0.4 0.4-0.6 0.5l-0.1 0.1-8.1-8.6 0.1-0.2z"/>
							<linearGradient id="SVGID_69_" y2="606.29" gradientUnits="userSpaceOnUse" x2="550.25" y1="611.11" x1="550.25">
								<stop stop-color="#6D5A53" offset="0"/>
								<stop stop-color="#746556" offset="1"/>
							</linearGradient>
							<path fill="url(#SVGID_69_)" d="m545.8 615c-1.1-1.7-1.6-3.5-1.6-5.7v-0.6c0.1-1.3 0.3-2.4 0.8-3.5l11.4 4.1-10.6 5.7z"/>
							<path fill="#E4DFDD" d="m556.5 620.7l-0.2-11.3 3.8 10.8c-0.4 0.1-0.8 0.2-1.3 0.3-0.6 0.1-1.3 0.2-2.1 0.2h-0.2z"/>
						</g>
						<g clip-rule="evenodd" fill-rule="evenodd">
							<path fill="#1A1A1A" d="m563.6 619.5c-0.3 0.4-0.4 0.9-0.4 1.5s0.1 1.1 0.4 1.5h0.1-0.1c-1.4 0.8-2.8 1.3-4.4 1.6 0-0.7-0.3-1.3-0.8-1.8s-1.2-0.8-1.9-0.8-1.4 0.3-1.9 0.8-0.7 1.1-0.8 1.8c-1.8-0.3-3.5-0.9-5-1.8 0.3-0.5 0.5-1 0.5-1.6s-0.1-1-0.4-1.4l-0.1-0.1-0.3-0.3c-0.5-0.5-1.2-0.8-1.9-0.8s-1.4 0.3-1.9 0.8l-0.1 0.1c-1.8-2.1-2.9-4.4-3.3-7 0.3 0 0.5 0 0.8-0.1 0.3-0.2 0.6-0.4 0.9-0.7 0.5-0.5 0.8-1.1 0.8-1.8 0-0.6-0.2-1.1-0.5-1.6l-0.3-0.3c-0.5-0.5-1.1-0.7-1.8-0.8 0.1-1 0.4-2 0.8-3 0.6-1.6 1.5-3.1 2.7-4.4 0.5 0.5 1.2 0.8 1.9 0.8s1.3-0.3 1.9-0.8c0.5-0.5 0.8-1.1 0.8-1.9 0-0.6-0.2-1.1-0.5-1.5 1.6-0.9 3.3-1.5 5-1.8 0 0.6 0.3 1.2 0.8 1.7s1.2 0.8 1.9 0.8 1.3-0.3 1.8-0.8c0.4-0.4 0.7-1 0.8-1.5 1.9 0.3 3.7 1.1 5.3 2.2-0.3 0.5-0.4 1-0.4 1.5 0 0.7 0.3 1.3 0.8 1.8s1.2 0.8 1.9 0.8c0.6 0 1.2-0.2 1.7-0.6 1 1.4 1.8 2.8 2.3 4.5 0.3 1 0.5 2 0.6 3-0.7 0-1.3 0.3-1.8 0.8l-0.3 0.3c-0.3 0.4-0.5 1-0.5 1.5 0 0.7 0.3 1.4 0.8 1.9 0.2 0.2 0.3 0.3 0.5 0.4 0.3 0.2 0.6 0.3 0.9 0.4-0.6 2.3-1.7 4.4-3.4 6.3-0.5-0.5-1.2-0.8-1.9-0.8s-1.4 0.3-1.9 0.8c0.1 0.2 0 0.3-0.1 0.4zm-7.3-21c-3 0-5.6 1-7.7 3.1-2.1 2.2-3.2 4.8-3.2 7.8 0 2.2 0.6 4.1 1.7 5.9 0.4 0.6 0.9 1.3 1.5 1.8l0.1 0.1s0.1 0.1 0.2 0.1l0.5 0.5c1.4 1.2 3 2 4.8 2.3 0.7 0.1 1.4 0.2 2.2 0.2 0.9 0 1.7-0.1 2.6-0.3 1.6-0.4 3-1.1 4.3-2.1 0.2-0.1 0.3-0.3 0.4-0.4 0.2-0.1 0.3-0.3 0.5-0.5 0.5-0.5 1-1.1 1.4-1.6 1.2-1.8 1.8-3.8 1.8-6.1 0-3-1.1-5.6-3.2-7.8-2.2-2-4.8-3-7.9-3z"/>
							<path fill="#0B0B0B" d="m548.9 622.5v-3.2l0.1 0.1c0.3 0.4 0.4 0.9 0.4 1.4 0 0.7-0.2 1.2-0.5 1.7zm14.7-3v3c-0.3-0.4-0.4-0.9-0.4-1.5s0.1-1 0.4-1.5z"/>
						</g>
					<linearGradient id="SVGID_70_" y2="598.67" gradientUnits="userSpaceOnUse" x2="562.07" y1="606.14" x1="564.07">
						<stop stop-color="#F1EDEC" offset=".0039216"/>
						<stop stop-color="#EFEBEA" stop-opacity="0" offset="1"/>
					</linearGradient>
					<path fill="url(#SVGID_70_)" clip-rule="evenodd" d="m562 599.3c-0.1 0-0.2-0.1-0.4-0.3 0.1 0 0.3-0.3 0.6-0.9h0.3l-0.5 1.2z" fill-rule="evenodd"/>
					<linearGradient id="SVGID_71_" y2="560.76" gradientUnits="userSpaceOnUse" x2="628.72" y1="570.57" x1="599.09">
						<stop stop-color="#544940" offset="0"/>
						<stop stop-color="#584D44" offset=".1412"/>
						<stop stop-color="#BDB0A5" offset=".2588"/>
						<stop stop-color="#7E7269" offset=".3922"/>
						<stop stop-color="#74675E" offset=".8275"/>
						<stop stop-color="#564C44" offset="1"/>
					</linearGradient>
					<path fill="url(#SVGID_71_)" clip-rule="evenodd" d="m600 556.5c0-3.5 1.8-5.3 5.4-5.3h17.3c3.5 0 5.3 1.8 5.3 5.3v18.3c0 3.6-1.8 5.4-5.3 5.4h-17.3c-3.6 0-5.4-1.8-5.4-5.4v-18.3z" fill-rule="evenodd"/>
				<linearGradient id="SVGID_72_" y2="582.5" gradientUnits="userSpaceOnUse" x2="617.92" y1="550.89" x1="611.33">
					<stop stop-color="#857970" offset="0"/>
					<stop stop-color="#5B5048" offset="1"/>
				</linearGradient>
				<path fill="url(#SVGID_72_)" clip-rule="evenodd" d="m600.7 557.5c0-3.5 1.8-5.3 5.3-5.3h17.3c3.6 0 5.3 1.8 5.3 5.3v18.3c0 3.6-1.8 5.4-5.3 5.4h-17.3c-3.6 0-5.3-1.8-5.3-5.4v-18.3z" fill-rule="evenodd"/>
				<path fill="#36312E" clip-rule="evenodd" d="m607.3 564.3c0.4-1.3 1.1-2.4 2.1-3.3 1.7-1.7 3.6-2.5 5.9-2.5 2.4 0 4.4 0.8 6 2.5 1.1 1 1.8 2.1 2.1 3.3 0.1 0.2 0.1 0.5 0.2 0.7 0 0.3 0.1 0.7 0.3 1v1 0.2 0.7 0.1c-0.2 2-1.1 3.8-2.6 5.3-1.6 1.6-3.6 2.5-6 2.5-2.3 0-4.3-0.8-5.9-2.5-1.4-1.5-2.3-3.2-2.6-5.1v-0.2-1-0.4-0.1c0-0.4 0.1-0.7 0.3-1 0-0.5 0.1-0.9 0.2-1.2zm8.1-1.5c-1.3 0-2.4 0.5-3.4 1.4-0.9 0.9-1.4 2.1-1.4 3.5 0 0.2 0 0.4 0.1 0.5 0 1.2 0.5 2.2 1.3 3.1 1 1 2.1 1.5 3.4 1.5 1.4 0 2.6-0.5 3.7-1.5 0.8-0.9 1.3-2 1.4-3.3v-0.3c0-1.4-0.5-2.6-1.4-3.5-1.1-1-2.3-1.4-3.7-1.4z" fill-rule="evenodd"/>
				<g clip-rule="evenodd" fill-rule="evenodd">
					<linearGradient id="SVGID_73_" y2="563.75" gradientUnits="userSpaceOnUse" x2="623.17" y1="570.3" x1="607.8">
						<stop stop-color="#3A3938" offset="0"/>
						<stop stop-color="#BDBCBA" offset=".4627"/>
						<stop stop-color="#8D8C8A" offset=".7529"/>
						<stop stop-color="#434342" offset="1"/>
					</linearGradient>
					<path fill="url(#SVGID_73_)" d="m607.2 567.9c-0.1-0.3-0.1-0.6-0.1-0.9v-0.4-0.1c0.1-0.4 0.1-0.7 0.2-1 0.1-0.4 0.2-0.8 0.3-1 0.4-1.3 1-2.4 2-3.3 1.6-1.6 3.6-2.4 6-2.4 2.3 0 4.2 0.8 5.8 2.4 1 0.9 1.7 2 2.1 3.3 0.1 0.2 0.1 0.4 0.2 0.6 0 0.3 0.1 0.6 0.3 1v1 0.2 0.6 0.2c-0.2 1.9-1.1 3.6-2.6 5-1.6 1.6-3.6 2.4-5.8 2.4-2.3 0-4.3-0.8-6-2.4-1.3-1.4-2.1-3-2.3-4.9-0.1-0.2-0.1-0.2-0.1-0.3zm8.4-5.1c-1.3 0-2.4 0.5-3.4 1.4-0.9 0.9-1.4 2.1-1.4 3.4v0.4c0 1.2 0.5 2.2 1.4 3 1 0.9 2.1 1.4 3.4 1.4s2.5-0.5 3.5-1.4c0.8-0.8 1.3-1.8 1.4-3.1v-0.3c0-1.3-0.5-2.5-1.4-3.4-1-0.9-2.2-1.4-3.5-1.4z"/>
					<path fill="#312D2E" d="m615.6 562.8c1.3 0 2.5 0.5 3.5 1.4 0.9 0.9 1.4 2.1 1.4 3.4v0.3c-0.1 1.3-0.6 2.3-1.4 3.1-1 0.9-2.2 1.4-3.5 1.4s-2.4-0.5-3.4-1.4c-0.9-0.8-1.3-1.8-1.4-3v-0.4c0-1.3 0.5-2.5 1.4-3.4 1-0.9 2.1-1.4 3.4-1.4z"/>
				</g>
				<linearGradient id="SVGID_74_" y2="576.42" gradientUnits="userSpaceOnUse" x2="619.72" y1="561.22" x1="612.6">
					<stop stop-color="#575350" offset=".035294"/>
					<stop stop-color="#524E4B" offset=".4196"/>
					<stop stop-color="#3A3836" offset="1"/>
				</linearGradient>
				<path fill="url(#SVGID_74_)" clip-rule="evenodd" d="m608 567.2c0-0.4 0.1-0.8 0.3-1 0.4-1.2 1-2.3 2-3.2 1.6-1.6 3.6-2.5 5.9-2.5s4.3 0.8 5.8 2.5c1 0.9 1.8 2 2.2 3.2 0 0.2 0 0.5 0.1 0.7 0.1 0.3 0.1 0.6 0.2 0.9v1 0.3 0.6 0.1c-0.2 2-1 3.7-2.5 5-1.6 1.6-3.5 2.4-5.8 2.4s-4.3-0.8-5.9-2.4c-1.4-1.4-2.2-3-2.4-4.9v-0.3-0.9-0.3-0.2c-0.1-0.3 0-0.7 0.1-1z" fill-rule="evenodd"/>
				<linearGradient id="SVGID_75_" y2="567.71" gradientUnits="userSpaceOnUse" x2="620.8" y1="571.23" x1="611.78">
					<stop stop-color="#312D2E" offset="0"/>
					<stop stop-color="#3F3B3B" offset=".2627"/>
					<stop stop-color="#585454" offset=".4627"/>
					<stop stop-color="#403B3C" offset=".6941"/>
					<stop stop-color="#312D2E" offset="1"/>
				</linearGradient>
				<path fill="url(#SVGID_75_)" clip-rule="evenodd" d="m619.8 566c0.9 0.9 1.4 2 1.4 3.4v0.3c-0.1 1.3-0.6 2.4-1.4 3.3-1 0.9-2.2 1.4-3.5 1.4s-2.4-0.5-3.4-1.4c-0.9-0.9-1.3-1.9-1.3-3v-0.5c0-1.3 0.5-2.4 1.4-3.4 1-0.9 2.1-1.4 3.4-1.4 1.2 0 2.4 0.4 3.4 1.3z" fill-rule="evenodd"/>
				<radialGradient id="SVGID_76_" gradientUnits="userSpaceOnUse" cy="566.6" cx="614.75" r="9.2">
					<stop offset="0"/>
					<stop stop-opacity=".7059" offset=".3804"/>
					<stop stop-opacity=".298" offset=".5529"/>
					<stop stop-opacity="0" offset="1"/>
				</radialGradient>
				<path fill="url(#SVGID_76_)" clip-rule="evenodd" d="m619.8 566c0.9 0.9 1.4 2 1.4 3.4v0.3c-0.1 1.3-0.6 2.4-1.4 3.3-1 0.9-2.2 1.4-3.5 1.4s-2.4-0.5-3.4-1.4c-0.9-0.9-1.3-1.9-1.3-3v-0.5c0-1.3 0.5-2.4 1.4-3.4 1-0.9 2.1-1.4 3.4-1.4 1.2 0 2.4 0.4 3.4 1.3z" fill-rule="evenodd"/>
				<g fill="none" clip-rule="evenodd" fill-rule="evenodd">
					<path d="m608.2 571.3c-0.2-0.8-0.3-1.6-0.3-2.5 0-2.3 0.8-4.3 2.4-6 1.6-1.6 3.6-2.3 5.9-2.3 2.4 0 4.3 0.8 5.9 2.3 0.3 0.3 0.6 0.6 0.9 1"/>
					<path d="m620.6 567.2c0.4 0.7 0.6 1.4 0.6 2.3 0 1.3-0.5 2.5-1.5 3.4-0.9 1-2.1 1.5-3.4 1.5s-2.5-0.5-3.5-1.5c-0.6-0.6-1-1.2-1.2-2"/>
					<line y2="552.2" x2="623.7" y1="552.2" x1="605.4"/>
				</g>
					<radialGradient id="SVGID_77_" gradientUnits="userSpaceOnUse" cy="560.85" cx="613.1" gradientTransform="matrix(.9653 -.2612 .083694 .3093 -25.653 547.55)" r="3.7571">
					<stop stop-color="#fff" offset="0"/>
					<stop stop-color="#fff" offset=".1765"/>
					<stop stop-color="#fff" stop-opacity=".4235" offset=".3059"/>
					<stop stop-color="#fff" stop-opacity=".2314" offset=".4902"/>
					<stop stop-color="#fff" stop-opacity=".082353" offset=".651"/>
					<stop stop-color="#fff" stop-opacity="0" offset="1"/>
				</radialGradient>
				<path fill="url(#SVGID_77_)" clip-rule="evenodd" d="m612.8 559.7c0.9-0.2 1.8-0.3 2.6-0.3s1.3 0.1 1.3 0.4c0.1 0.3-0.2 0.7-0.9 1.2-0.6 0.4-1.4 0.7-2.4 1-0.9 0.3-1.8 0.4-2.6 0.3-0.7 0-1.1-0.2-1.3-0.5-0.1-0.3 0.2-0.6 0.8-1 0.7-0.5 1.5-0.8 2.5-1.1z" fill-rule="evenodd"/>
					<use opacity=".6797" xlink:href="#glacee" transform="matrix(1.1254 -.6497 -.2033 -.3522 602.55 553.25)" height="4.6" width="4.6" y="-2.4" x="-2.3" overflow="visible"/>
					<radialGradient id="SVGID_78_" gradientUnits="userSpaceOnUse" cy="573.8" cx="617.75" gradientTransform="matrix(.9661 -.2581 .097747 .3659 -35.154 523.32)" r="2.5621">
					<stop stop-color="#fff" offset="0"/>
					<stop stop-color="#fff" offset=".1765"/>
					<stop stop-color="#fff" stop-opacity=".4235" offset=".3059"/>
					<stop stop-color="#fff" stop-opacity=".2314" offset=".4902"/>
					<stop stop-color="#fff" stop-opacity=".082353" offset=".651"/>
					<stop stop-color="#fff" stop-opacity="0" offset="1"/>
				</radialGradient>
				<path fill="url(#SVGID_78_)" clip-rule="evenodd" d="m620.2 573.2c0.1 0.2-0.1 0.5-0.5 0.8-0.5 0.3-1 0.5-1.7 0.8-0.7 0.2-1.3 0.2-1.8 0.2s-0.8-0.2-0.9-0.5 0.1-0.5 0.5-0.9c0.4-0.3 1-0.5 1.7-0.7s1.3-0.3 1.8-0.2c0.5 0 0.8 0.2 0.9 0.5z" fill-rule="evenodd"/>
			<line y2="538.7" fill-rule="evenodd" x2="633.8" clip-rule="evenodd" y1="538.7" x1="466.6" fill="none"/>
				<g fill-rule="evenodd" clip-rule="evenodd" fill="none">
					<line y2="582.3" x2="583.8" y1="552.1" x1="583.8"/>
					<line y2="583.3" x2="479.5" y1="553.1" x1="479.5"/>
				</g>
					<line y2="550.2" fill-rule="evenodd" x2="587.5" clip-rule="evenodd" y1="550.2" x1="475.3" fill="none"/>
					<line y2="584.3" fill-rule="evenodd" x2="583.5" clip-rule="evenodd" y1="584.3" x1="479.7" fill="none"/>
				<linearGradient id="SVGID_79_" y2="594.94" gradientUnits="userSpaceOnUse" x2="597.05" y1="621.46" x1="597.75">
					<stop stop-color="#2D2929" offset="0"/>
					<stop stop-color="#433E3D" offset="1"/>
				</linearGradient>
				<path fill="url(#SVGID_79_)" clip-rule="evenodd" d="m610.5 598.3v19.9c0 2.1-1 3.1-3.2 3.1h-19.8c-2.1 0-3.1-1-3.1-3.1v-19.9c0-2.1 1-3.1 3.1-3.1h19.8c2.1 0 3.2 1 3.2 3.1z" fill-rule="evenodd"/>
				<path fill-opacity=".4902" clip-rule="evenodd" d="m596.8 615c-0.2 0.1-0.4 0.2-0.5 0.4 0.2 0.4 0.5 0.4 0.8 0.2 0-0.3-0.1-0.5-0.3-0.6zm-2.2 1.7c0.2-0.5 0.4-0.9 0.8-1.3 0.6-0.6 1.3-0.9 2.2-0.9s1.6 0.3 2.2 0.9c0.4 0.4 0.6 0.8 0.8 1.3 0.1 0.3 0.1 0.5 0.1 0.8 0 0.9-0.3 1.6-0.9 2.2s-1.3 0.8-2.2 0.8-1.6-0.3-2.2-0.8c-0.6-0.6-0.9-1.3-0.9-2.2 0-0.2 0-0.5 0.1-0.8zm3.8-1.5c0.4 0.3 0.8 0.7 1 1.1s0.3 0.4 0.3 0.1c-0.1-0.4-0.5-0.8-1.3-1.2z" fill-rule="evenodd"/>
					<polygon points="603.2 605.9 603.2 611.8 597.3 615.5 591.5 611.7 591.5 605.7 591.5 605.5 596.5 603 597.3 602.5 597.5 602.5 603 605.8" clip-rule="evenodd" fill-rule="evenodd"/>
					<g clip-rule="evenodd" fill-rule="evenodd">
						<path fill="#555" d="m602.8 611.5l-1.3-0.5c0.4-0.7 0.6-1.4 0.6-2.3s-0.2-1.7-0.6-2.5l1.1-0.5 0.1 0.1 0.1 5.7z"/>
						<path fill="#60605E" d="m602.7 605.7l-1.1 0.5c-0.2-0.4-0.5-0.7-0.8-1-0.9-0.9-2-1.4-3.3-1.4v-1.3l5.2 3.2z"/>
						<linearGradient id="SVGID_80_" y2="608.65" gradientUnits="userSpaceOnUse" x2="603.08" y1="608.65" x1="593.33">
							<stop stop-color="#424242" offset=".1922"/>
							<stop stop-color="#A3A5A5" offset=".3843"/>
							<stop stop-color="#4D4C49" offset=".5098"/>
							<stop offset="1"/>
							<stop stop-color="#111" offset="1"/>
						</linearGradient>
						<path fill="url(#SVGID_80_)" d="m601.5 606.2c0.4 0.7 0.6 1.5 0.6 2.5 0 0.9-0.2 1.6-0.6 2.3l-0.6 0.9c0 0.1-0.1 0.2-0.2 0.2v0.1c-1 0.9-2.1 1.3-3.4 1.3s-2.5-0.5-3.4-1.5c-0.4-0.4-0.8-0.8-1-1.2-0.3-0.7-0.5-1.4-0.5-2.2s0.2-1.6 0.5-2.3c0.2-0.5 0.5-0.9 1-1.2 0.8-0.8 1.9-1.3 3.1-1.4h0.3 0.2c1.3 0 2.3 0.5 3.3 1.4 0.2 0.4 0.5 0.7 0.7 1.1zm-4.2-0.8c-0.9 0-1.7 0.3-2.3 0.9-0.7 0.6-1 1.4-1 2.3s0.3 1.7 1 2.3c0.6 0.7 1.4 1 2.3 1s1.7-0.3 2.3-1c0.1 0 0.1-0.1 0.2-0.2 0.5-0.6 0.8-1.3 0.8-2.1 0-0.9-0.3-1.7-1-2.3-0.6-0.6-1.4-0.9-2.3-0.9z"/>
						<linearGradient id="SVGID_81_" y2="603.95" gradientUnits="userSpaceOnUse" x2="597.37" y1="604.73" x1="594.02">
							<stop stop-color="#4E4F4A" offset="0"/>
							<stop stop-color="#424242" offset=".5059"/>
							<stop stop-color="#A2A7A0" offset=".7686"/>
							<stop stop-color="#60605E" offset="1"/>
							<stop offset="1"/>
							<stop stop-color="#111" offset="1"/>
						</linearGradient>
						<path fill="url(#SVGID_81_)" d="m597.5 603.8h-0.2-0.3c-1.2 0.1-2.3 0.6-3.1 1.4-0.4 0.3-0.7 0.7-1 1.2l-1-0.8v-0.2l4.6-2.5 0.8-0.4 0.2-0.1v1.4z"/>
						<linearGradient id="SVGID_82_" y2="611.92" gradientUnits="userSpaceOnUse" x2="597.16" y1="605.38" x1="597.44">
							<stop stop-color="#A3A5A5" offset="0"/>
							<stop stop-color="#424242" offset=".3922"/>
							<stop offset="1"/>
							<stop stop-color="#111" offset="1"/>
						</linearGradient>
						<path fill="url(#SVGID_82_)" d="m597.3 605.4c0.9 0 1.7 0.3 2.3 0.9 0.7 0.6 1 1.4 1 2.3 0 0.8-0.3 1.5-0.8 2.1l-0.2 0.2c-0.6 0.7-1.4 1-2.3 1s-1.7-0.3-2.3-1c-0.7-0.6-1-1.4-1-2.3s0.3-1.7 1-2.3c0.6-0.6 1.4-0.9 2.3-0.9zm-1.9 5.1c0.5 0.5 1.2 0.8 1.9 0.8s1.3-0.3 1.8-0.8h0.1v-0.1c0.5-0.5 0.7-1.1 0.7-1.8s-0.3-1.3-0.8-1.9c-0.5-0.5-1.2-0.8-1.9-0.8s-1.4 0.3-1.9 0.8c-0.5 0.6-0.8 1.2-0.8 1.9 0.2 0.8 0.4 1.4 0.9 1.9z"/>
						<path fill="#373536" d="m597.3 613.5v1.5l-5.3-3.6v-0.1l0.9-0.5c0.2 0.4 0.6 0.8 1 1.2 0.9 1 2.1 1.5 3.4 1.5z"/>
						<path fill="#333533" d="m593 606.4c-0.4 0.7-0.5 1.4-0.5 2.3 0 0.8 0.2 1.5 0.5 2.2l-0.9 0.5v-5.7l0.9 0.7z"/>
						<path fill="#191A1F" d="m595.4 610.5c-0.5-0.5-0.8-1.1-0.8-1.8s0.3-1.3 0.8-1.9c0.5-0.5 1.2-0.8 1.9-0.8s1.4 0.3 1.9 0.8c0.5 0.6 0.8 1.2 0.8 1.9s-0.2 1.3-0.7 1.8v0.1h-0.1c-0.5 0.5-1.1 0.8-1.8 0.8s-1.5-0.4-2-0.9z"/>
						<path fill="#454345" d="m601.6 611l1.3 0.5-5.5 3.5v-1.5c1.3 0 2.4-0.5 3.4-1.3v-0.1c0.1 0 0.2-0.1 0.2-0.2 0.2-0.4 0.4-0.6 0.6-0.9z"/>
					</g>
				<g clip-rule="evenodd" fill-rule="evenodd">
					<linearGradient id="SVGID_83_" y2="611.08" gradientUnits="userSpaceOnUse" x2="599.54" y1="611.22" x1="594.76">
						<stop stop-color="#121212" offset="0"/>
						<stop stop-color="#6F6F6F" offset=".4627"/>
						<stop stop-color="#fff" offset=".5843"/>
						<stop stop-color="#484848" offset=".7255"/>
						<stop offset="1"/>
						<stop stop-color="#111" offset="1"/>
						<stop stop-color="#1E1E1E" offset="1"/>
					</linearGradient>
					<path fill="url(#SVGID_83_)" d="m600.5 615.2c-0.2-0.5-0.4-0.9-0.8-1.3-0.6-0.6-1.3-0.9-2.2-0.9s-1.6 0.3-2.2 0.9c-0.3 0.3-0.6 0.7-0.8 1.2l1.2-7.1c0.1-0.1 0.2-0.3 0.4-0.5 0.3-0.3 0.7-0.4 1.1-0.4s0.7 0.1 1 0.3h0.2c0.1 0.2 0.2 0.3 0.3 0.5l0.1 0.1c0 0.1 0 0.2 0.1 0.2l1.6 7z"/>
					<radialGradient id="SVGID_84_" gradientUnits="userSpaceOnUse" cy="615.1" cx="597.05" r="3.45">
						<stop stop-color="#fff" offset="0"/>
						<stop stop-color="#737373" offset=".4275"/>
						<stop stop-color="#6F6F6F" offset=".6275"/>
						<stop stop-color="#404040" offset="1"/>
						<stop stop-color="#2F2F2F" offset="1"/>
					</radialGradient>
					<path fill="url(#SVGID_84_)" d="m594.6 615c0.2-0.5 0.4-0.9 0.8-1.2 0.6-0.6 1.3-0.9 2.2-0.9s1.6 0.3 2.2 0.9c0.4 0.4 0.6 0.8 0.8 1.3 0.1 0.2 0.1 0.5 0.1 0.8 0 0.9-0.3 1.6-0.9 2.2s-1.3 0.9-2.2 0.9-1.6-0.3-2.2-0.9-0.9-1.3-0.9-2.2c0-0.3 0-0.6 0.1-0.9z"/>
				</g>
			<g clip-rule="evenodd" fill-rule="evenodd">
					<radialGradient id="SVGID_85_" gradientUnits="userSpaceOnUse" cy="597.55" cx="591.4" gradientTransform="matrix(.9994 .034042 -.034042 .9994 16.35 -19.55)" r="2">
					<stop stop-color="#fff" offset="0"/>
					<stop offset="1"/>
				</radialGradient>
				<path fill="url(#SVGID_85_)" d="m588.1 599c-0.3 0.3-0.7 0.4-1.1 0.4s-0.8-0.2-1.1-0.5-0.4-0.7-0.4-1.1 0.2-0.8 0.5-1.1 0.7-0.4 1.1-0.4 0.8 0.2 1.1 0.5 0.4 0.7 0.4 1.1c-0.1 0.4-0.2 0.8-0.5 1.1z"/>
					<rect transform="matrix(.9994 .034126 -.034126 .9994 20.744 -19.685)" height="2.1" width=".4" y="596.8" x="586.8"/>
			</g>
			<g clip-rule="evenodd" fill-rule="evenodd">
					<radialGradient id="SVGID_86_" gradientUnits="userSpaceOnUse" cy="597.55" cx="591.4" gradientTransform="matrix(.8505 -.5259 .5259 .8505 -230.1 421.4)" r="2">
					<stop stop-color="#fff" offset="0"/>
					<stop offset="1"/>
				</radialGradient>
				<path fill="url(#SVGID_86_)" d="m588.6 619c-0.1 0.4-0.3 0.7-0.7 1s-0.8 0.3-1.2 0.2c-0.4-0.1-0.7-0.3-1-0.7-0.2-0.4-0.3-0.8-0.2-1.2s0.3-0.7 0.7-1c0.4-0.2 0.8-0.3 1.2-0.2s0.7 0.3 1 0.7 0.3 0.8 0.2 1.2z"/>
					<rect transform="matrix(.8514 -.5245 .5245 .8514 -237.14 399.86)" height="2" width=".4" y="617.4" x="586.9"/>
			</g>
			<g clip-rule="evenodd" fill-rule="evenodd">
					<radialGradient id="SVGID_87_" gradientUnits="userSpaceOnUse" cy="597.55" cx="591.4" gradientTransform="matrix(.9484 -.317 .317 .9484 -143.15 218.85)" r="2">
					<stop stop-color="#fff" offset="0"/>
					<stop offset="1"/>
				</radialGradient>
				<path fill="url(#SVGID_87_)" d="m608.5 598.8c-0.2 0.4-0.5 0.6-0.9 0.8-0.4 0.1-0.8 0.1-1.2-0.1s-0.6-0.5-0.8-0.9c-0.1-0.4-0.1-0.8 0.1-1.2s0.5-0.6 0.9-0.8c0.4-0.1 0.8-0.1 1.2 0.1s0.6 0.5 0.8 0.9c0.1 0.4 0.1 0.8-0.1 1.2z"/>
					<rect transform="matrix(.9484 -.317 .317 .9484 -158.21 223.26)" height="2" width=".4" y="596.9" x="606.9"/>
			</g>
			<g clip-rule="evenodd" fill-rule="evenodd">
					<radialGradient id="SVGID_88_" gradientUnits="userSpaceOnUse" cy="597.55" cx="591.4" gradientTransform="matrix(.8573 .5149 -.5149 .8573 408.45 -197.9)" r="2">
					<stop stop-color="#fff" offset="0"/>
					<stop offset="1"/>
				</radialGradient>
				<path fill="url(#SVGID_88_)" d="m608.1 620.4c-0.4 0.1-0.8 0-1.2-0.2s-0.6-0.5-0.7-1 0-0.8 0.2-1.2 0.5-0.6 1-0.7 0.8 0 1.2 0.2c0.4 0.2 0.6 0.5 0.7 1 0.1 0.4 0 0.8-0.2 1.2-0.3 0.3-0.6 0.6-1 0.7z"/>
					<rect transform="matrix(.8571 .5152 -.5152 .8571 405.71 -224.68)" height="2" width=".4" y="617.8" x="607.6"/>
			</g>
				<radialGradient id="SVGID_89_" gradientUnits="userSpaceOnUse" cy="621" cx="312.14" gradientTransform="matrix(1 0 -.086817 1.1293 6.1711 -80.271)" r="19.438">
				<stop stop-opacity=".8" offset="0"/>
				<stop stop-opacity=".4431" offset=".7412"/>
				<stop stop-opacity="0" offset=".9804"/>
			</radialGradient>
			<path fill="url(#SVGID_89_)" clip-rule="evenodd" d="m287.6 619.3c-0.5 6.7-3.2 12.5-7.9 17.3-4.1 4.2-8.7 6.5-13.9 7-0.8 0.1-1.5 0.2-2.3 0.2-6.1 0-11.2-2.4-15.1-7.2-4-4.8-5.7-10.5-5.2-17.3 0-0.8 0.1-1.6 0.3-2.4 0.9-5.7 3.4-10.6 7.6-14.9 4.7-4.7 10.1-7.1 16.2-7.1 0.8 0 1.5 0 2.3 0.1 5.1 0.5 9.3 2.8 12.8 7 2 2.4 3.5 5 4.3 7.9 0.9 2.9 1.2 6.1 0.9 9.4z" fill-rule="evenodd"/>
				<path clip-rule="evenodd" d="m255.6 613.5c-0.1-3.7 1.1-6.9 3.8-9.6 2.7-2.6 5.9-4 9.8-4 3.8 0 7.1 1.3 9.9 4s4.3 5.9 4.4 9.6c0.1 3.8-1.1 7-3.7 9.7-2.6 2.6-5.9 3.9-9.6 3.9-3.8 0-7.2-1.3-10-3.9-2.9-2.7-4.4-5.9-4.6-9.7z" fill-rule="evenodd"/>
			<g clip-rule="evenodd" fill-rule="evenodd">
					<linearGradient id="SVGID_90_" y2="608.92" gradientUnits="userSpaceOnUse" x2="259.82" gradientTransform="matrix(1 0 .037037 1 .000081457 0)" y1="608.92" x1="234">
					<stop stop-color="#222" offset="0"/>
					<stop stop-color="#222" offset=".3294"/>
					<stop stop-color="#4D4D4D" offset=".5255"/>
					<stop stop-color="#222" offset=".6627"/>
					<stop stop-color="#222" offset="1"/>
				</linearGradient>
				<path fill="url(#SVGID_90_)" d="m256.8 614.8l0.3-3.8c0.2-0.7 0.4-1.5 0.7-2.2 0.6-1.3 1.4-2.5 2.5-3.5 2.4-2.5 5.4-3.8 9-3.8s6.6 1.3 9.3 3.8 4 5.6 4.1 9.2c0 0.7 0 1.3-0.1 1.9-0.2-3.4-1.6-6.3-4.1-8.7-2.6-2.6-5.7-3.9-9.2-3.9-3.6 0-6.6 1.3-9 3.9-1 1-1.8 2.1-2.4 3.3s-0.9 2.5-1.1 3.8z"/>
				<path d="m282.5 616.3v0.4c0 0.1 0 0.2 0.1 0.3 0 0.4 0 0.7-0.1 1-0.2 3-1.3 5.6-3.4 7.8-2.4 2.5-5.4 3.8-9 3.8s-6.6-1.3-9.2-3.8c-1.1-1-1.9-2.1-2.6-3.3-1-1.8-1.5-3.8-1.5-5.8v-1-0.9c0.2-1.4 0.5-2.7 1.1-3.9s1.4-2.3 2.4-3.3c2.4-2.6 5.4-3.9 9-3.9 3.5 0 6.6 1.3 9.2 3.9 2.4 2.4 3.8 5.4 4 8.7z"/>
			</g>
			<g clip-rule="evenodd" fill-rule="evenodd">
				<path fill="#1C1F20" d="m257.6 626.8l0.3-13.2c0-0.2 0-0.4 0.1-0.5 0.5-1.7 1.4-3.2 2.8-4.5 2.2-2.2 5-3.3 8.4-3.3 3.3 0 6.1 1.1 8.6 3.3 2.1 1.9 3.3 4.2 3.7 6.8v0.3 0.2l0.1 0.6 0.8 10.1c-0.1-0.5-0.2-1-0.4-1.5-0.3-0.7-0.6-1.4-0.9-2.1-0.6-1.1-1.5-2.1-2.5-3.1-0.8-0.7-1.8-1.4-2.9-2-1.8-0.9-3.8-1.4-6-1.4-0.4 0-0.9 0-1.4 0.1-0.4 0-0.9 0.1-1.4 0.1-2.2 0.5-4.2 1.5-5.9 3.2-0.3 0.3-0.6 0.6-0.9 1l-0.4 0.5c-0.8 1-1.3 2-1.6 3.1-0.1 0.3-0.2 0.6-0.2 0.9-0.2 0.4-0.3 0.9-0.3 1.4z"/>
					<path stroke-linejoin="round" d="m281.4 615.7v-0.2 0-0.3c-0.4-2.6-1.6-4.9-3.7-6.8-2.4-2.2-5.3-3.3-8.6-3.3s-6.1 1.1-8.4 3.3c-1.4 1.3-2.3 2.8-2.8 4.5-0.1 0.2-0.1 0.3-0.1 0.5l-0.3 13.2m24-10.3v-0.2c0-0.1 0-0.3-0.1-0.5" stroke="#000" stroke-linecap="round" stroke-miterlimit="3" fill="none"/>
			</g>
			<g clip-rule="evenodd" fill-rule="evenodd">
					<linearGradient id="SVGID_91_" y2="-246.29" gradientUnits="userSpaceOnUse" x2="633.04" gradientTransform="matrix(.037178 .9993 -1.0007 .000040391 .00019729 .00012754)" y1="-246.29" x1="610.84">
					<stop stop-color="#4E4D5E" offset="0"/>
					<stop stop-color="#0C0C0E" offset="1"/>
				</linearGradient>
				<path fill="url(#SVGID_91_)" d="m278.1 616.5c1 0.9 1.9 2 2.6 3 0.4 0.7 0.7 1.4 0.9 2.2 0.2 0.5 0.3 1 0.4 1.5 0 0.2 0.1 0.4 0.1 0.6l0.1 0.9c0.1 3.2-1 6-3.4 8.3-1.4 1.3-3 2.3-4.9 2.9-1.1 0.3-2.4 0.5-3.8 0.5h-1.1c-2.9-0.2-5.5-1.3-7.8-3.4l-1.4-1.4c-1.6-1.9-2.5-4.1-2.6-6.8v-0.3-0.7c0-0.6 0.1-1.2 0.3-1.8 0-0.3 0.1-0.6 0.3-0.9 0.3-1.1 0.9-2.2 1.6-3.2l0.4-0.5c0.3-0.4 0.6-0.7 0.9-1 1.7-1.7 3.6-2.7 5.8-3.2 0.5-0.1 1-0.1 1.4-0.1 0.5-0.1 1-0.1 1.4-0.1 2.2 0 4.2 0.5 6 1.4 1.1 0.6 2 1.3 2.8 2.1z"/>
					<path stroke-linejoin="round" d="m278.1 616.5c1 0.9 1.9 2 2.6 3 0.4 0.7 0.7 1.4 0.9 2.2 0.2 0.5 0.3 1 0.4 1.5 0 0.2 0.1 0.4 0.1 0.6l0.1 0.9c0.1 3.2-1 6-3.4 8.3-1.4 1.3-3 2.3-4.9 2.9-1.1 0.3-2.4 0.5-3.8 0.5h-1.1c-2.9-0.2-5.5-1.3-7.8-3.4l-1.4-1.4c-1.6-1.9-2.5-4.1-2.6-6.8v-0.3-0.7c0-0.6 0.1-1.2 0.3-1.8 0-0.3 0.1-0.6 0.3-0.9 0.3-1.1 0.9-2.2 1.6-3.2l0.4-0.5c0.3-0.4 0.6-0.7 0.9-1 1.7-1.7 3.6-2.7 5.8-3.2 0.5-0.1 1-0.1 1.4-0.1 0.5-0.1 1-0.1 1.4-0.1 2.2 0 4.2 0.5 6 1.4 1.1 0.6 2 1.3 2.8 2.1z" stroke="#000" stroke-linecap="round" stroke-miterlimit="3" fill="none"/>
			</g>
			<path fill-opacity=".086275" fill="#fff" clip-rule="evenodd" d="m259.2 618.3v-8c0.2-0.4 0.5-0.7 0.9-1.1l-0.1 8c-0.1 0.1-0.2 0.1-0.3 0.2l-0.4 0.5c0 0.1-0.1 0.3-0.1 0.4zm16.3-11.5c0.2 0.2 0.5 0.3 0.8 0.5l0.6 8.1c-0.3-0.2-0.6-0.4-0.8-0.6l-0.6-8zm3 2.5c0.1 0.2 0.3 0.4 0.5 0.6l0.8 8.3c-0.3-0.4-0.6-0.7-1-1l-0.7-7.6c0-0.1 0-0.2 0.1-0.3h0.3zm-15.1-2.8v8c-0.3 0.1-0.6 0.3-0.9 0.5l0.1-8c0.4-0.2 0.6-0.4 0.8-0.5zm9-1c0.3 0.1 0.5 0.2 0.8 0.3l0.4 8c-0.3-0.1-0.6-0.2-0.9-0.3l-0.3-8zm-6.3 0c0.3-0.1 0.5-0.1 0.8-0.2v8h-0.5c-0.1 0-0.2 0.1-0.3 0.1v-7.9zm3.1-0.3h0.8l0.2 7.9h-0.8l-0.2-7.9z" fill-rule="evenodd"/>
			<path fill-opacity=".6196" clip-rule="evenodd" d="m259.8 617.5l-0.1 0.1 0.1-8c0.2-0.3 0.5-0.6 0.8-0.9l-0.1 8c-0.3 0.2-0.5 0.5-0.7 0.8zm4.2-11.2l-0.1 8c-0.3 0.1-0.6 0.2-0.9 0.4l0.1-8c0.3-0.2 0.5-0.3 0.9-0.4zm9.6-0.3l0.5 8c-0.3-0.1-0.6-0.2-0.9-0.3l-0.5-8c0.4 0.1 0.7 0.1 0.9 0.3zm3.2 1.7l0.5 8.1c-0.2-0.2-0.5-0.4-0.8-0.6l-0.6-8.1 0.9 0.6zm2.6 10.1l-0.7-8.1v-0.1c0.3 0.4 0.5 0.7 0.9 1.1l0.7 8.3c-0.2-0.4-0.5-0.8-0.9-1.2zm-9.8-12.6h0.8l0.2 8c-0.2 0-0.5-0.1-0.8-0.1l-0.2-7.9zm-2.9 0.2c0.3-0.1 0.5-0.1 0.8-0.2v8c-0.3 0-0.5 0.1-0.8 0.1v-7.9z" fill-rule="evenodd"/>
				<linearGradient id="SVGID_92_" y2="-40.569" gradientUnits="userSpaceOnUse" x2="689.47" gradientTransform="matrix(.341 .9401 -.95 .3135 .00020635 -.00046515)" y1="-40.569" x1="666.89">
				<stop offset="0"/>
				<stop stop-color="#303030" offset="1"/>
			</linearGradient>
			<path fill="url(#SVGID_92_)" clip-rule="evenodd" d="m277 617.8c-2.1-2-4.6-3-7.5-3s-5.4 1-7.5 3c-1.9 2-2.8 4.3-2.8 7 0.1 2.8 1.2 5.2 3.3 7.1 2.2 1.9 4.7 2.9 7.7 2.9s5.4-1 7.3-2.9c2-1.9 3-4.3 2.9-7.1s-1.2-5.1-3.4-7zm-7.5-3.6c3.1 0 5.8 1 8 3.1s3.4 4.5 3.5 7.5-0.9 5.5-3 7.5c-2.1 2.1-4.8 3.1-7.8 3.1-3.1 0-5.8-1-8.1-3-2.2-2-3.4-4.5-3.5-7.5-0.1-2.9 0.9-5.4 3-7.5s4.7-3.2 7.9-3.2z" fill-rule="evenodd"/>
				<radialGradient id="SVGID_93_" gradientUnits="userSpaceOnUse" cy="599.95" cx="247.85" gradientTransform="matrix(1 0 .014225 .3969 12.97 361.85)" r="8.7875">
				<stop stop-color="#fff" offset="0"/>
				<stop stop-color="#fff" stop-opacity=".498" offset="0"/>
				<stop stop-color="#fff" stop-opacity=".498" offset=".086275"/>
				<stop stop-color="#fff" stop-opacity=".2" offset=".302"/>
				<stop stop-color="#fff" stop-opacity=".086275" offset=".4902"/>
				<stop stop-color="#fff" stop-opacity=".027451" offset=".6784"/>
				<stop stop-color="#fff" stop-opacity="0" offset="1"/>
			</radialGradient>
			<path fill="url(#SVGID_93_)" clip-rule="evenodd" d="m260.9 600c-0.1-1 0.7-1.8 2.3-2.4 1.7-0.7 3.8-1 6.1-1 2.4 0 4.5 0.3 6.2 1 1.7 0.6 2.6 1.4 2.6 2.4 0 0.9-0.8 1.7-2.5 2.4s-3.7 1-6.1 1c-2.3 0-4.4-0.3-6.2-1-1.6-0.7-2.4-1.5-2.4-2.4z" fill-rule="evenodd"/>
				<radialGradient id="SVGID_94_" gradientUnits="userSpaceOnUse" cy="616.25" cx="246.41" gradientTransform="matrix(1 0 .014225 .3969 13.322 371.68)" r="8.7875">
				<stop stop-color="#fff" offset="0"/>
				<stop stop-color="#fff" stop-opacity=".498" offset="0"/>
				<stop stop-color="#fff" stop-opacity=".498" offset=".086275"/>
				<stop stop-color="#fff" stop-opacity=".2" offset=".302"/>
				<stop stop-color="#fff" stop-opacity=".086275" offset=".4902"/>
				<stop stop-color="#fff" stop-opacity=".027451" offset=".6784"/>
				<stop stop-color="#fff" stop-opacity="0" offset="1"/>
			</radialGradient>
			<path fill="url(#SVGID_94_)" clip-rule="evenodd" d="m260 616.3c0-0.9 0.7-1.7 2.3-2.3 1.7-0.7 3.7-1.1 6.1-1.1s4.5 0.4 6.2 1.1c1.8 0.6 2.7 1.4 2.7 2.3 0 1-0.8 1.8-2.5 2.5s-3.7 1-6.1 1-4.4-0.3-6.2-1c-1.6-0.8-2.5-1.6-2.5-2.5z" fill-rule="evenodd"/>
				<radialGradient id="SVGID_95_" gradientUnits="userSpaceOnUse" cy="621" cx="270.98" gradientTransform="matrix(1 0 -.1286 1.1293 9.1426 -80.271)" r="19.438">
				<stop stop-opacity=".8" offset="0"/>
				<stop stop-opacity=".4431" offset=".7412"/>
				<stop stop-opacity="0" offset=".9804"/>
			</radialGradient>
			<path fill="url(#SVGID_95_)" clip-rule="evenodd" d="m206.5 595.1c5 0.5 9.2 2.8 12.4 7 2 2.4 3.3 5 4.1 7.9 0.7 2.9 0.9 6 0.5 9.4-0.8 6.7-3.6 12.5-8.5 17.3-4.3 4.2-9 6.5-14.1 7-0.8 0.1-1.5 0.2-2.3 0.2-6.1 0-11.1-2.4-14.9-7.2s-5.3-10.5-4.5-17.3c0.1-0.8 0.2-1.6 0.4-2.4 1.1-5.7 3.8-10.6 8-14.9 4.9-4.7 10.4-7.1 16.5-7.1 0.8 0 1.6 0 2.4 0.1z" fill-rule="evenodd"/>
				<path clip-rule="evenodd" d="m219.6 613.5c0 3.8-1.4 7-4.1 9.7-2.7 2.6-6 3.9-9.8 3.9s-7.1-1.3-9.9-3.9c-2.7-2.7-4-5.9-4-9.7 0-3.7 1.4-6.9 4-9.6 2.7-2.6 6-4 9.9-4 3.8 0 7.1 1.3 9.8 4 2.8 2.7 4.1 5.9 4.1 9.6z" fill-rule="evenodd"/>
			<g clip-rule="evenodd" fill-rule="evenodd">
				<linearGradient id="SVGID_96_" y2="608.92" gradientUnits="userSpaceOnUse" x2="218.7" y1="608.92" x1="192.9">
					<stop stop-color="#222" offset="0"/>
					<stop stop-color="#222" offset=".3294"/>
					<stop stop-color="#4D4D4D" offset=".5255"/>
					<stop stop-color="#222" offset=".6627"/>
					<stop stop-color="#222" offset="1"/>
				</linearGradient>
				<path fill="url(#SVGID_96_)" d="m192.9 614.8l0.5-3.8c0.2-0.7 0.4-1.5 0.8-2.2 0.6-1.3 1.5-2.5 2.6-3.5 2.5-2.5 5.5-3.8 9.1-3.8s6.6 1.3 9.1 3.8 3.8 5.6 3.8 9.2c0 0.7 0 1.3-0.1 1.9-0.1-3.4-1.4-6.3-3.9-8.7-2.5-2.6-5.5-3.9-9.1-3.9-3.5 0-6.6 1.3-9.1 3.9-1 1-1.8 2.1-2.4 3.3-0.7 1.2-1.1 2.5-1.3 3.8z"/>
				<path d="m218.6 616.3v0.4 0.3c0 0.4 0 0.7-0.1 1-0.3 3-1.5 5.6-3.8 7.8-2.5 2.5-5.5 3.8-9.1 3.8-3.5 0-6.6-1.3-9.1-3.8-1-1-1.8-2.1-2.4-3.3-0.9-1.8-1.4-3.8-1.4-5.8v-1c0-0.3 0.1-0.6 0.1-0.9 0.2-1.4 0.6-2.7 1.2-3.9s1.4-2.3 2.4-3.3c2.5-2.6 5.6-3.9 9.1-3.9 3.6 0 6.6 1.3 9.1 3.9 2.6 2.4 3.9 5.4 4 8.7z"/>
			</g>
			<g clip-rule="evenodd" fill-rule="evenodd">
				<path fill="#1C1F20" d="m193.3 626.7l0.7-13.1c0-0.2 0.1-0.4 0.1-0.5 0.6-1.7 1.6-3.2 3-4.5 2.3-2.2 5.2-3.3 8.5-3.3s6.1 1.1 8.4 3.3c2 1.9 3.2 4.2 3.5 6.8v0.3 0.2 0.5 0.2l0.4 10.1-0.3-1.5c-0.2-0.7-0.5-1.4-0.9-2.1-0.5-1.1-1.3-2.1-2.4-3.1-0.8-0.7-1.8-1.4-2.9-2-1.7-0.9-3.7-1.4-5.9-1.4-0.5 0-0.9 0-1.4 0.1-0.5 0-0.9 0.1-1.4 0.1-2.3 0.5-4.3 1.5-6 3.2-0.3 0.3-0.6 0.6-0.9 1l-0.4 0.5c-0.8 1-1.3 2-1.7 3.1l-0.3 0.9c0 0.2-0.1 0.7-0.1 1.2z"/>
					<path stroke-linejoin="round" d="m217.5 616.3v-0.2-0.5-0.2-0.3c-0.3-2.6-1.5-4.9-3.5-6.8-2.3-2.2-5.1-3.3-8.4-3.3s-6.2 1.1-8.5 3.3c-1.4 1.3-2.4 2.8-3 4.5 0 0.2-0.1 0.3-0.1 0.5l-0.7 13.1m0 0.6v-0.3" stroke="#000" stroke-linecap="round" stroke-miterlimit="3" fill="none"/>
			</g>
			<g clip-rule="evenodd" fill-rule="evenodd">
				<linearGradient id="SVGID_97_" y2="632.59" gradientUnits="userSpaceOnUse" x2="205.4" y1="610.41" x1="205.4">
					<stop stop-color="#4E4D5E" offset="0"/>
					<stop stop-color="#0C0C0E" offset="1"/>
				</linearGradient>
				<path fill="url(#SVGID_97_)" d="m204 613.2c0.5-0.1 1-0.1 1.4-0.1 2.2 0 4.2 0.5 6 1.4 1.1 0.6 2 1.3 2.9 2 1 0.9 1.8 2 2.4 3 0.4 0.7 0.6 1.4 0.9 2.2l0.3 1.5v0.6 0.9c0 3.2-1.2 6-3.6 8.3-1.5 1.3-3.1 2.3-5 2.9-1.1 0.3-2.4 0.5-3.9 0.5h-1c-2.9-0.2-5.5-1.3-7.7-3.4-0.4-0.4-0.8-0.8-1.3-1.4-1.6-1.9-2.4-4.1-2.4-6.8v-0.3c0-0.2 0-0.4 0.1-0.7 0-0.6 0.1-1.2 0.3-1.8l0.3-0.9c0.4-1.1 0.9-2.2 1.7-3.2l0.4-0.5c0.3-0.4 0.6-0.7 0.9-1 1.8-1.7 3.8-2.7 6-3.2 0.4 0.1 0.9 0 1.3 0z"/>
					<path stroke-linejoin="round" d="m204 613.2c0.5-0.1 1-0.1 1.4-0.1 2.2 0 4.2 0.5 6 1.4 1.1 0.6 2 1.3 2.9 2 1 0.9 1.8 2 2.4 3 0.4 0.7 0.6 1.4 0.9 2.2l0.3 1.5v0.6 0.9c0 3.2-1.2 6-3.6 8.3-1.5 1.3-3.1 2.3-5 2.9-1.1 0.3-2.4 0.5-3.9 0.5h-1c-2.9-0.2-5.5-1.3-7.7-3.4-0.4-0.4-0.8-0.8-1.3-1.4-1.6-1.9-2.4-4.1-2.4-6.8v-0.3c0-0.2 0-0.4 0.1-0.7 0-0.6 0.1-1.2 0.3-1.8l0.3-0.9c0.4-1.1 0.9-2.2 1.7-3.2l0.4-0.5c0.3-0.4 0.6-0.7 0.9-1 1.8-1.7 3.8-2.7 6-3.2 0.4 0.1 0.9 0 1.3 0z" stroke="#000" stroke-linecap="round" stroke-miterlimit="3" fill="none"/>
			</g>
			<path fill-opacity=".086275" fill="#fff" clip-rule="evenodd" d="m195.5 610.3c0.3-0.4 0.5-0.7 0.9-1.1l-0.4 8c-0.1 0.1-0.2 0.1-0.3 0.2l-0.4 0.5c-0.1 0.1-0.2 0.3-0.2 0.3l0.4-7.9zm3.5-3.3c0.3-0.2 0.5-0.3 0.8-0.5l-0.4 8c-0.3 0.1-0.6 0.3-0.9 0.5l0.5-8zm15.8 2.3c0.2 0.2 0.3 0.4 0.5 0.6l0.5 8.3c-0.3-0.4-0.6-0.7-0.9-1l-0.4-7.6c0-0.1 0-0.2 0.1-0.3h0.2zm-2.7 5.5l-0.3-8c0.3 0.2 0.5 0.3 0.8 0.5l0.3 8.1c-0.3-0.1-0.5-0.4-0.8-0.6zm-6.5-9.6h0.8l-0.1 7.9h-0.8l0.1-7.9zm3.2 0.3c0.3 0.1 0.6 0.2 0.8 0.3l0.2 8c-0.3-0.1-0.6-0.2-0.8-0.3l-0.2-8zm-6.2 0c0.3-0.1 0.5-0.1 0.8-0.2l-0.3 8h-0.5c-0.1 0-0.1 0.1-0.3 0.1l0.3-7.9z" fill-rule="evenodd"/>
			<path fill-opacity=".6196" clip-rule="evenodd" d="m199.1 614.7l0.4-8c0.2-0.1 0.5-0.3 0.9-0.4l-0.4 8c-0.3 0-0.5 0.2-0.9 0.4zm-2.2-6l-0.4 8c-0.3 0.2-0.5 0.5-0.8 0.8l-0.1 0.1 0.4-8c0.3-0.3 0.5-0.6 0.9-0.9zm18.1 0.8c0.3 0.4 0.5 0.7 0.8 1.1l0.4 8.3c-0.2-0.4-0.5-0.8-0.9-1.2l-0.4-8.1c0.1 0 0.1 0 0.1-0.1zm-2.5 5.7l-0.3-8.1c0.3 0.2 0.5 0.4 0.8 0.6l0.3 8.1c-0.2-0.2-0.4-0.4-0.8-0.6zm-3.2-9.5c0.3 0.1 0.5 0.1 0.8 0.3l0.2 8c-0.3-0.1-0.6-0.2-0.9-0.3l-0.1-8zm-3.2-0.5h0.8l-0.1 8c-0.2 0-0.5-0.1-0.8-0.1l0.1-7.9zm-3 0.2c0.3-0.1 0.5-0.1 0.8-0.2l-0.3 8c-0.3 0-0.5 0.1-0.8 0.1l0.3-7.9z" fill-rule="evenodd"/>
			<linearGradient id="SVGID_98_" y2="635.43" gradientUnits="userSpaceOnUse" x2="209" y1="614.21" x1="202.08">
				<stop offset="0"/>
				<stop stop-color="#303030" offset="1"/>
			</linearGradient>
			<path fill="url(#SVGID_98_)" clip-rule="evenodd" d="m205.5 614.2c3.1 0 5.7 1 7.9 3.1s3.3 4.5 3.3 7.5-1.1 5.5-3.3 7.5c-2.2 2.1-4.8 3.1-7.9 3.1s-5.8-1-7.9-3c-2.2-2-3.3-4.5-3.3-7.5 0-2.9 1.1-5.4 3.3-7.5 2.2-2.2 4.9-3.2 7.9-3.2zm7.5 3.5c-2-1.9-4.5-2.9-7.5-2.9-2.9 0-5.4 1-7.5 3-2 2-3 4.3-3 7 0 2.8 1 5.2 3 7.1 2.1 1.9 4.6 2.9 7.5 2.9 3 0 5.5-1 7.5-2.9 2.1-1.9 3.1-4.3 3.1-7.1s-1-5.1-3.1-7.1z" fill-rule="evenodd"/>
				<radialGradient id="SVGID_99_" gradientUnits="userSpaceOnUse" cy="599.95" cx="205.95" gradientTransform="matrix(1 0 0 .3969 0 361.85)" r="8.7875">
				<stop stop-color="#fff" offset="0"/>
				<stop stop-color="#fff" stop-opacity=".498" offset="0"/>
				<stop stop-color="#fff" stop-opacity=".498" offset=".086275"/>
				<stop stop-color="#fff" stop-opacity=".2" offset=".302"/>
				<stop stop-color="#fff" stop-opacity=".086275" offset=".4902"/>
				<stop stop-color="#fff" stop-opacity=".027451" offset=".6784"/>
				<stop stop-color="#fff" stop-opacity="0" offset="1"/>
			</radialGradient>
			<path fill="url(#SVGID_99_)" clip-rule="evenodd" d="m212.1 602.3c-1.7 0.7-3.8 1-6.1 1s-4.4-0.3-6.1-1c-1.6-0.7-2.4-1.5-2.4-2.4 0-1 0.8-1.8 2.4-2.4 1.7-0.7 3.8-1 6.1-1 2.4 0 4.4 0.3 6.1 1 1.7 0.6 2.6 1.4 2.6 2.4s-0.9 1.8-2.6 2.4z" fill-rule="evenodd"/>
				<radialGradient id="SVGID_100_" gradientUnits="userSpaceOnUse" cy="616.25" cx="204.55" gradientTransform="matrix(1 0 0 .3969 0 371.68)" r="8.7875">
				<stop stop-color="#fff" offset="0"/>
				<stop stop-color="#fff" stop-opacity=".498" offset="0"/>
				<stop stop-color="#fff" stop-opacity=".498" offset=".086275"/>
				<stop stop-color="#fff" stop-opacity=".2" offset=".302"/>
				<stop stop-color="#fff" stop-opacity=".086275" offset=".4902"/>
				<stop stop-color="#fff" stop-opacity=".027451" offset=".6784"/>
				<stop stop-color="#fff" stop-opacity="0" offset="1"/>
			</radialGradient>
			<path fill="url(#SVGID_100_)" clip-rule="evenodd" d="m210.6 618.7c-1.7 0.7-3.7 1-6.1 1s-4.4-0.3-6.1-1c-1.6-0.7-2.4-1.5-2.4-2.5 0-0.9 0.8-1.7 2.4-2.3 1.7-0.7 3.8-1.1 6.1-1.1s4.4 0.4 6.1 1.1c1.7 0.6 2.6 1.4 2.6 2.3 0.1 1-0.8 1.8-2.6 2.5z" fill-rule="evenodd"/>
</g>
</svg>
