<?xml version="1.0" encoding="utf-8"?>
<!-- Generator: Adobe Illustrator 16.0.0, SVG Export Plug-In . SVG Version: 6.00 Build 0)  -->
<!DOCTYPE svg PUBLIC "-//W3C//DTD SVG 1.1//EN" "http://www.w3.org/Graphics/SVG/1.1/DTD/svg11.dtd">
<svg version="1.1" id="Layer_1" xmlns="http://www.w3.org/2000/svg" xmlns:xlink="http://www.w3.org/1999/xlink" x="0px" y="0px"
	 width="700px" height="700px" viewBox="0 0 700 700" enable-background="new 0 0 700 700" xml:space="preserve">
<g>
	<linearGradient id="SVGID_1_" gradientUnits="userSpaceOnUse" x1="214.2749" y1="214.25" x2="214.2749" y2="245.75">
		<stop  offset="0" style="stop-color:#8DA0A4"/>
		<stop  offset="1" style="stop-color:#6C797B"/>
	</linearGradient>
	<path fill-rule="evenodd" clip-rule="evenodd" fill="url(#SVGID_1_)" d="M219,243.7h-9.5c0-0.6,0-1.2,0.1-1.8
		c0.1-4.6,0.4-8.6,0.6-12v-0.3c0.2-3.1,0.5-5.7,0.8-7.9l0.1-0.5c0.2-1.5,0.4-2.7,0.8-3.5c0.2-0.8,0.4-1.2,0.5-1.4l0.2-0.1h6.3V243.7
		z"/>
	<linearGradient id="SVGID_2_" gradientUnits="userSpaceOnUse" x1="206.5249" y1="230.2876" x2="206.5249" y2="269.5126">
		<stop  offset="0" style="stop-color:#5B5A5A"/>
		<stop  offset="8.235294e-002" style="stop-color:#828282"/>
		<stop  offset="0.1529" style="stop-color:#FFFFFF"/>
		<stop  offset="0.1961" style="stop-color:#FFFFFF"/>
		<stop  offset="0.2588" style="stop-color:#D1D1D1"/>
		<stop  offset="0.4078" style="stop-color:#B6B6B6"/>
		<stop  offset="0.6667" style="stop-color:#544D4D"/>
		<stop  offset="1" style="stop-color:#000000"/>
	</linearGradient>
	<path fill-rule="evenodd" clip-rule="evenodd" fill="url(#SVGID_2_)" d="M209.4,248.8l0.1,15.4l0.3,5.9h-5.5
		c-0.1,0-0.2-0.2-0.4-0.6c-0.4-1.4-0.7-4.4-0.9-9.1l-0.1-1.9c-0.1-1.8-0.1-3.5-0.1-5.3l0.3-8c0.1-2.8,0.2-5.2,0.4-7.3
		c0.1-1.9,0.3-3.4,0.5-4.7l0.4-2.5l0.4-0.8h5.6c-0.3,3.4-0.5,7.4-0.6,12c-0.1,0.6-0.1,1.2-0.1,1.8
		C209.5,245.4,209.4,247,209.4,248.8z"/>
	<linearGradient id="SVGID_3_" gradientUnits="userSpaceOnUse" x1="214.1997" y1="243.6123" x2="214.1997" y2="248.6873">
		<stop  offset="0" style="stop-color:#717F81"/>
		<stop  offset="0.1373" style="stop-color:#94A5A8"/>
		<stop  offset="0.2941" style="stop-color:#8DA0A4"/>
		<stop  offset="1" style="stop-color:#8DA0A4"/>
	</linearGradient>
	<path fill-rule="evenodd" clip-rule="evenodd" fill="url(#SVGID_3_)" d="M219,248.8h-9.6c0-1.7,0.1-3.4,0.1-5h9.5V248.8z"/>
	<linearGradient id="SVGID_4_" gradientUnits="userSpaceOnUse" x1="214.25" y1="266.4126" x2="214.25" y2="274.3876">
		<stop  offset="0" style="stop-color:#8DA0A4"/>
		<stop  offset="0.102" style="stop-color:#96A7AA"/>
		<stop  offset="0.2275" style="stop-color:#4E5D60"/>
		<stop  offset="1" style="stop-color:#354346"/>
	</linearGradient>
	<path fill-rule="evenodd" clip-rule="evenodd" fill="url(#SVGID_4_)" d="M209.5,264.1h9.5v19.4h-7c-0.3,0-0.6-0.4-0.8-1.1
		c-0.6-1.9-1.1-6-1.4-12.4L209.5,264.1z"/>
	<polygon fill-rule="evenodd" clip-rule="evenodd" fill="#8DA0A4" points="219,264.1 209.5,264.1 209.4,248.8 219,248.8 	"/>
</g>
<g>
	<g>
		<g>
			<g>
				
					<linearGradient id="SVGID_5_" gradientUnits="userSpaceOnUse" x1="1.2036" y1="24.1602" x2="-253.5972" y2="252.1843" gradientTransform="matrix(0.8212 0 0 0.8212 350.5995 455.2498)">
					<stop  offset="0" style="stop-color:#D1D4DB"/>
					<stop  offset="1" style="stop-color:#90939A"/>
				</linearGradient>
				<polygon fill-rule="evenodd" clip-rule="evenodd" fill="url(#SVGID_5_)" points="360.2,624 117.4,623.9 117.4,533.4 114.2,531 
					362,531 360.2,533.5 				"/>
				<polygon fill-rule="evenodd" clip-rule="evenodd" fill="#969BA9" points="362,531 362,625.6 360.2,624 360.2,533.5 				"/>
				<polygon fill-rule="evenodd" clip-rule="evenodd" fill="#6683C7" points="366.5,526.8 108.5,526.8 123.1,486.8 365.4,486.8 				
					"/>
				<polygon fill-rule="evenodd" clip-rule="evenodd" fill="#DCDFE5" points="114.7,625.8 117.4,623.9 360.2,624 362,625.6 
					362,625.8 				"/>
				<path fill-rule="evenodd" clip-rule="evenodd" fill="#8BA6FD" d="M362,625.6V531H114.2H114v94.9h0.7H362V625.6z M108.5,526.8
					h258.1v104.6H108.5V526.8z"/>
				<polygon fill-rule="evenodd" clip-rule="evenodd" fill="#C2C7D0" points="117.4,623.9 114.7,625.8 114,625.8 114,531 114.2,531 
					117.4,533.4 				"/>
			</g>
		</g>
		<g>
			
				<linearGradient id="SVGID_6_" gradientUnits="userSpaceOnUse" x1="-137.0249" y1="83.4873" x2="-137.0249" y2="100.9123" gradientTransform="matrix(0.8212 0 0 0.8212 350.5995 455.2498)">
				<stop  offset="0" style="stop-color:#000000"/>
				<stop  offset="1" style="stop-color:#000000;stop-opacity:0"/>
			</linearGradient>
			<polygon fill-rule="evenodd" clip-rule="evenodd" fill="url(#SVGID_6_)" points="360.2,533.5 117.4,533.5 117.4,533.4 114.2,531 
				362,531 			"/>
		</g>
	</g>
	<g>
		<g>
			<g>
				
					<linearGradient id="SVGID_7_" gradientUnits="userSpaceOnUse" x1="-13.1875" y1="161.2617" x2="-14.0132" y2="129.9113" gradientTransform="matrix(0.8212 0 0 0.8212 350.5995 455.2498)">
					<stop  offset="0" style="stop-color:#2D2929"/>
					<stop  offset="1" style="stop-color:#433E3D"/>
				</linearGradient>
				<path fill-rule="evenodd" clip-rule="evenodd" fill="url(#SVGID_7_)" d="M352.1,565.2v19.3c0,2-1,3-3,3h-19.3c-2,0-3-1-3-3
					v-19.3c0-2,1-3,3-3H349C351.1,562.2,352.1,563.2,352.1,565.2z"/>
			</g>
			<g>
				<path fill-rule="evenodd" clip-rule="evenodd" fill-opacity="0.4902" d="M342.6,583.9c0,0.8-0.3,1.6-0.9,2.1
					c-0.6,0.6-1.3,0.9-2.1,0.9c-0.8,0-1.5-0.3-2.1-0.9c-0.6-0.6-0.9-1.3-0.9-2.1l0.2-0.9c0.1-0.4,0.4-0.8,0.7-1.2
					c0.6-0.6,1.3-0.9,2.1-0.9c0.8,0,1.6,0.3,2.1,0.9l0.8,1.3L342.6,583.9z M340.5,581.6L340.5,581.6l0.9,1.1
					c0.2,0.4,0.3,0.4,0.3,0.1C341.6,582.3,341.2,582,340.5,581.6z M338.8,581.5l-0.6,0.3c0.2,0.4,0.4,0.4,0.8,0.2v0
					C339.1,581.7,339.1,581.5,338.8,581.5z"/>
			</g>
			<g>
				<path fill-rule="evenodd" clip-rule="evenodd" d="M345,572.6v5.8l-5.7,3.5l-5.6-3.7v-6c1.6-0.8,3.2-1.7,4.8-2.5l0.8-0.5l0.1,0
					l5.3,3.3L345,572.6z"/>
			</g>
			<g>
				<g>
					
						<linearGradient id="SVGID_8_" gradientUnits="userSpaceOnUse" x1="-17.6138" y1="141.4873" x2="-13.6638" y2="140.5621" gradientTransform="matrix(0.8212 0 0 0.8212 350.5995 455.2498)">
						<stop  offset="0" style="stop-color:#4E4F4A"/>
						<stop  offset="0.5059" style="stop-color:#424242"/>
						<stop  offset="0.7686" style="stop-color:#A2A7A0"/>
						<stop  offset="1" style="stop-color:#60605E"/>
						<stop  offset="1" style="stop-color:#000000"/>
						<stop  offset="1" style="stop-color:#111111"/>
					</linearGradient>
					<path fill-rule="evenodd" clip-rule="evenodd" fill="url(#SVGID_8_)" d="M339.5,570.5H339c-1.2,0.1-2.2,0.5-3,1.4
						c-0.4,0.3-0.7,0.7-0.9,1.1l-0.9-0.7v-0.2l5.2-2.8l0.1-0.1V570.5z"/>
					<path fill-rule="evenodd" clip-rule="evenodd" fill="#60605E" d="M339.5,569.3l5,3.1l-1.1,0.5l-0.8-1c-0.9-0.9-1.9-1.3-3.2-1.4
						V569.3z"/>
					
						<linearGradient id="SVGID_9_" gradientUnits="userSpaceOnUse" x1="-18.3999" y1="146.125" x2="-6.8999" y2="146.125" gradientTransform="matrix(0.8212 0 0 0.8212 350.5995 455.2498)">
						<stop  offset="0.1922" style="stop-color:#424242"/>
						<stop  offset="0.3843" style="stop-color:#A3A5A5"/>
						<stop  offset="0.5098" style="stop-color:#4D4C49"/>
						<stop  offset="1" style="stop-color:#000000"/>
						<stop  offset="1" style="stop-color:#000000"/>
						<stop  offset="1" style="stop-color:#111111"/>
					</linearGradient>
					<path fill-rule="evenodd" clip-rule="evenodd" fill="url(#SVGID_9_)" d="M339.3,580c-1.3,0-2.4-0.5-3.3-1.4
						c-0.4-0.4-0.7-0.8-0.9-1.2c-0.3-0.7-0.5-1.4-0.5-2.1c0-0.8,0.2-1.5,0.5-2.2c0.2-0.4,0.5-0.8,0.9-1.1c0.8-0.8,1.8-1.3,3-1.4h0.5
						c1.2,0,2.3,0.5,3.2,1.4l0.8,1c0.4,0.7,0.6,1.5,0.6,2.3c0,0.8-0.2,1.6-0.5,2.3l-0.6,0.9l-0.2,0.2l0,0.1
						C341.7,579.5,340.6,580,339.3,580z M337.1,573c-0.7,0.6-1,1.3-1,2.2s0.3,1.6,1,2.3c0.6,0.7,1.4,1,2.3,1c0.9,0,1.6-0.3,2.2-0.9
						v0l0.2-0.2c0.5-0.6,0.8-1.3,0.8-2.1c0-0.9-0.3-1.6-0.9-2.2c-0.6-0.6-1.3-0.9-2.2-0.9C338.4,572.1,337.7,572.4,337.1,573z"/>
					<path fill-rule="evenodd" clip-rule="evenodd" fill="#333533" d="M334.2,577.9v-5.5l0.9,0.7c-0.4,0.7-0.5,1.4-0.5,2.2
						c0,0.8,0.2,1.5,0.5,2.1L334.2,577.9z"/>
					
						<linearGradient id="SVGID_10_" gradientUnits="userSpaceOnUse" x1="-13.5874" y1="142.2231" x2="-13.9124" y2="149.9731" gradientTransform="matrix(0.8212 0 0 0.8212 350.5995 455.2498)">
						<stop  offset="0" style="stop-color:#A3A5A5"/>
						<stop  offset="0.3922" style="stop-color:#424242"/>
						<stop  offset="1" style="stop-color:#000000"/>
						<stop  offset="1" style="stop-color:#000000"/>
						<stop  offset="1" style="stop-color:#111111"/>
					</linearGradient>
					<path fill-rule="evenodd" clip-rule="evenodd" fill="url(#SVGID_10_)" d="M337.1,573c0.6-0.6,1.4-0.9,2.3-0.9
						c0.9,0,1.6,0.3,2.2,0.9c0.6,0.6,0.9,1.3,0.9,2.2c0,0.8-0.3,1.5-0.8,2.1l-0.2,0.2v0c-0.6,0.6-1.3,0.9-2.2,0.9
						c-0.9,0-1.7-0.3-2.3-1c-0.7-0.6-1-1.4-1-2.3S336.4,573.6,337.1,573z M336.8,575.2c0,0.7,0.2,1.3,0.7,1.8
						c0.5,0.5,1.1,0.8,1.8,0.8c0.7,0,1.3-0.3,1.7-0.8h0.1l0.1-0.1c0.4-0.5,0.7-1.1,0.7-1.7c0-0.7-0.2-1.3-0.7-1.8
						c-0.5-0.5-1.1-0.7-1.8-0.7c-0.7,0-1.4,0.2-1.8,0.7C337,573.9,336.8,574.5,336.8,575.2z"/>
					<path fill-rule="evenodd" clip-rule="evenodd" fill="#191A1F" d="M336.8,575.2c0-0.7,0.2-1.3,0.7-1.8c0.5-0.5,1.1-0.7,1.8-0.7
						c0.7,0,1.3,0.2,1.8,0.7c0.5,0.5,0.7,1.1,0.7,1.8c0,0.7-0.2,1.2-0.7,1.7l-0.1,0.1h-0.1c-0.5,0.5-1,0.8-1.7,0.8
						c-0.7,0-1.4-0.3-1.8-0.8C337,576.5,336.8,575.9,336.8,575.2z"/>
					<path fill-rule="evenodd" clip-rule="evenodd" fill="#555555" d="M344.7,578l-1.2-0.5c0.4-0.7,0.5-1.4,0.5-2.3
						c0-0.9-0.2-1.7-0.6-2.3l1.1-0.5l0.1,0.1L344.7,578z"/>
					<path fill-rule="evenodd" clip-rule="evenodd" fill="#454345" d="M344.7,578L344.7,578l-5.3,3.4V580c1.3,0,2.4-0.4,3.3-1.3
						l0-0.1l0.2-0.2l0.6-0.9L344.7,578z"/>
					<path fill-rule="evenodd" clip-rule="evenodd" fill="#373536" d="M339.3,581.4l-5.2-3.5v0l0.9-0.5c0.2,0.4,0.5,0.8,0.9,1.2
						c0.9,0.9,2,1.4,3.3,1.4V581.4z"/>
				</g>
			</g>
		</g>
		<g>
			<g>
				
					<linearGradient id="SVGID_11_" gradientUnits="userSpaceOnUse" x1="-16.7246" y1="149.145" x2="-11.0744" y2="148.9772" gradientTransform="matrix(0.8212 0 0 0.8212 350.5995 455.2498)">
					<stop  offset="0" style="stop-color:#121212"/>
					<stop  offset="0.4627" style="stop-color:#6F6F6F"/>
					<stop  offset="0.5843" style="stop-color:#FFFFFF"/>
					<stop  offset="0.7255" style="stop-color:#484848"/>
					<stop  offset="1" style="stop-color:#000000"/>
					<stop  offset="1" style="stop-color:#111111"/>
					<stop  offset="1" style="stop-color:#1E1E1E"/>
				</linearGradient>
				<path fill-rule="evenodd" clip-rule="evenodd" fill="url(#SVGID_11_)" d="M342.5,581.6c-0.2-0.5-0.4-0.9-0.8-1.3
					c-0.6-0.6-1.3-0.9-2.1-0.9c-0.8,0-1.5,0.3-2.1,0.9c-0.3,0.3-0.6,0.7-0.7,1.2l1.1-6.9l0.3-0.5c0.3-0.3,0.7-0.4,1.1-0.4
					c0.3,0,0.6,0.1,0.9,0.2l0.1,0.1l0.3,0.4l0.1,0.1L342.5,581.6z"/>
				
					<radialGradient id="SVGID_12_" cx="-14.0498" cy="153.75" r="4.075" gradientTransform="matrix(0.8212 0 0 0.8212 350.5995 455.2498)" gradientUnits="userSpaceOnUse">
					<stop  offset="0" style="stop-color:#FFFFFF"/>
					<stop  offset="0.4275" style="stop-color:#737373"/>
					<stop  offset="0.6275" style="stop-color:#6F6F6F"/>
					<stop  offset="1" style="stop-color:#404040"/>
					<stop  offset="1" style="stop-color:#2F2F2F"/>
					<stop  offset="1" style="stop-color:#2F2F2F"/>
				</radialGradient>
				<path fill-rule="evenodd" clip-rule="evenodd" fill="url(#SVGID_12_)" d="M336.7,581.5c0.1-0.5,0.4-0.9,0.7-1.2
					c0.6-0.6,1.3-0.9,2.1-0.9c0.8,0,1.6,0.3,2.1,0.9c0.4,0.4,0.6,0.8,0.8,1.3l0.1,0.8c0,0.8-0.3,1.6-0.9,2.1s-1.3,0.9-2.1,0.9
					c-0.8,0-1.5-0.3-2.1-0.9c-0.6-0.6-0.9-1.3-0.9-2.1L336.7,581.5z"/>
			</g>
		</g>
		<g>
			
				<radialGradient id="SVGID_13_" cx="5.7998" cy="135.1499" r="2.4" gradientTransform="matrix(0.8212 0 0 0.8212 344.95 453.5995)" gradientUnits="userSpaceOnUse">
				<stop  offset="0" style="stop-color:#FFFFFF"/>
				<stop  offset="1" style="stop-color:#404040"/>
				<stop  offset="1" style="stop-color:#2F2F2F"/>
				<stop  offset="1" style="stop-color:#2F2F2F"/>
			</radialGradient>
			<path fill-rule="evenodd" clip-rule="evenodd" fill="url(#SVGID_13_)" d="M350.8,565.7c-0.3,0.3-0.7,0.5-1.1,0.5
				c-0.4,0-0.7-0.2-1-0.5c-0.3-0.3-0.5-0.7-0.5-1.1c0-0.4,0.2-0.7,0.5-1s0.6-0.5,1-0.5c0.4,0,0.8,0.2,1.1,0.5
				c0.3,0.3,0.5,0.7,0.5,1.1C351.2,565,351.1,565.4,350.8,565.7z"/>
			<rect x="349.5" y="563.4" fill-rule="evenodd" clip-rule="evenodd" width="0.3" height="2.4"/>
		</g>
		<g>
			
				<radialGradient id="SVGID_14_" cx="5.7998" cy="135.1499" r="2.4" gradientTransform="matrix(0.7548 -0.3236 0.3236 0.7548 301.5498 485.1505)" gradientUnits="userSpaceOnUse">
				<stop  offset="0" style="stop-color:#FFFFFF"/>
				<stop  offset="1" style="stop-color:#404040"/>
				<stop  offset="1" style="stop-color:#2F2F2F"/>
				<stop  offset="1" style="stop-color:#2F2F2F"/>
			</radialGradient>
			<path fill-rule="evenodd" clip-rule="evenodd" fill="url(#SVGID_14_)" d="M351.1,585.8c-0.2,0.4-0.4,0.7-0.8,0.8
				c-0.4,0.2-0.7,0.1-1.1,0s-0.7-0.4-0.8-0.8c-0.2-0.4-0.1-0.7,0-1.1s0.4-0.7,0.8-0.8c0.4-0.2,0.8-0.2,1.2,0
				c0.4,0.2,0.7,0.4,0.8,0.8C351.2,585.1,351.2,585.4,351.1,585.8z"/>
			
				<rect x="348.6" y="585.1" transform="matrix(-0.3942 -0.919 0.919 -0.3942 -50.1924 1137.3884)" fill-rule="evenodd" clip-rule="evenodd" width="2.4" height="0.3"/>
		</g>
		<g>
			
				<radialGradient id="SVGID_15_" cx="5.7998" cy="135.1499" r="2.4" gradientTransform="matrix(0.7487 0.3371 -0.3371 0.7487 370.5498 461.4006)" gradientUnits="userSpaceOnUse">
				<stop  offset="0" style="stop-color:#FFFFFF"/>
				<stop  offset="1" style="stop-color:#404040"/>
				<stop  offset="1" style="stop-color:#2F2F2F"/>
				<stop  offset="1" style="stop-color:#2F2F2F"/>
			</radialGradient>
			<path fill-rule="evenodd" clip-rule="evenodd" fill="url(#SVGID_15_)" d="M329.9,566c-0.4,0.2-0.8,0.1-1.2,0
				c-0.3-0.2-0.6-0.4-0.8-0.8c-0.2-0.4-0.1-0.8,0-1.2c0.2-0.3,0.4-0.6,0.8-0.8c0.4-0.2,0.8-0.1,1.1,0c0.4,0.2,0.6,0.5,0.8,0.9
				c0.2,0.4,0.1,0.8,0,1.2C330.5,565.6,330.3,565.8,329.9,566z"/>
			
				<rect x="328.2" y="564.4" transform="matrix(0.4106 -0.9118 0.9118 0.4106 -320.6277 633.0996)" fill-rule="evenodd" clip-rule="evenodd" width="2.4" height="0.3"/>
		</g>
		<g>
			
				<radialGradient id="SVGID_16_" cx="5.7998" cy="135.1499" r="2.4" gradientTransform="matrix(0.1287 0.8107 -0.8107 0.1287 438.1999 563.1504)" gradientUnits="userSpaceOnUse">
				<stop  offset="0" style="stop-color:#FFFFFF"/>
				<stop  offset="1" style="stop-color:#404040"/>
				<stop  offset="1" style="stop-color:#2F2F2F"/>
				<stop  offset="1" style="stop-color:#2F2F2F"/>
			</radialGradient>
			<path fill-rule="evenodd" clip-rule="evenodd" fill="url(#SVGID_16_)" d="M328.5,586.5c-0.3-0.3-0.5-0.6-0.6-1
				c-0.1-0.4,0-0.7,0.3-1.1c0.3-0.3,0.6-0.5,1-0.6c0.4-0.1,0.7,0,1.1,0.3c0.3,0.3,0.5,0.6,0.6,0.9c0.1,0.4,0,0.8-0.3,1.1
				c-0.3,0.3-0.6,0.5-1,0.6C329.2,586.8,328.8,586.7,328.5,586.5z"/>
			
				<rect x="328.1" y="585" transform="matrix(0.9876 -0.1568 0.1568 0.9876 -87.7057 58.8947)" fill-rule="evenodd" clip-rule="evenodd" width="2.4" height="0.3"/>
		</g>
	</g>
	<g>
		<g>
			<g>
				<polygon fill-rule="evenodd" clip-rule="evenodd" fill-opacity="0.4118" points="238.1,543.2 238.1,580.2 126.8,580.2 
					124.6,578 126.8,541 234.2,540.9 				"/>
			</g>
			<g>
				<g>
					<polygon fill-rule="evenodd" clip-rule="evenodd" fill="#7E8892" points="235.5,542.5 124.7,542.5 124.1,541 124,540.9 
						234.2,540.9 					"/>
					<polygon fill-rule="evenodd" clip-rule="evenodd" fill="#1E212A" points="227.4,546.5 133.3,546.5 128.7,544.4 231.7,544.4 
											"/>
					
						<linearGradient id="SVGID_17_" gradientUnits="userSpaceOnUse" x1="-149.9873" y1="127.8252" x2="-144.7123" y2="127.8252" gradientTransform="matrix(0.8212 0 0 0.8212 350.5995 455.2498)">
						<stop  offset="0" style="stop-color:#7B838E"/>
						<stop  offset="1" style="stop-color:#535860"/>
						<stop  offset="1" style="stop-color:#1A1A1A"/>
						<stop  offset="1" style="stop-color:#7B838C"/>
					</linearGradient>
					<polygon fill-rule="evenodd" clip-rule="evenodd" fill="url(#SVGID_17_)" points="231.7,544.4 231.7,576.1 227.4,573.7 
						227.4,546.5 					"/>
					<polygon fill-rule="evenodd" clip-rule="evenodd" fill="#3F4335" points="133.3,546.6 133.3,546.5 227.4,546.5 227.4,573.7 
						226.3,573.7 226.3,573.2 226.3,547 134.3,547 					"/>
					<polygon fill-rule="evenodd" clip-rule="evenodd" fill="#323627" points="226.3,573.7 133.3,573.7 133.3,546.6 134.3,547 
						134.3,573.2 226.3,573.2 					"/>
					<polygon fill-rule="evenodd" clip-rule="evenodd" fill="#2B303C" points="133.3,573.7 226.3,573.7 227.4,573.7 231.7,576.1 
						128.6,576.1 128.6,576 					"/>
					<path fill-rule="evenodd" clip-rule="evenodd" fill="#5B656E" d="M124.7,542.5h110.8V578H124.6v-35.4H124.7z M128.7,544.4
						L128.7,544.4l0,31.6v0h103.1v-31.7H128.7z M234.2,576.1h-0.3l0.3,0.2V576.1z"/>
					
						<linearGradient id="SVGID_18_" gradientUnits="userSpaceOnUse" x1="-151.2251" y1="147.2002" x2="-136.0751" y2="147.2002" gradientTransform="matrix(0.8212 0 0 0.8212 350.5995 455.2498)">
						<stop  offset="0" style="stop-color:#7B838E"/>
						<stop  offset="1" style="stop-color:#535860"/>
						<stop  offset="1" style="stop-color:#1A1A1A"/>
						<stop  offset="1" style="stop-color:#7B838C"/>
					</linearGradient>
					<polygon fill-rule="evenodd" clip-rule="evenodd" fill="url(#SVGID_18_)" points="234.2,576.1 234.2,576.2 233.8,576.1 					
						"/>
					<rect x="134.3" y="547" fill-rule="evenodd" clip-rule="evenodd" fill="#8A956E" width="91.9" height="26.2"/>
					<polygon fill-rule="evenodd" clip-rule="evenodd" fill="#545C65" points="124.1,541 124.7,542.5 124.6,542.5 124.6,578 
						124.1,575.1 					"/>
					
						<linearGradient id="SVGID_19_" gradientUnits="userSpaceOnUse" x1="-275.2373" y1="127.7998" x2="-263.3623" y2="127.7998" gradientTransform="matrix(0.8212 0 0 0.8212 350.5995 455.2498)">
						<stop  offset="0" style="stop-color:#363D41"/>
						<stop  offset="1" style="stop-color:#59646A"/>
						<stop  offset="1" style="stop-color:#393939"/>
						<stop  offset="1" style="stop-color:#1A1A1A"/>
					</linearGradient>
					<polygon fill-rule="evenodd" clip-rule="evenodd" fill="url(#SVGID_19_)" points="133.3,546.6 133.3,573.7 128.6,576 
						128.6,544.4 128.7,544.4 133.3,546.5 					"/>
				</g>
			</g>
			<g>
				<g>
					<line fill-rule="evenodd" clip-rule="evenodd" fill="none" x1="231.7" y1="544.3" x2="231.7" y2="574.2"/>
					<line fill-rule="evenodd" clip-rule="evenodd" fill="none" x1="128.6" y1="545.3" x2="128.6" y2="575.1"/>
				</g>
			</g>
			<g>
				<line fill-rule="evenodd" clip-rule="evenodd" fill="none" x1="124.5" y1="542.4" x2="235.4" y2="542.4"/>
			</g>
			<g>
				<line fill-rule="evenodd" clip-rule="evenodd" fill="none" x1="128.9" y1="576.1" x2="231.4" y2="576.1"/>
			</g>
		</g>
	</g>
	<g>
		<g>
			<g>
				
					<radialGradient id="SVGID_20_" cx="-67.8584" cy="147.4141" r="39.9461" gradientTransform="matrix(0.82 4.445675e-002 -0.1336 0.9171 352.7726 440.3354)" gradientUnits="userSpaceOnUse">
					<stop  offset="0" style="stop-color:#000000;stop-opacity:0.8"/>
					<stop  offset="0.7412" style="stop-color:#000000;stop-opacity:0.4431"/>
					<stop  offset="0.9804" style="stop-color:#000000;stop-opacity:0"/>
				</radialGradient>
				<path fill-rule="evenodd" clip-rule="evenodd" fill="url(#SVGID_20_)" d="M289.1,529.5c8.5,1.4,15.4,5.7,20.8,12.9
					c3.1,4.2,5.2,8.8,6.4,13.7c1.1,5,1.2,10.2,0.5,15.8c-1.6,11.1-6.7,20.5-15.3,28c-7.3,6.7-15.4,10.2-24.1,10.6l-3.9,0.1
					c-10.3-0.5-18.5-5.1-24.7-13.5c-6.1-8.3-8.3-18.1-6.7-29.2l0.8-4.1c2.1-9.4,6.9-17.5,14.3-24.2c8.4-7.5,17.8-11,28.2-10.4
					L289.1,529.5z"/>
			</g>
			<g>
				<g>
					<path fill-rule="evenodd" clip-rule="evenodd" fill="#1C1F20" d="M305.4,577.6l-0.3-0.6c-0.9-1.9-2.2-3.7-3.9-5.4
						c-1.3-1.3-2.9-2.5-4.6-3.6c-2.8-1.8-6.2-2.7-9.9-2.9l-4.7,0.2c-3.8,0.5-7.2,2.1-10.2,4.7l-2.3,2.3c-0.8,1-1.5,1.9-2,3
						c-0.4,0.7-0.8,1.5-1,2.2l-0.5,1.5c-0.3,1-0.5,2-0.6,3l2-22.6l0.3-0.8c1-2.8,2.8-5.3,5.3-7.4c4-3.5,8.8-5.1,14.4-4.8
						c5.5,0.3,10.2,2.4,14,6.3c3.4,3.6,5.3,7.6,5.5,12.2l0.2,18.4l-0.5-2.6L305.4,577.6z"/>
					<path fill-rule="evenodd" clip-rule="evenodd" d="M305.4,577.6c-1,1.6-2.3,3-3.7,4.4c-4.4,4-9.5,5.8-15.5,5.5
						c-6-0.3-11.1-2.7-15.2-7.1c-1.4-1.6-2.6-3.3-3.5-5c0.5-1,1.2-2,2-3l2.3-2.3c3-2.6,6.4-4.2,10.2-4.7l4.7-0.2
						c3.8,0.2,7.1,1.2,9.9,2.9c1.8,1,3.3,2.2,4.6,3.6c1.7,1.8,3,3.6,3.9,5.4L305.4,577.6z"/>
				</g>
			</g>
			<g>
				<path fill-rule="evenodd" clip-rule="evenodd" fill="#FFFFFF" fill-opacity="8.627451e-002" d="M287.1,538.7l1.4,0.2l-0.5,22.3
					l-1.4-0.2L287.1,538.7z M292.5,540.4l1.3,0.8l-0.1,22.5l-1.4-1L292.5,540.4z M297.5,544.3l1.4,1.6v22.8l-1.4-1.6V544.3z
					 M301.9,552.9c0-0.3,0.1-0.6,0.2-0.8l0.3-0.3l0.8,1.8l0.4,23.7l-1.5-3.1L301.9,552.9z M282,539.3l1.4-0.4l-0.9,22.4l-1.3,0.2
					L282,539.3z M275.9,542.9c0.5-0.5,1-0.9,1.4-1.2l-1,22.4l-1.4,1.2L275.9,542.9z M269.8,551.7l1.6-3l-1.1,22.6l-0.5,0.5l-1,2.2
					L269.8,551.7z"/>
			</g>
			<g>
				<path fill-rule="evenodd" clip-rule="evenodd" fill-opacity="0.6196" d="M287.9,538.9l1.4,0.2l-0.6,22.3l-1.3-0.3L287.9,538.9z
					 M293.2,540.7l1.4,0.9l-0.2,22.4l-1.4-0.9L293.2,540.7z M298.2,545.3l1.4,1.7l0,22.9l-1.4-1.9V545.3z M302.7,552.5l1.4,3.4
					l0.3,23.6l-1.4-3.6l-0.3-23L302.7,552.5z M283.5,561.1l-1.4,0.2L283,539l1.4-0.3L283.5,561.1z M270.7,549.9l1.5-2.5l-1.1,22.4
					l-1.3,2.1l-0.2,0.5L270.7,549.9z M276.8,542.1l1.4-1.1l-1,22.4l-1.4,1.1L276.8,542.1z"/>
			</g>
			<g>
				<g>
					
						<linearGradient id="SVGID_21_" gradientUnits="userSpaceOnUse" x1="-99.8579" y1="122.6138" x2="-46.9058" y2="122.6138" gradientTransform="matrix(0.82 4.417896e-002 -2.502393e-002 0.8211 350.5998 455.2504)">
						<stop  offset="0" style="stop-color:#222222"/>
						<stop  offset="0.3294" style="stop-color:#222222"/>
						<stop  offset="0.5255" style="stop-color:#4D4D4D"/>
						<stop  offset="0.6627" style="stop-color:#222222"/>
						<stop  offset="1" style="stop-color:#222222"/>
					</linearGradient>
					<path fill-rule="evenodd" clip-rule="evenodd" fill="url(#SVGID_21_)" d="M271.9,549.7c-1.8,1.6-3.2,3.3-4.3,5.3
						c-1.1,2-1.8,4.1-2.2,6.4l0.9-6.4c0.4-1.2,0.9-2.4,1.5-3.5c1.1-2.1,2.6-4,4.5-5.7c4.4-4,9.5-5.9,15.6-5.5c6,0.3,11,2.7,15.1,7.1
						c1.7,1.8,3,3.8,4,5.9c1.4,3,2.1,6.3,2,9.9l-0.3,3.2c0-3-0.5-5.8-1.6-8.4c-1-2.3-2.4-4.5-4.3-6.5c-4.1-4.4-9.2-6.8-15.2-7.1
						C281.4,543.9,276.3,545.7,271.9,549.7z"/>
					<path fill-rule="evenodd" clip-rule="evenodd" d="M271.9,549.7c4.3-4,9.5-5.8,15.5-5.5c6,0.3,11,2.7,15.2,7.1
						c1.9,2,3.3,4.2,4.3,6.5c1.1,2.6,1.6,5.4,1.6,8.4l0.3-3.2c0.1-3.6-0.5-6.8-2-9.9c-1-2.1-2.3-4-4-5.9c-4.1-4.4-9.1-6.8-15.1-7.1
						c-6-0.3-11.2,1.5-15.6,5.5c-1.9,1.7-3.4,3.6-4.5,5.7c-0.6,1.1-1.1,2.3-1.5,3.5l-0.9,6.4c0.4-2.3,1.1-4.4,2.2-6.4
						C268.7,553,270.1,551.3,271.9,549.7z M263.6,559.1c0.2-6.2,2.7-11.5,7.4-15.7c4.7-4.2,10.3-6.2,16.8-5.8
						c6.4,0.4,11.8,2.9,16.3,7.6c1.1,1.1,2,2.4,2.8,3.6c2.5,3.9,3.7,8.1,3.5,12.9c-0.1,3.5-0.9,6.7-2.4,9.5
						c-0.3,1.2-0.7,2.4-1.1,3.6l-0.1,0.2l-0.1-10c-0.2-4.6-2-8.7-5.5-12.2c-3.8-3.9-8.5-6-14-6.3c-5.6-0.3-10.3,1.3-14.4,4.8
						c-2.5,2.1-4.3,4.6-5.3,7.4l-0.3,0.8l-1.1,12.9c-0.4-1.3-0.7-2.6-0.9-3.9C264.1,565.5,263.6,562.4,263.6,559.1z"/>
				</g>
			</g>
			<g>
				
					<radialGradient id="SVGID_22_" cx="-73.0098" cy="104.2114" r="18.0389" gradientTransform="matrix(0.82 4.438651e-002 -9.673982e-003 0.3255 349.0649 506.8963)" gradientUnits="userSpaceOnUse">
					<stop  offset="0" style="stop-color:#FFFFFF"/>
					<stop  offset="0" style="stop-color:#FFFFFF;stop-opacity:0.498"/>
					<stop  offset="8.627451e-002" style="stop-color:#FFFFFF;stop-opacity:0.498"/>
					<stop  offset="0.302" style="stop-color:#FFFFFF;stop-opacity:0.2"/>
					<stop  offset="0.4902" style="stop-color:#FFFFFF;stop-opacity:8.627451e-002"/>
					<stop  offset="0.6784" style="stop-color:#FFFFFF;stop-opacity:2.745098e-002"/>
					<stop  offset="1" style="stop-color:#FFFFFF;stop-opacity:0"/>
				</radialGradient>
				<path fill-rule="evenodd" clip-rule="evenodd" fill="url(#SVGID_22_)" d="M298.6,534.2c2.9,1.2,4.3,2.6,4.3,4.2
					c-0.1,1.6-1.6,2.9-4.5,3.8c-3,1-6.4,1.4-10.4,1.2c-4-0.2-7.4-1-10.3-2.3c-2.7-1.2-4-2.6-3.9-4.2c0.1-1.6,1.4-2.9,4.1-3.8
					c3-1,6.5-1.4,10.4-1.2C292.3,532.1,295.7,532.9,298.6,534.2z"/>
			</g>
			<g>
				<g>
					
						<linearGradient id="SVGID_23_" gradientUnits="userSpaceOnUse" x1="125.6211" y1="74.0254" x2="170.9677" y2="74.0254" gradientTransform="matrix(-2.535355e-002 0.8208 -0.8202 -4.431528e-002 350.5992 455.2498)">
						<stop  offset="0" style="stop-color:#4E4D5E"/>
						<stop  offset="1" style="stop-color:#0C0C0E"/>
					</linearGradient>
					<path fill-rule="evenodd" clip-rule="evenodd" fill="url(#SVGID_23_)" d="M270,566.1l1.6-1.5c3.1-2.6,6.5-4.2,10.3-4.7l4.7-0.3
						c3.8,0.2,7,1.2,9.9,2.9c1.8,1.1,3.3,2.3,4.7,3.7c1.7,1.7,3,3.5,3.9,5.4c0.6,1.2,1,2.4,1.3,3.7l0.5,2.6v2.5
						c-0.2,5.4-2.3,9.9-6.5,13.5c-2.5,2.2-5.3,3.7-8.5,4.5l-6.4,0.5l-1.8-0.1c-4.9-0.6-9.1-2.7-12.8-6.4l-2.1-2.4
						c-2.5-3.3-3.7-7.2-3.6-11.7l0-0.4c0-0.4,0-0.8,0.1-1.2c0.1-1,0.2-2,0.5-3c0.1-0.5,0.3-1,0.5-1.4c0.7-1.8,1.7-3.5,3.1-5.2
						L270,566.1z"/>
					
						<path fill-rule="evenodd" clip-rule="evenodd" fill="none" stroke="#000000" stroke-linecap="round" stroke-linejoin="round" stroke-miterlimit="3" d="
						M270,566.1l1.6-1.5c3.1-2.6,6.5-4.2,10.3-4.7l4.7-0.3c3.8,0.2,7,1.2,9.9,2.9c1.8,1.1,3.3,2.3,4.7,3.7c1.7,1.7,3,3.5,3.9,5.4
						c0.6,1.2,1,2.4,1.3,3.7l0.5,2.6v2.5c-0.2,5.4-2.3,9.9-6.5,13.5c-2.5,2.2-5.3,3.7-8.5,4.5l-6.4,0.5l-1.8-0.1
						c-4.9-0.6-9.1-2.7-12.8-6.4l-2.1-2.4c-2.5-3.3-3.7-7.2-3.6-11.7l0-0.4c0-0.4,0-0.8,0.1-1.2c0.1-1,0.2-2,0.5-3
						c0.1-0.5,0.3-1,0.5-1.4c0.7-1.8,1.7-3.5,3.1-5.2L270,566.1z"/>
				</g>
			</g>
			<g>
				
					<linearGradient id="SVGID_24_" gradientUnits="userSpaceOnUse" x1="102.603" y1="117.5488" x2="148.633" y2="117.5488" gradientTransform="matrix(0.2293 0.7886 -0.7933 0.213 350.5993 455.2501)">
					<stop  offset="0" style="stop-color:#000000"/>
					<stop  offset="1" style="stop-color:#303030"/>
				</linearGradient>
				<path fill-rule="evenodd" clip-rule="evenodd" fill="url(#SVGID_24_)" d="M272.4,591.2c-3.5-3.7-5.2-8-5.1-12.9
					c0.2-4.9,2.1-8.9,5.8-12.2c3.8-3.3,8.3-4.8,13.5-4.5c5.3,0.2,9.6,2.2,13.1,6c3.6,3.6,5.3,7.9,5.1,12.8
					c-0.1,4.9-2.1,9.1-5.9,12.4v-0.1c-3.8,3.2-8.2,4.7-13.5,4.4C280.3,596.8,275.9,594.8,272.4,591.2L272.4,591.2z M273.9,566.9
					L273.9,566.9c-3.5,3-5.4,6.9-5.5,11.5c-0.2,4.7,1.4,8.7,4.8,12.2c3.4,3.4,7.6,5.2,12.5,5.5c5,0.2,9.2-1.1,12.8-4.1
					c3.5-3.1,5.4-7,5.5-11.7c0.1-4.6-1.5-8.6-4.8-12v0c-3.3-3.5-7.5-5.3-12.4-5.6C281.7,562.3,277.4,563.7,273.9,566.9z"/>
			</g>
			<g>
				
					<radialGradient id="SVGID_25_" cx="-76.0713" cy="137.6313" r="18.0389" gradientTransform="matrix(0.82 4.438651e-002 -9.673982e-003 0.3255 348.5727 523.459)" gradientUnits="userSpaceOnUse">
					<stop  offset="0" style="stop-color:#FFFFFF"/>
					<stop  offset="0" style="stop-color:#FFFFFF;stop-opacity:0.498"/>
					<stop  offset="8.627451e-002" style="stop-color:#FFFFFF;stop-opacity:0.498"/>
					<stop  offset="0.302" style="stop-color:#FFFFFF;stop-opacity:0.2"/>
					<stop  offset="0.4902" style="stop-color:#FFFFFF;stop-opacity:8.627451e-002"/>
					<stop  offset="0.6784" style="stop-color:#FFFFFF;stop-opacity:2.745098e-002"/>
					<stop  offset="1" style="stop-color:#FFFFFF;stop-opacity:0"/>
				</radialGradient>
				<path fill-rule="evenodd" clip-rule="evenodd" fill="url(#SVGID_25_)" d="M274.7,560.4c3-1,6.5-1.4,10.4-1.2
					c3.9,0.2,7.4,0.9,10.3,2.3c2.8,1.3,4.2,2.7,4.1,4.2c-0.1,1.7-1.5,2.9-4.4,3.8c-3,1-6.5,1.4-10.4,1.2s-7.4-1-10.3-2.3
					c-2.6-1.2-3.9-2.6-3.9-4.3C270.6,562.5,272,561.3,274.7,560.4z"/>
			</g>
		</g>
		<g>
			<g>
				<polygon fill-rule="evenodd" clip-rule="evenodd" fill="#FFFFFF" points="316,559.2 316,542.1 324.7,550.6 				"/>
			</g>
			<g>
				<polygon fill-rule="evenodd" clip-rule="evenodd" points="316.6,557.8 316.6,543.4 323.8,550.6 				"/>
			</g>
		</g>
		<g>
			<g>
				<polygon fill-rule="evenodd" clip-rule="evenodd" fill="#FFFFFF" points="257.3,559.2 248.6,550.6 257.3,542.1 				"/>
			</g>
			<g>
				<polygon fill-rule="evenodd" clip-rule="evenodd" points="256.7,557.8 249.5,550.6 256.7,543.4 				"/>
			</g>
		</g>
		<g>
			<path fill-rule="evenodd" clip-rule="evenodd" fill="#FFFFFF" d="M284.8,590.2l1.2,0.1l1.5,0v4.4h-2.7V590.2z M284.8,567.1v-3.4
				h2.7v3.4L284.8,567.1z"/>
		</g>
	</g>
	<g>
		<g>
			
				<radialGradient id="SVGID_26_" cx="-38.5615" cy="101.2739" r="11.1914" gradientTransform="matrix(0.7855 -0.2395 0.2 0.8589 349.2479 449.446)" gradientUnits="userSpaceOnUse">
				<stop  offset="0" style="stop-color:#000000;stop-opacity:0.4588"/>
				<stop  offset="0.6039" style="stop-color:#000000;stop-opacity:0.2392"/>
				<stop  offset="1" style="stop-color:#000000;stop-opacity:0"/>
			</radialGradient>
			<path fill-rule="evenodd" clip-rule="evenodd" fill="url(#SVGID_26_)" d="M333.2,538.6c1.6-2,3.5-3.1,5.8-3.2
				c2.3,0,4.3,0.9,5.9,2.8c1.7,2,2.6,4.4,2.6,7.3c0.1,2.8-0.7,5.2-2.2,7.2c-1.6,2.1-3.6,3.1-5.9,3.2c-2.3,0.1-4.2-0.9-5.9-2.8
				c-1.7-2-2.6-4.4-2.7-7.2C330.8,542.9,331.6,540.5,333.2,538.6z"/>
		</g>
		<g>
			<g>
				
					<linearGradient id="SVGID_27_" gradientUnits="userSpaceOnUse" x1="-13.7749" y1="99.1123" x2="-13.7749" y2="116.3873" gradientTransform="matrix(0.8212 0 0 0.8212 350.5995 455.2498)">
					<stop  offset="0" style="stop-color:#575350"/>
					<stop  offset="0.3961" style="stop-color:#54504D"/>
					<stop  offset="1" style="stop-color:#353231"/>
				</linearGradient>
				<path fill-rule="evenodd" clip-rule="evenodd" fill="url(#SVGID_27_)" d="M332.2,543.2l0.3-1.7c0.3-1,0.9-2,1.7-2.8
					c1.4-1.4,3.1-2.1,5-2.1c1.9,0,3.6,0.7,5,2.1c0.9,0.8,1.5,1.7,1.8,2.8l0.3,1.4l0,1c0,1.9-0.8,3.5-2.2,4.8c-1.4,1.4-3,2.1-5,2.1
					c-1.9,0-3.6-0.7-5-2.1c-1.4-1.3-2.1-3-2.1-5V543.2z M344.5,543.7c0-1.4-0.5-2.6-1.5-3.7c-1.1-1-2.3-1.6-3.8-1.6
					c-1.4,0-2.6,0.5-3.7,1.6c-1,1-1.5,2.3-1.5,3.7l0.2,1.1c0,0.8,0.5,1.7,1.4,2.6c1.1,1,2.3,1.6,3.7,1.6c1.5,0,2.7-0.5,3.8-1.6
					c0.9-0.9,1.4-2.1,1.5-3.5V543.7z"/>
				
					<linearGradient id="SVGID_28_" gradientUnits="userSpaceOnUse" x1="-22.4751" y1="102.1504" x2="-5.2251" y2="102.1504" gradientTransform="matrix(0.8212 0 0 0.8212 350.5995 455.2498)">
					<stop  offset="0" style="stop-color:#696971"/>
					<stop  offset="0.1725" style="stop-color:#B0B0B5"/>
					<stop  offset="0.4784" style="stop-color:#888891"/>
					<stop  offset="0.6745" style="stop-color:#787880"/>
					<stop  offset="0.8667" style="stop-color:#F2F2F2"/>
					<stop  offset="1" style="stop-color:#6B6B6F"/>
					<stop  offset="1" style="stop-color:#3B3B40"/>
					<stop  offset="1" style="stop-color:#6B6B6F"/>
				</linearGradient>
				<path fill-rule="evenodd" clip-rule="evenodd" fill="url(#SVGID_28_)" d="M332.2,543.2l0.2-3l0.2-0.8c0.3-0.9,0.9-1.7,1.7-2.5
					c1.4-1.2,3.1-1.8,5-1.8c1.9,0,3.6,0.6,5,1.8c0.9,0.8,1.5,1.6,1.8,2.5l0.2,0.5l0.2,2.9l-0.3-1.4c-0.3-1-0.9-2-1.8-2.8
					c-1.4-1.4-3-2.1-5-2.1c-1.9,0-3.6,0.7-5,2.1c-0.8,0.8-1.4,1.7-1.7,2.8L332.2,543.2z"/>
				
					<radialGradient id="SVGID_29_" cx="-13.8501" cy="107.6997" r="6.7128" gradientTransform="matrix(0.8212 0 0 0.8212 350.5995 455.2498)" gradientUnits="userSpaceOnUse">
					<stop  offset="0" style="stop-color:#000000"/>
					<stop  offset="1" style="stop-color:#2F1A17"/>
				</radialGradient>
				<path fill-rule="evenodd" clip-rule="evenodd" fill="url(#SVGID_29_)" d="M344.5,543.7v0.2c-0.1,1.4-0.6,2.6-1.5,3.5
					c-1.1,1-2.3,1.6-3.8,1.6c-1.4,0-2.6-0.5-3.7-1.6c-0.9-0.9-1.4-1.8-1.4-2.6l-0.2-1.1c0-1.4,0.5-2.6,1.5-3.7
					c1.1-1,2.3-1.6,3.7-1.6c1.5,0,2.7,0.5,3.8,1.6C344,541,344.5,542.3,344.5,543.7z"/>
			</g>
		</g>
		<g>
			
				<radialGradient id="SVGID_30_" cx="-13.8506" cy="107.75" r="7.1128" gradientTransform="matrix(0.8212 0 0 0.8212 350.5995 455.2498)" gradientUnits="userSpaceOnUse">
				<stop  offset="0" style="stop-color:#9A0404"/>
				<stop  offset="0.5059" style="stop-color:#C43020"/>
				<stop  offset="0.8902" style="stop-color:#FFFF00"/>
				<stop  offset="1" style="stop-color:#FFFF00;stop-opacity:0"/>
			</radialGradient>
			<path fill-rule="evenodd" clip-rule="evenodd" fill="url(#SVGID_30_)" d="M335.4,547.5c-1-1-1.5-2.3-1.5-3.7
				c0-1.5,0.5-2.8,1.5-3.8c1.1-1,2.3-1.6,3.8-1.6c1.5,0,2.7,0.5,3.7,1.6c1.1,1,1.6,2.3,1.6,3.8c0,1.5-0.5,2.7-1.6,3.7
				c-1,1.1-2.3,1.6-3.7,1.6C337.7,549.1,336.5,548.5,335.4,547.5z"/>
		</g>
		<g>
			
				<radialGradient id="SVGID_31_" cx="-12.6499" cy="105" r="5.0375" gradientTransform="matrix(0.8212 0 0 0.8212 350.5995 455.2498)" gradientUnits="userSpaceOnUse">
				<stop  offset="0" style="stop-color:#FFFFFF;stop-opacity:0.6941"/>
				<stop  offset="0.1765" style="stop-color:#FFFFFF;stop-opacity:0.5255"/>
				<stop  offset="0.3059" style="stop-color:#FFFFFF;stop-opacity:0.298"/>
				<stop  offset="0.4902" style="stop-color:#FFFFFF;stop-opacity:0.1529"/>
				<stop  offset="0.6667" style="stop-color:#FFFFFF;stop-opacity:8.235294e-002"/>
				<stop  offset="1" style="stop-color:#FFFFFF;stop-opacity:0"/>
			</radialGradient>
			<path fill-rule="evenodd" clip-rule="evenodd" fill="url(#SVGID_31_)" d="M336.2,541.5c0-1.1,0.4-2.1,1.1-2.8
				c0.8-0.8,1.8-1.3,2.9-1.3c1.1,0,2.1,0.4,3,1.3c0.8,0.7,1.1,1.6,1.1,2.8s-0.4,2.1-1.1,2.9c-0.8,0.8-1.8,1.2-3,1.2
				c-1.1,0-2.1-0.4-2.9-1.2C336.6,543.6,336.2,542.6,336.2,541.5z"/>
		</g>
		<g>
			
				<radialGradient id="SVGID_32_" cx="-17.7002" cy="107.8501" r="2.075" gradientTransform="matrix(0.8212 0 0 0.8212 350.5995 455.2498)" gradientUnits="userSpaceOnUse">
				<stop  offset="0" style="stop-color:#FFFFFF"/>
				<stop  offset="0.1765" style="stop-color:#FFFFFF"/>
				<stop  offset="0.3059" style="stop-color:#FFFFFF;stop-opacity:0.4235"/>
				<stop  offset="0.4902" style="stop-color:#FFFFFF;stop-opacity:0.2314"/>
				<stop  offset="0.651" style="stop-color:#FFFFFF;stop-opacity:8.235294e-002"/>
				<stop  offset="1" style="stop-color:#FFFFFF;stop-opacity:0"/>
			</radialGradient>
			<path fill-rule="evenodd" clip-rule="evenodd" fill="url(#SVGID_32_)" d="M334.9,542.7c0.3-0.4,0.7-0.5,1.1-0.5s0.9,0.2,1.2,0.5
				c0.4,0.2,0.6,0.6,0.6,1.1c0,0.5-0.2,0.9-0.6,1.2c-0.3,0.4-0.7,0.5-1.2,0.5s-0.8-0.2-1.1-0.5c-0.3-0.3-0.5-0.7-0.5-1.2
				C334.4,543.3,334.6,543,334.9,542.7z"/>
		</g>
		<g>
			
				<radialGradient id="SVGID_33_" cx="-17.6499" cy="100" r="3.4101" gradientTransform="matrix(0.8044 -0.1656 6.438744e-002 0.3128 343.8631 503.1668)" gradientUnits="userSpaceOnUse">
				<stop  offset="0" style="stop-color:#FFFFFF"/>
				<stop  offset="0.1765" style="stop-color:#FFFFFF"/>
				<stop  offset="0.3059" style="stop-color:#FFFFFF;stop-opacity:0.4235"/>
				<stop  offset="0.4902" style="stop-color:#FFFFFF;stop-opacity:0.2314"/>
				<stop  offset="0.651" style="stop-color:#FFFFFF;stop-opacity:8.235294e-002"/>
				<stop  offset="1" style="stop-color:#FFFFFF;stop-opacity:0"/>
			</radialGradient>
			<path fill-rule="evenodd" clip-rule="evenodd" fill="url(#SVGID_33_)" d="M337.9,536.2c0.6,0.1,0.9,0.3,1,0.5
				c0.1,0.3-0.1,0.6-0.7,0.9c-0.5,0.3-1.1,0.6-1.8,0.7l-2,0.2c-0.5-0.1-0.8-0.4-0.9-0.7c-0.1-0.3,0.1-0.6,0.5-0.9
				c0.5-0.3,1.1-0.6,1.8-0.8L337.9,536.2z"/>
		</g>
		<g>
			
				<radialGradient id="SVGID_34_" cx="-12.3999" cy="99.25" r="5.1054" gradientTransform="matrix(0.8124 0.1201 -4.846019e-002 0.3277 355.2996 505.72)" gradientUnits="userSpaceOnUse">
				<stop  offset="0" style="stop-color:#FFFFFF"/>
				<stop  offset="0.1765" style="stop-color:#FFFFFF"/>
				<stop  offset="0.3059" style="stop-color:#FFFFFF;stop-opacity:0.4235"/>
				<stop  offset="0.4902" style="stop-color:#FFFFFF;stop-opacity:0.2314"/>
				<stop  offset="0.651" style="stop-color:#FFFFFF;stop-opacity:8.235294e-002"/>
				<stop  offset="1" style="stop-color:#FFFFFF;stop-opacity:0"/>
			</radialGradient>
			<path fill-rule="evenodd" clip-rule="evenodd" fill="url(#SVGID_34_)" d="M340.7,535.1c1.1,0.2,2,0.5,2.8,1
				c0.8,0.4,1.1,0.9,1.1,1.3c-0.1,0.5-0.5,0.8-1.4,1c-0.9,0.2-1.9,0.2-3,0c-1.1-0.1-2-0.4-2.8-0.9c-0.7-0.4-1-0.9-0.9-1.4
				c0.1-0.4,0.5-0.8,1.3-0.9L340.7,535.1z"/>
		</g>
		<g>
			
				<radialGradient id="SVGID_35_" cx="-14.0498" cy="107.1001" r="19.4375" gradientTransform="matrix(0.8212 0 0 0.7795 350.5995 459.7181)" gradientUnits="userSpaceOnUse">
				<stop  offset="0" style="stop-color:#FFFF00;stop-opacity:0"/>
				<stop  offset="0.4275" style="stop-color:#FFFF00;stop-opacity:0"/>
				<stop  offset="0.4863" style="stop-color:#FFFF00;stop-opacity:0.2392"/>
				<stop  offset="0.5412" style="stop-color:#FFFF00;stop-opacity:0.2902"/>
				<stop  offset="0.698" style="stop-color:#FFFF00;stop-opacity:0"/>
				<stop  offset="1" style="stop-color:#FFFF00;stop-opacity:0"/>
			</radialGradient>
			<path fill-rule="evenodd" clip-rule="evenodd" fill="url(#SVGID_35_)" d="M329.8,542.4c2.7-2.7,5.9-4,9.8-4c3.8,0,7.1,1.3,9.8,4
				c2.7,2.7,4,5.9,4,9.8s-1.3,7.1-4,9.7c-2.7,2.7-6,4.1-9.8,4.1c-3.8,0-7.1-1.4-9.8-4.1c-2.7-2.7-4-5.9-4-9.7
				S327.1,545.1,329.8,542.4z"/>
		</g>
	</g>
	<g>
		<g>
			<g>
				<path fill-rule="evenodd" clip-rule="evenodd" fill-opacity="8.627451e-002" d="M560,519.8v4c-5.3,1.5-11.2,3-17.7,4.4
					c-82.6,22-119.4,48.5-110.5,79.6c5,16.9,3.7,29.9-3.9,38.8c-7.4,9-20.9,14-40.7,15c-39.2,2-60.8-1-64.8-9
					c-4.2-7.7-6.2-12.9-6-15.5c0-0.5,0.2-1,0.6-1.4c0.4-0.4,0.8-0.5,1.4-0.5c0.5,0,0.9,0.2,1.3,0.6c0.4,0.4,0.5,0.8,0.5,1.4
					c0,2.2,1.8,6.8,5.5,13.5c3.8,6.6,24.2,8.9,61.2,7c18.3-1,31-5.5,37.9-13.6c6.7-8.2,7.7-20,3.2-35.3
					c-10.2-33.5,27.5-61.6,113.2-84.3l0.1,0C548.3,523,554.4,521.5,560,519.8z"/>
			</g>
		</g>
		<g>
			<path fill-rule="evenodd" clip-rule="evenodd" fill="#930000" d="M557,517.2v4.3c-5.3,1.5-11.1,3-17.5,4.4
				c-82.5,22.2-119.7,47.2-111.7,75.1c5.4,18.3,5.2,32.3-0.5,42.3c-5.7,10.2-17,16-33.9,17.6c-33.8,3.2-51.8-4.8-54.2-23.9
				c-1.1-8.3-3.4-14.1-6.7-17.4c-3.2-2.9-7.4-3.5-12.6-1.8l-1.6-0.1c-0.5-0.3-0.9-0.7-1-1.2c-0.2-0.5-0.2-1.1,0.1-1.6
				c0.2-0.5,0.6-0.9,1.2-1c7-2.3,12.6-1.4,16.7,2.7c4,3.7,6.7,10.3,8,19.8c2.5,16.5,19.1,23.3,49.7,20.4
				c15.2-1.5,25.5-6.6,30.7-15.6c5.1-9.2,5.2-22.2,0.2-39c-9.3-30.4,28.9-57.1,114.6-80.2l0.1,0C545.3,520.4,551.5,518.8,557,517.2z
				"/>
		</g>
		<g>
			<g>
				
					<radialGradient id="SVGID_36_" cx="167.1001" cy="115.1499" r="78.1625" gradientTransform="matrix(0.8212 0 0 0.8212 350.5995 455.2498)" gradientUnits="userSpaceOnUse">
					<stop  offset="0" style="stop-color:#FFFFFF"/>
					<stop  offset="1" style="stop-color:#FFFFFF;stop-opacity:0"/>
				</radialGradient>
				<path fill-rule="evenodd" clip-rule="evenodd" fill="url(#SVGID_36_)" d="M551.8,521.4l-0.2,0.2c-61,13.6-101.7,31.8-122.1,54.7
					l-0.2,0.2l-0.2-0.1l-0.1-0.2l0.1-0.2c20.4-22.9,61.2-41.2,122.4-54.9l0.2,0l0.2,0.2L551.8,521.4z"/>
				
					<radialGradient id="SVGID_37_" cx="41.9502" cy="233.2998" r="46.8625" gradientTransform="matrix(0.8212 0 0 0.8212 350.5995 455.2498)" gradientUnits="userSpaceOnUse">
					<stop  offset="0" style="stop-color:#FFFFFF"/>
					<stop  offset="1" style="stop-color:#FFFFFF;stop-opacity:0"/>
				</radialGradient>
				<path fill-rule="evenodd" clip-rule="evenodd" fill="url(#SVGID_37_)" d="M418.7,650.7l-0.2,0.2c-22.8,11.9-46.2,12.4-70.2,1.6
					l-0.2-0.2V652c0-0.1,0.1-0.1,0.2-0.2h0.2c23.8,10.8,47,10.3,69.6-1.5l0.2-0.1l0.2,0.2V650.7z"/>
			</g>
		</g>
	</g>
	<g>
		<g>
			<path fill-rule="evenodd" clip-rule="evenodd" fill-opacity="8.627451e-002" d="M208.9,296.8v4l-3.2,0.6
				c-8.2,1.7-12.3,5.1-12.4,10.2c0.4,11.9-10.3,23.3-32,34.3l-0.1,0c-9.3,3.8-15,7.6-17.2,11.6c-1.7,3.5-0.3,7.2,4.1,11l0.1,0
				c5.1,4.8,6.2,10.6,3,17.2c-2.8,6-9.3,12.8-19.5,20.3l-0.1,0c-12.5,8.1-20,19.8-22.5,35.2l0,0.1C90.5,517.2,78.9,572,74.3,605.7
				l0,0.2c-5.6,19.6-1.6,33.9,12.1,42.9c14.1,9,38.3,12.9,72.6,11.5h0.2c31.3,1,53.5,0,66.7-3.1c11.8-2.8,17.3-7.7,16.7-14.7l0-0.3
				c0.6-12.8,2.7-21.6,6.2-26.3c2.7-3.9,6.3-5.5,10.7-4.7v4c-3.1-0.7-5.7,0.3-7.6,2.9c-3.1,4.4-4.9,12.5-5.4,24.2
				c1.3,9-5.2,15.2-19.6,18.6c-13.3,3.2-35.8,4.3-67.5,3.3h-0.2c-35.3,1.4-60.2-2.7-74.7-12.2c-15.2-9.8-19.8-25.5-13.7-47
				c4.7-33.8,16.3-88.6,34.9-164.4c2.8-16.4,10.9-29,24.2-37.6l-0.1,0c9.5-7,15.6-13.3,18.3-18.8c2.3-4.9,1.5-9.1-2.2-12.7l0,0
				c-6.2-5.4-7.8-10.6-5-15.6c2.4-4.7,8.7-9.1,19.2-13.3c19.8-10.1,29.7-20.3,29.8-30.8c1.8-7.2,6.9-11.9,15.5-14L208.9,296.8z"/>
			<g>
				<g>
					
						<radialGradient id="SVGID_38_" cx="-191" cy="-221.4995" r="26.2995" gradientTransform="matrix(0.8212 0 0 0.8236 350.5995 455.7686)" gradientUnits="userSpaceOnUse">
						<stop  offset="0" style="stop-color:#FFFFFF"/>
						<stop  offset="1" style="stop-color:#FFFFFF;stop-opacity:7.843138e-003"/>
					</radialGradient>
					<path fill-rule="evenodd" clip-rule="evenodd" fill="url(#SVGID_38_)" d="M200.7,252.9l-0.2,0.2c-11.8,2.3-16.1,15.8-13,40.7
						l-0.1,0.3l-0.2,0.2l-0.2-0.1l-0.2-0.2c-3.2-25.5,1.4-39.3,13.6-41.5l0.2,0l0.2,0.2L200.7,252.9z"/>
					
						<radialGradient id="SVGID_39_" cx="-240.3999" cy="-130.3999" r="15.9125" gradientTransform="matrix(0.8212 0 0 0.8231 350.5995 455.5022)" gradientUnits="userSpaceOnUse">
						<stop  offset="0" style="stop-color:#FFFFFF"/>
						<stop  offset="1" style="stop-color:#FFFFFF;stop-opacity:7.843138e-003"/>
					</radialGradient>
					<path fill-rule="evenodd" clip-rule="evenodd" fill="url(#SVGID_39_)" d="M160.7,337.4l-0.1,0.2c-12.5,6.1-17.3,13.2-14.3,21.4
						v0.2l-0.2,0.2h-0.3l-0.2-0.2c-3.2-8.5,1.7-16,14.7-22.3l0.3,0l0.2,0.2V337.4z"/>
					
						<radialGradient id="SVGID_40_" cx="-270.5498" cy="-59.6499" r="24.45" gradientTransform="matrix(0.8212 0 0 0.8233 350.5995 455.3751)" gradientUnits="userSpaceOnUse">
						<stop  offset="0" style="stop-color:#FFFFFF"/>
						<stop  offset="1" style="stop-color:#FFFFFF;stop-opacity:7.843138e-003"/>
					</radialGradient>
					<path fill-rule="evenodd" clip-rule="evenodd" fill="url(#SVGID_40_)" d="M140.5,392.2l0.3,0l0.2,0.2l0,0.3l-0.2,0.2
						c-13.2,8.3-21.4,18.1-24.7,29.2l-0.1,0.2h-0.3l-0.2-0.1l0-0.3C118.7,410.5,127.1,400.7,140.5,392.2z"/>
					
						<radialGradient id="SVGID_41_" cx="-312.625" cy="73.6504" r="88.144" gradientTransform="matrix(0.8212 0 0 0.8233 350.5995 455.0955)" gradientUnits="userSpaceOnUse">
						<stop  offset="0" style="stop-color:#FFFFFF"/>
						<stop  offset="1" style="stop-color:#FFFFFF;stop-opacity:7.843138e-003"/>
					</radialGradient>
					<path fill-rule="evenodd" clip-rule="evenodd" fill="url(#SVGID_41_)" d="M110.1,444.7l0,0.3c-12,46.9-22.7,94.1-31.9,141.6
						l-0.2,0.2l-0.2,0.1l-0.2-0.2l0-0.2c9.3-47.5,19.9-94.7,31.9-141.7c0-0.1,0-0.2,0.1-0.2l0.3,0L110.1,444.7z"/>
					
						<radialGradient id="SVGID_42_" cx="-130.5498" cy="196.7998" r="18.4625" gradientTransform="matrix(0.8212 0 0 0.8234 350.5995 454.8122)" gradientUnits="userSpaceOnUse">
						<stop  offset="0" style="stop-color:#FFFFFF"/>
						<stop  offset="1" style="stop-color:#FFFFFF;stop-opacity:7.843138e-003"/>
					</radialGradient>
					<path fill-rule="evenodd" clip-rule="evenodd" fill="url(#SVGID_42_)" d="M256.2,610.6H256c-4.7-1.3-8.5-0.1-11.7,3.7
						c-3.2,3.9-5.6,10.4-7.2,19.5l-0.2,0.2l-0.3,0.1l-0.2-0.1l-0.1-0.3c1.7-9.3,4.1-15.9,7.4-19.8c3.3-4,7.4-5.3,12.4-3.9l0.2,0.2
						v0.2L256.2,610.6z"/>
					
						<radialGradient id="SVGID_43_" cx="-193.5498" cy="236.75" r="48.725" gradientTransform="matrix(0.8212 0 0 0.8231 350.5995 454.801)" gradientUnits="userSpaceOnUse">
						<stop  offset="0" style="stop-color:#FFFFFF"/>
						<stop  offset="1" style="stop-color:#FFFFFF;stop-opacity:7.843138e-003"/>
					</radialGradient>
					<path fill-rule="evenodd" clip-rule="evenodd" fill="url(#SVGID_43_)" d="M152.1,656.7c0.1-0.1,0.1-0.1,0.2-0.1
						c47.4,1.3,74.7-3.7,81.8-15.1c0-0.1,0.1-0.2,0.2-0.2l0.2,0.1l0.2,0.2l0,0.2c-7.1,11.6-34.6,16.7-82.4,15.4l-0.2-0.1l-0.1-0.2
						L152.1,656.7z"/>
					
						<radialGradient id="SVGID_44_" cx="-299.2754" cy="223.2998" r="39.8183" gradientTransform="matrix(0.8212 0 0 0.8233 350.5995 454.7895)" gradientUnits="userSpaceOnUse">
						<stop  offset="0" style="stop-color:#FFFFFF"/>
						<stop  offset="1" style="stop-color:#FFFFFF;stop-opacity:7.843138e-003"/>
					</radialGradient>
					<path fill-rule="evenodd" clip-rule="evenodd" fill="url(#SVGID_44_)" d="M132.9,657.9l-0.2,0.1c-34.4-1.7-53-13.8-56-36.5
						l0-0.2c0.1-0.1,0.1-0.1,0.2-0.1l0.3,0l0.1,0.2c3,22.3,21.4,34.2,55.3,35.8l0.2,0.1l0.1,0.3L132.9,657.9z"/>
				</g>
			</g>
		</g>
		<g>
			<g>
				<path fill-rule="evenodd" clip-rule="evenodd" d="M114.5,434.4l0,0.2c-19.5,77.3-31.4,133-35.8,167.1
					c-2.7,19.5,2.3,33.8,15.1,42.7c13.3,9.1,34.7,12.6,64.1,10.8h0.1c48.5-0.5,73.7-6.2,75.6-17.2c1.9-12.9,5-21.8,9-26.5
					c4.5-5.6,10.3-6.5,17.2-2.5c0.5,0.3,0.9,0.8,1.1,1.4c0.2,0.6,0.1,1.2-0.2,1.8c-0.3,0.5-0.8,0.9-1.4,1.1
					c-0.6,0.2-1.2,0.1-1.8-0.2c-4.5-2.5-8.2-2.1-11.2,1.4c-3.5,4.4-6.2,12.4-8,24.1c-1.5,13.7-28.3,20.8-80.2,21.3
					c-30.8,1.9-53.2-1.9-67.1-11.5C76.7,638.6,71,622.8,74,601.1c4.4-34.2,16.3-90,35.8-167.5c2.2-14.9,9-27.4,20.4-37.3l0.2-0.1
					c17.3-13.6,22.3-25,15.1-34.3l-0.2-0.3c-3.1-5.1-3.4-10-0.7-14.7c2.3-4.3,7.2-8.3,14.7-12h0c18.9-9.8,27.3-25.9,25.2-48.3
					c-1.1-12.5,0.3-21.8,4.4-27.8c4.1-6.5,11-9.5,20.7-9.2c0.6,0,1.2,0.3,1.7,0.8c0.4,0.5,0.6,1,0.6,1.7c0,0.7-0.3,1.2-0.8,1.7
					c-0.5,0.4-1,0.6-1.7,0.6c-7.6-0.3-13.1,2.1-16.5,7c-3.4,5.4-4.7,13.7-3.6,24.8c2.2,24.6-7,42.2-27.8,53
					c-6.4,3.2-10.6,6.5-12.6,10.1c-1.6,3.1-1.5,6.3,0.5,9.7c9.7,11.4,4.5,25.1-15.8,40.9C122.8,409,116.6,420.6,114.5,434.4z"/>
				<path fill-rule="evenodd" clip-rule="evenodd" fill="none" d="M242.7,611.5c-4.1,4.7-7.1,13.5-9,26.5
					c-1.9,11-27.1,16.7-75.6,17.2h-0.1c-29.4,1.9-50.8-1.7-64.1-10.8C81,635.5,76,621.3,78.7,601.7c4.4-34.1,16.3-89.8,35.8-167.1
					l0-0.2"/>
			</g>
		</g>
		<g>
			<g>
				
					<radialGradient id="SVGID_45_" cx="-219.3501" cy="-0.3501" r="115.175" gradientTransform="matrix(0.8212 0 0 1.7891 350.5995 455.5887)" gradientUnits="userSpaceOnUse">
					<stop  offset="0" style="stop-color:#FFFFFF"/>
					<stop  offset="1" style="stop-color:#FFFFFF;stop-opacity:0"/>
				</radialGradient>
				<path fill-rule="evenodd" clip-rule="evenodd" fill="url(#SVGID_45_)" d="M192.4,258.2c0.1,0.1,0.2,0.2,0.2,0.4
					c0,0.2,0,0.3-0.1,0.5c-4,5.9-5.5,15.1-4.4,27.4c2,21-5.1,36.5-21.3,46.5c-1.3,0.8-2.7,1.6-4.1,2.3c0,0-0.1,0.1-0.1,0.1
					c-7.4,3.6-12.2,7.5-14.4,11.7v0c-2.5,4.4-2.3,9.1,0.7,14l0,0l0.2,0.3c7.6,9.6,2.5,21.3-15.2,35.2c-0.1,0-0.1,0.1-0.1,0.1h0
					c-11.3,9.9-18,22.2-20.2,36.9c0,0,0,0.1,0,0.1c-11.8,46.9-20.9,86-27.1,117c-0.1,0.2-0.1,0.3-0.2,0.4c-0.2,0.1-0.3,0.1-0.5,0.1
					c-0.2-0.1-0.3-0.1-0.4-0.2c-0.1-0.2-0.1-0.3-0.1-0.5c6.2-31.1,15.2-70.1,27.1-117c2.2-15.1,9.1-27.6,20.6-37.7
					c0.1-0.1,0.1-0.1,0.2-0.1l0,0h0c16.9-13.2,21.9-24.4,14.9-33.5l-0.2-0.3l0,0c-3.3-5.4-3.5-10.5-0.7-15.3
					c2.3-4.3,7.2-8.4,14.7-12.2c0-0.1,0.1-0.1,0.1-0.1c1.4-0.7,2.8-1.5,4.1-2.3v0c15.7-9.8,22.7-24.9,20.7-45.4
					c-1.2-12.7,0.3-22.1,4.6-28.3c0.1-0.1,0.2-0.2,0.4-0.2C192,258.1,192.2,258.1,192.4,258.2z M82.4,572.6
					c-0.1,0.1-0.1,0.2-0.2,0.2c-0.1,0.1-0.3,0.1-0.5,0.1c-0.2,0-0.3-0.1-0.4-0.2c-0.1-0.1-0.2-0.3-0.1-0.5c0.5-3,1.1-6.1,1.7-9.2
					c0-0.2,0.1-0.3,0.2-0.4c0.1-0.1,0.3-0.1,0.5-0.1c0.2,0,0.3,0.1,0.4,0.2c0.1,0.1,0.1,0.3,0.1,0.5c-0.6,3.1-1.2,6.2-1.7,9.2
					C82.5,572.5,82.5,572.5,82.4,572.6L82.4,572.6z"/>
				
					<radialGradient id="SVGID_46_" cx="-268.0498" cy="222.5498" r="103.775" gradientTransform="matrix(0.8212 0 0 0.4273 350.5995 542.9099)" gradientUnits="userSpaceOnUse">
					<stop  offset="0" style="stop-color:#FFFFFF"/>
					<stop  offset="1" style="stop-color:#FFFFFF;stop-opacity:0"/>
				</radialGradient>
				<path fill-rule="evenodd" clip-rule="evenodd" fill="url(#SVGID_46_)" d="M244.7,611.6c0.2,0,0.3,0,0.5,0.1
					c0.1,0.1,0.2,0.2,0.2,0.4s0,0.3-0.1,0.5c-3.4,4.3-6,12.3-7.7,23.8c-1,9.9-14.2,16.5-39.9,19.6c-10.8,1.3-23.8,2.1-39,2.2h0
					c-30.2,1.9-52.2-1.9-65.9-11.6c-13.3-9.2-19.1-23.6-17.5-43.2c0.1-1.6,0.3-3.1,0.5-4.8c1-7.7,2.3-16.6,4.1-26.5
					c0,0.2,0,0.3,0.1,0.4c0.1,0.1,0.2,0.2,0.4,0.2s0.3,0,0.5-0.1c0.1-0.1,0.2-0.2,0.2-0.4c-1.8,9.9-3.1,18.7-4.1,26.4
					c-0.2,1.6-0.4,3.1-0.5,4.7v0c-1.5,19,4.1,33,17,42c13.6,9.6,35.3,13.4,65.2,11.4h0c15.2-0.1,28.2-0.9,38.9-2.2
					c24.8-3.1,37.7-9.2,38.8-18.5v0c1.8-11.9,4.4-20,7.9-24.4C244.4,611.7,244.5,611.6,244.7,611.6z M82.4,572.6
					c-0.1,0.1-0.1,0.3-0.1,0.5c0,0.2-0.1,0.3-0.2,0.4s-0.3,0.2-0.5,0.1s-0.3-0.1-0.4-0.2c-0.1-0.1-0.2-0.3-0.1-0.5
					c0-0.2,0.1-0.4,0.2-0.7c0,0.2,0,0.3,0.1,0.5c0.1,0.1,0.2,0.2,0.4,0.2c0.2,0,0.3,0,0.5-0.1C82.3,572.8,82.4,572.7,82.4,572.6z"/>
			</g>
		</g>
	</g>
	<g>
		<g>
			
				<radialGradient id="SVGID_47_" cx="-28.4478" cy="200.2998" r="22.9625" gradientTransform="matrix(0.8212 0 -7.152643e-002 0.9272 352.2366 434.0284)" gradientUnits="userSpaceOnUse">
				<stop  offset="0" style="stop-color:#000000;stop-opacity:0.8"/>
				<stop  offset="0.7412" style="stop-color:#000000;stop-opacity:0.4431"/>
				<stop  offset="0.9804" style="stop-color:#000000;stop-opacity:0"/>
			</radialGradient>
			<path fill-rule="evenodd" clip-rule="evenodd" fill="url(#SVGID_47_)" d="M301.7,601.3c4.5-4.6,9.8-6.9,15.7-6.9l2.2,0.1
				c4.9,0.5,9.1,2.7,12.4,6.7c2,2.3,3.4,4.9,4.2,7.7c0.8,2.8,1.1,5.9,0.9,9.1c-0.5,6.5-3.1,12.1-7.6,16.7c-4,4.1-8.5,6.3-13.5,6.8
				l-2.2,0.2c-5.9,0-10.8-2.3-14.7-7c-3.8-4.7-5.5-10.2-5-16.7l0.2-2.4C295.2,610.3,297.7,605.4,301.7,601.3z"/>
		</g>
		<g>
			<path fill-rule="evenodd" clip-rule="evenodd" d="M309.7,603.2c2.6-2.6,5.7-3.9,9.4-3.9c3.7,0,6.9,1.3,9.6,3.9
				c2.7,2.6,4.2,5.7,4.3,9.3c0.1,3.6-1.1,6.7-3.6,9.3c-2.6,2.6-5.7,3.9-9.4,3.9c-3.7,0-7-1.3-9.7-3.9c-2.7-2.6-4.2-5.7-4.3-9.3
				C306,608.9,307.2,605.8,309.7,603.2z"/>
		</g>
		<g>
			<g>
				<path fill-rule="evenodd" clip-rule="evenodd" d="M307.2,613.7c0.2-1.3,0.5-2.6,1-3.8c0.6-1.2,1.3-2.2,2.3-3.2
					c2.4-2.5,5.3-3.7,8.7-3.7c3.4,0,6.4,1.2,9,3.7c2.4,2.3,3.8,5.1,4,8.5v0.4l0,0.3l-0.1,1c-0.2,2.9-1.3,5.4-3.3,7.5
					c-2.4,2.5-5.3,3.7-8.7,3.7c-3.4,0-6.4-1.2-9-3.7c-1-1-1.8-2-2.5-3.2c-0.9-1.7-1.4-3.6-1.5-5.7L307.2,613.7z"/>
				
					<linearGradient id="SVGID_48_" gradientUnits="userSpaceOnUse" x1="-60.0088" y1="186.0244" x2="-29.5391" y2="186.0244" gradientTransform="matrix(0.8212 0 3.045867e-002 0.8212 350.5995 455.2498)">
					<stop  offset="0" style="stop-color:#222222"/>
					<stop  offset="0.3294" style="stop-color:#222222"/>
					<stop  offset="0.5255" style="stop-color:#4D4D4D"/>
					<stop  offset="0.6627" style="stop-color:#222222"/>
					<stop  offset="1" style="stop-color:#222222"/>
				</linearGradient>
				<path fill-rule="evenodd" clip-rule="evenodd" fill="url(#SVGID_48_)" d="M307.2,613.7l0.3-3.7l0.7-2.1c0.6-1.2,1.4-2.4,2.4-3.4
					c2.4-2.4,5.3-3.7,8.7-3.7c3.4,0,6.4,1.2,9,3.7c2.6,2.5,3.9,5.4,4,8.9l0,1.9c-0.2-3.3-1.6-6.1-4-8.5c-2.5-2.5-5.5-3.7-9-3.7
					c-3.4,0-6.4,1.2-8.7,3.7c-0.9,1-1.7,2-2.3,3.2C307.7,611.1,307.4,612.4,307.2,613.7z"/>
			</g>
		</g>
		<g>
			<g>
				<path fill-rule="evenodd" clip-rule="evenodd" fill="#1C1F20" d="M331.1,614.6l0,0.6l0.8,9.8l-0.4-1.5l-0.9-2.1
					c-0.6-1.1-1.4-2.1-2.4-3l-2.8-2c-1.7-0.9-3.6-1.3-5.8-1.3l-2.7,0.2c-2.2,0.4-4.1,1.5-5.7,3l-1.2,1.4c-0.7,1-1.3,2-1.6,3.1
					l-0.2,0.9l-0.2,1.8l0.2-13.1l0.1-0.5c0.5-1.6,1.4-3.1,2.8-4.4c2.2-2.1,4.9-3.2,8.1-3.2c3.2,0,5.9,1.1,8.3,3.2
					c2.1,1.9,3.3,4.1,3.6,6.6V614.6z"/>
				
					<path fill-rule="evenodd" clip-rule="evenodd" fill="none" stroke="#000000" stroke-linecap="round" stroke-linejoin="round" stroke-miterlimit="3" d="
					M331.1,614.6v-0.5c-0.4-2.5-1.6-4.7-3.6-6.6c-2.4-2.1-5.1-3.2-8.3-3.2c-3.2,0-5.9,1.1-8.1,3.2c-1.3,1.3-2.3,2.8-2.8,4.4
					l-0.1,0.5l-0.2,13.1 M331.1,615.2V615l0-0.4"/>
			</g>
		</g>
		<g>
			<g>
				
					<linearGradient id="SVGID_49_" gradientUnits="userSpaceOnUse" x1="187.8911" y1="45.2432" x2="214.0843" y2="45.2432" gradientTransform="matrix(3.056839e-002 0.8206 -0.8218 2.804714e-005 350.5995 455.2501)">
					<stop  offset="0" style="stop-color:#4E4D5E"/>
					<stop  offset="1" style="stop-color:#0C0C0E"/>
				</linearGradient>
				<path fill-rule="evenodd" clip-rule="evenodd" fill="url(#SVGID_49_)" d="M316.6,612.3l2.7-0.2c2.2,0,4.1,0.4,5.8,1.3l2.8,2
					c1,0.9,1.8,1.9,2.5,3l0.9,2.1l0.3,1.5l0.1,1.4c0.1,3.1-1,5.8-3.2,8c-1.3,1.3-2.9,2.3-4.7,2.8c-1.1,0.3-2.3,0.5-3.7,0.5l-1,0
					c-2.8-0.2-5.4-1.3-7.6-3.3l-1.3-1.4c-1.6-1.8-2.4-4-2.5-6.7l0-0.9c0-0.6,0.1-1.2,0.2-1.8l0.2-0.9c0.3-1.1,0.8-2.1,1.5-3.1
					l1.2-1.4C312.5,613.8,314.4,612.7,316.6,612.3z"/>
				
					<path fill-rule="evenodd" clip-rule="evenodd" fill="none" stroke="#000000" stroke-linecap="round" stroke-linejoin="round" stroke-miterlimit="3" d="
					M316.6,612.3l2.7-0.2c2.2,0,4.1,0.4,5.8,1.3l2.8,2c1,0.9,1.8,1.9,2.5,3l0.9,2.1l0.3,1.5l0.1,1.4c0.1,3.1-1,5.8-3.2,8
					c-1.3,1.3-2.9,2.3-4.7,2.8c-1.1,0.3-2.3,0.5-3.7,0.5l-1,0c-2.8-0.2-5.4-1.3-7.6-3.3l-1.3-1.4c-1.6-1.8-2.4-4-2.5-6.7l0-0.9
					c0-0.6,0.1-1.2,0.2-1.8l0.2-0.9c0.3-1.1,0.8-2.1,1.5-3.1l1.2-1.4C312.5,613.8,314.4,612.7,316.6,612.3z"/>
			</g>
		</g>
		<g>
			<path fill-rule="evenodd" clip-rule="evenodd" fill="#FFFFFF" fill-opacity="8.627451e-002" d="M328.8,608.9l0.8,8.1l-0.9-1
				l-0.7-7.4l0.1-0.2c0.1-0.1,0.1-0.1,0.2-0.1L328.8,608.9z M326.6,614.4l-0.8-0.6l-0.5-7.8l0.8,0.5L326.6,614.4z M319.2,604.4h0.8
				l0.2,7.7h-0.8L319.2,604.4z M322.3,604.8l0.8,0.2l0.5,7.7l-0.9-0.2L322.3,604.8z M309.6,609.4l0.8-1.1l-0.1,7.8l-0.2,0.2
				l-0.4,0.5l-0.2,0.3L309.6,609.4z M316.3,604.7l0.7-0.2l0.1,7.7l-0.5,0l-0.2,0.1L316.3,604.7z M312.9,606.1l0.7-0.5l0,7.8
				l-0.8,0.5L312.9,606.1z"/>
		</g>
		<g>
			<path fill-rule="evenodd" clip-rule="evenodd" fill-opacity="0.6196" d="M328.5,608.6l0.8,1.1l0.7,8.1l-0.9-1.2l-0.7-7.9
				L328.5,608.6z M322.7,604.9l0.8,0.2l0.5,7.7l-0.8-0.2L322.7,604.9z M319.6,604.4l0.7,0l0.2,7.7l-0.8,0L319.6,604.4z M325.7,606.2
				l0.8,0.6l0.5,7.9l-0.8-0.6L325.7,606.2z M316.8,612.3v-7.7l0.7-0.1l0,7.7L316.8,612.3z M310.8,607.8l-0.1,7.8l-0.7,0.7l-0.1,0.2
				l0.1-7.8L310.8,607.8z M313.4,605.8c0.2-0.1,0.5-0.3,0.8-0.4l-0.1,7.7l-0.8,0.4L313.4,605.8z"/>
		</g>
		<g>
			
				<linearGradient id="SVGID_50_" gradientUnits="userSpaceOnUse" x1="169.3955" y1="105.0928" x2="196.0707" y2="105.0928" gradientTransform="matrix(0.2801 0.772 -0.7801 0.2578 350.5993 455.25)">
				<stop  offset="0" style="stop-color:#000000"/>
				<stop  offset="1" style="stop-color:#303030"/>
			</linearGradient>
			<path fill-rule="evenodd" clip-rule="evenodd" fill="url(#SVGID_50_)" d="M319.4,613.1c3,0,5.6,1,7.8,3c2.2,2,3.3,4.4,3.4,7.2
				c0.1,2.9-0.8,5.3-2.9,7.3v0c-2.1,2-4.6,3-7.6,3c-3,0-5.6-1-7.8-3v0c-2.2-2-3.3-4.4-3.4-7.3c-0.1-2.8,0.8-5.2,2.9-7.2
				C313.9,614.1,316.4,613.1,319.4,613.1z M312.2,616.6L312.2,616.6c-1.9,1.8-2.8,4.1-2.7,6.8c0.1,2.7,1.2,5,3.2,6.9
				c2.1,1.9,4.6,2.8,7.4,2.8c2.9,0,5.2-0.9,7.1-2.8c2-1.9,2.9-4.2,2.8-6.9c-0.1-2.7-1.2-4.9-3.3-6.8v0c-2-1.9-4.4-2.8-7.3-2.8
				C316.6,613.7,314.2,614.7,312.2,616.6z"/>
		</g>
		<g>
			
				<radialGradient id="SVGID_51_" cx="-44.4282" cy="175.4004" r="10.3748" gradientTransform="matrix(0.8212 0 1.187296e-002 0.3265 353.7546 542.0215)" gradientUnits="userSpaceOnUse">
				<stop  offset="0" style="stop-color:#FFFFFF"/>
				<stop  offset="0" style="stop-color:#FFFFFF;stop-opacity:0.498"/>
				<stop  offset="8.627451e-002" style="stop-color:#FFFFFF;stop-opacity:0.498"/>
				<stop  offset="0.302" style="stop-color:#FFFFFF;stop-opacity:0.2"/>
				<stop  offset="0.4902" style="stop-color:#FFFFFF;stop-opacity:8.627451e-002"/>
				<stop  offset="0.6784" style="stop-color:#FFFFFF;stop-opacity:2.745098e-002"/>
				<stop  offset="1" style="stop-color:#FFFFFF;stop-opacity:0"/>
			</radialGradient>
			<path fill-rule="evenodd" clip-rule="evenodd" fill="url(#SVGID_51_)" d="M311.1,599.3c-0.1-0.9,0.7-1.7,2.2-2.3
				c1.7-0.7,3.6-1,5.9-1c2.3,0,4.3,0.3,6,1c1.7,0.6,2.5,1.4,2.6,2.3c0,0.9-0.8,1.7-2.4,2.3c-1.6,0.7-3.6,1-5.9,1c-2.3,0-4.3-0.3-6-1
				C311.9,601,311.1,600.2,311.1,599.3z"/>
		</g>
		<g>
			
				<radialGradient id="SVGID_52_" cx="-46.1284" cy="194.6499" r="10.375" gradientTransform="matrix(0.8212 0 1.187296e-002 0.3265 354.1009 551.5444)" gradientUnits="userSpaceOnUse">
				<stop  offset="0" style="stop-color:#FFFFFF"/>
				<stop  offset="0" style="stop-color:#FFFFFF;stop-opacity:0.498"/>
				<stop  offset="8.627451e-002" style="stop-color:#FFFFFF;stop-opacity:0.498"/>
				<stop  offset="0.302" style="stop-color:#FFFFFF;stop-opacity:0.2"/>
				<stop  offset="0.4902" style="stop-color:#FFFFFF;stop-opacity:8.627451e-002"/>
				<stop  offset="0.6784" style="stop-color:#FFFFFF;stop-opacity:2.745098e-002"/>
				<stop  offset="1" style="stop-color:#FFFFFF;stop-opacity:0"/>
			</radialGradient>
			<path fill-rule="evenodd" clip-rule="evenodd" fill="url(#SVGID_52_)" d="M310.3,615.1c0-0.9,0.7-1.7,2.2-2.3
				c1.7-0.7,3.6-1,5.9-1c2.3,0,4.3,0.3,6,1c1.7,0.6,2.6,1.4,2.6,2.3c0,1-0.8,1.8-2.4,2.4c-1.6,0.7-3.6,1-5.9,1c-2.3,0-4.3-0.3-6-1
				C311.1,616.9,310.3,616.1,310.3,615.1z"/>
		</g>
	</g>
	<g>
		<g>
			
				<radialGradient id="SVGID_53_" cx="-96.8579" cy="200.2998" r="22.9625" gradientTransform="matrix(0.8212 0 -0.1055 0.9272 353.014 434.0284)" gradientUnits="userSpaceOnUse">
				<stop  offset="0" style="stop-color:#000000;stop-opacity:0.8"/>
				<stop  offset="0.7412" style="stop-color:#000000;stop-opacity:0.4431"/>
				<stop  offset="0.9804" style="stop-color:#000000;stop-opacity:0"/>
			</radialGradient>
			<path fill-rule="evenodd" clip-rule="evenodd" fill="url(#SVGID_53_)" d="M240.1,601.3c4.7-4.6,10.1-6.9,16-6.9l2.2,0.1
				c4.9,0.5,8.9,2.7,12.1,6.7c1.9,2.3,3.2,4.9,3.9,7.7c0.7,2.8,0.9,5.9,0.5,9.1c-0.7,6.5-3.5,12.1-8.3,16.7
				c-4.1,4.1-8.7,6.3-13.7,6.8l-2.2,0.2c-5.9,0-10.8-2.3-14.5-7c-3.6-4.7-5.1-10.2-4.4-16.7c0.1-0.8,0.2-1.6,0.4-2.4
				C233.4,610.3,236,605.4,240.1,601.3z"/>
		</g>
		<g>
			<path fill-rule="evenodd" clip-rule="evenodd" d="M248.1,603.2c2.7-2.6,5.8-3.9,9.6-3.9c3.7,0,6.8,1.3,9.5,3.9
				c2.6,2.6,3.9,5.7,3.9,9.3c0,3.6-1.3,6.7-3.9,9.3c-2.7,2.6-5.8,3.9-9.5,3.9c-3.7,0-6.9-1.3-9.6-3.9c-2.6-2.6-3.9-5.7-3.9-9.3
				C244.2,608.9,245.5,605.8,248.1,603.2z"/>
		</g>
		<g>
			<g>
				<path fill-rule="evenodd" clip-rule="evenodd" d="M245.2,613.7c0.2-1.3,0.6-2.6,1.2-3.8c0.6-1.2,1.4-2.2,2.4-3.2
					c2.4-2.5,5.4-3.7,8.8-3.7s6.4,1.2,8.8,3.7c2.4,2.3,3.6,5.1,3.7,8.5l-0.1,1.7c-0.3,2.9-1.5,5.4-3.6,7.5c-2.4,2.5-5.4,3.7-8.8,3.7
					s-6.4-1.2-8.8-3.7c-1-1-1.8-2-2.4-3.2c-0.9-1.7-1.3-3.6-1.3-5.7L245.2,613.7z"/>
				
					<linearGradient id="SVGID_54_" gradientUnits="userSpaceOnUse" x1="-128.3501" y1="186.0244" x2="-97.8506" y2="186.0244" gradientTransform="matrix(0.8212 0 0 0.8212 350.5995 455.2498)">
					<stop  offset="0" style="stop-color:#222222"/>
					<stop  offset="0.3294" style="stop-color:#222222"/>
					<stop  offset="0.5255" style="stop-color:#4D4D4D"/>
					<stop  offset="0.6627" style="stop-color:#222222"/>
					<stop  offset="1" style="stop-color:#222222"/>
				</linearGradient>
				<path fill-rule="evenodd" clip-rule="evenodd" fill="url(#SVGID_54_)" d="M270.1,615.2c-0.1-3.3-1.3-6.1-3.7-8.5
					c-2.4-2.5-5.4-3.7-8.8-3.7s-6.4,1.2-8.8,3.7c-1,1-1.8,2-2.4,3.2c-0.6,1.2-1,2.4-1.2,3.8l0.5-3.7l0.7-2.1
					c0.6-1.2,1.4-2.4,2.5-3.4c2.4-2.4,5.4-3.7,8.8-3.7c3.4,0,6.4,1.2,8.8,3.7c2.5,2.5,3.7,5.4,3.7,8.9L270.1,615.2z"/>
			</g>
		</g>
		<g>
			<g>
				<path fill-rule="evenodd" clip-rule="evenodd" fill="#1C1F20" d="M269.1,615.2l0.4,9.8l-0.3-1.5l-0.9-2.1
					c-0.5-1.1-1.3-2.1-2.3-3l-2.8-2c-1.7-0.9-3.6-1.3-5.7-1.3l-2.7,0.2c-2.2,0.4-4.1,1.5-5.8,3l-1.2,1.4c-0.8,1-1.3,2-1.7,3.1
					l-0.2,0.9c-0.1,0.6-0.2,1.2-0.3,1.8l0.7-13.1l0.1-0.5c0.5-1.6,1.5-3.1,2.9-4.4c2.2-2.1,5-3.2,8.2-3.2c3.2,0,5.9,1.1,8.2,3.2
					c2,1.9,3.1,4.1,3.4,6.6V615.2z"/>
				
					<path fill-rule="evenodd" clip-rule="evenodd" fill="none" stroke="#000000" stroke-linecap="round" stroke-linejoin="round" stroke-miterlimit="3" d="
					M269.1,615.2v-1.1c-0.3-2.5-1.4-4.7-3.4-6.6c-2.3-2.1-5-3.2-8.2-3.2c-3.2,0-6,1.1-8.2,3.2c-1.4,1.3-2.4,2.8-2.9,4.4l-0.1,0.5
					l-0.7,13.1"/>
			</g>
		</g>
		<g>
			<g>
				
					<linearGradient id="SVGID_55_" gradientUnits="userSpaceOnUse" x1="-113.5503" y1="187.7627" x2="-113.5503" y2="213.9377" gradientTransform="matrix(0.8212 0 0 0.8212 350.5995 455.2498)">
					<stop  offset="0" style="stop-color:#4E4D5E"/>
					<stop  offset="1" style="stop-color:#0C0C0E"/>
				</linearGradient>
				<path fill-rule="evenodd" clip-rule="evenodd" fill="url(#SVGID_55_)" d="M248.9,615.3c1.7-1.6,3.6-2.6,5.8-3l2.7-0.2
					c2.2,0,4.1,0.4,5.7,1.3c1,0.6,2,1.2,2.8,2c1,0.9,1.8,1.9,2.3,3l0.8,2.1l0.4,2.1v0.9c0,3.1-1.2,5.8-3.5,8c-1.4,1.3-3,2.3-4.8,2.8
					l-3.7,0.5l-1,0c-2.8-0.2-5.3-1.3-7.5-3.3l-1.3-1.4c-1.5-1.8-2.3-4-2.3-6.7v-0.2l0.3-2.5c0.1-0.3,0.2-0.6,0.3-0.9
					c0.4-1.1,0.9-2.1,1.6-3.1L248.9,615.3z"/>
				
					<path fill-rule="evenodd" clip-rule="evenodd" fill="none" stroke="#000000" stroke-linecap="round" stroke-linejoin="round" stroke-miterlimit="3" d="
					M248.9,615.3c1.7-1.6,3.6-2.6,5.8-3l2.7-0.2c2.2,0,4.1,0.4,5.7,1.3c1,0.6,2,1.2,2.8,2c1,0.9,1.8,1.9,2.3,3l0.8,2.1l0.4,2.1v0.9
					c0,3.1-1.2,5.8-3.5,8c-1.4,1.3-3,2.3-4.8,2.8l-3.7,0.5l-1,0c-2.8-0.2-5.3-1.3-7.5-3.3l-1.3-1.4c-1.5-1.8-2.3-4-2.3-6.7v-0.2
					l0.3-2.5c0.1-0.3,0.2-0.6,0.3-0.9c0.4-1.1,0.9-2.1,1.6-3.1L248.9,615.3z"/>
			</g>
		</g>
		<g>
			<path fill-rule="evenodd" clip-rule="evenodd" fill="#FFFFFF" fill-opacity="8.627451e-002" d="M266.5,616.1l-0.4-7.4
				c0-0.1,0-0.2,0.1-0.2l0.2-0.1l0.5,0.6l0.5,8.1L266.5,616.1z M251.2,606.1l0.8-0.5l-0.3,7.8c-0.3,0.1-0.6,0.3-0.8,0.5L251.2,606.1
				z M254.6,604.7l0.7-0.2l-0.2,7.7l-0.5,0l-0.2,0.1L254.6,604.7z M257.6,604.4h0.8l-0.1,7.7h-0.8L257.6,604.4z M260.6,604.8
				l0.8,0.2l0.2,7.7l-0.8-0.2L260.6,604.8z M263.6,606l0.8,0.5l0.2,7.9l-0.8-0.6L263.6,606z M247.4,617.1l0.4-7.7l0.8-1.1l-0.4,7.8
				l-0.2,0.2l-0.4,0.5L247.4,617.1z"/>
		</g>
		<g>
			<path fill-rule="evenodd" clip-rule="evenodd" fill-opacity="0.6196" d="M266.6,608.7l0-0.1l0.8,1.1l0.4,8.1l-0.8-1.2
				L266.6,608.7z M251.6,605.8c0.2-0.1,0.5-0.3,0.8-0.4l-0.4,7.7l-0.8,0.4L251.6,605.8z M255.2,604.6l0.7-0.1l-0.2,7.7l-0.8,0.1
				L255.2,604.6z M258,604.4l0.7,0l-0.1,7.7l-0.8,0L258,604.4z M261,604.9l0.8,0.2l0.2,7.7l-0.8-0.2L261,604.9z M264,606.2l0.8,0.6
				l0.2,7.9l-0.8-0.6L264,606.2z M247.8,616.5l0.4-7.8l0.8-0.9l-0.4,7.8l-0.7,0.7L247.8,616.5z"/>
		</g>
		<g>
			
				<linearGradient id="SVGID_56_" gradientUnits="userSpaceOnUse" x1="-117.4849" y1="192.2275" x2="-109.3026" y2="217.3002" gradientTransform="matrix(0.8212 0 0 0.8212 350.5995 455.2498)">
				<stop  offset="0" style="stop-color:#000000"/>
				<stop  offset="1" style="stop-color:#303030"/>
			</linearGradient>
			<path fill-rule="evenodd" clip-rule="evenodd" fill="url(#SVGID_56_)" d="M257.5,613.1c3,0,5.6,1,7.7,3c2.1,2,3.2,4.4,3.2,7.2
				c0,2.9-1.1,5.3-3.2,7.3v0c-2.1,2-4.7,3-7.7,3s-5.6-1-7.7-3v0c-2.1-2-3.1-4.4-3.1-7.3c0-2.8,1-5.2,3.1-7.2
				C251.9,614.1,254.5,613.1,257.5,613.1z M250.2,616.6L250.2,616.6c-1.9,1.8-2.9,4.1-2.9,6.8c0,2.7,1,5,2.9,6.9
				c2,1.9,4.5,2.8,7.3,2.8c2.9,0,5.3-0.9,7.2-2.8c2-1.9,3-4.2,3-6.9c0-2.7-1-4.9-3-6.8v0c-1.9-1.9-4.4-2.8-7.2-2.8
				C254.6,613.7,252.2,614.7,250.2,616.6z"/>
		</g>
		<g>
			
				<radialGradient id="SVGID_57_" cx="-112.8999" cy="175.4004" r="10.3748" gradientTransform="matrix(0.8212 0 0 0.3265 350.5995 542.0215)" gradientUnits="userSpaceOnUse">
				<stop  offset="0" style="stop-color:#FFFFFF"/>
				<stop  offset="0" style="stop-color:#FFFFFF;stop-opacity:0.498"/>
				<stop  offset="8.627451e-002" style="stop-color:#FFFFFF;stop-opacity:0.498"/>
				<stop  offset="0.302" style="stop-color:#FFFFFF;stop-opacity:0.2"/>
				<stop  offset="0.4902" style="stop-color:#FFFFFF;stop-opacity:8.627451e-002"/>
				<stop  offset="0.6784" style="stop-color:#FFFFFF;stop-opacity:2.745098e-002"/>
				<stop  offset="1" style="stop-color:#FFFFFF;stop-opacity:0"/>
			</radialGradient>
			<path fill-rule="evenodd" clip-rule="evenodd" fill="url(#SVGID_57_)" d="M266.3,599.3c0,0.9-0.8,1.7-2.5,2.3c-1.7,0.7-3.7,1-6,1
				c-2.3,0-4.3-0.3-6-1c-1.5-0.6-2.3-1.4-2.3-2.3s0.8-1.7,2.3-2.3c1.7-0.7,3.7-1,6-1c2.3,0,4.3,0.3,6,1
				C265.5,597.6,266.3,598.4,266.3,599.3z"/>
		</g>
		<g>
			
				<radialGradient id="SVGID_58_" cx="-114.6001" cy="194.6499" r="10.375" gradientTransform="matrix(0.8212 0 0 0.3265 350.5995 551.5444)" gradientUnits="userSpaceOnUse">
				<stop  offset="0" style="stop-color:#FFFFFF"/>
				<stop  offset="0" style="stop-color:#FFFFFF;stop-opacity:0.498"/>
				<stop  offset="8.627451e-002" style="stop-color:#FFFFFF;stop-opacity:0.498"/>
				<stop  offset="0.302" style="stop-color:#FFFFFF;stop-opacity:0.2"/>
				<stop  offset="0.4902" style="stop-color:#FFFFFF;stop-opacity:8.627451e-002"/>
				<stop  offset="0.6784" style="stop-color:#FFFFFF;stop-opacity:2.745098e-002"/>
				<stop  offset="1" style="stop-color:#FFFFFF;stop-opacity:0"/>
			</radialGradient>
			<path fill-rule="evenodd" clip-rule="evenodd" fill="url(#SVGID_58_)" d="M248.2,615.1c0-0.9,0.8-1.7,2.3-2.3c1.7-0.7,3.7-1,6-1
				c2.3,0,4.3,0.3,6,1c1.7,0.6,2.5,1.4,2.5,2.3c0,1-0.8,1.8-2.5,2.4c-1.7,0.7-3.7,1-6,1c-2.3,0-4.3-0.3-6-1
				C249,616.9,248.2,616.1,248.2,615.1z"/>
		</g>
	</g>
	<g>
		<g>
			
				<radialGradient id="SVGID_59_" cx="-137.7002" cy="86.5498" r="157.1125" gradientTransform="matrix(0.8212 0 0 0.8212 350.5995 455.2498)" gradientUnits="userSpaceOnUse">
				<stop  offset="0" style="stop-color:#FFFFFF"/>
				<stop  offset="1" style="stop-color:#FFFFFF;stop-opacity:0"/>
			</radialGradient>
			<path fill-rule="evenodd" clip-rule="evenodd" fill="url(#SVGID_59_)" d="M365,526.8c-0.1,0.1-0.3,0.2-0.4,0.2H114
				c-0.2,0-0.3-0.1-0.4-0.2c-0.1-0.1-0.2-0.3-0.2-0.4c0-0.2,0.1-0.3,0.2-0.4c0.1-0.1,0.3-0.2,0.4-0.2h250.5c0.2,0,0.3,0.1,0.4,0.2
				c0.1,0.1,0.2,0.3,0.2,0.4C365.2,526.5,365.1,526.6,365,526.8z"/>
			
				<radialGradient id="SVGID_60_" cx="-288.0498" cy="144.6001" r="65.425" gradientTransform="matrix(-3.589635e-008 0.8212 -1.9721 -8.620200e-008 399.2111 810.5475)" gradientUnits="userSpaceOnUse">
				<stop  offset="0" style="stop-color:#FFFFFF"/>
				<stop  offset="1" style="stop-color:#FFFFFF;stop-opacity:0"/>
			</radialGradient>
			<path fill-rule="evenodd" clip-rule="evenodd" fill="url(#SVGID_60_)" d="M114.5,530.4c0.1,0.1,0.2,0.3,0.2,0.4v96.1
				c0,0.2-0.1,0.3-0.2,0.4c-0.1,0.1-0.3,0.2-0.4,0.2c-0.2,0-0.3-0.1-0.4-0.2c-0.1-0.1-0.2-0.3-0.2-0.4v-96.1c0-0.2,0.1-0.3,0.2-0.4
				c0.1-0.1,0.3-0.2,0.4-0.2C114.2,530.2,114.4,530.2,114.5,530.4z"/>
		</g>
	</g>
</g>
<g>
	<g>
		<polygon fill-rule="evenodd" clip-rule="evenodd" fill="#2E3A3D" points="222.2,335.6 222.2,289.6 226,289.6 		"/>
		<polygon fill-rule="evenodd" clip-rule="evenodd" fill="#354346" points="222.2,289.6 222.2,335.6 222.4,338.6 208.5,338.6 
			208.5,267.2 222.2,267.2 		"/>
	</g>
</g>
<g>
	<linearGradient id="SVGID_61_" gradientUnits="userSpaceOnUse" x1="212.75" y1="230.5874" x2="212.75" y2="269.8124">
		<stop  offset="0" style="stop-color:#5B5A5A"/>
		<stop  offset="8.235294e-002" style="stop-color:#828282"/>
		<stop  offset="0.1529" style="stop-color:#FFFFFF"/>
		<stop  offset="0.1961" style="stop-color:#FFFFFF"/>
		<stop  offset="0.2588" style="stop-color:#D1D1D1"/>
		<stop  offset="0.4078" style="stop-color:#B6B6B6"/>
		<stop  offset="0.6667" style="stop-color:#544D4D"/>
		<stop  offset="1" style="stop-color:#000000"/>
	</linearGradient>
	<path fill-rule="evenodd" clip-rule="evenodd" fill="url(#SVGID_61_)" d="M203.6,233.4l0.4-2.4l0.4-0.8l0,0h18.3
		c-0.2,0.2-0.4,0.4-0.5,0.9l-0.5,2.4l-0.9,12v15.1c0.2,3.8,0.4,6.5,0.7,7.9l0.3,1.1c0.1,0.4,0.3,0.6,0.4,0.6H204
		c-0.1,0-0.3-0.2-0.4-0.6c-0.4-1.3-0.8-4.4-0.9-9.1v-15.1c0.1-2.8,0.2-5.3,0.3-7.4C203.2,236.2,203.4,234.7,203.6,233.4z"/>
</g>
<g>
	<g>
		<linearGradient id="SVGID_62_" gradientUnits="userSpaceOnUse" x1="226.6997" y1="191.0498" x2="226.6997" y2="308.3501">
			<stop  offset="0" style="stop-color:#5B5A5A"/>
			<stop  offset="0.3922" style="stop-color:#B6B6B6"/>
			<stop  offset="0.6941" style="stop-color:#9C9A9A"/>
			<stop  offset="1" style="stop-color:#201E1D"/>
		</linearGradient>
		<path fill-rule="evenodd" clip-rule="evenodd" fill="url(#SVGID_62_)" d="M221.9,249c0-1.7,0.1-3.4,0.1-5c0.1-2.7,0.1-5.5,0.2-8.3
			c0.3-7.2,0.6-13.6,1-19.2c0.5-6.7,1.1-12.3,1.8-16.8c0.4-2.6,0.9-4.7,1.3-6.2c0.3-1.3,0.6-2,1-2.3l0.2-0.2h4.1l-0.3,0.2
			c-0.3,0.3-0.7,1.1-1.1,2.3l-1.3,6.2c-0.7,4.5-1.3,10.1-1.8,16.8c-0.4,5.6-0.7,12-1,19.2c-0.1,2.8-0.1,5.5-0.2,8.3
			c0,1.7-0.1,3.4-0.1,5c-0.1,3.4-0.1,6.8-0.1,10c0,1.8,0,3.5,0,5.3c0.1,5.3,0.2,10.6,0.4,15.8c0.1,1.3,0.1,2.5,0.2,3.7
			c0.4,8.8,1,15.3,1.8,19.5l0.8,3.3c0.4,1.2,0.8,1.8,1.3,1.9h-4c-0.4,0-0.9-0.6-1.3-1.9c-1.2-3.5-2.1-11.1-2.6-22.7
			c-0.1-1.2-0.1-2.4-0.2-3.7c-0.2-5.2-0.3-10.5-0.3-15.8c-0.1-1.7-0.1-3.5-0.1-5.3C221.8,255.8,221.8,252.4,221.9,249z"/>
		<linearGradient id="SVGID_63_" gradientUnits="userSpaceOnUse" x1="216.2251" y1="214.5127" x2="216.2251" y2="245.9877">
			<stop  offset="0" style="stop-color:#8DA0A4"/>
			<stop  offset="1" style="stop-color:#6C797B"/>
		</linearGradient>
		<path fill-rule="evenodd" clip-rule="evenodd" fill="url(#SVGID_63_)" d="M223.1,216.5c-0.4,5.6-0.7,12-1,19.2
			c-0.1,2.8-0.1,5.5-0.2,8.3h-12.7l0.1-1.9c0.1-4.6,0.4-8.7,0.6-12.3c0.3-3,0.5-5.6,0.9-7.9l0.1-0.5c0.2-1.5,0.5-2.7,0.7-3.5
			c0.2-0.7,0.4-1.1,0.6-1.3l0.2-0.1H223.1z"/>
		<linearGradient id="SVGID_64_" gradientUnits="userSpaceOnUse" x1="215.5752" y1="243.9248" x2="215.5752" y2="248.9746">
			<stop  offset="0" style="stop-color:#717F81"/>
			<stop  offset="0.1373" style="stop-color:#94A5A8"/>
			<stop  offset="0.2941" style="stop-color:#8DA0A4"/>
			<stop  offset="1" style="stop-color:#8DA0A4"/>
		</linearGradient>
		<path fill-rule="evenodd" clip-rule="evenodd" fill="url(#SVGID_64_)" d="M222,244c0,1.7-0.1,3.4-0.1,5h-12.6c0-1.7,0-3.4,0.1-5
			H222z"/>
		<linearGradient id="SVGID_65_" gradientUnits="userSpaceOnUse" x1="215.8003" y1="266.7124" x2="215.8003" y2="274.6874">
			<stop  offset="0" style="stop-color:#8DA0A4"/>
			<stop  offset="0.102" style="stop-color:#96A7AA"/>
			<stop  offset="0.2275" style="stop-color:#4E5D60"/>
			<stop  offset="1" style="stop-color:#354346"/>
		</linearGradient>
		<path fill-rule="evenodd" clip-rule="evenodd" fill="url(#SVGID_65_)" d="M221.9,264.3c0,5.3,0.1,10.6,0.3,15.8
			c0.1,1.3,0.1,2.5,0.2,3.7h-10.7c-0.2,0-0.5-0.4-0.7-1.1c-0.8-2.2-1.3-7.2-1.6-15.1l-0.1-3.3H221.9z"/>
		<path fill-rule="evenodd" clip-rule="evenodd" fill="#8DA0A4" d="M221.9,249c-0.1,3.4-0.1,6.8-0.1,10c0,1.8,0,3.5,0.1,5.3h-12.6
			l0-15.3H221.9z"/>
	</g>
</g>
</svg>
