<?xml version="1.0" encoding="utf-8"?>
<!-- Generator: Adobe Illustrator 16.0.0, SVG Export Plug-In . SVG Version: 6.00 Build 0)  -->
<!DOCTYPE svg PUBLIC "-//W3C//DTD SVG 1.1//EN" "http://www.w3.org/Graphics/SVG/1.1/DTD/svg11.dtd">
<svg version="1.1" id="Layer_1" xmlns="http://www.w3.org/2000/svg" xmlns:xlink="http://www.w3.org/1999/xlink" x="0px" y="0px"
	 width="700px" height="700px" viewBox="0 0 700 700" enable-background="new 0 0 700 700" xml:space="preserve">
<g>
	<g>
		
			<radialGradient id="SVGID_1_" cx="383.9004" cy="571.7002" r="312.4" gradientTransform="matrix(1 0 0 1.0065 0 -3.7058)" gradientUnits="userSpaceOnUse">
			<stop  offset="0" style="stop-color:#FFFFFF;stop-opacity:0.6902"/>
			<stop  offset="1" style="stop-color:#FDFDFD;stop-opacity:0"/>
		</radialGradient>
		<path fill-rule="evenodd" clip-rule="evenodd" fill="url(#SVGID_1_)" d="M696.7,571.3c0.1,0.1,0.1,0.2,0.1,0.4
			c0,0.1,0,0.2-0.1,0.3c-0.1,0.1-0.2,0.1-0.4,0.1H71.5c-0.1,0-0.3,0-0.4-0.1c-0.1-0.1-0.1-0.2-0.1-0.3c0-0.1,0-0.3,0.1-0.4
			c0.1-0.1,0.2-0.1,0.4-0.1h624.8C696.4,571.2,696.5,571.3,696.7,571.3z"/>
		<line fill-rule="evenodd" clip-rule="evenodd" fill="none" x1="56" y1="309.8" x2="56" y2="210.9"/>
	</g>
	<g>
		<rect y="-37" fill-rule="evenodd" clip-rule="evenodd" fill="#8B5E34" width="700" height="304.9"/>
	</g>
	<g>
		<rect x="0.4" y="412" fill-rule="evenodd" clip-rule="evenodd" fill="#271E14" width="699.6" height="364.5"/>
	</g>
	<g>
		<linearGradient id="SVGID_2_" gradientUnits="userSpaceOnUse" x1="349.3442" y1="577.0996" x2="351.1815" y2="61.8983">
			<stop  offset="0" style="stop-color:#000000"/>
			<stop  offset="1" style="stop-color:#010101;stop-opacity:0"/>
		</linearGradient>
		<rect x="1.3" y="58.5" fill-rule="evenodd" clip-rule="evenodd" fill="url(#SVGID_2_)" width="698.7" height="318.5"/>
	</g>
	<g>
		<g>
			<path fill-rule="evenodd" clip-rule="evenodd" fill="#3E2F20" d="M359.3,738.5c0.1,0,0.1,0,0.2,0h274c0.6,0,1-0.2,1.5-0.5
				c0.4-0.4,0.5-0.9,0.5-1.5v-49.7h1.8v51.7c0,0.6-0.2,1-0.5,1.5c-0.4,0.4-0.9,0.5-1.5,0.5h-274c-0.6,0-1-0.2-1.4-0.5
				C359.5,739.5,359.3,739.1,359.3,738.5z M361.5,686.8h1.8v47.7h-1.8V686.8z"/>
			<path fill-rule="evenodd" clip-rule="evenodd" fill="#16100C" d="M361.5,686.8v47.7h1.8h268.2v-47.7h4v49.7c0,0.6-0.2,1-0.5,1.5
				c-0.4,0.4-0.9,0.5-1.5,0.5h-274c-0.1,0-0.1,0-0.2,0c-0.5,0-0.9-0.2-1.2-0.5c-0.4-0.4-0.6-0.9-0.6-1.5v-49.7H361.5z"/>
		</g>
	</g>
	<g>
		<g>
			<path fill-rule="evenodd" clip-rule="evenodd" fill="#16100C" d="M58.3,734.5h268.2v-47.7h4v49.7c0,0.6-0.2,1-0.6,1.5
				c-0.4,0.4-0.9,0.5-1.4,0.5h-274c-0.1,0-0.1,0-0.2,0c-0.5,0-0.9-0.2-1.2-0.5c-0.4-0.4-0.6-0.9-0.6-1.5v-49.7h4v47.7H58.3z"/>
			<path fill-rule="evenodd" clip-rule="evenodd" fill="#3E2F20" d="M58.3,734.5h-1.8v-47.7h1.8V734.5z M330.5,686.8h1.8v51.7
				c0,0.6-0.2,1-0.5,1.5c-0.4,0.4-0.9,0.5-1.5,0.5h-274c-0.6,0-1-0.2-1.4-0.5c-0.4-0.4-0.6-0.9-0.6-1.5c0.1,0,0.1,0,0.2,0h274
				c0.6,0,1-0.2,1.4-0.5c0.4-0.4,0.6-0.9,0.6-1.5V686.8z"/>
		</g>
	</g>
	<g>
		<g>
			<rect x="0.4" y="681.1" fill-rule="evenodd" clip-rule="evenodd" fill="#493A25" width="699.6" height="13.1"/>
			
				<radialGradient id="SVGID_3_" cx="330.5" cy="405.5498" r="475.375" gradientTransform="matrix(1 0 0 1.6094 0 -247.1263)" gradientUnits="userSpaceOnUse">
				<stop  offset="0" style="stop-color:#CEB197"/>
				<stop  offset="0.9882" style="stop-color:#474430"/>
			</radialGradient>
			<rect x="0.4" y="188.1" fill-rule="evenodd" clip-rule="evenodd" fill="url(#SVGID_3_)" width="699.6" height="493"/>
		</g>
	</g>
	<g>
		
			<radialGradient id="SVGID_4_" cx="403.0996" cy="259.4502" r="272.5125" fx="404.1683" fy="259.4502" gradientTransform="matrix(1 0 0 0.2377 0 197.78)" gradientUnits="userSpaceOnUse">
			<stop  offset="0" style="stop-color:#FEFDDF;stop-opacity:0.4118"/>
			<stop  offset="0.4" style="stop-color:#FEFBD8;stop-opacity:0.1137"/>
			<stop  offset="0.9765" style="stop-color:#FEF9D3;stop-opacity:0"/>
		</radialGradient>
		<path fill-rule="evenodd" clip-rule="evenodd" fill="url(#SVGID_4_)" d="M732.3,330.1c-17.6,9.3-42.8,17.9-75.6,25.7
			C586.1,372.7,501,381,401.2,381c-99.7,0-184.9-8.4-255.5-25.2c-70.5-16.8-105.8-37-105.8-60.7c0-23.7,35.3-44,105.8-60.8
			c70.6-16.8,155.7-25.2,255.5-25.2c99.8,0,185,8.4,255.5,25.2c32.8,7.8,58,16.4,75.6,25.7V330.1z"/>
	</g>
	<g>
		
			<linearGradient id="SVGID_5_" gradientUnits="userSpaceOnUse" x1="-273.7437" y1="-402.9707" x2="116.8564" y2="-402.9707" gradientTransform="matrix(2.560164e-006 1 -1 -5.681818e-003 3.641259e-005 -1.752330e-004)">
			<stop  offset="0" style="stop-color:#FEFDDF;stop-opacity:0.3686"/>
			<stop  offset="0.9765" style="stop-color:#FEF9D3;stop-opacity:0"/>
		</linearGradient>
		<path fill-rule="evenodd" clip-rule="evenodd" fill="url(#SVGID_5_)" d="M259.3-38h263.2l122.7,148
			c11.1,21.4-52.4,43.3-190.6,65.7c-138.1,22.3-225.5,13.7-262.1-25.9c-36.6-39.7-42.7-70.3-18.3-91.8C216.2,13,244.5-18.9,259.3-38
			z"/>
	</g>
</g>
<g>
	<line fill-rule="evenodd" clip-rule="evenodd" fill="none" x1="28" y1="680.8" x2="768.5" y2="680.8"/>
</g>
<g>
	<g>
		<line fill-rule="evenodd" clip-rule="evenodd" fill="none" x1="25.5" y1="663.4" x2="743.7" y2="663.4"/>
	</g>
	<g>
		<path fill-rule="evenodd" clip-rule="evenodd" fill-opacity="8.627451e-002" d="M338,220.8c55.4,0.1,85.6,0.2,90.5,0.3
			c4.9,0.2,34.5,0,88.9-0.4c55.1-0.5,88.6,3.5,100.5,12l0.5,0.3c9.2,6,14.6,11.1,16.2,15.4c1.1,2.7,1,5.1-0.5,7.3
			c-1.1,1.9-3.3,3.4-6.6,4.6l0,0.1l-0.1,0c-2.1,1-3.3,2.1-3.6,3.2c0.1,1.4,1.4,3,3.9,4.8v0.1c4.2,3.2,5.9,6.1,5.3,8.8
			c-0.3,2.7-2.9,4.9-8,6.6l-0.8,0.1c-8.6,2-15,1.6-19.3-1.1c-4.7-2.7-7-7.9-6.9-15.5c0.1-8.2-2.1-12.5-6.5-13
			c-0.6,0-1.1-0.3-1.5-0.8c-0.5-0.5-0.7-1.1-0.7-1.7c0-0.6,0.3-1.2,0.8-1.6c0.5-0.5,1-0.7,1.6-0.6c7.4,0.1,11.1,6,11,17.8
			c-0.1,5.5,1.4,9.3,4.6,11.4c3.5,2,8.8,2.2,16,0.6l0.5-0.1c2.5-0.9,4-1.9,4.4-2.9c-0.1-1.1-1.3-2.5-3.5-4.3c-4.1-3.1-6-6-5.6-8.7
			c-0.2-2.9,2-5.4,6.4-7.5l0.2-0.1c2.2-0.8,3.7-1.8,4.5-2.8c0.5-0.9,0.5-1.9,0.1-3c-1.6-3.5-6.4-7.9-14.4-13.2l-0.6-0.3
			c-11.5-7.9-44-11.7-97.6-11.2c-54.5,0.5-84.2,0.6-89.1,0.5c-4.9-0.2-35-0.3-90.3-0.4c-55-0.1-113.6,4.1-175.9,12.5l-1,0.5
			c-9.6,1.6-16.3,4-19.9,7.4c-3,3.1-3.4,6.9-1.2,11.6c0.7,1.7,1.8,3.4,3.1,5.3l0.1,0l0,0.1l0.3,0.3c0.4,0.5,0.5,1.1,0.5,1.8l-0.5,1
			c-0.9,4.7-6.5,9.9-16.8,15.5h0c-6,3.4-9,6.1-9.1,8.1c0.6,1.9,4.1,3.6,10.7,5.1c8.4,1.9,16.9,2.2,25.4,0.8
			c7.5-1.3,11.6-6.3,12.3-15l0.3-3.3h4.8c-0.1,1.1-0.2,2.3-0.3,3.4v0.1c-0.9,11.4-6.3,17.9-16.2,19.5c-9.1,1.5-18.1,1.2-27.2-0.9
			c-9.4-2.1-14.2-5.1-14.3-9.1c-0.8-3.8,3-8.1,11.5-12.9c9-4.8,13.8-8.9,14.4-12.4c-1.3-1.9-2.4-3.7-3.1-5.4
			c-3.1-6.8-2.4-12.4,2.3-16.8c3.8-3.9,10.9-6.8,21.2-8.6c0.3-0.3,0.7-0.5,1.2-0.5C223.2,224.8,282.4,220.6,338,220.8z"/>
	</g>
	<g>
		<path fill-rule="evenodd" clip-rule="evenodd" d="M469.7,221c-24.4,0.2-38.2,0.2-41.4,0c-4.9-0.1-35-0.2-90.3-0.3
			c-55-0.1-113.6,4-175.9,12.5l-1.1,0.4l-4.7,1h-0.1c-7.7,1.7-12.9,4.1-15.7,7.4c-2.3,2.9-2.5,6.4-0.5,10.7c0.7,1.6,1.8,3.3,3.1,5.1
			l0,0.1l0.1,0.1l0,0l0.3,0.4c0.4,0.5,0.5,1.1,0.5,1.8l-0.5,1c-0.9,4.7-6.5,9.9-16.8,15.4h0c-6,3.4-9,6.1-9.1,8.2
			c0.6,1.9,4.1,3.6,10.7,5.1c8.4,1.9,16.9,2.2,25.3,0.9l2.4-0.5c6.1-1.9,9.4-6.8,10-14.6c0.7-19,13.7-30,38.9-33.1l-1.3,5.1
			c-21.4,2.7-32.4,12-33,28.1c-0.7,10.2-5.2,16.5-13.4,18.9l-2.8,0.7c-9.1,1.5-18.1,1.2-27.2-0.9c-9.4-2.1-14.2-5.1-14.3-9.1
			c-0.8-3.8,3-8.1,11.5-12.8c9-4.8,13.8-9,14.4-12.5c-1.3-1.9-2.4-3.7-3.1-5.4c-2.8-6.3-2.4-11.5,1.2-15.6c3.2-4,9.3-7,18.4-9h0
			l4.1-0.8c0.3-0.3,0.6-0.4,1.1-0.5c62.8-8.6,122-12.8,177.6-12.7c55.4,0.1,85.6,0.2,90.5,0.4l88.9-0.4c55.1-0.5,88.6,3.5,100.5,12
			l0.5,0.3c9.2,6,14.6,11.1,16.2,15.4c1.1,2.7,1,5.1-0.5,7.3c-1.2,1.9-3.4,3.4-6.8,4.6h0.2c-2.3,1-3.5,2.1-3.8,3.3
			c0.1,1.4,1.4,3,3.9,4.8v0.1c4.2,3.2,5.9,6.1,5.3,8.8c-0.3,2.7-2.9,4.9-8,6.5l-0.8,0.1c-8.6,1.9-15,1.5-19.3-1.2
			c-4.7-2.7-7-7.9-6.9-15.5c0.1-8.2-2.1-12.5-6.5-13c-0.6-0.1-1.1-0.3-1.5-0.8c-0.5-0.5-0.7-1-0.7-1.6c0-0.6,0.3-1.2,0.8-1.6
			c0.5-0.5,1-0.7,1.6-0.6c7.4,0.1,11.1,6,11,17.8c-0.1,5.6,1.4,9.4,4.6,11.5c3.5,2,8.8,2.2,16,0.5l0.5,0c2.5-0.9,4-1.8,4.4-2.9
			c-0.1-1.1-1.3-2.6-3.5-4.3c-4.1-3.1-6-6-5.6-8.7c-0.2-2.9,2-5.4,6.4-7.4l0.2-0.1c2.2-0.8,3.7-1.8,4.5-2.9c0.5-0.8,0.5-1.8,0.1-2.9
			c-1.6-3.5-6.4-8-14.4-13.3l-0.6-0.4c-11.5-7.9-44-11.6-97.6-11.1L469.7,221z"/>
	</g>
	<g>
		<g>
			
				<radialGradient id="SVGID_6_" cx="320" cy="218.3999" r="178.7132" gradientTransform="matrix(0.9996 -2.657091e-002 2.098975e-003 7.896732e-002 -0.3454 209.6561)" gradientUnits="userSpaceOnUse">
				<stop  offset="0" style="stop-color:#FFFFFF"/>
				<stop  offset="0.6314" style="stop-color:#FFFFFF;stop-opacity:0"/>
				<stop  offset="1" style="stop-color:#FFFFFF;stop-opacity:0"/>
			</radialGradient>
			<path fill-rule="evenodd" clip-rule="evenodd" fill="url(#SVGID_6_)" d="M161.3,231.5l-0.5,0.1l-0.5-0.1l-0.2-0.3l0-0.3l0.1-0.2
				c0.1-0.1,0.2-0.2,0.4-0.2c62.8-8.6,121.9-12.8,177.4-12.7c55.3,0.1,85.5,0.2,90.5,0.4c4.8,0.2,34.5,0,88.9-0.5
				c7.2,0,14,0,20.4,0.1l0.4,0.1l0.2,0.4l-0.2,0.5l-0.4,0.1c-6.4-0.1-13.2-0.1-20.4,0c-54.4,0.5-84.1,0.6-88.9,0.4
				c-5-0.1-35.1-0.2-90.5-0.3C282.7,218.9,223.8,223,161.3,231.5z"/>
			
				<radialGradient id="SVGID_7_" cx="597.8496" cy="225.1001" r="38.4875" gradientTransform="matrix(1 0 0 0.3745 0 140.8064)" gradientUnits="userSpaceOnUse">
				<stop  offset="0" style="stop-color:#FFFFFF"/>
				<stop  offset="0.6314" style="stop-color:#FFFFFF;stop-opacity:0"/>
				<stop  offset="1" style="stop-color:#FFFFFF;stop-opacity:0"/>
			</radialGradient>
			<path fill-rule="evenodd" clip-rule="evenodd" fill="url(#SVGID_7_)" d="M616.7,230.6l-0.2-0.2l-0.4-0.2
				c-6.2-4.3-18.4-7.4-36.7-9.3c-0.2,0-0.3-0.1-0.4-0.2l-0.2-0.4c0-0.2,0.1-0.3,0.2-0.4l0.5-0.2c18.6,1.9,31.1,5.1,37.3,9.6l0.2,0.2
				c0.1,0,0.2,0,0.3,0.1c7.8,5.1,12.8,9.5,14.9,13.3c2.3,3.9,1.5,7.1-2.4,9.5l-0.5,0.1l-0.3-0.4c-0.1-0.1-0.2-0.3-0.1-0.4
				c0-0.1,0.1-0.2,0.3-0.3c3.2-2,3.9-4.6,2-7.9C629.1,239.9,624.3,235.6,616.7,230.6z"/>
			
				<radialGradient id="SVGID_8_" cx="609.2998" cy="269.4502" r="28.875" gradientTransform="matrix(1 0 0 0.9563 0 11.7812)" gradientUnits="userSpaceOnUse">
				<stop  offset="0" style="stop-color:#FFFFFF"/>
				<stop  offset="0.6314" style="stop-color:#FFFFFF;stop-opacity:0"/>
				<stop  offset="1" style="stop-color:#FFFFFF;stop-opacity:0"/>
			</radialGradient>
			<path fill-rule="evenodd" clip-rule="evenodd" fill="url(#SVGID_8_)" d="M591,246.6l0.4-0.1c6.3,0.3,9.5,5.6,9.3,16
				c-0.1,6.3,1.7,10.7,5.5,13c3.8,2.3,9.5,2.5,17.3,0.8h0.3c3.5-1.2,5.5-2.6,5.9-4.2c0.3-1.6-0.9-3.5-3.5-5.6L626,266l0.2-0.4
				c0.1-0.2,0.2-0.3,0.4-0.3l0.5,0.1c3.1,2.6,4.4,4.8,3.8,6.8c-0.4,2-2.7,3.7-6.7,5.1h-0.4c-8.1,1.9-14.1,1.6-18.1-0.9
				c-4.1-2.5-6.1-7.2-6-14c0.1-9.5-2.7-14.4-8.3-14.8c-0.2,0-0.3-0.1-0.4-0.2l-0.2-0.5C590.8,246.9,590.9,246.8,591,246.6z"/>
			
				<radialGradient id="SVGID_9_" cx="142.7998" cy="240.7002" r="24.725" gradientTransform="matrix(1 0 0 0.9353 0 15.5761)" gradientUnits="userSpaceOnUse">
				<stop  offset="0" style="stop-color:#FFFFFF"/>
				<stop  offset="0.6314" style="stop-color:#FFFFFF;stop-opacity:0"/>
				<stop  offset="1" style="stop-color:#FFFFFF;stop-opacity:0"/>
			</radialGradient>
			<path fill-rule="evenodd" clip-rule="evenodd" fill="url(#SVGID_9_)" d="M161.3,231.5l-0.1,0.1l-0.4,0.2c-10.1,1.7-17,4.4-20.8,8
				c-3.6,3.5-4.2,8-1.6,13.5l0.3,0.5v0.5l-0.3,0.3l-0.5,0.1l-0.3-0.3l-0.4-0.6c-2.8-6-2.1-10.9,1.9-14.8c3.8-3.8,10.8-6.5,20.9-8.2
				l0,0.3l0.2,0.3l0.5,0.1L161.3,231.5z"/>
			
				<radialGradient id="SVGID_10_" cx="131.0498" cy="288.8501" r="44.6625" gradientTransform="matrix(1 0 0 0.5309 0 135.492)" gradientUnits="userSpaceOnUse">
				<stop  offset="0" style="stop-color:#FFFFFF"/>
				<stop  offset="0.6314" style="stop-color:#FFFFFF;stop-opacity:0"/>
				<stop  offset="1" style="stop-color:#FFFFFF;stop-opacity:0"/>
			</radialGradient>
			<path fill-rule="evenodd" clip-rule="evenodd" fill="url(#SVGID_10_)" d="M137.3,266.8l0.1,0.4l-0.1,0.4
				c-2.7,2.4-6.4,4.9-11.3,7.5c-6.9,3.8-10.3,7.1-10.1,9.9c0.4,2.7,4.4,4.8,12,6.5v0.1c8.7,1.9,17.4,2.2,26.1,0.7
				c5.2-0.8,9-3.3,11.3-7.3c0.1-0.1,0.2-0.2,0.4-0.3l0.4,0l0.3,0.4v0.5c-2.5,4.3-6.6,7-12.1,7.9c-8.8,1.5-17.6,1.2-26.4-0.8
				c-8.3-1.9-12.6-4.5-12.9-7.7c-0.5-3.1,3-6.8,10.6-11l0-0.1c4.7-2.5,8.4-5,11.1-7.3l0.4-0.2C137,266.5,137.2,266.6,137.3,266.8z"
				/>
			
				<radialGradient id="SVGID_11_" cx="176.25" cy="257.7002" r="22.7941" gradientTransform="matrix(0.9986 5.309003e-002 -5.166391e-002 0.9718 13.5624 -2.0811)" gradientUnits="userSpaceOnUse">
				<stop  offset="0" style="stop-color:#FFFFFF"/>
				<stop  offset="0.6314" style="stop-color:#FFFFFF;stop-opacity:0"/>
				<stop  offset="1" style="stop-color:#FFFFFF;stop-opacity:0"/>
			</radialGradient>
			<path fill-rule="evenodd" clip-rule="evenodd" fill="url(#SVGID_11_)" d="M196.6,246.1l0.2,0.4l-0.1,0.5l-0.4,0.1
				c-16.9,1.4-25.9,10.2-27.2,26.5l-0.2,0.4l-0.5,0.1c-0.2,0-0.3-0.1-0.3-0.2l-0.2-0.5c1.3-16.9,10.7-26.1,28.3-27.5
				C196.3,246,196.5,246,196.6,246.1z"/>
		</g>
	</g>
	<g>
		<path fill-rule="evenodd" clip-rule="evenodd" fill-opacity="0.251" d="M711.9,654.3H544.8l-17-22.1l-12-60.3h130.8l29.2,10.8
			L711.9,654.3z M594,278.6l7,40.3l-4.5-0.3l1.5,9.3h-5.3l4.9,35.7H193.4l4.9-35.7H193l1.5-9.3l-4.5,0.3l7-40.3l3.9,0.2l2.1-12.5
			h3.6l3.1-22.8h371.5l3.2,22.8h3.6l2,12.5L594,278.6z M156.4,563.3l-0.9,22H343v-29.6h23.4v87.5l-1.1,11.2H80.1l20.9-91H156.4z
			 M231.8,468l4.1-32.9h266.9c-5.6,3.9-4.7,5.8,2.7,5.8v8.7l-0.9,0.1l1.2,11.4c5.3,0.2,7.6-0.2,7-1.2c3-3.7,6.8-3.8,11.3-0.5
			c2.7,6.5,3.5,10.8,2.3,13.1c-3.5,2.9-7,3.1-10.7,0.5l-2.1-5.9l-7-0.1l2,17.9l5.3,5.9l10.9,3.5c5.2,11.1,0.8,17.9-13.2,20.4
			l-290.8,2.7c-10,0.2-12.3-3.7-6.9-11.9L231.8,468z"/>
	</g>
	<g>
		<g>
			<polygon fill-rule="evenodd" clip-rule="evenodd" points="650.5,570 683.3,631.7 528.3,631.7 514.4,570 			"/>
			
				<linearGradient id="SVGID_12_" gradientUnits="userSpaceOnUse" x1="322.7539" y1="-396.4907" x2="361.6539" y2="-396.4907" gradientTransform="matrix(2.570694e-005 1 -1 -1.000000e-003 4.219525e-004 -2.034975e-004)">
				<stop  offset="0" style="stop-color:#070707"/>
				<stop  offset="0.549" style="stop-color:#090909"/>
				<stop  offset="0.749" style="stop-color:#0B0B0B;stop-opacity:0"/>
				<stop  offset="1" style="stop-color:#0E0E0E;stop-opacity:0"/>
			</linearGradient>
			<polygon fill-rule="evenodd" clip-rule="evenodd" fill="url(#SVGID_12_)" points="576.7,276.2 586.3,347.1 206.8,347.1 
				217.8,276.2 			"/>
			<linearGradient id="SVGID_13_" gradientUnits="userSpaceOnUse" x1="366.75" y1="567.8379" x2="366.75" y2="589.9629">
				<stop  offset="0" style="stop-color:#070707"/>
				<stop  offset="0.549" style="stop-color:#090909"/>
				<stop  offset="0.749" style="stop-color:#0B0B0B;stop-opacity:0"/>
				<stop  offset="1" style="stop-color:#0E0E0E;stop-opacity:0"/>
			</linearGradient>
			<polygon fill-rule="evenodd" clip-rule="evenodd" fill="url(#SVGID_13_)" points="225.3,504.7 234.9,437 501.8,439.3 
				508.3,504.7 			"/>
			<linearGradient id="SVGID_14_" gradientUnits="userSpaceOnUse" x1="237.0747" y1="623.5996" x2="237.0747" y2="638.6996">
				<stop  offset="0" style="stop-color:#070707"/>
				<stop  offset="0.549" style="stop-color:#090909"/>
				<stop  offset="0.6471" style="stop-color:#0B0B0B;stop-opacity:0.498"/>
				<stop  offset="1" style="stop-color:#0E0E0E;stop-opacity:0"/>
			</linearGradient>
			<polygon fill-rule="evenodd" clip-rule="evenodd" fill="url(#SVGID_14_)" points="108,634.9 125.1,584.5 360.4,584.5 
				366.2,634.9 			"/>
		</g>
	</g>
</g>
<g>
	<g>
		<g>
			<path fill-rule="evenodd" clip-rule="evenodd" fill-opacity="8.627451e-002" d="M617.1,344.7c-4.8-8.3-6.4-15.4-4.8-21.3
				c-2.6-15.5-12-22.7-28.2-21.8c-0.5,0-0.9-0.1-1.3-0.5s-0.6-0.8-0.7-1.3c0-0.6,0.1-1,0.5-1.4c0.4-0.4,0.8-0.7,1.4-0.7
				c15.5-1.2,25.5,4.8,30,18.1c-1.1,16.5,3.6,29.6,14,39.1c4.9,4,6.3,9.5,4.2,16.5c-2,6.5-7.4,14.5-16.2,24l-28.3,31.3
				c-8.1,9.4-12.5,17.8-13.2,25.4c-0.6,7.3,2.4,13.8,9,19.4h0.1c14.7,13.1,18.2,24.5,10.6,34.2c-6.9,9.2-24.3,16.8-52.2,22.7
				c-82.6,22-119.4,48.5-110.5,79.6c5,16.9,3.7,29.9-3.9,38.8c-7.4,9-20.9,14-40.7,15c-39.2,2-60.8-1-64.8-9
				c-4.2-7.7-6.2-12.9-6-15.5c0-0.6,0.2-1,0.6-1.3c0.4-0.4,0.9-0.6,1.4-0.5c0.5,0,0.9,0.2,1.3,0.6c0.4,0.4,0.5,0.9,0.5,1.4
				c0,2.3,1.9,6.8,5.5,13.5c3.8,6.6,24.2,8.9,61.2,7c18.4-1,31-5.5,37.9-13.6c6.6-8.2,7.7-19.9,3.2-35.3
				c-10.2-33.5,27.5-61.6,113.1-84.3l0.1,0c26.6-5.6,43.3-12.7,50-21.3c5.9-8.2,2.6-17.8-10.1-29v-0.1c-7.7-6.5-11.1-14.1-10.3-22.6
				c0.6-8.3,5.3-17.5,14.2-27.5l28.3-31.3c8.3-8.9,13.3-16.4,15.3-22.6c1.7-5.4,0.5-9.7-3.5-12.8C624.6,357.3,622,353,617.1,344.7z"
				/>
		</g>
	</g>
	<g>
		<path fill-rule="evenodd" clip-rule="evenodd" fill="#930000" d="M570,251.7c-0.5-0.3-0.8-0.8-0.8-1.3c-0.1-0.6,0-1.1,0.3-1.5
			c0.3-0.5,0.7-0.8,1.3-0.9c18.7-3.5,31.9-1.7,39.6,5.3c8,6.9,10.3,19.1,6.9,36.5c-6.1,31.8-3.8,51.8,7.1,60l0,0
			c5.4,4.1,7,9.8,4.8,17.3c-1.9,6.7-7.3,14.8-16.1,24.3L585,423c-8.1,9.4-12.4,18-13.1,25.7c-0.6,7.3,2.4,13.8,9,19.5l0,0
			c14.8,13.3,18.3,24.9,10.6,34.8c-6.9,9.4-24.3,17.1-52.3,23.1c-82.5,22.2-119.7,47.3-111.7,75c5.4,18.3,5.2,32.3-0.5,42.3
			c-5.7,10.2-17,16-33.9,17.6c-33.8,3.2-51.9-4.8-54.2-23.9c-1.1-8.3-3.4-14.1-6.7-17.4c-3.2-2.9-7.4-3.5-12.7-1.8l-1.5-0.1
			c-0.5-0.3-0.8-0.7-1-1.2c-0.2-0.6-0.2-1.1,0.1-1.5c0.3-0.5,0.7-0.9,1.2-1.1c7-2.3,12.5-1.4,16.7,2.7c4,3.7,6.7,10.3,8,19.8
			c2.5,16.5,19,23.3,49.7,20.4c15.3-1.4,25.5-6.6,30.7-15.5c5.1-9.2,5.1-22.2,0.1-39.1c-9.3-30.4,28.9-57.1,114.6-80.2l0.1-0.1
			c26.6-5.7,43.2-12.8,49.9-21.5c5.9-8.2,2.5-17.9-10-29.3l-0.1,0c-7.7-6.6-11.2-14.3-10.4-23c0.6-8.4,5.3-17.7,14.1-28l28.4-31.8v0
			c8.3-8.9,13.3-16.5,15.2-22.8c1.7-5.5,0.5-9.8-3.4-12.8l0,0c-12.4-8.6-15.3-30-8.7-64c3-15.6,1.1-26.4-5.6-32.6
			c-7-6.1-19.1-7.5-36.1-4.4C571,252.1,570.5,252,570,251.7z"/>
	</g>
	<g>
		<g>
			<radialGradient id="SVGID_15_" cx="605.9502" cy="260.3999" r="26.375" gradientUnits="userSpaceOnUse">
				<stop  offset="0" style="stop-color:#FFFFFF"/>
				<stop  offset="1" style="stop-color:#FFFFFF;stop-opacity:0"/>
			</radialGradient>
			<path fill-rule="evenodd" clip-rule="evenodd" fill="url(#SVGID_15_)" d="M583.5,247.3l0.3,0c13.3-0.4,22.7,2.9,28.2,9.9
				c5.5,7,7.1,17.6,4.8,31.8l-0.2,0.3l-0.3,0.1l-0.3-0.2l0-0.3c2.3-14,0.8-24.4-4.6-31.2c-5.4-6.8-14.6-10-27.6-9.7l-0.3-0.1
				l-0.1-0.3L583.5,247.3z"/>
			<radialGradient id="SVGID_16_" cx="617.0498" cy="333.5" r="20.6875" gradientUnits="userSpaceOnUse">
				<stop  offset="0" style="stop-color:#FFFFFF"/>
				<stop  offset="1" style="stop-color:#FFFFFF;stop-opacity:0"/>
			</radialGradient>
			<path fill-rule="evenodd" clip-rule="evenodd" fill="url(#SVGID_16_)" d="M612.5,313h0.3l0.2,0.1l0,0.3
				c-2.9,16.1,0.5,28.9,10.3,38.6l0.2,0.3l-0.2,0.3l-0.3,0.1l-0.3-0.1c-10-9.8-13.5-22.9-10.5-39.3L612.5,313z"/>
			<radialGradient id="SVGID_17_" cx="595.2002" cy="412.25" r="38.0125" gradientUnits="userSpaceOnUse">
				<stop  offset="0" style="stop-color:#FFFFFF"/>
				<stop  offset="1" style="stop-color:#FFFFFF;stop-opacity:0"/>
			</radialGradient>
			<path fill-rule="evenodd" clip-rule="evenodd" fill="url(#SVGID_17_)" d="M619.8,382.8l0.1,0.3l-0.1,0.3
				c-28.9,28.7-44.8,47.2-47.8,55.5l-0.3,0.2h-0.3l-0.2-0.2v-0.3c2.9-8.3,18.9-26.9,47.9-55.8l0.2-0.1L619.8,382.8z"/>
			<radialGradient id="SVGID_18_" cx="581.1504" cy="498.2754" r="18.7676" gradientUnits="userSpaceOnUse">
				<stop  offset="0" style="stop-color:#FFFFFF"/>
				<stop  offset="1" style="stop-color:#FFFFFF;stop-opacity:0"/>
			</radialGradient>
			<path fill-rule="evenodd" clip-rule="evenodd" fill="url(#SVGID_18_)" d="M591.2,482.8v-0.3l0.3-0.3h0.3l0.2,0.3
				c2.9,6.9,2.6,13-0.9,18.4c-3.5,5.2-10.1,9.7-20,13.3h-0.3l-0.3-0.2v-0.3c0-0.1,0.1-0.2,0.3-0.2c9.6-3.5,16.1-7.9,19.5-13
				C593.6,495.5,593.9,489.5,591.2,482.8z"/>
			<radialGradient id="SVGID_19_" cx="487.5996" cy="550.0996" r="64.2" gradientUnits="userSpaceOnUse">
				<stop  offset="0" style="stop-color:#FFFFFF"/>
				<stop  offset="1" style="stop-color:#FFFFFF;stop-opacity:0"/>
			</radialGradient>
			<path fill-rule="evenodd" clip-rule="evenodd" fill="url(#SVGID_19_)" d="M551.5,521.2l0.2,0.3l-0.1,0.3l-0.3,0.1
				c-61,13.6-101.7,31.9-122.1,54.7l-0.3,0.2l-0.3-0.2l-0.1-0.3l0.1-0.3c20.4-22.9,61.2-41.2,122.5-54.9L551.5,521.2z"/>
			<radialGradient id="SVGID_20_" cx="384.7998" cy="647.0996" r="38.4875" gradientUnits="userSpaceOnUse">
				<stop  offset="0" style="stop-color:#FFFFFF"/>
				<stop  offset="1" style="stop-color:#FFFFFF;stop-opacity:0"/>
			</radialGradient>
			<path fill-rule="evenodd" clip-rule="evenodd" fill="url(#SVGID_20_)" d="M418.5,651l-0.2,0.3c-22.8,11.9-46.3,12.4-70.2,1.5
				l-0.2-0.2v-0.3c0-0.1,0.1-0.1,0.3-0.2h0.3c23.8,10.8,47,10.3,69.6-1.5l0.3,0l0.3,0.2V651z"/>
		</g>
	</g>
</g>
<g>
	<g>
		<g>
			<g>
				<path fill-rule="evenodd" clip-rule="evenodd" fill="#2E3A3D" d="M571.6,335.4l-6.4-46l7-9.1v55.1H571.6z M226.2,289.4l-3.8,46
					v-46H226.2z"/>
				<polygon fill-rule="evenodd" clip-rule="evenodd" fill="#354346" points="222.5,289.4 222.5,335.4 571.6,335.4 572.3,335.4 
					572.3,280.3 585.4,276.3 585.4,345.6 208.8,345.6 208.8,267 222.5,267 				"/>
				
					<linearGradient id="SVGID_21_" gradientUnits="userSpaceOnUse" x1="-79.6978" y1="6.4902" x2="-79.7606" y2="149.3152" gradientTransform="matrix(0.8212 0 0 0.8212 462.5497 232.7997)">
					<stop  offset="0" style="stop-color:#96A7AA"/>
					<stop  offset="0.8078" style="stop-color:#546366"/>
					<stop  offset="0.8431" style="stop-color:#C1D2D4"/>
					<stop  offset="0.8667" style="stop-color:#354346"/>
					<stop  offset="1" style="stop-color:#43575B"/>
				</linearGradient>
				<polygon fill-rule="evenodd" clip-rule="evenodd" fill="url(#SVGID_21_)" points="222.5,335.4 226.2,289.4 229,256.5 
					560.8,256.5 565.3,289.4 571.6,335.4 				"/>
			</g>
		</g>
		<g>
			<g>
				<polygon fill-rule="evenodd" clip-rule="evenodd" fill-opacity="0.2471" points="469,338.1 469,338.3 468.9,338.3 				"/>
				
					<linearGradient id="SVGID_22_" gradientUnits="userSpaceOnUse" x1="84.2246" y1="79.9287" x2="108.5746" y2="79.9287" gradientTransform="matrix(3.372537e-005 0.8212 -0.8212 -8.212128e-004 462.5493 232.7996)">
					<stop  offset="0" style="stop-color:#070707"/>
					<stop  offset="0.3804" style="stop-color:#090909"/>
					<stop  offset="0.8941" style="stop-color:#0B0B0B;stop-opacity:0"/>
					<stop  offset="1" style="stop-color:#0E0E0E;stop-opacity:0"/>
				</linearGradient>
				<path fill-rule="evenodd" clip-rule="evenodd" fill="url(#SVGID_22_)" d="M570.7,320.2H445l-1.6-46.4h127.3V320.2z M350.5,320.2
					H238.6l-3,2.3h-12.6v-37.6l4.7-11l125.9-0.5L350.5,320.2z"/>
			</g>
		</g>
	</g>
	<g>
		<polygon fill-rule="evenodd" clip-rule="evenodd" fill="#1E1E1E" fill-opacity="0.7059" points="418.2,202.4 418.4,202.3 
			418.4,202.7 		"/>
		<g>
			<g>
				<polygon fill-rule="evenodd" clip-rule="evenodd" fill="#3C3633" points="470.3,234.2 349.1,234.2 351.4,187.3 465.8,187.6 				
					"/>
				<polygon fill-rule="evenodd" clip-rule="evenodd" fill="#0F0B0B" points="349.1,234.2 470.3,234.2 470.4,234.5 470.4,244.3 
					349.1,244.3 				"/>
			</g>
		</g>
		<g>
			
				<linearGradient id="SVGID_23_" gradientUnits="userSpaceOnUse" x1="-66.0752" y1="-82.125" x2="-60.3252" y2="-82.125" gradientTransform="matrix(0.8212 0 0 0.8212 462.5497 232.7997)">
				<stop  offset="0" style="stop-color:#595A58"/>
				<stop  offset="0.1961" style="stop-color:#515151"/>
				<stop  offset="0.6667" style="stop-color:#959595"/>
				<stop  offset="1" style="stop-color:#333333"/>
			</linearGradient>
			<path fill-rule="evenodd" clip-rule="evenodd" fill="url(#SVGID_23_)" d="M410.8,119.8c0.9,0,1.6-0.2,2.2-0.7l0.8-1l-0.6,92.6
				l-0.8,1.1c-0.6,0.5-1.3,0.8-2.1,0.8s-1.5-0.3-2.1-0.8l-0.7-0.9l0.6-92.3l0.5,0.5C409.2,119.6,409.9,119.8,410.8,119.8z"/>
		</g>
		<g>
			<g>
				<rect x="381.2" y="131.3" fill-rule="evenodd" clip-rule="evenodd" fill="#4E4D4D" width="58.1" height="2.6"/>
				<rect x="381.2" y="120.1" fill-rule="evenodd" clip-rule="evenodd" fill="#151515" width="58.1" height="11.2"/>
			</g>
		</g>
		<g>
			
				<linearGradient id="SVGID_24_" gradientUnits="userSpaceOnUse" x1="-62.7622" y1="-127.9375" x2="-62.7622" y2="-133.9625" gradientTransform="matrix(0.8212 0 0 0.8212 462.5497 232.7997)">
				<stop  offset="0" style="stop-color:#15110A"/>
				<stop  offset="0.1569" style="stop-color:#9D8448"/>
				<stop  offset="0.2471" style="stop-color:#9D8448"/>
				<stop  offset="0.4196" style="stop-color:#6F5C33"/>
				<stop  offset="0.6353" style="stop-color:#E1E1E1"/>
				<stop  offset="0.7098" style="stop-color:#F7EEDD"/>
				<stop  offset="0.8078" style="stop-color:#F7EEDD"/>
				<stop  offset="1" style="stop-color:#15130F"/>
			</linearGradient>
			<path fill-rule="evenodd" clip-rule="evenodd" fill="url(#SVGID_24_)" d="M454.2,127.6h-86.3c-0.8-1.5-0.8-3,0-4.5h86.3
				C455,124.6,455,126.1,454.2,127.6z"/>
		</g>
		<g>
			<g>
				<path fill-rule="evenodd" clip-rule="evenodd" fill="#353535" d="M430.6,129.7c0-0.8,0-0.7,0,0.3v-6l0.1-0.2l1.1-10.6h0v7.6
					L430.6,129.7z"/>
				<polygon fill-rule="evenodd" clip-rule="evenodd" fill="#484848" points="430.6,124.1 389.9,124.1 389.9,123.9 389.9,123.6 
					392.5,113.2 431.8,113.2 430.7,123.8 				"/>
				
					<linearGradient id="SVGID_25_" gradientUnits="userSpaceOnUse" x1="-63.6665" y1="-132.4619" x2="-63.6999" y2="-115.7369" gradientTransform="matrix(0.8212 0 0 0.8212 462.5497 232.7997)">
					<stop  offset="0" style="stop-color:#6F6F6F"/>
					<stop  offset="1" style="stop-color:#3F3D3D"/>
				</linearGradient>
				<path fill-rule="evenodd" clip-rule="evenodd" fill="url(#SVGID_25_)" d="M389.9,124.1h40.7v6c0-1,0-1.1,0-0.3
					c0,0.3,0,0.8,0,1.5l0,2.7h-40.7V124.1z"/>
			</g>
		</g>
		<g>
			<g>
				<path fill-rule="evenodd" clip-rule="evenodd" fill="#3A301A" d="M452.2,124.5c0.2,1.1,1.1,2.1,2.6,2.9c1.8,1,4,1.6,6.5,1.6
					s4.7-0.5,6.5-1.6c1.5-0.8,2.4-1.8,2.7-2.9l0.1,0.9c0,1.5-0.9,2.7-2.8,3.7c-1.8,1-4,1.5-6.5,1.5s-4.7-0.5-6.5-1.5
					c-1.8-1-2.8-2.3-2.8-3.7L452.2,124.5z"/>
				
					<linearGradient id="SVGID_26_" gradientUnits="userSpaceOnUse" x1="-12.7749" y1="-132.8496" x2="9.7751" y2="-132.8496" gradientTransform="matrix(0.8212 0 0 0.8212 462.5497 232.7997)">
					<stop  offset="0" style="stop-color:#806B3B"/>
					<stop  offset="0.4118" style="stop-color:#77653A"/>
					<stop  offset="0.6706" style="stop-color:#9F8F6A"/>
					<stop  offset="1" style="stop-color:#9D8448"/>
				</linearGradient>
				<path fill-rule="evenodd" clip-rule="evenodd" fill="url(#SVGID_26_)" d="M470.5,124.5c-0.3,1.1-1.2,2.1-2.7,2.9
					c-1.8,1-4,1.6-6.5,1.6s-4.7-0.5-6.5-1.6c-1.5-0.8-2.3-1.8-2.6-2.9l-0.2-0.8c0-1.5,0.9-2.8,2.8-3.9c1.7-0.9,3.7-1.4,6.2-1.5h0.9
					c2.3,0.1,4.3,0.6,6,1.5c1.8,1,2.8,2.3,2.8,3.9L470.5,124.5z"/>
			</g>
		</g>
		<g>
			<g>
				
					<linearGradient id="SVGID_27_" gradientUnits="userSpaceOnUse" x1="114.2251" y1="132.624" x2="136.7754" y2="132.624" gradientTransform="matrix(-0.8212 0 0 -0.8212 462.5495 232.7995)">
					<stop  offset="0" style="stop-color:#806B3B"/>
					<stop  offset="0.4118" style="stop-color:#77653A"/>
					<stop  offset="0.6706" style="stop-color:#9F8F6A"/>
					<stop  offset="1" style="stop-color:#9D8448"/>
				</linearGradient>
				<path fill-rule="evenodd" clip-rule="evenodd" fill="url(#SVGID_27_)" d="M368.6,124.7c-0.2,1.1-1.1,2.1-2.6,2.9
					c-1.8,1-3.9,1.6-6.5,1.6c-2.6,0-4.8-0.5-6.6-1.6c-1.5-0.8-2.3-1.8-2.6-2.9l-0.1-0.8c0-1.5,0.9-2.8,2.7-3.8
					c1.7-0.9,3.7-1.4,6-1.5h0.9c2.4,0.1,4.5,0.6,6.1,1.5c1.8,1,2.8,2.3,2.8,3.8L368.6,124.7z"/>
				<path fill-rule="evenodd" clip-rule="evenodd" fill="#3A301A" d="M368.6,124.7l0.1,0.9c0,1.5-0.9,2.7-2.8,3.7
					c-1.8,1-3.9,1.5-6.5,1.5c-2.6,0-4.8-0.5-6.6-1.5c-1.8-1-2.7-2.3-2.7-3.7l0.1-0.9c0.3,1.1,1.2,2.1,2.6,2.9c1.8,1,4,1.6,6.6,1.6
					c2.5,0,4.7-0.5,6.5-1.6C367.5,126.8,368.4,125.9,368.6,124.7z"/>
			</g>
		</g>
		<g>
			<path fill-rule="evenodd" clip-rule="evenodd" d="M407.7,131.7c-0.6-0.6-0.9-1.4-0.9-2.2c0-0.9,0.3-1.7,0.9-2.3
				c0.6-0.6,1.4-0.9,2.3-0.9c0.9,0,1.6,0.3,2.2,0.9c0.7,0.7,1,1.4,1,2.3c0,0.8-0.3,1.6-1,2.2c-0.6,0.7-1.3,1-2.2,1
				C409.1,132.8,408.3,132.4,407.7,131.7z"/>
		</g>
		<g>
			
				<linearGradient id="SVGID_28_" gradientUnits="userSpaceOnUse" x1="-104.2378" y1="-74.5205" x2="-97.9146" y2="-74.5205" gradientTransform="matrix(0.7598 0.3117 -0.2625 0.78 462.5501 232.8001)">
				<stop  offset="0" style="stop-color:#5D5D5D"/>
				<stop  offset="0.1882" style="stop-color:#ADADAD"/>
				<stop  offset="0.3137" style="stop-color:#645F5F"/>
				<stop  offset="0.6039" style="stop-color:#A8A5A5"/>
				<stop  offset="1" style="stop-color:#585858"/>
			</linearGradient>
			<path fill-rule="evenodd" clip-rule="evenodd" fill="url(#SVGID_28_)" d="M407.1,128.7c0.3-0.8,0.8-1.3,1.5-1.7
				c0.7-0.4,1.4-0.4,2.2-0.2c0.8,0.2,1.4,0.7,1.8,1.5c0.4,0.7,0.4,1.4,0.1,2.2l-9,27.2c-0.2,0.8-0.7,1.4-1.4,1.8
				c-0.7,0.3-1.5,0.4-2.3,0.1c-0.8-0.2-1.3-0.7-1.7-1.4c-0.4-0.7-0.4-1.5-0.2-2.3L407.1,128.7z"/>
		</g>
		<g>
			<g>
				
					<linearGradient id="SVGID_29_" gradientUnits="userSpaceOnUse" x1="-23.6982" y1="-120.3311" x2="-22.6004" y2="-145.8811" gradientTransform="matrix(0.8212 0 0 0.8212 462.5497 232.7997)">
					<stop  offset="0" style="stop-color:#1E1E1E"/>
					<stop  offset="0.1843" style="stop-color:#202020"/>
					<stop  offset="0.298" style="stop-color:#262626"/>
					<stop  offset="0.4078" style="stop-color:#2C2C2C"/>
					<stop  offset="0.6" style="stop-color:#514D4D"/>
					<stop  offset="0.7294" style="stop-color:#373737"/>
					<stop  offset="0.8431" style="stop-color:#2A2A2A"/>
					<stop  offset="1" style="stop-color:#262626"/>
				</linearGradient>
				<path fill-rule="evenodd" clip-rule="evenodd" fill="url(#SVGID_29_)" d="M438.9,133.8l0.5-3l0.3-7.5l-0.3-7.4
					c-0.2-2.1-0.4-3.1-0.7-3.1h0.1l9.2,3.2v0c0.2,0,0.4,0.7,0.5,2.1v10.5c-0.1,1.4-0.2,2.1-0.5,2.1v0L438.9,133.8z"/>
				<path fill-rule="evenodd" clip-rule="evenodd" fill="#6F6F6F" d="M437.8,133.8l0.5-3v-14.9l-0.1-0.9c-0.1-1.5-0.3-2.2-0.5-2.2
					h1.1c0.2,0,0.5,1,0.7,3.1l0.3,7.4l-0.3,7.5l-0.5,3H437.8z"/>
				<path fill-rule="evenodd" clip-rule="evenodd" fill="#4E4E4E" d="M437.7,112.7c0.2,0,0.4,0.7,0.5,2.2l0.1,0.9v14.9l-0.5,3h-0.2
					c-0.2-0.4-0.4-1.4-0.5-3c-0.2-2-0.3-4.5-0.3-7.5c0-2.9,0.1-5.4,0.3-7.4c0.1-1.7,0.3-2.7,0.5-3L437.7,112.7z"/>
			</g>
		</g>
		<g>
			<g>
				<path fill-rule="evenodd" clip-rule="evenodd" fill="#6F6F6F" d="M382.9,112.7c-0.2,0-0.4,0.7-0.6,2.2l0,0.9
					c-0.2,1.9-0.3,4.3-0.3,6.9v0.5c0,3.4,0.1,5.9,0.3,7.5l0,1c0.1,1.1,0.3,1.8,0.5,2.1h-1.1l-0.5-3v-14.9c0.2-2.1,0.5-3.1,0.7-3.1
					H382.9z"/>
				
					<linearGradient id="SVGID_30_" gradientUnits="userSpaceOnUse" x1="124.6704" y1="-98.3911" x2="150.2441" y2="-98.3911" gradientTransform="matrix(-3.525409e-002 -0.8205 0.8205 -3.525409e-002 462.5498 232.8)">
					<stop  offset="0" style="stop-color:#1E1E1E"/>
					<stop  offset="0.1843" style="stop-color:#202020"/>
					<stop  offset="0.298" style="stop-color:#262626"/>
					<stop  offset="0.4078" style="stop-color:#2C2C2C"/>
					<stop  offset="0.6" style="stop-color:#514D4D"/>
					<stop  offset="0.7294" style="stop-color:#373737"/>
					<stop  offset="0.8431" style="stop-color:#2A2A2A"/>
					<stop  offset="1" style="stop-color:#262626"/>
				</linearGradient>
				<path fill-rule="evenodd" clip-rule="evenodd" fill="url(#SVGID_30_)" d="M381.8,112.7c-0.3,0-0.5,1-0.7,3.1v14.9l0.5,3
					l-9.2-3.2l0,0l-0.5-2.1v-10.5l0.5-2.1l0,0l9.2-3.2H381.8z"/>
				<path fill-rule="evenodd" clip-rule="evenodd" fill="#4E4E4E" d="M382.7,133.8c-0.2-0.2-0.3-0.9-0.5-2.1l0-1
					c-0.2-1.6-0.3-4.1-0.3-7.5v-0.5c0-2.7,0.1-5,0.3-6.9l0-0.9c0.2-1.5,0.4-2.2,0.6-2.2l0.1,0.1l0.6,3v14.9l-0.5,3H382.7z"/>
			</g>
		</g>
		<g>
			<path fill-rule="evenodd" clip-rule="evenodd" d="M406.6,115.6c1.1-0.5,2.4-0.8,3.9-0.8c1.5,0,2.8,0.3,3.9,0.8
				c1.1,0.5,1.6,1.1,1.6,1.8c0,0.7-0.5,1.4-1.6,1.9c-1.1,0.6-2.4,0.9-3.9,0.9c-1.6,0-2.9-0.3-3.9-0.9c-1.1-0.5-1.6-1.1-1.6-1.9
				C404.9,116.7,405.5,116.1,406.6,115.6z"/>
		</g>
		<g>
			<g>
				
					<linearGradient id="SVGID_31_" gradientUnits="userSpaceOnUse" x1="-68.0127" y1="-254.7002" x2="-59.1877" y2="-254.7002" gradientTransform="matrix(0.8212 0 0 0.8212 462.5497 232.7997)">
					<stop  offset="0" style="stop-color:#595A58"/>
					<stop  offset="0.1961" style="stop-color:#515151"/>
					<stop  offset="0.6667" style="stop-color:#959595"/>
					<stop  offset="1" style="stop-color:#333333"/>
				</linearGradient>
				<path fill-rule="evenodd" clip-rule="evenodd" fill="url(#SVGID_31_)" d="M413.1-72.2c0.7,63.1,1,126.2,0.8,189.1v1.2l-1,1
					c-0.6,0.5-1.4,0.7-2.4,0.7c-1,0-1.8-0.2-2.5-0.7l-0.5-0.5v-2.3c0.1-63.1-0.1-125.9-0.8-188.5v-0.4c0,0.1,0.3,0.2,0.9,0.3
					l3.3,0.2l2.2-0.4V-72.2z"/>
				
					<polygon fill-rule="evenodd" clip-rule="evenodd" fill="none" stroke="#4D4D4D" stroke-linecap="round" stroke-linejoin="round" stroke-miterlimit="3" points="
					405.4,220.1 405.4,220.6 405.3,220.3 				"/>
			</g>
		</g>
		<g>
			<g>
				<path fill-rule="evenodd" clip-rule="evenodd" fill="#1E1E1E" fill-opacity="0.8118" d="M413.1,209.7l-6-0.1v-0.1l0.1-0.2
					l0.1-9.3c0.5,3.9,1.1,4.6,1.6,2.3c0.6-2.4,1-7,1.4-14c0.2-26.2,0.4-39.9,0.7-41.1c0.3-1.2,0.5,1.9,0.5,9.2
					c0,7.3,0.5,17.9,1.5,31.7L413.1,209.7z"/>
				<path fill-rule="evenodd" clip-rule="evenodd" fill="#1E1E1E" fill-opacity="0.7059" d="M407.2,209.6l6,0.1l0.1-0.2v0.1
					c0.8,0.6,1.1,1.2,0.7,1.9c-0.4,0.7-1.5,1.1-3.4,1.3c-1.9,0.1-3.1-0.5-3.7-2c-0.2-0.6-0.1-0.9,0.3-1.1L407.2,209.6z"/>
			</g>
		</g>
		<g>
			
				<path fill-rule="evenodd" clip-rule="evenodd" fill="none" stroke="#FFFFFF" stroke-linecap="round" stroke-linejoin="round" stroke-miterlimit="3" stroke-opacity="0.2471" d="
				M390.8,124.1h40.3 M349.1,234.2h121.3"/>
		</g>
	</g>
	<g>
		<g>
			
				<radialGradient id="SVGID_32_" cx="-27.9502" cy="-135" r="2.6875" gradientTransform="matrix(0.8212 0 0 3.1397 462.5497 545.7963)" gradientUnits="userSpaceOnUse">
				<stop  offset="0" style="stop-color:#FFFFFF"/>
				<stop  offset="0.1765" style="stop-color:#FFFFFF"/>
				<stop  offset="0.3059" style="stop-color:#FFFFFF;stop-opacity:0.4235"/>
				<stop  offset="0.4902" style="stop-color:#FFFFFF;stop-opacity:0.2314"/>
				<stop  offset="0.651" style="stop-color:#FFFFFF;stop-opacity:8.235294e-002"/>
				<stop  offset="1" style="stop-color:#FFFFFF;stop-opacity:0"/>
			</radialGradient>
			<path fill-rule="evenodd" clip-rule="evenodd" fill="url(#SVGID_32_)" d="M441.2,116.2c0.4,1.5,0.6,3.4,0.6,5.7
				c0,0.6,0,1.3,0,1.8c-0.1,1.6-0.3,2.9-0.6,4.1c-0.4,1.6-1,2.5-1.6,2.5c-0.6,0-1.1-0.8-1.6-2.5c-0.3-1.1-0.5-2.5-0.5-4.1
				c0-0.6,0-1.2,0-1.8c0-2.3,0.2-4.2,0.6-5.7c0.4-1.7,1-2.5,1.6-2.5C440.2,113.7,440.7,114.6,441.2,116.2z"/>
		</g>
		<g>
			
				<radialGradient id="SVGID_33_" cx="-99.7998" cy="-135.7002" r="2.6875" gradientTransform="matrix(0.8212 0 0 3.1397 462.5497 547.4197)" gradientUnits="userSpaceOnUse">
				<stop  offset="0" style="stop-color:#FFFFFF"/>
				<stop  offset="0.1765" style="stop-color:#FFFFFF"/>
				<stop  offset="0.3059" style="stop-color:#FFFFFF;stop-opacity:0.4235"/>
				<stop  offset="0.4902" style="stop-color:#FFFFFF;stop-opacity:0.2314"/>
				<stop  offset="0.651" style="stop-color:#FFFFFF;stop-opacity:8.235294e-002"/>
				<stop  offset="1" style="stop-color:#FFFFFF;stop-opacity:0"/>
			</radialGradient>
			<path fill-rule="evenodd" clip-rule="evenodd" fill="url(#SVGID_33_)" d="M378.5,121.4c0-2.3,0.2-4.2,0.6-5.7
				c0.4-1.7,1-2.5,1.6-2.5c0.6,0,1.1,0.8,1.6,2.5c0.4,1.5,0.6,3.4,0.6,5.7c0,2.4-0.2,4.4-0.6,5.9c-0.4,1.6-1,2.5-1.6,2.5
				c-0.6,0-1.1-0.8-1.6-2.5C378.6,125.7,378.5,123.7,378.5,121.4z"/>
		</g>
		<g>
			
				<radialGradient id="SVGID_34_" cx="-63.8999" cy="-137.6006" r="5.9877" gradientTransform="matrix(0.8212 0 0 0.3 462.5497 161.084)" gradientUnits="userSpaceOnUse">
				<stop  offset="0" style="stop-color:#FFFFFF"/>
				<stop  offset="0.1765" style="stop-color:#FFFFFF"/>
				<stop  offset="0.3059" style="stop-color:#FFFFFF;stop-opacity:0.4235"/>
				<stop  offset="0.4902" style="stop-color:#FFFFFF;stop-opacity:0.2314"/>
				<stop  offset="0.651" style="stop-color:#FFFFFF;stop-opacity:8.235294e-002"/>
				<stop  offset="1" style="stop-color:#FFFFFF;stop-opacity:0"/>
			</radialGradient>
			<path fill-rule="evenodd" clip-rule="evenodd" fill="url(#SVGID_34_)" d="M405.3,119.8c0-0.5,0.5-0.9,1.4-1.2
				c1-0.4,2.1-0.5,3.4-0.5c1.3,0,2.5,0.2,3.4,0.5c1,0.3,1.4,0.7,1.4,1.2c0,0.5-0.5,0.9-1.4,1.3c-1,0.3-2.1,0.5-3.4,0.5
				c-1.3,0-2.5-0.2-3.4-0.5C405.7,120.7,405.3,120.3,405.3,119.8z"/>
		</g>
	</g>
	<g>
		<g>
			
				<linearGradient id="SVGID_35_" gradientUnits="userSpaceOnUse" x1="-78.75" y1="-37.2002" x2="-70.05" y2="-37.2002" gradientTransform="matrix(0.8212 0 0 0.8212 462.5497 232.7997)">
				<stop  offset="0" style="stop-color:#FFFFFF"/>
				<stop  offset="0.2471" style="stop-color:#A49F97"/>
				<stop  offset="0.3176" style="stop-color:#AAA69E;stop-opacity:0"/>
				<stop  offset="0.5882" style="stop-color:#FFFFFF"/>
				<stop  offset="0.7765" style="stop-color:#EDE9E6;stop-opacity:0"/>
				<stop  offset="1" style="stop-color:#3F3E3C"/>
				<stop  offset="1" style="stop-color:#B2AEAB"/>
			</linearGradient>
			<path fill-rule="evenodd" clip-rule="evenodd" fill="url(#SVGID_35_)" d="M398.9,129c0.7-0.5,1.6-0.7,2.6-0.7
				c1,0,1.8,0.2,2.5,0.7c0.7,0.5,1.1,1,1.1,1.6v145.7h-7.2V130.6C397.8,130,398.1,129.4,398.9,129z"/>
		</g>
		<g>
			
				<radialGradient id="SVGID_36_" cx="-75.0996" cy="-86.5498" r="11.0496" gradientTransform="matrix(0.8212 0 0 0.4663 462.5497 202.0859)" gradientUnits="userSpaceOnUse">
				<stop  offset="0" style="stop-color:#FFFFFF"/>
				<stop  offset="0.6235" style="stop-color:#282828"/>
				<stop  offset="0.8157" style="stop-color:#AAA6A6"/>
				<stop  offset="1" style="stop-color:#000000"/>
			</radialGradient>
			<path fill-rule="evenodd" clip-rule="evenodd" fill="url(#SVGID_36_)" d="M404.9,158.4l0.7,0.4c1.8,1,2.7,2.3,2.5,3.8
				c0.1,1.5-0.7,2.8-2.5,3.8c-1.3,0.8-2.9,1.1-4.8,1.1c-1.9,0-3.5-0.4-4.8-1.1c-1.8-1-2.7-2.3-2.5-3.8c-0.1-1.5,0.7-2.8,2.5-3.8
				l1.6-0.7v4c-0.4,0.1-0.6,0.2-0.6,0.5l0.7,0.7c0.8,0.5,1.9,0.7,3.1,0.7c1.2,0,2.2-0.2,3.1-0.7l1-0.8h-0.2L404.9,158.4z"/>
		</g>
	</g>
	<g>
		
			<linearGradient id="SVGID_37_" gradientUnits="userSpaceOnUse" x1="-136.2998" y1="-20.876" x2="-131.9998" y2="-20.876" gradientTransform="matrix(-0.8212 0 0 -0.8212 462.5495 232.7995)">
			<stop  offset="0" style="stop-color:#FFFFFF"/>
			<stop  offset="1" style="stop-color:#000000"/>
		</linearGradient>
		<path fill-rule="evenodd" clip-rule="evenodd" fill="url(#SVGID_37_)" d="M572.3,229.9l0.1,0c0.2,0.2,0.4,0.4,0.5,0.8l0.5,2.5
			l0.9,12v15.2c-0.2,3.8-0.4,6.5-0.7,7.9l-0.3,1.1l-0.5,0.6c-0.3,0-0.6-1-0.9-2.9c-0.4-2.2-0.7-5.1-0.8-8.7l-0.1-20.6l0.3-3.9
			l0.1-0.7c0.1-1.2,0.3-2.1,0.5-2.7L572.3,229.9z"/>
		<g>
			
				<linearGradient id="SVGID_38_" gradientUnits="userSpaceOnUse" x1="-3.1338" y1="-146.0254" x2="44.6412" y2="-146.0254" gradientTransform="matrix(1.718917e-005 0.8212 -0.8212 -8.212128e-004 462.5495 232.7996)">
				<stop  offset="0" style="stop-color:#5B5A5A"/>
				<stop  offset="8.235294e-002" style="stop-color:#828282"/>
				<stop  offset="0.1529" style="stop-color:#FFFFFF"/>
				<stop  offset="0.1961" style="stop-color:#FFFFFF"/>
				<stop  offset="0.2588" style="stop-color:#D1D1D1"/>
				<stop  offset="0.4078" style="stop-color:#B6B6B6"/>
				<stop  offset="0.6667" style="stop-color:#544D4D"/>
				<stop  offset="1" style="stop-color:#000000"/>
			</linearGradient>
			<path fill-rule="evenodd" clip-rule="evenodd" fill="url(#SVGID_38_)" d="M591.2,230.7l0.4,2.1l0.9,12.3v15.2
				c-0.2,4.7-0.5,7.7-0.9,9.1c-0.1,0.4-0.3,0.6-0.4,0.6h-18.2l0.5-0.6l0.3-1.1c0.3-1.5,0.5-4.1,0.7-7.9v-15.2l-0.9-12l-0.5-2.5
				c-0.1-0.4-0.3-0.7-0.5-0.8h18.3l0,0L591.2,230.7z"/>
		</g>
		<g>
			<g>
				<path fill-rule="evenodd" clip-rule="evenodd" fill="#685B57" d="M555.5,243.7l0.1,5.1l-0.1,15.3l-0.1,3.3
					c-0.3,6.4-0.7,10.8-1.1,13.3l-0.5,1.8c-0.2,0.7-0.5,1.1-0.7,1.1c-0.5,0-1-1.6-1.5-4.8c-0.6-3.6-1-8.5-1.3-14.6l-0.5-15.3
					l0.2-16.1l0.8-10.8c0.2-2,0.5-3.5,0.8-4.4l0.5-0.9l0.2-0.1c0.4,0.3,0.7,0.8,0.9,1.4l0.8,3.6l0.9,8.3L555.5,243.7z"/>
				
					<linearGradient id="SVGID_39_" gradientUnits="userSpaceOnUse" x1="-22.6421" y1="-129.6768" x2="15.6829" y2="-129.6768" gradientTransform="matrix(2.142760e-005 0.8212 -0.8212 -8.212128e-004 462.5495 232.7996)">
					<stop  offset="0" style="stop-color:#8DA0A4"/>
					<stop  offset="1" style="stop-color:#6C797B"/>
				</linearGradient>
				<path fill-rule="evenodd" clip-rule="evenodd" fill="url(#SVGID_39_)" d="M585.9,243.7h-30.4l-0.8-14.1l-0.9-8.3l-0.8-3.6
					c-0.2-0.7-0.5-1.1-0.9-1.4h30.6l0.2,0.1c0.2,0.2,0.4,0.6,0.6,1.3l1.6,11.9c0.3,3.5,0.5,7.6,0.7,12.2L585.9,243.7z"/>
				
					<linearGradient id="SVGID_40_" gradientUnits="userSpaceOnUse" x1="13.1431" y1="-131.7466" x2="19.2931" y2="-131.7466" gradientTransform="matrix(1.335305e-004 0.8212 -0.8212 -8.212130e-004 462.5493 232.7996)">
					<stop  offset="0" style="stop-color:#717F81"/>
					<stop  offset="0.1373" style="stop-color:#94A5A8"/>
					<stop  offset="0.2941" style="stop-color:#8DA0A4"/>
					<stop  offset="1" style="stop-color:#8DA0A4"/>
				</linearGradient>
				<polygon fill-rule="evenodd" clip-rule="evenodd" fill="url(#SVGID_40_)" points="586,248.8 555.6,248.8 555.5,243.7 
					585.9,243.7 				"/>
				
					<linearGradient id="SVGID_41_" gradientUnits="userSpaceOnUse" x1="40.8711" y1="-130.2207" x2="50.5711" y2="-130.2207" gradientTransform="matrix(8.466111e-005 0.8212 -0.8212 -8.212128e-004 462.5498 232.7997)">
					<stop  offset="0" style="stop-color:#8DA0A4"/>
					<stop  offset="0.102" style="stop-color:#96A7AA"/>
					<stop  offset="0.2275" style="stop-color:#4E5D60"/>
					<stop  offset="1" style="stop-color:#354346"/>
				</linearGradient>
				<path fill-rule="evenodd" clip-rule="evenodd" fill="url(#SVGID_41_)" d="M555.5,264.1h30.5l-0.1,3.3
					c-0.3,7.9-0.8,12.9-1.6,15.1c-0.2,0.7-0.5,1.1-0.7,1.1H553c0.2,0,0.5-0.4,0.7-1.1l0.5-1.8c0.5-2.5,0.9-6.9,1.1-13.3L555.5,264.1
					z"/>
				<polygon fill-rule="evenodd" clip-rule="evenodd" fill="#8DA0A4" points="555.6,248.8 586,248.8 585.9,264.1 555.5,264.1 				
					"/>
			</g>
		</g>
		<g>
			<g>
				<path fill-rule="evenodd" clip-rule="evenodd" fill="#1F1A17" d="M563.6,190.8l0.3,0.2c0.4,0.3,0.7,1.1,1.1,2.3l1.3,6.2
					c1.3,8.3,2.2,20.2,2.8,35.9c0.3,8,0.4,15.8,0.4,23.4c0,7.2-0.2,14.2-0.4,21c-0.4,10.8-1.1,18.5-2,23.2l-0.8,3.2
					c-0.4,1.2-0.8,1.8-1.2,1.8c-0.9-0.1-1.8-2.9-2.7-8.5c-1.3-8.3-2.2-20.3-2.8-36c-0.6-15.8-0.6-30.5,0-44.3
					c0.3-6.8,0.6-12.3,1.1-16.8c0.4-4.6,1-7.9,1.7-9.8c0.3-0.9,0.6-1.5,0.9-1.8l0.2-0.2H563.6z"/>
				
					<linearGradient id="SVGID_42_" gradientUnits="userSpaceOnUse" x1="-51.228" y1="-129.0244" x2="91.5752" y2="-129.0244" gradientTransform="matrix(5.752804e-006 0.8212 -0.8212 -8.212128e-004 462.5497 232.7996)">
					<stop  offset="0" style="stop-color:#5B5A5A"/>
					<stop  offset="0.3922" style="stop-color:#B6B6B6"/>
					<stop  offset="0.6941" style="stop-color:#9C9A9A"/>
					<stop  offset="1" style="stop-color:#201E1D"/>
				</linearGradient>
				<path fill-rule="evenodd" clip-rule="evenodd" fill="url(#SVGID_42_)" d="M564.9,308.1c0.4,0,0.8-0.6,1.2-1.8l0.8-3.2
					c0.9-4.7,1.5-12.4,2-23.2c0.2-6.8,0.4-13.9,0.4-21c0-7.6-0.1-15.3-0.4-23.4c-0.5-15.7-1.5-27.7-2.8-35.9l-1.3-6.2
					c-0.4-1.3-0.7-2-1.1-2.3l-0.3-0.2h4.1l0.2,0.2c0.4,0.3,0.7,1.1,1.1,2.3c0.4,1.5,0.8,3.5,1.3,6.2c1.3,8.3,2.2,20.2,2.8,35.9
					c0.3,8,0.4,15.8,0.4,23.4l-0.4,21c-0.5,13.7-1.5,22.5-2.8,26.4c-0.4,1.2-0.8,1.8-1.2,1.8H564.9z"/>
			</g>
		</g>
		<g>
			
				<linearGradient id="SVGID_43_" gradientUnits="userSpaceOnUse" x1="-47.3164" y1="-54.0991" x2="87.9086" y2="-54.0991" gradientTransform="matrix(6.072936e-006 0.8212 -0.8212 -8.212128e-004 462.5502 232.7996)">
				<stop  offset="0" style="stop-color:#292929"/>
				<stop  offset="0.1294" style="stop-color:#7E7878"/>
				<stop  offset="0.2588" style="stop-color:#565656"/>
				<stop  offset="0.5176" style="stop-color:#8C7E7E"/>
				<stop  offset="0.7961" style="stop-color:#484343"/>
				<stop  offset="1" style="stop-color:#272727"/>
			</linearGradient>
			<path fill-rule="evenodd" clip-rule="evenodd" fill="url(#SVGID_43_)" d="M561.7,194.2l0.2,0.2c0.3,0.3,0.7,0.9,1,2l0,0.2
				c0.4,1.4,0.8,3.3,1.2,5.8l1.2,10.6c0.5,5.6,0.9,12.1,1.2,19.7l0.1,3.7c0.3,7.6,0.4,15,0.4,22.1l-0.4,19.8
				c-0.5,13-1.4,21.3-2.6,24.9c-0.4,1.2-0.8,1.8-1.2,1.8h-116V194.2H561.7z"/>
		</g>
		<g>
			<g>
				<path fill-rule="evenodd" clip-rule="evenodd" fill="#1F1A17" d="M444.3,190.8c0.2,0.1,0.5,0.9,0.7,2.5l1.1,11.4
					c0.5,7.8,1,18.1,1.2,30.8l0.2,23.4l-0.2,21l-0.5,14.7c-0.3,5.6-0.6,9.5-1.1,11.7c-0.2,1.1-0.4,1.7-0.6,1.8h0
					c-0.5-0.1-1-2.9-1.5-8.5c-0.7-8.3-1.2-20.3-1.5-36c-0.3-15.8-0.4-30.5-0.1-44.3c0.2-6.8,0.4-12.3,0.7-16.8
					c0.2-4.6,0.5-7.9,0.9-9.8c0.2-1.2,0.4-1.8,0.7-1.9H444.3z"/>
				
					<linearGradient id="SVGID_44_" gradientUnits="userSpaceOnUse" x1="-51.0889" y1="17.9756" x2="91.7212" y2="17.9756" gradientTransform="matrix(5.752804e-006 0.8212 -0.8212 -8.212128e-004 462.5497 232.7996)">
					<stop  offset="0" style="stop-color:#5B5A5A"/>
					<stop  offset="0.3922" style="stop-color:#B6B6B6"/>
					<stop  offset="0.6941" style="stop-color:#9C9A9A"/>
					<stop  offset="1" style="stop-color:#201E1D"/>
				</linearGradient>
				<path fill-rule="evenodd" clip-rule="evenodd" fill="url(#SVGID_44_)" d="M445.1,308.1c0.2-0.1,0.4-0.8,0.6-1.8
					c0.5-2.2,0.8-6.1,1.1-11.7l0.5-14.7l0.2-21l-0.2-23.4c-0.3-12.7-0.7-22.9-1.2-30.8l-1.1-11.4c-0.3-1.6-0.5-2.4-0.7-2.5h3.6
					c0.3-0.1,0.6,0.8,0.9,2.5l0.7,6.2c0.7,8.3,1.2,20.2,1.6,35.9l0.2,23.4l-0.2,21c-0.4,13.7-0.9,22.5-1.6,26.4
					c-0.2,1.2-0.5,1.8-0.7,1.8H445.1z"/>
			</g>
		</g>
		<g>
			
				<radialGradient id="SVGID_45_" cx="-62.2212" cy="32.5015" r="75.65" gradientTransform="matrix(-0.8212 -1.996610e-003 -3.140763e-004 0.1292 462.6248 201.9111)" gradientUnits="userSpaceOnUse">
				<stop  offset="0" style="stop-color:#FFFFFF;stop-opacity:0.498"/>
				<stop  offset="0.1922" style="stop-color:#FFFFFF;stop-opacity:0.498"/>
				<stop  offset="0.2824" style="stop-color:#FFFFFF;stop-opacity:0.3216"/>
				<stop  offset="0.4157" style="stop-color:#FFFFFF;stop-opacity:0.298"/>
				<stop  offset="0.5882" style="stop-color:#FEFEFE;stop-opacity:0.2"/>
				<stop  offset="0.8157" style="stop-color:#FCFCFC;stop-opacity:4.705882e-002"/>
				<stop  offset="1" style="stop-color:#F9F9F9;stop-opacity:0"/>
			</radialGradient>
			<path fill-rule="evenodd" clip-rule="evenodd" fill="url(#SVGID_45_)" d="M470.8,199.5c12.1-1.9,26.5-2.9,43.3-2.9
				c16.6,0,30.8,1,42.8,2.9c11.7,1.8,17.6,4.1,17.6,6.7s-5.9,4.9-17.6,6.7c-12,1.8-26.2,2.8-42.8,2.8c-16.8,0-31.2-0.9-43.3-2.8
				c-11.6-1.8-17.5-4.1-17.5-6.7S459.2,201.3,470.8,199.5z"/>
		</g>
		<g>
			
				<radialGradient id="SVGID_46_" cx="-55.5913" cy="32.1016" r="25.225" gradientTransform="matrix(-0.8212 -1.498755e-003 -2.354349e-004 0.129 462.6055 202.2968)" gradientUnits="userSpaceOnUse">
				<stop  offset="0" style="stop-color:#FFFFFF;stop-opacity:0.498"/>
				<stop  offset="0.1922" style="stop-color:#FFFFFF;stop-opacity:0.498"/>
				<stop  offset="0.2824" style="stop-color:#FFFFFF;stop-opacity:0.3255"/>
				<stop  offset="0.4157" style="stop-color:#FFFFFF;stop-opacity:0.298"/>
				<stop  offset="0.5882" style="stop-color:#FEFEFE;stop-opacity:0.2"/>
				<stop  offset="0.8157" style="stop-color:#FCFCFC;stop-opacity:4.705882e-002"/>
				<stop  offset="1" style="stop-color:#F9F9F9;stop-opacity:0"/>
			</radialGradient>
			<path fill-rule="evenodd" clip-rule="evenodd" fill="url(#SVGID_46_)" d="M488.1,206.5c0-0.9,1.9-1.6,5.8-2.2l14.5-1
				c5.5,0,10.3,0.3,14.2,1c3.9,0.6,5.9,1.3,5.9,2.2c0,0.9-2,1.7-5.9,2.3l-14.2,0.9l-14.5-0.9C490.1,208.2,488.1,207.4,488.1,206.5z"
				/>
		</g>
		<g>
			<g>
				<g>
					<path fill-rule="evenodd" clip-rule="evenodd" fill="#1F1A17" d="M443.3,226c-0.1,0.1-0.2,0.3-0.2,0.5l0.1-0.4L443.3,226
						L443.3,226z M443.4,274.4c0.1,0,0.2,0,0.3-0.2l-0.1,0.3h0L443.4,274.4z"/>
					
						<linearGradient id="SVGID_47_" gradientUnits="userSpaceOnUse" x1="-21.9712" y1="33.7539" x2="-11.1789" y2="33.7539" gradientTransform="matrix(0.5088 0.6446 -0.6446 0.5088 462.5501 232.7993)">
						<stop  offset="3.921569e-003" style="stop-color:#897B75"/>
						<stop  offset="0.3255" style="stop-color:#FFFFFF"/>
						<stop  offset="0.4196" style="stop-color:#D2C8C5"/>
						<stop  offset="0.7804" style="stop-color:#9F9490"/>
						<stop  offset="1" style="stop-color:#C6BEBA"/>
					</linearGradient>
					<path fill-rule="evenodd" clip-rule="evenodd" fill="url(#SVGID_47_)" d="M418.6,249v-0.5l-0.1-0.5v-0.2l0-0.2l0,0l24.6-21.4
						l-0.1,0.4c0.1-0.2,0.1-0.3,0.2-0.5l0.3,1l0.8,11.3C434.5,242.7,425.9,246.3,418.6,249z"/>
					
						<linearGradient id="SVGID_48_" gradientUnits="userSpaceOnUse" x1="40.4575" y1="22.9404" x2="51.2165" y2="22.9404" gradientTransform="matrix(-0.2896 0.7684 -0.7684 -0.2896 462.5487 232.8)">
						<stop  offset="0" style="stop-color:#90847F"/>
						<stop  offset="1" style="stop-color:#4A413D"/>
					</linearGradient>
					<path fill-rule="evenodd" clip-rule="evenodd" fill="url(#SVGID_48_)" d="M443.7,274.2c-0.1,0.1-0.2,0.2-0.3,0.2l-25-21.5l0,0
						l0.1-0.6l0-1.2l26,9.2l-0.2,8.6c-0.1,2.3-0.3,4-0.5,4.9v0l0,0.1L443.7,274.2z"/>
					
						<linearGradient id="SVGID_49_" gradientUnits="userSpaceOnUse" x1="-20.0713" y1="-39.583" x2="-9.6269" y2="-39.583" gradientTransform="matrix(-0.1247 -0.8117 0.8117 -0.1247 462.5496 232.7995)">
						<stop  offset="0" style="stop-color:#8A7972"/>
						<stop  offset="1" style="stop-color:#C6BEBA"/>
					</linearGradient>
					<path fill-rule="evenodd" clip-rule="evenodd" fill="url(#SVGID_49_)" d="M444.6,260.3l-26-9.2v-1.8l0-0.4
						c7.3-2.7,15.9-6.3,25.8-10.7L444.6,260.3z"/>
					<path fill-rule="evenodd" clip-rule="evenodd" fill="#AF9F98" d="M418.6,251.1l0,1.2l-0.1,0.6l0,0l0-0.1l0-0.3
						c-0.1-0.4-0.1-0.9-0.1-1.5v-0.2l0-0.2V249l0-0.3v-0.8l0-0.3l0.2-0.1l0,0.2v0.2l0.1,0.5v0.5l0,0.4V251.1z"/>
				</g>
			</g>
			<g>
				
					<radialGradient id="SVGID_50_" cx="41.1348" cy="9.1099" r="14.2038" gradientTransform="matrix(-0.7104 0.4119 0.1171 0.2732 458.5147 223.3848)" gradientUnits="userSpaceOnUse">
					<stop  offset="0" style="stop-color:#FFFFFF"/>
					<stop  offset="0.1922" style="stop-color:#FFFFFF"/>
					<stop  offset="0.2824" style="stop-color:#FFFFFF;stop-opacity:0.7137"/>
					<stop  offset="0.4157" style="stop-color:#FFFFFF;stop-opacity:0.6"/>
					<stop  offset="0.5882" style="stop-color:#FEFEFE;stop-opacity:0.3255"/>
					<stop  offset="0.8157" style="stop-color:#FCFCFC;stop-opacity:8.627451e-002"/>
					<stop  offset="1" style="stop-color:#F9F9F9;stop-opacity:0"/>
				</radialGradient>
				<path fill-rule="evenodd" clip-rule="evenodd" fill="url(#SVGID_50_)" d="M440.3,237.1c0.4,1.1-0.1,2.5-1.7,4.4
					c-1.7,1.8-3.9,3.5-6.6,5.1c-2.7,1.6-5.2,2.6-7.4,3.1c-2.2,0.3-3.6,0-4-1.1c-0.4-1.1,0.1-2.5,1.7-4.4c1.6-1.9,3.8-3.6,6.5-5.2
					c2.7-1.6,5.2-2.5,7.5-2.9C438.5,235.7,439.8,236,440.3,237.1z"/>
			</g>
		</g>
	</g>
	<g>
		<g>
			
				<linearGradient id="SVGID_51_" gradientUnits="userSpaceOnUse" x1="-51.228" y1="-129.125" x2="91.625" y2="-129.125" gradientTransform="matrix(5.753812e-006 0.8212 -0.8212 -8.212128e-004 462.5497 232.7996)">
				<stop  offset="0" style="stop-color:#5B5A5A"/>
				<stop  offset="0.3922" style="stop-color:#B6B6B6"/>
				<stop  offset="0.6941" style="stop-color:#9C9A9A"/>
				<stop  offset="1" style="stop-color:#201E1D"/>
			</linearGradient>
			<path fill-rule="evenodd" clip-rule="evenodd" fill="url(#SVGID_51_)" d="M573.5,264.1l-0.6,19.5c-0.5,11.6-1.4,19.2-2.7,22.7
				c-0.3,1.3-0.7,1.9-1.2,1.9H565c0.4,0,0.8-0.7,1.2-1.9l0.7-3.2c0.8-4.2,1.5-10.7,1.9-19.5l0.1-3.7c0.2-5.1,0.4-10.4,0.4-15.7
				l-0.4-28.7c-0.2-7.2-0.5-13.6-0.9-19.2c-0.5-6.7-1.1-12.3-1.8-16.7l-1.3-6.2c-0.4-1.2-0.7-2-1.1-2.3l-0.2-0.2h4.1l0.2,0.2
				c0.4,0.3,0.7,1.1,1.1,2.3c0.5,1.5,0.9,3.6,1.3,6.2c0.7,4.5,1.3,10,1.8,16.7c0.4,5.6,0.8,12,1,19.2l0.2,8.3l0.2,5V264.1z"/>
			
				<linearGradient id="SVGID_52_" gradientUnits="userSpaceOnUse" x1="-3.2212" y1="-154.0005" x2="44.5288" y2="-154.0005" gradientTransform="matrix(1.719817e-005 0.8212 -0.8212 -8.212128e-004 462.5496 232.7996)">
				<stop  offset="0" style="stop-color:#5B5A5A"/>
				<stop  offset="8.235294e-002" style="stop-color:#828282"/>
				<stop  offset="0.1529" style="stop-color:#FFFFFF"/>
				<stop  offset="0.1961" style="stop-color:#FFFFFF"/>
				<stop  offset="0.2588" style="stop-color:#D1D1D1"/>
				<stop  offset="0.4078" style="stop-color:#B6B6B6"/>
				<stop  offset="0.6667" style="stop-color:#544D4D"/>
				<stop  offset="1" style="stop-color:#000000"/>
			</linearGradient>
			<path fill-rule="evenodd" clip-rule="evenodd" fill="url(#SVGID_52_)" d="M585.9,243.7l-0.6-13.8h5.5l0.4,0.8l1,7.2l0.5,20.5
				l-0.1,1.9c-0.2,4.7-0.5,7.8-0.9,9.1l-0.4,0.6h-5.4l0.2-5.9l0-15.4L585.9,243.7z"/>
			
				<linearGradient id="SVGID_53_" gradientUnits="userSpaceOnUse" x1="-22.7046" y1="-141.8242" x2="15.6454" y2="-141.8242" gradientTransform="matrix(2.141363e-005 0.8212 -0.8212 -8.212128e-004 462.5504 232.7996)">
				<stop  offset="0" style="stop-color:#8DA0A4"/>
				<stop  offset="1" style="stop-color:#6C797B"/>
			</linearGradient>
			<path fill-rule="evenodd" clip-rule="evenodd" fill="url(#SVGID_53_)" d="M585.3,229.9l0.6,13.8h-12.6l-0.2-8.3
				c-0.2-7.2-0.5-13.6-1-19.2h10.8l0.2,0.1l0.5,1.4l0.7,3.5l0.9,8.3L585.3,229.9z"/>
			
				<linearGradient id="SVGID_54_" gradientUnits="userSpaceOnUse" x1="13.0308" y1="-142.6465" x2="19.2058" y2="-142.6465" gradientTransform="matrix(1.329899e-004 0.8212 -0.8212 -8.212129e-004 462.5504 232.7996)">
				<stop  offset="0" style="stop-color:#717F81"/>
				<stop  offset="0.1373" style="stop-color:#94A5A8"/>
				<stop  offset="0.2941" style="stop-color:#8DA0A4"/>
				<stop  offset="1" style="stop-color:#8DA0A4"/>
			</linearGradient>
			<polygon fill-rule="evenodd" clip-rule="evenodd" fill="url(#SVGID_54_)" points="586.1,248.7 573.5,248.7 573.3,243.7 
				585.9,243.7 			"/>
			
				<linearGradient id="SVGID_55_" gradientUnits="userSpaceOnUse" x1="40.8208" y1="-142.3706" x2="50.5208" y2="-142.3706" gradientTransform="matrix(8.466111e-005 0.8212 -0.8212 -8.212128e-004 462.5498 232.7997)">
				<stop  offset="0" style="stop-color:#8DA0A4"/>
				<stop  offset="0.102" style="stop-color:#96A7AA"/>
				<stop  offset="0.2275" style="stop-color:#4E5D60"/>
				<stop  offset="1" style="stop-color:#354346"/>
			</linearGradient>
			<path fill-rule="evenodd" clip-rule="evenodd" fill="url(#SVGID_55_)" d="M572.9,283.6l0.6-19.5H586l-0.2,5.9
				c-0.3,6.4-0.8,10.6-1.5,12.4c-0.2,0.8-0.5,1.1-0.7,1.1H572.9z"/>
			<polygon fill-rule="evenodd" clip-rule="evenodd" fill="#8DA0A4" points="573.5,264.1 573.5,248.7 586.1,248.7 586,264.1 			"/>
		</g>
	</g>
	<g>
		
			<linearGradient id="SVGID_56_" gradientUnits="userSpaceOnUse" x1="-294.1499" y1="20.875" x2="-289.8499" y2="20.875" gradientTransform="matrix(0.8212 0 0 0.8212 462.5497 232.7997)">
			<stop  offset="0" style="stop-color:#FFFFFF"/>
			<stop  offset="1" style="stop-color:#000000"/>
		</linearGradient>
		<path fill-rule="evenodd" clip-rule="evenodd" fill="url(#SVGID_56_)" d="M223.2,229.9l0.2,0.6l0.9,7.3l0.2,8.4l-0.3,12.2
			c-0.2,3.6-0.4,6.6-0.8,8.7c-0.3,1.9-0.6,2.9-0.9,2.9c-0.2,0-0.3-0.2-0.5-0.6l-0.3-1.1c-0.3-1.5-0.5-4.1-0.7-7.9v-15.2l0.9-12
			l0.5-2.5c0.1-0.4,0.3-0.7,0.5-0.8L223.2,229.9z"/>
		<g>
			
				<linearGradient id="SVGID_57_" gradientUnits="userSpaceOnUse" x1="-303.8755" y1="-2.9873" x2="-303.8755" y2="44.7877" gradientTransform="matrix(0.8212 0 0 0.8212 462.5497 232.7997)">
				<stop  offset="0" style="stop-color:#5B5A5A"/>
				<stop  offset="8.235294e-002" style="stop-color:#828282"/>
				<stop  offset="0.1529" style="stop-color:#FFFFFF"/>
				<stop  offset="0.1961" style="stop-color:#FFFFFF"/>
				<stop  offset="0.2588" style="stop-color:#D1D1D1"/>
				<stop  offset="0.4078" style="stop-color:#B6B6B6"/>
				<stop  offset="0.6667" style="stop-color:#544D4D"/>
				<stop  offset="1" style="stop-color:#000000"/>
			</linearGradient>
			<path fill-rule="evenodd" clip-rule="evenodd" fill="url(#SVGID_57_)" d="M204.8,229.9H223c-0.2,0.2-0.4,0.4-0.5,0.8l-0.5,2.5
				l-0.9,12v15.2c0.2,3.8,0.4,6.5,0.7,7.9l0.3,1.1c0.1,0.4,0.3,0.6,0.5,0.6h-18.2c-0.1,0-0.3-0.2-0.4-0.6c-0.4-1.3-0.8-4.4-0.9-9.1
				v-15.2c0.1-2.8,0.2-5.2,0.4-7.3c0.1-1.8,0.3-3.4,0.5-4.6l0.5-2.5L204.8,229.9L204.8,229.9z"/>
		</g>
		<g>
			<g>
				
					<linearGradient id="SVGID_58_" gradientUnits="userSpaceOnUse" x1="-287.5249" y1="-22.5127" x2="-287.5249" y2="15.8123" gradientTransform="matrix(0.8212 0 0 0.8212 462.5497 232.7997)">
					<stop  offset="0" style="stop-color:#8DA0A4"/>
					<stop  offset="1" style="stop-color:#6C797B"/>
				</linearGradient>
				<path fill-rule="evenodd" clip-rule="evenodd" fill="url(#SVGID_58_)" d="M240,243.7h-30.4l0-1.8c0.1-4.6,0.4-8.7,0.7-12.2
					c0.2-3,0.5-5.7,0.9-7.8l0.1-0.5c0.2-1.5,0.5-2.7,0.7-3.6c0.2-0.7,0.4-1.1,0.6-1.3l0.2-0.1h30.6c-0.4,0.3-0.7,0.8-0.9,1.4
					l-0.8,3.6l0,0.5c-0.3,2.2-0.6,4.8-0.8,7.8c-0.3,3.5-0.5,7.6-0.7,12.2L240,243.7z"/>
				<path fill-rule="evenodd" clip-rule="evenodd" fill="#685B57" d="M242.4,283.6c-0.2,0-0.5-0.4-0.7-1.1l-0.5-1.8
					c-0.5-2.5-0.9-6.9-1.1-13.3l-0.1-3.3c-0.1-2.6-0.1-5.5-0.1-8.8l0-6.5l0.1-5.1l0.1-1.8c0.2-4.6,0.4-8.7,0.7-12.2
					c0.2-3,0.5-5.7,0.8-7.8l0-0.5l0.8-3.6c0.2-0.7,0.5-1.1,0.9-1.4l0.2,0.1l0.5,0.9c0.3,1,0.6,2.4,0.8,4.4l0.8,10.8l0.2,11.1
					l-0.5,20.4c-0.3,6.1-0.7,11-1.3,14.6C243.4,281.9,242.9,283.5,242.4,283.6z"/>
				
					<linearGradient id="SVGID_59_" gradientUnits="userSpaceOnUse" x1="-288.0747" y1="41" x2="-288.0747" y2="50.7" gradientTransform="matrix(0.8212 0 0 0.8212 462.5497 232.7997)">
					<stop  offset="0" style="stop-color:#8DA0A4"/>
					<stop  offset="0.102" style="stop-color:#96A7AA"/>
					<stop  offset="0.2275" style="stop-color:#4E5D60"/>
					<stop  offset="1" style="stop-color:#354346"/>
				</linearGradient>
				<path fill-rule="evenodd" clip-rule="evenodd" fill="url(#SVGID_59_)" d="M209.5,264.1H240l0.1,3.3c0.3,6.4,0.7,10.8,1.1,13.3
					l0.5,1.8c0.2,0.7,0.5,1.1,0.7,1.1h-30.5c-0.2,0-0.5-0.4-0.7-1.1c-0.8-2.2-1.3-7.3-1.6-15.1L209.5,264.1z"/>
				<path fill-rule="evenodd" clip-rule="evenodd" fill="#8DA0A4" d="M240,264.1h-30.5l-0.1-15.3h30.5l0,6.5
					C239.9,258.6,239.9,261.5,240,264.1z"/>
				
					<linearGradient id="SVGID_60_" gradientUnits="userSpaceOnUse" x1="-289.6006" y1="13.2749" x2="-289.6006" y2="19.4253" gradientTransform="matrix(0.8212 0 0 0.8212 462.5497 232.7997)">
					<stop  offset="0" style="stop-color:#717F81"/>
					<stop  offset="0.1373" style="stop-color:#94A5A8"/>
					<stop  offset="0.2941" style="stop-color:#8DA0A4"/>
					<stop  offset="1" style="stop-color:#8DA0A4"/>
				</linearGradient>
				<path fill-rule="evenodd" clip-rule="evenodd" fill="url(#SVGID_60_)" d="M209.6,243.7H240l-0.1,5.1h-30.5
					C209.5,247.1,209.5,245.4,209.6,243.7z"/>
			</g>
		</g>
		<g>
			<g>
				<path fill-rule="evenodd" clip-rule="evenodd" fill="#1F1A17" d="M231.9,190.8h0.2l0.2,0.2c0.3,0.3,0.6,0.9,0.9,1.8
					c0.7,1.9,1.2,5.2,1.7,9.8c0.5,4.4,0.8,10,1.1,16.8c0.5,13.8,0.5,28.5,0,44.3c-0.5,15.7-1.4,27.7-2.8,36
					c-0.9,5.6-1.8,8.4-2.7,8.5c-0.4,0-0.8-0.6-1.2-1.8l-0.8-3.2c-0.9-4.7-1.5-12.4-2-23.2c-0.2-6.8-0.4-13.9-0.4-21
					c0-7.6,0.1-15.3,0.4-23.4c0.5-15.7,1.5-27.7,2.8-35.9l1.3-6.2c0.4-1.3,0.7-2,1.1-2.3L231.9,190.8z"/>
				
					<linearGradient id="SVGID_61_" gradientUnits="userSpaceOnUse" x1="-286.875" y1="-51.0996" x2="-286.875" y2="91.7002" gradientTransform="matrix(0.8212 0 0 0.8212 462.5497 232.7997)">
					<stop  offset="0" style="stop-color:#5B5A5A"/>
					<stop  offset="0.3922" style="stop-color:#B6B6B6"/>
					<stop  offset="0.6941" style="stop-color:#9C9A9A"/>
					<stop  offset="1" style="stop-color:#201E1D"/>
				</linearGradient>
				<path fill-rule="evenodd" clip-rule="evenodd" fill="url(#SVGID_61_)" d="M230.6,308.1h-4.1c-0.4,0-0.8-0.6-1.2-1.8
					c-1.3-3.9-2.3-12.7-2.8-26.4c-0.2-6.8-0.4-13.9-0.4-21c0-7.6,0.1-15.3,0.4-23.4c0.5-15.7,1.5-27.7,2.8-35.9
					c0.4-2.7,0.9-4.7,1.3-6.2c0.3-1.3,0.7-2,1.1-2.3l0.2-0.2h4.1l-0.3,0.2c-0.4,0.3-0.7,1.1-1.1,2.3l-1.3,6.2
					c-1.3,8.3-2.2,20.2-2.8,35.9c-0.3,8-0.4,15.8-0.4,23.4c0,7.2,0.2,14.2,0.4,21c0.4,10.8,1.1,18.5,2,23.2l0.8,3.2
					C229.7,307.5,230.1,308.1,230.6,308.1z"/>
			</g>
		</g>
		<g>
			
				<linearGradient id="SVGID_62_" gradientUnits="userSpaceOnUse" x1="-211.9502" y1="-47.2627" x2="-211.9502" y2="87.9623" gradientTransform="matrix(0.8212 0 0 0.8212 462.5497 232.7997)">
				<stop  offset="0" style="stop-color:#292929"/>
				<stop  offset="0.1294" style="stop-color:#7E7878"/>
				<stop  offset="0.2588" style="stop-color:#565656"/>
				<stop  offset="0.5176" style="stop-color:#8C7E7E"/>
				<stop  offset="0.7961" style="stop-color:#484343"/>
				<stop  offset="1" style="stop-color:#272727"/>
			</linearGradient>
			<path fill-rule="evenodd" clip-rule="evenodd" fill="url(#SVGID_62_)" d="M232.6,196.5l0-0.2c0.3-1.1,0.7-1.7,1-2l0.2-0.2h114.8
				v110.6h-116c-0.4,0-0.8-0.6-1.2-1.8c-1.2-3.6-2.1-11.9-2.6-24.9c-0.2-4.5-0.3-9.1-0.4-13.7l0-6.1c0-7.1,0.1-14.5,0.4-22.1
				l0.1-3.7c0.3-7.5,0.7-14.1,1.2-19.7c0.3-3.1,0.6-5.8,0.9-8.3l0.3-2.3C231.8,199.9,232.2,197.9,232.6,196.5z"/>
		</g>
		<g>
			<g>
				<path fill-rule="evenodd" clip-rule="evenodd" fill="#1F1A17" d="M350.4,308.1c-0.2-0.1-0.4-0.8-0.6-1.8
					c-0.5-2.2-0.8-6.1-1.1-11.7c-0.2-4.1-0.4-9-0.5-14.7c-0.1-6.8-0.2-13.9-0.2-21l0.2-23.4c0.3-12.7,0.7-22.9,1.2-30.8l1.1-11.4
					c0.3-1.6,0.5-2.4,0.7-2.5h0.1c0.2,0.1,0.5,0.8,0.7,1.9c0.4,1.9,0.7,5.2,0.9,9.8l0.7,16.8c0.3,13.8,0.2,28.5-0.1,44.3
					c-0.3,15.7-0.8,27.7-1.5,36C351.4,305.2,350.9,308.1,350.4,308.1L350.4,308.1z"/>
				
					<linearGradient id="SVGID_63_" gradientUnits="userSpaceOnUse" x1="-139.875" y1="-51.1064" x2="-139.875" y2="91.7002" gradientTransform="matrix(0.8212 0 0 0.8212 462.5497 232.7997)">
					<stop  offset="0" style="stop-color:#5B5A5A"/>
					<stop  offset="0.3922" style="stop-color:#B6B6B6"/>
					<stop  offset="0.6941" style="stop-color:#9C9A9A"/>
					<stop  offset="1" style="stop-color:#201E1D"/>
				</linearGradient>
				<path fill-rule="evenodd" clip-rule="evenodd" fill="url(#SVGID_63_)" d="M351.2,190.8c-0.2,0.1-0.5,0.9-0.7,2.5l-1.1,11.4
					c-0.5,7.8-1,18.1-1.2,30.8l-0.2,23.4c0,7.2,0.1,14.2,0.2,21c0.1,5.7,0.3,10.6,0.5,14.7c0.3,5.6,0.6,9.5,1.1,11.7
					c0.2,1.1,0.4,1.7,0.6,1.8h-3.7c-0.2,0-0.4-0.6-0.7-1.8c-0.7-3.9-1.3-12.7-1.6-26.4c-0.1-6.8-0.2-13.9-0.2-21l0.2-23.4
					c0.4-15.7,0.9-27.7,1.6-35.9l0.7-6.2c0.3-1.8,0.6-2.6,0.9-2.5H351.2z"/>
			</g>
		</g>
		<g>
			
				<radialGradient id="SVGID_64_" cx="-220.1499" cy="-32.3501" r="75.65" gradientTransform="matrix(0.8212 -1.996567e-003 3.140694e-004 0.1292 462.5593 209.9728)" gradientUnits="userSpaceOnUse">
				<stop  offset="0" style="stop-color:#FFFFFF;stop-opacity:0.498"/>
				<stop  offset="0.1922" style="stop-color:#FFFFFF;stop-opacity:0.498"/>
				<stop  offset="0.2824" style="stop-color:#FFFFFF;stop-opacity:0.3255"/>
				<stop  offset="0.4157" style="stop-color:#FFFFFF;stop-opacity:0.298"/>
				<stop  offset="0.5882" style="stop-color:#FEFEFE;stop-opacity:0.2"/>
				<stop  offset="0.8157" style="stop-color:#FCFCFC;stop-opacity:4.705882e-002"/>
				<stop  offset="1" style="stop-color:#F9F9F9;stop-opacity:0"/>
			</radialGradient>
			<path fill-rule="evenodd" clip-rule="evenodd" fill="url(#SVGID_64_)" d="M220.9,206.2c0-2.7,5.9-4.9,17.6-6.7
				c12-1.9,26.2-2.9,42.8-2.9c16.8,0,31.2,1,43.3,2.9c11.6,1.8,17.5,4.1,17.5,6.7s-5.8,4.9-17.5,6.7c-12.1,1.8-26.5,2.8-43.3,2.8
				c-16.6,0-30.8-0.9-42.8-2.8C226.8,211.1,220.9,208.9,220.9,206.2z"/>
		</g>
		<g>
			
				<radialGradient id="SVGID_65_" cx="-213.5" cy="-32" r="25.225" gradientTransform="matrix(0.8212 -1.498787e-003 2.354399e-004 0.129 462.5569 210.3289)" gradientUnits="userSpaceOnUse">
				<stop  offset="0" style="stop-color:#FFFFFF;stop-opacity:0.498"/>
				<stop  offset="0.1922" style="stop-color:#FFFFFF;stop-opacity:0.498"/>
				<stop  offset="0.2824" style="stop-color:#FFFFFF;stop-opacity:0.3294"/>
				<stop  offset="0.4157" style="stop-color:#FFFFFF;stop-opacity:0.298"/>
				<stop  offset="0.5882" style="stop-color:#FEFEFE;stop-opacity:0.2"/>
				<stop  offset="0.8157" style="stop-color:#FCFCFC;stop-opacity:4.705882e-002"/>
				<stop  offset="1" style="stop-color:#F9F9F9;stop-opacity:0"/>
			</radialGradient>
			<path fill-rule="evenodd" clip-rule="evenodd" fill="url(#SVGID_65_)" d="M272.8,208.8c-3.9-0.6-5.9-1.4-5.9-2.3
				c0-0.9,2-1.6,5.9-2.2c4-0.7,8.7-1,14.2-1c5.6,0,10.4,0.3,14.5,1c3.9,0.6,5.8,1.3,5.8,2.2c0,0.9-1.9,1.7-5.8,2.3l-14.5,0.9
				L272.8,208.8z"/>
		</g>
		<g>
			<g>
				<g>
					<path fill-rule="evenodd" clip-rule="evenodd" fill="#1F1A17" d="M352.3,226L352.3,226l0.2,0.1l0.1,0.4
						C352.5,226.2,352.4,226.1,352.3,226z M352.2,274.4l-0.2,0.1h0l-0.1-0.3C352,274.4,352.1,274.4,352.2,274.4z"/>
					
						<linearGradient id="SVGID_66_" gradientUnits="userSpaceOnUse" x1="-117.5928" y1="3.665" x2="-124.2789" y2="12.1367" gradientTransform="matrix(0.8212 0 0 0.8212 462.5497 232.7997)">
						<stop  offset="3.921569e-003" style="stop-color:#897B75"/>
						<stop  offset="0.3255" style="stop-color:#FFFFFF"/>
						<stop  offset="0.4196" style="stop-color:#D2C8C5"/>
						<stop  offset="0.7804" style="stop-color:#9F9490"/>
						<stop  offset="1" style="stop-color:#C6BEBA"/>
					</linearGradient>
					<path fill-rule="evenodd" clip-rule="evenodd" fill="url(#SVGID_66_)" d="M377,249c-7.3-2.7-15.9-6.3-25.8-10.7L352,227l0.3-1
						c0.1,0.1,0.2,0.3,0.2,0.5l-0.1-0.4l24.6,21.4l0,0l0,0.2v0.2l-0.1,0.5V249z"/>
					<path fill-rule="evenodd" clip-rule="evenodd" fill="#AF9F98" d="M377.1,247.5l0.2,0.1l0,0.3v0.8l0,0.3v1.6l0,0.2v0.2
						c0,0.7,0,1.2-0.1,1.5l0,0.3l0,0.1l0,0l-0.1-0.6l0-1.2v-1.8l0-0.4v-0.5l0.1-0.5v-0.2L377.1,247.5z"/>
					
						<linearGradient id="SVGID_67_" gradientUnits="userSpaceOnUse" x1="-121.6226" y1="25.8496" x2="-120.0367" y2="15.5263" gradientTransform="matrix(0.8212 0 0 0.8212 462.5497 232.7997)">
						<stop  offset="0" style="stop-color:#8A7972"/>
						<stop  offset="1" style="stop-color:#C6BEBA"/>
					</linearGradient>
					<path fill-rule="evenodd" clip-rule="evenodd" fill="url(#SVGID_67_)" d="M351.2,238.3c9.9,4.5,18.5,8,25.8,10.7l0,0.4v1.8
						l-26,9.2L351.2,238.3z"/>
					
						<linearGradient id="SVGID_68_" gradientUnits="userSpaceOnUse" x1="-121.9648" y1="29.7676" x2="-118.1704" y2="39.8353" gradientTransform="matrix(0.8212 0 0 0.8212 462.5497 232.7997)">
						<stop  offset="0" style="stop-color:#90847F"/>
						<stop  offset="1" style="stop-color:#4A413D"/>
					</linearGradient>
					<path fill-rule="evenodd" clip-rule="evenodd" fill="url(#SVGID_68_)" d="M351,260.3l26-9.2l0,1.2l0.1,0.6l0,0l-25,21.5
						c-0.1,0-0.2,0-0.3-0.2l-0.1-0.3l0-0.1v0c-0.2-0.9-0.4-2.6-0.5-4.9L351,260.3z"/>
				</g>
			</g>
			<g>
				
					<radialGradient id="SVGID_69_" cx="-104.8745" cy="69.9966" r="14.2038" gradientTransform="matrix(0.7104 0.4119 -0.1171 0.2732 447.9354 266.8989)" gradientUnits="userSpaceOnUse">
					<stop  offset="0" style="stop-color:#FFFFFF"/>
					<stop  offset="0.1922" style="stop-color:#FFFFFF"/>
					<stop  offset="0.2824" style="stop-color:#FFFFFF;stop-opacity:0.7137"/>
					<stop  offset="0.4157" style="stop-color:#FFFFFF;stop-opacity:0.6"/>
					<stop  offset="0.5882" style="stop-color:#FEFEFE;stop-opacity:0.3255"/>
					<stop  offset="0.8157" style="stop-color:#FCFCFC;stop-opacity:8.627451e-002"/>
					<stop  offset="1" style="stop-color:#F9F9F9;stop-opacity:0"/>
				</radialGradient>
				<path fill-rule="evenodd" clip-rule="evenodd" fill="url(#SVGID_69_)" d="M373.4,244.1c1.6,1.8,2.1,3.3,1.7,4.4
					c-0.4,1-1.8,1.4-4,1.1c-2.2-0.4-4.7-1.5-7.4-3.1c-2.7-1.6-4.9-3.2-6.6-5.1c-1.6-1.8-2.1-3.3-1.7-4.4c0.4-1,1.8-1.4,4-1.1
					c2.3,0.4,4.8,1.4,7.5,2.9C369.5,240.5,371.7,242.3,373.4,244.1z"/>
			</g>
		</g>
	</g>
</g>
<g>
	<g>
		<path fill-rule="evenodd" clip-rule="evenodd" fill-opacity="9.803922e-002" d="M411.3,292.3c0.3-0.4,0.7-0.5,1.2-0.5l41.5-1.5
			c0.5,0,0.9,0.2,1.3,0.5c0.4,0.3,0.5,0.7,0.5,1.2c0,0.5-0.2,0.9-0.5,1.3c-0.3,0.4-0.7,0.5-1.2,0.5l-41.5,1.5
			c-0.5,0-0.9-0.1-1.3-0.5c-0.4-0.3-0.5-0.7-0.5-1.2C410.8,293.1,410.9,292.7,411.3,292.3z M664.3,306c-0.1-0.2-0.1-0.4-0.1-0.5
			c1.6-35.4-10.3-60.8-35.5-76.2c-25.7-15.5-65-21-118-16.5c-0.5,0-0.9-0.1-1.3-0.4c-0.4-0.3-0.6-0.7-0.7-1.2s0.1-0.9,0.5-1.3
			c0.3-0.4,0.7-0.6,1.1-0.6c53.9-4.6,94,1,120.1,17c26.5,16.1,38.9,42.5,37.3,79.4c0,0.1,0,0.3,0,0.4c0.1,0.2,0.1,0.4,0,0.7
			L645,519.8c0,0.1,0,0.2,0,0.3c0,0.1-0.7,2.7-1.9,7.8c-1.1,4.6-0.8,8.6,0.8,11.8c1.3,2.5,1.3,4.5,0.1,6.3c-0.9,1.5-2.9,2.7-6,3.4h0
			c-1.9,0.4-3.9,0.8-6,1.1c-0.1,0-0.2,0-0.3,0c-17.3-0.3-27.1-1.8-29.3-4.3c-1.7-1.7-1.9-3.7-0.8-5.9c0.8-1.7,2.7-3.5,5.6-5.5
			c4.4-3.2,6.8-5,7-5.5c-0.1-2.2-1.6-3.5-4.6-4h0c-1.5-0.3-5.8-0.5-13.1-0.7c-6.6-0.1-11.5-0.9-14.7-2.2c-5.1-2.1-8.1-6-9-11.5
			c-3.4-21.4-5.1-32.2-5.1-32.4c-2.6-20.7-4-42.5-4-65.2c0,0,0-0.1,0-0.2c0.7-8.1,1-13.1,1-15.1c0-0.5,0.2-0.9,0.5-1.2
			c0.3-0.4,0.7-0.5,1.2-0.5s0.9,0.2,1.3,0.5c0.3,0.3,0.5,0.7,0.5,1.2c0,2-0.3,7.2-1,15.4c0,22.5,1.3,44,3.9,64.5
			c0,0.3,1.7,11,5.1,32.3c0.6,4.2,2.9,7.2,6.8,8.8h0c3,1.2,7.5,1.8,13.5,2c7.6,0.2,12.1,0.4,13.7,0.8c5,1,7.5,3.5,7.4,7.5
			c0.3,1.3-2.6,4.1-8.5,8.3c-2.3,1.6-3.8,3-4.5,4.3c-0.4,0.7-0.3,1.3,0.1,1.8c2.1,1.8,11,2.9,26.8,3.2c1.9-0.3,3.8-0.6,5.4-1
			c2-0.5,3.3-1.2,4-2c0.4-0.7,0.3-1.6-0.3-2.7c-2.1-3.9-2.5-8.7-1.2-14.3c1.1-4.5,1.7-7,1.9-7.7l22.8-213
			C664.2,306.2,664.2,306.1,664.3,306z"/>
	</g>
	<g>
		<g>
			<path fill-rule="evenodd" clip-rule="evenodd" fill="#C1888F" d="M564.4,468.8h8.1c0.9,8.4,2.1,15.7,3.7,22
				c4.2,16.7,10.6,24.8,19.4,24.5c0.2,0,0.4,0,0.5,0c14.8,0.6,23.8,2,27.1,4.3c2,1.3,3,2.7,3.1,4.3c0.5,1.6-0.1,3.4-1.7,5.1
				c-1.3,1.6-4.3,3.5-8.9,5.4c-0.1,0-0.1,0.1-0.2,0.1c-2.6,0.9-4.5,1.6-5.7,1.9c1.1,0,2.9,0.2,5.3,0.6c8.9,1,14.9,0.3,18.1-2.1l0,0
				c3.2-3.3,8.7-18.2,16.3-44.6c7.9-27.6,13.5-95.5,16.8-203.8c0,0,0-0.1,0-0.1c2.1-35-13.8-57.6-47.6-67.8c-0.1,0-0.2-0.1-0.4-0.1
				c-7.7-3.1-21.9-5.5-42.5-7.1c-21.2-1.7-55.5-1.8-102.9-0.2c-23,1.3-37.8,5.8-44.6,13.4h0c-5.8,7-7.5,12.8-5,17.5
				c3.3,5.4,5.3,8.8,6,10.3l-0.2-1c8,15.3,9.3,26,4,32c-4.5,6.6-15.2,8.2-32.2,4.9c-1.1-0.2-1.9-0.8-2.6-1.7c-0.6-0.9-0.8-1.9-0.6-3
				c0.2-1.1,0.8-1.9,1.7-2.6c0.9-0.6,1.9-0.8,3-0.6c12.7,2.5,20.8,1.9,24.3-1.9c2.7-4.3,1.1-12.1-4.8-23.4c-0.3-0.6-0.5-1.2-0.4-1.9
				c-0.3,0.2-2-2.1-5-7c-5-7.4-3.1-16.3,5.7-26.9h0c7.5-9.4,24.2-14.9,50.3-16.4c0,0,0.1,0,0.1,0c47.9-1.6,82.5-1.5,103.9,0.3
				c21.7,1.7,36.6,4.3,44.8,7.6c37.8,11.5,55.5,36.8,53.2,76c-3.3,109.3-9,177.9-17.1,205.7c-8.4,28.9-14.6,45-18.7,48.4l0,0
				c-4.2,4.1-12.4,5.5-24.6,4.1c-0.1,0-0.1,0-0.2,0c-9.5-1.5-13.9-4.2-13.3-8c-0.8-3.4,3.2-6.7,12-9.9c1.4-0.6,2.5-1.1,3.5-1.6
				c-3.9-1-10.6-1.7-20-2c-13,1.6-22.2-8.6-27.7-30.6C566.7,486,565.3,478,564.4,468.8z"/>
			
				<linearGradient id="SVGID_70_" gradientUnits="userSpaceOnUse" x1="406.9473" y1="-567.4951" x2="444.8473" y2="-567.4951" gradientTransform="matrix(2.638523e-005 1 -1 -3.579098e-004 3.491063e-004 -8.800667e-005)">
				<stop  offset="0" style="stop-color:#8C4851"/>
				<stop  offset="1" style="stop-color:#C1888F"/>
			</linearGradient>
			<path fill-rule="evenodd" clip-rule="evenodd" fill="url(#SVGID_70_)" d="M564.4,468.8c-1.8-17.5-2.3-39.5-1.5-66
				c0-1.1,0.5-2,1.3-2.8c0.8-0.8,1.8-1.1,2.9-1.1c1.1,0,2,0.5,2.8,1.3c0.8,0.8,1.1,1.8,1.1,2.9c-0.9,26.5-0.3,48.4,1.5,65.7H564.4z"
				/>
		</g>
	</g>
	<g>
		<path fill-rule="evenodd" clip-rule="evenodd" fill="#C1888F" d="M405.3,271.7c-0.1,4.6,0.9,7.8,2.9,9.5l-6.3,5.5
			c-3.7-2.1-5.2-7.1-4.6-15H405.3z"/>
	</g>
	<g>
		<g>
			
				<radialGradient id="SVGID_71_" cx="659.6563" cy="286.0957" r="40.8033" gradientTransform="matrix(1 0 4.595588e-003 1.2595 -0.2707 -74.2411)" gradientUnits="userSpaceOnUse">
				<stop  offset="0" style="stop-color:#FFFFFF"/>
				<stop  offset="1" style="stop-color:#FFFFFF;stop-opacity:0"/>
			</radialGradient>
			<path fill-rule="evenodd" clip-rule="evenodd" fill="url(#SVGID_71_)" d="M654.6,236.2L654.6,236.2c-0.2-0.2-0.3-0.3-0.4-0.4
				c-0.1,0-0.2-0.2-0.3-0.4c0-0.1,0-0.1,0-0.2c0-0.1,0.1-0.3,0.1-0.4c0.1-0.2,0.2-0.3,0.4-0.4c0.2-0.1,0.3,0,0.4,0.1
				c16.6,14.9,20.9,49.1,12.7,102.5c0,0.2-0.1,0.4-0.3,0.5c-0.2,0.1-0.3,0.1-0.5,0c-0.2,0-0.3-0.1-0.3-0.3c-0.1-0.2-0.2-0.4-0.2-0.6
				C674.3,284.6,670.4,251.1,654.6,236.2z"/>
			
				<radialGradient id="SVGID_72_" cx="617.6113" cy="209.3447" r="38.6239" gradientTransform="matrix(0.9998 2.070084e-002 4.528308e-003 0.906 9.846938e-002 19.7482)" gradientUnits="userSpaceOnUse">
				<stop  offset="0" style="stop-color:#FFFFFF"/>
				<stop  offset="1" style="stop-color:#FFFFFF;stop-opacity:0"/>
			</radialGradient>
			<path fill-rule="evenodd" clip-rule="evenodd" fill="url(#SVGID_72_)" d="M654.6,236.2c0,0,0,0.1,0.1,0.1
				c0.1,0.1,0.1,0.3,0.1,0.4c-0.1,0.1-0.2,0.3-0.3,0.4c-0.2,0-0.3,0.1-0.4,0.1c-0.2-0.1-0.3-0.2-0.4-0.3
				c-9.4-15.3-33-24.9-70.9-28.6c-0.2,0-0.3,0-0.3-0.1c-0.1-0.2-0.2-0.3-0.2-0.5s0.1-0.3,0.3-0.4c0.1-0.1,0.2-0.1,0.4-0.1
				c37.5,3.8,61.1,13.1,71,28c0,0.1,0,0.1,0,0.2c0.1,0.2,0.1,0.4,0.3,0.4C654.3,235.9,654.4,236,654.6,236.2L654.6,236.2z"/>
			
				<radialGradient id="SVGID_73_" cx="693.1191" cy="461.4082" r="46.1215" gradientTransform="matrix(1 0 -0.1004 1.2148 8.1874 -99.1145)" gradientUnits="userSpaceOnUse">
				<stop  offset="0" style="stop-color:#FFFFFF"/>
				<stop  offset="1" style="stop-color:#FFFFFF;stop-opacity:0"/>
			</radialGradient>
			<path fill-rule="evenodd" clip-rule="evenodd" fill="url(#SVGID_73_)" d="M663.4,405.3c0.1-0.1,0.2-0.2,0.3-0.3
				c0.1,0,0.2,0,0.3,0l-1.5,33.7c-1,22.5-4,41.3-8.8,56.3c-4.8,15.1-7.3,22.6-7.4,22.7c-0.1,0-0.2,0-0.3,0c-0.1-0.1-0.2-0.2-0.2-0.3
				c0-0.2,2.1-7.6,6.5-22.2c4.3-14.6,7.3-33.2,8.8-55.8C662.5,416.8,663.3,405.5,663.4,405.3z"/>
			
				<radialGradient id="SVGID_74_" cx="427.0684" cy="289.5625" r="19.1198" gradientTransform="matrix(0.9872 -0.1595 4.576399e-003 0.8937 0.1758 34.2922)" gradientUnits="userSpaceOnUse">
				<stop  offset="0" style="stop-color:#FFFFFF"/>
				<stop  offset="1" style="stop-color:#FFFFFF;stop-opacity:0"/>
			</radialGradient>
			<path fill-rule="evenodd" clip-rule="evenodd" fill="url(#SVGID_74_)" d="M443,211.4c0.2-0.1,0.3-0.1,0.5,0
				c0.1,0.1,0.2,0.2,0.3,0.4c0,0.1,0,0.3-0.1,0.4c-0.1,0.1-0.2,0.2-0.4,0.3c-9.3,3.2-15.9,7.2-19.7,12.2c-3.8,5-4.8,10.8-3.1,17.6
				c0,0.2,0,0.3-0.1,0.4c-0.1,0.1-0.3,0.2-0.4,0.3c-0.2,0.1-0.3,0.1-0.4,0c-0.2-0.1-0.3-0.2-0.3-0.3c-1.8-7.1-0.7-13.3,3.3-18.5
				C426.5,218.9,433.3,214.6,443,211.4z"/>
			
				<radialGradient id="SVGID_75_" cx="430.2705" cy="264.7002" r="21.3375" gradientTransform="matrix(1 0 -1.288811e-002 0.7897 -0.9084 55.6692)" gradientUnits="userSpaceOnUse">
				<stop  offset="0" style="stop-color:#FFFFFF"/>
				<stop  offset="1" style="stop-color:#FFFFFF;stop-opacity:0"/>
			</radialGradient>
			<path fill-rule="evenodd" clip-rule="evenodd" fill="url(#SVGID_75_)" d="M425.5,253.4c4.2,7.8,6.8,14,7.8,18.5
				c1.4,5.9,0.3,9.1-3.3,9.8c-0.2,0-0.3,0-0.5,0c-0.2-0.1-0.3-0.2-0.3-0.3c-0.1-0.1-0.1-0.3,0.1-0.3c0.1-0.1,0.2-0.2,0.3-0.2
				c2.8-0.7,3.7-3.5,2.5-8.6c-1.1-4.6-3.8-10.9-8-18.8H425.5z"/>
			
				<radialGradient id="SVGID_76_" cx="413.9189" cy="283.7002" r="13.225" gradientTransform="matrix(1 0 4.725898e-003 0.9055 0.1398 26.8148)" gradientUnits="userSpaceOnUse">
				<stop  offset="0" style="stop-color:#FFFFFF"/>
				<stop  offset="1" style="stop-color:#FFFFFF;stop-opacity:0"/>
			</radialGradient>
			<path fill-rule="evenodd" clip-rule="evenodd" fill="url(#SVGID_76_)" d="M409.3,286c-0.6-0.1-1.2-0.3-1.8-0.5v-1.2
				c0.6,0.3,1.3,0.5,2,0.6c4.2,0.9,10.3,0.3,18.5-1.8c0.1-0.1,0.2-0.1,0.4,0c0.1,0.1,0.3,0.2,0.3,0.3c0,0.1,0,0.3,0,0.4
				c-0.1,0.1-0.2,0.2-0.3,0.3C420,286.4,413.7,287,409.3,286z"/>
			
				<radialGradient id="SVGID_77_" cx="582.3496" cy="457.25" r="62.975" gradientTransform="matrix(1 2.136323e-003 -2.183411e-003 1.022 0.9997 -11.3217)" gradientUnits="userSpaceOnUse">
				<stop  offset="0" style="stop-color:#FFFFFF"/>
				<stop  offset="1" style="stop-color:#FFFFFF;stop-opacity:0"/>
			</radialGradient>
			<path fill-rule="evenodd" clip-rule="evenodd" fill="url(#SVGID_77_)" d="M590.3,518.5v1.5c-20.1-11.7-28-49.2-23.5-112.6
				l1.3-0.4C563.6,469.4,571,506.5,590.3,518.5z"/>
		</g>
	</g>
</g>
<g>
	
		<linearGradient id="SVGID_78_" gradientUnits="userSpaceOnUse" x1="-574.4624" y1="-249.9502" x2="-570.9374" y2="-249.9502" gradientTransform="matrix(-1 0 0 -1 0 0)">
		<stop  offset="0" style="stop-color:#FFFFFF"/>
		<stop  offset="1" style="stop-color:#000000"/>
	</linearGradient>
	<path fill-rule="evenodd" clip-rule="evenodd" fill="url(#SVGID_78_)" d="M572.5,229.9c0.2,0.2,0.3,0.4,0.5,0.8l0.5,2.4l0.9,12
		v15.1c-0.2,3.8-0.4,6.5-0.7,8l-0.3,1.1l-0.4,0.6c-0.3,0-0.6-1-0.9-2.9c-0.4-2.2-0.6-5.1-0.8-8.8l-0.1-20.6l0.4-4.6
		c0.1-1.2,0.3-2.1,0.5-2.6l0.3-0.5L572.5,229.9z"/>
	<g>
		
			<linearGradient id="SVGID_79_" gradientUnits="userSpaceOnUse" x1="229.7549" y1="-582.4697" x2="268.9799" y2="-582.4697" gradientTransform="matrix(2.549395e-005 1 -1 -1.000000e-003 -2.717742e-004 -2.034975e-004)">
			<stop  offset="0" style="stop-color:#5B5A5A"/>
			<stop  offset="8.235294e-002" style="stop-color:#828282"/>
			<stop  offset="0.1529" style="stop-color:#FFFFFF"/>
			<stop  offset="0.1961" style="stop-color:#FFFFFF"/>
			<stop  offset="0.2588" style="stop-color:#D1D1D1"/>
			<stop  offset="0.4078" style="stop-color:#B6B6B6"/>
			<stop  offset="0.6667" style="stop-color:#544D4D"/>
			<stop  offset="1" style="stop-color:#000000"/>
		</linearGradient>
		<path fill-rule="evenodd" clip-rule="evenodd" fill="url(#SVGID_79_)" d="M592.5,245.1v15.1c-0.2,4.7-0.5,7.7-1,9.1
			c-0.1,0.4-0.3,0.6-0.4,0.6h-18.3l0.4-0.6l0.3-1.1c0.3-1.5,0.5-4.1,0.7-8v-15.1l-0.9-12l-0.5-2.4c-0.1-0.4-0.3-0.6-0.5-0.8h18.3
			l0,0.1l0.4,0.8l0.4,2.1L592.5,245.1z"/>
	</g>
	<g>
		<g>
			
				<linearGradient id="SVGID_80_" gradientUnits="userSpaceOnUse" x1="213.7437" y1="-569.042" x2="245.2187" y2="-569.042" gradientTransform="matrix(3.177125e-005 1 -1 -1.000000e-003 1.266850e-004 -2.034975e-004)">
				<stop  offset="0" style="stop-color:#8DA0A4"/>
				<stop  offset="1" style="stop-color:#6C797B"/>
			</linearGradient>
			<path fill-rule="evenodd" clip-rule="evenodd" fill="url(#SVGID_80_)" d="M585.9,243.7h-30.5l-0.8-14.1l-0.9-8.4l-0.8-3.5
				c-0.2-0.7-0.5-1.1-0.8-1.5h30.6l0.2,0.1c0.2,0.2,0.4,0.6,0.6,1.4l1.7,11.9c0.3,3.5,0.5,7.6,0.6,12.2L585.9,243.7z"/>
			
				<linearGradient id="SVGID_81_" gradientUnits="userSpaceOnUse" x1="265.894" y1="-569.4658" x2="273.869" y2="-569.4658" gradientTransform="matrix(1.253919e-004 1 -1 -1.000000e-003 -3.374883e-005 -2.044104e-004)">
				<stop  offset="0" style="stop-color:#8DA0A4"/>
				<stop  offset="0.102" style="stop-color:#96A7AA"/>
				<stop  offset="0.2275" style="stop-color:#4E5D60"/>
				<stop  offset="1" style="stop-color:#354346"/>
			</linearGradient>
			<path fill-rule="evenodd" clip-rule="evenodd" fill="url(#SVGID_81_)" d="M555.5,264.1H586l-0.1,3.3c-0.3,7.9-0.8,12.9-1.6,15.1
				c-0.2,0.7-0.4,1-0.7,1H553c0.2,0,0.5-0.4,0.8-1l0.5-1.8c0.5-2.5,0.9-7,1.2-13.4L555.5,264.1z"/>
			<polygon fill-rule="evenodd" clip-rule="evenodd" fill="#8DA0A4" points="555.5,248.8 586,248.8 586,264.1 555.5,264.1 			"/>
			
				<linearGradient id="SVGID_82_" gradientUnits="userSpaceOnUse" x1="243.1543" y1="-570.6763" x2="248.2043" y2="-570.6763" gradientTransform="matrix(1.980198e-004 1 -1 -1.000000e-003 1.786154e-004 -1.835488e-004)">
				<stop  offset="0" style="stop-color:#717F81"/>
				<stop  offset="0.1373" style="stop-color:#94A5A8"/>
				<stop  offset="0.2941" style="stop-color:#8DA0A4"/>
				<stop  offset="1" style="stop-color:#8DA0A4"/>
			</linearGradient>
			<polygon fill-rule="evenodd" clip-rule="evenodd" fill="url(#SVGID_82_)" points="586,248.8 555.5,248.8 555.5,243.7 
				585.9,243.7 			"/>
			<path fill-rule="evenodd" clip-rule="evenodd" fill="#685B57" d="M555.5,243.7l0.1,5l-0.1,15.4l0,3.3c-0.3,6.4-0.7,10.9-1.2,13.4
				l-0.5,1.8c-0.3,0.7-0.5,1-0.8,1c-0.5,0-1-1.6-1.5-4.8c-0.6-3.6-1-8.5-1.3-14.6l-0.5-15.4l0.3-16.1l0.8-10.9
				c0.3-2,0.5-3.5,0.8-4.4l0.5-1l0.2-0.1c0.4,0.3,0.7,0.8,0.8,1.5l0.8,3.5l0.9,8.4L555.5,243.7z"/>
		</g>
	</g>
	<g>
		<g>
			
				<linearGradient id="SVGID_83_" gradientUnits="userSpaceOnUse" x1="190.2822" y1="-568.4985" x2="307.5352" y2="-568.4985" gradientTransform="matrix(8.530604e-006 1 -1 -1.000000e-003 -4.858180e-004 -2.034975e-004)">
				<stop  offset="0" style="stop-color:#5B5A5A"/>
				<stop  offset="0.3922" style="stop-color:#B6B6B6"/>
				<stop  offset="0.6941" style="stop-color:#9C9A9A"/>
				<stop  offset="1" style="stop-color:#201E1D"/>
			</linearGradient>
			<path fill-rule="evenodd" clip-rule="evenodd" fill="url(#SVGID_83_)" d="M564.9,308.1c0.4,0,0.9-0.6,1.3-1.9l0.8-3.3
				c0.9-4.7,1.6-12.4,2-23.1c0.2-6.8,0.4-13.8,0.4-21c0-7.6-0.1-15.4-0.4-23.4c-0.6-15.7-1.5-27.6-2.8-35.9l-1.3-6.2
				c-0.3-1.3-0.7-2.1-1.1-2.4l-0.3-0.1h4.2l0.2,0.1c0.4,0.3,0.8,1.1,1.1,2.4c0.4,1.5,0.8,3.5,1.3,6.2c1.3,8.3,2.2,20.2,2.8,35.9
				c0.3,8,0.4,15.8,0.4,23.4l-0.4,21c-0.6,13.7-1.5,22.5-2.8,26.4c-0.4,1.2-0.8,1.9-1.2,1.9H564.9z"/>
			<path fill-rule="evenodd" clip-rule="evenodd" fill="#1F1A17" d="M563.5,190.9l0.3,0.1c0.4,0.3,0.7,1.1,1.1,2.4l1.3,6.2
				c1.3,8.3,2.2,20.2,2.8,35.9c0.3,8,0.4,15.8,0.4,23.4c0,7.2-0.2,14.2-0.4,21c-0.4,10.8-1.1,18.5-2,23.1l-0.8,3.3
				c-0.4,1.2-0.8,1.8-1.3,1.9c-0.9-0.1-1.8-2.9-2.7-8.5c-1.3-8.3-2.3-20.3-2.8-36c-0.6-15.8-0.6-30.5,0-44.3
				c0.3-6.8,0.6-12.3,1.1-16.8c0.4-4.6,1-7.9,1.7-9.8c0.3-0.9,0.6-1.5,0.8-1.8l0.3-0.1H563.5z"/>
		</g>
	</g>
	<g>
		
			<linearGradient id="SVGID_84_" gradientUnits="userSpaceOnUse" x1="193.4683" y1="-506.9717" x2="304.5182" y2="-506.9717" gradientTransform="matrix(9.004953e-006 1 -1 -1.000000e-003 3.043376e-004 -2.034975e-004)">
			<stop  offset="0" style="stop-color:#292929"/>
			<stop  offset="0.1294" style="stop-color:#7E7878"/>
			<stop  offset="0.2588" style="stop-color:#565656"/>
			<stop  offset="0.5176" style="stop-color:#8C7E7E"/>
			<stop  offset="0.7961" style="stop-color:#484343"/>
			<stop  offset="1" style="stop-color:#272727"/>
		</linearGradient>
		<path fill-rule="evenodd" clip-rule="evenodd" fill="url(#SVGID_84_)" d="M562.8,196.4l0.1,0.2c0.4,1.4,0.8,3.3,1.2,5.8l1.2,10.5
			c0.5,5.6,0.9,12.1,1.3,19.6l0.2,3.7c0.3,7.6,0.4,15,0.4,22.1l-0.4,19.8c-0.5,13-1.4,21.3-2.6,24.9c-0.4,1.2-0.8,1.8-1.2,1.8H446.8
			V194.1h114.8l0.3,0.2C562.2,194.6,562.5,195.3,562.8,196.4z"/>
	</g>
	<g>
		<g>
			<path fill-rule="evenodd" clip-rule="evenodd" fill="#1F1A17" d="M444.3,190.9c0.2,0.1,0.5,0.9,0.8,2.5l1.1,11.4
				c0.5,7.8,0.9,18.1,1.2,30.8v44.4l-0.5,14.7c-0.3,5.6-0.6,9.5-1.1,11.7c-0.2,1.1-0.4,1.7-0.6,1.9h0c-0.5-0.1-1-2.9-1.5-8.5
				c-0.7-8.3-1.3-20.3-1.5-36c-0.3-15.8-0.3-30.5,0-44.3c0.2-6.8,0.4-12.3,0.7-16.8c0.2-4.6,0.5-7.9,0.9-9.8
				C443.8,191.6,444,191,444.3,190.9L444.3,190.9z"/>
			
				<linearGradient id="SVGID_85_" gradientUnits="userSpaceOnUse" x1="190.394" y1="-447.6738" x2="307.6548" y2="-447.6738" gradientTransform="matrix(8.530604e-006 1 -1 -1.000000e-003 -4.858180e-004 -2.034975e-004)">
				<stop  offset="0" style="stop-color:#5B5A5A"/>
				<stop  offset="0.3922" style="stop-color:#B6B6B6"/>
				<stop  offset="0.6941" style="stop-color:#9C9A9A"/>
				<stop  offset="1" style="stop-color:#201E1D"/>
			</linearGradient>
			<path fill-rule="evenodd" clip-rule="evenodd" fill="url(#SVGID_85_)" d="M445.1,308.1c0.2-0.1,0.4-0.8,0.6-1.9
				c0.5-2.2,0.8-6.1,1.1-11.7l0.5-14.7v-44.4c-0.3-12.7-0.7-22.9-1.2-30.8l-1.1-11.4c-0.3-1.6-0.5-2.4-0.8-2.5h3.6
				c0.3-0.1,0.5,0.7,0.8,2.5l0.7,6.2c0.7,8.3,1.2,20.2,1.6,35.9v44.4c-0.4,13.7-0.9,22.5-1.6,26.4c-0.2,1.2-0.5,1.9-0.7,1.9H445.1z"
				/>
		</g>
	</g>
	<g>
		
			<radialGradient id="SVGID_86_" cx="-514.1553" cy="-205.1084" r="62.125" gradientTransform="matrix(-1 -2.219958e-003 -3.492997e-004 0.1573 -0.5272 237.3814)" gradientUnits="userSpaceOnUse">
			<stop  offset="0" style="stop-color:#FFFFFF;stop-opacity:0.498"/>
			<stop  offset="0.1922" style="stop-color:#FFFFFF;stop-opacity:0.498"/>
			<stop  offset="0.2824" style="stop-color:#FFFFFF;stop-opacity:0.3216"/>
			<stop  offset="0.4157" style="stop-color:#FFFFFF;stop-opacity:0.298"/>
			<stop  offset="0.5882" style="stop-color:#FEFEFE;stop-opacity:0.2"/>
			<stop  offset="0.8157" style="stop-color:#FCFCFC;stop-opacity:4.705882e-002"/>
			<stop  offset="1" style="stop-color:#F9F9F9;stop-opacity:0"/>
		</radialGradient>
		<path fill-rule="evenodd" clip-rule="evenodd" fill="url(#SVGID_86_)" d="M453.4,206.3c0-2.7,5.8-4.9,17.4-6.8
			c12.1-1.9,26.5-2.9,43.3-2.9c16.6,0,30.8,1,42.8,2.9c11.7,1.8,17.6,4.1,17.6,6.8c0,2.6-5.9,4.9-17.6,6.7
			c-12,1.8-26.2,2.8-42.8,2.8c-16.8,0-31.2-0.9-43.3-2.8C459.2,211.1,453.4,208.9,453.4,206.3z"/>
	</g>
	<g>
		
			<radialGradient id="SVGID_87_" cx="-508.707" cy="-205.3682" r="20.7125" gradientTransform="matrix(-1 -2.224816e-003 -3.490986e-004 0.1569 -0.5288 237.5929)" gradientUnits="userSpaceOnUse">
			<stop  offset="0" style="stop-color:#FFFFFF;stop-opacity:0.498"/>
			<stop  offset="0.1922" style="stop-color:#FFFFFF;stop-opacity:0.498"/>
			<stop  offset="0.2824" style="stop-color:#FFFFFF;stop-opacity:0.3255"/>
			<stop  offset="0.4157" style="stop-color:#FFFFFF;stop-opacity:0.298"/>
			<stop  offset="0.5882" style="stop-color:#FEFEFE;stop-opacity:0.2"/>
			<stop  offset="0.8157" style="stop-color:#FCFCFC;stop-opacity:4.705882e-002"/>
			<stop  offset="1" style="stop-color:#F9F9F9;stop-opacity:0"/>
		</radialGradient>
		<path fill-rule="evenodd" clip-rule="evenodd" fill="url(#SVGID_87_)" d="M522.7,208.8l-14.3,0.9l-14.5-0.9
			c-3.9-0.6-5.8-1.4-5.8-2.3c0-0.9,1.9-1.6,5.8-2.2l14.5-1c5.5,0,10.3,0.3,14.3,1c3.9,0.6,5.9,1.3,5.9,2.2
			C528.5,207.4,526.6,208.2,522.7,208.8z"/>
	</g>
	<g>
		<g>
			<g>
				<path fill-rule="evenodd" clip-rule="evenodd" fill="#1F1A17" d="M443.2,226L443.2,226l0.1,0c-0.1,0.1-0.2,0.3-0.3,0.5
					L443.2,226z M443.4,274.4c0.1,0,0.2,0,0.3-0.1l-0.1,0.3L443.4,274.4z"/>
				
					<linearGradient id="SVGID_88_" gradientUnits="userSpaceOnUse" x1="451.1973" y1="-191.2339" x2="460.049" y2="-191.2339" gradientTransform="matrix(0.6193 0.7851 -0.7851 0.6193 -3.552437e-004 3.480911e-004)">
					<stop  offset="3.921569e-003" style="stop-color:#897B75"/>
					<stop  offset="0.3255" style="stop-color:#FFFFFF"/>
					<stop  offset="0.4196" style="stop-color:#D2C8C5"/>
					<stop  offset="0.7804" style="stop-color:#9F9490"/>
					<stop  offset="1" style="stop-color:#C6BEBA"/>
				</linearGradient>
				<path fill-rule="evenodd" clip-rule="evenodd" fill="url(#SVGID_88_)" d="M444.3,238.3c-9.9,4.5-18.5,8-25.8,10.8l0-1.3l0-0.3
					l0-0.1l24.7-21.4l-0.1,0.4c0.1-0.2,0.2-0.4,0.3-0.5l0.3,1L444.3,238.3z"/>
				
					<linearGradient id="SVGID_89_" gradientUnits="userSpaceOnUse" x1="87.9048" y1="-496.0908" x2="96.7414" y2="-496.0908" gradientTransform="matrix(-0.3527 0.9357 -0.9357 -0.3527 -2.148151e-004 1.082420e-004)">
					<stop  offset="0" style="stop-color:#90847F"/>
					<stop  offset="1" style="stop-color:#4A413D"/>
				</linearGradient>
				<path fill-rule="evenodd" clip-rule="evenodd" fill="url(#SVGID_89_)" d="M443.7,274.3c-0.1,0.1-0.2,0.2-0.3,0.1l-25-21.5h0
					l0.1-1.8l26,9.1l-0.3,8.6c-0.1,2.3-0.3,4-0.5,4.9l0,0.1L443.7,274.3z"/>
				
					<linearGradient id="SVGID_90_" gradientUnits="userSpaceOnUse" x1="-316.8994" y1="389.2422" x2="-308.3253" y2="389.2422" gradientTransform="matrix(-0.1521 -0.9884 0.9884 -0.1521 1.583099e-004 -7.034540e-004)">
					<stop  offset="0" style="stop-color:#8A7972"/>
					<stop  offset="1" style="stop-color:#C6BEBA"/>
				</linearGradient>
				<path fill-rule="evenodd" clip-rule="evenodd" fill="url(#SVGID_90_)" d="M444.3,238.3l0.2,22l-26-9.1v-1.8l0-0.4
					C425.9,246.3,434.5,242.7,444.3,238.3z"/>
				<path fill-rule="evenodd" clip-rule="evenodd" fill="#AF9F98" d="M418.6,251.1l-0.1,1.8h0l0,0l-0.1-0.3
					c-0.1-0.4-0.1-0.9-0.1-1.5v-0.3l0-0.2V249l0-0.3v-0.9l0-0.3l0.2-0.1l0,0.3l0,1.3l0,0.4V251.1z"/>
			</g>
		</g>
		<g>
			
				<radialGradient id="SVGID_91_" cx="-301.938" cy="-425.9302" r="11.6611" gradientTransform="matrix(-0.8651 0.5017 0.1426 0.3323 229.8806 535.8107)" gradientUnits="userSpaceOnUse">
				<stop  offset="0" style="stop-color:#FFFFFF"/>
				<stop  offset="0.1922" style="stop-color:#FFFFFF"/>
				<stop  offset="0.2824" style="stop-color:#FFFFFF;stop-opacity:0.7137"/>
				<stop  offset="0.4157" style="stop-color:#FFFFFF;stop-opacity:0.6"/>
				<stop  offset="0.5882" style="stop-color:#FEFEFE;stop-opacity:0.3255"/>
				<stop  offset="0.8157" style="stop-color:#FCFCFC;stop-opacity:8.627451e-002"/>
				<stop  offset="1" style="stop-color:#F9F9F9;stop-opacity:0"/>
			</radialGradient>
			<path fill-rule="evenodd" clip-rule="evenodd" fill="url(#SVGID_91_)" d="M428.8,238.9c2.7-1.5,5.2-2.5,7.5-2.9
				c2.2-0.3,3.6,0,4,1c0.4,1.1-0.1,2.5-1.7,4.4c-1.7,1.8-3.9,3.5-6.5,5.1c-2.7,1.6-5.2,2.7-7.5,3.1c-2.2,0.3-3.6,0-4-1
				c-0.4-1.1,0.1-2.5,1.7-4.4C423.9,242.3,426,240.5,428.8,238.9z"/>
		</g>
	</g>
</g>
</svg>
