<?xml version="1.0" encoding="utf-8"?>
<!-- Generator: Adobe Illustrator 16.0.0, SVG Export Plug-In . SVG Version: 6.00 Build 0)  -->
<!DOCTYPE svg PUBLIC "-//W3C//DTD SVG 1.1//EN" "http://www.w3.org/Graphics/SVG/1.1/DTD/svg11.dtd">
<svg version="1.1" id="Layer_1" xmlns="http://www.w3.org/2000/svg" xmlns:xlink="http://www.w3.org/1999/xlink" x="0px" y="0px"
	 width="700px" height="700px" viewBox="0 0 700 700" enable-background="new 0 0 700 700" xml:space="preserve">
<g>
	<g>
		<polygon fill-rule="evenodd" clip-rule="evenodd" fill-opacity="0.251" points="436.4,232.6 539.8,232.6 543.1,256.2 546.8,256.2 
			549,269.1 553,268.9 560.2,310.4 555.7,310.1 557.1,319.6 551.7,319.6 556.8,356.5 436.4,356.5 431.5,356.5 406.8,356.5 
			384.4,356.5 321.9,356.5 297.9,356.5 284.8,356.5 139.9,356.5 144.9,319.6 139.5,319.6 141,310.1 136.4,310.4 143.6,268.9 
			147.6,269.1 149.8,256.2 153.5,256.2 156.8,232.6 284.8,232.6 297.9,232.6 321.9,232.6 384.4,232.6 406.8,232.6 431.5,232.6 		"/>
	</g>
	<g>
		<polygon fill-rule="evenodd" clip-rule="evenodd" fill-opacity="0.251" points="291.4,473.1 294.3,430.3 407.3,430.3 409,473.1 		
			"/>
	</g>
	<g>
		
			<linearGradient id="SVGID_1_" gradientUnits="userSpaceOnUse" x1="314.4556" y1="-349.3164" x2="354.5556" y2="-349.3164" gradientTransform="matrix(2.493766e-005 1 -1 -1.000000e-003 2.486216e-004 -2.034975e-004)">
			<stop  offset="0" style="stop-color:#070707"/>
			<stop  offset="0.549" style="stop-color:#090909"/>
			<stop  offset="0.749" style="stop-color:#0B0B0B;stop-opacity:0"/>
			<stop  offset="1" style="stop-color:#0E0E0E;stop-opacity:0"/>
		</linearGradient>
		<polygon fill-rule="evenodd" clip-rule="evenodd" fill="url(#SVGID_1_)" points="535.2,266.4 545,339.5 153.7,339.5 165,266.4 		
			"/>
	</g>
	<g>
		<linearGradient id="SVGID_2_" gradientUnits="userSpaceOnUse" x1="350.3008" y1="567.0996" x2="350.3008" y2="589.8996">
			<stop  offset="0" style="stop-color:#070707"/>
			<stop  offset="0.549" style="stop-color:#090909"/>
			<stop  offset="0.749" style="stop-color:#0B0B0B;stop-opacity:0"/>
			<stop  offset="1" style="stop-color:#0E0E0E;stop-opacity:0"/>
		</linearGradient>
		<polygon fill-rule="evenodd" clip-rule="evenodd" fill="url(#SVGID_2_)" points="293.1,456.7 298.1,430.8 403.5,431.1 
			407.5,456.7 		"/>
	</g>
	<g>
		<g>
			<g>
				<polygon fill-rule="evenodd" clip-rule="evenodd" fill="#354346" points="169.5,327.9 529.5,327.9 530.1,327.9 530.1,271 
					543.6,266.9 543.6,338.4 155.4,338.4 155.4,257.3 169.5,257.3 169.5,280.4 				"/>
				<path fill-rule="evenodd" clip-rule="evenodd" fill="#2E3A3D" d="M173.4,280.4l-3.9,47.5v-47.5H173.4z M529.5,327.9l-6.5-47.5
					l7.2-9.4v56.9H529.5z"/>
				<linearGradient id="SVGID_3_" gradientUnits="userSpaceOnUse" x1="349.4985" y1="227.5396" x2="349.4399" y2="348.4646">
					<stop  offset="0" style="stop-color:#96A7AA"/>
					<stop  offset="0.8078" style="stop-color:#546366"/>
					<stop  offset="0.8431" style="stop-color:#C1D2D4"/>
					<stop  offset="0.8667" style="stop-color:#354346"/>
					<stop  offset="1" style="stop-color:#43575B"/>
				</linearGradient>
				<polygon fill-rule="evenodd" clip-rule="evenodd" fill="url(#SVGID_3_)" points="529.5,327.9 169.5,327.9 173.4,280.4 
					176.1,246.4 518.3,246.4 522.9,280.4 				"/>
			</g>
		</g>
		<g>
			<g>
				<path fill-rule="evenodd" clip-rule="evenodd" fill-opacity="0.2471" d="M423.6,330.6l0.1,0.2h-0.1
					C423.5,330.7,423.6,330.7,423.6,330.6z"/>
				
					<linearGradient id="SVGID_4_" gradientUnits="userSpaceOnUse" x1="292.9321" y1="-349.2852" x2="313.5571" y2="-349.2852" gradientTransform="matrix(4.848485e-005 1 -1 -1.000000e-003 -1.737641e-004 -1.826358e-004)">
					<stop  offset="0" style="stop-color:#070707"/>
					<stop  offset="0.3804" style="stop-color:#090909"/>
					<stop  offset="0.8941" style="stop-color:#0B0B0B;stop-opacity:0"/>
					<stop  offset="1" style="stop-color:#0E0E0E;stop-opacity:0"/>
				</linearGradient>
				<path fill-rule="evenodd" clip-rule="evenodd" fill="url(#SVGID_4_)" d="M397.3,264.3h131.3v47.8h-5.8H398.9L397.3,264.3z
					 M175,264.3l129.8-0.5l-3.3,48.3H297H186.1l-3.1,2.4h-13v-38.8L175,264.3z"/>
			</g>
		</g>
	</g>
	<g>
		<g>
			<linearGradient id="SVGID_5_" gradientUnits="userSpaceOnUse" x1="302.1221" y1="395.6133" x2="399.7877" y2="452.1388">
				<stop  offset="0" style="stop-color:#CC8F4C"/>
				<stop  offset="1" style="stop-color:#AD7539"/>
			</linearGradient>
			<polygon fill-rule="evenodd" clip-rule="evenodd" fill="url(#SVGID_5_)" points="406.9,439.8 294,439.8 295.9,406.5 405.5,406.5 
							"/>
			<linearGradient id="SVGID_6_" gradientUnits="userSpaceOnUse" x1="293.9502" y1="447.9492" x2="406.9004" y2="447.9492">
				<stop  offset="0" style="stop-color:#9E5E1E"/>
				<stop  offset="1" style="stop-color:#774614"/>
			</linearGradient>
			<rect x="294" y="439.8" fill-rule="evenodd" clip-rule="evenodd" fill="url(#SVGID_6_)" width="113" height="16.2"/>
		</g>
	</g>
	<g>
		<g>
			<linearGradient id="SVGID_7_" gradientUnits="userSpaceOnUse" x1="294.4844" y1="293.9927" x2="363.2793" y2="333.7264">
				<stop  offset="0" style="stop-color:#D9B072"/>
				<stop  offset="1" style="stop-color:#AD7539"/>
			</linearGradient>
			<polygon fill-rule="evenodd" clip-rule="evenodd" fill="url(#SVGID_7_)" points="378.1,334.3 322.8,334.3 323.8,318 343.3,318 
				343.3,331.2 359.5,331.2 359.5,318 377.3,318 			"/>
			<linearGradient id="SVGID_8_" gradientUnits="userSpaceOnUse" x1="333.8623" y1="318.1143" x2="360.4523" y2="417.356">
				<stop  offset="0" style="stop-color:#9F5E1C"/>
				<stop  offset="1" style="stop-color:#8C5218"/>
			</linearGradient>
			<rect x="322.8" y="334.3" fill-rule="evenodd" clip-rule="evenodd" fill="url(#SVGID_8_)" width="55.3" height="91.5"/>
		</g>
	</g>
	<g>
		<path fill-rule="evenodd" clip-rule="evenodd" fill="#8E541A" d="M351.4,326.1c0.7,0,1.4-0.1,2-0.3c0.2-0.1,0.3-0.1,0.5-0.1
			c1.2-0.4,2.3-1.1,3.3-2c1.5-1.5,2.3-3.4,2.3-5.6l0.4,16.2c-0.3,2.7-1.1,4.7-2.4,6c-1.1,1-2.3,1.8-3.6,2.1
			c-0.8,0.2-1.7,0.3-2.5,0.3c-1.6,0-3.1-0.4-4.4-1.1c-0.6-0.4-1.2-0.8-1.7-1.3c-1.7-1.7-2.5-3.8-2.5-6.1l0.5-16.2
			c0,2.3,0.8,4.2,2.4,5.8c0.4,0.4,0.9,0.8,1.4,1.2c0.7,0.4,1.5,0.8,2.4,0.9C350,326.1,350.7,326.1,351.4,326.1z"/>
	</g>
	<g>
		<path fill-rule="evenodd" clip-rule="evenodd" fill="#FFFFFF" fill-opacity="0.3059" d="M378.1,334.1v0.1h-18c-0.1,0-0.1,0-0.1,0
			c0,0-0.1-0.1-0.1-0.1l-0.4-16.1c0,0,0-0.1,0-0.1l1,15.6L378.1,334.1z"/>
	</g>
	<g>
		<path fill-rule="evenodd" clip-rule="evenodd" fill="#FFFFFF" fill-opacity="0.4706" d="M294.1,440.7c-0.1,0-0.1,0-0.1,0v-0.8
			c0,0,0.1,0,0.1,0h112.8v0.9H294.1z"/>
	</g>
	<g>
		
			<radialGradient id="SVGID_9_" cx="334.3252" cy="341" r="6.9875" gradientTransform="matrix(1 0 3.220036e-002 0.9445 0.6448 18.9106)" gradientUnits="userSpaceOnUse">
			<stop  offset="0" style="stop-color:#FFFFFF;stop-opacity:0.9686"/>
			<stop  offset="1" style="stop-color:#FFFFFF;stop-opacity:7.843138e-003"/>
		</radialGradient>
		<path fill-rule="evenodd" clip-rule="evenodd" fill="url(#SVGID_9_)" d="M342.6,334.5c0.5,3.2,1.7,5.4,3.5,6.7
			c1.6,1.1,3.8,1.6,6.4,1.5c-2.7,0.6-5,0.4-6.8-0.8c-1.8-1.2-2.9-2.7-3.2-4.6c-0.3-1.9-0.4-2.8-0.4-2.9c0-0.1,0.1-0.1,0.1-0.1
			c0,0,0.1,0,0.1,0C342.6,334.4,342.6,334.5,342.6,334.5z"/>
	</g>
	<g>
		
			<radialGradient id="SVGID_10_" cx="335.5498" cy="426.2002" r="45.925" gradientTransform="matrix(1 0 0 9.553620e-002 0 385.4826)" gradientUnits="userSpaceOnUse">
			<stop  offset="0" style="stop-color:#FFFFFF;stop-opacity:0.498"/>
			<stop  offset="1" style="stop-color:#FFFFFF;stop-opacity:0"/>
		</radialGradient>
		<path fill-rule="evenodd" clip-rule="evenodd" fill="url(#SVGID_10_)" d="M323,426.7c-0.1,0-0.2,0-0.3-0.1v-0.8
			c0.1-0.1,0.2-0.1,0.3-0.1h54.4c0.1,0,0.3,0,0.3,0.1c0.1,0.1,0.2,0.2,0.2,0.4c0,0.1-0.1,0.3-0.2,0.3c-0.1,0.1-0.2,0.2-0.3,0.2H323z
			"/>
	</g>
	<g>
		<path fill-rule="evenodd" clip-rule="evenodd" fill="#FFFFFF" fill-opacity="0.3059" d="M342.5,334.3h-19.8l19.2-0.8l1.1-15.5
			c0,0,0,0.1,0,0.1l-0.4,16.1c0,0,0,0.1,0,0.1C342.7,334.2,342.6,334.3,342.5,334.3z"/>
	</g>
	<g>
		<g>
			<g>
				<linearGradient id="SVGID_11_" gradientUnits="userSpaceOnUse" x1="159.6001" y1="219.4751" x2="159.6001" y2="259.9251">
					<stop  offset="0" style="stop-color:#5B5A5A"/>
					<stop  offset="8.235294e-002" style="stop-color:#828282"/>
					<stop  offset="0.1529" style="stop-color:#FFFFFF"/>
					<stop  offset="0.1961" style="stop-color:#FFFFFF"/>
					<stop  offset="0.2588" style="stop-color:#D1D1D1"/>
					<stop  offset="0.4078" style="stop-color:#B6B6B6"/>
					<stop  offset="0.6667" style="stop-color:#544D4D"/>
					<stop  offset="1" style="stop-color:#000000"/>
				</linearGradient>
				<path fill-rule="evenodd" clip-rule="evenodd" fill="url(#SVGID_11_)" d="M170,219c-0.2,0.2-0.4,0.5-0.5,0.9l-0.3,0.9
					c-0.1,0.3-0.1,0.7-0.2,1.3c0,0.1,0,0.2-0.1,0.4c-0.2,1.3-0.3,2.9-0.5,4.8c-0.1,2.2-0.3,4.7-0.4,7.5c0,0.4,0,0.7,0,1.1
					c-0.1,2.6-0.1,4.9-0.1,7.1c0,2,0,3.8,0.1,5.4c0,0.7,0,1.4,0,2c0.2,3.9,0.4,6.6,0.7,8.1c0.1,0.5,0.2,0.9,0.3,1.2
					c0.1,0.4,0.3,0.6,0.5,0.6h-18.8c-0.1,0-0.3-0.2-0.4-0.6c-0.5-1.4-0.8-4.5-1-9.4c0-0.7,0-1.3,0-2c0-1.8,0-3.6,0-5.4
					c0-2.3,0-4.7,0.1-7.1c0-0.4,0-0.7,0-1.1c0.1-2.9,0.2-5.4,0.4-7.5c0.1-1.9,0.3-3.5,0.5-4.8c0-0.1,0-0.3,0-0.4
					c0.1-0.9,0.3-1.7,0.4-2.2c0.2-0.4,0.3-0.7,0.4-0.8c0,0,0,0,0.1,0H170z"/>
				<linearGradient id="SVGID_12_" gradientUnits="userSpaceOnUse" x1="167.9248" y1="239.7002" x2="171.5748" y2="239.7002">
					<stop  offset="0" style="stop-color:#FFFFFF"/>
					<stop  offset="1" style="stop-color:#000000"/>
				</linearGradient>
				<path fill-rule="evenodd" clip-rule="evenodd" fill="url(#SVGID_12_)" d="M170,219l0.1,0c0.1,0.1,0.1,0.3,0.3,0.6
					c0.2,0.6,0.4,1.5,0.5,2.8c0.1,0.2,0.1,0.5,0.1,0.8c0.1,1.3,0.2,2.6,0.3,4.1c0,0.6,0,1.2,0,1.9c0.1,2.1,0.1,4.4,0.1,6.8
					c0,2.8,0,5.7-0.1,8.9c-0.1,1.3-0.1,2.5-0.1,3.7c-0.2,3.8-0.5,6.8-0.9,9c-0.3,2-0.6,3-0.9,3c-0.2,0-0.3-0.2-0.5-0.6
					c-0.1-0.3-0.2-0.7-0.3-1.2c-0.3-1.5-0.5-4.2-0.7-8.1c0-0.6,0-1.3,0-2c-0.1-1.6-0.1-3.4-0.1-5.4c0-2.2,0-4.6,0.1-7.1
					c0-0.4,0-0.7,0-1.1c0.1-2.9,0.3-5.4,0.4-7.5c0.2-1.9,0.3-3.5,0.5-4.8c0.1-0.1,0.1-0.3,0.1-0.4c0.1-0.5,0.1-0.9,0.2-1.3l0.3-0.9
					C169.6,219.5,169.8,219.2,170,219z"/>
			</g>
		</g>
		<g>
			<g>
				<linearGradient id="SVGID_13_" gradientUnits="userSpaceOnUse" x1="173.5249" y1="202.9751" x2="173.5249" y2="235.4251">
					<stop  offset="0" style="stop-color:#8DA0A4"/>
					<stop  offset="1" style="stop-color:#6C797B"/>
				</linearGradient>
				<path fill-rule="evenodd" clip-rule="evenodd" fill="url(#SVGID_13_)" d="M187.5,233.3h-31.4c0-0.6,0-1.3,0.1-1.9
					c0.1-4.8,0.3-9,0.6-12.6c0.3-3.1,0.6-5.8,0.9-8c0-0.2,0-0.4,0.1-0.6c0.2-1.6,0.4-2.8,0.7-3.6c0.2-0.7,0.5-1.2,0.7-1.4
					c0-0.1,0.1-0.1,0.1-0.1h31.5c-0.4,0.3-0.7,0.8-0.9,1.5l-0.4,1.5c-0.2,0.5-0.3,1.2-0.4,2.1c0,0.2,0,0.4-0.1,0.6
					c-0.3,2.2-0.6,4.9-0.9,8c-0.3,3.7-0.5,7.9-0.7,12.6C187.6,232,187.6,232.7,187.5,233.3z"/>
				<path fill-rule="evenodd" clip-rule="evenodd" fill="#8DA0A4" d="M187.5,254.3h-31.4c-0.1-3-0.1-6-0.1-9c0-2.2,0-4.5,0-6.8h31.4
					c0,2.4,0,4.6,0,6.8C187.4,248.6,187.4,251.6,187.5,254.3z"/>
				<linearGradient id="SVGID_14_" gradientUnits="userSpaceOnUse" x1="171.75" y1="233.25" x2="171.75" y2="238.4502">
					<stop  offset="0" style="stop-color:#717F81"/>
					<stop  offset="0.1373" style="stop-color:#94A5A8"/>
					<stop  offset="0.2941" style="stop-color:#8DA0A4"/>
					<stop  offset="1" style="stop-color:#8DA0A4"/>
				</linearGradient>
				<path fill-rule="evenodd" clip-rule="evenodd" fill="url(#SVGID_14_)" d="M156.1,233.3h31.4c0,1.8-0.1,3.5-0.1,5.2H156
					C156,236.8,156,235,156.1,233.3z"/>
				<linearGradient id="SVGID_15_" gradientUnits="userSpaceOnUse" x1="173.0503" y1="256.7373" x2="173.0503" y2="264.9623">
					<stop  offset="0" style="stop-color:#8DA0A4"/>
					<stop  offset="0.102" style="stop-color:#96A7AA"/>
					<stop  offset="0.2275" style="stop-color:#4E5D60"/>
					<stop  offset="1" style="stop-color:#354346"/>
				</linearGradient>
				<path fill-rule="evenodd" clip-rule="evenodd" fill="url(#SVGID_15_)" d="M156.1,254.3h31.4c0,1.2,0,2.3,0.1,3.4
					c0.3,6.6,0.7,11.2,1.2,13.8c0.1,0.8,0.3,1.4,0.5,1.9c0.3,0.7,0.5,1.1,0.8,1.1h-31.5c-0.3,0-0.5-0.4-0.7-1.1
					c-0.8-2.3-1.4-7.5-1.6-15.6C156.2,256.5,156.1,255.4,156.1,254.3z"/>
				<path fill-rule="evenodd" clip-rule="evenodd" fill="#685B57" d="M190,274.4c-0.2,0-0.5-0.4-0.8-1.1c-0.2-0.4-0.3-1-0.5-1.9
					c-0.5-2.6-0.9-7.1-1.2-13.8c-0.1-1-0.1-2.1-0.1-3.4c-0.1-2.7-0.1-5.7-0.1-9c0-2.1,0-4.4,0-6.8c0-1.7,0.1-3.4,0.1-5.2
					c0.1-0.6,0.1-1.3,0.1-1.9c0.2-4.8,0.4-9,0.7-12.6c0.3-3.1,0.6-5.8,0.9-8c0-0.2,0.1-0.4,0.1-0.6c0.1-0.9,0.3-1.6,0.4-2.1l0.4-1.5
					c0.2-0.7,0.5-1.2,0.9-1.5l0.1,0.1c0.2,0.2,0.3,0.5,0.5,1c0.3,1,0.6,2.5,0.9,4.6c0,0.4,0.1,0.8,0.2,1.3c0.2,2.1,0.4,4.4,0.5,6.8
					c0,1,0.1,2,0.1,3.1c0.1,3.6,0.2,7.4,0.3,11.4c0,1.7,0,3.4,0,5.2c-0.1,3.1-0.2,6.3-0.3,9.5c-0.1,2.2-0.2,4.3-0.3,6.3
					c-0.3,6.3-0.8,11.3-1.4,15.1C191,272.6,190.5,274.3,190,274.4z"/>
			</g>
		</g>
		<g>
			<g>
				<linearGradient id="SVGID_16_" gradientUnits="userSpaceOnUse" x1="174.0503" y1="178.75" x2="174.0503" y2="299.6499">
					<stop  offset="0" style="stop-color:#5B5A5A"/>
					<stop  offset="0.3922" style="stop-color:#B6B6B6"/>
					<stop  offset="0.6941" style="stop-color:#9C9A9A"/>
					<stop  offset="1" style="stop-color:#201E1D"/>
				</linearGradient>
				<path fill-rule="evenodd" clip-rule="evenodd" fill="url(#SVGID_16_)" d="M177.8,299.6h-4.1c-0.4,0-0.9-0.6-1.3-1.9
					c-1.4-4-2.3-13-2.9-27.2c-0.2-7.1-0.4-14.3-0.4-21.7c0-7.8,0.1-15.8,0.4-24.1c0.6-16.2,1.5-28.5,2.9-37c0.5-2.7,0.9-4.9,1.4-6.4
					c0.3-1.3,0.7-2.1,1.1-2.4c0-0.1,0.1-0.1,0.2-0.2h4.3c-0.1,0.1-0.2,0.1-0.3,0.2c-0.4,0.3-0.7,1.1-1.1,2.4
					c-0.2,0.8-0.4,1.7-0.6,2.7c-0.2,1.1-0.4,2.3-0.7,3.7c-1.3,8.5-2.3,20.9-2.9,37c-0.3,8.3-0.4,16.3-0.4,24.1
					c0,7.4,0.2,14.6,0.4,21.7c0.5,11.1,1.1,19.1,2,23.9c0.3,1.4,0.6,2.5,0.9,3.4C176.9,299,177.3,299.6,177.8,299.6z"/>
				<path fill-rule="evenodd" clip-rule="evenodd" fill="#1F1A17" d="M179.1,178.8c0.1,0,0.1,0,0.3,0c0,0.1,0.1,0.1,0.3,0.2
					c0.3,0.3,0.6,0.9,0.9,1.8c0.7,2,1.3,5.3,1.8,10c0.5,4.6,0.9,10.3,1.1,17.3c0.6,14.2,0.6,29.4,0,45.7
					c-0.5,16.2-1.5,28.6-2.9,37.1c-0.9,5.8-1.8,8.7-2.8,8.8c-0.4,0-0.8-0.6-1.3-1.9c-0.3-0.9-0.5-2-0.9-3.4
					c-0.9-4.8-1.6-12.8-2-23.9c-0.2-7.1-0.4-14.3-0.4-21.7c0-7.8,0.1-15.8,0.4-24.1c0.6-16.2,1.5-28.5,2.9-37
					c0.3-1.4,0.5-2.6,0.7-3.7c0.2-1,0.4-1.9,0.6-2.7c0.4-1.3,0.7-2.1,1.1-2.4C179,178.9,179,178.8,179.1,178.8z"/>
			</g>
		</g>
		<g>
			<linearGradient id="SVGID_17_" gradientUnits="userSpaceOnUse" x1="237.5249" y1="182" x2="237.5249" y2="296.5">
				<stop  offset="0" style="stop-color:#292929"/>
				<stop  offset="0.1294" style="stop-color:#7E7878"/>
				<stop  offset="0.2588" style="stop-color:#565656"/>
				<stop  offset="0.5176" style="stop-color:#8C7E7E"/>
				<stop  offset="0.7961" style="stop-color:#484343"/>
				<stop  offset="1" style="stop-color:#272727"/>
			</linearGradient>
			<path fill-rule="evenodd" clip-rule="evenodd" fill="url(#SVGID_17_)" d="M185.1,182.2c0.1,0,0.1,0,0.2,0h114.2v114H179.9
				c-0.4,0-0.8-0.6-1.3-1.9c-1.3-3.7-2.1-12.3-2.6-25.7c-0.2-4.6-0.3-9.3-0.4-14.1c0-2.1,0-4.2,0-6.3c0-7.3,0.1-14.9,0.4-22.8
				c0-1.3,0.1-2.6,0.1-3.8c0.3-7.7,0.8-14.5,1.3-20.3c0.3-3.2,0.6-6,0.9-8.5c0.1-0.8,0.2-1.6,0.3-2.4c0.4-2.5,0.9-4.5,1.3-6
				c0-0.1,0-0.2,0-0.2c0.3-1.1,0.7-1.8,1-2.1c0.1-0.1,0.1-0.1,0.2-0.1H185.1z"/>
		</g>
		<g>
			<g>
				<path fill-rule="evenodd" clip-rule="evenodd" fill="#7F7E7E" d="M302.9,180.8c0.4,2,0.7,5.3,1,10c0.3,4.6,0.5,10.3,0.7,17.3
					c0.3,14.2,0.3,29.4,0,45.7c-0.3,16.2-0.9,28.6-1.6,37.1c-0.5,5.8-1,8.7-1.5,8.8h-3.8c-0.2,0-0.4-0.6-0.7-1.9
					c-0.8-4-1.3-13-1.7-27.2c-0.1-7.1-0.2-14.3-0.2-21.7c0-7.8,0.1-15.8,0.2-24.1c0.4-16.2,0.9-28.5,1.6-37c0.3-2.7,0.6-4.9,0.8-6.4
					c0.3-1.8,0.6-2.7,0.9-2.6h3.6c0.1,0,0.1,0,0.1,0C302.5,178.9,302.7,179.5,302.9,180.8z"/>
			</g>
			<g>
				<g>
					<linearGradient id="SVGID_18_" gradientUnits="userSpaceOnUse" x1="298.5249" y1="178.7466" x2="298.5249" y2="299.6499">
						<stop  offset="0" style="stop-color:#5B5A5A"/>
						<stop  offset="0.3922" style="stop-color:#B6B6B6"/>
						<stop  offset="0.6941" style="stop-color:#9C9A9A"/>
						<stop  offset="1" style="stop-color:#201E1D"/>
					</linearGradient>
					<path fill-rule="evenodd" clip-rule="evenodd" fill="url(#SVGID_18_)" d="M302.1,178.8c-0.2,0.1-0.5,1-0.8,2.6
						c-0.2,1.5-0.5,3.7-0.8,6.4c-0.1,1.6-0.3,3.4-0.4,5.3c-0.6,8.1-1,18.7-1.3,31.8c-0.2,8.3-0.3,16.3-0.3,24.1
						c0,7.4,0.1,14.6,0.3,21.7c0.1,5.9,0.3,11,0.5,15.2c0.3,5.7,0.7,9.8,1.2,12c0.2,1.1,0.4,1.8,0.6,1.9h-3.8
						c-0.2,0-0.4-0.6-0.7-1.9c-0.8-4-1.3-13-1.7-27.2c-0.1-7.1-0.2-14.3-0.2-21.7c0-7.8,0.1-15.8,0.2-24.1c0.4-16.2,0.9-28.5,1.6-37
						c0.3-2.7,0.6-4.9,0.8-6.4c0.3-1.8,0.6-2.7,0.9-2.6H302.1z"/>
					<path fill-rule="evenodd" clip-rule="evenodd" fill="#1F1A17" d="M301.3,299.6c-0.2-0.1-0.4-0.8-0.6-1.9
						c-0.5-2.3-0.9-6.3-1.2-12c-0.2-4.2-0.4-9.2-0.5-15.2c-0.2-7.1-0.3-14.3-0.3-21.7c0-7.8,0.1-15.8,0.3-24.1
						c0.3-13.1,0.7-23.6,1.3-31.8c0.1-1.9,0.2-3.7,0.4-5.3c0.3-2.7,0.5-4.9,0.8-6.4c0.3-1.6,0.5-2.5,0.8-2.6c0.1,0,0.1,0,0.1,0
						c0.2,0.1,0.5,0.8,0.6,2c0.4,2,0.7,5.3,1,10c0.3,4.6,0.5,10.3,0.7,17.3c0.3,14.2,0.3,29.4,0,45.7c-0.3,16.2-0.9,28.6-1.6,37.1
						C302.4,296.7,301.9,299.6,301.3,299.6L301.3,299.6z"/>
				</g>
			</g>
		</g>
		<g>
			<path fill-rule="evenodd" clip-rule="evenodd" fill="#A8A09B" d="M303.4,215.1l25.4,22l0,0l0.2,0.1c0,0.1,0,0.2,0,0.3
				c0,0.2,0,0.5,0,0.9c0,0.1,0,0.2,0,0.4c0,0.3,0,0.6,0,1c0,0.1,0,0.3,0,0.4c0,0.1,0,0.1,0,0.3c0,0.1,0,0.1,0,0.2v0.1
				c0,0.8,0,1.4-0.1,1.8c0,0.1,0,0.2,0,0.3l-0.1,0L303,264.9l-0.1,0.1h0c-0.1,0-0.2-0.3-0.2-0.6l0-0.1c-0.2-1-0.4-2.6-0.5-5
				c-0.1-1.7-0.1-3.8-0.3-6.3c0-0.4,0-0.9,0-1.3c0-2.3-0.1-4.7-0.1-7.2c0-0.1,0-0.3,0-0.4c0-1.1,0-2.3,0-3.4c0-2.1,0-4.3,0.1-6.6
				c0-2,0.1-3.8,0.2-5.5c0-2.1,0.1-3.9,0.3-5.6c0-0.7,0.1-1.4,0.1-2c0-0.8,0.1-1.6,0.1-2.3c0-0.2,0.1-0.4,0.1-0.6
				c0.1-0.9,0.2-1.6,0.3-2.1c0.1-0.6,0.2-1,0.3-1h0.1C303.3,215,303.3,215,303.4,215.1z"/>
		</g>
		<g>
			<g>
				<path fill-rule="evenodd" clip-rule="evenodd" fill="#AF9F98" d="M328.8,242.8L328.8,242.8c-0.1-0.1-0.1-0.3-0.1-0.6
					c0-0.2,0-0.4,0-0.8c0-0.2,0-0.4,0-0.5c0-0.1,0-0.1,0-0.2c0,0,0-0.1,0-0.1c0-0.1,0-0.2,0-0.3c0-0.1,0-0.1,0-0.2
					c0-0.3,0-0.5,0-0.7c0-0.1,0-0.2,0-0.3v0c0-0.1,0-0.3,0-0.4c0-0.1,0-0.1,0-0.2c0-0.1,0-0.3,0-0.3c0-0.2,0-0.4,0.1-0.6
					c0-0.1,0-0.2,0-0.3c0-0.1,0-0.2,0-0.3l0.2,0.1c0,0.1,0,0.2,0,0.3c0,0.2,0,0.5,0,0.8v0c0,0.1,0,0.2,0,0.4c0,0.1,0,0.1,0,0.1
					s0,0.1,0,0.3c0,0.2,0,0.4,0,0.6c0,0.1,0,0.3,0,0.4c0,0.1,0,0.1,0,0.3c0,0.1,0,0.1,0,0.2v0.1c0,0.1,0,0.1,0,0.2
					c0,0.7,0,1.2-0.1,1.6C328.9,242.5,328.9,242.6,328.8,242.8L328.8,242.8z"/>
				<linearGradient id="SVGID_19_" gradientUnits="userSpaceOnUse" x1="317.272" y1="225.1089" x2="311.6136" y2="232.2827">
					<stop  offset="3.921569e-003" style="stop-color:#897B75"/>
					<stop  offset="0.3255" style="stop-color:#FFFFFF"/>
					<stop  offset="0.4196" style="stop-color:#D2C8C5"/>
					<stop  offset="0.7804" style="stop-color:#9F9490"/>
					<stop  offset="1" style="stop-color:#C6BEBA"/>
				</linearGradient>
				<path fill-rule="evenodd" clip-rule="evenodd" fill="url(#SVGID_19_)" d="M328.6,238.7c-7.5-2.8-16.4-6.5-26.6-11.1
					c0-1.4,0.1-2.7,0.2-3.9c0-0.3,0-0.5,0-0.8c0-0.7,0.1-1.4,0.1-2c0-0.8,0.1-1.6,0.1-2.3c0-0.2,0.1-0.4,0.1-0.6
					c0.1-0.9,0.2-1.6,0.3-2.1c0.1-0.6,0.2-1,0.3-1c0.2,0.1,0.3,0.3,0.3,0.5c-0.1-0.2-0.1-0.3-0.1-0.4l25.4,22l0,0c0,0.1,0,0.1,0,0.3
					c0,0.1,0,0.1,0,0.3c-0.1,0.1-0.1,0.3-0.1,0.6c0,0.1,0,0.2,0,0.3C328.6,238.6,328.6,238.6,328.6,238.7z"/>
				<linearGradient id="SVGID_20_" gradientUnits="userSpaceOnUse" x1="313.853" y1="243.8965" x2="315.1908" y2="235.1484">
					<stop  offset="0" style="stop-color:#8A7972"/>
					<stop  offset="1" style="stop-color:#C6BEBA"/>
				</linearGradient>
				<path fill-rule="evenodd" clip-rule="evenodd" fill="url(#SVGID_20_)" d="M328.6,240.9l-26.8,9.5c0-1.9-0.1-3.9-0.1-5.9
					c0-0.1,0-0.3,0-0.4c0-1.1,0-2.3,0-3.4c0-1.4,0-2.8,0.1-4.1c0-0.8,0-1.6,0-2.4c0-2,0.1-3.8,0.2-5.5c0-0.3,0-0.6,0-0.9
					c10.2,4.6,19.1,8.3,26.6,11.1c0,0.1,0,0.3,0,0.4v0c0,0.1,0,0.2,0,0.3c0,0.2,0,0.4,0,0.7c0,0.1,0,0.1,0,0.2c0,0.1,0,0.1,0,0.3
					c0,0,0,0.1,0,0.1C328.6,240.8,328.6,240.8,328.6,240.9z"/>
				<linearGradient id="SVGID_21_" gradientUnits="userSpaceOnUse" x1="313.5625" y1="247.2275" x2="316.7759" y2="255.7475">
					<stop  offset="0" style="stop-color:#90847F"/>
					<stop  offset="1" style="stop-color:#4A413D"/>
				</linearGradient>
				<path fill-rule="evenodd" clip-rule="evenodd" fill="url(#SVGID_21_)" d="M303,264.9c-0.2,0.1-0.3-0.1-0.4-0.5l0-0.1
					c-0.2-1-0.4-2.6-0.5-5c-0.1-1.7-0.1-3.8-0.3-6.3c0-0.4,0-0.9,0-1.3c0-0.4,0-0.9,0-1.3l26.8-9.5c0,0.1,0,0.3,0,0.5
					c0,0.3,0,0.6,0,0.8c0,0.3,0,0.5,0.1,0.6h0L303,264.9z"/>
				<path fill-rule="evenodd" clip-rule="evenodd" fill="#1F1A17" d="M303.1,215h0.1c0,0,0.1,0,0.1,0.1c0,0.1,0.1,0.2,0.1,0.4
					C303.4,215.3,303.3,215.1,303.1,215z M302.6,264.4c0.1,0.4,0.2,0.6,0.4,0.5l-0.1,0.1h0C302.8,265,302.7,264.8,302.6,264.4z"/>
			</g>
		</g>
		<g>
			<linearGradient id="SVGID_22_" gradientUnits="userSpaceOnUse" x1="315.4248" y1="225.5" x2="315.4248" y2="252.7">
				<stop  offset="0" style="stop-color:#000000;stop-opacity:0"/>
				<stop  offset="1" style="stop-color:#000000;stop-opacity:0.3098"/>
			</linearGradient>
			<path fill-rule="evenodd" clip-rule="evenodd" fill="url(#SVGID_22_)" d="M328.8,237.1l0.2,0.1c0,0.1,0,0.2,0,0.3
				c0,0.2,0,0.5,0,0.9c0,0.1,0,0.2,0,0.4c0,0.3,0,0.6,0,1c0,0.1,0,0.3,0,0.4c0,0.1,0,0.1,0,0.3c0,0.1,0,0.1,0,0.2v0.1
				c0,0.8,0,1.4-0.1,1.8c0,0.1,0,0.2,0,0.3l-0.1,0L303,264.9l-0.1,0.1h0c-0.1,0-0.2-0.3-0.2-0.6l0-0.1c-0.2-1-0.4-2.6-0.5-5
				c-0.1-1.7-0.1-3.8-0.3-6.3c0-0.4,0-0.9,0-1.3c0-2.3-0.1-4.7-0.1-7.2c0-0.1,0-0.3,0-0.4c0-1.1,0-2.3,0-3.4c0-2.1,0-4.3,0.1-6.6
				c0-2,0.1-3.8,0.2-5.5c0-2.1,0.1-3.9,0.3-5.6c0-0.7,0.1-1.4,0.1-2c0-0.8,0.1-1.6,0.1-2.3c0-0.2,0.1-0.4,0.1-0.6
				c0.1-0.9,0.2-1.6,0.3-2.1c0.1-0.6,0.2-1,0.3-1h0.1c0,0,0.1,0,0.1,0.1L328.8,237.1L328.8,237.1z"/>
		</g>
		<g>
			
				<radialGradient id="SVGID_23_" cx="385.2412" cy="42.042" r="12.0254" gradientTransform="matrix(0.8648 0.5021 -0.1424 0.3326 -10.6822 24.9517)" gradientUnits="userSpaceOnUse">
				<stop  offset="0" style="stop-color:#FFFFFF"/>
				<stop  offset="0.1922" style="stop-color:#FFFFFF"/>
				<stop  offset="0.2824" style="stop-color:#FFFFFF;stop-opacity:0.7216"/>
				<stop  offset="0.4157" style="stop-color:#FFFFFF;stop-opacity:0.6"/>
				<stop  offset="0.5882" style="stop-color:#FEFEFE;stop-opacity:0.3333"/>
				<stop  offset="0.8157" style="stop-color:#FCFCFC;stop-opacity:8.627451e-002"/>
				<stop  offset="1" style="stop-color:#F9F9F9;stop-opacity:0"/>
			</radialGradient>
			<path fill-rule="evenodd" clip-rule="evenodd" fill="url(#SVGID_23_)" d="M326.6,238.2c-0.5,1.1-1.9,1.4-4.1,1.1
				c-2.3-0.5-4.9-1.5-7.7-3.2c-2.8-1.6-5-3.3-6.8-5.2c-1.6-1.9-2.2-3.4-1.8-4.4c0.5-1.1,1.9-1.5,4.2-1.1c2.3,0.4,4.9,1.4,7.7,3
				c2.8,1.7,5.1,3.4,6.8,5.4C326.5,235.6,327.1,237.1,326.6,238.2z"/>
		</g>
		<g>
			<g>
				
					<radialGradient id="SVGID_24_" cx="230.5498" cy="194.6499" r="64.05" gradientTransform="matrix(1 -2.153735e-003 3.387826e-004 0.1573 -6.541443e-002 164.5281)" gradientUnits="userSpaceOnUse">
					<stop  offset="0" style="stop-color:#FFFFFF;stop-opacity:0.498"/>
					<stop  offset="0.1922" style="stop-color:#FFFFFF;stop-opacity:0.498"/>
					<stop  offset="0.2824" style="stop-color:#FFFFFF;stop-opacity:0.3294"/>
					<stop  offset="0.4157" style="stop-color:#FFFFFF;stop-opacity:0.298"/>
					<stop  offset="0.5882" style="stop-color:#FEFEFE;stop-opacity:0.2"/>
					<stop  offset="0.8157" style="stop-color:#FCFCFC;stop-opacity:4.705882e-002"/>
					<stop  offset="1" style="stop-color:#F9F9F9;stop-opacity:0"/>
				</radialGradient>
				<path fill-rule="evenodd" clip-rule="evenodd" fill="url(#SVGID_24_)" d="M186,187.7c12.3-2,27-3,44.1-3c17.3,0,32.2,1,44.6,3
					c12,1.9,18,4.2,18,6.9s-6,5.1-18,7c-12.4,1.9-27.3,2.8-44.6,2.8c-17.1,0-31.8-0.9-44.1-2.8c-12.1-1.9-18.2-4.2-18.2-7
					S173.9,189.6,186,187.7z"/>
			</g>
		</g>
		<g>
			<g>
				
					<radialGradient id="SVGID_25_" cx="236.2002" cy="194.9502" r="21.3625" gradientTransform="matrix(1 -2.158273e-003 3.384558e-004 0.1568 -6.542969e-002 164.8884)" gradientUnits="userSpaceOnUse">
					<stop  offset="0" style="stop-color:#FFFFFF;stop-opacity:0.498"/>
					<stop  offset="0.1922" style="stop-color:#FFFFFF;stop-opacity:0.498"/>
					<stop  offset="0.2824" style="stop-color:#FFFFFF;stop-opacity:0.3333"/>
					<stop  offset="0.4157" style="stop-color:#FFFFFF;stop-opacity:0.298"/>
					<stop  offset="0.5882" style="stop-color:#FEFEFE;stop-opacity:0.2"/>
					<stop  offset="0.8157" style="stop-color:#FCFCFC;stop-opacity:4.705882e-002"/>
					<stop  offset="1" style="stop-color:#F9F9F9;stop-opacity:0"/>
				</radialGradient>
				<path fill-rule="evenodd" clip-rule="evenodd" fill="url(#SVGID_25_)" d="M221.4,192.6c4.1-0.7,9-1,14.7-1
					c5.8,0,10.7,0.3,14.9,1c4,0.6,6,1.4,6,2.3c0,0.9-2,1.7-6,2.3c-4.2,0.7-9.1,1-14.9,1c-5.7,0-10.6-0.3-14.7-1
					c-4-0.6-6.1-1.4-6.1-2.3C215.3,194,217.3,193.3,221.4,192.6z"/>
			</g>
		</g>
	</g>
	<g>
		<g>
			<g>
				
					<linearGradient id="SVGID_26_" gradientUnits="userSpaceOnUse" x1="218.9346" y1="-540.6689" x2="259.3846" y2="-540.6689" gradientTransform="matrix(2.472188e-005 1 -1 -1.000000e-003 0 -1.826358e-004)">
					<stop  offset="0" style="stop-color:#5B5A5A"/>
					<stop  offset="8.235294e-002" style="stop-color:#828282"/>
					<stop  offset="0.1529" style="stop-color:#FFFFFF"/>
					<stop  offset="0.1961" style="stop-color:#FFFFFF"/>
					<stop  offset="0.2588" style="stop-color:#D1D1D1"/>
					<stop  offset="0.4078" style="stop-color:#B6B6B6"/>
					<stop  offset="0.6667" style="stop-color:#544D4D"/>
					<stop  offset="1" style="stop-color:#000000"/>
				</linearGradient>
				<path fill-rule="evenodd" clip-rule="evenodd" fill="url(#SVGID_26_)" d="M530.8,260.4c0.2,0,0.3-0.2,0.5-0.6
					c0.1-0.3,0.2-0.7,0.3-1.2c0.3-1.5,0.5-4.2,0.7-8.1c0-0.6,0-1.3,0-2c0.1-1.6,0.1-3.4,0.1-5.4c0-2.2,0-4.6-0.1-7.1
					c0-0.4,0-0.7,0-1.1c-0.1-2.9-0.3-5.4-0.4-7.5c-0.2-1.9-0.3-3.5-0.5-4.8c-0.1-0.1-0.1-0.3-0.1-0.4c-0.1-0.5-0.1-0.9-0.2-1.3
					l-0.3-0.9c-0.1-0.4-0.3-0.7-0.5-0.9h18.8c0,0,0.1,0,0.1,0c0.1,0.1,0.3,0.4,0.4,0.8c0.1,0.5,0.3,1.3,0.4,2.2c0,0.1,0,0.2,0,0.4
					c0.2,1.3,0.4,2.9,0.5,4.8c0.2,2.2,0.3,4.7,0.4,7.5c0,0.4,0,0.7,0,1.1c0.1,2.4,0.1,4.8,0.1,7.1c0,1.8,0,3.6,0,5.4
					c0,0.7-0.1,1.3-0.1,2c-0.2,4.8-0.5,8-1,9.4c-0.1,0.4-0.3,0.6-0.4,0.6H530.8z"/>
				
					<linearGradient id="SVGID_27_" gradientUnits="userSpaceOnUse" x1="-532.375" y1="-239.7002" x2="-528.725" y2="-239.7002" gradientTransform="matrix(-1 0 0 -1 0 0)">
					<stop  offset="0" style="stop-color:#FFFFFF"/>
					<stop  offset="1" style="stop-color:#000000"/>
				</linearGradient>
				<path fill-rule="evenodd" clip-rule="evenodd" fill="url(#SVGID_27_)" d="M530.3,219c0.2,0.2,0.4,0.5,0.5,0.9l0.3,0.9
					c0.1,0.3,0.1,0.7,0.2,1.3c0,0.1,0,0.2,0.1,0.4c0.2,1.3,0.3,2.9,0.5,4.8c0.1,2.2,0.3,4.7,0.4,7.5c0,0.4,0,0.7,0,1.1
					c0.1,2.6,0.1,4.9,0.1,7.1c0,2,0,3.8-0.1,5.4c0,0.7,0,1.4,0,2c-0.2,3.9-0.4,6.6-0.7,8.1c-0.1,0.5-0.2,0.9-0.3,1.2
					c-0.1,0.4-0.3,0.6-0.5,0.6c-0.3,0-0.6-1-0.9-3c-0.4-2.2-0.7-5.2-0.9-9c0-1.2-0.1-2.4-0.2-3.7c-0.1-3.1-0.1-6.1-0.1-8.9
					c0-2.4,0.1-4.6,0.1-6.8c0.1-0.7,0.1-1.3,0.1-1.9c0.1-1.4,0.2-2.8,0.3-4.1c0-0.3,0.1-0.5,0.2-0.8c0.1-1.2,0.3-2.1,0.5-2.8
					C530,219.4,530.1,219.2,530.3,219L530.3,219z"/>
			</g>
		</g>
		<g>
			<g>
				
					<linearGradient id="SVGID_28_" gradientUnits="userSpaceOnUse" x1="202.4482" y1="-526.7671" x2="234.8982" y2="-526.7671" gradientTransform="matrix(3.081664e-005 1 -1 -1.000000e-003 4.531676e-004 -2.034975e-004)">
					<stop  offset="0" style="stop-color:#8DA0A4"/>
					<stop  offset="1" style="stop-color:#6C797B"/>
				</linearGradient>
				<path fill-rule="evenodd" clip-rule="evenodd" fill="url(#SVGID_28_)" d="M544.2,233.3h-31.4c-0.1-0.6-0.1-1.3-0.1-1.9
					c-0.2-4.8-0.4-9-0.7-12.6c-0.3-3.1-0.5-5.8-0.8-8c0-0.2-0.1-0.4-0.1-0.6c-0.1-0.9-0.3-1.6-0.4-2.1l-0.4-1.5
					c-0.2-0.7-0.5-1.2-0.9-1.5H541c0.1,0,0.1,0.1,0.1,0.1c0.2,0.2,0.4,0.6,0.7,1.4c0.2,0.9,0.5,2.1,0.7,3.6c0.1,0.2,0.1,0.4,0.1,0.6
					c0.3,2.2,0.6,4.9,0.9,8c0.3,3.7,0.5,7.9,0.6,12.6C544.1,232,544.2,232.7,544.2,233.3z"/>
				<path fill-rule="evenodd" clip-rule="evenodd" fill="#8DA0A4" d="M544.2,254.3h-31.4c0.1-2.7,0.1-5.7,0.1-9c0-2.1,0-4.4-0.1-6.8
					h31.5c0,2.3,0,4.5,0,6.8C544.3,248.3,544.3,251.3,544.2,254.3z"/>
				
					<linearGradient id="SVGID_29_" gradientUnits="userSpaceOnUse" x1="232.7217" y1="-528.5044" x2="237.9217" y2="-528.5044" gradientTransform="matrix(1.923077e-004 1 -1 -1.000000e-003 3.062618e-004 -2.053233e-004)">
					<stop  offset="0" style="stop-color:#717F81"/>
					<stop  offset="0.1373" style="stop-color:#94A5A8"/>
					<stop  offset="0.2941" style="stop-color:#8DA0A4"/>
					<stop  offset="1" style="stop-color:#8DA0A4"/>
				</linearGradient>
				<path fill-rule="evenodd" clip-rule="evenodd" fill="url(#SVGID_29_)" d="M512.8,238.5c0-1.7,0-3.4,0-5.2h31.4
					c0.1,1.7,0.1,3.5,0.1,5.2H512.8z"/>
				<path fill-rule="evenodd" clip-rule="evenodd" fill="#685B57" d="M512.8,233.3c0,1.8,0,3.5,0,5.2c0,2.4,0.1,4.6,0.1,6.8
					c0,3.4,0,6.4-0.1,9c0,1.2,0,2.3-0.1,3.4c-0.3,6.6-0.7,11.2-1.2,13.8c-0.1,0.8-0.3,1.4-0.5,1.9c-0.3,0.7-0.5,1.1-0.8,1.1
					c-0.5,0-1-1.7-1.6-5c-0.6-3.7-1-8.8-1.4-15.1c-0.1-2-0.2-4.1-0.3-6.3c-0.1-3.2-0.1-6.4-0.3-9.5c0-1.8,0-3.5,0-5.2
					c0-4,0.1-7.8,0.3-11.4c0.1-1.1,0.1-2.1,0.2-3.1c0.1-2.4,0.3-4.7,0.5-6.8c0.1-0.5,0.1-0.9,0.1-1.3c0.3-2.1,0.6-3.6,0.9-4.6
					c0.2-0.4,0.3-0.8,0.5-1l0.2-0.1c0.4,0.3,0.7,0.8,0.9,1.5l0.4,1.5c0.2,0.5,0.3,1.2,0.4,2.1c0,0.2,0,0.4,0.1,0.6
					c0.3,2.2,0.6,4.9,0.8,8c0.3,3.7,0.5,7.9,0.7,12.6C512.7,232,512.7,232.7,512.8,233.3z"/>
				
					<linearGradient id="SVGID_30_" gradientUnits="userSpaceOnUse" x1="256.2114" y1="-527.2178" x2="264.4364" y2="-527.2178" gradientTransform="matrix(1.215805e-004 1 -1 -1.000000e-003 3.513647e-004 -2.044104e-004)">
					<stop  offset="0" style="stop-color:#8DA0A4"/>
					<stop  offset="0.102" style="stop-color:#96A7AA"/>
					<stop  offset="0.2275" style="stop-color:#4E5D60"/>
					<stop  offset="1" style="stop-color:#354346"/>
				</linearGradient>
				<path fill-rule="evenodd" clip-rule="evenodd" fill="url(#SVGID_30_)" d="M544.2,254.3c0,1.1-0.1,2.3-0.1,3.4
					c-0.3,8.1-0.8,13.3-1.6,15.6c-0.2,0.7-0.5,1.1-0.7,1.1h-31.5c0.2,0,0.5-0.4,0.8-1.1c0.2-0.4,0.3-1,0.5-1.9
					c0.5-2.6,0.9-7.1,1.2-13.8c0.1-1,0.1-2.1,0.1-3.4H544.2z"/>
			</g>
		</g>
		<g>
			<g>
				<path fill-rule="evenodd" clip-rule="evenodd" fill="#1F1A17" d="M522.5,299.6c-0.9,0-1.8-2.9-2.8-8.8
					c-1.3-8.5-2.3-20.9-2.8-37.1c-0.6-16.3-0.6-31.5,0-45.7c0.3-7,0.6-12.7,1.1-17.3c0.4-4.7,1-8.1,1.7-10c0.3-0.9,0.6-1.5,0.9-1.8
					c0.1-0.1,0.2-0.1,0.3-0.2c0.1,0,0.2,0,0.3,0c0.1,0.1,0.2,0.1,0.3,0.2c0.4,0.3,0.7,1.1,1.1,2.4c0.2,0.8,0.4,1.7,0.7,2.7
					c0.2,1.1,0.4,2.3,0.7,3.7c1.3,8.5,2.2,20.9,2.8,37c0.3,8.3,0.4,16.3,0.4,24.1c0,7.4-0.2,14.6-0.4,21.7
					c-0.4,11.1-1.1,19.1-2,23.9c-0.3,1.4-0.6,2.5-0.9,3.4C523.4,299,522.9,299.6,522.5,299.6z"/>
				
					<linearGradient id="SVGID_31_" gradientUnits="userSpaceOnUse" x1="178.2246" y1="-526.248" x2="299.1274" y2="-526.248" gradientTransform="matrix(8.273009e-006 1 -1 -1.000000e-003 4.238145e-004 -2.034975e-004)">
					<stop  offset="0" style="stop-color:#5B5A5A"/>
					<stop  offset="0.3922" style="stop-color:#B6B6B6"/>
					<stop  offset="0.6941" style="stop-color:#9C9A9A"/>
					<stop  offset="1" style="stop-color:#201E1D"/>
				</linearGradient>
				<path fill-rule="evenodd" clip-rule="evenodd" fill="url(#SVGID_31_)" d="M521.2,178.8h4.3c0.1,0.1,0.2,0.1,0.2,0.2
					c0.4,0.3,0.8,1.1,1.1,2.4c0.4,1.5,0.9,3.7,1.3,6.4c1.3,8.5,2.3,20.9,2.9,37c0.3,8.3,0.4,16.3,0.4,24.1
					c-0.1,7.4-0.2,14.6-0.4,21.7c-0.6,14.2-1.5,23.2-2.9,27.2c-0.4,1.3-0.9,1.9-1.3,1.9h-4.2c0.4,0,0.9-0.6,1.3-1.9
					c0.3-0.9,0.5-2,0.9-3.4c0.9-4.8,1.6-12.8,2-23.9c0.3-7.1,0.4-14.3,0.4-21.7c0-7.8-0.1-15.8-0.4-24.1c-0.6-16.2-1.5-28.5-2.8-37
					c-0.3-1.4-0.5-2.6-0.7-3.7c-0.2-1-0.5-1.9-0.7-2.7c-0.4-1.3-0.7-2.1-1.1-2.4C521.3,178.9,521.3,178.8,521.2,178.8z"/>
			</g>
		</g>
		<g>
			
				<linearGradient id="SVGID_32_" gradientUnits="userSpaceOnUse" x1="181.5371" y1="-462.7725" x2="296.0371" y2="-462.7725" gradientTransform="matrix(8.733625e-006 1 -1 -1.000000e-003 1.297105e-004 -2.034975e-004)">
				<stop  offset="0" style="stop-color:#292929"/>
				<stop  offset="0.1294" style="stop-color:#7E7878"/>
				<stop  offset="0.2588" style="stop-color:#565656"/>
				<stop  offset="0.5176" style="stop-color:#8C7E7E"/>
				<stop  offset="0.7961" style="stop-color:#484343"/>
				<stop  offset="1" style="stop-color:#272727"/>
			</linearGradient>
			<path fill-rule="evenodd" clip-rule="evenodd" fill="url(#SVGID_32_)" d="M515.2,182.2h4c0.1,0,0.1,0.1,0.2,0.1
				c0.3,0.3,0.7,1,1,2.1c0,0,0,0.1,0,0.2c0.4,1.4,0.8,3.4,1.3,6c0.1,0.8,0.2,1.5,0.3,2.4c0.4,2.5,0.7,5.4,1,8.5
				c0.5,5.8,0.9,12.5,1.3,20.3c0.1,1.2,0.1,2.5,0.1,3.8c0.3,7.8,0.4,15.4,0.4,22.8c0,2.1,0,4.2,0,6.3c0,4.8-0.2,9.5-0.4,14.1
				c-0.5,13.4-1.4,22-2.6,25.7c-0.4,1.2-0.9,1.9-1.3,1.9H400.8v-114H515C515,182.2,515.1,182.2,515.2,182.2z"/>
		</g>
		<g>
			<path fill-rule="evenodd" clip-rule="evenodd" fill="#878787" d="M401.8,178.8c0.3-0.1,0.6,0.8,0.9,2.6c0.2,1.5,0.4,3.7,0.7,6.4
				c0.7,8.5,1.3,20.9,1.6,37c0.2,8.3,0.3,16.3,0.3,24.1c0,7.4-0.1,14.6-0.3,21.7c-0.4,14.2-0.9,23.2-1.6,27.2
				c-0.3,1.3-0.5,1.9-0.7,1.9H399c-0.5,0-1-2.9-1.6-8.8c-0.7-8.5-1.3-20.9-1.5-37.1c-0.3-16.3-0.4-31.5-0.1-45.7
				c0.2-7,0.5-12.7,0.8-17.3c0.2-4.7,0.5-8.1,0.9-10c0.2-1.2,0.4-1.9,0.7-2c0,0,0.1,0,0.2,0H401.8z"/>
		</g>
		<g>
			<g>
				<path fill-rule="evenodd" clip-rule="evenodd" fill="#1F1A17" d="M399,299.6L399,299.6c-0.5,0-1.1-2.9-1.7-8.8
					c-0.7-8.5-1.3-20.9-1.5-37.1c-0.3-16.3-0.4-31.5-0.1-45.7c0.2-7,0.5-12.7,0.8-17.3c0.2-4.7,0.5-8.1,0.9-10
					c0.2-1.2,0.4-1.9,0.7-2c0,0,0.1,0,0.2,0c0.2,0.1,0.5,1,0.8,2.6c0.2,1.5,0.5,3.7,0.8,6.4c0.1,1.6,0.3,3.4,0.3,5.3
					c0.6,8.1,1,18.7,1.3,31.8c0.1,8.3,0.2,16.3,0.2,24.1c0,7.4-0.1,14.6-0.2,21.7c-0.1,5.9-0.3,11-0.5,15.2c-0.3,5.7-0.7,9.8-1.2,12
					C399.4,298.9,399.2,299.5,399,299.6z"/>
				
					<linearGradient id="SVGID_33_" gradientUnits="userSpaceOnUse" x1="178.3447" y1="-401.7725" x2="299.251" y2="-401.7725" gradientTransform="matrix(8.273009e-006 1 -1 -1.000000e-003 4.238145e-004 -2.034975e-004)">
					<stop  offset="0" style="stop-color:#5B5A5A"/>
					<stop  offset="0.3922" style="stop-color:#B6B6B6"/>
					<stop  offset="0.6941" style="stop-color:#9C9A9A"/>
					<stop  offset="1" style="stop-color:#201E1D"/>
				</linearGradient>
				<path fill-rule="evenodd" clip-rule="evenodd" fill="url(#SVGID_33_)" d="M399,299.6c0.2-0.1,0.4-0.8,0.6-1.9
					c0.5-2.3,0.9-6.3,1.2-12c0.2-4.2,0.4-9.2,0.5-15.2c0.1-7.1,0.2-14.3,0.2-21.7c0-7.8-0.1-15.8-0.2-24.1
					c-0.3-13.1-0.7-23.6-1.3-31.8c-0.1-1.9-0.2-3.7-0.3-5.3c-0.3-2.7-0.5-4.9-0.8-6.4c-0.3-1.6-0.5-2.5-0.8-2.6h3.6
					c0.3-0.1,0.6,0.8,0.9,2.6c0.2,1.5,0.4,3.7,0.7,6.4c0.7,8.5,1.3,20.9,1.6,37c0.2,8.3,0.3,16.3,0.3,24.1c0,7.4-0.1,14.6-0.3,21.7
					c-0.4,14.2-0.9,23.2-1.6,27.2c-0.3,1.3-0.5,1.9-0.7,1.9H399z"/>
			</g>
		</g>
		<g>
			<path fill-rule="evenodd" clip-rule="evenodd" fill="#A8A09B" d="M371.3,237.3c0,0.1,0,0.2,0,0.3c0,0.2,0,0.5,0,0.9
				c0,0.1,0,0.2,0,0.4c0,0.3,0,0.6,0,1c0,0.1,0,0.3,0,0.4c0,0.1,0,0.1,0,0.3c0,0.1,0,0.1,0,0.2v0.1c0,0.8,0,1.4,0.1,1.8
				c0,0.1,0,0.2,0,0.3l0.1,0l25.8,22.1l0.2,0.1h0c0.1,0,0.2-0.3,0.2-0.6l0-0.1c0.2-1,0.4-2.6,0.5-5c0.1-1.7,0.2-3.8,0.3-6.3
				c0-0.4,0-0.9,0-1.3c0-2.3,0.1-4.7,0.1-7.2c0-0.1,0-0.3,0-0.4c0-1.1,0-2.3,0-3.4c0-2.1,0-4.3-0.1-6.6c0-2-0.1-3.8-0.2-5.5
				c0-2.1-0.1-3.9-0.3-5.6c0-0.7-0.1-1.4-0.1-2c0-0.8-0.1-1.6-0.2-2.3c0-0.2-0.1-0.4-0.1-0.6c-0.1-0.9-0.2-1.6-0.3-2.1
				c-0.1-0.6-0.2-1-0.3-1H397c0,0-0.1,0-0.1,0.1l-25.4,22l0,0L371.3,237.3z"/>
		</g>
		<g>
			<g>
				<path fill-rule="evenodd" clip-rule="evenodd" fill="#1F1A17" d="M397,215.1c0-0.1,0.1-0.1,0.1-0.1h0c-0.1,0.1-0.2,0.3-0.3,0.5
					C396.9,215.3,396.9,215.2,397,215.1z M397.3,264.9c0.2,0.1,0.3-0.1,0.4-0.5c0,0.4-0.1,0.6-0.2,0.6h0
					C397.4,265,397.3,265,397.3,264.9z"/>
				
					<linearGradient id="SVGID_34_" gradientUnits="userSpaceOnUse" x1="413.9531" y1="-161.3125" x2="423.0899" y2="-161.3125" gradientTransform="matrix(0.6193 0.7852 -0.7852 0.6193 -2.378225e-004 -3.539324e-004)">
					<stop  offset="3.921569e-003" style="stop-color:#897B75"/>
					<stop  offset="0.3255" style="stop-color:#FFFFFF"/>
					<stop  offset="0.4196" style="stop-color:#D2C8C5"/>
					<stop  offset="0.7804" style="stop-color:#9F9490"/>
					<stop  offset="1" style="stop-color:#C6BEBA"/>
				</linearGradient>
				<path fill-rule="evenodd" clip-rule="evenodd" fill="url(#SVGID_34_)" d="M398.2,227.6c-10.2,4.6-19,8.3-26.5,11.1
					c0-0.1,0-0.1,0-0.2c0-0.1,0-0.3,0-0.3c0-0.2,0-0.4-0.1-0.6c0-0.1,0-0.2,0-0.3c0-0.1,0-0.2,0-0.3l0,0l25.4-22
					c0,0.1-0.1,0.2-0.1,0.4c0.1-0.2,0.1-0.4,0.3-0.5c0.1,0.1,0.2,0.4,0.3,1c0.1,0.5,0.2,1.2,0.3,2.1c0,0.2,0,0.4,0.1,0.6
					c0.1,0.7,0.1,1.4,0.2,2.3c0,0.6,0.1,1.3,0.1,2c0,0.3,0,0.5,0,0.8C398.2,224.9,398.2,226.2,398.2,227.6z"/>
				<path fill-rule="evenodd" clip-rule="evenodd" fill="#AF9F98" d="M371.7,240.9c0,0.1,0,0.3,0,0.5c0,0.3,0,0.6,0,0.8
					c0,0.3,0,0.5-0.1,0.6h0l0,0c0-0.1,0-0.2,0-0.3c-0.1-0.4-0.1-0.9-0.1-1.6c0-0.1,0-0.1,0-0.2v-0.1c0-0.1,0-0.1,0-0.2
					c0-0.1,0-0.2,0-0.3c0-0.1,0-0.3,0-0.4c0-0.2,0-0.4,0-0.6c0-0.1,0-0.2,0-0.3s0-0.1,0-0.1c0-0.1,0-0.3,0-0.4v0c0-0.3,0-0.6,0-0.8
					c0-0.1,0-0.2,0-0.3l0.2-0.1c0,0.1,0,0.1,0,0.3c0,0.1,0,0.1,0,0.3c0.1,0.1,0.1,0.3,0.1,0.6c0,0.1,0,0.2,0,0.3c0,0,0,0.1,0,0.2
					c0,0.1,0,0.3,0,0.4v0c0,0.1,0,0.2,0,0.3c0,0.2,0,0.4,0,0.7c0,0.1,0,0.1,0,0.2c0,0.1,0,0.1,0,0.3c0,0,0,0.1,0,0.1
					C371.7,240.8,371.7,240.8,371.7,240.9z"/>
				
					<linearGradient id="SVGID_35_" gradientUnits="userSpaceOnUse" x1="-299.5122" y1="345.1113" x2="-290.6624" y2="345.1113" gradientTransform="matrix(-0.1512 -0.9885 0.9885 -0.1512 -9.727478e-005 -6.868839e-004)">
					<stop  offset="0" style="stop-color:#8A7972"/>
					<stop  offset="1" style="stop-color:#C6BEBA"/>
				</linearGradient>
				<path fill-rule="evenodd" clip-rule="evenodd" fill="url(#SVGID_35_)" d="M398.5,250.4l-26.8-9.5c0-0.1,0-0.1,0-0.2
					c0,0,0-0.1,0-0.1c0-0.1,0-0.2,0-0.3c0-0.1,0-0.1,0-0.2c0-0.3,0-0.5,0-0.7c0-0.1,0-0.2,0-0.3v0c0-0.1,0-0.3,0-0.4
					c7.5-2.8,16.4-6.5,26.5-11.1c0,0.3,0,0.6,0,0.9c0.1,1.7,0.2,3.5,0.2,5.5c0,0.8,0,1.6,0,2.4c0,1.4,0,2.8,0,4.1c0,1.2,0,2.3,0,3.4
					c0,0.1,0,0.3,0,0.4C398.5,246.5,398.5,248.4,398.5,250.4z"/>
				
					<linearGradient id="SVGID_36_" gradientUnits="userSpaceOnUse" x1="94.8438" y1="-449.1025" x2="103.9496" y2="-449.1025" gradientTransform="matrix(-0.3529 0.9357 -0.9357 -0.3529 -4.075766e-004 -2.040863e-004)">
					<stop  offset="0" style="stop-color:#90847F"/>
					<stop  offset="1" style="stop-color:#4A413D"/>
				</linearGradient>
				<path fill-rule="evenodd" clip-rule="evenodd" fill="url(#SVGID_36_)" d="M371.7,240.9l26.8,9.5c0,0.4,0,0.9,0,1.3
					c0,0.4,0,0.9,0,1.3c-0.1,2.5-0.2,4.6-0.3,6.3c-0.1,2.4-0.3,4.1-0.5,5v0.1c-0.1,0.4-0.2,0.6-0.4,0.5l-25.8-22.1h0
					c0.1-0.1,0.1-0.3,0.1-0.6c0-0.2,0-0.4,0-0.8C371.7,241.2,371.7,241,371.7,240.9z"/>
			</g>
		</g>
		<g>
			
				<linearGradient id="SVGID_37_" gradientUnits="userSpaceOnUse" x1="225.1138" y1="-384.8647" x2="252.3138" y2="-384.8647" gradientTransform="matrix(3.676470e-005 1 -1 -9.999999e-004 1.811513e-004 -1.817229e-004)">
				<stop  offset="0" style="stop-color:#000000;stop-opacity:0"/>
				<stop  offset="1" style="stop-color:#000000;stop-opacity:0.3098"/>
			</linearGradient>
			<path fill-rule="evenodd" clip-rule="evenodd" fill="url(#SVGID_37_)" d="M397,215.1c0-0.1,0.1-0.1,0.1-0.1h0
				c0.1,0.1,0.2,0.4,0.3,1c0.1,0.5,0.2,1.2,0.3,2.1c0,0.2,0,0.4,0.1,0.6c0.1,0.7,0.1,1.4,0.2,2.3c0,0.6,0.1,1.3,0.1,2
				c0.1,1.7,0.2,3.5,0.3,5.6c0.1,1.7,0.2,3.5,0.2,5.5c0,2.2,0,4.4,0,6.6c0,1.2,0,2.3,0,3.4c0,0.1,0,0.3,0,0.4c0,2.5,0,4.9,0,7.2
				c0,0.4,0,0.9,0,1.3c-0.1,2.5-0.2,4.6-0.3,6.3c-0.1,2.4-0.3,4.1-0.5,5v0.1c0,0.4-0.1,0.6-0.2,0.6h0c0,0-0.1,0-0.2-0.1l-25.8-22.1
				l0,0c0-0.1,0-0.2,0-0.3c-0.1-0.4-0.1-1-0.1-1.8v-0.1c0-0.1,0-0.1,0-0.2c0-0.1,0-0.2,0-0.3c0-0.1,0-0.3,0-0.4c0-0.4,0-0.7,0-1
				c0-0.1,0-0.3,0-0.4c0-0.4,0-0.6,0-0.9c0-0.1,0-0.2,0-0.3l0.2-0.1l0,0L397,215.1z"/>
		</g>
		<g>
			
				<radialGradient id="SVGID_38_" cx="-263.3184" cy="-393.6348" r="12.0254" gradientTransform="matrix(-0.8648 0.5021 0.1424 0.3326 212.13 495.4856)" gradientUnits="userSpaceOnUse">
				<stop  offset="0" style="stop-color:#FFFFFF"/>
				<stop  offset="0.1922" style="stop-color:#FFFFFF"/>
				<stop  offset="0.2824" style="stop-color:#FFFFFF;stop-opacity:0.7216"/>
				<stop  offset="0.4157" style="stop-color:#FFFFFF;stop-opacity:0.6"/>
				<stop  offset="0.5882" style="stop-color:#FEFEFE;stop-opacity:0.3333"/>
				<stop  offset="0.8157" style="stop-color:#FCFCFC;stop-opacity:8.627451e-002"/>
				<stop  offset="1" style="stop-color:#F9F9F9;stop-opacity:0"/>
			</radialGradient>
			<path fill-rule="evenodd" clip-rule="evenodd" fill="url(#SVGID_38_)" d="M377.8,239.3c-2.3,0.3-3.7,0-4.1-1.1
				c-0.4-1.1,0.1-2.6,1.8-4.5c1.7-1.9,3.9-3.7,6.8-5.4c2.8-1.6,5.3-2.6,7.7-3c2.3-0.4,3.7,0,4.2,1.1c0.4,1.1-0.2,2.6-1.8,4.4
				c-1.7,1.9-4,3.6-6.8,5.2C382.7,237.8,380.1,238.8,377.8,239.3z"/>
		</g>
		<g>
			<g>
				
					<radialGradient id="SVGID_39_" cx="-470.167" cy="-193.6372" r="64.05" gradientTransform="matrix(-1 -2.153772e-003 -3.387885e-004 0.1573 -0.4824 224.0961)" gradientUnits="userSpaceOnUse">
					<stop  offset="0" style="stop-color:#FFFFFF;stop-opacity:0.498"/>
					<stop  offset="0.1922" style="stop-color:#FFFFFF;stop-opacity:0.498"/>
					<stop  offset="0.2824" style="stop-color:#FFFFFF;stop-opacity:0.3294"/>
					<stop  offset="0.4157" style="stop-color:#FFFFFF;stop-opacity:0.298"/>
					<stop  offset="0.5882" style="stop-color:#FEFEFE;stop-opacity:0.2"/>
					<stop  offset="0.8157" style="stop-color:#FCFCFC;stop-opacity:4.705882e-002"/>
					<stop  offset="1" style="stop-color:#F9F9F9;stop-opacity:0"/>
				</radialGradient>
				<path fill-rule="evenodd" clip-rule="evenodd" fill="url(#SVGID_39_)" d="M514.3,187.7c12.1,1.9,18.2,4.2,18.2,6.9
					s-6,5.1-18.2,7c-12.3,1.9-27,2.8-44.1,2.8c-17.3,0-32.2-0.9-44.7-2.8c-12-1.9-18-4.2-18-7s6-5,18-6.9c12.4-2,27.3-3,44.7-3
					C487.3,184.7,502,185.7,514.3,187.7z"/>
			</g>
		</g>
		<g>
			<g>
				
					<radialGradient id="SVGID_40_" cx="-464.5186" cy="-193.9473" r="21.3625" gradientTransform="matrix(-1 -2.158230e-003 -3.384491e-004 0.1568 -0.4842 224.3616)" gradientUnits="userSpaceOnUse">
					<stop  offset="0" style="stop-color:#FFFFFF;stop-opacity:0.498"/>
					<stop  offset="0.1922" style="stop-color:#FFFFFF;stop-opacity:0.498"/>
					<stop  offset="0.2824" style="stop-color:#FFFFFF;stop-opacity:0.3333"/>
					<stop  offset="0.4157" style="stop-color:#FFFFFF;stop-opacity:0.298"/>
					<stop  offset="0.5882" style="stop-color:#FEFEFE;stop-opacity:0.2"/>
					<stop  offset="0.8157" style="stop-color:#FCFCFC;stop-opacity:4.705882e-002"/>
					<stop  offset="1" style="stop-color:#F9F9F9;stop-opacity:0"/>
				</radialGradient>
				<path fill-rule="evenodd" clip-rule="evenodd" fill="url(#SVGID_40_)" d="M449.3,192.6c4.2-0.7,9.1-1,14.9-1
					c5.7,0,10.6,0.3,14.7,1c4,0.6,6,1.4,6,2.3c0,0.9-2,1.7-6,2.3c-4.1,0.7-9,1-14.7,1c-5.8,0-10.7-0.3-14.9-1c-4-0.6-6-1.4-6-2.3
					C443.3,194,445.3,193.3,449.3,192.6z"/>
			</g>
		</g>
	</g>
	<g>
		<g>
			
				<linearGradient id="SVGID_41_" gradientUnits="userSpaceOnUse" x1="178.0742" y1="-526.5225" x2="298.9242" y2="-526.5225" gradientTransform="matrix(8.274721e-006 1 -1 -1.000000e-003 4.372374e-004 -2.034975e-004)">
				<stop  offset="0" style="stop-color:#5B5A5A"/>
				<stop  offset="0.3922" style="stop-color:#B6B6B6"/>
				<stop  offset="0.6941" style="stop-color:#9C9A9A"/>
				<stop  offset="1" style="stop-color:#201E1D"/>
			</linearGradient>
			<path fill-rule="evenodd" clip-rule="evenodd" fill="url(#SVGID_41_)" d="M531.6,254.1c-0.1,5.5-0.3,10.9-0.4,16.2
				c0,1.4-0.1,2.6-0.2,3.9c-0.6,12-1.5,19.8-2.8,23.4c-0.3,1.3-0.8,2-1.3,2h-4.2c0.4,0,0.8-0.7,1.3-2c0.2-0.9,0.5-2,0.8-3.3
				c0.9-4.3,1.5-11,2-20.1c0.1-1.2,0.1-2.5,0.2-3.9c0.2-5.3,0.3-10.7,0.3-16.2c0-1.8,0-3.6,0-5.4c0-3.4,0-6.9,0-10.5
				c0-1.7,0-3.4,0-5.1c-0.1-2.8-0.2-5.7-0.3-8.5c-0.2-7.4-0.5-14-1-19.8c-0.6-6.9-1.2-12.6-1.8-17.2c-0.2-1.4-0.5-2.7-0.8-3.7
				c-0.2-1.1-0.4-2-0.6-2.8c-0.4-1.3-0.8-2-1.1-2.4c-0.1-0.1-0.2-0.2-0.3-0.2h4.3c0.1,0,0.2,0.1,0.2,0.2c0.4,0.3,0.7,1.1,1.1,2.4
				c0.5,1.6,1,3.7,1.3,6.5c0.7,4.6,1.3,10.3,1.8,17.2c0.5,5.8,0.8,12.4,1,19.8c0.1,2.9,0.2,5.7,0.3,8.5c0,1.7,0.1,3.4,0.2,5.1
				c0,3.5,0,7,0,10.5C531.6,250.6,531.6,252.4,531.6,254.1z"/>
			
				<linearGradient id="SVGID_42_" gradientUnits="userSpaceOnUse" x1="218.7466" y1="-547.6196" x2="259.1716" y2="-547.6196" gradientTransform="matrix(2.473717e-005 1 -1 -1.000000e-003 -3.470508e-004 -2.034975e-004)">
				<stop  offset="0" style="stop-color:#5B5A5A"/>
				<stop  offset="8.235294e-002" style="stop-color:#828282"/>
				<stop  offset="0.1529" style="stop-color:#FFFFFF"/>
				<stop  offset="0.1961" style="stop-color:#FFFFFF"/>
				<stop  offset="0.2588" style="stop-color:#D1D1D1"/>
				<stop  offset="0.4078" style="stop-color:#B6B6B6"/>
				<stop  offset="0.6667" style="stop-color:#544D4D"/>
				<stop  offset="1" style="stop-color:#000000"/>
			</linearGradient>
			<path fill-rule="evenodd" clip-rule="evenodd" fill="url(#SVGID_42_)" d="M544.3,260.2c0.1-0.9,0.1-1.8,0.1-2.7
				c0-1.2,0-2.3,0.1-3.4c0.1-3,0.1-6,0.2-9c0-2.2,0-4.5-0.1-6.8c0-1.7,0-3.4-0.1-5.1c0-0.7,0-1.3,0-1.9c-0.1-4.7-0.3-8.8-0.6-12.4
				h5.7c0.1,0.1,0.2,0.4,0.4,0.8c0.1,0.6,0.3,1.3,0.4,2.2c0.1,0,0.1,0.1,0.1,0.4c0.2,1.3,0.4,2.9,0.5,4.9c0.2,2.1,0.3,4.6,0.4,7.5
				c0,0.4,0,0.7,0,1c0.1,2.5,0.2,4.9,0.2,7.2c0,1.8,0,3.6,0,5.4c-0.1,0.7-0.1,1.4-0.1,2c-0.2,4.9-0.5,8-1,9.4
				c-0.1,0.4-0.3,0.6-0.4,0.6H544.3z"/>
			
				<linearGradient id="SVGID_43_" gradientUnits="userSpaceOnUse" x1="202.2354" y1="-537.2676" x2="234.7104" y2="-537.2676" gradientTransform="matrix(3.079292e-005 1 -1 -1.000000e-003 2.671583e-004 -2.034975e-004)">
				<stop  offset="0" style="stop-color:#8DA0A4"/>
				<stop  offset="1" style="stop-color:#6C797B"/>
			</linearGradient>
			<path fill-rule="evenodd" clip-rule="evenodd" fill="url(#SVGID_43_)" d="M544.4,233.1h-13c-0.1-2.8-0.2-5.7-0.3-8.5
				c-0.2-7.4-0.5-14-1-19.8h11.1c0.1,0.1,0.1,0.1,0.2,0.1c0.2,0.2,0.4,0.7,0.5,1.5c0.3,0.9,0.5,2.1,0.8,3.6c0,0.1,0,0.3,0,0.5
				c0.4,2.2,0.7,4.9,0.9,8.1c0,0.1,0,0.2,0.1,0.3c0.3,3.5,0.5,7.6,0.6,12.4C544.4,231.9,544.4,232.5,544.4,233.1z"/>
			<path fill-rule="evenodd" clip-rule="evenodd" fill="#8DA0A4" d="M544.5,254.1h-12.9c0-1.8,0-3.6,0-5.4c0-3.4,0-6.9,0-10.5h13
				c0.1,2.3,0.1,4.6,0.1,6.8C544.6,248.1,544.6,251.1,544.5,254.1z"/>
			
				<linearGradient id="SVGID_44_" gradientUnits="userSpaceOnUse" x1="232.5088" y1="-537.9302" x2="237.7338" y2="-537.9302" gradientTransform="matrix(1.913876e-004 1 -1 -1.000000e-003 -3.175373e-005 -2.053233e-004)">
				<stop  offset="0" style="stop-color:#717F81"/>
				<stop  offset="0.1373" style="stop-color:#94A5A8"/>
				<stop  offset="0.2941" style="stop-color:#8DA0A4"/>
				<stop  offset="1" style="stop-color:#8DA0A4"/>
			</linearGradient>
			<path fill-rule="evenodd" clip-rule="evenodd" fill="url(#SVGID_44_)" d="M544.4,233.1c0.1,1.7,0.1,3.4,0.1,5.1h-13
				c-0.1-1.7-0.2-3.4-0.2-5.1H544.4z"/>
			
				<linearGradient id="SVGID_45_" gradientUnits="userSpaceOnUse" x1="256.0112" y1="-537.7178" x2="264.2362" y2="-537.7178" gradientTransform="matrix(1.215805e-004 1 -1 -1.000000e-003 3.513647e-004 -2.044104e-004)">
				<stop  offset="0" style="stop-color:#8DA0A4"/>
				<stop  offset="0.102" style="stop-color:#96A7AA"/>
				<stop  offset="0.2275" style="stop-color:#4E5D60"/>
				<stop  offset="1" style="stop-color:#354346"/>
			</linearGradient>
			<path fill-rule="evenodd" clip-rule="evenodd" fill="url(#SVGID_45_)" d="M544.5,254.1c-0.1,1.1-0.1,2.2-0.1,3.4
				c0,0.9,0,1.8-0.1,2.7c-0.3,6.6-0.8,10.9-1.5,12.8c-0.2,0.8-0.5,1.2-0.8,1.2h-11c0.1-1.2,0.2-2.5,0.2-3.9
				c0.2-5.3,0.3-10.7,0.4-16.2H544.5z"/>
		</g>
	</g>
	<g>
		<g>
			<linearGradient id="SVGID_46_" gradientUnits="userSpaceOnUse" x1="174.3247" y1="178.6001" x2="174.3247" y2="299.4501">
				<stop  offset="0" style="stop-color:#5B5A5A"/>
				<stop  offset="0.3922" style="stop-color:#B6B6B6"/>
				<stop  offset="0.6941" style="stop-color:#9C9A9A"/>
				<stop  offset="1" style="stop-color:#201E1D"/>
			</linearGradient>
			<path fill-rule="evenodd" clip-rule="evenodd" fill="url(#SVGID_46_)" d="M169.9,274.2c-0.1-1.2-0.1-2.5-0.1-3.9
				c-0.2-5.3-0.3-10.7-0.4-16.2c0-1.8,0-3.6,0-5.4c0-3.4,0-6.9,0.1-10.5c0-1.7,0-3.4,0.1-5.1c0.1-2.8,0.1-5.7,0.3-8.5
				c0.2-7.4,0.5-14,1-19.8c0.5-6.9,1.1-12.6,1.8-17.2c0.5-2.7,0.9-4.9,1.4-6.5c0.3-1.3,0.7-2,1.1-2.4c0-0.1,0.1-0.2,0.2-0.2h4.3
				c-0.1,0-0.2,0.1-0.3,0.2c-0.4,0.3-0.7,1.1-1.1,2.4c-0.2,0.8-0.5,1.7-0.7,2.8c-0.2,1-0.4,2.3-0.6,3.7c-0.8,4.6-1.4,10.3-1.9,17.2
				c-0.4,5.8-0.7,12.4-1,19.8c0,2.9-0.1,5.7-0.2,8.5c-0.1,1.7-0.1,3.4-0.1,5.1c-0.1,3.5-0.1,7-0.1,10.5c0,1.8,0,3.6,0.1,5.4
				c0,5.5,0.1,10.9,0.4,16.2c0,1.4,0.1,2.6,0.3,3.9c0.4,9.1,1,15.8,1.9,20.1c0.3,1.3,0.5,2.4,0.8,3.3c0.4,1.3,0.8,2,1.3,2h-4.2
				c-0.4,0-0.9-0.7-1.4-2C171.3,294,170.4,286.2,169.9,274.2z"/>
			<linearGradient id="SVGID_47_" gradientUnits="userSpaceOnUse" x1="163.5249" y1="202.7627" x2="163.5249" y2="235.2377">
				<stop  offset="0" style="stop-color:#8DA0A4"/>
				<stop  offset="1" style="stop-color:#6C797B"/>
			</linearGradient>
			<path fill-rule="evenodd" clip-rule="evenodd" fill="url(#SVGID_47_)" d="M170.7,204.8c-0.5,5.8-0.8,12.4-1,19.8
				c-0.1,2.9-0.2,5.7-0.3,8.5h-13.1c0-0.7,0-1.3,0.1-1.9c0.1-4.7,0.3-8.8,0.6-12.4c0-0.1,0-0.2,0-0.3c0.3-3.1,0.5-5.8,0.9-8.1
				c0-0.2,0-0.4,0.1-0.5c0.2-1.6,0.5-2.8,0.8-3.6c0.2-0.8,0.4-1.3,0.5-1.5c0,0,0.1,0,0.2-0.1H170.7z"/>
			<linearGradient id="SVGID_48_" gradientUnits="userSpaceOnUse" x1="153.1997" y1="219.2876" x2="153.1997" y2="259.7126">
				<stop  offset="0" style="stop-color:#5B5A5A"/>
				<stop  offset="8.235294e-002" style="stop-color:#828282"/>
				<stop  offset="0.1529" style="stop-color:#FFFFFF"/>
				<stop  offset="0.1961" style="stop-color:#FFFFFF"/>
				<stop  offset="0.2588" style="stop-color:#D1D1D1"/>
				<stop  offset="0.4078" style="stop-color:#B6B6B6"/>
				<stop  offset="0.6667" style="stop-color:#544D4D"/>
				<stop  offset="1" style="stop-color:#000000"/>
			</linearGradient>
			<path fill-rule="evenodd" clip-rule="evenodd" fill="url(#SVGID_48_)" d="M156.3,254.1c0,1.1,0.1,2.2,0.2,3.4
				c0,0.9,0.1,1.8,0.1,2.7h-5.7c-0.1,0-0.2-0.2-0.4-0.6c-0.5-1.4-0.8-4.5-1-9.4c0-0.6,0-1.3-0.1-2c-0.1-1.8-0.2-3.6-0.2-5.4
				c0-2.3,0.1-4.7,0.3-7.2c0-0.3,0-0.6,0-1c0.1-2.9,0.2-5.4,0.4-7.5c0.1-1.9,0.3-3.6,0.5-4.9c0-0.2,0-0.3,0.1-0.4
				c0.1-0.9,0.3-1.6,0.4-2.2c0.2-0.4,0.4-0.7,0.5-0.8h5.8c-0.3,3.5-0.5,7.6-0.6,12.4c-0.1,0.6-0.1,1.2-0.1,1.9
				c-0.1,1.7-0.1,3.4-0.1,5.1c0,2.3-0.1,4.6-0.1,6.8C156.2,248.1,156.2,251.1,156.3,254.1z"/>
			<path fill-rule="evenodd" clip-rule="evenodd" fill="#8DA0A4" d="M169.4,238.3c-0.1,3.5-0.1,7-0.1,10.5c0,1.8,0,3.6,0,5.4h-13
				c-0.1-3-0.1-6-0.1-9c0-2.2,0-4.5,0.1-6.8H169.4z"/>
			<linearGradient id="SVGID_49_" gradientUnits="userSpaceOnUse" x1="162.8252" y1="233.0376" x2="162.8252" y2="238.2626">
				<stop  offset="0" style="stop-color:#717F81"/>
				<stop  offset="0.1373" style="stop-color:#94A5A8"/>
				<stop  offset="0.2941" style="stop-color:#8DA0A4"/>
				<stop  offset="1" style="stop-color:#8DA0A4"/>
			</linearGradient>
			<path fill-rule="evenodd" clip-rule="evenodd" fill="url(#SVGID_49_)" d="M156.4,233.1h13.1c0,1.7-0.1,3.4-0.1,5.1h-13.2
				C156.2,236.6,156.3,234.9,156.4,233.1z"/>
			<linearGradient id="SVGID_50_" gradientUnits="userSpaceOnUse" x1="163.0747" y1="256.5376" x2="163.0747" y2="264.7626">
				<stop  offset="0" style="stop-color:#8DA0A4"/>
				<stop  offset="0.102" style="stop-color:#96A7AA"/>
				<stop  offset="0.2275" style="stop-color:#4E5D60"/>
				<stop  offset="1" style="stop-color:#354346"/>
			</linearGradient>
			<path fill-rule="evenodd" clip-rule="evenodd" fill="url(#SVGID_50_)" d="M169.3,254.1c0.1,5.5,0.2,10.9,0.4,16.2
				c0,1.4,0,2.6,0.1,3.9h-11c-0.3,0-0.6-0.4-0.8-1.2c-0.7-1.9-1.1-6.2-1.4-12.8c-0.1-0.9-0.1-1.8-0.1-2.7c-0.1-1.2-0.1-2.3-0.2-3.4
				H169.3z"/>
		</g>
	</g>
</g>
</svg>
