<?xml version="1.0" encoding="utf-8"?>
<!-- Generator: Adobe Illustrator 16.0.0, SVG Export Plug-In . SVG Version: 6.00 Build 0)  -->
<!DOCTYPE svg PUBLIC "-//W3C//DTD SVG 1.1//EN" "http://www.w3.org/Graphics/SVG/1.1/DTD/svg11.dtd">
<svg version="1.1" id="Layer_1" xmlns="http://www.w3.org/2000/svg" xmlns:xlink="http://www.w3.org/1999/xlink" x="0px" y="0px"
	 width="700px" height="700px" viewBox="0 0 700 700" enable-background="new 0 0 700 700" xml:space="preserve">
<g>
	<g>
		<polygon fill-rule="evenodd" clip-rule="evenodd" fill="#1E1E1E" fill-opacity="0.7059" points="660,576.5 660,576.3 660,576.2 		
			"/>
		<g>
			<g>
				<polygon fill-rule="evenodd" clip-rule="evenodd" fill="#0F0B0B" points="537.6,612.8 676.8,612.8 681,630.6 528.6,630.6 
					537,612.8 				"/>
				<linearGradient id="SVGID_1_" gradientUnits="userSpaceOnUse" x1="525.2998" y1="586" x2="676.8496" y2="586">
					<stop  offset="0" style="stop-color:#3C3633"/>
					<stop  offset="0.4863" style="stop-color:#322D2B"/>
					<stop  offset="1" style="stop-color:#252120"/>
				</linearGradient>
				<polygon fill-rule="evenodd" clip-rule="evenodd" fill="url(#SVGID_1_)" points="676.8,612.8 537.6,612.8 525.3,559.3 
					656.3,559.3 				"/>
				<polygon fill-rule="evenodd" clip-rule="evenodd" fill="#332522" points="525.3,559.3 537.6,612.8 537,612.8 528.6,630.6 
					515.7,569.9 				"/>
			</g>
		</g>
		<g>
			
				<linearGradient id="SVGID_2_" gradientUnits="userSpaceOnUse" x1="558.9287" y1="-658.1875" x2="608.6787" y2="-658.1875" gradientTransform="matrix(2.010050e-005 1 -1 -1.440922e-003 4.015908e-004 9.411899e-005)">
				<stop  offset="0" style="stop-color:#000000"/>
				<stop  offset="1" style="stop-color:#000000;stop-opacity:0"/>
			</linearGradient>
			<polygon fill-rule="evenodd" clip-rule="evenodd" fill="url(#SVGID_2_)" points="655.3,612.2 645.5,586.6 655.7,586.6 
				670.8,612.2 			"/>
		</g>
		<g>
			<linearGradient id="SVGID_3_" gradientUnits="userSpaceOnUse" x1="645.0498" y1="472.4004" x2="656.5498" y2="472.4004">
				<stop  offset="0" style="stop-color:#595A58"/>
				<stop  offset="0.1137" style="stop-color:#888888"/>
				<stop  offset="0.1569" style="stop-color:#222222"/>
				<stop  offset="0.2235" style="stop-color:#FFFFFF"/>
				<stop  offset="0.4078" style="stop-color:#CCCCCC"/>
				<stop  offset="0.4784" style="stop-color:#000000"/>
				<stop  offset="0.6118" style="stop-color:#515151"/>
				<stop  offset="0.6667" style="stop-color:#959595"/>
				<stop  offset="1" style="stop-color:#333333"/>
			</linearGradient>
			<path fill-rule="evenodd" clip-rule="evenodd" fill="url(#SVGID_3_)" d="M655.3,585.8c-0.3,0.4-0.8,0.8-1.4,1.2
				c-1,0.6-2.2,1-3.6,1c-1.5,0-2.8-0.3-3.8-1l-1-0.9l0-2.3c1-76,1.2-151.7,0.6-227h10.2c0.5,75.9,0.2,151.7-1,227.3V585.8z"/>
		</g>
		<g>
			<linearGradient id="SVGID_4_" gradientUnits="userSpaceOnUse" x1="679.2383" y1="351.7998" x2="679.2383" y2="363.2998">
				<stop  offset="0" style="stop-color:#595A58"/>
				<stop  offset="0.1137" style="stop-color:#888888"/>
				<stop  offset="0.1569" style="stop-color:#222222"/>
				<stop  offset="0.2235" style="stop-color:#FFFFFF"/>
				<stop  offset="0.4078" style="stop-color:#CCCCCC"/>
				<stop  offset="0.4784" style="stop-color:#000000"/>
				<stop  offset="0.6118" style="stop-color:#515151"/>
				<stop  offset="0.6667" style="stop-color:#959595"/>
				<stop  offset="1" style="stop-color:#333333"/>
			</linearGradient>
			<path fill-rule="evenodd" clip-rule="evenodd" fill="url(#SVGID_4_)" d="M750.7,353.8c1.5,2.6,1.5,5.2,0,7.8H608.3l-0.6-1
				c-0.6-1-1-2.2-1-3.7c0-1.2,0.2-2.3,0.6-3.2H750.7z"/>
		</g>
		<g>
			<g>
				<linearGradient id="SVGID_5_" gradientUnits="userSpaceOnUse" x1="629.4502" y1="325.625" x2="646.9252" y2="325.625">
					<stop  offset="0" style="stop-color:#806B3B"/>
					<stop  offset="0.4118" style="stop-color:#77653A"/>
					<stop  offset="0.6706" style="stop-color:#9F8F6A"/>
					<stop  offset="1" style="stop-color:#9D8448"/>
				</linearGradient>
				<path fill-rule="evenodd" clip-rule="evenodd" fill="url(#SVGID_5_)" d="M646.9,326.5c-0.3,1.1-1.1,2-2.5,2.8
					c-1.7,1-3.8,1.4-6.2,1.4c-2.4,0-4.5-0.5-6.2-1.4c-1.4-0.8-2.2-1.7-2.5-2.8l0-0.9c0-1.4,0.8-2.6,2.5-3.6c1.6-0.9,3.5-1.3,5.8-1.4
					h0.9c2.2,0.1,4.1,0.6,5.8,1.4c1.7,1,2.5,2.2,2.5,3.6V326.5z"/>
				<path fill-rule="evenodd" clip-rule="evenodd" fill="#3A301A" d="M646.9,326.5v0.8c0,1.4-0.8,2.6-2.5,3.5
					c-1.7,1-3.8,1.5-6.2,1.5c-2.4,0-4.5-0.5-6.2-1.5c-1.7-0.9-2.5-2.1-2.5-3.5l0-0.8c0.3,1.1,1.1,2,2.5,2.8c1.7,1,3.8,1.4,6.2,1.4
					c2.4,0,4.5-0.5,6.2-1.4C645.8,328.4,646.6,327.5,646.9,326.5z"/>
			</g>
		</g>
		<g>
			<g>
				
					<linearGradient id="SVGID_6_" gradientUnits="userSpaceOnUse" x1="470.2793" y1="586.7383" x2="498.7224" y2="586.7383" gradientTransform="matrix(0.8965 -0.443 0.3594 0.9378 2.326965e-004 7.987022e-005)">
					<stop  offset="0" style="stop-color:#1E1E1E"/>
					<stop  offset="0.1843" style="stop-color:#202020"/>
					<stop  offset="0.298" style="stop-color:#262626"/>
					<stop  offset="0.4078" style="stop-color:#2C2C2C"/>
					<stop  offset="0.6" style="stop-color:#514D4D"/>
					<stop  offset="0.7294" style="stop-color:#373737"/>
					<stop  offset="0.8431" style="stop-color:#2A2A2A"/>
					<stop  offset="1" style="stop-color:#262626"/>
				</linearGradient>
				<path fill-rule="evenodd" clip-rule="evenodd" fill="url(#SVGID_6_)" d="M655.3,330.9c1,1.5,1.5,3.2,1.5,5
					c0,2.4-0.8,4.5-2.5,6.3c-0.3,1.4-1.1,2.6-2.4,3.6c-1.8,1.4-3.9,2.1-6.3,2.1l-3.1-0.4l-0.3-0.1l-0.1-0.1l-1.5-0.6l-1.7-0.4
					c-0.9-0.2-1.8-0.4-2.7-0.8l-1.5-0.7l-1.7-1.3c-1.7-1.3-2.9-2.7-3.6-4.4c-0.3-1-0.5-2.1-0.5-3.3c0-2.9,1.4-5.4,4.1-7.6
					c2.7-2.1,6-3.2,9.8-3.2s7.1,1.1,9.8,3.2L655.3,330.9z"/>
				<path fill-rule="evenodd" clip-rule="evenodd" fill="#6F6F6F" d="M629.6,339.1c-0.7-1.1-1.1-2.3-1.3-3.4
					c-0.1-0.6-0.2-1.1-0.2-1.7l0.2-1.5c0.3-2.3,1.6-4.4,3.9-6.1c2.7-2.1,6-3.2,9.8-3.2c3.8,0,7.1,1.1,9.8,3.2
					c1.7,1.4,2.8,2.8,3.5,4.4l-2.5-2.6c-2.7-2.1-6-3.2-9.8-3.2s-7.1,1.1-9.8,3.2c-2.7,2.2-4.1,4.7-4.1,7.6
					C629.1,337,629.3,338.1,629.6,339.1z"/>
			</g>
		</g>
		<g>
			<path fill-rule="evenodd" clip-rule="evenodd" d="M646.4,332.6c0.3,0.4,0.5,1,0.5,1.8v0.6c-0.2,0.7-0.7,1.3-1.4,1.9
				c-1,0.8-2.2,1.1-3.6,1.1l-1.8-0.3H640l-1-0.4l-0.7-0.5c-0.6-0.4-1-0.9-1.3-1.5c-0.2-0.4-0.3-0.8-0.3-1c0-1.1,0.5-2,1.5-2.7
				c1-0.7,2.2-1.1,3.5-1.1c1.4,0,2.6,0.4,3.6,1.1L646.4,332.6z"/>
		</g>
		<g>
			<g>
				<path fill-rule="evenodd" clip-rule="evenodd" fill="#151515" d="M652.3,385.8l-4.3-9.8h0.1h27.8l6.4,9.6H682h-29.8V385.8z
					 M658,336.5h-24v0.1v8l-4.6-10.3h27.3L658,336.5z"/>
				<polygon fill-rule="evenodd" clip-rule="evenodd" fill="#484848" points="633.9,336.6 633.9,336.5 658,336.5 660.7,336.5 
					675.7,364.4 648.1,364.4 				"/>
				<polygon fill-rule="evenodd" clip-rule="evenodd" fill="#6F6F6F" points="648,375.9 648,375.9 652.3,385.8 652.3,385.9 
					652.3,389.5 629.3,338.4 629.3,334.4 633.9,344.6 633.9,336.6 648.1,364.4 648,364.4 				"/>
				<polygon fill-rule="evenodd" clip-rule="evenodd" fill="#2F2F2F" points="648.1,364.4 675.7,364.4 675.8,375.9 648,375.9 
					648,364.4 				"/>
				<polygon fill-rule="evenodd" clip-rule="evenodd" fill="#1E1E1E" points="652.3,385.5 682,385.5 682,389.7 652.3,389.7 
					652.3,389.5 652.3,385.9 652.4,386 				"/>
			</g>
		</g>
		<g>
			<path fill-rule="evenodd" clip-rule="evenodd" d="M664.3,371.1c-0.1,0.6-0.5,1.1-1,1.5c-0.8,0.5-1.7,0.8-2.8,0.8l-1.4-0.2H659
				l-0.1,0l-0.6-0.3l-0.5-0.3c-0.5-0.4-0.8-0.8-1-1.1l-0.2-0.9c0-0.8,0.4-1.5,1.2-2c0.8-0.5,1.7-0.8,2.8-0.8s2,0.3,2.8,0.8l0.6,0.7
				c0.3,0.4,0.4,0.8,0.4,1.3V371.1z"/>
		</g>
		<g>
			<linearGradient id="SVGID_7_" gradientUnits="userSpaceOnUse" x1="659.2764" y1="375.0254" x2="665.4225" y2="371.9176">
				<stop  offset="0" style="stop-color:#15110A"/>
				<stop  offset="0.1569" style="stop-color:#9D8448"/>
				<stop  offset="0.2471" style="stop-color:#9D8448"/>
				<stop  offset="0.4196" style="stop-color:#6F5C33"/>
				<stop  offset="0.6353" style="stop-color:#E1E1E1"/>
				<stop  offset="0.7098" style="stop-color:#F7EEDD"/>
				<stop  offset="0.8078" style="stop-color:#F7EEDD"/>
				<stop  offset="1" style="stop-color:#15130F"/>
			</linearGradient>
			<path fill-rule="evenodd" clip-rule="evenodd" fill="url(#SVGID_7_)" d="M660.6,377.3l-3.5-6.9c0-0.5,0.4-0.9,1-1.3
				c0.6-0.4,1.5-0.6,2.6-0.6c1,0,1.8,0.2,2.5,0.6l0.3,0.2l4.1,8.1H660.6z"/>
		</g>
		<g>
			<g>
				<path fill-rule="evenodd" clip-rule="evenodd" fill="#6F6F6F" d="M680.5,379.3c1.2,0.9,2.2,1.9,2.9,3.1c1.2,1.7,1.8,3.6,1.8,5.7
					c0,1-0.1,2-0.3,2.9c-2.4,5.4-7.4,8.5-15,9.4c-4.2,0.5-8.3-0.6-12.3-3.3c-2-1.5-3.3-3.3-4.1-5.2c-0.4-1.2-0.6-2.5-0.6-3.8
					c0-3.4,1.6-6.4,4.8-8.8c3.1-2.5,6.9-3.7,11.4-3.7C673.6,375.7,677.4,376.9,680.5,379.3z"/>
			</g>
			<g>
				
					<linearGradient id="SVGID_8_" gradientUnits="userSpaceOnUse" x1="473.8965" y1="646.8057" x2="507.0018" y2="646.8057" gradientTransform="matrix(0.8964 -0.4433 0.3596 0.9378 4.763603e-004 5.292892e-005)">
					<stop  offset="0" style="stop-color:#1E1E1E"/>
					<stop  offset="0.1843" style="stop-color:#202020"/>
					<stop  offset="0.298" style="stop-color:#262626"/>
					<stop  offset="0.4078" style="stop-color:#2C2C2C"/>
					<stop  offset="0.6" style="stop-color:#514D4D"/>
					<stop  offset="0.7294" style="stop-color:#373737"/>
					<stop  offset="0.8431" style="stop-color:#2A2A2A"/>
					<stop  offset="1" style="stop-color:#262626"/>
				</linearGradient>
				<path fill-rule="evenodd" clip-rule="evenodd" fill="url(#SVGID_8_)" d="M681.5,381.7c1.2,0.9,2.2,1.9,2.9,3.1
					c1.2,1.7,1.9,3.6,1.9,5.7c0,1-0.1,2-0.4,2.9c-2.4,5.4-7.4,8.5-15,9.4c-4.1,0.5-8.2-0.6-12.3-3.3c-2-1.5-3.3-3.3-4.1-5.2
					c-0.4-1.2-0.7-2.5-0.7-3.8c0-3.4,1.6-6.4,4.8-8.8c3.1-2.5,7-3.7,11.5-3.7C674.5,378,678.3,379.2,681.5,381.7z"/>
			</g>
			<path fill-rule="evenodd" clip-rule="evenodd" d="M673.7,388.7c0.9,0.7,1.4,1.6,1.4,2.6c0,1-0.5,1.9-1.4,2.6
				c-0.9,0.7-2,1.1-3.2,1.1c-1.2,0-2.3-0.4-3.2-1.1c-0.9-0.7-1.3-1.6-1.3-2.6c0-1,0.4-1.9,1.3-2.6c0.9-0.7,2-1.1,3.2-1.1
				C671.7,387.6,672.8,387.9,673.7,388.7z"/>
		</g>
		<g>
			<g>
				<path fill-rule="evenodd" clip-rule="evenodd" fill="#7E3E23" d="M566.2,349.3c-3.6,0-6.8,0.4-9.5,1.4l0.3-0.3v-2.9l0.6-0.4
					l7-1.4l11.7,0.5c1.9,1.8,2.9,3,3.1,3.7l0.2,0.9c0.4,1.9,0.4,4.1,0,6.6l-1.9,3.7c-5.1-2.1-12.1-1.9-20.9,0.8v-3.9l5.5-1.4
					l4.4-0.6h0.3h0.2v0l0.1-0.3l-0.1-5.2c0-0.7-0.1-1.1-0.3-1.1H566.2z"/>
				<polygon fill-rule="evenodd" clip-rule="evenodd" fill="#505252" points="566.2,354.5 566.2,349.3 566.7,349.3 566.7,355.3 
					566.5,355.3 				"/>
				<path fill-rule="evenodd" clip-rule="evenodd" fill="#A7522E" d="M567,355.8l-0.2,0h-0.3l-4.4,0.6l-5.5,1.4l-0.2,0h-0.2v-0.1
					c2.8-1.2,6.3-2,10.3-2.2h0.1v-0.1v-6.1c0.2,0,0.3,0.4,0.3,1.1l0.1,5.2L567,355.8z M579.8,350c0.4,2.2,0.5,4.5,0.3,7v0.1l0,0.1
					c-1.1,2.6-1.8,3.9-2.1,3.9l-0.4-0.1l0,0l1.9-3.7c0.4-2.5,0.4-4.7,0-6.6l-0.2-0.9c-0.2-0.7-1.2-1.9-3.1-3.7l-11.7-0.5l-7,1.4
					l-0.6,0.4l-0.3-0.2l-0.2-0.3c8.2-2.2,14.8-2.6,19.7-1.1l1.4,1l1.7,2.1L579.8,350z"/>
				<path fill-rule="evenodd" clip-rule="evenodd" fill="#CA673E" d="M556.3,361.8v-4h0.2l0.2,0v3.9H556.3z M556.7,347.2l0.3,0.2
					v2.9l-0.3,0.3h-0.2V347h0v0.3H556.7z"/>
				<path fill-rule="evenodd" clip-rule="evenodd" fill="#6B7072" d="M566.5,355.3l0.1,0.2c-4,0.2-7.5,1-10.3,2.2l-0.4-0.4
					c2.8-1.4,6.2-2.3,10.3-2.8L566.5,355.3z"/>
				<linearGradient id="SVGID_9_" gradientUnits="userSpaceOnUse" x1="556.1504" y1="347.3818" x2="627.4502" y2="347.3818">
					<stop  offset="0" style="stop-color:#B3B0AB"/>
					<stop  offset="0.3804" style="stop-color:#BBB8B2"/>
					<stop  offset="1" style="stop-color:#8E8C8A"/>
					<stop  offset="1" style="stop-color:#B2AEAB"/>
				</linearGradient>
				<path fill-rule="evenodd" clip-rule="evenodd" fill="url(#SVGID_9_)" d="M556.2,346.5l0.3,0c8.7-2.9,15.4-3.4,20.1-1.5
					c1.6,1.5,2.7,3,3.5,4.3l4.4,0.9l22.5-2.4l20.5,0.2l-1.2,2.3l-19.6-0.7l-22,1.2l-4.9-0.8h0l-0.5-1l-1.7-2.1l-1.4-1
					c-4.9-1.5-11.5-1.1-19.7,1.1h0L556.2,346.5z"/>
				<path fill-rule="evenodd" clip-rule="evenodd" fill="#CACECE" d="M556.3,357.8v4l-0.3-0.1l-0.1-4.4l0.4,0.4V357.8z M556.5,347
					v3.7l-0.3-0.3v-3.9L556.5,347z"/>
				<path fill-rule="evenodd" clip-rule="evenodd" fill="#5C5F5F" d="M626.3,350.3l-0.1,7.5l-41.8-0.1l-4.4-0.7
					c0.2-2.4,0.1-4.8-0.3-7h0l4.9,0.8l22-1.2L626.3,350.3z M620.2,351.2h-2.4h-7.4v2.9l0.1,1.1l11.9,0.1v-1.2l-0.2-2.9H620.2z"/>
				<path fill-rule="evenodd" clip-rule="evenodd" fill="#46484A" d="M627.5,348c0.4,1.1,0.5,3.5,0.4,7.3l-1.6,2.5l0.1-7.5
					L627.5,348z"/>
				<path fill-rule="evenodd" clip-rule="evenodd" fill="#373737" d="M620.2,351.2h2.1l0.2,2.9h-2.3V351.2z M610.4,354.1v-2.9h7.4
					v2.9H610.4z"/>
				<path fill-rule="evenodd" clip-rule="evenodd" fill="#9B9242" d="M617.8,351.2h2.4v2.9c-0.9,0.7-1.7,0.7-2.4,0V351.2z"/>
				<path fill-rule="evenodd" clip-rule="evenodd" fill="#404040" d="M622.5,354.1v1.2l-11.9-0.1l-0.1-1.1h7.4
					c0.7,0.7,1.5,0.7,2.4,0H622.5z"/>
				
					<path fill-rule="evenodd" clip-rule="evenodd" fill="none" stroke="#423E3E" stroke-linecap="round" stroke-linejoin="round" stroke-miterlimit="3" d="
					M620.2,351.2h2.1l0.2,2.9v1.2l-11.9-0.1l-0.1-1.1v-2.9h7.4H620.2v2.9 M617.8,354.1v-2.9"/>
			</g>
		</g>
		<g>
			<g>
				<polygon fill-rule="evenodd" clip-rule="evenodd" fill="#1C1808" points="622.2,353.2 622.7,353.2 623.5,354.1 622.8,354.1 				
					"/>
				
					<radialGradient id="SVGID_10_" cx="622.9502" cy="353.4502" r="3.575" gradientTransform="matrix(1 0 0 0.3601 0 226.1587)" gradientUnits="userSpaceOnUse">
					<stop  offset="0" style="stop-color:#E2DABE"/>
					<stop  offset="0.7686" style="stop-color:#D8CEAB"/>
					<stop  offset="0.8941" style="stop-color:#A59249"/>
					<stop  offset="0.9725" style="stop-color:#A59249"/>
				</radialGradient>
				<path fill-rule="evenodd" clip-rule="evenodd" fill="url(#SVGID_10_)" d="M622.2,353.2l0.6,0.9h0.6l-0.8-0.9H622.2z M626,353.8
					c-0.1,0.3-0.4,0.5-0.8,0.5h-0.1c-0.1,0.1-0.2,0.2-0.3,0.2l-1,0.2H623l-2.1-0.4c-0.4,0-0.7-0.2-0.8-0.5l0-0.1
					c0-0.3,0.3-0.5,0.8-0.7h0.1l0.9-0.3l1.1,0l2.1,0.3c0.6,0.2,0.9,0.4,0.9,0.7L626,353.8L626,353.8z"/>
				<path fill-rule="evenodd" clip-rule="evenodd" fill="#A59249" d="M620,353.8c0.1,0.3,0.4,0.5,0.8,0.5l2.1,0.4h0.9l1-0.2
					c0.1,0,0.2,0,0.3-0.2h0.1c0.4,0,0.7-0.2,0.8-0.5l0,0.3c0,0.3-0.2,0.5-0.7,0.7l-0.2,0.2l-0.9,0.1l-1.2,0.1l-2.1-0.2
					c-0.6-0.3-0.8-0.5-0.8-0.9L620,353.8z"/>
			</g>
		</g>
		<g>
			<g>
				<polygon fill-rule="evenodd" clip-rule="evenodd" fill="#1C1808" points="622.2,353.2 622.7,353.2 623.5,354.1 622.8,354.1 				
					"/>
				
					<radialGradient id="SVGID_11_" cx="622.9502" cy="353.4502" r="3.575" gradientTransform="matrix(1 0 0 0.3601 0 226.1587)" gradientUnits="userSpaceOnUse">
					<stop  offset="0" style="stop-color:#E2DABE"/>
					<stop  offset="0.7686" style="stop-color:#D8CEAB"/>
					<stop  offset="0.8941" style="stop-color:#A59249"/>
					<stop  offset="0.9725" style="stop-color:#A59249"/>
				</radialGradient>
				<path fill-rule="evenodd" clip-rule="evenodd" fill="url(#SVGID_11_)" d="M622.2,353.2l0.6,0.9h0.6l-0.8-0.9H622.2z M626,353.8
					c-0.1,0.3-0.4,0.5-0.8,0.5h-0.1c-0.1,0.1-0.2,0.2-0.3,0.2l-1,0.2H623l-2.1-0.4c-0.4,0-0.7-0.2-0.8-0.5l0-0.1
					c0-0.3,0.3-0.5,0.8-0.7h0.1l0.9-0.3l1.1,0l2.1,0.3c0.6,0.2,0.9,0.4,0.9,0.7L626,353.8L626,353.8z"/>
				<path fill-rule="evenodd" clip-rule="evenodd" fill="#A59249" d="M620,353.8c0.1,0.3,0.4,0.5,0.8,0.5l2.1,0.4h0.9l1-0.2
					c0.1,0,0.2,0,0.3-0.2h0.1c0.4,0,0.7-0.2,0.8-0.5l0,0.3c0,0.3-0.2,0.5-0.7,0.7l-0.2,0.2l-0.9,0.1l-1.2,0.1l-2.1-0.2
					c-0.6-0.3-0.8-0.5-0.8-0.9L620,353.8z"/>
			</g>
		</g>
		<g>
			<g>
				<linearGradient id="SVGID_12_" gradientUnits="userSpaceOnUse" x1="563.0459" y1="325.6357" x2="534.515" y2="338.6727">
					<stop  offset="0" style="stop-color:#D0CECC;stop-opacity:0.2784"/>
					<stop  offset="0.2039" style="stop-color:#FFFFFF;stop-opacity:0.4824"/>
					<stop  offset="0.3098" style="stop-color:#FFFFFF;stop-opacity:0.7804"/>
					<stop  offset="0.5059" style="stop-color:#F0F0F0;stop-opacity:0.5216"/>
					<stop  offset="0.7961" style="stop-color:#E7E7E7;stop-opacity:0.2588"/>
					<stop  offset="1" style="stop-color:#CCCCCC"/>
				</linearGradient>
				<path fill-rule="evenodd" clip-rule="evenodd" fill="url(#SVGID_12_)" d="M567.3,316.7v34l-3.5,0.4l-1.3,0.7l-0.1-0.1
					l-26.5-40.6c0.6,0.8,2,1.6,4.1,2.4l4.8,1.3l11.5,1.6L567.3,316.7z"/>
				<linearGradient id="SVGID_13_" gradientUnits="userSpaceOnUse" x1="543.4795" y1="315.5991" x2="569.0273" y2="305.8684">
					<stop  offset="0" style="stop-color:#989191"/>
					<stop  offset="0.1569" style="stop-color:#E3E3E3;stop-opacity:0.8078"/>
					<stop  offset="0.5647" style="stop-color:#D8D8D8;stop-opacity:2.745098e-002"/>
					<stop  offset="0.8078" style="stop-color:#E7E7E7;stop-opacity:0.2588"/>
				</linearGradient>
				<path fill-rule="evenodd" clip-rule="evenodd" fill="url(#SVGID_13_)" d="M568,303.1l0.3,13.6h-1.1l-11.1-0.3l-11.5-1.6
					l-4.8-1.3c-2.1-0.8-3.5-1.6-4.1-2.4l-0.1-0.2l-0.3-1c0-1.3,1.5-2.5,4.5-3.5l9.8-2.3L568,303.1z"/>
				<linearGradient id="SVGID_14_" gradientUnits="userSpaceOnUse" x1="562.3252" y1="376.3496" x2="572.5752" y2="376.3496">
					<stop  offset="0" style="stop-color:#FFFFFF;stop-opacity:0.7804"/>
					<stop  offset="0.149" style="stop-color:#FFFFFF;stop-opacity:0.1725"/>
					<stop  offset="0.3098" style="stop-color:#FFFFFF;stop-opacity:0.2745"/>
					<stop  offset="0.4118" style="stop-color:#FFFFFF"/>
					<stop  offset="0.4784" style="stop-color:#FFFFFF;stop-opacity:0.4902"/>
					<stop  offset="0.6" style="stop-color:#FFFFFF;stop-opacity:0.3922"/>
					<stop  offset="0.6863" style="stop-color:#FFFFFF;stop-opacity:0.3647"/>
					<stop  offset="0.8314" style="stop-color:#FFFFFF;stop-opacity:7.843138e-003"/>
					<stop  offset="1" style="stop-color:#FFFFFF;stop-opacity:0.6314"/>
				</linearGradient>
				<path fill-rule="evenodd" clip-rule="evenodd" fill="url(#SVGID_14_)" d="M562.3,352c0,0.3,0.5,0.6,1.5,0.8l3.5,0.3h0.2l3.6-0.3
					c1-0.2,1.5-0.5,1.5-0.8v47.5c0,0.3-0.5,0.6-1.5,0.9l-3.6,0.3l-3.7-0.3c-1-0.3-1.5-0.6-1.5-0.9V352z M562.3,399.5l0.1-0.2
					l1.3-0.7l3.7-0.4l3.6,0.4l1.3,0.5l0.3,0.3l-0.3-0.3l-1.3-0.5l-3.6-0.4l-3.7,0.4l-1.3,0.7L562.3,399.5z"/>
				<path fill-rule="evenodd" clip-rule="evenodd" fill="#FFFFFF" fill-opacity="0.1333" d="M567.3,350.7h0.2l3.6,0.4l1.3,0.6
					l0.3,0.3v0c0,0.3-0.5,0.6-1.5,0.8l-3.6,0.3h-0.2l-3.5-0.3c-1-0.2-1.4-0.5-1.5-0.8l0.1-0.2l1.3-0.7L567.3,350.7z"/>
				<linearGradient id="SVGID_15_" gradientUnits="userSpaceOnUse" x1="573.8574" y1="309.0493" x2="603.9563" y2="318.5778">
					<stop  offset="0" style="stop-color:#D0CECC;stop-opacity:0.2784"/>
					<stop  offset="0.2784" style="stop-color:#FFFFFF;stop-opacity:0.4824"/>
					<stop  offset="0.3098" style="stop-color:#FFFFFF;stop-opacity:0.7804"/>
					<stop  offset="0.5059" style="stop-color:#F0F0F0;stop-opacity:0.5216"/>
					<stop  offset="0.7961" style="stop-color:#E7E7E7;stop-opacity:0.2588"/>
					<stop  offset="1" style="stop-color:#CCCCCC"/>
				</linearGradient>
				<path fill-rule="evenodd" clip-rule="evenodd" fill="url(#SVGID_15_)" d="M568.3,316.7l-0.3-13.6c8.6,0,16,0.7,22.2,2
					c6.3,1.3,9.4,2.9,9.4,4.8c0,0.2,0,0.5-0.1,0.8l-0.4,0.6c-1.2,1.3-4.1,2.4-8.8,3.5C584.1,316,576.8,316.7,568.3,316.7z"/>
				<linearGradient id="SVGID_16_" gradientUnits="userSpaceOnUse" x1="570.4785" y1="326.251" x2="600.2068" y2="337.3921">
					<stop  offset="0" style="stop-color:#D0CECC;stop-opacity:0.2784"/>
					<stop  offset="0.2039" style="stop-color:#FFFFFF;stop-opacity:0.4824"/>
					<stop  offset="0.3098" style="stop-color:#FFFFFF;stop-opacity:0.7804"/>
					<stop  offset="0.6627" style="stop-color:#484545;stop-opacity:0.949"/>
					<stop  offset="0.8275" style="stop-color:#3A3737;stop-opacity:0.9804"/>
					<stop  offset="1" style="stop-color:#272424"/>
				</linearGradient>
				<path fill-rule="evenodd" clip-rule="evenodd" fill="url(#SVGID_16_)" d="M572.3,351.7l-1.3-0.6l-3.6-0.4h-0.2v-34h1.1
					c8.5,0,15.8-0.7,21.9-2c4.7-1,7.7-2.2,8.8-3.5l-26.5,40L572.3,351.7z"/>
				<path fill-rule="evenodd" clip-rule="evenodd" fill="none" d="M567.3,316.7l-11.1-0.3l-11.5-1.6l-4.8-1.3
					c-2.1-0.8-3.5-1.6-4.1-2.4 M568.3,316.7h-1.1 M599,311.3c-1.2,1.3-4.1,2.4-8.8,3.5c-6.1,1.3-13.4,1.9-21.9,2"/>
				
					<path fill-rule="evenodd" clip-rule="evenodd" fill="none" stroke="#FFFFFF" stroke-linecap="round" stroke-linejoin="round" stroke-miterlimit="3" stroke-opacity="0.6314" d="
					M535.8,311.1l-0.1-0.2l-0.3-1c0-1.3,1.5-2.5,4.5-3.5l9.8-2.3l18.3-1c8.6,0,16,0.7,22.2,2c6.3,1.3,9.4,2.9,9.4,4.8
					c0,0.2,0,0.5-0.1,0.8l-0.4,0.6"/>
				
					<path fill-rule="evenodd" clip-rule="evenodd" fill="none" stroke="#FFFFFF" stroke-linecap="round" stroke-linejoin="round" stroke-miterlimit="3" stroke-opacity="0.7059" d="
					M572.6,352c0,0.3-0.5,0.6-1.5,0.8l-3.6,0.3h-0.2l-3.5-0.3c-1-0.2-1.4-0.5-1.5-0.8"/>
				
					<path fill-rule="evenodd" clip-rule="evenodd" fill="none" stroke="#FFFFFF" stroke-linecap="round" stroke-linejoin="round" stroke-miterlimit="3" d="
					M572.5,351.3l0.1,0.6v0 M572.6,399.5c0,0.3-0.5,0.6-1.5,0.9l-3.6,0.3l-3.7-0.3c-1-0.3-1.5-0.6-1.5-0.9V352v-0.3l-26.5-40.6
					 M562.3,351.7l0.1,0.1 M562.3,352l0.1-0.2 M572.3,351.7l0.2-0.3 M572.3,351.7l0.3,0.3"/>
				
					<path fill-rule="evenodd" clip-rule="evenodd" fill="none" stroke="#CCCCCC" stroke-linecap="round" stroke-linejoin="round" stroke-miterlimit="3" d="
					M562.5,351.8l1.3-0.7l3.5-0.4h0.2l3.6,0.4l1.3,0.6 M562.3,399.5l0.1-0.2l1.3-0.7l3.7-0.4l3.6,0.4l1.3,0.5l0.3,0.3"/>
				
					<path fill-rule="evenodd" clip-rule="evenodd" fill="none" stroke="#999999" stroke-linecap="round" stroke-linejoin="round" stroke-miterlimit="3" d="
					M599,311.3l-26.5,40 M572.6,352v47.5"/>
			</g>
		</g>
		<g>
			<g>
				<path fill-rule="evenodd" clip-rule="evenodd" fill="#D0D0D0" d="M576.4,351.2c-9.7,1.2-16.9,0.6-21.6-1.9l0.9-0.2l0.6,0.1
					c2.5,0.8,5,1.3,7.7,1.6l11.6-0.6l0.6-0.2h0.1l0,0C576.5,350.2,576.5,350.5,576.4,351.2z"/>
				<linearGradient id="SVGID_17_" gradientUnits="userSpaceOnUse" x1="553.75" y1="359.5" x2="585.4004" y2="359.5">
					<stop  offset="0" style="stop-color:#2C251E"/>
					<stop  offset="0.1843" style="stop-color:#5D5044"/>
					<stop  offset="0.3608" style="stop-color:#A49F97"/>
					<stop  offset="0.4902" style="stop-color:#B6B4AD"/>
					<stop  offset="0.5647" style="stop-color:#D8D6D1"/>
					<stop  offset="0.6" style="stop-color:#FFFFFF"/>
					<stop  offset="0.6941" style="stop-color:#EDE9E6"/>
					<stop  offset="0.7529" style="stop-color:#C3B6AD"/>
					<stop  offset="0.8471" style="stop-color:#C0C2C1"/>
					<stop  offset="1" style="stop-color:#3F3E3C"/>
					<stop  offset="1" style="stop-color:#B2AEAB"/>
				</linearGradient>
				<path fill-rule="evenodd" clip-rule="evenodd" fill="url(#SVGID_17_)" d="M554.8,349.4c4.7,2.4,11.9,3.1,21.6,1.9
					c0.8,0.6,1.5,1.8,2,3.6l0.2,1.1h0.1l2.7-0.7V355l1-0.3l2.9,0c-1.5,0.1-2.4,1.5-2.5,4c-0.1,2.5,0.1,4.3,0.6,5.4l-2.5-0.5
					l-3.5,0.6L575,369l-7.7,0.6c-5-0.1-9.5-1.3-13.6-3.6l0.4-5.3c3.7,1.7,7.5,2.5,11.3,2.5l0.3-5.4c-3.7-0.1-7.5-0.9-11.3-2.2
					L554.8,349.4z"/>
				<path fill-rule="evenodd" clip-rule="evenodd" fill="#A7522E" d="M576,349.3l0,0.3l-0.5,0.5l0.1,0.2l-11.6,0.6
					c-2.7-0.3-5.2-0.8-7.7-1.6l0.8-0.2c6.4,1.5,12.7,1.6,18.8,0.2H576z"/>
				
					<linearGradient id="SVGID_18_" gradientUnits="userSpaceOnUse" x1="589.6201" y1="430.7051" x2="644.1516" y2="430.7051" gradientTransform="matrix(0.9935 -0.1142 -7.937094e-002 1.0157 2.195388e-004 1.529902e-004)">
					<stop  offset="0.1255" style="stop-color:#858D94"/>
					<stop  offset="0.3961" style="stop-color:#EAEAEA"/>
					<stop  offset="0.6039" style="stop-color:#121212"/>
					<stop  offset="0.7294" style="stop-color:#A2A2A2"/>
					<stop  offset="0.9922" style="stop-color:#5F5F5F"/>
				</linearGradient>
				<polygon fill-rule="evenodd" clip-rule="evenodd" fill="url(#SVGID_18_)" points="591.3,365.3 593.4,365.5 593.4,365.6 				"/>
				
					<linearGradient id="SVGID_19_" gradientUnits="userSpaceOnUse" x1="309.4434" y1="-665.1758" x2="323.656" y2="-665.1758" gradientTransform="matrix(-0.2463 0.9692 -1.0115 -7.979352e-002 5.220771e-004 1.716465e-004)">
					<stop  offset="0.1804" style="stop-color:#899197"/>
					<stop  offset="0.3961" style="stop-color:#E1E1E1"/>
					<stop  offset="0.6039" style="stop-color:#121212"/>
					<stop  offset="0.7137" style="stop-color:#9F9F9F"/>
					<stop  offset="0.9922" style="stop-color:#5F5F5F"/>
				</linearGradient>
				<path fill-rule="evenodd" clip-rule="evenodd" fill="url(#SVGID_19_)" d="M608.1,355.6l-2.5,11.2v0l-12.1-1.2v0l-2.1-0.2
					l-7.8-1.3c-0.5-1.1-0.7-2.9-0.6-5.4c0.1-2.5,0.9-3.8,2.5-4L608.1,355.6z"/>
				<path fill-rule="evenodd" clip-rule="evenodd" fill="#93918E" d="M578.8,355.9l0.3-1.2v0l0.7-0.1l0.7-0.2v-0.2l4-0.8l42.7-1.3
					l-3.5-4.3l15.2-0.2c1.1,2.2,2.4,4.8,4.1,7.8l0.1,0.2l-0.2-0.2h-12.9l-0.8-0.1l-0.3,0.1h-20.9l-22.7-0.8l-2.9,0l-1,0.3v0.2
					L578.8,355.9z"/>
				<path fill-rule="evenodd" clip-rule="evenodd" fill="#8C4426" d="M579.1,354.7c-0.7-2.7-1.6-4.3-2.8-4.7l0,0h-0.1l-0.6,0.2
					l-0.1-0.2l0.5-0.5l0-0.3c1,0.2,1.8,0.9,2.4,2c0.6,1,1.1,2.1,1.5,3.5L579.1,354.7L579.1,354.7z"/>
				<path fill-rule="evenodd" clip-rule="evenodd" fill="#888888" d="M576.3,350c1.1,0.4,2,2,2.8,4.7l-0.3,1.2h-0.1l-0.2-1.1
					c-0.5-1.8-1.2-3-2-3.6C576.5,350.5,576.5,350.2,576.3,350z"/>
				
					<linearGradient id="SVGID_20_" gradientUnits="userSpaceOnUse" x1="362.3242" y1="-685.9707" x2="374.9643" y2="-685.9707" gradientTransform="matrix(-0.2037 0.979 -1.0214 9.243789e-005 -7.311404e-004 4.454479e-005)">
					<stop  offset="0.1255" style="stop-color:#858D94"/>
					<stop  offset="0.3961" style="stop-color:#EAEAEA"/>
					<stop  offset="0.6039" style="stop-color:#121212"/>
					<stop  offset="0.7294" style="stop-color:#A2A2A2"/>
					<stop  offset="0.9922" style="stop-color:#5F5F5F"/>
				</linearGradient>
				<path fill-rule="evenodd" clip-rule="evenodd" fill="url(#SVGID_20_)" d="M605.5,366.8l2.5-11.2H629h1.1H643l0.2,0.2l-0.1-0.2
					h0.1v0.2v11H605.5z M613.4,361.5c0.7,1,1.4,1.6,1.9,1.8l0.7,0.5h13.5l0.3-0.2h0.3l-0.2,0l1.6-1.3c1.7-1.6,1.6-3.3-0.4-5
					l-0.3-0.2h-13.4l-1,0.6c-1.9,1.2-2.8,2.3-2.9,3.3V361.5z"/>
				<path fill-rule="evenodd" clip-rule="evenodd" fill="#373737" d="M629.8,363.5c0.2-0.6-0.5-1.3-2-2.3l0-0.2l-14.4,0.4v-0.6
					c0.1-1,1-2,2.9-3.3l1-0.6h13.4l0.3,0.2c2,1.7,2.1,3.4,0.4,5L629.8,363.5z"/>
				<path fill-rule="evenodd" clip-rule="evenodd" fill="#515151" d="M629.8,363.5l0.2,0h-0.3l-0.3,0.2H616l-0.7-0.5
					c-0.6-0.3-1.2-0.9-1.9-1.8l14.4-0.4l0,0.2C629.3,362.2,630,362.9,629.8,363.5z"/>
			</g>
		</g>
		<g>
			<g>
				<linearGradient id="SVGID_21_" gradientUnits="userSpaceOnUse" x1="616.1484" y1="360.6768" x2="621.199" y2="356.9276">
					<stop  offset="0" style="stop-color:#15110A"/>
					<stop  offset="0.1569" style="stop-color:#9D8448"/>
					<stop  offset="0.2471" style="stop-color:#9D8448"/>
					<stop  offset="0.4196" style="stop-color:#6F5C33"/>
					<stop  offset="0.6353" style="stop-color:#E1E1E1"/>
					<stop  offset="0.7098" style="stop-color:#F7EEDD"/>
					<stop  offset="0.8078" style="stop-color:#F7EEDD"/>
					<stop  offset="1" style="stop-color:#15130F"/>
				</linearGradient>
				<path fill-rule="evenodd" clip-rule="evenodd" fill="url(#SVGID_21_)" d="M625.1,362.8l-0.1-0.1l0.3,0.3l-1.5-0.3l-2,0.5l-1,1.1
					l-0.6,1v0.8l-7.4-10.9l0.3-0.9l0.3-0.2l0.1-0.1c0.4-0.4,0.9-0.5,1.5-0.5l0.8-0.1l1,0.1l1.1,0.8L625.1,362.8z"/>
				<path fill-rule="evenodd" clip-rule="evenodd" fill="#A0874E" d="M625.1,362.8c0.4,0.3,0.5,0.7,0.3,1.3c0,0.1,0,0.2-0.1,0.3
					l-0.9,0.9l-1.8,0.7l-1.3,0.4l-1-0.4h-0.1v-0.8l0.6-1l1-1.1l2-0.5l1.5,0.3l-0.3-0.3L625.1,362.8z"/>
			</g>
		</g>
		<g>
			<g>
				<linearGradient id="SVGID_22_" gradientUnits="userSpaceOnUse" x1="625.1758" y1="362.1611" x2="624.9246" y2="374.6366">
					<stop  offset="0" style="stop-color:#688FA8"/>
					<stop  offset="1" style="stop-color:#35515B"/>
				</linearGradient>
				<path fill-rule="evenodd" clip-rule="evenodd" fill="url(#SVGID_22_)" d="M629.8,367.9v0.5c0,1.3-0.5,2.4-1.5,3.3
					c-0.9,1-2,1.5-3.3,1.5c-0.8,0-1.5-0.2-2.1-0.5l0,0l-0.2-0.1h-0.1l-1-0.8c-0.9-0.9-1.4-2-1.4-3.3c0-1.3,0.5-2.5,1.4-3.5
					c1-0.9,2.1-1.4,3.4-1.4c1.3,0,2.4,0.5,3.3,1.4C629.2,365.8,629.7,366.8,629.8,367.9z"/>
				<linearGradient id="SVGID_23_" gradientUnits="userSpaceOnUse" x1="617.8291" y1="368.877" x2="628.8064" y2="362.631">
					<stop  offset="0" style="stop-color:#3F5F6B"/>
					<stop  offset="0.1373" style="stop-color:#3C5A66"/>
					<stop  offset="0.2039" style="stop-color:#35515B"/>
					<stop  offset="0.2941" style="stop-color:#35515B"/>
					<stop  offset="0.3725" style="stop-color:#436375"/>
					<stop  offset="0.4941" style="stop-color:#4A6C82"/>
					<stop  offset="0.6745" style="stop-color:#9EBBC7"/>
					<stop  offset="0.7529" style="stop-color:#E7EBEC"/>
					<stop  offset="0.8667" style="stop-color:#67879A"/>
					<stop  offset="1" style="stop-color:#4A6C82"/>
					<stop  offset="1" style="stop-color:#3B3B40"/>
					<stop  offset="1" style="stop-color:#6B6B6F"/>
				</linearGradient>
				<path fill-rule="evenodd" clip-rule="evenodd" fill="url(#SVGID_23_)" d="M622.7,372.6l-2-1.1l-1.9-1.5
					c-0.9-0.9-1.4-2.1-1.4-3.8c0-1.7,0.6-3.1,1.8-4.4c1.2-1.2,2.7-1.8,4.5-1.8c1.7,0,3.2,0.6,4.5,1.8c1.2,1.3,1.8,2.8,1.8,4.6
					l-0.2,1.5c-0.1-1.1-0.6-2.1-1.5-3c-0.9-0.9-2-1.4-3.3-1.4c-1.3,0-2.5,0.5-3.4,1.4c-0.9,1-1.4,2.1-1.4,3.5c0,1.3,0.5,2.4,1.4,3.3
					L622.7,372.6z"/>
			</g>
		</g>
		<g>
			<g>
				
					<linearGradient id="SVGID_24_" gradientUnits="userSpaceOnUse" x1="372.1758" y1="-679.0498" x2="384.7965" y2="-679.0498" gradientTransform="matrix(-0.1862 0.9825 -1.0209 1.616752e-002 -6.038845e-004 -7.325038e-005)">
					<stop  offset="0.1255" style="stop-color:#858D94"/>
					<stop  offset="0.3961" style="stop-color:#EAEAEA"/>
					<stop  offset="0.6039" style="stop-color:#121212"/>
					<stop  offset="0.7294" style="stop-color:#A2A2A2"/>
					<stop  offset="0.9922" style="stop-color:#5F5F5F"/>
				</linearGradient>
				<path fill-rule="evenodd" clip-rule="evenodd" fill="url(#SVGID_24_)" d="M637,355.6v3.9h-4.4c-0.2-0.7-0.7-1.5-1.5-2.3
					l-0.3-0.2h-13.4l-1,0.6l-2.3,1.9h-4.3v-3.9H629h1.1H637z"/>
				<polygon fill-rule="evenodd" clip-rule="evenodd" fill="#93918E" points="630.1,355.6 629.3,355.5 629,355.6 609.8,355.6 
					609.8,352.8 637,352.3 637,355.6 				"/>
			</g>
		</g>
		<g>
			<linearGradient id="SVGID_25_" gradientUnits="userSpaceOnUse" x1="639.7129" y1="336.3359" x2="645.859" y2="333.2282">
				<stop  offset="0" style="stop-color:#15110A"/>
				<stop  offset="0.1569" style="stop-color:#9D8448"/>
				<stop  offset="0.2471" style="stop-color:#9D8448"/>
				<stop  offset="0.4196" style="stop-color:#6F5C33"/>
				<stop  offset="0.6353" style="stop-color:#E1E1E1"/>
				<stop  offset="0.7098" style="stop-color:#F7EEDD"/>
				<stop  offset="0.8078" style="stop-color:#F7EEDD"/>
				<stop  offset="1" style="stop-color:#15130F"/>
			</linearGradient>
			<path fill-rule="evenodd" clip-rule="evenodd" fill="url(#SVGID_25_)" d="M647.1,336.5H640l-1.5-3c1.8-1.9,3.9-2.4,6.3-1.5
				L647.1,336.5z"/>
		</g>
		<g>
			<g>
				<linearGradient id="SVGID_26_" gradientUnits="userSpaceOnUse" x1="669.3926" y1="396.0459" x2="675.5387" y2="392.9381">
					<stop  offset="0" style="stop-color:#15110A"/>
					<stop  offset="0.1569" style="stop-color:#9D8448"/>
					<stop  offset="0.2471" style="stop-color:#9D8448"/>
					<stop  offset="0.4196" style="stop-color:#6F5C33"/>
					<stop  offset="0.6353" style="stop-color:#E1E1E1"/>
					<stop  offset="0.7098" style="stop-color:#F7EEDD"/>
					<stop  offset="0.8078" style="stop-color:#F7EEDD"/>
					<stop  offset="1" style="stop-color:#15130F"/>
				</linearGradient>
				<path fill-rule="evenodd" clip-rule="evenodd" fill="url(#SVGID_26_)" d="M678.2,399.3l-0.2-0.2c-0.6-0.5-1.4-0.7-2.4-0.7
					c-1,0-1.8,0.2-2.5,0.7c-0.6,0.4-0.9,1-0.9,1.8l0.2,0.7l-5.3-10.6v-0.3c0-0.7,0.3-1.3,1-1.7c0.7-0.5,1.5-0.8,2.5-0.8
					c0.9,0,1.7,0.3,2.4,0.8l0.1,0.2L678.2,399.3z"/>
				<path fill-rule="evenodd" clip-rule="evenodd" fill="#665222" d="M672.3,401.6l-0.2-0.7c0-0.7,0.3-1.3,0.9-1.8
					c0.7-0.5,1.6-0.7,2.5-0.7c0.9,0,1.7,0.2,2.4,0.7l0.2,0.2c0.8,1.4,0.6,2.4-0.5,3.2c-0.8,0.5-1.7,0.8-2.7,0.8c-1,0-1.8-0.3-2.5-1
					L672.3,401.6z"/>
			</g>
		</g>
		<g>
			<g>
				<linearGradient id="SVGID_27_" gradientUnits="userSpaceOnUse" x1="667.5996" y1="405.5742" x2="689.2246" y2="405.5742">
					<stop  offset="0" style="stop-color:#806B3B"/>
					<stop  offset="0.4118" style="stop-color:#77653A"/>
					<stop  offset="0.6706" style="stop-color:#9F8F6A"/>
					<stop  offset="1" style="stop-color:#9D8448"/>
				</linearGradient>
				<path fill-rule="evenodd" clip-rule="evenodd" fill="url(#SVGID_27_)" d="M689.2,406.7c-0.3,1.3-1.4,2.4-3.1,3.3
					c-2.1,1.2-4.6,1.8-7.6,1.8c-2.9,0-5.5-0.6-7.6-1.8c-1.7-0.9-2.8-2-3-3.3c-0.1-0.3-0.2-0.7-0.2-1c0-1.8,1.1-3.3,3.2-4.5
					c2-1.1,4.4-1.7,7.2-1.8h1.1c2.7,0.1,5.1,0.7,7,1.8c2.1,1.2,3.2,2.7,3.2,4.5L689.2,406.7z"/>
				<path fill-rule="evenodd" clip-rule="evenodd" fill="#3A301A" d="M667.8,406.7c0.3,1.3,1.3,2.4,3,3.3c2.1,1.2,4.7,1.8,7.6,1.8
					c3,0,5.5-0.6,7.6-1.8c1.7-0.9,2.8-2,3.1-3.3l0,0.9c0,1.7-1,3.2-3.2,4.4c-2.1,1.2-4.6,1.8-7.6,1.8c-2.9,0-5.5-0.6-7.6-1.8
					c-2.1-1.2-3.2-2.7-3.2-4.4C667.6,407.3,667.7,407,667.8,406.7z"/>
			</g>
		</g>
	</g>
	<g>
		<g>
			<g>
				
					<radialGradient id="SVGID_28_" cx="622.5996" cy="353.5996" r="4.675" gradientTransform="matrix(1 0 0 0.492 0 179.6362)" gradientUnits="userSpaceOnUse">
					<stop  offset="0" style="stop-color:#4D4D4D"/>
					<stop  offset="0.6549" style="stop-color:#5E5D5C;stop-opacity:0.4784"/>
					<stop  offset="0.7961" style="stop-color:#6B6A68;stop-opacity:9.019608e-002"/>
					<stop  offset="1" style="stop-color:#6E6D6B;stop-opacity:0"/>
				</radialGradient>
				<path fill-rule="evenodd" clip-rule="evenodd" fill="url(#SVGID_28_)" d="M620.5,354.2c0.1,0.1,0.3,0.3,0.5,0.3l0.6,0.2l0.4,0h1
					l0.8-0.2c0.3-0.1,0.5-0.3,0.6-0.4v0.9c-0.1,0.1-0.3,0.2-0.6,0.4l-0.3,0h-0.1l-0.7,0.2l-1.8-0.2c-0.3-0.1-0.5-0.3-0.5-0.4V354.2z
					"/>
			</g>
			<g>
				<g>
					<path fill-rule="evenodd" clip-rule="evenodd" fill="#7D7777" d="M620.5,353.2c0-0.2,0.2-0.3,0.6-0.5l1-0.2l1.4,0.1l0.4,0.1
						c0.4,0.1,0.6,0.3,0.6,0.5v0.1c-0.1,0.1-0.3,0.2-0.6,0.3l-0.8,0.2h-1l-0.4,0l-0.6-0.2c-0.3-0.1-0.5-0.2-0.5-0.3V353.2z"/>
				</g>
				<g>
					<g>
						<path fill-rule="evenodd" clip-rule="evenodd" d="M621.5,352.7l2.4,0.6c-0.1,0.2-0.3,0.2-0.7,0.2l-2.3-0.6
							c0.1-0.1,0.2-0.1,0.4-0.2L621.5,352.7z"/>
						<path fill-rule="evenodd" clip-rule="evenodd" fill="#7D7777" d="M620.9,353h-0.3c0.1-0.1,0.3-0.2,0.4-0.3l0.2,0l0.3,0l-0.3,0
							C621.1,352.8,621,352.9,620.9,353z"/>
					</g>
				</g>
				<g>
					<linearGradient id="SVGID_29_" gradientUnits="userSpaceOnUse" x1="620.5127" y1="354.0254" x2="624.3877" y2="354.0254">
						<stop  offset="0" style="stop-color:#4D4D4D"/>
						<stop  offset="0.1137" style="stop-color:#6E6D6B"/>
						<stop  offset="0.3765" style="stop-color:#6E6D6B"/>
						<stop  offset="0.5216" style="stop-color:#BCBBBA"/>
						<stop  offset="0.6627" style="stop-color:#BCBBBA"/>
						<stop  offset="0.7686" style="stop-color:#6E6D6B"/>
						<stop  offset="1" style="stop-color:#484847"/>
					</linearGradient>
					<path fill-rule="evenodd" clip-rule="evenodd" fill="url(#SVGID_29_)" d="M620.5,354.2v-0.9c0.1,0.1,0.3,0.2,0.5,0.3l0.6,0.2
						l0.4,0h1l0.8-0.2c0.3-0.1,0.5-0.2,0.6-0.3v0.9c-0.1,0.1-0.3,0.3-0.6,0.3l-1,0.2H622l-0.4,0l-0.6-0.2
						C620.8,354.5,620.6,354.3,620.5,354.2z"/>
				</g>
			</g>
			<g>
				
					<radialGradient id="SVGID_30_" cx="622.4502" cy="353.8496" r="1.825" gradientTransform="matrix(1 0 0 0.2329 0 271.4463)" gradientUnits="userSpaceOnUse">
					<stop  offset="0" style="stop-color:#FFFFFF"/>
					<stop  offset="0.1765" style="stop-color:#FFFFFF"/>
					<stop  offset="0.3059" style="stop-color:#FFFFFF;stop-opacity:0.4235"/>
					<stop  offset="0.4902" style="stop-color:#FFFFFF;stop-opacity:0.2314"/>
					<stop  offset="0.651" style="stop-color:#FFFFFF;stop-opacity:8.235294e-002"/>
					<stop  offset="1" style="stop-color:#FFFFFF;stop-opacity:0"/>
				</radialGradient>
				<path fill-rule="evenodd" clip-rule="evenodd" fill="url(#SVGID_30_)" d="M624.3,353.8c0,0.1-0.2,0.2-0.5,0.3
					c-0.3,0.1-0.8,0.2-1.3,0.2s-0.9-0.1-1.3-0.2c-0.3-0.1-0.5-0.1-0.5-0.3c0-0.1,0.2-0.2,0.5-0.3c0.3-0.1,0.8-0.1,1.3-0.1
					s0.9,0,1.3,0.1C624.1,353.6,624.3,353.7,624.3,353.8z"/>
			</g>
		</g>
		<g>
			<g>
				
					<radialGradient id="SVGID_31_" cx="618.9004" cy="348.6499" r="4.675" gradientTransform="matrix(1 0 0 0.492 0 177.1216)" gradientUnits="userSpaceOnUse">
					<stop  offset="0" style="stop-color:#4D4D4D"/>
					<stop  offset="0.6549" style="stop-color:#5E5D5C;stop-opacity:0.4784"/>
					<stop  offset="0.7961" style="stop-color:#6B6A68;stop-opacity:9.019608e-002"/>
					<stop  offset="1" style="stop-color:#6E6D6B;stop-opacity:0"/>
				</radialGradient>
				<path fill-rule="evenodd" clip-rule="evenodd" fill="url(#SVGID_31_)" d="M619.9,350.6h-0.1l-0.7,0.1l-1.4-0.1l-0.4-0.1
					c-0.3-0.1-0.4-0.2-0.5-0.3v-1c0.1,0.1,0.3,0.2,0.5,0.3l0.6,0.2l0.4,0h1l0.8-0.1c0.3-0.1,0.4-0.2,0.5-0.4v1
					c-0.1,0.1-0.3,0.2-0.5,0.3L619.9,350.6z"/>
			</g>
			<g>
				<g>
					<path fill-rule="evenodd" clip-rule="evenodd" fill="#7D7777" d="M620.7,348.4c-0.1,0.1-0.3,0.3-0.5,0.4l-0.8,0.1h-1l-1-0.1
						c-0.3-0.1-0.4-0.2-0.5-0.4v-0.1c0-0.2,0.2-0.3,0.6-0.4l0.3-0.1l0.7-0.1l1.3,0l0.4,0.1c0.4,0.1,0.5,0.3,0.5,0.5V348.4z"/>
				</g>
				<g>
					<g>
						<path fill-rule="evenodd" clip-rule="evenodd" d="M617.2,348c0.1-0.1,0.2-0.2,0.4-0.2l0.3-0.1l2.4,0.6
							c-0.1,0.2-0.3,0.3-0.6,0.2L617.2,348z"/>
						<path fill-rule="evenodd" clip-rule="evenodd" fill="#7D7777" d="M617.8,347.8l-0.3,0.1c-0.2,0-0.3,0.1-0.4,0.2l-0.3,0
							c0.1-0.1,0.3-0.1,0.5-0.2l0.2-0.1L617.8,347.8z"/>
					</g>
				</g>
				<g>
					<linearGradient id="SVGID_32_" gradientUnits="userSpaceOnUse" x1="616.8125" y1="349.0752" x2="620.6875" y2="349.0752">
						<stop  offset="0" style="stop-color:#4D4D4D"/>
						<stop  offset="0.1137" style="stop-color:#6E6D6B"/>
						<stop  offset="0.3765" style="stop-color:#6E6D6B"/>
						<stop  offset="0.5216" style="stop-color:#BCBBBA"/>
						<stop  offset="0.6627" style="stop-color:#BCBBBA"/>
						<stop  offset="0.7686" style="stop-color:#6E6D6B"/>
						<stop  offset="1" style="stop-color:#484847"/>
					</linearGradient>
					<path fill-rule="evenodd" clip-rule="evenodd" fill="url(#SVGID_32_)" d="M620.7,348.4v0.9c-0.1,0.2-0.3,0.3-0.5,0.4l-1.1,0.2
						h-0.8l-0.4,0l-0.6-0.1c-0.3-0.1-0.4-0.2-0.5-0.4v-0.9c0.1,0.1,0.3,0.3,0.5,0.4l1,0.1h1l0.8-0.1
						C620.4,348.6,620.6,348.5,620.7,348.4z"/>
				</g>
			</g>
			<g>
				
					<radialGradient id="SVGID_33_" cx="618.75" cy="348.8999" r="1.825" gradientTransform="matrix(1 0 0 0.2329 0 267.6492)" gradientUnits="userSpaceOnUse">
					<stop  offset="0" style="stop-color:#FFFFFF"/>
					<stop  offset="0.1765" style="stop-color:#FFFFFF"/>
					<stop  offset="0.3059" style="stop-color:#FFFFFF;stop-opacity:0.4235"/>
					<stop  offset="0.4902" style="stop-color:#FFFFFF;stop-opacity:0.2314"/>
					<stop  offset="0.651" style="stop-color:#FFFFFF;stop-opacity:8.235294e-002"/>
					<stop  offset="1" style="stop-color:#FFFFFF;stop-opacity:0"/>
				</radialGradient>
				<path fill-rule="evenodd" clip-rule="evenodd" fill="url(#SVGID_33_)" d="M620,348.6c0.3,0.1,0.5,0.2,0.5,0.3s-0.2,0.2-0.5,0.3
					c-0.4,0.1-0.8,0.1-1.3,0.1s-0.9-0.1-1.3-0.1c-0.3-0.1-0.5-0.2-0.5-0.3s0.2-0.2,0.5-0.3c0.3-0.1,0.8-0.1,1.3-0.1
					S619.7,348.5,620,348.6z"/>
			</g>
		</g>
	</g>
	<g>
		<g>
			<path fill-rule="evenodd" clip-rule="evenodd" d="M654.3,347.7c0.9,0.4,1.4,0.9,1.6,1.4v0.9c-0.2,0.5-0.7,0.9-1.6,1.3
				c-1.1,0.6-2.4,0.9-4,0.9c-1.6,0-3-0.3-4.1-0.9c-0.8-0.3-1.3-0.7-1.6-1.1V349l1.6-1.3c1.1-0.5,2.5-0.8,4.1-0.8
				C651.9,347,653.2,347.2,654.3,347.7z"/>
			<g>
				<g>
					<path fill-rule="evenodd" clip-rule="evenodd" fill="#93918E" d="M645.2,268v-1c0.2-0.5,0.7-0.9,1.4-1.3c1-0.4,2.2-0.6,3.7-0.6
						c1.5,0,2.7,0.2,3.6,0.6l1.4,1.3v0.9c-0.2,0.4-0.7,0.8-1.4,1.1c-1,0.5-2.2,0.8-3.6,0.8c-1.4,0-2.7-0.3-3.7-0.8
						C645.8,268.8,645.3,268.5,645.2,268z"/>
					<linearGradient id="SVGID_34_" gradientUnits="userSpaceOnUse" x1="645.0498" y1="309.8501" x2="656.5498" y2="309.8501">
						<stop  offset="0" style="stop-color:#595A58"/>
						<stop  offset="0.1137" style="stop-color:#888888"/>
						<stop  offset="0.1569" style="stop-color:#222222"/>
						<stop  offset="0.2235" style="stop-color:#FFFFFF"/>
						<stop  offset="0.4078" style="stop-color:#CCCCCC"/>
						<stop  offset="0.4784" style="stop-color:#000000"/>
						<stop  offset="0.6118" style="stop-color:#515151"/>
						<stop  offset="0.6667" style="stop-color:#959595"/>
						<stop  offset="1" style="stop-color:#333333"/>
					</linearGradient>
					<path fill-rule="evenodd" clip-rule="evenodd" fill="url(#SVGID_34_)" d="M655.3,268v81.9c-0.2,0.4-0.7,0.8-1.4,1.1
						c-1,0.5-2.2,0.7-3.6,0.7c-1.4,0-2.7-0.2-3.7-0.7c-0.7-0.3-1.2-0.7-1.4-1V268c0.2,0.4,0.7,0.8,1.4,1.1c1,0.5,2.2,0.8,3.7,0.8
						c1.5,0,2.7-0.3,3.6-0.8C654.6,268.8,655,268.4,655.3,268z"/>
				</g>
			</g>
			<g>
				<g>
					<path fill-rule="evenodd" clip-rule="evenodd" fill="#CA999F" d="M576.2,380.5c-0.3,0.5-1.1,0.9-2.4,1.2l-1.1,0.3l-6,0.4l0.3,0
						l-5-0.7c-2-0.5-3-1.1-3-1.7V380c0-0.7,0.6-1.3,2-1.7l1.3-0.2l-0.3,1.5c1.8,0.9,4.1,1.2,7,0.9c2.8-0.3,4-0.8,3.6-1.4v-0.9
						l2.6,0.5c0.6,0.3,1,0.6,1,0.9l-0.1,0.4V380.5z"/>
					<path fill-rule="evenodd" clip-rule="evenodd" fill="#C1888F" d="M576.2,380.5v21.3c0,1.2-0.2,2.4-0.7,3.5
						c-0.3,0.8-0.8,1.5-1.4,2.2l-0.4,0.5c-1.7,1.7-3.8,2.5-6.2,2.5c-2.3,0-4.3-0.8-6-2.5l-0.4-0.5c-0.6-0.7-1.1-1.4-1.4-2.2
						c-0.5-1.1-0.7-2.2-0.7-3.5V380c0,0.6,1,1.2,3,1.7l5,0.7l-0.3,0l6-0.4l1.1-0.3C575,381.4,575.8,381,576.2,380.5z"/>
				</g>
			</g>
			<g>
				
					<radialGradient id="SVGID_35_" cx="567.4004" cy="386.5" r="18.1125" gradientTransform="matrix(1 0 0 1.3299 0 -127.4996)" gradientUnits="userSpaceOnUse">
					<stop  offset="0" style="stop-color:#000000;stop-opacity:0"/>
					<stop  offset="0.5686" style="stop-color:#000000;stop-opacity:0"/>
					<stop  offset="1" style="stop-color:#000000;stop-opacity:0.1765"/>
				</radialGradient>
				<path fill-rule="evenodd" clip-rule="evenodd" fill="url(#SVGID_35_)" d="M559,380c0,0.6,1,1.2,3,1.7l5,0.7l-0.3,0l6-0.4
					l1.1-0.3c1.2-0.3,2-0.7,2.4-1.2v21.3c0,1.2-0.2,2.4-0.7,3.5c-0.3,0.8-0.8,1.5-1.4,2.2l-0.4,0.5c-1.7,1.7-3.8,2.5-6.2,2.5
					c-2.3,0-4.3-0.8-6-2.5l-0.4-0.5c-0.6-0.7-1.1-1.4-1.4-2.2c-0.5-1.1-0.7-2.2-0.7-3.5V380z"/>
			</g>
			<g>
				<line fill-rule="evenodd" clip-rule="evenodd" fill="none" x1="567.1" y1="386.5" x2="567.1" y2="401.4"/>
			</g>
			<g>
				<g>
					<path fill-rule="evenodd" clip-rule="evenodd" fill="none" d="M653.1,383.4c-0.1-0.8,0-1.6,0.3-2.3 M682.4,381.1
						c0.1,0.4,0.2,0.9,0.2,1.4"/>
					
						<line fill-rule="evenodd" clip-rule="evenodd" fill="none" stroke="#FFFFFF" stroke-linecap="round" stroke-linejoin="round" stroke-miterlimit="3" stroke-opacity="0.251" x1="537.3" y1="612.5" x2="525.3" y2="559.5"/>
					
						<line fill-rule="evenodd" clip-rule="evenodd" fill="none" stroke="#FFFFFF" stroke-linecap="round" stroke-linejoin="round" stroke-miterlimit="3" stroke-opacity="0.1373" x1="537.3" y1="612.5" x2="677" y2="612.5"/>
				</g>
			</g>
			<g>
				<line fill-rule="evenodd" clip-rule="evenodd" fill="none" x1="648.1" y1="364.6" x2="674.5" y2="364.6"/>
			</g>
			<g>
				<line fill-rule="evenodd" clip-rule="evenodd" fill="none" x1="634.2" y1="336.6" x2="647.8" y2="364"/>
			</g>
			<g>
				<line fill-rule="evenodd" clip-rule="evenodd" fill="none" x1="647.8" y1="364.3" x2="647.8" y2="375"/>
			</g>
		</g>
		<g>
			
				<radialGradient id="SVGID_36_" cx="624.8496" cy="363.6504" r="2.688" gradientTransform="matrix(0.9998 -1.891440e-002 9.149401e-003 0.4836 -3.2154 199.5931)" gradientUnits="userSpaceOnUse">
				<stop  offset="0" style="stop-color:#FFFFFF"/>
				<stop  offset="0.1922" style="stop-color:#FFFFFF"/>
				<stop  offset="0.2824" style="stop-color:#FFFFFF;stop-opacity:0.7373"/>
				<stop  offset="0.4157" style="stop-color:#FFFFFF;stop-opacity:0.6"/>
				<stop  offset="0.5882" style="stop-color:#FEFEFE;stop-opacity:0.349"/>
				<stop  offset="0.8157" style="stop-color:#FCFCFC;stop-opacity:9.019608e-002"/>
				<stop  offset="1" style="stop-color:#F9F9F9;stop-opacity:0"/>
			</radialGradient>
			<path fill-rule="evenodd" clip-rule="evenodd" fill="url(#SVGID_36_)" d="M623,364.6c-0.5-0.3-0.8-0.6-0.8-0.9
				c0-0.4,0.3-0.7,0.8-0.9c0.5-0.3,1.1-0.4,1.8-0.5c0.7,0,1.3,0.1,1.9,0.4c0.5,0.2,0.8,0.5,0.8,0.9c0,0.4-0.3,0.7-0.8,0.9
				c-0.5,0.3-1.1,0.4-1.9,0.4L623,364.6z"/>
		</g>
		<g>
			
				<radialGradient id="SVGID_37_" cx="643.7822" cy="-398.0166" r="0.8434" gradientTransform="matrix(0.2075 0.9782 -1.082 0.1927 -38.5863 6.8718)" gradientUnits="userSpaceOnUse">
				<stop  offset="0" style="stop-color:#FFFFFF"/>
				<stop  offset="0.1922" style="stop-color:#FFFFFF"/>
				<stop  offset="0.2824" style="stop-color:#FFFFFF;stop-opacity:0.7373"/>
				<stop  offset="0.4157" style="stop-color:#FFFFFF;stop-opacity:0.6"/>
				<stop  offset="0.5882" style="stop-color:#FEFEFE;stop-opacity:0.349"/>
				<stop  offset="0.8157" style="stop-color:#FCFCFC;stop-opacity:9.019608e-002"/>
				<stop  offset="1" style="stop-color:#F9F9F9;stop-opacity:0"/>
			</radialGradient>
			<path fill-rule="evenodd" clip-rule="evenodd" fill="url(#SVGID_37_)" d="M524.9,559.5c0.1-0.2,0.3-0.3,0.5-0.3
				c0.3,0,0.5,0,0.7,0.1c0.2,0.1,0.3,0.3,0.4,0.5c0,0.2,0,0.4-0.1,0.6c-0.2,0.2-0.4,0.3-0.6,0.3c-0.3,0-0.5,0-0.7-0.1
				c-0.2-0.1-0.3-0.3-0.3-0.6L524.9,559.5z"/>
		</g>
		<g>
			
				<radialGradient id="SVGID_38_" cx="649.9502" cy="269.3999" r="5.3887" gradientTransform="matrix(0.9998 -2.017691e-002 7.209178e-003 0.3572 -1.8099 186.2773)" gradientUnits="userSpaceOnUse">
				<stop  offset="0" style="stop-color:#FFFFFF"/>
				<stop  offset="0.1922" style="stop-color:#FFFFFF"/>
				<stop  offset="0.2824" style="stop-color:#FFFFFF;stop-opacity:0.7373"/>
				<stop  offset="0.4157" style="stop-color:#FFFFFF;stop-opacity:0.6"/>
				<stop  offset="0.5882" style="stop-color:#FEFEFE;stop-opacity:0.349"/>
				<stop  offset="0.8157" style="stop-color:#FCFCFC;stop-opacity:9.019608e-002"/>
				<stop  offset="1" style="stop-color:#F9F9F9;stop-opacity:0"/>
			</radialGradient>
			<path fill-rule="evenodd" clip-rule="evenodd" fill="url(#SVGID_38_)" d="M653.6,268c1.1,0.4,1.6,0.8,1.6,1.3
				c0,0.5-0.5,1-1.5,1.4c-1,0.3-2.3,0.5-3.8,0.5l-3.7-0.4c-1.1-0.4-1.6-0.8-1.6-1.3c0-0.5,0.5-1,1.5-1.4s2.3-0.6,3.7-0.6
				C651.3,267.5,652.6,267.6,653.6,268z"/>
		</g>
		<g>
			
				<radialGradient id="SVGID_39_" cx="561.4277" cy="382.5996" r="6.0375" gradientTransform="matrix(1 0 4.140787e-003 0.2526 4.6876 285.9595)" gradientUnits="userSpaceOnUse">
				<stop  offset="0" style="stop-color:#FFFFFF"/>
				<stop  offset="0.1922" style="stop-color:#FFFFFF"/>
				<stop  offset="0.2824" style="stop-color:#FFFFFF;stop-opacity:0.7373"/>
				<stop  offset="0.4157" style="stop-color:#FFFFFF;stop-opacity:0.6"/>
				<stop  offset="0.5882" style="stop-color:#FEFEFE;stop-opacity:0.349"/>
				<stop  offset="0.8157" style="stop-color:#FCFCFC;stop-opacity:9.019608e-002"/>
				<stop  offset="1" style="stop-color:#F9F9F9;stop-opacity:0"/>
			</radialGradient>
			<path fill-rule="evenodd" clip-rule="evenodd" fill="url(#SVGID_39_)" d="M563.5,381.5c1.1-0.3,2.5-0.4,4.2-0.4
				c1.6,0,3,0.1,4.1,0.4c1.2,0.3,1.8,0.7,1.8,1c0,0.4-0.6,0.8-1.7,1.1c-1.1,0.3-2.5,0.4-4.2,0.4l-4.2-0.4c-1.2-0.3-1.8-0.7-1.8-1.1
				C561.8,382.2,562.4,381.8,563.5,381.5z"/>
		</g>
	</g>
</g>
</svg>
