<?xml version="1.0" encoding="utf-8"?>
<!-- Generator: Adobe Illustrator 16.0.0, SVG Export Plug-In . SVG Version: 6.00 Build 0)  -->
<!DOCTYPE svg PUBLIC "-//W3C//DTD SVG 1.1//EN" "http://www.w3.org/Graphics/SVG/1.1/DTD/svg11.dtd">
<svg version="1.1" id="Layer_1" xmlns="http://www.w3.org/2000/svg" xmlns:xlink="http://www.w3.org/1999/xlink" x="0px" y="0px"
	 width="700px" height="700px" viewBox="0 0 700 700" enable-background="new 0 0 700 700" xml:space="preserve">
<g>
	<g>
		
			<linearGradient id="SVGID_1_" gradientUnits="userSpaceOnUse" x1="-147.8076" y1="92.3252" x2="388.3392" y2="92.3252" gradientTransform="matrix(0.9242 0.6698 -0.3296 1.1708 455.7997 271.4996)">
			<stop  offset="0" style="stop-color:#C3C4BE"/>
			<stop  offset="0.6941" style="stop-color:#A8A9A1"/>
			<stop  offset="1" style="stop-color:#919287"/>
		</linearGradient>
		<rect x="-25.2" y="-82.8" fill-rule="evenodd" clip-rule="evenodd" fill="url(#SVGID_1_)" width="769.8" height="829.6"/>
	</g>
	<g>
		<g>
			<polygon fill-rule="evenodd" clip-rule="evenodd" fill="#423E3D" points="742.1,316.6 742.1,758.7 -35,758.7 -35,316.2 
				741.8,316.2 			"/>
		</g>
		<g>
			<rect x="-36.1" y="312.6" fill-rule="evenodd" clip-rule="evenodd" width="778.2" height="10"/>
		</g>
		<g>
			<g>
				<polygon fill-rule="evenodd" clip-rule="evenodd" fill="#5C5A4E" points="498.9,-90 498.9,302.5 498.5,302.5 493.5,297.1 
					493.5,-90 				"/>
				<polygon fill-rule="evenodd" clip-rule="evenodd" fill="#3D3B2F" points="530,297.1 530,302.5 498.9,302.5 498.9,-90 530,-90 
									"/>
				<path fill-rule="evenodd" clip-rule="evenodd" fill="#24231F" d="M742.1,319H67.9v-16.4h430.5h0.5h31h212.1V319z M-36.1,319
					v-16.4H37H46V319H37H-36.1z"/>
				<rect x="530" y="297.1" fill-rule="evenodd" clip-rule="evenodd" fill="#78766A" width="212.1" height="5.5"/>
				<path fill-rule="evenodd" clip-rule="evenodd" fill="#757462" d="M75.3,297.1h418.2l5,5.5H67.9L75.3,297.1z M-36.1,302.5v-5.5
					H37H46v5.5H37H-36.1z"/>
				<polygon fill-rule="evenodd" clip-rule="evenodd" fill="#312F30" points="75.3,297.1 67.9,302.5 67.9,-90 75.3,-90 				"/>
				<polygon fill-rule="evenodd" clip-rule="evenodd" fill="#1F1E1A" points="67.9,302.5 67.9,319 46,319 46,302.5 46,297.1 46,-90 
					67.9,-90 				"/>
				
					<path fill-rule="evenodd" clip-rule="evenodd" fill="none" stroke="#000000" stroke-linecap="round" stroke-linejoin="round" stroke-miterlimit="3" d="
					M498.5,302.5h0.5 M46-90v387.1v5.5 M46,319h21.9h674.2 M-36.1,319H37H46 M-36.1,302.5H37H46"/>
				
					<path fill-rule="evenodd" clip-rule="evenodd" fill="none" stroke="#959480" stroke-linecap="round" stroke-linejoin="round" stroke-miterlimit="3" d="
					M742.1,302.5H530 M67.9,302.5h430.5"/>
				
					<line fill-rule="evenodd" clip-rule="evenodd" fill="none" stroke="#807C6C" stroke-linecap="round" stroke-linejoin="round" stroke-miterlimit="3" x1="498.9" y1="302.5" x2="498.9" y2="-90"/>
				
					<line fill-rule="evenodd" clip-rule="evenodd" fill="none" stroke="#504E43" stroke-linecap="round" stroke-linejoin="round" stroke-miterlimit="3" x1="67.9" y1="-90" x2="67.9" y2="302.5"/>
			</g>
		</g>
	</g>
</g>
</svg>
