<?xml version="1.0" encoding="utf-8"?>
<!-- Generator: Adobe Illustrator 16.0.0, SVG Export Plug-In . SVG Version: 6.00 Build 0)  -->
<!DOCTYPE svg PUBLIC "-//W3C//DTD SVG 1.1//EN" "http://www.w3.org/Graphics/SVG/1.1/DTD/svg11.dtd">
<svg version="1.1" xmlns="http://www.w3.org/2000/svg" xmlns:xlink="http://www.w3.org/1999/xlink" x="0px" y="0px" width="700px"
	 height="700px" viewBox="0 0 700 700" enable-background="new 0 0 700 700" xml:space="preserve">
<g id="Layer_1">
	<g id="Layer_2">
		<polygon fill="#B6BAC3" points="655.7,507.3 655.7,507.4 187.5,507.4 186.9,507.4 186.9,497.2 186.9,300.8 655.7,300.8 655.7,506 
					"/>
	</g>
	<g id="Layer_1_1_">
		<g>
			<g>
				<polygon fill="#070707" fill-opacity="0.349" points="672.5,476 690.9,521.8 263.7,521.8 187.8,520.5 197.1,476 				"/>
			</g>
			<g>
				<g>
					<polygon fill="#6683C7" points="667.7,296.1 658.5,296.1 647.4,296.1 176.2,296.1 174.9,296.1 174.3,296.1 174.3,296 
						174.5,295.8 174.7,295.5 175,295.2 197.7,258.5 527.9,258.5 550.3,258.5 551.3,258.5 595.3,258.5 626.3,258.5 635.4,266.9 
						635.7,266.9 658.5,287.7 658.5,287.8 					"/>
					
						<linearGradient id="SVGID_1_" gradientUnits="userSpaceOnUse" x1="-104.7505" y1="-19.0732" x2="-104.7488" y2="-9.3727" gradientTransform="matrix(1.0452 0 0 1.0452 530.6345 314.9807)">
						<stop  offset="0" style="stop-color:#98ACE7"/>
						<stop  offset="0.4235" style="stop-color:#7898ED"/>
						<stop  offset="0.698" style="stop-color:#525F90"/>
						<stop  offset="1" style="stop-color:#44609F"/>
					</linearGradient>
					<polygon fill="url(#SVGID_1_)" points="655.3,305.5 186.9,305.5 174.3,296.1 174.3,296.1 174.9,296.1 176.2,296.1 647.4,296.1 
						658.5,296.1 667.7,296.1 668,296.1 668,296.5 668,296.7 					"/>
					
						<linearGradient id="SVGID_2_" gradientUnits="userSpaceOnUse" x1="119.2896" y1="87.8008" x2="131.3902" y2="87.8008" gradientTransform="matrix(1.0452 0 0 1.0452 530.6345 314.9807)">
						<stop  offset="0" style="stop-color:#98ACE7"/>
						<stop  offset="0.4235" style="stop-color:#7898ED"/>
						<stop  offset="0.698" style="stop-color:#525F90"/>
						<stop  offset="1" style="stop-color:#44609F"/>
					</linearGradient>
					<polygon fill="url(#SVGID_2_)" points="655.3,305.5 668,296.7 668,339.1 668,516.8 655.7,507.3 655.7,506.3 655.7,339.1 
						655.7,315.8 655.7,305.5 					"/>
					
						<linearGradient id="SVGID_3_" gradientUnits="userSpaceOnUse" x1="-104.606" y1="-12.6738" x2="-104.606" y2="18.3253" gradientTransform="matrix(1.0452 0 0 1.0452 530.6345 314.9807)">
						<stop  offset="0" style="stop-color:#706A6A"/>
						<stop  offset="0.3137" style="stop-color:#7E7A7C"/>
						<stop  offset="0.5216" style="stop-color:#B6BAC3"/>
						<stop  offset="1" style="stop-color:#B6BAC3"/>
					</linearGradient>
					<polygon fill="url(#SVGID_3_)" points="186.9,305.5 655.3,305.5 655.7,305.5 655.7,315.8 655.7,339.1 186.9,339.1 186.9,315.8 
						186.9,307.4 					"/>
					
						<linearGradient id="SVGID_4_" gradientUnits="userSpaceOnUse" x1="-340.9248" y1="87.8965" x2="-328.2749" y2="87.8965" gradientTransform="matrix(1.0452 0 0 1.0452 530.6345 314.9807)">
						<stop  offset="0" style="stop-color:#98ACE7"/>
						<stop  offset="0.4235" style="stop-color:#7898ED"/>
						<stop  offset="0.698" style="stop-color:#525F90"/>
						<stop  offset="1" style="stop-color:#44609F"/>
					</linearGradient>
					<polygon fill="url(#SVGID_4_)" points="187.5,507.4 174.3,517.6 174.3,509.5 174.3,502 174.3,339.1 174.3,296.1 186.9,305.5 
						186.9,307.4 186.9,315.8 186.9,339.1 186.9,499.1 186.9,507.4 					"/>
					<polygon fill="#B6BAC3" points="655.7,507.3 655.7,507.4 187.5,507.4 186.9,507.4 186.9,499.1 186.9,339.1 655.7,339.1 
						655.7,506.3 					"/>
					
						<linearGradient id="SVGID_5_" gradientUnits="userSpaceOnUse" x1="-104.7524" y1="183.2515" x2="-104.7495" y2="193.3019" gradientTransform="matrix(1.0452 0 0 1.0452 530.6345 314.9807)">
						<stop  offset="0" style="stop-color:#98ACE7"/>
						<stop  offset="0.4235" style="stop-color:#7898ED"/>
						<stop  offset="0.698" style="stop-color:#525F90"/>
						<stop  offset="1" style="stop-color:#44609F"/>
					</linearGradient>
					<polygon fill="url(#SVGID_5_)" points="187.5,507.4 655.7,507.4 655.7,507.3 668,516.8 668,517.8 174.3,517.8 174.3,517.6 
											"/>
				</g>
			</g>
			<g>
				<g>
					<path fill-opacity="0.6235" d="M581.9,425.6c4.5,0,6.8,2.3,6.8,6.8v24.9c0,4.5-2.3,6.8-6.8,6.8H560c-4.5,0-6.8-2.3-6.8-6.8
						v-24.9c0-4.5,2.3-6.8,6.8-6.8H581.9z"/>
				</g>
				<g>
					<g>
						
							<linearGradient id="SVGID_6_" gradientUnits="userSpaceOnUse" x1="21.5903" y1="108.1318" x2="55.5898" y2="108.1318" gradientTransform="matrix(1.0452 0 0 1.0452 530.6345 314.9807)">
							<stop  offset="0" style="stop-color:#333333"/>
							<stop  offset="0.2745" style="stop-color:#B0B0B0"/>
							<stop  offset="0.4157" style="stop-color:#9FA2AA"/>
							<stop  offset="0.5569" style="stop-color:#CCCCCC"/>
							<stop  offset="0.8039" style="stop-color:#999999"/>
							<stop  offset="1" style="stop-color:#515151"/>
						</linearGradient>
						<path fill="url(#SVGID_6_)" d="M588.7,432c-0.1-4.3-2.4-6.4-6.8-6.4H560c-4.4,0-6.7,2.1-6.8,6.4v-1.2c0-4.5,2.3-6.8,6.8-6.8
							h21.9c4.5,0,6.8,2.3,6.8,6.8V432z"/>
						
							<linearGradient id="SVGID_7_" gradientUnits="userSpaceOnUse" x1="21.5903" y1="123.4878" x2="55.5898" y2="123.4878" gradientTransform="matrix(1.0452 0 0 1.0452 530.6345 314.9807)">
							<stop  offset="0" style="stop-color:#644526"/>
							<stop  offset="1" style="stop-color:#7D5929"/>
						</linearGradient>
						<path fill="url(#SVGID_7_)" d="M588.7,432v23.7c0,4.5-2.3,6.8-6.8,6.8H560c-4.5,0-6.8-2.3-6.8-6.8V432
							c0.1-4.3,2.4-6.4,6.8-6.4h21.9C586.3,425.6,588.6,427.7,588.7,432z"/>
					</g>
				</g>
				<g>
					<path fill="#53371C" d="M571.3,431.5c2.9,0,5.4,1,7.4,3.1c1.3,1.2,2.2,2.6,2.7,4.1c0.1,0.2,0.1,0.5,0.2,0.7
						c0.1,0.4,0.2,0.9,0.3,1.3l0.1,1.6c0,0.3,0,0.7-0.1,1.1v0.1c-0.3,2.4-1.3,4.4-3.2,6.2c-2.1,2.1-4.5,3.1-7.4,3.1
						c-3,0-5.5-1-7.5-3.1c-1.7-1.7-2.7-3.8-3-6.1c0-0.1-0.1-0.2-0.1-0.3c0-0.4-0.1-0.7-0.1-1.1c0,0,0-0.1,0-0.2c0-0.2,0-0.3,0-0.4
						c0-0.1,0-0.2,0-0.2c0.1-0.5,0.1-1,0.2-1.4c0.1-0.4,0.2-0.8,0.3-1.3c0.5-1.5,1.3-2.9,2.6-4.1
						C565.9,432.6,568.4,431.5,571.3,431.5z"/>
				</g>
				<g>
					<g>
						
							<linearGradient id="SVGID_8_" gradientUnits="userSpaceOnUse" x1="28.79" y1="120.2827" x2="49.09" y2="120.2827" gradientTransform="matrix(1.0452 0 0 1.0452 530.6345 314.9807)">
							<stop  offset="0" style="stop-color:#646054"/>
							<stop  offset="9.803922e-002" style="stop-color:#F8F5EC"/>
							<stop  offset="0.2588" style="stop-color:#F9F9F7"/>
							<stop  offset="0.3294" style="stop-color:#B8B7B3"/>
							<stop  offset="0.4392" style="stop-color:#A1A396"/>
							<stop  offset="0.6118" style="stop-color:#A5A79C"/>
							<stop  offset="0.7569" style="stop-color:#FCFFFF"/>
							<stop  offset="1" style="stop-color:#817D72"/>
						</linearGradient>
						<path fill="url(#SVGID_8_)" d="M581.6,444.2c-0.1-0.2-0.1-0.5-0.2-0.7c-0.5-1.5-1.4-2.9-2.7-4.1c-2.1-2.1-4.5-3.1-7.4-3.1
							c-3,0-5.5,1-7.5,3.1c-1.2,1.2-2.1,2.6-2.6,4.1c-0.1,0.4-0.2,0.8-0.3,1.3l0.3-4.9c0.5-1.6,1.3-3,2.5-4.2c0-0.1,0.1-0.1,0.2-0.2
							c2.1-2.1,4.6-3.1,7.5-3.1c2.9,0,5.4,1,7.4,3.1c0.1,0.1,0.1,0.1,0.2,0.2c1.1,1.1,1.8,2.3,2.3,3.6L581.6,444.2z M560.8,448.4
							c0,0.2-0.1,0.4-0.1,0.6l0.1-0.9C560.8,448.2,560.8,448.3,560.8,448.4z"/>
						<path fill="#29293D" d="M565.6,441c-0.1-0.2-0.1-0.4-0.1-0.6v-0.1c0-0.5,0.2-1,0.6-1.3l0.1-0.1c0.2-0.2,0.4-0.3,0.6-0.4
							s0.4-0.1,0.6-0.1c0.1,0,0.3,0,0.4,0.1c0.1,0,0.1,0,0.2,0.1c0.3,0.1,0.5,0.2,0.8,0.5c0.1,0.1,0.1,0.1,0.2,0.2
							c0.5-0.1,1-0.2,1.5-0.2c0.1-0.2,0.2-0.3,0.3-0.5c0.4-0.4,0.8-0.6,1.4-0.6c0.5,0,1,0.2,1.4,0.6c0.3,0.3,0.5,0.6,0.5,0.9h0.1
							c0.9,0.3,1.7,0.8,2.4,1.4c0.2-0.1,0.4-0.1,0.6-0.1c0.5,0,1,0.2,1.4,0.6c0.4,0.4,0.6,0.8,0.6,1.4c0,0.2,0,0.3-0.1,0.5
							c-0.1-0.3-0.3-0.6-0.5-0.8c-0.4-0.4-0.8-0.6-1.4-0.6c-0.2,0-0.4,0-0.6,0.1c-0.7-0.6-1.5-1.1-2.4-1.4H574
							c-0.1-0.3-0.2-0.7-0.5-0.9c-0.4-0.4-0.8-0.6-1.4-0.6c-0.5,0-1,0.2-1.4,0.6c-0.1,0.1-0.2,0.3-0.3,0.5c-0.5,0-1,0.1-1.5,0.2
							c0,0-0.1-0.1-0.2-0.2c-0.2-0.2-0.5-0.4-0.8-0.5c0,0-0.1-0.1-0.2-0.1c-0.1,0-0.3-0.1-0.4-0.1c-0.2,0-0.4,0-0.6,0.1
							c-0.2,0.1-0.5,0.2-0.6,0.4c0,0-0.1,0-0.1,0.1C565.9,440.4,565.7,440.7,565.6,441z M565.6,441.2c0,0.1-0.1,0.2-0.1,0.3v0.1
							c0,0.2,0,0.5,0.1,0.7c-0.1,0.1-0.2,0.1-0.3,0.2c-0.3,0.3-0.6,0.7-0.9,1c-0.1,0-0.3-0.1-0.4-0.1c-0.2,0-0.4,0-0.6,0.1
							c-0.2,0.1-0.5,0.2-0.6,0.4c0,0-0.1,0-0.1,0.1c-0.2,0.2-0.4,0.5-0.5,0.9c-0.1-0.2-0.1-0.4-0.1-0.6v-0.1c0-0.5,0.2-1,0.6-1.3
							l0.1-0.1c0.2-0.2,0.4-0.3,0.6-0.4c0.2-0.1,0.4-0.1,0.6-0.1c0.1,0,0.3,0,0.4,0.1c0.3-0.3,0.6-0.7,0.9-1
							C565.4,441.3,565.5,441.2,565.6,441.2z M562.7,450.8c-0.1-0.2-0.1-0.4-0.1-0.6v-0.1c0-0.5,0.2-1,0.6-1.3c0,0.3,0,0.6,0.1,1
							c0,0-0.1,0-0.1,0.1C562.9,450.1,562.8,450.4,562.7,450.8z M580.6,448.8c-0.1-0.3-0.3-0.6-0.5-0.8c-0.2-0.2-0.5-0.4-0.8-0.5
							c-0.1-0.9-0.3-1.8-0.6-2.6c0.1-0.1,0.2-0.3,0.3-0.4c0.2,0.6,0.3,1.2,0.4,1.9c0.3,0.1,0.5,0.2,0.8,0.5c0.4,0.4,0.6,0.8,0.6,1.4
							C580.7,448.4,580.7,448.6,580.6,448.8z"/>
						
							<linearGradient id="SVGID_9_" gradientUnits="userSpaceOnUse" x1="38.7163" y1="122.0132" x2="39.4397" y2="142.1639" gradientTransform="matrix(1.0452 0 0 1.0452 530.6345 314.9807)">
							<stop  offset="0" style="stop-color:#D5D4E2"/>
							<stop  offset="1" style="stop-color:#373751"/>
						</linearGradient>
						<path fill="url(#SVGID_9_)" d="M579,443.3c-0.1,0.2-0.2,0.4-0.3,0.6c0.1,0.2,0.2,0.4,0.3,0.6c-0.1,0.1-0.2,0.3-0.3,0.4
							c0.3,0.8,0.6,1.6,0.6,2.6c0.3,0.1,0.5,0.2,0.8,0.5c0.2,0.2,0.4,0.5,0.5,0.8c-0.1,0.2-0.2,0.4-0.3,0.6
							c-0.1,0.1-0.1,0.1-0.2,0.2c-0.4,0.4-0.8,0.6-1.4,0.6c-0.3,0.8-0.8,1.6-1.4,2.3c0.1,0.2,0.2,0.5,0.2,0.8v0.1
							c0,0.1,0,0.3-0.1,0.5c-0.1,0.2-0.2,0.4-0.3,0.6c-0.1,0.1-0.1,0.1-0.2,0.2c-0.4,0.4-0.8,0.6-1.4,0.6s-1-0.2-1.4-0.6
							c-0.9,0.3-2,0.5-3.1,0.5c-0.2,0-0.5,0-0.7,0l-0.1,0.1c-0.1,0.1-0.1,0.1-0.2,0.2c-0.4,0.4-0.8,0.6-1.4,0.6
							c-0.5,0-1-0.2-1.4-0.6c-0.4-0.4-0.6-0.8-0.6-1.4V454c-0.5-0.3-1-0.8-1.5-1.2c-0.2-0.2-0.5-0.5-0.6-0.7c-0.1,0-0.1,0-0.2,0
							c-0.5,0-1-0.2-1.4-0.6c-0.2-0.2-0.4-0.5-0.5-0.8c0.1-0.3,0.2-0.6,0.5-0.9l0.1-0.1c-0.1-0.3-0.1-0.7-0.1-1l0.1-0.1
							c-0.1-0.3-0.1-0.7-0.1-1c-0.1-0.1-0.1-0.2-0.1-0.4c0-0.1-0.1-0.2-0.1-0.4c0-0.1,0-0.1,0-0.2c0-0.3,0-0.7,0.1-1
							c-0.1-0.1-0.3-0.2-0.4-0.3c-0.2-0.2-0.4-0.5-0.5-0.8c0.1-0.3,0.2-0.6,0.5-0.9l0.1-0.1c0.2-0.2,0.4-0.3,0.6-0.4
							c0.2-0.1,0.4-0.1,0.6-0.1c0.1,0,0.3,0,0.4,0.1c0.3-0.3,0.6-0.7,0.9-1c0.1-0.1,0.2-0.1,0.3-0.2c-0.1-0.2-0.1-0.4-0.1-0.7v-0.1
							c0-0.1,0-0.2,0.1-0.3c0,0,0-0.1,0.1-0.1v-0.1c0.1-0.3,0.2-0.6,0.5-0.9l0.1-0.1c0.2-0.2,0.4-0.3,0.6-0.4
							c0.2-0.1,0.4-0.1,0.6-0.1c0.1,0,0.3,0,0.4,0.1c0.1,0,0.1,0,0.2,0.1c0.3,0.1,0.5,0.2,0.8,0.5c0.1,0.1,0.1,0.1,0.2,0.2
							c0.5-0.1,1-0.2,1.5-0.2c0.1-0.2,0.2-0.3,0.3-0.5c0.4-0.4,0.8-0.6,1.4-0.6c0.5,0,1,0.2,1.4,0.6c0.3,0.3,0.5,0.6,0.5,0.9h0.1
							c0.9,0.3,1.7,0.8,2.4,1.4c0.2-0.1,0.4-0.1,0.6-0.1c0.5,0,1,0.2,1.4,0.6C578.7,442.7,578.9,442.9,579,443.3z M566.3,447.3
							c0,0.2,0,0.3,0.1,0.4c0.1,1.2,0.5,2.2,1.4,3.1c1,0.9,2.1,1.4,3.4,1.4c1.4,0,2.5-0.5,3.5-1.4c0.8-0.9,1.3-2,1.4-3.2
							c0,0,0-0.1,0-0.3c0-1.3-0.5-2.5-1.4-3.4c-1-0.9-2.1-1.4-3.5-1.4c-1.3,0-2.5,0.5-3.4,1.4C566.8,444.9,566.3,446,566.3,447.3z"
							/>
						
							<linearGradient id="SVGID_10_" gradientUnits="userSpaceOnUse" x1="28.7656" y1="126.2622" x2="49.1157" y2="126.2622" gradientTransform="matrix(1.0452 0 0 1.0452 530.6345 314.9807)">
							<stop  offset="0" style="stop-color:#646054"/>
							<stop  offset="1" style="stop-color:#747472"/>
						</linearGradient>
						<path fill="url(#SVGID_10_)" d="M581.6,444.2c0.1,0.4,0.2,0.9,0.3,1.3l0.1,1.6c0,0.3,0,0.7-0.1,1.1v0.1
							c-0.3,2.4-1.3,4.4-3.2,6.2c-2.1,2.1-4.5,3.1-7.4,3.1c-3,0-5.5-1-7.5-3.1c-1.7-1.7-2.7-3.8-3-6.1c0-0.1-0.1-0.2-0.1-0.3
							c0-0.4-0.1-0.7-0.1-1.1c0,0,0-0.1,0-0.2c0-0.2,0-0.3,0-0.4c0-0.1,0-0.2,0-0.2c0.1-0.5,0.1-1,0.2-1.4c0.1-0.4,0.2-0.8,0.3-1.3
							c0.5-1.5,1.3-2.9,2.6-4.1c2.1-2.1,4.6-3.1,7.5-3.1c2.9,0,5.4,1,7.4,3.1c1.3,1.2,2.2,2.6,2.7,4.1
							C581.5,443.8,581.6,444,581.6,444.2z M579,444.5c-0.1-0.2-0.2-0.5-0.3-0.6c0.1-0.2,0.2-0.4,0.3-0.6c0-0.2,0.1-0.3,0.1-0.5
							c0-0.5-0.2-1-0.6-1.4c-0.4-0.4-0.8-0.6-1.4-0.6c-0.2,0-0.4,0-0.6,0.1c-0.7-0.6-1.5-1.1-2.4-1.4H574c-0.1-0.3-0.2-0.7-0.5-0.9
							c-0.4-0.4-0.8-0.6-1.4-0.6c-0.5,0-1,0.2-1.4,0.6c-0.1,0.1-0.2,0.3-0.3,0.5c-0.5,0-1,0.1-1.5,0.2c0,0-0.1-0.1-0.2-0.2
							c-0.2-0.2-0.5-0.4-0.8-0.5c0,0-0.1-0.1-0.2-0.1c-0.1,0-0.3-0.1-0.4-0.1c-0.2,0-0.4,0-0.6,0.1s-0.5,0.2-0.6,0.4
							c0,0-0.1,0-0.1,0.1c-0.3,0.3-0.5,0.8-0.6,1.3v0.1c0,0.2,0,0.4,0.1,0.6v0.1c0,0-0.1,0-0.1,0.1c-0.1,0-0.1,0.1-0.2,0.2
							c-0.3,0.3-0.6,0.7-0.9,1c-0.1,0-0.3-0.1-0.4-0.1c-0.2,0-0.4,0-0.6,0.1c-0.2,0.1-0.5,0.2-0.6,0.4c0,0-0.1,0-0.1,0.1
							c-0.3,0.3-0.5,0.8-0.6,1.3v0.1c0,0.2,0,0.4,0.1,0.6c0.1,0.3,0.2,0.5,0.5,0.8c0.1,0.1,0.3,0.2,0.4,0.3c-0.1,0.3-0.1,0.6-0.1,1
							c0,0,0,0.1,0,0.2c0,0.1,0,0.3,0.1,0.4c0,0.1,0,0.3,0.1,0.4c0,0.3,0,0.6,0.1,1c0,0-0.1,0-0.1,0.1c-0.3,0.3-0.5,0.8-0.6,1.3v0.1
							c0,0.2,0,0.4,0.1,0.6c0.1,0.3,0.2,0.5,0.5,0.8c0.4,0.4,0.8,0.6,1.4,0.6c0.1,0,0.1,0,0.2,0c0.2,0.2,0.4,0.5,0.6,0.7
							c0.5,0.5,1,0.9,1.5,1.2v0.1c0,0.5,0.2,1,0.6,1.4c0.4,0.4,0.8,0.6,1.4,0.6c0.5,0,1-0.2,1.4-0.6c0.1-0.1,0.1-0.1,0.2-0.2
							l0.1-0.1c0.2,0,0.4,0,0.7,0c1.1,0,2.1-0.2,3.1-0.5c0.4,0.4,0.8,0.6,1.4,0.6c0.6,0,1-0.2,1.4-0.6c0.1-0.1,0.1-0.1,0.2-0.2
							c0.1-0.2,0.2-0.4,0.3-0.6c0-0.2,0.1-0.3,0.1-0.5v-0.1c0-0.3-0.1-0.6-0.2-0.8c0.6-0.7,1.1-1.5,1.4-2.3c0.5,0,1-0.2,1.4-0.6
							c0.1-0.1,0.1-0.1,0.2-0.2c0.1-0.2,0.2-0.4,0.3-0.6c0-0.2,0.1-0.3,0.1-0.5c0-0.5-0.2-1-0.6-1.4c-0.2-0.2-0.5-0.4-0.8-0.5
							C579.3,445.7,579.1,445.1,579,444.5z"/>
						<path d="M566.3,447.3c0-1.3,0.5-2.5,1.4-3.4c1-0.9,2.1-1.4,3.4-1.4c1.4,0,2.5,0.5,3.5,1.4c0.9,1,1.4,2.1,1.4,3.4
							c0,0.1,0,0.2,0,0.3c-0.1,1.3-0.6,2.4-1.4,3.2c-1,0.9-2.1,1.4-3.5,1.4c-1.3,0-2.5-0.5-3.4-1.4c-0.8-0.9-1.3-1.9-1.4-3.1
							C566.3,447.6,566.3,447.5,566.3,447.3z"/>
					</g>
				</g>
				<g>
					<g>
						<g>
							
								<radialGradient id="SVGID_11_" cx="48.7905" cy="110.1768" r="5.4379" gradientTransform="matrix(1.0452 0 0 1.0452 530.6345 314.9807)" gradientUnits="userSpaceOnUse">
								<stop  offset="0" style="stop-color:#848B83"/>
								<stop  offset="1" style="stop-color:#454142"/>
							</radialGradient>
							<path fill="url(#SVGID_11_)" d="M583.3,427.1c1.3,0,2.3,0.4,3.2,1.3c0.9,0.9,1.3,1.9,1.3,3.2c0,1-0.3,1.9-0.9,2.7
								c-0.1,0.1-0.3,0.3-0.4,0.5c-0.9,0.9-1.9,1.3-3.2,1.3c-1.2,0-2.3-0.4-3.2-1.3c-0.9-0.9-1.3-1.9-1.3-3.2c0-1.3,0.4-2.3,1.3-3.2
								C581,427.5,582.1,427.1,583.3,427.1z M581.2,428.9l-0.4,0.5c1.8,1.2,3.3,2.6,4.4,4.3l0.6-0.5
								C584.5,431.5,582.9,430.1,581.2,428.9z"/>
							<path fill="#151515" d="M581.2,428.9c1.7,1.2,3.3,2.6,4.6,4.3l-0.6,0.5c-1.2-1.7-2.7-3.1-4.4-4.3L581.2,428.9z"/>
						</g>
					</g>
					<g>
						
							<radialGradient id="SVGID_12_" cx="50.9897" cy="109.2803" r="2.9648" gradientTransform="matrix(1.0452 0 0 1.0452 530.6345 314.9807)" gradientUnits="userSpaceOnUse">
							<stop  offset="0" style="stop-color:#FFFFFF"/>
							<stop  offset="0.1765" style="stop-color:#FFFFFF"/>
							<stop  offset="0.3059" style="stop-color:#FFFFFF;stop-opacity:0.4235"/>
							<stop  offset="0.4902" style="stop-color:#FFFFFF;stop-opacity:0.2314"/>
							<stop  offset="0.651" style="stop-color:#FFFFFF;stop-opacity:8.235294e-002"/>
							<stop  offset="1" style="stop-color:#FFFFFF;stop-opacity:0"/>
						</radialGradient>
						<path fill="url(#SVGID_12_)" d="M587,429.2c0,0.9-0.3,1.6-0.9,2.1c-0.6,0.6-1.3,0.9-2.1,0.9s-1.5-0.3-2.1-0.9
							c-0.6-0.6-0.9-1.3-0.9-2.1s0.3-1.5,0.9-2.1c0.6-0.6,1.3-0.9,2.1-0.9s1.6,0.3,2.1,0.9C586.7,427.7,587,428.4,587,429.2z"/>
					</g>
				</g>
				<g>
					<g>
						<g>
							
								<radialGradient id="SVGID_13_" cx="24.9907" cy="111.0771" r="5.4377" gradientTransform="matrix(1.0452 0 0 1.0452 530.6345 314.9807)" gradientUnits="userSpaceOnUse">
								<stop  offset="0" style="stop-color:#848B83"/>
								<stop  offset="1" style="stop-color:#454142"/>
							</radialGradient>
							<path fill="url(#SVGID_13_)" d="M558.4,428c1.3,0,2.3,0.4,3.2,1.3c0.9,0.9,1.3,1.9,1.3,3.2c0,1-0.3,1.9-0.9,2.7
								c-0.1,0.1-0.3,0.3-0.4,0.5c-0.9,0.9-1.9,1.3-3.2,1.3c-1.2,0-2.3-0.4-3.2-1.3c-0.9-0.9-1.3-1.9-1.3-3.2s0.4-2.3,1.3-3.2
								C556.1,428.4,557.2,428,558.4,428z M555.9,430.4c1.8,1.2,3.3,2.6,4.4,4.3l0.6-0.5c-1.3-1.7-2.9-3.1-4.6-4.3L555.9,430.4z"/>
							<path fill="#151515" d="M555.9,430.4l0.4-0.5c1.7,1.2,3.3,2.6,4.6,4.3l-0.6,0.5C559.2,433,557.7,431.6,555.9,430.4z"/>
						</g>
					</g>
					<g>
						
							<radialGradient id="SVGID_14_" cx="27.1904" cy="110.1768" r="2.9625" gradientTransform="matrix(1.0452 0 0 1.0452 530.6345 314.9807)" gradientUnits="userSpaceOnUse">
							<stop  offset="0" style="stop-color:#FFFFFF"/>
							<stop  offset="0.1765" style="stop-color:#FFFFFF"/>
							<stop  offset="0.3059" style="stop-color:#FFFFFF;stop-opacity:0.4235"/>
							<stop  offset="0.4902" style="stop-color:#FFFFFF;stop-opacity:0.2314"/>
							<stop  offset="0.651" style="stop-color:#FFFFFF;stop-opacity:8.235294e-002"/>
							<stop  offset="1" style="stop-color:#FFFFFF;stop-opacity:0"/>
						</radialGradient>
						<path fill="url(#SVGID_14_)" d="M562.1,430.1c0,0.9-0.3,1.6-0.9,2.1c-0.6,0.6-1.3,0.9-2.1,0.9c-0.8,0-1.5-0.3-2.1-0.9
							c-0.6-0.6-0.9-1.3-0.9-2.1c0-0.8,0.3-1.5,0.9-2.1s1.3-0.9,2.1-0.9c0.8,0,1.5,0.3,2.1,0.9C561.8,428.6,562.1,429.3,562.1,430.1
							z"/>
					</g>
				</g>
				<g>
					<g>
						<g>
							
								<radialGradient id="SVGID_15_" cx="24.9907" cy="134.6758" r="5.4366" gradientTransform="matrix(1.0452 0 0 1.0452 530.6345 314.9807)" gradientUnits="userSpaceOnUse">
								<stop  offset="0" style="stop-color:#848B83"/>
								<stop  offset="1" style="stop-color:#454142"/>
							</radialGradient>
							<path fill="url(#SVGID_15_)" d="M556.3,454.5l-0.4,0.5c1.8,1.2,3.3,2.6,4.4,4.3l0.6-0.5C559.6,457.2,558.1,455.7,556.3,454.5
								z M558.4,452.7c1.3,0,2.3,0.4,3.2,1.3c0.9,0.9,1.3,1.9,1.3,3.2c0,1-0.3,1.9-0.9,2.7c-0.1,0.1-0.3,0.3-0.4,0.5
								c-0.9,0.9-1.9,1.3-3.2,1.3c-1.2,0-2.3-0.4-3.2-1.3c-0.9-0.9-1.3-1.9-1.3-3.2s0.4-2.3,1.3-3.2
								C556.1,453.1,557.2,452.7,558.4,452.7z"/>
							<path fill="#151515" d="M556.3,454.5c1.7,1.2,3.3,2.6,4.6,4.3l-0.6,0.5c-1.2-1.7-2.7-3.1-4.4-4.3L556.3,454.5z"/>
						</g>
					</g>
					<g>
						
							<radialGradient id="SVGID_16_" cx="27.1904" cy="133.7725" r="2.9615" gradientTransform="matrix(1.0452 0 0 1.0452 530.6345 314.9807)" gradientUnits="userSpaceOnUse">
							<stop  offset="0" style="stop-color:#FFFFFF"/>
							<stop  offset="0.1765" style="stop-color:#FFFFFF"/>
							<stop  offset="0.3059" style="stop-color:#FFFFFF;stop-opacity:0.4235"/>
							<stop  offset="0.4902" style="stop-color:#FFFFFF;stop-opacity:0.2314"/>
							<stop  offset="0.651" style="stop-color:#FFFFFF;stop-opacity:8.235294e-002"/>
							<stop  offset="1" style="stop-color:#FFFFFF;stop-opacity:0"/>
						</radialGradient>
						<path fill="url(#SVGID_16_)" d="M559,451.8c0.8,0,1.5,0.3,2.1,0.9c0.6,0.6,0.9,1.3,0.9,2.1c0,0.9-0.3,1.6-0.9,2.1
							c-0.6,0.6-1.3,0.9-2.1,0.9s-1.5-0.3-2.1-0.9c-0.6-0.6-0.9-1.3-0.9-2.1s0.3-1.5,0.9-2.1C557.5,452.1,558.2,451.8,559,451.8z"/>
					</g>
				</g>
				<g>
					<g>
						<g>
							
								<radialGradient id="SVGID_17_" cx="51.4404" cy="134.4258" r="5.4261" gradientTransform="matrix(1.0452 0 0 1.0452 530.6345 314.9807)" gradientUnits="userSpaceOnUse">
								<stop  offset="0" style="stop-color:#848B83"/>
								<stop  offset="1" style="stop-color:#454142"/>
							</radialGradient>
							<path fill="url(#SVGID_17_)" d="M585.6,455.1l-0.5-0.4c-1.3,1.8-2.7,3.2-4.4,4.3l0.5,0.6
								C582.9,458.3,584.3,456.8,585.6,455.1z M586.2,454.1c0.8,0.9,1.2,2,1.2,3.2c0,1.3-0.5,2.3-1.4,3.1c-0.9,0.9-2,1.3-3.2,1.3
								c-1,0-1.9-0.4-2.7-1c-0.2-0.1-0.3-0.3-0.5-0.4c-0.8-0.9-1.2-2-1.2-3.2c0-1.2,0.5-2.2,1.4-3.1c0.9-0.9,2-1.3,3.2-1.3
								C584.3,452.7,585.4,453.2,586.2,454.1z"/>
							<path fill="#151515" d="M585.6,455.1c-1.3,1.7-2.7,3.2-4.4,4.5l-0.5-0.6c1.7-1.1,3.1-2.5,4.4-4.3L585.6,455.1z"/>
						</g>
					</g>
					<g>
						
							<radialGradient id="SVGID_18_" cx="49.04" cy="133.9746" r="2.9506" gradientTransform="matrix(1.0452 0 0 1.0452 530.6345 314.9807)" gradientUnits="userSpaceOnUse">
							<stop  offset="0" style="stop-color:#FFFFFF"/>
							<stop  offset="0.1765" style="stop-color:#FFFFFF"/>
							<stop  offset="0.3059" style="stop-color:#FFFFFF;stop-opacity:0.4235"/>
							<stop  offset="0.4902" style="stop-color:#FFFFFF;stop-opacity:0.2314"/>
							<stop  offset="0.651" style="stop-color:#FFFFFF;stop-opacity:8.235294e-002"/>
							<stop  offset="1" style="stop-color:#FFFFFF;stop-opacity:0"/>
						</radialGradient>
						<path fill="url(#SVGID_18_)" d="M584,452.9c0.6,0.6,0.9,1.4,0.9,2.2c0,0.8-0.4,1.5-1,2.1c-0.6,0.6-1.3,0.9-2.1,0.9
							c-0.9,0-1.6-0.4-2.1-1c-0.6-0.6-0.9-1.4-0.9-2.2c0-0.8,0.4-1.5,1-2.1c0.6-0.6,1.3-0.9,2.2-0.8
							C582.8,452,583.5,452.3,584,452.9z"/>
					</g>
				</g>
			</g>
			<g>
				<g>
					
						<radialGradient id="SVGID_19_" cx="11.2573" cy="72.6768" r="16.2898" gradientTransform="matrix(1.0452 0 0 1.0452 530.6345 314.9807)" gradientUnits="userSpaceOnUse">
						<stop  offset="0" style="stop-color:#000000"/>
						<stop  offset="1" style="stop-color:#000000;stop-opacity:0"/>
					</radialGradient>
					<rect x="528.9" y="376.7" fill="url(#SVGID_19_)" width="27" height="42.6"/>
				</g>
				<g>
					
						<linearGradient id="SVGID_20_" gradientUnits="userSpaceOnUse" x1="-1.1846" y1="57.2329" x2="23.2905" y2="57.2329" gradientTransform="matrix(1.0452 0 0 1.0452 530.6345 314.9807)">
						<stop  offset="0" style="stop-color:#14171E"/>
						<stop  offset="0.1647" style="stop-color:#3D4043"/>
						<stop  offset="0.4863" style="stop-color:#64676B"/>
						<stop  offset="0.7922" style="stop-color:#34373B"/>
						<stop  offset="1" style="stop-color:#1B1E25"/>
					</linearGradient>
					<path fill="url(#SVGID_20_)" d="M554.8,381.5l0.2,2.9h-25.5v-2.2v0.1l0.5-5.1c0-0.1,0-0.2,0-0.4c0.4-2.8,1.5-5.3,3.4-7.5
						c2.4-2.8,5.4-4.1,8.8-4.1c3.5,0,6.4,1.4,8.8,4.1c2.1,2.3,3.4,5,3.7,8.2l0.3,4.9C554.9,382,554.8,381.7,554.8,381.5z"/>
				</g>
				<g>
					<g>
						<path fill="#636669" d="M553,383.8V372c0.2,0.4,0.5,0.8,0.6,1.3v10.6c0,0.1,0,0.1-0.1,0.2c-0.1,0.1-0.1,0.1-0.2,0.1
							c-0.1,0-0.2,0-0.2-0.1C553.1,384,553,383.9,553,383.8z M536.6,366.6c0.2-0.1,0.4-0.3,0.6-0.4v14.4c0,0.1,0,0.1-0.1,0.2
							c-0.1,0.1-0.2,0.1-0.3,0.1c-0.1,0-0.1,0-0.2-0.1c-0.1-0.1-0.2-0.1-0.2-0.2v-14H536.6z M540.5,365.2c0.2,0,0.4-0.1,0.6-0.1
							v15.4c0,0.1,0,0.2-0.1,0.3c-0.1,0-0.2,0.1-0.3,0.1c-0.1,0-0.2,0-0.2-0.1c-0.1-0.1-0.1-0.2-0.1-0.3L540.5,365.2L540.5,365.2z
							 M543.8,365.2c0.2,0,0.4,0,0.6,0.1v14.8c0,0.1,0,0.2-0.1,0.3c-0.1,0-0.2,0.1-0.3,0.1s-0.1,0-0.2-0.1c-0.1-0.1-0.2-0.2-0.2-0.3
							v-14.9H543.8z M533.9,368.8c0.2-0.3,0.4-0.5,0.6-0.6v15.4c0,0.1,0,0.1-0.1,0.2c-0.1,0.1-0.1,0.1-0.2,0.1c-0.1,0-0.2,0-0.2-0.1
							c-0.1-0.1-0.1-0.1-0.1-0.2V368.8z M547.2,366.3c0.2,0.1,0.4,0.2,0.6,0.3v14.2c0,0.1,0,0.2-0.1,0.3c-0.1,0-0.2,0.1-0.3,0.1
							c-0.1,0-0.1,0-0.2-0.1c-0.1-0.1-0.1-0.2-0.1-0.3v-14.5H547.2z M551,369.3L551,369.3l0.1,13.4c0,0.1,0,0.2-0.1,0.3
							c-0.1,0-0.2,0.1-0.3,0.1c-0.1,0-0.1,0-0.2-0.1s-0.2-0.2-0.2-0.3v-14.1C550.6,368.8,550.8,369,551,369.3z M531.8,371.4v13.1
							h-0.6v-11.9C531.4,372.2,531.6,371.8,531.8,371.4z"/>
						<path fill="#3E4042" d="M543.1,365.2c0.2,0,0.4,0,0.6,0.1v15c0,0.1,0,0.2-0.1,0.3c-0.1,0-0.2,0.1-0.3,0.1
							c-0.1,0-0.1,0-0.2-0.1c-0.1-0.1-0.1-0.2-0.1-0.3L543.1,365.2L543.1,365.2z M535.9,367.1c0.2-0.2,0.4-0.3,0.6-0.4v14.1
							c0,0.1,0,0.2-0.1,0.3c-0.1,0-0.2,0.1-0.3,0.1c-0.1,0-0.1,0-0.2-0.1c-0.1-0.1-0.1-0.2-0.1-0.3v-13.7H535.9z M533.2,369.5
							c0.1-0.1,0.1-0.2,0.2-0.3c0.1-0.2,0.3-0.3,0.4-0.4v14.7c0,0.1,0,0.2-0.1,0.3c-0.1,0-0.2,0.1-0.3,0.1c-0.1,0-0.1,0-0.2-0.1
							c-0.1-0.1-0.2-0.2-0.2-0.3v-14H533.2L533.2,369.5z M549.7,368c0.2,0.2,0.4,0.4,0.6,0.6v14.2c0,0.1,0,0.2-0.1,0.3
							c-0.1,0-0.2,0.1-0.3,0.1c-0.1,0-0.1,0-0.2-0.1c-0.1-0.1-0.2-0.2-0.2-0.3V368H549.7z M552.3,370.9c0.2,0.3,0.4,0.7,0.6,1v12
							c0,0.1,0,0.2-0.1,0.3c-0.1,0-0.2,0.1-0.3,0.1s-0.1,0-0.2-0.1c-0.1-0.1-0.2-0.2-0.2-0.3v-13H552.3z M546.5,366
							c0.2,0.1,0.4,0.1,0.6,0.2v14.7c0,0.1,0,0.2-0.1,0.3c-0.1,0-0.2,0.1-0.3,0.1c-0.1,0-0.2,0-0.2-0.1c-0.1-0.1-0.1-0.2-0.1-0.3
							L546.5,366L546.5,366z M530.5,374.3c0.2-0.5,0.4-1,0.6-1.6v11.8h-0.6V374.3z M539.9,365.4c0.2,0,0.4-0.1,0.6-0.2v15.4
							c0,0.1,0,0.2-0.1,0.3c-0.1,0-0.1,0.1-0.2,0.1c-0.1,0-0.2,0-0.2-0.1c-0.1-0.1-0.1-0.2-0.1-0.3V365.4z"/>
					</g>
				</g>
				<g>
					<g>
						
							<radialGradient id="SVGID_21_" cx="10.79" cy="79.7612" r="21.8387" gradientTransform="matrix(1.0452 0 0 0.9369 530.6345 307.3304)" gradientUnits="userSpaceOnUse">
							<stop  offset="0" style="stop-color:#0D0D0D"/>
							<stop  offset="0.4745" style="stop-color:#212D34"/>
							<stop  offset="1" style="stop-color:#495669"/>
						</radialGradient>
						<path fill="url(#SVGID_21_)" d="M553.7,383.5l0.1,3.4c-0.3,2.6-1.4,5-3.4,7c-2.2,2.3-4.9,3.4-8.2,3.4s-6-1.1-8.3-3.4
							c-2.3-2.2-3.4-4.9-3.4-8.2c0-0.2,0-0.4,0-0.6c0-0.6,0.1-1,0.1-1.5c0.1-0.6,0.3-1.1,0.5-1.6c0.5-1.7,1.4-3.2,2.8-4.6
							c2.2-2.2,5-3.3,8.3-3.3s6,1.1,8.2,3.3c1.6,1.5,2.6,3.3,3.1,5.2C553.5,382.9,553.6,383.2,553.7,383.5z"/>
						
							<line fill="none" stroke="#0000FF" stroke-linecap="round" stroke-linejoin="round" stroke-miterlimit="3" x1="553.7" y1="383.5" x2="553.8" y2="387"/>
					</g>
				</g>
				<g>
					<g>
						
							<radialGradient id="SVGID_22_" cx="11.6885" cy="107.7793" r="7.563" gradientTransform="matrix(1.0451 -1.209184e-002 0 0.7963 530.6349 298.1539)" gradientUnits="userSpaceOnUse">
							<stop  offset="0" style="stop-color:#535360"/>
							<stop  offset="0.4235" style="stop-color:#2A2A31"/>
							<stop  offset="1" style="stop-color:#000000"/>
						</radialGradient>
						<path fill="url(#SVGID_22_)" d="M538.8,389.6c-1-1-1.5-2.2-1.5-3.7s0.5-2.7,1.5-3.7c1-1.1,2.3-1.6,3.8-1.6
							c1.4,0,2.6,0.5,3.7,1.5c1,1,1.6,2.2,1.6,3.7s-0.5,2.7-1.6,3.7c-1,1.1-2.2,1.6-3.7,1.6S539.8,390.6,538.8,389.6z"/>
					</g>
				</g>
				<g>
					<path fill="#141C1F" d="M553.5,385.2c0-0.1,0-0.3,0-0.4c-0.1-1.9-0.5-3.6-1.4-5.1c-0.6-1-1.3-1.9-2.2-2.7
						c-0.7-0.6-1.4-1.1-2-1.5c-1.8-0.9-3.7-1.4-5.9-1.3c0,0-0.1,0-0.2,0c-2.1,0.1-4,0.7-5.6,1.8c-0.7,0.5-1.4,1.1-2.1,1.8
						c-0.7,0.8-1.3,1.7-1.7,2.7c-0.8,1.6-1.2,3.4-1.1,5.4c0,0.1,0,0.3,0,0.4c0.2,2.1,0.8,3.9,1.9,5.5c0.5,0.7,1,1.3,1.7,1.8
						c0.8,0.8,1.8,1.4,2.8,1.9c1.6,0.8,3.3,1.1,5.2,1c0.1,0,0.2,0,0.2,0c2-0.1,3.8-0.6,5.3-1.6c0.8-0.6,1.5-1.2,2.2-2
						c0.6-0.7,1.2-1.4,1.6-2.1C553.2,389.1,553.6,387.2,553.5,385.2z M554.7,380L554.7,380c0.5,1.1,0.8,2.3,0.9,3.6
						c-0.2,0.1-0.4,0.2-0.6,0.4c-0.3,0.4-0.5,0.8-0.5,1.3c0.1,0.6,0.3,1,0.6,1.3c0.2,0.2,0.4,0.3,0.6,0.4c-0.1,1.2-0.4,2.4-0.9,3.4
						h-0.1c-0.5,0-0.9,0.2-1.2,0.6c-0.1,0.1-0.1,0.2-0.2,0.3c-0.3,0.3-0.4,0.7-0.3,1c0,0.4,0.1,0.7,0.3,1c-0.3,0.4-0.7,0.8-1,1.1
						c-0.5,0.5-0.9,1-1.4,1.4c-0.2-0.2-0.6-0.3-1-0.3c-0.3,0-0.6,0.1-0.9,0.3c-0.1,0-0.2,0.1-0.3,0.3c-0.4,0.3-0.6,0.8-0.6,1.3
						l0.1,0.1c-1,0.5-2.1,0.8-3.2,0.9c-0.1-0.1-0.2-0.2-0.3-0.3c-0.4-0.3-0.9-0.5-1.5-0.5h-0.1c-0.4,0-0.8,0.2-1,0.6
						c-0.1,0.1-0.2,0.2-0.3,0.4c-1.3,0-2.5-0.2-3.6-0.6c0-0.5-0.2-0.9-0.6-1.3c-0.1-0.1-0.3-0.2-0.5-0.3c-0.3-0.1-0.6-0.2-0.9-0.2
						s-0.6,0.2-0.9,0.4c-0.7-0.4-1.3-0.9-1.9-1.5c-0.3-0.2-0.6-0.5-0.8-0.9c0.1-0.3,0.2-0.6,0.2-1c0-0.4-0.1-0.7-0.3-1
						c-0.1-0.1-0.2-0.2-0.3-0.3c-0.4-0.3-0.9-0.4-1.4-0.4c-0.1,0-0.1,0-0.2,0c-0.6-1.1-1-2.4-1.3-3.7c0.1-0.1,0.2-0.2,0.4-0.4
						c0.4-0.3,0.6-0.8,0.5-1.2v-0.1c0-0.6-0.2-1-0.6-1.4c-0.1-0.1-0.3-0.2-0.5-0.4c0-1.3,0.2-2.5,0.6-3.6c0.5-0.1,1-0.3,1.3-0.6
						c0.1-0.1,0.1-0.2,0.2-0.4c0.2-0.3,0.3-0.6,0.3-0.9s-0.1-0.7-0.3-1c0.4-0.5,0.8-1.1,1.3-1.7c0.4-0.4,0.9-0.8,1.5-1.3
						c0.2,0.1,0.5,0.1,0.7,0.1c0.3,0,0.6-0.1,0.9-0.3c0.1-0.1,0.2-0.2,0.3-0.3c0.4-0.4,0.6-0.9,0.5-1.3c1.2-0.5,2.5-0.9,4-1.2
						c0.1,0.2,0.2,0.4,0.3,0.5c0.3,0.3,0.7,0.4,1.2,0.4h0.1c0.6,0,1-0.2,1.4-0.5c0.1-0.1,0.2-0.3,0.3-0.5c1.3,0.1,2.6,0.5,3.8,0.9
						c0,0.5,0.2,0.9,0.6,1.3c0.1,0.1,0.2,0.2,0.4,0.3c0.2,0.2,0.6,0.2,0.9,0.2c0.3,0,0.6-0.1,0.9-0.3c0.4,0.3,0.8,0.6,1.2,1
						c0.5,0.6,1,1.1,1.6,1.7c-0.2,0.3-0.3,0.7-0.3,1.1c0,0.3,0.1,0.6,0.2,0.9c0.1,0.1,0.3,0.2,0.4,0.4
						C553.7,379.9,554.1,380,554.7,380z"/>
				</g>
				<g>
					
						<radialGradient id="SVGID_23_" cx="11.7407" cy="-19.1509" r="1.3992" gradientTransform="matrix(1.0452 0 0 2.8555 530.6345 438.9891)" gradientUnits="userSpaceOnUse">
						<stop  offset="0" style="stop-color:#FFFFFF"/>
						<stop  offset="0.1765" style="stop-color:#FFFFFF"/>
						<stop  offset="0.3059" style="stop-color:#FFFFFF;stop-opacity:0.4235"/>
						<stop  offset="0.4902" style="stop-color:#FFFFFF;stop-opacity:0.2314"/>
						<stop  offset="0.651" style="stop-color:#FFFFFF;stop-opacity:8.235294e-002"/>
						<stop  offset="1" style="stop-color:#FFFFFF;stop-opacity:0"/>
					</radialGradient>
					<path fill="url(#SVGID_23_)" d="M541.9,387.1c-0.3-0.7-0.4-1.6-0.4-2.8c0-1.1,0.1-2,0.4-2.7c0.3-0.8,0.6-1.2,1-1.2
						c0.4,0,0.7,0.4,1,1.2c0.3,0.7,0.4,1.6,0.4,2.7c0,1.2-0.1,2.1-0.4,2.8c-0.3,0.8-0.7,1.2-1,1.2
						C542.6,388.3,542.2,387.9,541.9,387.1z"/>
				</g>
				<g>
					
						<radialGradient id="SVGID_24_" cx="253.7295" cy="-33.4229" r="1.2167" gradientTransform="matrix(-8.646691e-002 1.0416 -3.9841 -0.3307 429.7464 121.1462)" gradientUnits="userSpaceOnUse">
						<stop  offset="0" style="stop-color:#FFFFFF"/>
						<stop  offset="0.1765" style="stop-color:#FFFFFF"/>
						<stop  offset="0.3059" style="stop-color:#FFFFFF;stop-opacity:0.4235"/>
						<stop  offset="0.4902" style="stop-color:#FFFFFF;stop-opacity:0.2314"/>
						<stop  offset="0.651" style="stop-color:#FFFFFF;stop-opacity:8.235294e-002"/>
						<stop  offset="1" style="stop-color:#FFFFFF;stop-opacity:0"/>
					</radialGradient>
					<path fill="url(#SVGID_24_)" d="M540.9,397.7c-1.4-0.1-2.5-0.3-3.3-0.6c-0.9-0.3-1.4-0.7-1.4-1c0-0.3,0.5-0.6,1.5-0.8
						c0.9-0.2,2.1-0.2,3.4-0.1c1.3,0.1,2.4,0.3,3.2,0.6c0.9,0.3,1.4,0.7,1.4,1s-0.5,0.6-1.5,0.8
						C543.2,397.8,542.2,397.9,540.9,397.7z"/>
				</g>
			</g>
			<g>
				<g>
					
						<radialGradient id="SVGID_25_" cx="67.418" cy="72.8765" r="16.3132" gradientTransform="matrix(1.0452 0 0 1.0452 530.6345 314.9807)" gradientUnits="userSpaceOnUse">
						<stop  offset="0" style="stop-color:#000000"/>
						<stop  offset="1" style="stop-color:#000000;stop-opacity:0"/>
					</radialGradient>
					<rect x="587.6" y="376.9" fill="url(#SVGID_25_)" width="27" height="42.6"/>
				</g>
				<g>
					
						<linearGradient id="SVGID_26_" gradientUnits="userSpaceOnUse" x1="55.0151" y1="57.4717" x2="79.4902" y2="57.4717" gradientTransform="matrix(1.0452 0 0 1.0452 530.6345 314.9807)">
						<stop  offset="0" style="stop-color:#14171E"/>
						<stop  offset="0.1647" style="stop-color:#3D4043"/>
						<stop  offset="0.4863" style="stop-color:#64676B"/>
						<stop  offset="0.7922" style="stop-color:#34373B"/>
						<stop  offset="1" style="stop-color:#1B1E25"/>
					</linearGradient>
					<path fill="url(#SVGID_26_)" d="M588.2,384.6v-2.2v0.1l0.5-5.1c0-0.1,0-0.2,0-0.4c0.4-2.8,1.5-5.3,3.4-7.5
						c2.4-2.8,5.4-4.1,8.8-4.1c3.5,0,6.4,1.4,8.8,4.1c2.1,2.3,3.4,5,3.7,8.2l0.3,4.9c-0.1-0.3-0.2-0.5-0.2-0.8l0.2,2.9h-25.5V384.6z
						"/>
				</g>
				<g>
					<g>
						<path fill="#3E4042" d="M592.1,369.5c0.1-0.2,0.3-0.3,0.4-0.4v14.7c0,0.1,0,0.2-0.1,0.3c-0.1,0-0.2,0.1-0.3,0.1
							c-0.1,0-0.1,0-0.2-0.1c-0.1-0.1-0.2-0.2-0.2-0.3v-14.1C592,369.7,592.1,369.6,592.1,369.5z M589.3,374.5
							c0.2-0.5,0.4-1,0.6-1.6v11.8h-0.6V374.5z M605.2,366.2c0.2,0.1,0.4,0.1,0.6,0.2v14.7c0,0.1,0,0.2-0.1,0.3
							c-0.1,0-0.2,0.1-0.3,0.1c-0.1,0-0.2,0-0.2-0.1c-0.1-0.1-0.1-0.2-0.1-0.3v-14.9H605.2L605.2,366.2z M594.6,367.3
							c0.2-0.2,0.4-0.3,0.6-0.4V381c0,0.1,0,0.2-0.1,0.3c-0.1,0-0.2,0.1-0.3,0.1c-0.1,0-0.1,0-0.2-0.1c-0.1-0.1-0.1-0.2-0.1-0.3
							L594.6,367.3L594.6,367.3z M598.6,365.6c0.2,0,0.4-0.1,0.6-0.2v15.4c0,0.1,0,0.2-0.1,0.3c-0.1,0-0.1,0.1-0.2,0.1
							c-0.1,0-0.2,0-0.2-0.1c-0.1-0.1-0.1-0.2-0.1-0.3V365.6z M601.8,365.4c0.2,0,0.4,0,0.6,0.1v15c0,0.1,0,0.2-0.1,0.3
							c-0.1,0-0.2,0.1-0.3,0.1s-0.1,0-0.2-0.1c-0.1-0.1-0.1-0.2-0.1-0.3L601.8,365.4L601.8,365.4z M608.5,368.2
							c0.2,0.2,0.4,0.4,0.6,0.6V383c0,0.1,0,0.2-0.1,0.3c-0.1,0-0.2,0.1-0.3,0.1c-0.1,0-0.1,0-0.2-0.1c-0.1-0.1-0.2-0.2-0.2-0.3
							v-14.8H608.5z M611,371.1c0.2,0.3,0.4,0.7,0.6,1v12c0,0.1,0,0.2-0.1,0.3c-0.1,0-0.2,0.1-0.3,0.1c-0.1,0-0.1,0-0.2-0.1
							c-0.1-0.1-0.2-0.2-0.2-0.3v-13H611z"/>
						<path fill="#636669" d="M592.6,369c0.2-0.3,0.4-0.5,0.6-0.6v15.4c0,0.1,0,0.1-0.1,0.2c-0.1,0.1-0.1,0-0.1,0
							c-0.1,0-0.2,0-0.2-0.1c-0.1-0.1-0.1-0.1-0.1-0.2V369H592.6z M589.9,372.8c0.2-0.4,0.4-0.8,0.6-1.2v13.1h-0.6V372.8z
							 M595.3,366.9c0.2-0.1,0.4-0.3,0.6-0.4v14.4c0,0.1,0,0.1-0.1,0.2c-0.1,0.1-0.2,0.1-0.3,0.1s-0.1,0-0.2-0.1
							c-0.1-0.1-0.2-0.1-0.2-0.2v-14H595.3z M599.3,365.4c0.2,0,0.4-0.1,0.6-0.1v15.4c0,0.1,0,0.2-0.1,0.3c-0.1,0-0.2,0.1-0.3,0.1
							s-0.2,0-0.2-0.1c-0.1-0.1-0.1-0.2-0.1-0.3L599.3,365.4L599.3,365.4z M605.9,366.5c0.2,0.1,0.4,0.2,0.6,0.3V381
							c0,0.1,0,0.2-0.1,0.3c-0.1,0-0.2,0.1-0.3,0.1c-0.1,0-0.1,0-0.2-0.1c-0.1-0.1-0.1-0.2-0.1-0.3v-14.5H605.9z M602.5,365.4
							c0.2,0,0.4,0,0.6,0.1v14.8c0,0.1,0,0.2-0.1,0.3c-0.1,0-0.2,0.1-0.3,0.1c-0.1,0-0.1,0-0.2-0.1c-0.1-0.1-0.2-0.2-0.2-0.3v-14.9
							H602.5z M611.8,372.2c0.2,0.4,0.5,0.8,0.6,1.3V384c0,0.1,0,0.1-0.1,0.2c-0.1,0.1-0.1,0.1-0.2,0.1c-0.1,0-0.2,0-0.2-0.1
							c-0.1-0.1-0.1-0.1-0.1-0.2V372.2z M609.2,368.8c0.2,0.2,0.4,0.4,0.6,0.6l0.1,0.1v13.4c0,0.1,0,0.2-0.1,0.3
							c-0.1,0-0.2,0.1-0.3,0.1s-0.1,0-0.2-0.1c-0.1-0.1-0.2-0.2-0.2-0.3v-14.1H609.2z"/>
					</g>
				</g>
				<g>
					<g>
						
							<radialGradient id="SVGID_27_" cx="66.9907" cy="79.9604" r="21.8375" gradientTransform="matrix(1.0452 0 0 0.9369 530.6345 307.3519)" gradientUnits="userSpaceOnUse">
							<stop  offset="0" style="stop-color:#0D0D0D"/>
							<stop  offset="0.4745" style="stop-color:#212D34"/>
							<stop  offset="1" style="stop-color:#495669"/>
						</radialGradient>
						<path fill="url(#SVGID_27_)" d="M612.5,383.7l0.1,3.4c-0.3,2.6-1.4,5-3.4,7c-2.2,2.3-4.9,3.4-8.2,3.4s-6-1.1-8.3-3.4
							c-2.3-2.2-3.4-4.9-3.4-8.2c0-0.2,0-0.4,0-0.6c0-0.6,0.1-1,0.1-1.5c0.1-0.6,0.3-1.1,0.5-1.6c0.5-1.7,1.4-3.2,2.8-4.6
							c2.2-2.2,5-3.3,8.3-3.3s6,1.1,8.2,3.3c1.6,1.5,2.6,3.3,3.1,5.2C612.2,383.1,612.3,383.4,612.5,383.7z"/>
						
							<line fill="none" stroke="#0000FF" stroke-linecap="round" stroke-linejoin="round" stroke-miterlimit="3" x1="612.5" y1="383.7" x2="612.6" y2="387.2"/>
					</g>
				</g>
				<g>
					<g>
						
							<radialGradient id="SVGID_28_" cx="67.8921" cy="108.6299" r="7.5625" gradientTransform="matrix(1.0451 -1.209184e-002 0 0.7963 530.6349 298.3658)" gradientUnits="userSpaceOnUse">
							<stop  offset="0" style="stop-color:#535360"/>
							<stop  offset="0.4235" style="stop-color:#2A2A31"/>
							<stop  offset="1" style="stop-color:#000000"/>
						</radialGradient>
						<path fill="url(#SVGID_28_)" d="M597.5,389.8c-1-1-1.5-2.2-1.5-3.7s0.5-2.7,1.5-3.7c1-1.1,2.3-1.6,3.8-1.6
							c1.4,0,2.6,0.5,3.7,1.5c1,1,1.6,2.2,1.6,3.7s-0.5,2.7-1.6,3.7c-1,1.1-2.2,1.6-3.7,1.6S598.6,390.8,597.5,389.8z"/>
					</g>
				</g>
				<g>
					<path fill="#141C1F" d="M594.6,374.8c0.4-0.4,0.6-0.9,0.5-1.3c1.2-0.5,2.5-0.9,4-1.2c0.1,0.2,0.2,0.4,0.3,0.5
						c0.3,0.3,0.7,0.4,1.2,0.4h0.1c0.6,0,1-0.2,1.4-0.5c0.1-0.1,0.2-0.3,0.3-0.5c1.3,0.1,2.6,0.5,3.8,0.9c0,0.5,0.2,0.9,0.6,1.3
						c0.1,0.1,0.2,0.2,0.4,0.3c0.2,0.2,0.6,0.2,0.9,0.2c0.3,0,0.6-0.1,0.9-0.3c0.4,0.3,0.8,0.6,1.2,1c0.5,0.6,1,1.1,1.6,1.7
						c-0.2,0.3-0.3,0.7-0.3,1.1c0,0.3,0.1,0.6,0.2,0.9c0.1,0.1,0.3,0.2,0.4,0.4c0.3,0.4,0.8,0.5,1.3,0.5h0.1
						c0.4,1.1,0.7,2.3,0.9,3.6c-0.2,0.1-0.4,0.2-0.6,0.4c-0.3,0.4-0.5,0.8-0.5,1.3c0.1,0.6,0.3,1,0.6,1.3c0.2,0.2,0.4,0.3,0.6,0.4
						c-0.1,1.2-0.4,2.4-0.9,3.5h-0.1c-0.5,0-0.9,0.2-1.2,0.6c-0.1,0.1-0.1,0.2-0.2,0.3c-0.3,0.3-0.4,0.7-0.3,1c0,0.4,0.1,0.7,0.3,1
						c-0.3,0.4-0.7,0.8-1,1.1c-0.5,0.5-0.9,1-1.4,1.4c-0.2-0.2-0.6-0.3-1-0.3c-0.3,0-0.6,0.1-0.9,0.3c-0.1,0-0.2,0.1-0.3,0.3
						c-0.4,0.3-0.6,0.8-0.6,1.3l0.1,0.1c-1,0.5-2.1,0.8-3.2,0.9c-0.1-0.1-0.2-0.2-0.3-0.3c-0.4-0.3-0.9-0.5-1.5-0.5h-0.1
						c-0.4,0-0.8,0.2-1,0.6c-0.1,0.1-0.2,0.2-0.3,0.4c-1.3,0-2.5-0.2-3.6-0.6c0-0.5-0.2-0.9-0.6-1.3c-0.1-0.1-0.3-0.2-0.5-0.3
						c-0.3-0.1-0.6-0.2-0.9-0.2s-0.6,0.2-0.9,0.4c-0.7-0.4-1.3-0.9-1.9-1.5c-0.3-0.2-0.6-0.5-0.8-0.9c0.1-0.3,0.2-0.6,0.2-1
						s-0.1-0.7-0.3-1c-0.1-0.1-0.2-0.2-0.3-0.3c-0.4-0.3-0.9-0.4-1.4-0.4c-0.1,0-0.1,0-0.2,0c-0.6-1.2-1-2.4-1.3-3.7
						c0.1-0.1,0.2-0.2,0.4-0.4c0.4-0.3,0.6-0.7,0.5-1.2v-0.1c0-0.6-0.2-1-0.6-1.4c-0.1-0.1-0.3-0.2-0.5-0.4c0-1.3,0.2-2.5,0.6-3.6
						c0.5-0.1,1-0.3,1.3-0.6c0.1-0.1,0.1-0.2,0.2-0.4c0.2-0.3,0.3-0.6,0.3-0.9c0-0.3-0.1-0.7-0.3-1c0.4-0.5,0.8-1.1,1.3-1.7
						c0.4-0.4,0.9-0.8,1.5-1.3c0.2,0.1,0.5,0.1,0.7,0.1c0.3,0,0.6-0.1,0.9-0.3C594.4,375.1,594.5,375,594.6,374.8z M594.9,376.3
						c-0.7,0.5-1.4,1.1-2.1,1.8c-0.7,0.8-1.3,1.7-1.7,2.7c-0.8,1.6-1.2,3.4-1.1,5.4c0,0.1,0,0.3,0,0.4c0.2,2.1,0.8,3.9,1.9,5.5
						c0.5,0.7,1,1.3,1.7,1.8c0.8,0.8,1.8,1.4,2.8,1.9c1.6,0.8,3.3,1.1,5.2,1c0.1,0,0.2,0,0.2,0c2-0.1,3.8-0.6,5.3-1.6
						c0.8-0.6,1.5-1.2,2.2-2c0.6-0.7,1.2-1.4,1.6-2.1c0.9-1.7,1.4-3.6,1.3-5.6c0-0.1,0-0.3,0-0.4c-0.1-1.9-0.5-3.6-1.4-5.1
						c-0.6-1-1.3-1.9-2.2-2.7c-0.7-0.6-1.4-1.1-2-1.5c-1.8-0.9-3.7-1.4-5.9-1.3c0,0-0.1,0-0.2,0
						C598.5,374.6,596.6,375.2,594.9,376.3z"/>
				</g>
				<g>
					
						<radialGradient id="SVGID_29_" cx="67.9404" cy="-18.9507" r="1.3992" gradientTransform="matrix(1.0452 0 0 2.8555 530.6345 438.6258)" gradientUnits="userSpaceOnUse">
						<stop  offset="0" style="stop-color:#FFFFFF"/>
						<stop  offset="0.1765" style="stop-color:#FFFFFF"/>
						<stop  offset="0.3059" style="stop-color:#FFFFFF;stop-opacity:0.4235"/>
						<stop  offset="0.4902" style="stop-color:#FFFFFF;stop-opacity:0.2314"/>
						<stop  offset="0.651" style="stop-color:#FFFFFF;stop-opacity:8.235294e-002"/>
						<stop  offset="1" style="stop-color:#FFFFFF;stop-opacity:0"/>
					</radialGradient>
					<path fill="url(#SVGID_29_)" d="M600.6,387.3c-0.3-0.7-0.4-1.6-0.4-2.8c0-1.1,0.1-2,0.4-2.7c0.3-0.8,0.6-1.2,1-1.2
						c0.4,0,0.7,0.4,1,1.2c0.3,0.7,0.4,1.6,0.4,2.7s-0.1,2.1-0.4,2.8c-0.3,0.8-0.7,1.2-1,1.2C601.3,388.5,601,388.1,600.6,387.3z"/>
				</g>
				<g>
					
						<radialGradient id="SVGID_30_" cx="309.9307" cy="-33.2236" r="1.2165" gradientTransform="matrix(-8.646691e-002 1.0416 -3.9841 -0.3307 494.1371 62.8845)" gradientUnits="userSpaceOnUse">
						<stop  offset="0" style="stop-color:#FFFFFF"/>
						<stop  offset="0.1765" style="stop-color:#FFFFFF"/>
						<stop  offset="0.3059" style="stop-color:#FFFFFF;stop-opacity:0.4235"/>
						<stop  offset="0.4902" style="stop-color:#FFFFFF;stop-opacity:0.2314"/>
						<stop  offset="0.651" style="stop-color:#FFFFFF;stop-opacity:8.235294e-002"/>
						<stop  offset="1" style="stop-color:#FFFFFF;stop-opacity:0"/>
					</radialGradient>
					<path fill="url(#SVGID_30_)" d="M599.6,397.9c-1.4-0.1-2.5-0.3-3.3-0.6c-0.9-0.3-1.4-0.7-1.4-1s0.5-0.6,1.5-0.8
						c0.9-0.2,2.1-0.2,3.4-0.1c1.3,0.1,2.4,0.3,3.2,0.6c0.9,0.3,1.4,0.7,1.4,1s-0.5,0.6-1.5,0.8C602,398.1,600.9,398.1,599.6,397.9z
						"/>
				</g>
			</g>
			<g>
				<path fill="#222C74" d="M580.8,319.1h-3.2v1.8h2.8v0.7h-2.8v2.7h-0.8v-6h4V319.1z M583.5,320.6c-0.3,0-0.6,0.1-0.9,0.4
					c-0.2,0.3-0.4,0.7-0.4,1.3c0,0.5,0.1,0.9,0.4,1.2c0.2,0.3,0.5,0.4,0.9,0.4s0.7-0.1,0.9-0.4c0.2-0.3,0.4-0.7,0.4-1.3
					c0-0.5-0.1-0.9-0.4-1.2C584.2,320.7,583.9,320.6,583.5,320.6z M583.5,324.5c-0.6,0-1.1-0.2-1.5-0.6s-0.6-0.9-0.6-1.7
					c0-0.8,0.2-1.4,0.7-1.8c0.4-0.3,0.8-0.5,1.4-0.5s1.1,0.2,1.5,0.6s0.6,1,0.6,1.6s-0.1,1-0.3,1.4c-0.2,0.3-0.4,0.6-0.7,0.7
					C584.2,324.4,583.9,324.5,583.5,324.5z M592.3,318.4v5.3h2.9v0.7h-3.7v-6H592.3z M587.1,320.1v0.7c0.2-0.3,0.3-0.5,0.5-0.6
					c0.1-0.1,0.3-0.2,0.5-0.2c0.2,0,0.5,0.1,0.7,0.3l-0.2,0.7c-0.2-0.1-0.4-0.2-0.6-0.2c-0.1,0-0.3,0.1-0.4,0.2
					c-0.1,0.1-0.2,0.2-0.3,0.4c-0.1,0.3-0.2,0.6-0.2,0.9v2.2h-0.7v-4.3h0.7V320.1z M549.3,404.9h1.1v6h-1.2l-2.5-3.9v3.9h-1.1v-6
					h1.1l2.5,4L549.3,404.9L549.3,404.9z M544.5,404.9v6h-1.2v-6H544.5z M540.4,408.6l-0.8-2.2l-0.8,2.2H540.4z M540.3,404.9l2.4,6
					h-1.3l-0.5-1.4h-2.4l-0.5,1.4h-1.3l2.4-6H540.3z M534.9,406.8c-0.1-0.3-0.2-0.5-0.5-0.7c-0.2-0.2-0.5-0.3-0.8-0.3
					c-0.6,0-1,0.2-1.3,0.5s-0.5,0.8-0.5,1.5s0.2,1.3,0.5,1.6c0.3,0.3,0.7,0.5,1.2,0.5c0.3,0,0.5-0.1,0.8-0.2
					c0.3-0.1,0.5-0.2,0.6-0.4v-0.7h-1.4v-1h2.6v2.4c-0.2,0.2-0.6,0.5-1.1,0.7s-1,0.3-1.5,0.3c-0.6,0-1.2-0.1-1.7-0.4
					c-0.5-0.2-0.8-0.6-1-1.1s-0.3-1-0.3-1.6c0-0.6,0.1-1.2,0.4-1.6c0.3-0.5,0.7-0.9,1.1-1.1s0.9-0.3,1.5-0.3c0.7,0,1.3,0.2,1.7,0.5
					c0.4,0.3,0.7,0.7,0.8,1.3L534.9,406.8z M591.8,409.5l-0.5,1.4H590l2.4-6h1.3l2.4,6h-1.3l-0.5-1.4H591.8z M593,406.3l-0.8,2.2
					h1.6L593,406.3z M616.9,323.8c-0.1,0.2-0.3,0.4-0.6,0.5c-0.3,0.1-0.6,0.2-0.9,0.2c-0.6,0-1-0.1-1.3-0.4c-0.3-0.2-0.5-0.6-0.6-1
					l0.7-0.1c0,0.3,0.1,0.5,0.3,0.7c0.2,0.1,0.5,0.2,0.8,0.2s0.6-0.1,0.8-0.2c0.1-0.1,0.2-0.3,0.2-0.5c0-0.2-0.1-0.3-0.2-0.4
					c-0.1-0.1-0.3-0.2-0.7-0.3c-0.6-0.1-0.9-0.3-1.1-0.4s-0.4-0.2-0.5-0.4c-0.1-0.2-0.2-0.4-0.2-0.6c0-0.2,0.1-0.3,0.2-0.5
					c0.1-0.2,0.2-0.3,0.4-0.4c0.1-0.1,0.3-0.1,0.5-0.2s0.4-0.1,0.6-0.1c0.3,0,0.6,0.1,0.9,0.2c0.2,0.1,0.4,0.2,0.6,0.4
					c0.1,0.1,0.2,0.3,0.3,0.6l-0.7,0.1c0-0.2-0.1-0.4-0.3-0.5c-0.2-0.1-0.4-0.2-0.7-0.2c-0.3,0-0.6,0.1-0.7,0.2
					c-0.1,0.1-0.2,0.2-0.2,0.4c0,0.1,0,0.2,0.1,0.3c0,0.1,0.1,0.2,0.3,0.2c0.1,0,0.3,0.1,0.6,0.2c0.5,0.1,0.9,0.2,1.1,0.3
					c0.2,0.1,0.4,0.2,0.5,0.4c0.1,0.1,0.2,0.3,0.2,0.6C617.2,323.4,617.1,323.6,616.9,323.8z M603.4,320.1v2.4c0,0.4,0,0.6,0.1,0.8
					c0,0.2,0.1,0.3,0.3,0.5c0.1,0.1,0.3,0.2,0.5,0.2s0.5-0.1,0.6-0.2c0.2-0.1,0.3-0.3,0.4-0.5c0.1-0.2,0.1-0.5,0.1-0.9v-2.3h0.8v4.3
					h-0.7v-0.6c-0.3,0.5-0.8,0.7-1.4,0.7c-0.3,0-0.5-0.1-0.7-0.2c-0.2-0.1-0.4-0.2-0.5-0.4c-0.1-0.1-0.2-0.3-0.2-0.5
					c0-0.2-0.1-0.4-0.1-0.7V320h0.8V320.1L603.4,320.1z M601.5,320.1v6h-0.8V324c-0.1,0.2-0.3,0.3-0.5,0.4s-0.4,0.2-0.6,0.2
					c-0.5,0-1-0.2-1.4-0.6c-0.3-0.4-0.5-1-0.5-1.7c0-0.5,0.1-0.9,0.2-1.2c0.1-0.3,0.4-0.6,0.7-0.8c0.3-0.2,0.6-0.3,0.9-0.3
					c0.5,0,0.9,0.2,1.3,0.7v-0.6H601.5z M596.9,320.1v4.3h-0.7v-4.3H596.9z M596.2,319.3v-0.9h0.7v0.9H596.2z M599.7,320.6
					c-0.3,0-0.6,0.1-0.8,0.4c-0.2,0.3-0.3,0.7-0.3,1.3c0,0.6,0.1,1,0.4,1.3c0.2,0.3,0.5,0.4,0.8,0.4s0.6-0.1,0.8-0.4
					c0.2-0.3,0.4-0.7,0.4-1.2c0-0.6-0.1-1-0.4-1.3C600.2,320.7,600,320.6,599.7,320.6z M612.7,318.4v6H612v-0.5
					c-0.3,0.4-0.7,0.6-1.2,0.6c-0.3,0-0.7-0.1-0.9-0.3c-0.3-0.2-0.5-0.4-0.7-0.8c-0.2-0.3-0.3-0.7-0.3-1.1c0-0.5,0.1-0.9,0.3-1.2
					c0.1-0.3,0.3-0.6,0.6-0.8c0.3-0.2,0.6-0.3,1-0.3c0.2,0,0.5,0.1,0.7,0.2c0.2,0.1,0.4,0.3,0.5,0.5v-2.2h0.7V318.4L612.7,318.4z
					 M607.3,318.4h0.7v0.9h-0.7V318.4z M608.1,320.1v4.3h-0.7v-4.3H608.1z M609.7,322.3c0,0.6,0.1,1,0.4,1.2
					c0.2,0.3,0.5,0.4,0.8,0.4c0.3,0,0.6-0.1,0.8-0.4s0.4-0.7,0.4-1.2c0-0.6-0.1-1-0.4-1.3c-0.2-0.3-0.5-0.4-0.8-0.4
					c-0.3,0-0.6,0.1-0.8,0.4C609.8,321.2,609.7,321.7,609.7,322.3z M606.1,408.7c0,0.5,0,0.9-0.1,1.1c-0.1,0.3-0.4,0.6-0.7,0.8
					c-0.3,0.2-0.7,0.3-1.2,0.3c-0.6,0-1-0.2-1.4-0.5c-0.3-0.3-0.5-0.8-0.5-1.5l1.1-0.2c0,0.3,0,0.6,0.1,0.7c0.1,0.2,0.3,0.3,0.6,0.3
					s0.5-0.1,0.6-0.2c0.1-0.2,0.2-0.5,0.2-1v-3.9h1.2L606.1,408.7L606.1,408.7z M607.3,409.8h1.1v1.1h-1.1V409.8z M601.5,406.6
					c0.1,0.4,0.2,0.9,0.2,1.4s-0.1,0.9-0.2,1.3c-0.1,0.5-0.3,0.8-0.6,1c-0.2,0.2-0.5,0.4-0.8,0.5c-0.3,0.1-0.6,0.1-1.1,0.1h-2.2v-6
					h2.2c0.5,0,0.9,0.1,1.1,0.2c0.3,0.1,0.6,0.3,0.9,0.5C601.2,405.9,601.3,406.2,601.5,406.6z M598.4,405.9h-0.5v4h0.9
					c0.3,0,0.6,0,0.7-0.1c0.2-0.1,0.4-0.2,0.5-0.3s0.2-0.3,0.3-0.6c0.1-0.3,0.2-0.6,0.2-1.1s-0.1-0.8-0.2-1.1
					c-0.1-0.2-0.2-0.4-0.3-0.6c-0.1-0.1-0.3-0.2-0.6-0.3C599.2,406,598.9,405.9,598.4,405.9z M579.5,468.8v3.3c0,0.5,0,0.8,0,1
					c0.1,0.2,0.2,0.4,0.4,0.6c0.2,0.1,0.4,0.2,0.8,0.2c0.4,0,0.6-0.1,0.8-0.2c0.2-0.1,0.3-0.3,0.3-0.5s0.1-0.5,0.1-1v-3.3h1.2v3.2
					c0,0.7,0,1.2-0.1,1.5c-0.1,0.3-0.2,0.5-0.4,0.7c-0.2,0.2-0.4,0.4-0.7,0.5c-0.3,0.1-0.7,0.2-1.1,0.2c-0.6,0-1-0.1-1.3-0.2
					c-0.3-0.1-0.6-0.3-0.7-0.5c-0.2-0.2-0.3-0.4-0.3-0.6c-0.1-0.3-0.2-0.9-0.2-1.5V469h1.2V468.8z M577.2,470.7
					c0,0.3-0.1,0.6-0.2,0.9c-0.1,0.3-0.3,0.5-0.5,0.6c-0.2,0.1-0.4,0.2-0.6,0.3c-0.3,0.1-0.7,0.1-1.3,0.1h-0.8v2.2h-1.2v-6h1.9
					c0.7,0,1.2,0,1.4,0.1c0.3,0.1,0.6,0.3,0.9,0.6C577.1,469.8,577.2,470.2,577.2,470.7z M575.9,471.2c0.1-0.1,0.2-0.3,0.2-0.5
					s-0.1-0.4-0.2-0.5c-0.1-0.1-0.3-0.2-0.5-0.3c-0.2,0-0.5-0.1-0.9-0.1h-0.6v1.7h0.6c0.5,0,0.8,0,1-0.1
					C575.6,471.4,575.8,471.3,575.9,471.2z M578.4,479.8h4.3v0.9l-3.2,4.1h3.4v1H578v-1.1l3.1-3.9h-2.8v-1H578.4z M577.2,479.8v6
					H576v-2.6h-2.4v2.6h-1.2v-6h1.2v2.4h2.4v-2.4H577.2z M586.9,469.9v5h-1.3v-5h-1.8v-1h4.8v1H586.9z M571.9,468.8v1h-1.7v5h-1.3
					v-5h-1.8v-1H571.9z M566.3,468.8v3.2c0,0.7,0,1.2-0.1,1.5c-0.1,0.3-0.2,0.5-0.4,0.7s-0.4,0.4-0.7,0.5c-0.3,0.1-0.7,0.2-1.1,0.2
					c-0.6,0-1-0.1-1.3-0.2c-0.3-0.1-0.6-0.3-0.7-0.5c-0.2-0.2-0.3-0.4-0.3-0.6c-0.1-0.3-0.2-0.9-0.2-1.5v-3.2h1.3v3.3
					c0,0.5,0,0.8,0,1c0.1,0.2,0.2,0.4,0.4,0.6c0.2,0.1,0.4,0.2,0.8,0.2c0.3,0,0.6-0.1,0.8-0.2c0.2-0.1,0.3-0.3,0.3-0.5
					s0.1-0.5,0.1-1V469h1.1V468.8L566.3,468.8z M560.6,471.8c0,1-0.3,1.7-0.8,2.2c-0.5,0.6-1.2,0.8-2.1,0.8c-0.9,0-1.6-0.3-2.1-0.8
					s-0.8-1.3-0.8-2.2c0-0.6,0.1-1.1,0.3-1.5c0.1-0.3,0.3-0.6,0.6-0.8c0.2-0.2,0.5-0.4,0.8-0.5s0.8-0.2,1.3-0.2
					c0.9,0,1.6,0.3,2.1,0.8C560.3,470.1,560.6,470.9,560.6,471.8z M558.9,470.3c-0.3-0.3-0.7-0.5-1.2-0.5s-0.9,0.2-1.2,0.5
					s-0.5,0.9-0.5,1.6c0,0.7,0.2,1.2,0.5,1.5c0.3,0.3,0.7,0.5,1.2,0.5s0.8-0.2,1.1-0.5c0.3-0.3,0.5-0.9,0.5-1.6
					S559.2,470.6,558.9,470.3z M563.1,480.9c-0.1-0.1-0.3-0.2-0.6-0.2s-0.4,0.1-0.6,0.2c-0.1,0.1-0.2,0.4-0.3,0.7l-1.1-0.1
					c0.1-0.6,0.3-1.1,0.6-1.4c0.3-0.3,0.8-0.4,1.4-0.4s1,0.2,1.4,0.5c0.3,0.3,0.5,0.7,0.5,1.2c0,0.3-0.1,0.5-0.2,0.8
					c-0.1,0.2-0.3,0.5-0.5,0.7c-0.1,0.2-0.4,0.4-0.7,0.8c-0.3,0.3-0.6,0.5-0.7,0.7c-0.1,0.1-0.2,0.2-0.3,0.3h2.3v1h-4
					c0-0.4,0.2-0.8,0.4-1.1c0.2-0.3,0.7-0.8,1.3-1.4c0.5-0.5,0.8-0.8,0.9-1c0.2-0.2,0.3-0.5,0.3-0.7S563.3,481.1,563.1,480.9z
					 M567.3,479.8l1.1,4.1l1-4.1h1.8v6H570v-4.7l-1.1,4.7h-1.2l-1.1-4.7v4.7h-1.1v-6H567.3z"/>
			</g>
			<g>
				
					<radialGradient id="SVGID_31_" cx="-280.0093" cy="45.125" r="7.0989" gradientTransform="matrix(1.0452 0 0 1.0452 530.6345 314.9807)" gradientUnits="userSpaceOnUse">
					<stop  offset="0" style="stop-color:#FD2424"/>
					<stop  offset="1" style="stop-color:#520000"/>
				</radialGradient>
				<path fill="url(#SVGID_31_)" d="M244.1,360.1c0,1.3-0.5,2.4-1.4,3.3c-0.9,0.9-2,1.4-3.3,1.4c-1.3,0-2.4-0.5-3.3-1.4
					c-0.9-0.9-1.4-2-1.4-3.3c0-1.3,0.5-2.5,1.4-3.4c0.9-0.9,2.1-1.4,3.3-1.4c1.3,0,2.4,0.5,3.3,1.4
					C243.6,357.7,244.1,358.8,244.1,360.1z"/>
				<g>
					<g>
						<g>
							<g>
								
									<linearGradient id="SVGID_32_" gradientUnits="userSpaceOnUse" x1="-285.0342" y1="38.8633" x2="-272.3853" y2="38.8633" gradientTransform="matrix(1.0452 0 0 1.0452 530.6345 314.9807)">
									<stop  offset="0" style="stop-color:#696971"/>
									<stop  offset="0.1725" style="stop-color:#B0B0B5"/>
									<stop  offset="0.4784" style="stop-color:#888891"/>
									<stop  offset="0.6745" style="stop-color:#787880"/>
									<stop  offset="0.8667" style="stop-color:#F2F2F2"/>
									<stop  offset="1" style="stop-color:#6B6B6F"/>
									<stop  offset="1" style="stop-color:#3B3B40"/>
									<stop  offset="1" style="stop-color:#6B6B6F"/>
								</linearGradient>
								<path fill="url(#SVGID_32_)" d="M245.9,359.3c-0.1-1.5-0.8-2.8-1.9-3.9c-1.3-1.3-2.9-1.9-4.7-1.9c-1.8,0-3.4,0.6-4.7,1.9
									c-1.1,1.1-1.7,2.4-1.9,3.9c0-0.2-0.1-0.5-0.1-0.8c0-1.8,0.6-3.4,1.9-4.7s2.8-1.9,4.7-1.9c1.8,0,3.4,0.6,4.7,1.9
									c1.3,1.3,1.9,2.9,1.9,4.7C246,358.8,246,359.1,245.9,359.3z"/>
								
									<linearGradient id="SVGID_33_" gradientUnits="userSpaceOnUse" x1="-278.5923" y1="35.8887" x2="-278.5923" y2="47.8637" gradientTransform="matrix(1.0452 0 0 1.0452 530.6345 314.9807)">
									<stop  offset="0" style="stop-color:#575350"/>
									<stop  offset="0.3961" style="stop-color:#54504D"/>
									<stop  offset="1" style="stop-color:#353231"/>
								</linearGradient>
								<path fill="url(#SVGID_33_)" d="M232.8,359.3c0.1-1.5,0.8-2.8,1.9-3.9c1.3-1.3,2.8-1.9,4.7-1.9c1.8,0,3.4,0.6,4.7,1.9
									c1.1,1.1,1.7,2.4,1.9,3.9c0,0.2,0.1,0.5,0.1,0.8c0,1.8-0.6,3.4-1.9,4.7c-1.3,1.3-2.9,1.9-4.7,1.9s-3.4-0.6-4.7-1.9
									c-1.3-1.3-1.9-2.8-1.9-4.7C232.8,359.8,232.8,359.6,232.8,359.3z M239.3,355.4c-1.3,0-2.4,0.5-3.3,1.4
									c-0.9,0.9-1.4,2.1-1.4,3.4s0.5,2.4,1.4,3.3s2.1,1.4,3.3,1.4c1.3,0,2.4-0.5,3.3-1.4s1.4-2,1.4-3.3s-0.5-2.5-1.4-3.4
									C241.8,355.8,240.7,355.4,239.3,355.4z"/>
								
									<radialGradient id="SVGID_34_" cx="-278.7095" cy="43.1768" r="4.5373" gradientTransform="matrix(1.0452 0 0 1.0452 530.6345 314.9807)" gradientUnits="userSpaceOnUse">
									<stop  offset="0" style="stop-color:#461F18"/>
									<stop  offset="1" style="stop-color:#2F1A17"/>
								</radialGradient>
								<path fill="url(#SVGID_34_)" d="M239.3,355.4c1.3,0,2.4,0.5,3.3,1.4c0.9,0.9,1.4,2.1,1.4,3.4s-0.5,2.4-1.4,3.3
									s-2,1.4-3.3,1.4c-1.3,0-2.4-0.5-3.3-1.4s-1.4-2-1.4-3.3s0.5-2.5,1.4-3.4C236.9,355.8,238,355.4,239.3,355.4z"/>
							</g>
						</g>
						<g>
							
								<radialGradient id="SVGID_35_" cx="-277.2593" cy="41.1748" r="3.4863" gradientTransform="matrix(1.0452 0 0 1.0452 530.6345 314.9807)" gradientUnits="userSpaceOnUse">
								<stop  offset="0" style="stop-color:#FFFFFF"/>
								<stop  offset="0.1765" style="stop-color:#FFFFFF"/>
								<stop  offset="0.3059" style="stop-color:#FFFFFF;stop-opacity:0.4235"/>
								<stop  offset="0.4902" style="stop-color:#FFFFFF;stop-opacity:0.2314"/>
								<stop  offset="0.651" style="stop-color:#FFFFFF;stop-opacity:8.235294e-002"/>
								<stop  offset="1" style="stop-color:#FFFFFF;stop-opacity:0"/>
							</radialGradient>
							<path fill="url(#SVGID_35_)" d="M243.4,360.6c-0.7,0.7-1.6,1-2.6,1s-1.8-0.3-2.6-1c-0.7-0.7-1-1.5-1-2.6c0-1,0.3-1.8,1-2.5
								c0.7-0.7,1.6-1.1,2.6-1.1s1.8,0.4,2.6,1.1c0.7,0.7,1,1.5,1,2.5C244.5,359.1,244.1,359.9,243.4,360.6z"/>
						</g>
						<g>
							
								<radialGradient id="SVGID_36_" cx="-256.5254" cy="269.228" r="3.5366" gradientTransform="matrix(1.0338 0.1535 -6.196640e-002 0.4175 522.578 280.6469)" gradientUnits="userSpaceOnUse">
								<stop  offset="0" style="stop-color:#FFFFFF"/>
								<stop  offset="0.1765" style="stop-color:#FFFFFF"/>
								<stop  offset="0.3059" style="stop-color:#FFFFFF;stop-opacity:0.4235"/>
								<stop  offset="0.4902" style="stop-color:#FFFFFF;stop-opacity:0.2314"/>
								<stop  offset="0.651" style="stop-color:#FFFFFF;stop-opacity:8.235294e-002"/>
								<stop  offset="1" style="stop-color:#FFFFFF;stop-opacity:0"/>
							</radialGradient>
							<path fill="url(#SVGID_36_)" d="M240.9,352.2c1,0.1,1.8,0.4,2.5,0.8c0.7,0.4,1,0.8,0.9,1.1c-0.1,0.4-0.5,0.7-1.3,0.9
								s-1.6,0.2-2.6,0.1c-1-0.1-1.8-0.4-2.5-0.8c-0.6-0.4-0.9-0.8-0.8-1.2c0.1-0.4,0.5-0.7,1.1-0.8
								C239.1,352.1,239.9,352.1,240.9,352.2z"/>
						</g>
					</g>
				</g>
			</g>
			<g>
				<path fill="#222C74" d="M233.8,443.4c0-0.6,0.1-1.1,0.3-1.5c0.1-0.3,0.3-0.6,0.6-0.8c0.2-0.2,0.5-0.4,0.8-0.5
					c0.3-0.1,0.8-0.2,1.3-0.2c0.9,0,1.6,0.3,2.1,0.8c0.5,0.6,0.8,1.3,0.8,2.3s-0.3,1.7-0.8,2.2c-0.5,0.6-1.2,0.8-2.1,0.8
					c-0.9,0-1.6-0.3-2.1-0.8C234.1,445.1,233.8,444.3,233.8,443.4z M249.8,441.4h-2.9v1.4h2.5v1h-2.5v2.6h-1.2v-6h4.1V441.4
					L249.8,441.4z M236.8,441.3c-0.5,0-0.9,0.2-1.2,0.5c-0.3,0.3-0.5,0.9-0.5,1.6c0,0.7,0.2,1.2,0.5,1.5c0.3,0.3,0.7,0.5,1.2,0.5
					s0.8-0.2,1.1-0.5c0.3-0.3,0.5-0.9,0.5-1.6s-0.1-1.2-0.4-1.5C237.7,441.4,237.3,441.3,236.8,441.3z M244.7,440.3v1h-2.9v1.4h2.5
					v1h-2.5v2.6h-1.2v-6H244.7z M236.8,479.7c-0.3,0.3-0.5,0.9-0.5,1.6s0.2,1.2,0.5,1.5c0.3,0.3,0.7,0.5,1.2,0.5s0.8-0.2,1.1-0.5
					c0.3-0.3,0.5-0.9,0.5-1.6s-0.1-1.2-0.4-1.5c-0.3-0.3-0.7-0.5-1.2-0.5S237.1,479.4,236.8,479.7z M236.7,478.4
					c0.3-0.1,0.8-0.2,1.3-0.2c0.9,0,1.6,0.3,2.1,0.8c0.5,0.6,0.8,1.3,0.8,2.3s-0.3,1.7-0.8,2.2c-0.5,0.6-1.2,0.8-2.1,0.8
					s-1.6-0.3-2.1-0.8s-0.8-1.3-0.8-2.2c0-0.6,0.1-1.1,0.3-1.5c0.1-0.3,0.3-0.6,0.6-0.8C236.2,478.7,236.4,478.5,236.7,478.4z
					 M243,478.3l2.5,4v-4h1.1v6h-1.2l-2.5-3.9v3.9h-1.1v-6H243z"/>
			</g>
			<g>
				<g>
					
						<linearGradient id="SVGID_37_" gradientUnits="userSpaceOnUse" x1="138.0879" y1="288.6455" x2="156.9975" y2="288.6455" gradientTransform="matrix(8.290642e-002 1.0419 -1.0489 -5.141489e-003 531.5968 313.9384)">
						<stop  offset="0" style="stop-color:#040404"/>
						<stop  offset="1" style="stop-color:#000000;stop-opacity:0"/>
					</linearGradient>
					<rect x="232.1" y="461.1" fill="url(#SVGID_37_)" width="18.6" height="18.5"/>
				</g>
				<g>
					<g>
						<polygon fill="#838290" points="236.6,452.4 246.1,452.4 246.1,454.2 236.5,454.3 236.4,454.3 						"/>
						<polygon fill="#737281" points="236.5,454.3 231.8,462.4 231.8,460.6 236.5,452.4 236.6,452.4 236.4,454.3 						"/>
						<polygon fill="#4D4E52" points="250.8,462.6 246.1,454.2 246.1,452.4 250.8,460.6 						"/>
						
							<linearGradient id="SVGID_38_" gradientUnits="userSpaceOnUse" x1="-276.6929" y1="135.4131" x2="-276.9318" y2="152.3384" gradientTransform="matrix(1.0452 0 0 1.0452 530.6345 314.9807)">
							<stop  offset="0" style="stop-color:#636270"/>
							<stop  offset="1" style="stop-color:#2A292E"/>
						</linearGradient>
						<path fill="url(#SVGID_38_)" d="M231.8,462.4l4.7-8.1l9.7-0.1l4.7,8.4v0.1l-4.7,8.1l-9.7-0.1L231.8,462.4z M246.4,461.9
							l-2.3-4.1h-5.6l-2.2,3.9l-0.6,0.8l2.6,4.7l0.2,0.2h5.6l2.7-4.8l-0.1,0.1l-0.1-0.1L246.4,461.9z"/>
						<path fill="#1E1E1E" d="M244.1,465.7L244.1,465.7l2.3-3.8l0.3,0.7l0.1,0.1l0.1-0.1l-2.7,4.8v-1.7H244.1z M236.3,461.6l2.3,4.1
							h0.1l-0.4,1.5l-2.6-4.7L236.3,461.6z"/>
						<polygon points="244.1,465.7 239.4,465.7 238.7,465.7 238.6,465.7 236.3,461.6 238.5,457.7 244.1,457.7 246.4,461.9 
							244.2,465.7 						"/>
						<polygon fill="#232323" points="238.3,467.1 238.7,465.7 239.4,465.7 238.5,467.3 						"/>
						<polygon fill="#232226" points="239.4,465.7 244.1,465.7 244.1,467.3 238.5,467.3 						"/>
					</g>
				</g>
				<g>
					
						<radialGradient id="SVGID_39_" cx="-273.6094" cy="224.9224" r="2.625" gradientTransform="matrix(1.0452 0 0 0.6221 530.6345 314.3036)" gradientUnits="userSpaceOnUse">
						<stop  offset="0" style="stop-color:#FFFFFF"/>
						<stop  offset="0.1765" style="stop-color:#FFFFFF"/>
						<stop  offset="0.3059" style="stop-color:#FFFFFF;stop-opacity:0.4235"/>
						<stop  offset="0.4902" style="stop-color:#FFFFFF;stop-opacity:0.2314"/>
						<stop  offset="0.651" style="stop-color:#FFFFFF;stop-opacity:8.235294e-002"/>
						<stop  offset="1" style="stop-color:#FFFFFF;stop-opacity:0"/>
					</radialGradient>
					<path fill="url(#SVGID_39_)" d="M247.4,454.2c0,0.4-0.3,0.8-0.8,1.1c-0.6,0.4-1.2,0.6-1.9,0.6c-0.7,0-1.4-0.2-1.9-0.6
						c-0.5-0.3-0.7-0.7-0.7-1.1c0-0.4,0.2-0.8,0.7-1.1c0.6-0.3,1.2-0.5,1.9-0.5c0.7,0,1.4,0.2,1.9,0.5
						C247.2,453.4,247.4,453.8,247.4,454.2z"/>
				</g>
				<g>
					<g>
						
							<radialGradient id="SVGID_40_" cx="-276.8696" cy="133.3257" r="4.6847" gradientTransform="matrix(1.0452 0 0 1.0452 530.6345 314.9807)" gradientUnits="userSpaceOnUse">
							<stop  offset="0" style="stop-color:#FFFFFF"/>
							<stop  offset="0.4314" style="stop-color:#F4F4F4;stop-opacity:0.6314"/>
							<stop  offset="0.7529" style="stop-color:#F1F1F1;stop-opacity:0.3333"/>
							<stop  offset="1" style="stop-color:#EEEEEE;stop-opacity:0"/>
						</radialGradient>
						<path fill="url(#SVGID_40_)" d="M236.1,454.4l0.1-0.1c-0.1-0.1-0.1-0.1,0-0.2c0.1,0,0.1,0,0.2,0h9.7c0.1,0,0.1,0,0.2,0
							c0.1,0.1,0.1,0.1,0.1,0.2c0,0.1,0,0.1-0.1,0.2c-0.1,0.1-0.1,0.1-0.2,0.1h-9.7h-0.1C236.3,454.6,236.3,454.6,236.1,454.4
							L236.1,454.4z"/>
						
							<radialGradient id="SVGID_41_" cx="-283.5605" cy="137.0259" r="4.2261" gradientTransform="matrix(1.0452 0 0 1.0452 530.6345 314.9807)" gradientUnits="userSpaceOnUse">
							<stop  offset="0" style="stop-color:#FFFFFF"/>
							<stop  offset="0.4314" style="stop-color:#F4F4F4;stop-opacity:0.6314"/>
							<stop  offset="0.7529" style="stop-color:#F1F1F1;stop-opacity:0.3333"/>
							<stop  offset="1" style="stop-color:#EEEEEE;stop-opacity:0"/>
						</radialGradient>
						<path fill="url(#SVGID_41_)" d="M236.1,454.4L236.1,454.4c0.1,0.1,0.2,0.2,0.3,0.2h0.1l-4.6,7.4L236.1,454.4z M232.2,462.3
							c-0.1,0-0.1,0-0.2-0.1c-0.1,0-0.1,0-0.1-0.1C232.1,462.2,232.2,462.3,232.2,462.3z"/>
						
							<radialGradient id="SVGID_42_" cx="-278.0098" cy="143.4268" r="4.762" gradientTransform="matrix(1.0452 0 0 1.0452 530.6345 314.9807)" gradientUnits="userSpaceOnUse">
							<stop  offset="0" style="stop-color:#FFFFFF"/>
							<stop  offset="0.4314" style="stop-color:#F4F4F4;stop-opacity:0.6314"/>
							<stop  offset="0.7529" style="stop-color:#F1F1F1;stop-opacity:0.3333"/>
							<stop  offset="1" style="stop-color:#EEEEEE;stop-opacity:0"/>
						</radialGradient>
						<path fill="url(#SVGID_42_)" d="M235.7,462.3c0-0.1,0.1-0.1,0.2,0l0.1,0.1l2.6,4.7h5.6c0-0.1,0.1-0.1,0.2,0
							c0.1,0,0.1,0.1,0.1,0.2c0,0.1,0,0.1-0.1,0.2s-0.1,0.1-0.2,0.1h-5.7l-0.1-0.1h-0.1l-2.7-4.8c-0.1-0.1-0.1-0.1,0-0.2
							C235.6,462.5,235.6,462.4,235.7,462.3z"/>
					</g>
				</g>
			</g>
			<g>
				<g>
					<path fill="none" d="M295,401.7c1.7-2.1,3.5-4,5.4-5.9c20.2-20,44.5-30,73-30s52.7,10,72.7,30c1.9,1.9,3.8,3.8,5.6,5.9"/>
					
						<path fill="none" stroke="#4B4D68" stroke-width="0.1" stroke-linecap="round" stroke-linejoin="round" stroke-miterlimit="3" d="
						M291.5,398.3c1.7-2.1,3.6-4.1,5.6-6.1c21-20.8,46.4-31.2,76-31.2c29.8,0,55,10.4,75.8,31.2c2,2,4,4,5.9,6.1 M287.8,393.2
						c1.8-2.2,3.8-4.3,5.8-6.3c21.9-21.7,48.3-32.5,79.2-32.5c30.9,0,57.1,10.8,78.8,32.5c2.1,2.1,4.1,4.2,6.1,6.3"/>
				</g>
			</g>
			<g>
				<g>
					<polygon fill-opacity="0.149" points="486.3,332.5 486.3,502.2 278.1,502.2 267.3,494.6 482,328.2 					"/>
				</g>
				<g>
					<g>
						<g>
							
								<linearGradient id="SVGID_43_" gradientUnits="userSpaceOnUse" x1="-150.3335" y1="58.8271" x2="-150.3587" y2="219.3266" gradientTransform="matrix(1.0452 0 0 1.0452 530.6345 314.9807)">
								<stop  offset="0" style="stop-color:#CCCCE6"/>
								<stop  offset="1" style="stop-color:#8383C0"/>
							</linearGradient>
							<path fill="url(#SVGID_43_)" d="M482,330.3v165.1H265V330.3H482z M473.9,336.9H274.5v151.5H474L473.9,336.9L473.9,336.9z"/>
							<rect x="274.5" y="336.9" fill="#B5B8DB" width="199.5" height="151.5"/>
						</g>
					</g>
				</g>
				<g>
					<path fill-opacity="0.1333" d="M482,330.3v165.1H265V330.3H482z M473.9,336.9H274.5v151.5H474L473.9,336.9L473.9,336.9z"/>
				</g>
				<g>
					
						<path fill="none" stroke="#000000" stroke-width="0.75" stroke-linecap="round" stroke-linejoin="round" stroke-miterlimit="3" stroke-opacity="0.6549" d="
						M430.9,370.7l-2.7,4.7 M442.9,379.3l-3.2,4.2 M453.7,389.5l-3.8,3.8 M449.3,384.2l-4.4,4.2 M437.2,374.9l-3.2,4.4 M329.4,362.9
						l2.5,5.7 M308.2,382.9l-4.5-5.3 M325.4,371.5l-3-5.9 M319.4,374.7L316,369 M313.8,378.5l-3.8-5.1 M336.1,359.9l2.5,6.5
						 M297.7,391.6l-5.1-4.2 M302.4,386.7l-4.2-4.4 M388.3,355.3l-0.7,6.4 M417.8,363.5l-2.3,5.5 M424.5,366.7l-2.7,5.3
						 M410.6,360.7l-2.4,6 M403.6,358.2l-1.9,5.9 M395.8,356.6l-1,6.3 M380.8,354.6l-0.4,6.1 M351.1,356.3l1.3,6.1 M358.5,355
						l0.8,6.8 M365.9,354.2l0.5,6.7 M373.5,354.6v6.1 M343.7,357.8l1.7,6.5"/>
				</g>
				<g>
					
						<path fill="none" stroke="#4A4C67" stroke-width="0.75" stroke-linecap="round" stroke-linejoin="round" stroke-miterlimit="3" d="
						M447.6,390.5l6.1-5.9 M437,381.4l5.3-6.7 M431.1,377.2l4.4-7 M442.3,385.9l5.5-6.5 M452.4,396.2l8.3-7.4 M305.1,384.6l-5.9-6.7
						 M316.5,376.2l-5.1-7.4 M310.1,380.6L305,373 M322.6,373l-5.9-10.3 M335.3,367.1l-3.4-8.3 M329,369.6l-4-7.8 M294.7,394.1
						l-8.2-7.2 M300.2,389.3l-6.3-6.6 M418.4,370.5l3.8-7.6 M398.1,363.3l2.1-8.7 M405.1,365l2.5-8.2 M411.7,367.7l3.4-8
						 M348.8,363.1l-2.1-8.9 M384,360.9l1-8.8 M377.3,360.7v-9.5 M391.2,362l1.9-12.1 M369.7,360.5l-0.4-9 M355.8,361.8l-2.1-12.3
						 M362.7,360.7l-0.6-8.6 M342,364.8l-2.7-8.4 M424.7,373.4l5.5-9.9"/>
				</g>
				<g>
					<g>
						
							<text transform="matrix(0.6699 -0.7424 0.7424 0.6699 282.9829 388.791)" fill="#232326" font-family="'Arial-BoldMT'" font-size="9.4861">0</text>
						
							<text transform="matrix(0.8493 -0.528 0.528 0.8493 309.4697 363.8691)" fill="#232326" font-family="'Arial-BoldMT'" font-size="9.4794">20</text>
						
							<text transform="matrix(0.9895 -0.1446 0.1446 0.9895 348.0439 348.3159)" fill="#232326" font-family="'Arial-BoldMT'" font-size="9.459">40</text>
						
							<text transform="matrix(0.9791 0.2035 -0.2035 0.9791 388.6846 347.5059)" fill="#232326" font-family="'Arial-BoldMT'" font-size="9.4467">60</text>
						
							<text transform="matrix(0.8784 0.4779 -0.4779 0.8784 427.0215 358.6787)" fill="#232326" font-family="'Arial-BoldMT'" font-size="9.4348">80</text>
						
							<text transform="matrix(0.5805 0.8143 -0.8143 0.5805 458.6855 380.5645)" fill="#232326" font-family="'Arial-BoldMT'" font-size="9.4144">100</text>
					</g>
				</g>
				<g>
					
						<radialGradient id="SVGID_44_" cx="-251.7549" cy="14.6748" r="2.3595" gradientTransform="matrix(1.0452 0 0 1.0452 530.6345 314.9807)" gradientUnits="userSpaceOnUse">
						<stop  offset="0" style="stop-color:#FFFFFF"/>
						<stop  offset="0.1765" style="stop-color:#FFFFFF"/>
						<stop  offset="0.3059" style="stop-color:#FFFFFF;stop-opacity:0.4235"/>
						<stop  offset="0.4902" style="stop-color:#FFFFFF;stop-opacity:0.2314"/>
						<stop  offset="0.651" style="stop-color:#FFFFFF;stop-opacity:8.235294e-002"/>
						<stop  offset="1" style="stop-color:#FFFFFF;stop-opacity:0"/>
					</radialGradient>
					<path fill="url(#SVGID_44_)" d="M269.2,328.7c0.5,0.5,0.7,1,0.7,1.7c0,0.7-0.2,1.3-0.7,1.7c-0.5,0.5-1.1,0.7-1.7,0.7
						c-0.7,0-1.2-0.2-1.7-0.7s-0.7-1-0.7-1.7c0-0.7,0.2-1.2,0.7-1.7s1.1-0.7,1.7-0.7C268.2,327.9,268.7,328.2,269.2,328.7z"/>
				</g>
				<g>
					
						<radialGradient id="SVGID_45_" cx="-203.8096" cy="427.5986" r="9.5997" gradientTransform="matrix(1.0452 0 0 0.2572 530.6345 220.1898)" gradientUnits="userSpaceOnUse">
						<stop  offset="0" style="stop-color:#FFFFFF"/>
						<stop  offset="0.1765" style="stop-color:#FFFFFF"/>
						<stop  offset="0.3059" style="stop-color:#FFFFFF;stop-opacity:0.4235"/>
						<stop  offset="0.4902" style="stop-color:#FFFFFF;stop-opacity:0.2314"/>
						<stop  offset="0.651" style="stop-color:#FFFFFF;stop-opacity:8.235294e-002"/>
						<stop  offset="1" style="stop-color:#FFFFFF;stop-opacity:0"/>
					</radialGradient>
					<path fill="url(#SVGID_45_)" d="M324.6,328.5c2,0.5,3,1,3,1.7c0,0.7-1,1.3-3,1.7c-2,0.5-4.3,0.7-7,0.7c-2.7,0-5-0.2-7-0.7
						c-1.8-0.5-2.8-1-2.8-1.7c0-0.7,0.9-1.2,2.8-1.7c2-0.5,4.3-0.7,7-0.7C320.3,327.8,322.6,328,324.6,328.5z"/>
				</g>
				<g>
					
						<radialGradient id="SVGID_46_" cx="-116.9595" cy="4274.6924" r="77.0127" gradientTransform="matrix(1.0452 0 0 3.206192e-002 530.6345 192.8525)" gradientUnits="userSpaceOnUse">
						<stop  offset="0" style="stop-color:#FFFFFF"/>
						<stop  offset="0.1765" style="stop-color:#FFFFFF"/>
						<stop  offset="0.3059" style="stop-color:#FFFFFF;stop-opacity:0.4235"/>
						<stop  offset="0.4902" style="stop-color:#FFFFFF;stop-opacity:0.2314"/>
						<stop  offset="0.651" style="stop-color:#FFFFFF;stop-opacity:8.235294e-002"/>
						<stop  offset="1" style="stop-color:#FFFFFF;stop-opacity:0"/>
					</radialGradient>
					<path fill="url(#SVGID_46_)" d="M488.4,329.9c0,0.7-7.9,1.3-23.8,1.7c-15.9,0.5-34.7,0.7-56.2,0.7c-21.6,0-40.3-0.2-56.2-0.7
						c-14.7-0.5-22.1-1-22.1-1.7c0-0.7,7.4-1.2,22.1-1.7c15.9-0.5,34.7-0.7,56.2-0.7c21.6,0,40.3,0.2,56.2,0.7
						C480.5,328.7,488.4,329.2,488.4,329.9z"/>
				</g>
				<g>
					
						<radialGradient id="SVGID_47_" cx="-252.0098" cy="-62.8257" r="2.362" gradientTransform="matrix(1.0452 0 0 30.8015 530.6345 2320.5588)" gradientUnits="userSpaceOnUse">
						<stop  offset="0" style="stop-color:#FFFFFF"/>
						<stop  offset="0.1765" style="stop-color:#FFFFFF"/>
						<stop  offset="0.3059" style="stop-color:#FFFFFF;stop-opacity:0.4235"/>
						<stop  offset="0.4902" style="stop-color:#FFFFFF;stop-opacity:0.2314"/>
						<stop  offset="0.651" style="stop-color:#FFFFFF;stop-opacity:8.235294e-002"/>
						<stop  offset="1" style="stop-color:#FFFFFF;stop-opacity:0"/>
					</radialGradient>
					<path fill="url(#SVGID_47_)" d="M267.2,314.6c0.7,0,1.2,7.2,1.7,21.6c0.5,13.3,0.7,29.8,0.7,49.3c0,20.5-0.2,37.5-0.7,50.8
						c-0.5,14.4-1.1,21.5-1.7,21.5c-0.6,0-1.2-7.2-1.7-21.5c-0.5-13.4-0.7-30.3-0.7-50.8c0-19.5,0.2-35.9,0.7-49.3
						C266,321.8,266.6,314.6,267.2,314.6z"/>
				</g>
				<g>
					
						<radialGradient id="SVGID_48_" cx="-47.5596" cy="-38.1494" r="2.3623" gradientTransform="matrix(1.0452 0 0 33.1573 530.6345 1676.5229)" gradientUnits="userSpaceOnUse">
						<stop  offset="0" style="stop-color:#FFFFFF"/>
						<stop  offset="0.1765" style="stop-color:#FFFFFF"/>
						<stop  offset="0.3059" style="stop-color:#FFFFFF;stop-opacity:0.4235"/>
						<stop  offset="0.4902" style="stop-color:#FFFFFF;stop-opacity:0.2314"/>
						<stop  offset="0.651" style="stop-color:#FFFFFF;stop-opacity:8.235294e-002"/>
						<stop  offset="1" style="stop-color:#FFFFFF;stop-opacity:0"/>
					</radialGradient>
					<path fill="url(#SVGID_48_)" d="M483.4,411.6c0,22.1-0.2,40.3-0.7,54.7c-0.5,15.5-1.1,23.2-1.7,23.2c-0.7,0-1.2-7.7-1.7-23.2
						c-0.5-14.4-0.7-32.6-0.7-54.7c0-21,0.2-38.7,0.7-53c0.5-15.5,1.1-23.2,1.7-23.2c0.7,0,1.2,7.7,1.7,23.2
						C483.1,372.9,483.4,390.6,483.4,411.6z"/>
				</g>
				<g>
					
						<radialGradient id="SVGID_49_" cx="-252.0098" cy="47.165" r="2.3606" gradientTransform="matrix(1.0452 0 0 6.0442 530.6345 195.754)" gradientUnits="userSpaceOnUse">
						<stop  offset="0" style="stop-color:#FFFFFF"/>
						<stop  offset="0.1765" style="stop-color:#FFFFFF"/>
						<stop  offset="0.3059" style="stop-color:#FFFFFF;stop-opacity:0.4235"/>
						<stop  offset="0.4902" style="stop-color:#FFFFFF;stop-opacity:0.2314"/>
						<stop  offset="0.651" style="stop-color:#FFFFFF;stop-opacity:8.235294e-002"/>
						<stop  offset="1" style="stop-color:#FFFFFF;stop-opacity:0"/>
					</radialGradient>
					<path fill="url(#SVGID_49_)" d="M269,471.2c0.5,2.6,0.7,5.8,0.7,9.7c0,4-0.2,7.4-0.7,10c-0.5,2.8-1.1,4.2-1.7,4.2
						c-0.6,0-1.2-1.4-1.7-4.2c-0.5-2.6-0.7-5.9-0.7-10c0-3.8,0.2-7.1,0.7-9.7c0.5-2.8,1.1-4.2,1.7-4.2
						C267.9,467,268.5,468.3,269,471.2z"/>
				</g>
				<g>
					
						<radialGradient id="SVGID_50_" cx="-144.21" cy="13214.3945" r="108.8251" gradientTransform="matrix(1.0452 0 0 1.056435e-002 530.6345 185.8633)" gradientUnits="userSpaceOnUse">
						<stop  offset="0" style="stop-color:#FFFFFF"/>
						<stop  offset="0.1765" style="stop-color:#FFFFFF"/>
						<stop  offset="0.3059" style="stop-color:#FFFFFF;stop-opacity:0.4235"/>
						<stop  offset="0.4902" style="stop-color:#FFFFFF;stop-opacity:0.2314"/>
						<stop  offset="0.651" style="stop-color:#FFFFFF;stop-opacity:8.235294e-002"/>
						<stop  offset="1" style="stop-color:#FFFFFF;stop-opacity:0"/>
					</radialGradient>
					<path fill="url(#SVGID_50_)" d="M493,325.5c0,0.3-11.2,0.6-33.7,0.8c-22.5,0.2-48.9,0.4-79.4,0.4s-57-0.1-79.4-0.4
						c-20.9-0.2-31.3-0.5-31.3-0.8s10.4-0.6,31.3-0.8c22.5-0.2,48.9-0.4,79.4-0.4s57,0.1,79.4,0.4C481.8,324.9,493,325.2,493,325.5z
						"/>
				</g>
				<g>
					
						<radialGradient id="SVGID_51_" cx="-52.0093" cy="427.5986" r="9.5997" gradientTransform="matrix(1.0452 0 0 0.2572 530.6345 220.1898)" gradientUnits="userSpaceOnUse">
						<stop  offset="0" style="stop-color:#FFFFFF"/>
						<stop  offset="0.1765" style="stop-color:#FFFFFF"/>
						<stop  offset="0.3059" style="stop-color:#FFFFFF;stop-opacity:0.4235"/>
						<stop  offset="0.4902" style="stop-color:#FFFFFF;stop-opacity:0.2314"/>
						<stop  offset="0.651" style="stop-color:#FFFFFF;stop-opacity:8.235294e-002"/>
						<stop  offset="1" style="stop-color:#FFFFFF;stop-opacity:0"/>
					</radialGradient>
					<path fill="url(#SVGID_51_)" d="M483.3,328.5c2,0.5,3,1,3,1.7c0,0.7-1,1.3-3,1.7c-2,0.5-4.3,0.7-7,0.7s-5-0.2-7-0.7
						c-1.8-0.5-2.8-1-2.8-1.7c0-0.7,0.9-1.2,2.8-1.7c2-0.5,4.3-0.7,7-0.7S481.3,328,483.3,328.5z"/>
				</g>
				<g>
					
						<radialGradient id="SVGID_52_" cx="-155.4604" cy="4429.042" r="77.013" gradientTransform="matrix(1.0452 0 0 3.206192e-002 530.6345 349.2221)" gradientUnits="userSpaceOnUse">
						<stop  offset="0" style="stop-color:#FFFFFF"/>
						<stop  offset="0.1765" style="stop-color:#FFFFFF"/>
						<stop  offset="0.3059" style="stop-color:#FFFFFF;stop-opacity:0.4235"/>
						<stop  offset="0.4902" style="stop-color:#FFFFFF;stop-opacity:0.2314"/>
						<stop  offset="0.651" style="stop-color:#FFFFFF;stop-opacity:8.235294e-002"/>
						<stop  offset="1" style="stop-color:#FFFFFF;stop-opacity:0"/>
					</radialGradient>
					<path fill="url(#SVGID_52_)" d="M368.2,493.7c-21.6,0-40.3-0.2-56.2-0.7c-14.7-0.5-22.1-1-22.1-1.7s7.4-1.2,22.1-1.7
						c15.9-0.5,34.7-0.7,56.2-0.7c21.6,0,40.3,0.2,56.2,0.7c15.9,0.5,23.8,1,23.8,1.7s-7.9,1.3-23.8,1.7
						C408.5,493.4,389.7,493.7,368.2,493.7z"/>
				</g>
				<g>
					<g>
						
							<radialGradient id="SVGID_53_" cx="-157.9932" cy="14.4248" r="86.584" gradientTransform="matrix(1.0452 0 0 1.0452 530.6345 314.9807)" gradientUnits="userSpaceOnUse">
							<stop  offset="0" style="stop-color:#FFFFFF"/>
							<stop  offset="1" style="stop-color:#FAFAFA;stop-opacity:0"/>
						</radialGradient>
						<path fill="url(#SVGID_53_)" d="M456.4,330.5c-0.1,0.1-0.2,0.2-0.4,0.2H275c-0.2,0-0.3-0.1-0.4-0.2s-0.2-0.2-0.2-0.4
							c0-0.2,0.1-0.3,0.2-0.4c0.1-0.1,0.2-0.2,0.4-0.2h181c0.2,0,0.3,0.1,0.4,0.2c0.1,0.1,0.2,0.2,0.2,0.4
							C456.6,330.2,456.5,330.4,456.4,330.5z"/>
						
							<radialGradient id="SVGID_54_" cx="-48.6094" cy="59.8159" r="44.1407" gradientTransform="matrix(1.0452 0 0 1.0452 530.6345 314.9807)" gradientUnits="userSpaceOnUse">
							<stop  offset="0" style="stop-color:#FFFFFF"/>
							<stop  offset="1" style="stop-color:#FAFAFA;stop-opacity:0"/>
						</radialGradient>
						<path fill="url(#SVGID_54_)" d="M480.2,330.9c0.1,0.1,0.2,0.2,0.2,0.4v92.4c0,0.2-0.1,0.3-0.2,0.4c-0.1,0.1-0.2,0.2-0.4,0.2
							s-0.3-0.1-0.4-0.2c-0.1-0.1-0.2-0.2-0.2-0.4v-92.4c0-0.2,0.1-0.3,0.2-0.4c0.1-0.1,0.2-0.2,0.4-0.2S480.1,330.8,480.2,330.9z"
							/>
						
							<radialGradient id="SVGID_55_" cx="-154.5967" cy="10.4258" r="96.7869" gradientTransform="matrix(1.0452 0 0 1.0452 530.6345 314.9807)" gradientUnits="userSpaceOnUse">
							<stop  offset="0" style="stop-color:#FFFFFF"/>
							<stop  offset="1" style="stop-color:#FAFAFA;stop-opacity:0"/>
						</radialGradient>
						<path fill="url(#SVGID_55_)" d="M470.6,326.3c-0.1,0.1-0.2,0.2-0.4,0.2H267.9c-0.2,0-0.3-0.1-0.4-0.2
							c-0.1-0.1-0.2-0.2-0.2-0.4c0-0.2,0.1-0.3,0.2-0.4s0.2-0.2,0.4-0.2h202.3c0.2,0,0.3,0.1,0.4,0.2c0.1,0.1,0.2,0.2,0.2,0.4
							C470.8,326.1,470.7,326.2,470.6,326.3z"/>
						
							<radialGradient id="SVGID_56_" cx="-46.6094" cy="142.2407" r="29.7685" gradientTransform="matrix(1.0452 0 0 1.0452 530.6345 314.9807)" gradientUnits="userSpaceOnUse">
							<stop  offset="0" style="stop-color:#FFFFFF"/>
							<stop  offset="1" style="stop-color:#FAFAFA;stop-opacity:0"/>
						</radialGradient>
						<path fill="url(#SVGID_56_)" d="M482.3,432.1c0.1,0.1,0.2,0.2,0.2,0.4v62.3c0,0.2-0.1,0.3-0.2,0.4c-0.1,0.1-0.2,0.2-0.4,0.2
							c-0.2,0-0.3-0.1-0.4-0.2c-0.1-0.1-0.2-0.2-0.2-0.4v-62.3c0-0.2,0.1-0.3,0.2-0.4c0.1-0.1,0.2-0.2,0.4-0.2
							C482.1,431.9,482.2,432,482.3,432.1z"/>
						
							<radialGradient id="SVGID_57_" cx="-254.2095" cy="112.3892" r="45.1182" gradientTransform="matrix(1.0452 0 0 1.0452 530.6345 314.9807)" gradientUnits="userSpaceOnUse">
							<stop  offset="0" style="stop-color:#FFFFFF"/>
							<stop  offset="1" style="stop-color:#FAFAFA;stop-opacity:0"/>
						</radialGradient>
						<path fill="url(#SVGID_57_)" d="M265.4,384.8c0.1,0.1,0.2,0.2,0.2,0.4v94.5c0,0.2-0.1,0.3-0.2,0.4c-0.1,0.1-0.2,0.2-0.4,0.2
							s-0.3-0.1-0.4-0.2c-0.1-0.1-0.2-0.2-0.2-0.4v-94.5c0-0.2,0.1-0.3,0.2-0.4c0.1-0.1,0.2-0.2,0.4-0.2S265.3,384.7,265.4,384.8z"
							/>
						
							<radialGradient id="SVGID_58_" cx="-152.0415" cy="172.0264" r="100.232" gradientTransform="matrix(1.0452 0 0 1.0452 530.6345 314.9807)" gradientUnits="userSpaceOnUse">
							<stop  offset="0" style="stop-color:#FFFFFF"/>
							<stop  offset="1" style="stop-color:#FAFAFA;stop-opacity:0"/>
						</radialGradient>
						<path fill="url(#SVGID_58_)" d="M476.9,495.2c-0.1,0.1-0.2,0.2-0.4,0.2H267c-0.2,0-0.3-0.1-0.4-0.2c-0.1-0.1-0.2-0.2-0.2-0.4
							s0.1-0.3,0.2-0.4c0.1-0.1,0.2-0.2,0.4-0.2h209.4c0.2,0,0.3,0.1,0.4,0.2c0.1,0.1,0.2,0.2,0.2,0.4
							C477.1,495,477,495.1,476.9,495.2z"/>
					</g>
				</g>
				<g>
					<g>
						
							<linearGradient id="SVGID_59_" gradientUnits="userSpaceOnUse" x1="181.6577" y1="524.7695" x2="354.9827" y2="524.7695" gradientTransform="matrix(1 0 0 1 104.6797 -140.9199)">
							<stop  offset="0" style="stop-color:#8D6B69"/>
							<stop  offset="0.4275" style="stop-color:#666A76"/>
							<stop  offset="0.651" style="stop-color:#484A63"/>
							<stop  offset="1" style="stop-color:#4F506E"/>
						</linearGradient>
						<path fill="url(#SVGID_59_)" d="M373.7,364.1c29,0,53.6,10.2,73.8,30.5c1.9,1.9,3.8,3.9,5.7,6c0.3,0.4,0.5,0.8,0.4,1.3
							c0,0.5-0.2,0.9-0.6,1.2c-0.4,0.3-0.8,0.5-1.3,0.5s-0.9-0.2-1.2-0.6c-1.8-2-3.7-3.9-5.5-5.8l0,0
							c-19.6-19.6-43.4-29.4-71.3-29.4c-27.9,0-51.8,9.8-71.6,29.4l0,0c-1.8,1.9-3.6,3.8-5.3,5.8c-0.3,0.4-0.7,0.6-1.2,0.6
							s-0.9-0.1-1.3-0.4c-0.4-0.3-0.6-0.7-0.6-1.2s0.1-0.9,0.4-1.3c1.8-2.1,3.6-4.1,5.5-6l0,0C320.1,374.2,344.8,364.1,373.7,364.1z
							"/>
						
							<path fill="none" stroke="#4B4D68" stroke-width="0.5" stroke-linecap="round" stroke-linejoin="round" stroke-miterlimit="3" d="
							M288.1,393.3c1.9-2.1,3.8-4.2,5.8-6.3c21.9-21.6,48.2-32.5,79.1-32.5c30.8,0,57,10.8,78.7,32.5c2,2.1,4.1,4.2,6.1,6.3
							 M291.9,398.3c1.8-2.1,3.6-4.1,5.6-6.1c21-20.8,46.3-31.2,75.9-31.2c29.7,0,54.9,10.4,75.7,31.2c2,2,4,4,5.9,6.1"/>
					</g>
				</g>
			</g>
			<g>
				<g>
					<path fill-opacity="0.2471" d="M567,452.4l7.9,0.6c1.3,17.2,1.3,30.6,0,40.3c-0.1,0.5-0.3,0.9-0.6,1.4c-2,2.5-2.1,5.2-0.4,8.2
						c0.2,0.4,0.4,0.8,0.4,1.2c0,0.5-0.1,0.9-0.3,1.3c-3.8,7.6-13.1,16-27.7,25.3c-14.5,9.2-22,13.8-22.3,13.8l-0.1,0.1
						c-3,1-5.1,1.9-6.3,2.6c0.1,0,0.3,0.1,0.5,0.2c7.9,2.5,16.1,6.7,24.7,12.6c6.3,4.4,7.3,8.3,3,11.7c-2.5,2.5-8.8,4.5-18.7,6
						c-17.7,2.6-30.9,4-39.7,4c-8.6,0-18.1,0.1-28.3,0.2H459c-9.7,0.1-19.3,0.2-28.8,0.2c-11,0-22.1-0.2-33.2-0.5
						c-10.1-0.3-18.6-0.8-25.5-1.4c-6.9-0.6-14.6-1.4-23-2.5c-11.1-1.4-16.5-4.5-16.4-9.4c-0.2-1.8-1.7-3-4.3-3.5
						c-4.5-0.8-18-0.2-40.3,1.8h-0.1c-23.6,2.1-43.3,2.2-59.3,0.4c-15.5-1.7-33.4-2.1-53.7-1c-1.1,0-2-0.2-2.8-0.8
						c-0.8-0.5-1.2-1.2-1.3-2.1c-0.1-0.8,0.2-1.6,0.9-2.2c0.7-0.6,1.6-1,2.7-1c20.9-1.1,39.3-0.7,55.3,1.1
						c15.4,1.7,34.5,1.6,57.3-0.4c23.9-2.1,38.2-2.7,43.1-1.7c6.6,1.2,10,4.3,10.3,9.1c0.6,1.7,3.8,3,9.8,3.8
						c8.4,1,15.9,1.8,22.7,2.4c6.7,0.6,15,1,24.9,1.3c11,0.3,22,0.4,33,0.5c9.5,0,19.1-0.1,28.7-0.2c10.2-0.1,19.7-0.2,28.4-0.2
						c8.5-0.1,21.2-1.4,38.3-3.9c7.4-1.1,12.2-2.4,14.2-4c0.3-0.7-0.4-1.8-2.3-3.1c-7.8-5.4-15.2-9.3-22.4-11.5h-0.1
						c-2.5-0.8-4.2-1.7-5-2.7c-1.6-1.6-1.8-3.4-0.5-5.2c1-1.9,4.8-3.9,11.2-6.1c0.2-0.2,7.1-4.5,20.6-13.1h-0.1
						c12.6-8,20.8-15.2,24.8-21.7c-2.2-4.3-1.8-8.4,1-12.2c1-9.1,0.8-16-0.5-20.6C565.4,466.7,565.5,460.4,567,452.4z"/>
				</g>
				<g>
					<path d="M568.6,446c0.9-0.7,1.9-1,3.1-1s2.2,0.4,3.1,1c0.8,0.7,1.2,1.5,1.2,2.5c-0.9,34.2-9.3,57.3-25.2,69.1
						c-15.4,11.7-26.4,19.3-33.1,22.7c-1.4,0.7-2.3,1.2-2.7,1.4c0.5,0.2,1.6,0.6,3.3,1.1h-0.1c7.9,2.5,16.2,6.7,24.8,12.7
						c6.6,4.6,7.6,8.7,3.1,12.2c-2.6,2.6-8.9,4.7-18.9,6.2c-17.7,2.6-31,3.9-39.8,4c-8.6,0-18.1,0.1-28.3,0.3H459
						c-9.7,0.1-19.3,0.2-28.8,0.2c-11.1,0-22.2-0.2-33.3-0.5c-10.1-0.3-18.6-0.7-25.5-1.3c-6.9-0.6-14.6-1.5-23.1-2.5
						c-11.4-1.4-17-4.7-16.8-9.8c-0.2-1.7-1.6-2.7-3.9-3.2c-4.4-0.7-13.5-0.2-27.2,1.5c-14.9,2-26.3,2.9-34.1,2.7
						c-10.5-0.2-16.1-2.1-16.8-5.9c-1.3-3.2-4.1-5.3-8.5-6.4c-6.9-1.7-12.2-4.3-15.7-7.7c-3.6-3.2-6.5-10.4-8.7-21.6
						c-0.8-4.3-2.4-7.4-4.8-9.4c-2.2-1.6-5.2-2.2-8.9-1.8c-10.2,0.9-19.6,2.5-28.1,4.6c-1.1,0.3-2.3,0.2-3.3-0.2
						c-1.1-0.5-1.8-1.2-2.1-2.1c-0.4-0.9-0.3-1.8,0.3-2.6c0.6-0.8,1.4-1.4,2.6-1.7c9-2.2,18.8-3.9,29.6-4.9c6.7-0.6,12.1,0.6,16,3.7
						c3.8,2.7,6.2,7.1,7.4,13.3c1.8,9.4,4.1,15.5,6.7,18.2c2.6,2.4,6.5,4.3,11.6,5.5c7.5,1.9,12.2,5.6,14.2,11.1
						c0.8,0.6,3.6,0.9,8.6,0.9c7.5,0.1,18.3-0.8,32.5-2.6h0.1c15.5-2,25.7-2.5,30.7-1.4c6.9,1.3,10.4,4.4,10.7,9.5
						c0.6,1.6,3.7,2.7,9.4,3.3c8.4,1,15.9,1.9,22.7,2.5c6.7,0.6,15,1,24.8,1.3c11,0.3,22,0.4,33,0.5h0.1c9.5,0,19.1-0.1,28.7-0.2
						c10.2-0.1,19.7-0.2,28.4-0.3c8.4,0,21.2-1.3,38.2-3.9c7.2-1.1,11.9-2.4,13.9-3.9c0.1-0.6-0.7-1.4-2.3-2.6
						c-7.7-5.4-15.1-9.2-22.2-11.4c-5.9-1.8-8.8-4.1-8.7-6.7c-0.9-2.6,1.3-5.3,6.6-7.9h-0.1c6.4-3.3,17.1-10.6,31.8-21.9
						c14.1-11.2,21.7-32.6,22.5-64.4C567.3,447.4,567.7,446.6,568.6,446z"/>
				</g>
				<g>
					<g>
						
							<radialGradient id="SVGID_60_" cx="59.6826" cy="89.0967" r="12.0999" gradientTransform="matrix(1.0452 0 -0.3444 2.1832 535.042 287.0424)" gradientUnits="userSpaceOnUse">
							<stop  offset="0" style="stop-color:#FFFFFF"/>
							<stop  offset="1" style="stop-color:#EFEFEF;stop-opacity:0"/>
						</radialGradient>
						<path fill="url(#SVGID_60_)" d="M569.9,463.6c0.2-0.2,0.5-0.2,0.8-0.2s0.5,0.1,0.7,0.3c0.2,0.2,0.3,0.4,0.3,0.6
							c-2.2,24.7-10.4,41.9-24.6,51.5c-0.5,0.3-1,0.7-1.5,1c-0.2,0.1-0.5,0.2-0.7,0.2c-0.3,0-0.6-0.1-0.7-0.3
							c-0.2-0.2-0.3-0.4-0.3-0.6c0-0.2,0.2-0.4,0.4-0.6c0.5-0.3,1-0.7,1.5-1c13.8-9.4,21.7-26.2,23.9-50.4
							C569.6,463.9,569.7,463.7,569.9,463.6z"/>
						
							<radialGradient id="SVGID_61_" cx="-22.6592" cy="317.3315" r="25.9999" gradientTransform="matrix(1.0452 0 0 0.5954 530.6345 351.2498)" gradientUnits="userSpaceOnUse">
							<stop  offset="0" style="stop-color:#FFFFFF"/>
							<stop  offset="1" style="stop-color:#EFEFEF;stop-opacity:0"/>
						</radialGradient>
						<path fill="url(#SVGID_61_)" d="M532.2,525.9c0.3,0,0.5,0.1,0.7,0.3c0.2,0.1,0.3,0.3,0.3,0.6c0,0.2-0.1,0.4-0.3,0.6
							c-7.3,5.1-13,8.7-17,10.8c-2.9,1.5-4.3,2.8-4.2,3.9c0.3,1.1,2.1,2.2,5.3,3.3c7.4,2.3,15,6.1,22.9,11.6
							c0.2,0.1,0.3,0.3,0.4,0.6c0,0.2-0.1,0.4-0.3,0.6c-0.2,0.2-0.4,0.3-0.7,0.3s-0.6,0-0.8-0.2c-7.7-5.3-15.2-9.1-22.4-11.3
							c-4.3-1.4-6.5-2.9-6.6-4.6c-0.4-1.8,1.3-3.6,5.1-5.5c4-2,9.6-5.6,16.8-10.7C531.7,525.9,532,525.9,532.2,525.9z"/>
						
							<radialGradient id="SVGID_62_" cx="-91.499" cy="1415.7578" r="55.2433" gradientTransform="matrix(1.0452 0 0 0.1081 530.6345 420.0758)" gradientUnits="userSpaceOnUse">
							<stop  offset="0" style="stop-color:#FFFFFF"/>
							<stop  offset="1" style="stop-color:#EFEFEF;stop-opacity:0"/>
						</radialGradient>
						<path fill="url(#SVGID_62_)" d="M459.1,575.6c-9.7,0.1-19.3,0.2-28.8,0.2c-11,0-22.1-0.2-33.1-0.5c-10-0.2-18.5-0.7-25.3-1.3
							c-5.3-0.5-11-1-17.3-1.7c-0.3,0-0.5-0.2-0.7-0.4c-0.2-0.2-0.2-0.4-0.2-0.6s0.2-0.4,0.4-0.5c0.2-0.1,0.5-0.2,0.8-0.2
							c6.2,0.7,11.9,1.3,17.2,1.8c6.8,0.6,15.1,1,25.1,1.3c11,0.3,22.1,0.5,33.1,0.5c9.5,0,19.1-0.1,28.8-0.2
							c10.2-0.1,19.7-0.2,28.3-0.2c6.7-0.1,15.9-0.9,27.7-2.4c0.3-0.1,0.5,0,0.8,0.1c0.2,0.1,0.3,0.3,0.4,0.5c0,0.2,0,0.5-0.2,0.6
							c-0.2,0.2-0.4,0.3-0.7,0.3c-11.9,1.5-21.3,2.3-28,2.4C478.8,575.3,469.3,575.4,459.1,575.6z"/>
						
							<radialGradient id="SVGID_63_" cx="-211.9092" cy="791.0625" r="28.8498" gradientTransform="matrix(1.0452 0 0 0.2033 530.6345 397.3962)" gradientUnits="userSpaceOnUse">
							<stop  offset="0" style="stop-color:#FFFFFF"/>
							<stop  offset="1" style="stop-color:#EFEFEF;stop-opacity:0"/>
						</radialGradient>
						<path fill="url(#SVGID_63_)" d="M299.6,558.4c14.8-1.9,24.6-2.4,29.4-1.5c5.2,0.9,7.9,3.3,8.1,7.1c0.2,1.8,1.7,3.2,4.7,4.2
							c0.3,0.1,0.5,0.2,0.6,0.5c0.1,0.2,0.1,0.4,0,0.6c-0.1,0.2-0.3,0.4-0.6,0.5c-0.3,0.1-0.6,0.1-0.8,0c-3.9-1.4-5.9-3.2-6-5.6
							c-0.2-3-2.4-4.8-6.5-5.6c-4.6-0.8-14.2-0.3-28.6,1.5c-7,0.9-13.3,1.6-18.7,2c-0.3,0-0.5,0-0.7-0.2c-0.2-0.2-0.4-0.4-0.4-0.6
							s0.1-0.4,0.3-0.6c0.2-0.2,0.4-0.3,0.7-0.3C286.4,560,292.6,559.3,299.6,558.4z"/>
						
							<radialGradient id="SVGID_64_" cx="-284.7095" cy="208.9717" r="18.0493" gradientTransform="matrix(1.0452 0 0 1.1544 530.6345 305.4834)" gradientUnits="userSpaceOnUse">
							<stop  offset="0" style="stop-color:#FFFFFF"/>
							<stop  offset="1" style="stop-color:#EFEFEF;stop-opacity:0"/>
						</radialGradient>
						<path fill="url(#SVGID_64_)" d="M258.2,561.7c-0.2,0.1-0.5,0.1-0.8,0.1c-2.6-0.7-4.2-1.7-4.7-3.1c-1.5-4-5.1-6.8-10.7-8.2
							c-6.2-1.6-10.9-3.8-14.1-6.8c-3.3-3-5.9-9.8-7.9-20.3c-0.2-1.3-0.6-2.5-0.9-3.7c-0.1-0.2-0.1-0.5,0.1-0.7
							c0.1-0.2,0.3-0.3,0.6-0.4c0.3,0,0.5,0,0.8,0.1c0.2,0.1,0.4,0.3,0.5,0.5c0.4,1.2,0.7,2.5,1,3.9c2,10.1,4.4,16.6,7.5,19.5
							c3,2.8,7.3,4.9,13.1,6.4c6.3,1.6,10.3,4.7,12,9.3c0.4,0.9,1.5,1.5,3.3,2c0.3,0.1,0.5,0.2,0.6,0.4s0.2,0.4,0.1,0.6
							S258.4,561.6,258.2,561.7z"/>
						
							<radialGradient id="SVGID_65_" cx="-321.71" cy="768.1787" r="25.763" gradientTransform="matrix(1.0452 0 0 0.1963 530.6345 357.6805)" gradientUnits="userSpaceOnUse">
							<stop  offset="0" style="stop-color:#FFFFFF"/>
							<stop  offset="1" style="stop-color:#EFEFEF;stop-opacity:0"/>
						</radialGradient>
						<path fill="url(#SVGID_65_)" d="M202.4,508.3c3.4-0.3,6.4-0.1,8.9,0.8c0.2,0.1,0.4,0.2,0.6,0.5c0.1,0.2,0.1,0.4,0,0.6
							s-0.3,0.4-0.6,0.5c-0.3,0.1-0.5,0.1-0.8,0c-2.3-0.7-4.9-0.9-7.9-0.7c-10.4,1-20,2.6-28.6,4.8c-0.3,0-0.5,0-0.8-0.1
							c-0.2-0.1-0.4-0.3-0.5-0.5c-0.1-0.2,0-0.4,0.1-0.6c0.1-0.2,0.3-0.3,0.6-0.4C182.2,510.9,191.9,509.3,202.4,508.3z"/>
					</g>
				</g>
			</g>
			<g>
				<path fill="#212B73" d="M543.8,312.9c0.3,0.5,0.4,1.1,0.4,1.8c0,0.8-0.2,1.6-0.7,2.1c-0.5,0.6-1.2,1-2.2,1.1
					c0.3,0.2,0.6,0.4,0.8,0.6c0.4,0.4,0.8,1,1.2,1.6l1.8,3.3h-1.8L542,321c-0.4-0.7-0.7-1.3-1-1.7c-0.3-0.4-0.5-0.6-0.7-0.8
					s-0.4-0.3-0.6-0.3c-0.1,0-0.4-0.1-0.8-0.1h-1.6v5.4h-1.4v-12.2h4.7c0.9,0,1.7,0.1,2.1,0.4C543.2,311.9,543.6,312.3,543.8,312.9z
					 M533.7,312.8h-6.2v3.7h5.8v1.4h-5.8v4.2h6.4v1.4h-7.8v-12.2h7.6V312.8z M540.6,312.7h-3.3v4h3c0.6,0,1.1-0.1,1.5-0.2
					c0.3-0.2,0.6-0.4,0.8-0.7c0.2-0.3,0.3-0.7,0.3-1.1c0-0.6-0.2-1.1-0.5-1.4C541.9,312.9,541.4,312.7,540.6,312.7z M524.7,312.8
					h-3.4v10.7h-1.4v-10.7h-3.4v-1.5h8.3L524.7,312.8L524.7,312.8z M515,312.8h-6.2v3.7h5.8v1.4h-5.8v4.2h6.4v1.4h-7.8v-12.2h7.6
					V312.8z M461.7,312.8H456v3.8h5v1.4h-5v5.5h-1.4v-12.2h7.1V312.8z M450.8,311.7c0.5,0.2,0.9,0.6,1.1,1.1
					c0.3,0.5,0.4,1.1,0.4,1.8c0,0.8-0.2,1.6-0.7,2.1c-0.5,0.6-1.2,1-2.2,1.1c0.3,0.2,0.6,0.4,0.8,0.6c0.4,0.4,0.8,1,1.1,1.6l1.8,3.3
					h-1.8l-1.4-2.5c-0.4-0.7-0.8-1.3-1-1.7c-0.3-0.4-0.5-0.6-0.7-0.8c-0.2-0.2-0.4-0.3-0.6-0.3c-0.1,0-0.4-0.1-0.8-0.1h-1.6v5.4H444
					v-12.2h4.7C449.6,311.4,450.3,311.5,450.8,311.7z M448.7,312.7h-3.3v4h3c0.6,0,1.1-0.1,1.5-0.2c0.3-0.2,0.6-0.4,0.8-0.7
					c0.2-0.3,0.3-0.7,0.3-1.1c0-0.6-0.2-1.1-0.5-1.4C450.1,312.9,449.5,312.7,448.7,312.7z M464.9,322.1h6.4v1.4h-7.8v-12.2h7.6v1.5
					h-6.2v3.7h5.8v1.4h-5.8V322.1z M441.8,312.8h-6.2v3.7h5.8v1.4h-5.8v4.2h6.4v1.4h-7.8v-12.2h7.6V312.8z M429.3,312.8v10.7H428
					v-10.7h-3.4v-1.5h8.3v1.5H429.3z M505.2,311.4v12.2h-1.4v-10.2l-3,10.2h-1.3l-3-10.3v10.3h-1.3v-12.2h2.1l2.5,8.6
					c0.2,0.8,0.4,1.4,0.5,1.8c0.1-0.4,0.3-1.1,0.5-1.9l2.5-8.5H505.2z M491.6,314.9c-0.3-0.7-0.7-1.3-1.3-1.7
					c-0.6-0.4-1.2-0.6-1.8-0.6c-1,0-1.9,0.4-2.6,1.1c-0.7,0.8-1,2.1-1,3.9c0,1.5,0.3,2.6,1,3.4c0.7,0.9,1.5,1.3,2.6,1.3
					c1,0,1.9-0.4,2.6-1.3c0.7-0.8,1-2,1-3.6C492,316.5,491.9,315.6,491.6,314.9z M492.8,320.8c-0.4,1-1,1.7-1.8,2.2
					s-1.7,0.7-2.6,0.7c-1,0-1.8-0.3-2.6-0.8c-0.8-0.6-1.4-1.3-1.8-2.2c-0.4-1-0.6-2-0.6-3c0-2,0.5-3.6,1.4-4.8
					c0.9-1.1,2.2-1.7,3.7-1.7c0.9,0,1.8,0.3,2.6,0.8c0.8,0.6,1.4,1.3,1.8,2.2c0.4,1,0.6,2.1,0.6,3.3S493.2,319.8,492.8,320.8z
					 M481.2,312.9c0.3,0.5,0.4,1.1,0.4,1.8c0,0.8-0.2,1.6-0.7,2.1c-0.5,0.6-1.2,1-2.2,1.1c0.3,0.2,0.6,0.4,0.8,0.6
					c0.4,0.4,0.8,1,1.1,1.6l1.8,3.3h-1.8l-1.4-2.5c-0.4-0.7-0.7-1.3-1-1.7c-0.3-0.4-0.5-0.6-0.7-0.8c-0.2-0.2-0.4-0.3-0.6-0.3
					c-0.1,0-0.4-0.1-0.8-0.1h-1.6v5.4h-1.4v-12.2h4.7c0.9,0,1.7,0.1,2.1,0.4C480.6,311.9,481,312.3,481.2,312.9z M474.7,312.7v4h3
					c0.6,0,1.1-0.1,1.5-0.2c0.3-0.2,0.6-0.4,0.8-0.7c0.2-0.3,0.3-0.7,0.3-1.1c0-0.6-0.2-1.1-0.5-1.4c-0.4-0.4-1-0.6-1.7-0.6H474.7
					L474.7,312.7z M377.2,311.9c0.8,0.6,1.4,1.3,1.8,2.2c0.4,1,0.6,2.1,0.6,3.3c0,1.2-0.2,2.3-0.6,3.3s-1,1.7-1.8,2.2
					s-1.7,0.7-2.6,0.7c-1,0-1.8-0.3-2.6-0.8c-0.8-0.6-1.4-1.3-1.8-2.2c-0.4-1-0.6-2-0.6-3c0-2,0.5-3.6,1.4-4.8
					c0.9-1.1,2.2-1.7,3.7-1.7C375.6,311.1,376.4,311.4,377.2,311.9z M374.6,312.6c-1,0-1.9,0.4-2.6,1.1c-0.7,0.8-1,2.1-1,3.9
					c0,1.5,0.3,2.6,1,3.4c0.7,0.9,1.6,1.3,2.6,1.3s1.9-0.4,2.6-1.3c0.7-0.8,1-2,1-3.6c0-1-0.1-1.9-0.4-2.6c-0.3-0.7-0.7-1.3-1.3-1.7
					S375.3,312.6,374.6,312.6z M382.8,311.4l5.5,9.6v-9.6h1.3v12.2h-1.4l-5.5-9.6v9.6h-1.4v-12.2H382.8z M365.9,311.6
					c0.6,0.3,1,0.7,1.4,1.3c0.3,0.6,0.5,1.2,0.5,1.9l-1.3,0.1c-0.1-0.8-0.3-1.3-0.7-1.7c-0.4-0.4-1-0.6-1.8-0.6s-1.4,0.2-1.8,0.6
					c-0.4,0.3-0.6,0.8-0.6,1.3s0.1,0.8,0.4,1.1c0.2,0.3,0.9,0.6,2.1,0.9c1.1,0.3,1.9,0.5,2.3,0.7c0.6,0.3,1,0.8,1.4,1.3
					c0.3,0.5,0.4,1.1,0.4,1.7c0,0.7-0.2,1.3-0.5,1.8c-0.3,0.6-0.8,1-1.4,1.4c-0.6,0.3-1.3,0.5-2,0.5c-0.9,0-1.7-0.2-2.4-0.5
					c-0.7-0.3-1.2-0.8-1.5-1.5c-0.4-0.6-0.6-1.4-0.6-2.2l1.3-0.1c0,0.6,0.2,1.1,0.4,1.5s0.6,0.7,1,1c0.5,0.2,1,0.3,1.6,0.3
					c0.5,0,1-0.1,1.4-0.3c0.4-0.2,0.7-0.4,0.9-0.7c0.2-0.3,0.3-0.7,0.3-1s-0.1-0.7-0.3-1c-0.2-0.3-0.5-0.6-0.9-0.7
					c-0.3-0.1-0.9-0.3-1.9-0.6c-0.9-0.3-1.6-0.5-2-0.8c-0.5-0.3-0.9-0.7-1.1-1.1c-0.2-0.5-0.4-1-0.4-1.5c0-0.6,0.2-1.2,0.5-1.7
					c0.3-0.5,0.7-0.9,1.3-1.2c0.6-0.3,1.2-0.4,1.9-0.4C364.6,311.1,365.3,311.3,365.9,311.6z M354.8,311.4l4.3,12.2h-1.6l-1.2-3.7
					H352l-1.2,3.7h-1.5l4-12.2H354.8z M341.3,312.7v4h3c0.6,0,1.1-0.1,1.5-0.2c0.3-0.2,0.6-0.4,0.8-0.7c0.2-0.3,0.3-0.7,0.3-1.1
					c0-0.6-0.2-1.1-0.5-1.4c-0.4-0.4-1-0.6-1.7-0.6H341.3L341.3,312.7z M347.9,312.9c0.3,0.5,0.4,1.1,0.4,1.8c0,0.8-0.2,1.6-0.7,2.1
					c-0.5,0.6-1.2,1-2.2,1.1c0.3,0.2,0.6,0.4,0.8,0.6c0.4,0.4,0.8,1,1.1,1.6l1.8,3.3h-1.8L346,321c-0.4-0.7-0.7-1.3-1-1.7
					c-0.3-0.4-0.5-0.6-0.7-0.8s-0.4-0.3-0.6-0.3c-0.1,0-0.4-0.1-0.8-0.1h-1.6v5.4h-1.4v-12.2h4.7c0.9,0,1.7,0.1,2.1,0.4
					C347.2,311.9,347.6,312.3,347.9,312.9z M355.9,318.5l-1.1-3.3c-0.3-1-0.6-1.8-0.7-2.5c-0.1,0.8-0.3,1.5-0.6,2.3l-1.2,3.6h3.6
					V318.5L355.9,318.5z M423,311.4v12.2h-1.4l-5.5-9.6v9.6h-1.4v-12.2h1.5l5.5,9.6v-9.6H423z M412.3,311.4v12.2h-1.4v-12.2H412.3z
					 M398.5,313.2c-0.5,0.5-0.9,1.1-1.1,1.8c-0.2,0.8-0.4,1.5-0.4,2.4c0,1,0.1,1.9,0.4,2.7c0.2,0.8,0.6,1.3,1.2,1.7
					c0.6,0.4,1.2,0.6,1.8,0.6c0.8,0,1.4-0.3,2-0.8c0.5-0.5,0.9-1.3,1.1-2.4l1.4,0.4c-0.3,1.3-0.8,2.3-1.6,3c-0.8,0.7-1.7,1-2.8,1
					s-2-0.3-2.7-0.8c-0.7-0.6-1.3-1.3-1.6-2.4c-0.4-1-0.6-2.1-0.6-3.2c0-1.3,0.2-2.4,0.6-3.3c0.4-0.9,1-1.7,1.8-2.1
					c0.8-0.5,1.6-0.7,2.6-0.7s1.9,0.3,2.6,0.9s1.2,1.5,1.5,2.6l-1.4,0.4c-0.2-0.9-0.6-1.5-1.1-1.9s-1-0.6-1.7-0.6
					C399.7,312.6,399.1,312.8,398.5,313.2z M393.6,311.4v12.2h-1.4v-12.2H393.6z M338.5,312.8H335v10.7h-1.4v-10.7h-3.4v-1.5h8.3
					V312.8z M324.1,311.4v10.8h5.2v1.4h-6.5v-12.2H324.1L324.1,311.4z M320.2,321.3c-0.2,0.7-0.7,1.3-1.3,1.8
					c-0.6,0.5-1.4,0.7-2.5,0.7c-1,0-1.8-0.2-2.4-0.6c-0.6-0.4-1.1-1-1.3-1.7c-0.3-0.7-0.4-1.7-0.4-3v-7.1h1.4v7.1
					c0,1,0.1,1.8,0.2,2.3c0.2,0.5,0.5,0.9,0.9,1.1c0.4,0.3,0.9,0.4,1.5,0.4c1,0,1.7-0.3,2.2-0.8c0.4-0.6,0.6-1.6,0.6-3.1v-7.1h1.4
					v7.1C320.5,319.6,320.4,320.6,320.2,321.3z"/>
			</g>
			<g>
				<g>
					
						<radialGradient id="SVGID_66_" cx="-168.3096" cy="10924.375" r="123.9629" gradientTransform="matrix(1.0452 0 0 1.296295e-002 530.6345 370.0982)" gradientUnits="userSpaceOnUse">
						<stop  offset="0" style="stop-color:#FFFFFF"/>
						<stop  offset="0.1765" style="stop-color:#FFFFFF"/>
						<stop  offset="0.3059" style="stop-color:#FFFFFF;stop-opacity:0.4235"/>
						<stop  offset="0.4902" style="stop-color:#FFFFFF;stop-opacity:0.2314"/>
						<stop  offset="0.651" style="stop-color:#FFFFFF;stop-opacity:8.235294e-002"/>
						<stop  offset="1" style="stop-color:#FFFFFF;stop-opacity:0"/>
					</radialGradient>
					<path fill="url(#SVGID_66_)" d="M445.2,512.8c-25.6,0.3-55.7,0.5-90.5,0.5s-64.9-0.2-90.5-0.5c-23.8-0.3-35.7-0.6-35.7-1.1
						c0-0.4,11.9-0.8,35.7-1.1c25.6-0.3,55.7-0.5,90.5-0.5s64.9,0.2,90.5,0.5c25.6,0.3,38.4,0.7,38.4,1.1
						C483.6,512.2,470.8,512.5,445.2,512.8z"/>
				</g>
				<g>
					
						<radialGradient id="SVGID_67_" cx="-114.4097" cy="16287.2598" r="187.4506" gradientTransform="matrix(1.0452 0 0 8.572522e-003 530.6345 158.1462)" gradientUnits="userSpaceOnUse">
						<stop  offset="0" style="stop-color:#FFFFFF"/>
						<stop  offset="0.1765" style="stop-color:#FFFFFF"/>
						<stop  offset="0.3059" style="stop-color:#FFFFFF;stop-opacity:0.4235"/>
						<stop  offset="0.4902" style="stop-color:#FFFFFF;stop-opacity:0.2314"/>
						<stop  offset="0.651" style="stop-color:#FFFFFF;stop-opacity:8.235294e-002"/>
						<stop  offset="1" style="stop-color:#FFFFFF;stop-opacity:0"/>
					</radialGradient>
					<path fill="url(#SVGID_67_)" d="M547.9,298.9c-38.7,0.3-84.3,0.5-136.8,0.5s-98.1-0.2-136.8-0.5c-36-0.3-53.9-0.6-53.9-1.1
						c0-0.4,18-0.8,53.9-1.1c38.7-0.3,84.3-0.5,136.8-0.5s98.1,0.2,136.8,0.5c38.7,0.3,58.1,0.7,58.1,1.1
						C605.9,298.2,586.6,298.6,547.9,298.9z"/>
				</g>
				<g>
					
						<radialGradient id="SVGID_68_" cx="-100.3818" cy="4213.5557" r="88.025" gradientTransform="matrix(7.408636e-005 1.0452 -2.478560e-002 1.756947e-006 283.5772 507.9153)" gradientUnits="userSpaceOnUse">
						<stop  offset="0" style="stop-color:#FFFFFF"/>
						<stop  offset="0.1765" style="stop-color:#FFFFFF"/>
						<stop  offset="0.3059" style="stop-color:#FFFFFF;stop-opacity:0.4235"/>
						<stop  offset="0.4902" style="stop-color:#FFFFFF;stop-opacity:0.2314"/>
						<stop  offset="0.651" style="stop-color:#FFFFFF;stop-opacity:8.235294e-002"/>
						<stop  offset="1" style="stop-color:#FFFFFF;stop-opacity:0"/>
					</radialGradient>
					<path fill="url(#SVGID_68_)" d="M179.1,313.4c0.6,0,1.1,8.4,1.5,25.3c0.5,18.2,0.7,39.6,0.7,64.3s-0.2,46.1-0.7,64.3
						c-0.4,18.2-0.9,27.2-1.5,27.2s-1.1-9.1-1.5-27.2c-0.4-18.2-0.6-39.6-0.6-64.3s0.2-46.1,0.6-64.3
						C178,321.9,178.5,313.4,179.1,313.4z"/>
				</g>
			</g>
		</g>
	</g>
</g>
<g id="Layer_2_1_">
	<g>
		<path fill-rule="evenodd" clip-rule="evenodd" fill="#333333" d="M553.5,362.2c-0.3,0-0.5-0.1-0.8-0.2c-3-2.6-6.5-3.8-10.6-3.8
			c-3.9,0-7.4,1.2-10.3,3.8c-0.2,0.2-0.5,0.3-0.8,0.3c-0.3,0-0.5-0.2-0.7-0.3c-0.2-0.2-0.3-0.5-0.2-0.8c0-0.3,0.1-0.5,0.3-0.7
			c3.3-2.9,7.2-4.3,11.6-4.3c4.6,0,8.5,1.4,11.9,4.3c0.2,0.1,0.3,0.3,0.4,0.7c0,0.3-0.1,0.5-0.3,0.8
			C554,362,553.7,362.1,553.5,362.2z"/>
	</g>
	<g>
		<path fill-rule="evenodd" clip-rule="evenodd" fill="#333333" d="M612.5,362.2c-0.3,0-0.5-0.1-0.8-0.2c-3-2.6-6.5-3.8-10.6-3.8
			c-3.9,0-7.4,1.2-10.3,3.8c-0.2,0.2-0.5,0.3-0.8,0.3c-0.3,0-0.5-0.2-0.7-0.3c-0.2-0.2-0.3-0.5-0.2-0.8c0-0.3,0.1-0.5,0.3-0.7
			c3.3-2.9,7.2-4.3,11.6-4.3c4.6,0,8.5,1.4,11.9,4.3c0.2,0.1,0.3,0.3,0.4,0.7c0,0.3-0.1,0.5-0.3,0.8
			C613,362,612.7,362.1,612.5,362.2z"/>
	</g>
</g>
</svg>
