<?xml version="1.0" encoding="utf-8"?>
<!-- Generator: Adobe Illustrator 16.0.0, SVG Export Plug-In . SVG Version: 6.00 Build 0)  -->
<!DOCTYPE svg PUBLIC "-//W3C//DTD SVG 1.1//EN" "http://www.w3.org/Graphics/SVG/1.1/DTD/svg11.dtd">
<svg version="1.1" id="Layer_1" xmlns="http://www.w3.org/2000/svg" xmlns:xlink="http://www.w3.org/1999/xlink" x="0px" y="0px"
	 width="700px" height="700px" viewBox="0 0 700 700" enable-background="new 0 0 700 700" xml:space="preserve">
<g>
	<radialGradient id="SVGID_1_" cx="239.3501" cy="363.5996" r="6.8875" gradientUnits="userSpaceOnUse">
		<stop  offset="0" style="stop-color:#F3C322"/>
		<stop  offset="1" style="stop-color:#F2C221;stop-opacity:0"/>
	</radialGradient>
	<path fill-rule="evenodd" clip-rule="evenodd" fill="url(#SVGID_1_)" d="M239.4,369.9c-1.8,0-3.4-0.7-4.6-2
		c-1.3-1.2-1.9-2.8-1.9-4.6c0-0.6,0.1-1.1,0.2-1.5c0.3,1.1,0.8,2.1,1.7,3c1.3,1.3,2.8,2,4.6,2c1.8,0,3.4-0.7,4.7-2
		c0.9-0.8,1.5-1.8,1.8-3c0.1,0.5,0.2,1,0.2,1.5c0,1.8-0.6,3.4-1.9,4.6C242.8,369.3,241.2,369.9,239.4,369.9z"/>
	<g>
		<radialGradient id="SVGID_2_" cx="239.3501" cy="360.0996" r="6.9375" gradientUnits="userSpaceOnUse">
			<stop  offset="0" style="stop-color:#F3C322"/>
			<stop  offset="1" style="stop-color:#520000"/>
		</radialGradient>
		<path fill-rule="evenodd" clip-rule="evenodd" fill="url(#SVGID_2_)" d="M239.4,355.3c1.3,0,2.4,0.5,3.4,1.4
			c0.9,1,1.4,2.1,1.4,3.4c0,1.3-0.5,2.4-1.4,3.3c-0.9,0.9-2.1,1.4-3.4,1.4c-1.3,0-2.4-0.5-3.4-1.4c-0.9-0.9-1.4-2-1.4-3.3
			c0-1.3,0.5-2.4,1.4-3.4C236.9,355.8,238,355.3,239.4,355.3z"/>
	</g>
	<g>
		<radialGradient id="SVGID_3_" cx="240.8501" cy="358" r="3.65" gradientUnits="userSpaceOnUse">
			<stop  offset="0" style="stop-color:#FFFFFF"/>
			<stop  offset="0.1765" style="stop-color:#FFFFFF"/>
			<stop  offset="0.3059" style="stop-color:#FFFFFF;stop-opacity:0.4235"/>
			<stop  offset="0.4902" style="stop-color:#FFFFFF;stop-opacity:0.2314"/>
			<stop  offset="0.651" style="stop-color:#FFFFFF;stop-opacity:8.235294e-002"/>
			<stop  offset="1" style="stop-color:#FFFFFF;stop-opacity:0"/>
		</radialGradient>
		<path fill-rule="evenodd" clip-rule="evenodd" fill="url(#SVGID_3_)" d="M238.3,360.6c-0.7-0.7-1-1.5-1-2.6c0-1,0.3-1.8,1-2.5
			c0.7-0.7,1.6-1.1,2.6-1.1s1.8,0.4,2.5,1.1c0.7,0.7,1.1,1.5,1.1,2.5c0,1.1-0.4,1.9-1.1,2.6c-0.7,0.7-1.6,1.1-2.5,1.1
			S239,361.3,238.3,360.6z"/>
	</g>
</g>
</svg>
