<?xml version="1.0" encoding="utf-8"?>
<!-- Generator: Adobe Illustrator 16.0.0, SVG Export Plug-In . SVG Version: 6.00 Build 0)  -->
<!DOCTYPE svg PUBLIC "-//W3C//DTD SVG 1.1//EN" "http://www.w3.org/Graphics/SVG/1.1/DTD/svg11.dtd">
<svg version="1.1" xmlns="http://www.w3.org/2000/svg" xmlns:xlink="http://www.w3.org/1999/xlink" x="0px" y="0px" width="700px"
	 height="700px" viewBox="0 0 700 700" enable-background="new 0 0 700 700" xml:space="preserve">
<g id="Layer_4">
	<g id="XMLID_1_">
		<g>
			<linearGradient id="SVGID_1_" gradientUnits="userSpaceOnUse" x1="117.77" y1="504.0645" x2="120.8301" y2="504.0645">
				<stop  offset="7.526882e-002" style="stop-color:#020202"/>
				<stop  offset="0.5323" style="stop-color:#4F4F4F"/>
				<stop  offset="1" style="stop-color:#000000"/>
			</linearGradient>
			<path fill="url(#SVGID_1_)" d="M120.8,505.4l-3.1,0.8l0.5-4.2C118.3,502,118.4,504.5,120.8,505.4z"/>
		</g>
	</g>
	<g id="XMLID_2_">
		<g>
			<linearGradient id="SVGID_2_" gradientUnits="userSpaceOnUse" x1="112.8452" y1="504.0654" x2="109.7852" y2="504.0654">
				<stop  offset="7.526882e-002" style="stop-color:#020202"/>
				<stop  offset="0.5323" style="stop-color:#4F4F4F"/>
				<stop  offset="1" style="stop-color:#000000"/>
			</linearGradient>
			<path fill="url(#SVGID_2_)" d="M109.8,505.4l3.1,0.8l-0.5-4.2C112.3,502,112.3,504.5,109.8,505.4z"/>
		</g>
	</g>
</g>
<g id="Layer_2">
	<linearGradient id="SVGID_3_" gradientUnits="userSpaceOnUse" x1="112.2813" y1="471.2334" x2="118.2813" y2="471.2334">
		<stop  offset="7.526882e-002" style="stop-color:#434343"/>
		<stop  offset="0.4462" style="stop-color:#FFFFFF"/>
		<stop  offset="1" style="stop-color:#000000"/>
	</linearGradient>
	<rect x="112.3" y="432.8" fill="url(#SVGID_3_)" width="6" height="76.9"/>
</g>
<g id="Layer_3">
	<linearGradient id="SVGID_4_" gradientUnits="userSpaceOnUse" x1="108.1987" y1="507.584" x2="122.3643" y2="507.584">
		<stop  offset="7.526882e-002" style="stop-color:#434343"/>
		<stop  offset="0.4462" style="stop-color:#FFFFFF"/>
		<stop  offset="1" style="stop-color:#000000"/>
	</linearGradient>
	<path fill="url(#SVGID_4_)" d="M122.4,507.6c0,1.3-1,2.3-2.3,2.3h-9.6c-1.3,0-2.3-1-2.3-2.3l0,0c0-1.3,1-2.3,2.3-2.3h9.6
		C121.3,505.3,122.4,506.3,122.4,507.6L122.4,507.6z"/>
</g>
</svg>
