<?xml version="1.0" encoding="utf-8"?>
<!-- Generator: Adobe Illustrator 16.0.0, SVG Export Plug-In . SVG Version: 6.00 Build 0)  -->
<!DOCTYPE svg PUBLIC "-//W3C//DTD SVG 1.1//EN" "http://www.w3.org/Graphics/SVG/1.1/DTD/svg11.dtd">
<svg version="1.1" id="Layer_1" xmlns="http://www.w3.org/2000/svg" xmlns:xlink="http://www.w3.org/1999/xlink" x="0px" y="0px"
	 width="700px" height="700px" viewBox="0 0 700 700" enable-background="new 0 0 700 700" xml:space="preserve">
<g>
	<g>
		<rect x="274.5" y="447.3" fill-rule="evenodd" clip-rule="evenodd" fill="#100D18" width="200.1" height="41.9"/>
	</g>
	<g>
		<g>
			<g>
				<path fill-rule="evenodd" clip-rule="evenodd" d="M381.4,470.4L381.4,470.4L381.4,470.4c-0.3-0.3-0.6-0.5-0.8-0.7
					c-0.4-0.3-0.9-0.6-1.4-0.8v0c0,0-0.1,0-0.1,0H379c-0.9-0.4-1.8-0.6-2.8-0.6c-1.1,0-2.2,0.2-3.1,0.6c-0.8,0.4-1.6,0.9-2.2,1.6v0
					c-1,1-1.6,2.2-2,3.5c0,0.2-0.1,0.4-0.1,0.7c-0.1,0.4-0.1,0.8-0.1,1.2c0,2.1,0.7,3.8,2.2,5.3c0.6,0.6,1.2,1.1,1.9,1.4v0
					c1,0.5,2.1,0.8,3.4,0.8c2.1,0,3.9-0.7,5.3-2.2c1.3-1.2,2-2.7,2.2-4.4c0-0.2,0-0.4,0.1-0.6c0-0.1,0-0.2,0-0.3
					C383.7,473.7,383,471.9,381.4,470.4C381.5,470.4,381.4,470.4,381.4,470.4z M381.6,470.2c0,0,0.1,0.1,0.1,0.1
					c1.5,1.5,2.3,3.4,2.3,5.5c0,0.1,0,0.2,0,0.3c-0.1,2-0.8,3.7-2.3,5.2c-1.5,1.5-3.4,2.3-5.5,2.3c-1.3,0-2.5-0.3-3.5-0.8v0
					c-0.8-0.4-1.4-0.9-2-1.5c-1.5-1.5-2.2-3.3-2.2-5.5c0-0.7,0.1-1.3,0.2-1.9c0.3-1.3,1-2.5,2-3.6v0c0.7-0.7,1.5-1.3,2.4-1.6
					c1-0.4,2-0.6,3.2-0.6c1.1,0,2.1,0.2,3,0.6h-0.1c0,0,0.1,0,0.2,0.1v0c0.5,0.2,1,0.5,1.4,0.9C381,469.7,381.3,469.9,381.6,470.2
					L381.6,470.2z"/>
				
					<linearGradient id="SVGID_1_" gradientUnits="userSpaceOnUse" x1="-1.4512" y1="62.0278" x2="2.2178" y2="57.3231" gradientTransform="matrix(1.0452 0 0 1.0452 375.7002 414.4502)">
					<stop  offset="0" style="stop-color:#677787"/>
					<stop  offset="1" style="stop-color:#2E2E30"/>
				</linearGradient>
				<path fill-rule="evenodd" clip-rule="evenodd" fill="url(#SVGID_1_)" d="M372.7,481l7.9-11.3c0.3,0.2,0.6,0.4,0.8,0.7h0l0,0
					l-7.8,11C373.3,481.3,373,481.1,372.7,481z"/>
				<path fill-rule="evenodd" clip-rule="evenodd" fill="#0D0E12" d="M373.6,481.4l7.8-11c0,0,0,0,0.1,0.1c1.5,1.5,2.2,3.2,2.2,5.3
					c0,0.1,0,0.2,0,0.3c0,0.2,0,0.4-0.1,0.6c-0.4,1.1-1,2-1.9,2.9c-1.5,1.5-3.3,2.2-5.4,2.2C375.4,481.9,374.4,481.7,373.6,481.4z"
					/>
				
					<linearGradient id="SVGID_2_" gradientUnits="userSpaceOnUse" x1="-4.2505" y1="57.8369" x2="4.7495" y2="57.8369" gradientTransform="matrix(1.0452 0 0 1.0452 375.7002 414.4502)">
					<stop  offset="0" style="stop-color:#0E0F13"/>
					<stop  offset="1" style="stop-color:#0C0D11"/>
				</linearGradient>
				<path fill-rule="evenodd" clip-rule="evenodd" fill="url(#SVGID_2_)" d="M371.3,479.9l7.8-11.1h0.1c0,0,0.1,0,0.1,0v0
					c0.5,0.2,0.9,0.5,1.4,0.8l-7.9,11.3C372.2,480.7,371.7,480.3,371.3,479.9z"/>
				
					<linearGradient id="SVGID_3_" gradientUnits="userSpaceOnUse" x1="0.6812" y1="50.2793" x2="-6.1458" y2="61.5031" gradientTransform="matrix(1.0452 0 0 1.0452 375.7002 414.4502)">
					<stop  offset="0" style="stop-color:#2B2C2E"/>
					<stop  offset="0.3216" style="stop-color:#2A2B2D"/>
					<stop  offset="0.4118" style="stop-color:#212225"/>
					<stop  offset="1" style="stop-color:#111216"/>
				</linearGradient>
				<path fill-rule="evenodd" clip-rule="evenodd" fill="url(#SVGID_3_)" d="M379,468.8l-7.8,11.1c-0.1-0.1-0.2-0.2-0.3-0.3
					c-1.4-1.4-2.1-3.1-2.2-5c0-0.2,0.1-0.4,0.1-0.7c0.3-1.3,1-2.5,2-3.5v0c0.7-0.7,1.4-1.2,2.2-1.6c0.9-0.4,2-0.6,3.1-0.6
					C377.2,468.3,378.1,468.4,379,468.8z"/>
				
					<linearGradient id="SVGID_4_" gradientUnits="userSpaceOnUse" x1="-6.875" y1="61.7124" x2="7.775" y2="61.7124" gradientTransform="matrix(1.0452 0 0 1.0452 375.7002 414.4502)">
					<stop  offset="0" style="stop-color:#1B1C20"/>
					<stop  offset="0.4118" style="stop-color:#56575B"/>
					<stop  offset="1" style="stop-color:#3E3F43"/>
				</linearGradient>
				<path fill-rule="evenodd" clip-rule="evenodd" fill="url(#SVGID_4_)" d="M368.8,474.6c0.1,1.9,0.8,3.6,2.2,5
					c0.1,0.1,0.2,0.2,0.3,0.3c0.5,0.4,0.9,0.8,1.5,1c0.3,0.2,0.6,0.3,0.9,0.4c0.8,0.3,1.8,0.5,2.8,0.5c2.1,0,3.9-0.7,5.4-2.2
					c0.9-0.9,1.5-1.8,1.9-2.9c-0.2,1.7-0.9,3.1-2.2,4.4c-1.5,1.5-3.2,2.2-5.3,2.2c-1.3,0-2.4-0.2-3.4-0.8v0
					c-0.7-0.3-1.4-0.8-1.9-1.4c-1.4-1.5-2.2-3.2-2.2-5.3C368.7,475.4,368.7,475,368.8,474.6z"/>
			</g>
		</g>
	</g>
	<g>
		<g>
			
				<line fill-rule="evenodd" clip-rule="evenodd" fill="none" stroke="#FFFFFF" stroke-width="0.75" stroke-linecap="round" stroke-linejoin="round" stroke-miterlimit="3" x1="265.1" y1="442.5" x2="265.1" y2="442"/>
			
				<line fill-rule="evenodd" clip-rule="evenodd" fill="none" stroke="#FFFFFF" stroke-width="0.75" stroke-linecap="round" stroke-linejoin="round" stroke-miterlimit="3" stroke-opacity="0.5843" x1="265.1" y1="442.5" x2="482" y2="442.5"/>
			
				<line fill-rule="evenodd" clip-rule="evenodd" fill="none" stroke="#6D6D8F" stroke-width="0.75" stroke-linecap="round" stroke-linejoin="round" stroke-miterlimit="3" x1="265.1" y1="442" x2="482" y2="442"/>
		</g>
	</g>
</g>
</svg>
