<?xml version="1.0" encoding="utf-8"?>
<!-- Generator: Adobe Illustrator 16.0.0, SVG Export Plug-In . SVG Version: 6.00 Build 0)  -->
<!DOCTYPE svg PUBLIC "-//W3C//DTD SVG 1.1//EN" "http://www.w3.org/Graphics/SVG/1.1/DTD/svg11.dtd">
<svg version="1.1" id="Layer_1" xmlns="http://www.w3.org/2000/svg" xmlns:xlink="http://www.w3.org/1999/xlink" x="0px" y="0px"
	 width="34.6px" height="119.4px" viewBox="0 0 34.6 119.4" enable-background="new 0 0 34.6 119.4" xml:space="preserve">
<g>
	<g>
		<g>
			
				<linearGradient id="SVGID_1_" gradientUnits="userSpaceOnUse" x1="-112.8252" y1="-246.0752" x2="-86.375" y2="-246.0752" gradientTransform="matrix(1.0151 0 0 1.0151 118.6442 362.1992)">
				<stop  offset="0" style="stop-color:#757774"/>
				<stop  offset="8.235294e-002" style="stop-color:#757679"/>
				<stop  offset="0.3647" style="stop-color:#757781"/>
				<stop  offset="0.5216" style="stop-color:#3D3E42"/>
				<stop  offset="0.7608" style="stop-color:#62676D"/>
				<stop  offset="1" style="stop-color:#47484C"/>
			</linearGradient>
			<path fill-rule="evenodd" clip-rule="evenodd" fill="url(#SVGID_1_)" d="M30.9,107.9v0.2V107.9l-2,10c-2-0.1-4.1-0.2-6.1-0.3
				c-0.6,0-1.3-0.1-1.9-0.1c-2.1,0-4.3,0-6.4,0.1c-2.9,0-5.7,0.2-8.6,0.4l-1.7-9.9V108c0,0-0.1-0.1-0.1-0.1s0-0.1,0.1-0.1
				c0-0.1,0.2-0.2,0.6-0.3c0.4-0.1,1-0.2,1.9-0.3c0.8,0,1.8-0.1,3-0.3c0.7-0.1,2.1-0.2,4-0.3c0.9,0,2.1-0.1,3.4-0.1
				c2.2,0,4.1,0.1,5.8,0.2c0.1,0,0.2,0,0.3,0c1.2,0,2.2,0.1,3.1,0.2c2.4,0.2,3.8,0.4,4.4,0.6c0,0,0.1,0,0.2,0.1
				C30.8,107.8,30.9,107.8,30.9,107.9z"/>
			
				<linearGradient id="SVGID_2_" gradientUnits="userSpaceOnUse" x1="-112.7749" y1="-266.8999" x2="-86.4253" y2="-266.8999" gradientTransform="matrix(1.0151 0 0 1.0151 118.6442 362.1992)">
				<stop  offset="0" style="stop-color:#8D8F8E"/>
				<stop  offset="0.2039" style="stop-color:#AFB2C5"/>
				<stop  offset="0.5882" style="stop-color:#747A86"/>
				<stop  offset="0.7373" style="stop-color:#787C85"/>
				<stop  offset="1" style="stop-color:#585A58"/>
			</linearGradient>
			<path fill-rule="evenodd" clip-rule="evenodd" fill="url(#SVGID_2_)" d="M4.2,107.9V74.7h26.7v33.2c0,0-0.1-0.1-0.2-0.1
				c-0.1,0-0.1-0.1-0.2-0.1c-0.6-0.2-2-0.4-4.4-0.6c-0.9-0.1-2-0.2-3.1-0.2c-0.1,0-0.2,0-0.3,0c-1.7-0.1-3.7-0.2-5.8-0.2
				c-1.3,0-2.4,0-3.4,0.1c-1.9,0-3.2,0.1-4,0.3c-1.2,0.2-2.1,0.3-3,0.3c-0.9,0-1.5,0.1-1.9,0.3C4.4,107.7,4.2,107.8,4.2,107.9z"/>
		</g>
	</g>
	<g>
		<g>
			
				<linearGradient id="SVGID_3_" gradientUnits="userSpaceOnUse" x1="-106.6255" y1="-331.5" x2="-93.2256" y2="-331.5" gradientTransform="matrix(1.0151 0 0 1.0151 118.6442 362.1992)">
				<stop  offset="0" style="stop-color:#686A6C"/>
				<stop  offset="0.1725" style="stop-color:#BEC0C4"/>
				<stop  offset="0.1882" style="stop-color:#E2E5EC"/>
				<stop  offset="0.3137" style="stop-color:#A1A4AD"/>
				<stop  offset="0.5059" style="stop-color:#7D7E82"/>
				<stop  offset="0.6667" style="stop-color:#969897"/>
				<stop  offset="0.8235" style="stop-color:#CCCCCC"/>
				<stop  offset="1" style="stop-color:#71716C"/>
			</linearGradient>
			<rect x="10.4" y="18.9" fill-rule="evenodd" clip-rule="evenodd" fill="url(#SVGID_3_)" width="13.6" height="13.6"/>
		</g>
		<g>
			
				<radialGradient id="SVGID_4_" cx="-99.4248" cy="-321.6499" r="32.6" gradientTransform="matrix(1.0151 0 0 0.4056 118.6442 166.1496)" gradientUnits="userSpaceOnUse">
				<stop  offset="0" style="stop-color:#060606;stop-opacity:0"/>
				<stop  offset="0.3451" style="stop-color:#060606;stop-opacity:8.235294e-002"/>
				<stop  offset="0.4706" style="stop-color:#060606;stop-opacity:0.4431"/>
				<stop  offset="0.6" style="stop-color:#060606;stop-opacity:0.6118"/>
				<stop  offset="0.698" style="stop-color:#040404;stop-opacity:0.1529"/>
				<stop  offset="1" style="stop-color:#000000;stop-opacity:0"/>
			</radialGradient>
			<rect x="10.4" y="18.9" fill-rule="evenodd" clip-rule="evenodd" fill="url(#SVGID_4_)" width="13.6" height="11.4"/>
		</g>
	</g>
	<g>
		<g>
			<g>
				
					<linearGradient id="SVGID_5_" gradientUnits="userSpaceOnUse" x1="-114.9751" y1="-302.1943" x2="-84.5249" y2="-302.1943" gradientTransform="matrix(1.0151 0 0 1.0151 118.6442 362.1992)">
					<stop  offset="0" style="stop-color:#55565F"/>
					<stop  offset="0.1569" style="stop-color:#CECED0"/>
					<stop  offset="0.349" style="stop-color:#BFC2D0"/>
					<stop  offset="0.5529" style="stop-color:#737984"/>
					<stop  offset="0.7882" style="stop-color:#E9EBEB"/>
					<stop  offset="1" style="stop-color:#585A58"/>
				</linearGradient>
				<path fill-rule="evenodd" clip-rule="evenodd" fill="url(#SVGID_5_)" d="M32.8,78.1h-0.1c-0.3-0.4-2.7-0.7-7.2-0.9
					c-4.5-0.2-8.1-0.4-10.8-0.4c-2.6,0-5.5,0.2-8.6,0.5c-1.9,0.2-3.3,0.5-4.1,0.8H2v-21V35.6c0,0,0-0.1-0.1-0.1
					c0.7-0.3,1.5-0.6,2.3-0.8c0.8-0.2,2.9-0.7,6.4-1.3c3.5-0.7,7.4-0.9,11.6-0.5c2.9,0.4,5.1,0.8,6.3,1.3c0,0,0.1,0,0.3,0.1h0.1
					c0,0,0,0,0.1,0c2.1,0.5,3.4,1,3.8,1.3h0.1v21.6V78.1z"/>
				
					<linearGradient id="SVGID_6_" gradientUnits="userSpaceOnUse" x1="-113.5" y1="-325.4756" x2="-83.1499" y2="-325.4756" gradientTransform="matrix(1.0151 0 0 1.0151 118.6442 362.1992)">
					<stop  offset="0" style="stop-color:#4A4B53"/>
					<stop  offset="0.2588" style="stop-color:#70737E"/>
					<stop  offset="0.4706" style="stop-color:#BFC2D0"/>
					<stop  offset="0.7686" style="stop-color:#737984"/>
					<stop  offset="1" style="stop-color:#585A58"/>
				</linearGradient>
				<path fill-rule="evenodd" clip-rule="evenodd" fill="url(#SVGID_6_)" d="M32.7,35.5c-0.4-0.3-1.7-0.7-3.8-1.3c0,0-0.1,0-0.1,0
					h-0.1c-0.1,0-0.2-0.1-0.3-0.1c-1.3-0.5-3.4-0.9-6.3-1.3c-4.3-0.4-8.1-0.2-11.6,0.5c-3.5,0.6-5.6,1.1-6.4,1.3
					c-0.8,0.2-1.6,0.5-2.3,0.8l8.2-6.7c5.7-1.2,10.4-1.2,14.4,0L32.7,35.5z"/>
				
					<linearGradient id="SVGID_7_" gradientUnits="userSpaceOnUse" x1="-114.8257" y1="-279.8252" x2="-84.5249" y2="-279.8252" gradientTransform="matrix(1.0151 0 0 1.0151 118.6442 362.1992)">
					<stop  offset="0" style="stop-color:#4A4B53"/>
					<stop  offset="0.2667" style="stop-color:#767D9A"/>
					<stop  offset="0.4706" style="stop-color:#747A86"/>
					<stop  offset="0.7569" style="stop-color:#46484A"/>
					<stop  offset="1" style="stop-color:#585A58"/>
				</linearGradient>
				<path fill-rule="evenodd" clip-rule="evenodd" fill="url(#SVGID_7_)" d="M2.2,78.1c0.8-0.3,2.1-0.6,4.1-0.8
					c3.1-0.3,5.9-0.5,8.6-0.5c2.6,0,6.2,0.1,10.8,0.4c4.5,0.2,6.9,0.5,7.2,0.9h0.1c-0.6,0.8-1.4,1.2-2.1,1.3
					c-0.7-0.1-1.5-0.2-2.3-0.3c-3-0.3-6.7-0.5-11-0.5c-4.3,0-8,0.2-11.1,0.5c-0.9,0.1-1.6,0.2-2.3,0.3c-0.5-0.1-1.1-0.5-1.9-1.3
					C2.1,78.1,2.2,78.1,2.2,78.1z"/>
			</g>
		</g>
		<g>
			
				<radialGradient id="SVGID_8_" cx="-94.2251" cy="-324.1499" r="7.9948" gradientTransform="matrix(1.0125 7.274737e-002 -1.402761e-002 0.1952 113.8512 103.3009)" gradientUnits="userSpaceOnUse">
				<stop  offset="0" style="stop-color:#FFFFFF"/>
				<stop  offset="0.1765" style="stop-color:#FFFFFF"/>
				<stop  offset="0.3059" style="stop-color:#FFFFFF;stop-opacity:0.4235"/>
				<stop  offset="0.4902" style="stop-color:#FFFFFF;stop-opacity:0.2314"/>
				<stop  offset="0.651" style="stop-color:#FFFFFF;stop-opacity:8.235294e-002"/>
				<stop  offset="1" style="stop-color:#FFFFFF;stop-opacity:0"/>
			</radialGradient>
			<path fill-rule="evenodd" clip-rule="evenodd" fill="url(#SVGID_8_)" d="M28.7,32.5c1.6,0.4,2.4,0.8,2.4,1.2
				c0,0.4-0.9,0.7-2.5,0.9c-1.6,0.2-3.5,0.3-5.6,0.1c-2.2-0.2-4-0.5-5.6-0.9c-1.5-0.4-2.2-0.8-2.1-1.2c0-0.4,0.8-0.7,2.3-0.9
				c1.6-0.2,3.5-0.2,5.7-0.1C25.3,31.8,27.1,32.1,28.7,32.5z"/>
		</g>
	</g>
	<g>
		<g>
			
				<linearGradient id="SVGID_9_" gradientUnits="userSpaceOnUse" x1="-115.0752" y1="-343.9463" x2="-84.7752" y2="-343.9463" gradientTransform="matrix(1.0151 0 0 1.0151 118.6442 362.1992)">
				<stop  offset="0" style="stop-color:#4A4B53"/>
				<stop  offset="0.2667" style="stop-color:#767D9A"/>
				<stop  offset="0.4706" style="stop-color:#747A86"/>
				<stop  offset="0.7569" style="stop-color:#46484A"/>
				<stop  offset="1" style="stop-color:#585A58"/>
			</linearGradient>
			<path fill-rule="evenodd" clip-rule="evenodd" fill="url(#SVGID_9_)" d="M25.8,23.6L24,24.7c0.2-0.2-0.3-0.4-1.6-0.6
				c-0.8-0.1-1.6-0.1-2.6-0.2c-0.9-0.1-1.8-0.1-2.7-0.1s-1.8,0-2.5,0.1c-1,0-1.9,0.1-2.8,0.2c-1,0.1-1.4,0.4-1.2,0.7l-2-1.2v-0.1
				c0.2-0.2,1-0.5,2.4-0.7c1-0.1,2.1-0.2,3.2-0.3c0.9,0,1.8-0.1,2.9-0.1c1.1,0,2.2,0,3.2,0.1c1,0.1,2,0.2,3,0.3
				C24.7,23,25.6,23.3,25.8,23.6z M25.8,7.2c-0.2-0.3-1.1-0.6-2.5-0.8c-0.9-0.1-1.9-0.2-3-0.3c-1,0-2.1-0.1-3.2-0.1
				c-1,0-2,0-2.9,0.1C13,6.2,12,6.3,11,6.4C9.5,6.6,8.7,6.9,8.5,7.1L11,2.2c4.2-1,8.2-1.1,11.8-0.3L25.8,7.2z"/>
			
				<linearGradient id="SVGID_10_" gradientUnits="userSpaceOnUse" x1="-108.5" y1="-342.2002" x2="-91.4492" y2="-342.2002" gradientTransform="matrix(1.0151 0 0 1.0151 118.6442 362.1992)">
				<stop  offset="0" style="stop-color:#55565F"/>
				<stop  offset="0.1569" style="stop-color:#CECED0"/>
				<stop  offset="0.349" style="stop-color:#BFC2D0"/>
				<stop  offset="0.5529" style="stop-color:#737984"/>
				<stop  offset="0.7882" style="stop-color:#E9EBEB"/>
				<stop  offset="1" style="stop-color:#585A58"/>
			</linearGradient>
			<path fill-rule="evenodd" clip-rule="evenodd" fill="url(#SVGID_10_)" d="M8.5,7.1c0.2-0.3,1-0.5,2.4-0.7c1-0.1,2.1-0.2,3.2-0.3
				c0.9,0,1.8-0.1,2.9-0.1c1.1,0,2.2,0,3.2,0.1c1,0.1,2,0.2,3,0.3c1.5,0.2,2.3,0.5,2.5,0.8v3.2c0,0,0,0.1,0,0.1s0,0.1,0,0.1v13
				c-0.3-0.3-1.1-0.5-2.5-0.8c-0.9-0.1-1.9-0.2-3-0.3c-1,0-2.1-0.1-3.2-0.1c-1,0-2,0-2.9,0.1c-1.2,0-2.3,0.1-3.2,0.3
				c-1.4,0.2-2.2,0.5-2.4,0.7V7.1z"/>
		</g>
	</g>
</g>
</svg>
