<?xml version="1.0" encoding="utf-8"?>
<!-- Generator: Adobe Illustrator 16.0.0, SVG Export Plug-In . SVG Version: 6.00 Build 0)  -->
<!DOCTYPE svg PUBLIC "-//W3C//DTD SVG 1.1//EN" "http://www.w3.org/Graphics/SVG/1.1/DTD/svg11.dtd">
<svg version="1.1" id="Layer_1" xmlns="http://www.w3.org/2000/svg" xmlns:xlink="http://www.w3.org/1999/xlink" x="0px" y="0px"
	 width="700px" height="700px" viewBox="0 0 700 700" enable-background="new 0 0 700 700" xml:space="preserve">
<symbol  id="glaceenbn" viewBox="-2.3 -2.4 4.6 4.6">
	<g id="Layer_3_1_">
		<radialGradient id="SVGID_1_" cx="0" cy="0" r="2.3625" gradientUnits="userSpaceOnUse">
			<stop  offset="0" style="stop-color:#FFFFFF"/>
			<stop  offset="0.1765" style="stop-color:#FFFFFF"/>
			<stop  offset="0.3059" style="stop-color:#FFFFFF;stop-opacity:0.4235"/>
			<stop  offset="0.4902" style="stop-color:#FFFFFF;stop-opacity:0.2314"/>
			<stop  offset="0.651" style="stop-color:#FFFFFF;stop-opacity:8.235294e-002"/>
			<stop  offset="1" style="stop-color:#FFFFFF;stop-opacity:0"/>
		</radialGradient>
		<path fill-rule="evenodd" clip-rule="evenodd" fill="url(#SVGID_1_)" d="M1.6,1.6c0.5-0.4,0.7-1,0.7-1.6c0-0.7-0.2-1.2-0.7-1.6
			C1.2-2.1,0.6-2.4,0-2.4s-1.2,0.2-1.6,0.7c-0.4,0.4-0.6,1-0.6,1.6c0,0.6,0.2,1.2,0.6,1.6c0.5,0.5,1,0.7,1.6,0.7S1.2,2.1,1.6,1.6z"
			/>
	</g>
</symbol>
<g>
	<g>
		<g>
			
				<radialGradient id="SVGID_2_" cx="241.1001" cy="463.9004" r="3.2" gradientTransform="matrix(1 0 0 5.3711 0 -2027.7522)" gradientUnits="userSpaceOnUse">
				<stop  offset="0" style="stop-color:#E8EAEC"/>
				<stop  offset="0.2431" style="stop-color:#979AA1"/>
				<stop  offset="0.6" style="stop-color:#75787C"/>
				<stop  offset="1" style="stop-color:#4E5052"/>
			</radialGradient>
			<path fill-rule="evenodd" clip-rule="evenodd" fill="url(#SVGID_2_)" d="M245.1,472.5c-0.2-0.4-0.5-0.9-0.9-1.3
				c-0.8-0.6-1.7-0.9-2.8-0.9c-1.1,0-2,0.2-2.5,0.5c-0.5,0.4-0.9,0.8-1.2,1.3c-0.1,0.2-0.2,0.4-0.3,0.6l1-10.7
				c0.2-0.9,0.9-1.5,2.2-1.8c0.1,0,0.2,0,0.4,0c0.7,0,1.3,0.2,1.8,0.5c0.1,0,0.1,0,0.2,0.1c0.3,0.3,0.5,0.5,0.7,0.8
				c0,0.1,0,0.2,0.1,0.3L245.1,472.5z"/>
			
				<radialGradient id="SVGID_3_" cx="240.2002" cy="471.25" r="5.4875" gradientTransform="matrix(1 0 0 1.1207 0 -56.8936)" gradientUnits="userSpaceOnUse">
				<stop  offset="0" style="stop-color:#E8EAEC"/>
				<stop  offset="0.2863" style="stop-color:#979AA1"/>
				<stop  offset="0.5255" style="stop-color:#75787C"/>
				<stop  offset="1" style="stop-color:#212322"/>
			</radialGradient>
			<path fill-rule="evenodd" clip-rule="evenodd" fill="url(#SVGID_3_)" d="M237.5,472.7c0.1-0.2,0.2-0.4,0.3-0.6
				c0.3-0.4,0.7-0.8,1.2-1.3c0.5-0.4,1.4-0.5,2.5-0.5c1.1,0,2,0.3,2.8,0.9c0.5,0.4,0.8,0.9,0.9,1.3c0.1,0.3,0.2,0.7,0.2,1
				c0,0.1,0,0.2,0,0.3c-0.1,0.8-0.5,1.4-1.1,2c-0.8,0.6-1.7,1-2.8,1c-1.1,0-2.1-0.3-2.9-1c-0.8-0.6-1.1-1.3-1.1-2.2
				C237.5,473.2,237.5,472.9,237.5,472.7z"/>
		</g>
	</g>
	
		<use xlink:href="#glaceenbn"  width="4.6" height="4.6" x="-2.3" y="-2.4" transform="matrix(1.265 -0.3462 -0.2425 -0.8863 240.0498 471.25)" overflow="visible"/>
</g>
</svg>
