<?xml version="1.0" encoding="utf-8"?>
<!-- Generator: Adobe Illustrator 16.0.0, SVG Export Plug-In . SVG Version: 6.00 Build 0)  -->
<!DOCTYPE svg PUBLIC "-//W3C//DTD SVG 1.1//EN" "http://www.w3.org/Graphics/SVG/1.1/DTD/svg11.dtd">
<svg version="1.1" id="Layer_1" xmlns="http://www.w3.org/2000/svg" xmlns:xlink="http://www.w3.org/1999/xlink" x="0px" y="0px"
	 width="700px" height="700px" viewBox="0 0 700 700" enable-background="new 0 0 700 700" xml:space="preserve">
<symbol  id="glaceenbn" viewBox="-2.3 -2.4 4.6 4.6">
	<g id="Layer_3_1_">
		<radialGradient id="SVGID_1_" cx="0" cy="0" r="2.3625" gradientUnits="userSpaceOnUse">
			<stop  offset="0" style="stop-color:#FFFFFF"/>
			<stop  offset="0.1765" style="stop-color:#FFFFFF"/>
			<stop  offset="0.3059" style="stop-color:#FFFFFF;stop-opacity:0.4235"/>
			<stop  offset="0.4902" style="stop-color:#FFFFFF;stop-opacity:0.2314"/>
			<stop  offset="0.651" style="stop-color:#FFFFFF;stop-opacity:8.235294e-002"/>
			<stop  offset="1" style="stop-color:#FFFFFF;stop-opacity:0"/>
		</radialGradient>
		<path fill-rule="evenodd" clip-rule="evenodd" fill="url(#SVGID_1_)" d="M1.6,1.6c0.5-0.4,0.7-1,0.7-1.6c0-0.7-0.2-1.2-0.7-1.6
			C1.2-2.1,0.6-2.4,0-2.4s-1.2,0.2-1.6,0.7c-0.4,0.4-0.6,1-0.6,1.6c0,0.6,0.2,1.2,0.6,1.6c0.5,0.5,1,0.7,1.6,0.7S1.2,2.1,1.6,1.6z"
			/>
	</g>
</symbol>
<g>
	<g>
		
			<radialGradient id="SVGID_2_" cx="244.6499" cy="454.25" r="2.7375" gradientTransform="matrix(1 0 0 0.5982 0 182.5297)" gradientUnits="userSpaceOnUse">
			<stop  offset="0" style="stop-color:#FFFFFF"/>
			<stop  offset="0.1765" style="stop-color:#FFFFFF"/>
			<stop  offset="0.3059" style="stop-color:#FFFFFF;stop-opacity:0.4235"/>
			<stop  offset="0.4902" style="stop-color:#FFFFFF;stop-opacity:0.2314"/>
			<stop  offset="0.651" style="stop-color:#FFFFFF;stop-opacity:8.235294e-002"/>
			<stop  offset="1" style="stop-color:#FFFFFF;stop-opacity:0"/>
		</radialGradient>
		<path fill-rule="evenodd" clip-rule="evenodd" fill="url(#SVGID_2_)" d="M244.6,455.9c-0.7,0-1.4-0.2-1.9-0.6
			c-0.5-0.3-0.8-0.7-0.8-1.1c0-0.4,0.3-0.8,0.8-1.1c0.5-0.3,1.2-0.5,1.9-0.5s1.4,0.2,2,0.5c0.6,0.3,0.9,0.7,0.9,1.1
			c0,0.4-0.3,0.8-0.9,1.1C246,455.7,245.4,455.9,244.6,455.9z"/>
	</g>
	<g>
		<g>
			<radialGradient id="SVGID_3_" cx="241.25" cy="454.3496" r="4.8875" gradientUnits="userSpaceOnUse">
				<stop  offset="0" style="stop-color:#FFFFFF"/>
				<stop  offset="0.4314" style="stop-color:#F4F4F4;stop-opacity:0.6314"/>
				<stop  offset="0.7529" style="stop-color:#F1F1F1;stop-opacity:0.3333"/>
				<stop  offset="1" style="stop-color:#EEEEEE;stop-opacity:0"/>
			</radialGradient>
			<path fill-rule="evenodd" clip-rule="evenodd" fill="url(#SVGID_3_)" d="M236.5,454.6L236.5,454.6c-0.1,0-0.2,0-0.3-0.1l-0.1,0
				l0.1-0.1c-0.1-0.1-0.1-0.1,0-0.3c0.1,0,0.1,0,0.2,0h9.8c0.1,0,0.1,0,0.2,0c0.1,0.1,0.1,0.2,0.1,0.3c0,0.1,0,0.1-0.1,0.2
				c-0.1,0.1-0.1,0.1-0.2,0.1H236.5z"/>
			<radialGradient id="SVGID_4_" cx="240.0498" cy="464.9004" r="4.975" gradientUnits="userSpaceOnUse">
				<stop  offset="0" style="stop-color:#FFFFFF"/>
				<stop  offset="0.4314" style="stop-color:#F4F4F4;stop-opacity:0.6314"/>
				<stop  offset="0.7529" style="stop-color:#F1F1F1;stop-opacity:0.3333"/>
				<stop  offset="1" style="stop-color:#EEEEEE;stop-opacity:0"/>
			</radialGradient>
			<path fill-rule="evenodd" clip-rule="evenodd" fill="url(#SVGID_4_)" d="M244.3,467.2c0.1,0,0.1,0.1,0.1,0.1s0,0.1-0.1,0.2
				c-0.1,0.1-0.1,0.1-0.1,0.1h-5.8l0-0.1h-0.1l-2.7-4.8c-0.1-0.1-0.1-0.1,0-0.2c0-0.1,0.1-0.1,0.2-0.2c0-0.1,0.1-0.1,0.1,0l0.1,0.1
				l2.5,4.7h5.6C244.2,467.1,244.2,467.1,244.3,467.2z"/>
			<radialGradient id="SVGID_5_" cx="234.25" cy="458.2002" r="4.4125" gradientUnits="userSpaceOnUse">
				<stop  offset="0" style="stop-color:#FFFFFF"/>
				<stop  offset="0.4314" style="stop-color:#F4F4F4;stop-opacity:0.6314"/>
				<stop  offset="0.7529" style="stop-color:#F1F1F1;stop-opacity:0.3333"/>
				<stop  offset="1" style="stop-color:#EEEEEE;stop-opacity:0"/>
			</radialGradient>
			<path fill-rule="evenodd" clip-rule="evenodd" fill="url(#SVGID_5_)" d="M236.1,454.5L236.1,454.5c0.1,0.1,0.2,0.1,0.3,0.1h0.1
				l-4.6,7.4L236.1,454.5z M231.9,462.2c0.2,0,0.4,0.1,0.4,0.2c-0.1,0-0.2,0-0.3-0.1C231.9,462.2,231.9,462.2,231.9,462.2z"/>
		</g>
	</g>
	<g>
		<g>
			<g>
				
					<radialGradient id="SVGID_6_" cx="242.6001" cy="454.7998" r="5.7225" gradientTransform="matrix(-0.9982 -5.970707e-002 6.689867e-002 -1.1184 454.3419 977.9551)" gradientUnits="userSpaceOnUse">
					<stop  offset="0" style="stop-color:#E8EAEC"/>
					<stop  offset="0.2863" style="stop-color:#979AA1"/>
					<stop  offset="0.5255" style="stop-color:#75787C"/>
					<stop  offset="1" style="stop-color:#212322"/>
				</radialGradient>
				<path fill-rule="evenodd" clip-rule="evenodd" fill="url(#SVGID_6_)" d="M237.9,454c-0.2-0.3-0.3-0.6-0.4-0.8
					c-0.1-0.3-0.2-0.7-0.2-1c0-0.1,0-0.3,0-0.4c0.1-0.3,0.2-0.6,0.4-1c0.1,0,0.1,0,0.1-0.1c0.3-0.3,0.6-0.6,1-0.8
					c0.8-0.6,1.8-0.9,2.8-0.9c1.2,0.1,2.2,0.5,3,1.2c0.4,0.3,0.6,0.7,0.9,1.1c0,0.1,0.1,0.3,0.1,0.5c0,0.3,0,0.5,0,0.9
					c0,0.3,0,0.6-0.1,0.8c-0.1,0.2-0.2,0.3-0.3,0.5L245,454c-0.3,0.4-0.7,0.9-1.3,1.3c-0.6,0.3-1.4,0.4-2.6,0.4
					c-1.1-0.1-2-0.4-2.8-1.1C238.2,454.4,238,454.2,237.9,454z"/>
				
					<radialGradient id="SVGID_7_" cx="241.25" cy="459.75" r="3.3443" gradientTransform="matrix(-0.998 -6.276476e-002 0.3368 -5.3559 327.1676 2937.283)" gradientUnits="userSpaceOnUse">
					<stop  offset="0" style="stop-color:#E8EAEC"/>
					<stop  offset="0.2431" style="stop-color:#979AA1"/>
					<stop  offset="0.6" style="stop-color:#75787C"/>
					<stop  offset="1" style="stop-color:#4E5052"/>
				</radialGradient>
				<path fill-rule="evenodd" clip-rule="evenodd" fill="url(#SVGID_7_)" d="M237.9,454c0.1,0.2,0.3,0.4,0.5,0.6
					c0.8,0.7,1.7,1,2.8,1.1c1.2,0.1,2.1,0,2.6-0.4c0.6-0.4,1-0.9,1.3-1.3l0.1-0.1l-1.3,8c-0.3,0.9-1.1,1.5-2.4,1.7
					c-0.2,0-0.3,0-0.5,0c-0.7-0.1-1.3-0.3-1.8-0.7c-0.1,0-0.1,0-0.2,0c-0.2-0.3-0.4-0.6-0.6-1c0-0.1,0-0.2,0-0.3L237.9,454z"/>
			</g>
		</g>
		
			<use xlink:href="#glaceenbn"  width="4.6" height="4.6" x="-2.3" y="-2.4" transform="matrix(-1.3412 0.2788 0.1953 0.9397 238.6001 451.5498)" overflow="visible"/>
	</g>
</g>
</svg>
