<?xml version="1.0" encoding="utf-8"?>
<!-- Generator: Adobe Illustrator 16.0.0, SVG Export Plug-In . SVG Version: 6.00 Build 0)  -->
<!DOCTYPE svg PUBLIC "-//W3C//DTD SVG 1.1//EN" "http://www.w3.org/Graphics/SVG/1.1/DTD/svg11.dtd">
<svg version="1.1" id="Layer_1" xmlns="http://www.w3.org/2000/svg" xmlns:xlink="http://www.w3.org/1999/xlink" x="0px" y="0px"
	 width="330px" height="180px" viewBox="0 0 330 180" enable-background="new 0 0 330 180" xml:space="preserve">
<g>
	<g>
		<path fill-rule="evenodd" clip-rule="evenodd" fill="#CCCCCC" d="M317.9,8.3c3.8,0,5.7,1.9,5.7,5.7v149.3c0,3.8-1.9,5.7-5.7,5.7
			H103.8c-3.8,0-5.7-1.9-5.7-5.7V14c0-3.8,1.9-5.7,5.7-5.7H317.9z"/>
	</g>
	<g>
		<g>
			<path fill-rule="evenodd" clip-rule="evenodd" fill="none" stroke="#EFEFEF" stroke-miterlimit="10" d="M98,146.3
				C98.1,146.3,98.1,146.3,98,146.3c0.1,0,0.1,0.1,0.1,0.1c0,0,0,0.1,0,0.1c0,0,0,0.1-0.1,0.1h0l-2.9,0.8c0,0-0.1,0-0.1,0
				c0,0-0.1,0-0.1-0.1c0,0,0-0.1,0-0.1c0,0,0-0.1,0.1-0.1L98,146.3L98,146.3z M51.8,159.3C51.7,159.3,51.7,159.3,51.8,159.3l-3,0.9
				c0,0-0.1,0-0.1,0c0,0-0.1,0-0.1-0.1c0,0,0-0.1,0-0.1c0,0,0-0.1,0.1-0.1l2.9-0.8c0,0,0.1,0,0.1,0
				C51.7,159.1,51.8,159.1,51.8,159.3C51.8,159.2,51.8,159.2,51.8,159.3z M42.9,161.5C42.9,161.5,42.9,161.5,42.9,161.5l3-0.9
				c0,0,0.1,0,0.1,0c0,0,0.1,0,0.1,0.1c0,0,0,0.1,0,0.1c0,0,0,0.1-0.1,0.1l-2.9,0.8c0,0-0.1,0-0.1,0
				C42.9,161.7,42.8,161.7,42.9,161.5C42.8,161.6,42.8,161.6,42.9,161.5z M75,152.8C74.9,152.9,74.9,152.9,75,152.8l-3,0.9
				c0,0-0.1,0-0.1,0c0,0-0.1,0-0.1-0.1c0,0,0-0.1,0-0.1c0,0,0-0.1,0.1-0.1l2.9-0.8c0,0,0.1,0,0.1,0C74.9,152.7,75,152.7,75,152.8
				C75,152.8,75,152.8,75,152.8z M57.5,157.7C57.5,157.7,57.5,157.7,57.5,157.7l-3,0.9c0,0-0.1,0-0.1,0c0,0-0.1,0-0.1-0.1
				c0,0,0-0.1,0-0.1c0,0,0-0.1,0.1-0.1l2.9-0.8c0,0,0.1,0,0.1,0C57.5,157.5,57.6,157.5,57.5,157.7C57.6,157.6,57.6,157.6,57.5,157.7
				z M63.4,156C63.3,156.1,63.3,156.1,63.4,156l-3,0.9c0,0-0.1,0-0.1,0c0,0-0.1,0-0.1-0.1c0,0,0-0.1,0-0.1c0,0,0-0.1,0.1-0.1
				l2.9-0.8c0,0,0.1,0,0.1,0C63.3,155.9,63.4,155.9,63.4,156C63.4,156,63.4,156,63.4,156z M66.2,155.3
				C66.1,155.3,66.1,155.3,66.2,155.3c-0.1,0-0.1-0.1-0.1-0.1c0,0,0-0.1,0-0.1c0,0,0-0.1,0.1-0.1l2.9-0.8c0,0,0.1,0,0.1,0
				c0,0,0.1,0,0.1,0.1c0,0,0,0.1,0,0.1c0,0,0,0.1-0.1,0.1L66.2,155.3z M80.6,151.1C80.7,151.1,80.7,151.1,80.6,151.1
				c0.1,0,0.1,0.1,0.1,0.1c0,0,0,0.1,0,0.1c0,0,0,0.1-0.1,0.1l-2.9,0.8c0,0-0.1,0-0.1,0c0,0-0.1,0-0.1-0.1c0,0,0-0.1,0-0.1
				c0,0,0-0.1,0.1-0.1L80.6,151.1z M83.6,150.5C83.5,150.5,83.5,150.5,83.6,150.5c-0.1,0-0.1-0.1-0.2-0.1c0,0,0-0.1,0-0.1
				c0,0,0-0.1,0.1-0.1l2.9-0.8c0,0,0.1,0,0.1,0c0,0,0.1,0,0.1,0.1c0,0,0,0.1,0,0.1c0,0,0,0.1-0.1,0.1L83.6,150.5z M89.3,148.9
				C89.3,148.9,89.2,148.9,89.3,148.9c-0.1-0.1-0.1-0.1,0-0.2c0,0,0-0.1,0.1-0.1l2.9-0.8c0,0,0.1,0,0.1,0c0,0,0.1,0,0.1,0.1
				c0,0,0,0.1,0,0.1c0,0,0,0.1-0.1,0.1L89.3,148.9C89.3,148.9,89.3,148.9,89.3,148.9z M22.8,167.3C22.7,167.3,22.7,167.3,22.8,167.3
				l-3,0.9c0,0-0.1,0-0.1,0c0,0-0.1,0-0.1-0.1c0,0,0-0.1,0-0.1c0,0,0-0.1,0.1-0.1l2.9-0.8c0,0,0.1,0,0.1,0
				C22.7,167.1,22.8,167.1,22.8,167.3C22.8,167.2,22.8,167.2,22.8,167.3z M28.4,165.5C28.5,165.5,28.5,165.5,28.4,165.5
				c0.1,0,0.1,0.1,0.2,0.1c0,0,0,0.1,0,0.1c0,0,0,0.1-0.1,0.1l-2.9,0.8c0,0-0.1,0-0.1,0c0,0-0.1,0-0.1-0.1c0,0,0-0.1,0-0.1
				c0,0,0-0.1,0.1-0.1L28.4,165.5z M37,163.2C37,163.2,37,163.2,37,163.2c0-0.1,0.1-0.1,0.1-0.1l2.9-0.8c0,0,0.1,0,0.1,0
				c0,0,0.1,0,0.1,0.1c0,0,0,0.1,0,0.1c0,0,0,0.1-0.1,0.1l-2.9,0.8C37.1,163.3,37.1,163.3,37,163.2C37.1,163.3,37,163.3,37,163.2z
				 M34.2,163.9C34.3,163.9,34.3,163.9,34.2,163.9c0.1,0,0.1,0.1,0.1,0.1c0,0,0,0.1,0,0.1c0,0,0,0.1-0.1,0.1l-2.9,0.8
				c0,0-0.1,0-0.1,0c0,0-0.1,0-0.1-0.1c0,0,0-0.1,0-0.1c0,0,0-0.1,0.1-0.1L34.2,163.9z M4.8,171.6c0,0,0.1,0,0.1,0c0,0,0.1,0,0.1,0
				c0,0,0,0.1,0,0.1c0,0,0,0.1,0,0.1l-0.6,0.7l0.8-0.3c0,0,0.1,0,0.1,0c0,0,0.1,0,0.1,0.1c0,0,0,0.1,0,0.1c0,0,0,0.1-0.1,0.1
				L4,172.8c0,0-0.1,0-0.1,0c0,0,0,0-0.1,0c0,0,0,0,0-0.1c0,0,0-0.1,0-0.1L4.8,171.6z M14,169.9C13.9,169.9,13.9,169.9,14,169.9
				c-0.1,0-0.1-0.1-0.1-0.1c0,0,0-0.1,0-0.1c0,0,0-0.1,0.1-0.1l2.9-0.9c0,0,0.1,0,0.1,0c0,0,0.1,0,0.1,0.1c0,0,0,0.1,0,0.1
				c0,0,0,0.1-0.1,0.1L14,169.9z M11,170.5C11.1,170.5,11.1,170.5,11,170.5c0.1,0,0.1,0.1,0.1,0.1c0,0,0,0.1,0,0.1
				c0,0,0,0.1-0.1,0.1l-2.9,0.9c0,0-0.1,0-0.1,0c0,0-0.1,0-0.1-0.1c0,0,0-0.1,0-0.1c0,0,0-0.1,0.1-0.1L11,170.5z M8.8,167.2
				c0,0,0.1,0,0.1,0c0,0,0.1,0,0.1,0c0,0,0,0.1,0,0.1c0,0,0,0.1,0,0.1l-2,2.2c0,0-0.1,0-0.1,0c0,0-0.1,0-0.1,0c0,0,0-0.1-0.1-0.1
				c0,0,0-0.1,0-0.1L8.8,167.2z M12.8,162.8c0,0,0.1,0,0.1,0c0,0,0.1,0,0.1,0c0,0,0,0.1,0,0.1c0,0,0,0.1,0,0.1l-2,2.2
				c0,0-0.1,0-0.1,0c0,0-0.1,0-0.1,0c0,0,0-0.1-0.1-0.1c0,0,0-0.1,0-0.1L12.8,162.8z M17,158.5C17,158.5,17,158.6,17,158.5l-2,2.3
				c0,0-0.1,0-0.1,0c0,0-0.1,0-0.1,0c0,0,0-0.1-0.1-0.1c0,0,0-0.1,0-0.1l2-2.2c0,0,0.1,0,0.1,0C16.9,158.4,17,158.4,17,158.5
				C17,158.4,17,158.5,17,158.5z M18.8,156.3C18.8,156.3,18.8,156.2,18.8,156.3l2-2.3c0,0,0.1,0,0.1-0.1c0,0,0.1,0,0.1,0
				c0,0,0,0.1,0,0.1c0,0,0,0.1,0,0.1l-2,2.2c0,0-0.1,0-0.1,0c0,0-0.1,0-0.1,0C18.8,156.4,18.8,156.3,18.8,156.3z M24.8,149.6
				c0,0,0.1,0,0.1,0c0,0,0.1,0,0.1,0c0,0,0,0.1,0,0.1c0,0,0,0.1,0,0.1l-2,2.2c0,0-0.1,0-0.1,0.1c0,0-0.1,0-0.1,0c0,0,0-0.1-0.1-0.1
				c0,0,0-0.1,0-0.1L24.8,149.6z M29,145.4l-2,2.2c0,0-0.1,0-0.1,0c0,0-0.1,0-0.1,0c0,0,0-0.1-0.1-0.1c0,0,0-0.1,0-0.1l2-2.2
				c0,0,0.1,0,0.1,0c0,0,0.1,0,0.1,0C29,145.2,29,145.3,29,145.4C29,145.3,29,145.4,29,145.4z M32.8,140.8c0,0,0.1,0,0.1,0
				c0,0,0.1,0,0.1,0c0,0,0,0.1,0,0.1c0,0,0,0.1,0,0.1l-2,2.2c0,0-0.1,0-0.1,0c0,0-0.1,0-0.1,0c0,0,0-0.1-0.1-0.1c0,0,0-0.1,0-0.1
				L32.8,140.8z M36.8,136.4c0,0,0.1,0,0.1,0c0,0,0.1,0,0.1,0c0,0,0,0.1,0,0.1c0,0,0,0.1,0,0.1l-2,2.2c0,0-0.1,0-0.1,0
				c0,0-0.1,0-0.1,0c0,0,0-0.1-0.1-0.1c0,0,0-0.1,0-0.1L36.8,136.4z M40.9,132C40.9,132,41,132,40.9,132c0.1,0.1,0.1,0.1,0.1,0.1
				c0,0,0,0.1,0,0.1l-2,2.2c0,0-0.1,0-0.1,0c0,0-0.1,0-0.1,0c0,0,0-0.1-0.1-0.1c0,0,0-0.1,0-0.1l2-2.2C40.8,132,40.9,132,40.9,132z
				 M45,127.7C45,127.7,45,127.8,45,127.7l-2,2.3c0,0-0.1,0-0.1,0.1c0,0-0.1,0-0.1,0c0,0,0-0.1-0.1-0.1c0,0,0-0.1,0-0.1l2-2.2
				c0,0,0.1,0,0.1,0c0,0,0.1,0,0.1,0C45,127.6,45,127.7,45,127.7z M49,123.3C49,123.3,49,123.4,49,123.3l-2,2.3c0,0-0.1,0-0.1,0
				c0,0-0.1,0-0.1,0c0,0,0-0.1-0.1-0.1c0,0,0-0.1,0-0.1l2-2.2c0,0,0.1,0,0.1,0C48.9,123.2,49,123.2,49,123.3
				C49,123.2,49,123.3,49,123.3z M52.9,118.8C52.9,118.8,53,118.8,52.9,118.8c0.1,0.1,0.1,0.1,0.1,0.1c0,0,0,0.1,0,0.1l-2,2.2
				c0,0-0.1,0-0.1,0c0,0-0.1,0-0.1,0c0,0,0-0.1-0.1-0.1c0,0,0-0.1,0-0.1l2-2.2C52.8,118.8,52.9,118.8,52.9,118.8z M56.8,114.4
				c0,0,0.1,0,0.1,0c0,0,0.1,0,0.1,0c0,0,0,0.1,0,0.1c0,0,0,0.1,0,0.1l-2,2.2c0,0-0.1,0-0.1,0c0,0-0.1,0-0.1,0c0,0,0-0.1-0.1-0.1
				c0,0,0-0.1,0-0.1L56.8,114.4z M60.8,110c0,0,0.1,0,0.1-0.1c0,0,0.1,0,0.1,0c0,0,0,0.1,0,0.1c0,0,0,0.1,0,0.1l-2,2.2
				c0,0-0.1,0-0.1,0c0,0-0.1,0-0.1,0c0,0,0-0.1-0.1-0.1c0,0,0-0.1,0-0.1L60.8,110z M64.9,105.6C64.9,105.6,65,105.6,64.9,105.6
				c0.1,0.1,0.1,0.1,0.1,0.1c0,0,0,0.1,0,0.1l-2,2.2c0,0-0.1,0-0.1,0.1c0,0-0.1,0-0.1,0c0,0,0-0.1-0.1-0.1c0,0,0-0.1,0-0.1l2-2.2
				C64.8,105.6,64.9,105.6,64.9,105.6z M66.8,103.5C66.8,103.5,66.8,103.4,66.8,103.5l2-2.3c0,0,0.1,0,0.1,0c0,0,0.1,0,0.1,0
				c0,0,0,0.1,0,0.1c0,0,0,0.1,0,0.1l-2,2.2c0,0-0.1,0-0.1,0C66.9,103.6,66.8,103.6,66.8,103.5C66.8,103.6,66.8,103.5,66.8,103.5z
				 M71,99.2c0,0-0.1,0-0.1,0c0,0-0.1,0-0.1,0c0,0,0-0.1-0.1-0.1c0,0,0-0.1,0-0.1l2-2.2c0,0,0.1,0,0.1,0c0,0,0.1,0,0.1,0
				c0,0,0,0.1,0,0.1c0,0,0,0.1,0,0.1L71,99.2z M74.8,94.7C74.8,94.7,74.8,94.6,74.8,94.7l2-2.3c0,0,0.1,0,0.1,0c0,0,0.1,0,0.1,0
				c0,0,0,0.1,0,0.1c0,0,0,0.1,0,0.1l-2,2.2c0,0-0.1,0-0.1,0C74.9,94.8,74.8,94.8,74.8,94.7C74.8,94.8,74.8,94.7,74.8,94.7z
				 M85,83.7C85,83.7,85,83.8,85,83.7L83,86c0,0-0.1,0-0.1,0c0,0-0.1,0-0.1,0c0,0,0-0.1-0.1-0.1c0,0,0-0.1,0-0.1l2-2.2
				c0,0,0.1,0,0.1,0c0,0,0.1,0,0.1,0C85,83.6,85,83.7,85,83.7z M80.8,88c0,0,0.1,0,0.1,0c0,0,0.1,0,0.1,0c0,0,0,0.1,0,0.1
				c0,0,0,0.1,0,0.1l-2,2.2c0,0-0.1,0-0.1,0c0,0-0.1,0-0.1,0c0,0,0-0.1-0.1-0.1c0,0,0-0.1,0-0.1L80.8,88z M86.8,81.5
				C86.8,81.5,86.8,81.4,86.8,81.5l2-2.3c0,0,0.1,0,0.1-0.1c0,0,0.1,0,0.1,0c0,0,0,0.1,0,0.1c0,0,0,0.1,0,0.1l-2,2.2
				c0,0-0.1,0-0.1,0c0,0-0.1,0-0.1,0C86.8,81.6,86.8,81.5,86.8,81.5z M92.8,74.8c0,0,0.1,0,0.1-0.1c0,0,0.1,0,0.1,0c0,0,0,0.1,0,0.1
				c0,0,0,0.1,0,0.1l-2,2.2c0,0-0.1,0-0.1,0.1c0,0-0.1,0-0.1,0c0,0,0-0.1-0.1-0.1c0,0,0-0.1,0-0.1L92.8,74.8z M96.1,71.2
				c0,0,0.1,0,0.1-0.1c0,0,0.1,0,0.1,0c0,0,0,0.1,0.1,0.1c0,0,0,0.1,0,0.1L95,72.8c0,0-0.1,0-0.1,0.1c0,0-0.1,0-0.1,0
				c0,0,0-0.1-0.1-0.1c0,0,0-0.1,0-0.1L96.1,71.2z"/>
			
				<path fill-rule="evenodd" clip-rule="evenodd" fill="none" stroke="#EFEFEF" stroke-width="2.9" stroke-linecap="round" stroke-linejoin="round" stroke-miterlimit="3" d="
				M98,146.5v16.8c0,3.8,1.9,5.7,5.7,5.7h214.2c3.8,0,5.7-1.9,5.7-5.7V14c0-3.8-1.9-5.7-5.7-5.7H103.8C100,8.3,98,10.2,98,14v132.3"
				/>
		</g>
	</g>
</g>
</svg>
